<svg xmlns="http://www.w3.org/2000/svg" viewBox="0 0 101.38 106.79">
    <defs>
        <style>.cls-1{fill:#1547fe;}.cls-2{fill:#bed8fd;}</style>
    </defs>
    <title>4</title>
    <g id="Слой_2" data-name="Слой 2">
        <g id="Слой_1-2" data-name="Слой 1">
            <path class="cls-1"
                  d="M85,45.21a.15.15,0,0,1,.15.15v59.21a.15.15,0,0,1-.15.15H47a.15.15,0,0,1-.15-.15V45.35a.15.15,0,0,1,.15-.15H85m0-2H47a2.15,2.15,0,0,0-2.15,2.15v59.21A2.15,2.15,0,0,0,47,106.71H85a2.15,2.15,0,0,0,2.15-2.15V45.35A2.15,2.15,0,0,0,85,43.21Z"/>
            <rect class="cls-2" x="50.54" y="51.26" width="30.93" height="13.88" rx="0.82" ry="0.82"/>
            <path class="cls-1"
                  d="M80.46,52.26V64.13H51.54V52.26H80.46m.18-2H51.35a1.82,1.82,0,0,0-1.82,1.82V64.31a1.82,1.82,0,0,0,1.82,1.82H80.65a1.82,1.82,0,0,0,1.82-1.82V52.07a1.82,1.82,0,0,0-1.82-1.82Z"/>
            <path class="cls-1"
                  d="M80.46,85V97.74H77.23V85h3.23m.34-2H76.89a1.66,1.66,0,0,0-1.66,1.66V98.08a1.66,1.66,0,0,0,1.66,1.66H80.8a1.66,1.66,0,0,0,1.66-1.66V84.63A1.66,1.66,0,0,0,80.8,83Z"/>
            <path class="cls-1"
                  d="M53.19,94.45a1.8,1.8,0,1,1-1.8,1.8,1.8,1.8,0,0,1,1.8-1.8m0-1.7a3.5,3.5,0,1,0,3.5,3.5,3.5,3.5,0,0,0-3.5-3.5Z"/>
            <path class="cls-1"
                  d="M61.62,94.45a1.8,1.8,0,1,1-1.8,1.8,1.8,1.8,0,0,1,1.8-1.8m0-1.7a3.5,3.5,0,1,0,3.5,3.5,3.5,3.5,0,0,0-3.5-3.5Z"/>
            <path class="cls-1"
                  d="M70,94.45a1.8,1.8,0,1,1-1.8,1.8,1.8,1.8,0,0,1,1.8-1.8m0-1.7a3.5,3.5,0,1,0,3.5,3.5,3.5,3.5,0,0,0-3.5-3.5Z"/>
            <path class="cls-1"
                  d="M53.27,84.68a1.8,1.8,0,1,1-1.8,1.8,1.8,1.8,0,0,1,1.8-1.8m0-1.7a3.5,3.5,0,1,0,3.5,3.5,3.5,3.5,0,0,0-3.5-3.5Z"/>
            <path class="cls-1"
                  d="M61.69,84.68a1.8,1.8,0,1,1-1.8,1.8,1.8,1.8,0,0,1,1.8-1.8m0-1.7a3.5,3.5,0,1,0,3.5,3.5,3.5,3.5,0,0,0-3.5-3.5Z"/>
            <path class="cls-1"
                  d="M70.11,84.68a1.8,1.8,0,1,1-1.8,1.8,1.8,1.8,0,0,1,1.8-1.8m0-1.7a3.5,3.5,0,1,0,3.5,3.5,3.5,3.5,0,0,0-3.5-3.5Z"/>
            <path class="cls-1"
                  d="M53.27,74.9a1.8,1.8,0,1,1-1.8,1.8,1.8,1.8,0,0,1,1.8-1.8m0-1.7a3.5,3.5,0,1,0,3.5,3.5,3.5,3.5,0,0,0-3.5-3.5Z"/>
            <path class="cls-1"
                  d="M61.69,74.9a1.8,1.8,0,1,1-1.8,1.8,1.8,1.8,0,0,1,1.8-1.8m0-1.7a3.5,3.5,0,1,0,3.5,3.5,3.5,3.5,0,0,0-3.5-3.5Z"/>
            <path class="cls-1"
                  d="M70.11,74.9a1.8,1.8,0,1,1-1.8,1.8,1.8,1.8,0,0,1,1.8-1.8m0-1.7a3.5,3.5,0,1,0,3.5,3.5,3.5,3.5,0,0,0-3.5-3.5Z"/>
            <path class="cls-1"
                  d="M78.73,74.9a1.8,1.8,0,1,1-1.8,1.8,1.8,1.8,0,0,1,1.8-1.8m0-1.7a3.5,3.5,0,1,0,3.5,3.5,3.5,3.5,0,0,0-3.5-3.5Z"/>
            <path class="cls-1"
                  d="M60.63,61.2h1.65V56.5l.18-.81-.57.7-1.06.73-.65-.89L62.89,54h.87V61.2h1.62v1.31H60.63Z"/>
            <path class="cls-1"
                  d="M69.49,60.82l-.63.49v.06l.86-.17H72v1.31H67v-.8q3.28-3.45,3.29-5.21a1.13,1.13,0,0,0-.29-.82,1.16,1.16,0,0,0-.87-.3,2.1,2.1,0,0,0-1.45.57L67,54.86A3.77,3.77,0,0,1,69.48,54a2.47,2.47,0,0,1,1.7.57,2.06,2.06,0,0,1,.65,1.63Q71.82,58.06,69.49,60.82Z"/>
            <path class="cls-1"
                  d="M76.89,61a1.27,1.27,0,0,0,.4-1,1.19,1.19,0,0,0-.41-1,2,2,0,0,0-1.27-.32h-.86v-.82l1.44-2,.68-.54-.94.11h-2V54.18h4.55V55L76.8,57.27l-.52.32v.06l.5-.07a2.23,2.23,0,0,1,1.48.67,2.3,2.3,0,0,1,.58,1.67A2.51,2.51,0,0,1,78,62a3.26,3.26,0,0,1-2.17.71,4.4,4.4,0,0,1-2-.37L74.26,61a3.36,3.36,0,0,0,1.52.35A1.55,1.55,0,0,0,76.89,61Z"/>
            <path class="cls-1"
                  d="M40.88,91H1a1,1,0,0,1-1-1V1A1,1,0,0,1,1,0H66a1,1,0,0,1,1,1V39.08a1,1,0,0,1-2,0V2H2V89H40.88a1,1,0,0,1,0,2Z"/>
            <path class="cls-1" d="M50.77,19H17.6a1,1,0,0,1,0-2H50.77a1,1,0,0,1,0,2Z"/>
            <path class="cls-1" d="M57.33,27.77H10.78a1,1,0,1,1,0-2H57.33a1,1,0,1,1,0,2Z"/>
            <path class="cls-1" d="M57.33,32.95H10.78a1,1,0,1,1,0-2H57.33a1,1,0,1,1,0,2Z"/>
            <path class="cls-1" d="M57.33,38.58H10.78a1,1,0,1,1,0-2H57.33a1,1,0,0,1,0,2Z"/>
            <path class="cls-1" d="M40.18,44.21H10.62a1,1,0,0,1,0-2H40.18a1,1,0,0,1,0,2Z"/>
            <path class="cls-1" d="M40.18,50.71H10.62a1,1,0,0,1,0-2H40.18a1,1,0,0,1,0,2Z"/>
            <circle class="cls-2" cx="18.9" cy="72.52" r="8.74"/>
            <path class="cls-1"
                  d="M18.9,82.26a9.74,9.74,0,1,1,9.74-9.74A9.75,9.75,0,0,1,18.9,82.26Zm0-17.47a7.74,7.74,0,1,0,7.74,7.74A7.75,7.75,0,0,0,18.9,64.78Z"/>
            <path class="cls-1"
                  d="M95.17,102.77a3.34,3.34,0,0,1-3.33-3.33v-53a1,1,0,0,1,1-1H97.5a1,1,0,0,1,1,1v53A3.34,3.34,0,0,1,95.17,102.77ZM93.83,47.48v52a1.33,1.33,0,1,0,2.67,0v-52Z"/>
            <path class="cls-1" d="M95.17,47.48a1,1,0,0,1-1-1V44a1,1,0,0,1,2,0v2.52A1,1,0,0,1,95.17,47.48Z"/>
            <path class="cls-1" d="M95.17,106.79a1,1,0,0,1-1-1v-4a1,1,0,0,1,2,0v4A1,1,0,0,1,95.17,106.79Z"/>
            <path class="cls-1" d="M97.5,91H92.83a1,1,0,0,1,0-2H97.5a1,1,0,0,1,0,2Z"/>
            <path class="cls-1"
                  d="M100.38,68.27a1,1,0,0,1-1-1V49.6H97.5a1,1,0,0,1,0-2h2.88a1,1,0,0,1,1,1V67.27A1,1,0,0,1,100.38,68.27Z"/>
        </g>
    </g>
</svg>