<svg xmlns="http://www.w3.org/2000/svg" viewBox="0 0 70.38 93.56">
    <defs>
        <style>.cls-1{fill:#1547fe;}.cls-2{fill:#bed8fd;}</style>
    </defs>
    <title>3</title>
    <g id="Слой_2" data-name="Слой 2">
        <g id="Слой_1-2" data-name="Слой 1">
            <path class="cls-1"
                  d="M11.3,83.26a6.15,6.15,0,1,1,6.15-6.15A6.16,6.16,0,0,1,11.3,83.26Zm0-10.3a4.15,4.15,0,1,0,4.15,4.15A4.16,4.16,0,0,0,11.3,73Z"/>
            <path class="cls-2" d="M11.3,82.26A10.3,10.3,0,0,0,1,92.56H21.6A10.3,10.3,0,0,0,11.3,82.26Z"/>
            <path class="cls-1" d="M22.6,93.56H0v-1a11.3,11.3,0,1,1,22.6,0Zm-20.55-2h18.5a9.3,9.3,0,0,0-18.5,0Z"/>
            <path class="cls-1"
                  d="M59.08,83.26a6.15,6.15,0,1,1,6.15-6.15A6.16,6.16,0,0,1,59.08,83.26Zm0-10.3a4.15,4.15,0,1,0,4.15,4.15A4.16,4.16,0,0,0,59.08,73Z"/>
            <path class="cls-2" d="M59.08,82.26a10.3,10.3,0,0,0-10.3,10.3h20.6A10.3,10.3,0,0,0,59.08,82.26Z"/>
            <path class="cls-1" d="M70.38,93.56H47.78v-1a11.3,11.3,0,1,1,22.6,0Zm-20.55-2h18.5a9.3,9.3,0,0,0-18.5,0Z"/>
            <path class="cls-1" d="M35.08,77.17a1,1,0,0,1-1-1V63.87a1,1,0,0,1,2,0v12.3A1,1,0,0,1,35.08,77.17Z"/>
            <path class="cls-1"
                  d="M43.78,85.86a1,1,0,0,1-.71-.29l-8.69-8.69a1,1,0,0,1,1.41-1.41l8.69,8.69a1,1,0,0,1-.71,1.71Z"/>
            <path class="cls-1"
                  d="M26.39,85.86a1,1,0,0,1-.71-1.71l8.69-8.69a1,1,0,0,1,1.41,1.41l-8.69,8.69A1,1,0,0,1,26.39,85.86Z"/>
            <path class="cls-2" d="M28.28,49.23v2a7.43,7.43,0,0,0,7.41,7.41h0a7.43,7.43,0,0,0,7.41-7.41v-2Z"/>
            <path class="cls-1"
                  d="M35.47,59.61a8.42,8.42,0,0,1-8.41-8.41l0-6a3.82,3.82,0,0,0-1.52-3.06,16.2,16.2,0,1,1,19.85-.55,4,4,0,0,0-1.52,3.11l0,6.52A8.42,8.42,0,0,1,35.47,59.61Zm-.38-44.77-.92,0a14.2,14.2,0,0,0-7.48,25.64A5.82,5.82,0,0,1,29,45.17l0,6a6.41,6.41,0,1,0,12.82,0l0-6.51A6,6,0,0,1,44.1,40h0a14.2,14.2,0,0,0-9-25.18Z"/>
            <path class="cls-1" d="M35.44,9.48a1,1,0,0,1-1-1V1a1,1,0,0,1,2,0V8.48A1,1,0,0,1,35.44,9.48Z"/>
            <path class="cls-1"
                  d="M20.72,15.28A1,1,0,0,1,20,15L14.72,9.7a1,1,0,0,1,1.41-1.41l5.29,5.29a1,1,0,0,1-.71,1.71Z"/>
            <path class="cls-1" d="M14.41,29.8H6.92a1,1,0,1,1,0-2h7.48a1,1,0,1,1,0,2Z"/>
            <path class="cls-1"
                  d="M50,15.79a1,1,0,0,1-.71-1.71l5.29-5.29A1,1,0,0,1,56,10.21L50.66,15.5A1,1,0,0,1,50,15.79Z"/>
            <path class="cls-1" d="M63.24,30.52H55.76a1,1,0,0,1,0-2h7.48a1,1,0,0,1,0,2Z"/>
            <rect class="cls-1" x="28.16" y="48.23" width="14.31" height="2"/>
            <rect class="cls-1" x="28.41" y="52.83" width="14.31" height="2"/>
            <path class="cls-1"
                  d="M34.52,39.22v-2a5.78,5.78,0,0,1-3-.87L32,35a5.29,5.29,0,0,0,2.86.85c1.41,0,2.36-.81,2.36-1.95s-.77-1.77-2.24-2.36c-2-.79-3.28-1.71-3.28-3.43a3.26,3.26,0,0,1,3-3.2v-2h1.23v1.93a5.3,5.3,0,0,1,2.58.69L38,26.86a4.8,4.8,0,0,0-2.5-.68c-1.53,0-2.1.91-2.1,1.71,0,1,.73,1.55,2.46,2.26,2,.83,3.08,1.87,3.08,3.63a3.45,3.45,0,0,1-3.14,3.37v2.06Z"/>
        </g>
    </g>
</svg>