<svg xmlns="http://www.w3.org/2000/svg" viewBox="0 0 89 76.92">
    <defs>
        <style>.cls-1{fill:#bed8fd;}.cls-2{fill:#1547fe;}</style>
    </defs>
    <title>7</title>
    <g id="Слой_2" data-name="Слой 2">
        <g id="Слой_1-2" data-name="Слой 1">
            <polyline class="cls-1"
                      points="1 66.72 6.54 66.72 22.09 50.11 35.8 59.33 52.75 39.75 68.23 51.43 88 36.89 88 75.92 1 75.92 1 4.76"/>
            <path class="cls-2"
                  d="M89,76.92H0V4.76a1,1,0,0,1,2,0v61H6.1L21.94,48.8,35.62,58l17-19.62,15.62,11.8L89,34.91Zm-87-2H87V38.86L68.22,52.67,52.9,41.11,36,60.65,22.24,51.41,7,67.72H2Z"/>
            <path class="cls-2"
                  d="M69.41,35.77A17.89,17.89,0,1,1,87.3,17.89,17.91,17.91,0,0,1,69.41,35.77ZM69.41,2A15.89,15.89,0,1,0,85.3,17.89,15.9,15.9,0,0,0,69.41,2Z"/>
            <path class="cls-2"
                  d="M68.57,30.26V27.33a8.44,8.44,0,0,1-4.44-1.28l.7-1.94A7.73,7.73,0,0,0,69,25.36c2.06,0,3.45-1.19,3.45-2.84s-1.13-2.58-3.28-3.45c-3-1.16-4.78-2.49-4.78-5s1.71-4.23,4.38-4.67V6.46h1.8V9.27a7.72,7.72,0,0,1,3.77,1l-.72,1.91a7,7,0,0,0-3.65-1c-2.23,0-3.07,1.33-3.07,2.49C66.89,15.21,68,16,70.48,17c3,1.22,4.49,2.73,4.49,5.31a5,5,0,0,1-4.58,4.93v3Z"/>
        </g>
    </g>
</svg>