<svg xmlns="http://www.w3.org/2000/svg" viewBox="0 0 101.91 109.04">
    <defs>
        <style>.cls-1{fill:#bed8fd;}.cls-2{fill:#1547fe;}.cls-3{fill:#fff;}</style>
    </defs>
    <title>2</title>
    <g id="Слой_2" data-name="Слой 2">
        <g id="Слой_1-2" data-name="Слой 1">
            <polygon class="cls-1"
                     points="25.61 10.48 23.82 1 4.81 1 4.81 25.04 33.01 25.04 33.01 1 28.71 1 25.61 10.48"/>
            <path class="cls-2"
                  d="M33,26H4.81a1,1,0,0,1-1-1V1a1,1,0,0,1,1-1h19a1,1,0,0,1,1,.81l1.07,5.65L27.76.69a1,1,0,0,1,1-.69H33a1,1,0,0,1,1,1V25A1,1,0,0,1,33,26ZM5.81,24H32V2H29.43l-2.87,8.79a1,1,0,0,1-1,.69,1,1,0,0,1-.92-.81L23,2H5.81Z"/>
            <path class="cls-2"
                  d="M33.18,38.28H4.65A4.65,4.65,0,0,1,0,33.64v-5A4.65,4.65,0,0,1,4.65,24H33.18a4.65,4.65,0,0,1,4.65,4.65v5A4.65,4.65,0,0,1,33.18,38.28ZM4.65,26A2.65,2.65,0,0,0,2,28.68v5a2.65,2.65,0,0,0,2.65,2.65H33.18a2.65,2.65,0,0,0,2.65-2.65v-5A2.65,2.65,0,0,0,33.18,26Z"/>
            <path class="cls-2"
                  d="M18.91,90.87A5.8,5.8,0,0,1,14,88.13a5.9,5.9,0,0,1-.48-5.24c.93-2.48,1.46-16.7,1.46-20.19a24.22,24.22,0,0,0-9.4-19.39A4.11,4.11,0,0,1,4,40.08V37.28H6v2.79a2.09,2.09,0,0,0,.78,1.66,26.21,26.21,0,0,1,10.18,21c0,2.47-.44,17.82-1.58,20.89a3.92,3.92,0,0,0,.3,3.48,3.83,3.83,0,0,0,6.5,0,3.92,3.92,0,0,0,.32-3.47c-1.12-3-1.6-18.63-1.6-20.89a26.06,26.06,0,0,1,10.33-21,2.09,2.09,0,0,0,.8-1.67V37.28h2v2.78a4.1,4.1,0,0,1-1.59,3.27,24.07,24.07,0,0,0-9.54,19.38c0,3.35.55,17.7,1.48,20.2a5.9,5.9,0,0,1-.49,5.21A5.81,5.81,0,0,1,18.91,90.87Z"/>
            <path class="cls-1"
                  d="M100.91,71.44a7.73,7.73,0,0,0-3.53-6.49A11.38,11.38,0,0,1,93,59.74l-.07-.17a11.91,11.91,0,0,1-.6-7,7.74,7.74,0,0,0-9.14-9.14,11.92,11.92,0,0,1-7-.6L76,42.78a11.38,11.38,0,0,1-5.2-4.41,7.74,7.74,0,0,0-13,0,11.38,11.38,0,0,1-5.2,4.41l-.17.07a11.92,11.92,0,0,1-7,.6,7.74,7.74,0,0,0-9.14,9.14,11.91,11.91,0,0,1-.6,7l-.07.17a11.38,11.38,0,0,1-4.41,5.2,7.74,7.74,0,0,0,0,13,11.38,11.38,0,0,1,4.41,5.2l.07.17a11.91,11.91,0,0,1,.6,7,7.74,7.74,0,0,0,9.14,9.14,11.91,11.91,0,0,1,7,.6l.17.07a11.38,11.38,0,0,1,5.2,4.41,7.74,7.74,0,0,0,13,0A11.38,11.38,0,0,1,76,100.1l.17-.07a11.91,11.91,0,0,1,7-.6,7.74,7.74,0,0,0,9.14-9.14,11.91,11.91,0,0,1,.6-7l.07-.17a11.38,11.38,0,0,1,4.41-5.2A7.73,7.73,0,0,0,100.91,71.44Z"/>
            <path class="cls-2"
                  d="M64.31,109a8.72,8.72,0,0,1-7.33-4,10.39,10.39,0,0,0-4.74-4l-.18-.07a10.86,10.86,0,0,0-6.39-.55A8.74,8.74,0,0,1,35.34,90.08a10.87,10.87,0,0,0-.55-6.39l-.08-.18a10.39,10.39,0,0,0-4-4.74,8.74,8.74,0,0,1,0-14.66,10.39,10.39,0,0,0,4-4.74l.07-.18a10.87,10.87,0,0,0,.55-6.39A8.74,8.74,0,0,1,45.66,42.47a10.88,10.88,0,0,0,6.39-.55l.18-.07a10.39,10.39,0,0,0,4.74-4,8.74,8.74,0,0,1,14.67,0,10.39,10.39,0,0,0,4.74,4l.18.07a10.87,10.87,0,0,0,6.39.55A8.74,8.74,0,0,1,93.27,52.8a10.87,10.87,0,0,0,.55,6.39l.07.17a10.39,10.39,0,0,0,4,4.76,8.74,8.74,0,0,1,0,14.66,10.39,10.39,0,0,0-4,4.74l-.07.17a10.85,10.85,0,0,0-.55,6.4A8.74,8.74,0,0,1,82.95,100.4a10.86,10.86,0,0,0-6.39.55l-.15.06a10.41,10.41,0,0,0-4.77,4A8.72,8.72,0,0,1,64.31,109ZM53,99.17A12.38,12.38,0,0,1,58.65,104,6.74,6.74,0,0,0,70,104a12.38,12.38,0,0,1,5.66-4.79l.17-.07a12.85,12.85,0,0,1,7.56-.66,6.74,6.74,0,0,0,8-8A12.84,12.84,0,0,1,92,82.92l.07-.18a12.37,12.37,0,0,1,4.78-5.65,6.74,6.74,0,0,0,0-11.31A12.37,12.37,0,0,1,92,60.12L92,59.94a12.84,12.84,0,0,1-.66-7.55,6.74,6.74,0,0,0-8-8,12.87,12.87,0,0,1-7.56-.66l-.17-.07A12.39,12.39,0,0,1,70,38.91a6.74,6.74,0,0,0-11.31,0A12.38,12.38,0,0,1,53,43.7l-.17.07a12.86,12.86,0,0,1-7.56.66,6.74,6.74,0,0,0-8,8A12.86,12.86,0,0,1,36.64,60l-1-.21.93.38a12.38,12.38,0,0,1-4.79,5.66,6.74,6.74,0,0,0,0,11.31,12.38,12.38,0,0,1,4.79,5.66l.07.17a12.86,12.86,0,0,1,.66,7.55,6.74,6.74,0,0,0,8,8,12.86,12.86,0,0,1,7.56.66l-.21,1Z"/>
            <circle class="cls-3" cx="64.31" cy="71.44" r="23.87"/>
            <path class="cls-2"
                  d="M64.31,96.31A24.87,24.87,0,1,1,89.18,71.44,24.9,24.9,0,0,1,64.31,96.31Zm0-47.74A22.87,22.87,0,1,0,87.18,71.44,22.9,22.9,0,0,0,64.31,48.57Z"/>
            <path class="cls-2"
                  d="M56.93,62.89a3.91,3.91,0,0,1,2.93-1.13,4,4,0,0,1,2.94,1.09,4.77,4.77,0,0,1,1.09,3.48,4.77,4.77,0,0,1-1.09,3.48,4.52,4.52,0,0,1-5.88,0,4.77,4.77,0,0,1-1.09-3.48A4.75,4.75,0,0,1,56.93,62.89Zm13.73-1.16,1.18.86L58.43,81.22l-1.21-.89ZM59.86,69.5a2.11,2.11,0,0,0,1.72-.71,3.91,3.91,0,0,0,.59-2.46,3.91,3.91,0,0,0-.59-2.46,2.43,2.43,0,0,0-3.44,0,3.9,3.9,0,0,0-.59,2.46Q57.54,69.5,59.86,69.5Zm6.37,3.39a3.91,3.91,0,0,1,2.93-1.13,4,4,0,0,1,2.94,1.09,4.77,4.77,0,0,1,1.09,3.48,4.76,4.76,0,0,1-1.09,3.48,4.52,4.52,0,0,1-5.88,0,4.76,4.76,0,0,1-1.09-3.48A4.75,4.75,0,0,1,66.22,72.89Zm2.93,6.61a2.11,2.11,0,0,0,1.72-.71,5.41,5.41,0,0,0,0-4.92,2.43,2.43,0,0,0-3.44,0,3.91,3.91,0,0,0-.59,2.46Q66.84,79.5,69.15,79.5Z"/>
        </g>
    </g>
</svg>