<?xml version="1.0" encoding="utf-8"?>
<!-- Generator: Adobe Illustrator 21.0.0, SVG Export Plug-In . SVG Version: 6.00 Build 0)  -->
<svg version="1.1" id="Слой_1" xmlns="http://www.w3.org/2000/svg" xmlns:xlink="http://www.w3.org/1999/xlink" x="0px" y="0px"
	 viewBox="0 0 88.8 91.4" style="enable-background:new 0 0 88.8 91.4;" xml:space="preserve">
<style type="text/css">
	.st0{fill:#1547FE;}
	.st1{fill:#BED8FD;}
</style>
<title>6</title>
<g id="Слой_2">
	<g id="Слой_1-2">
		<g>
			<path class="st0" d="M44.4,46c-10.4,0-18.9-8.5-18.9-18.9v-15C25.5,5.4,30.9,0,37.6,0h13.5c6.7,0,12.1,5.4,12.1,12.1v15
				C63.2,37.5,54.8,46,44.4,46z M37.6,2C32,2,27.5,6.5,27.5,12.1v15c0,9.3,7.6,16.9,16.9,16.9c9.3,0,16.9-7.6,16.9-16.9v-15
				C61.2,6.5,56.7,2,51.1,2H37.6z"/>
		</g>
		<g>
			<path class="st1" d="M25,53.2c-13.6,1.1-24,12.4-24,26v11.3h36.2L25,53.2z"/>
			<path class="st0" d="M38.6,91.4H0V79.2c0-14,10.9-25.9,24.9-27l0.8-0.1L38.6,91.4z M2,89.4h33.8L24.3,54.3
				C11.7,55.7,2,66.5,2,79.2V89.4z"/>
		</g>
		<g>
			<path class="st1" d="M63.8,53.2L51.5,90.4h36.2V79.2C87.7,65.6,77.3,54.3,63.8,53.2z"/>
			<path class="st0" d="M88.8,91.4H50.1l12.9-39.3l0.8,0.1c14,1.1,24.9,13,24.9,27V91.4z M52.9,89.4h33.8V79.2
				c0-12.7-9.7-23.5-22.3-24.9L52.9,89.4z"/>
		</g>
		<g>
			<path class="st0" d="M47,61.5h-5.3c-1.1,0-2.1-0.9-2.1-2.1v-5.3c0-1.1,0.9-2.1,2.1-2.1H47c1.1,0,2.1,0.9,2.1,2.1v5.3
				C49.1,60.6,48.2,61.5,47,61.5z M41.7,54.1C41.7,54.1,41.6,54.1,41.7,54.1l-0.1,5.4c0,0,0,0.1,0.1,0.1H47c0,0,0.1,0,0.1-0.1v-5.3
				c0,0,0-0.1-0.1-0.1H41.7z"/>
		</g>
		<g>
			<path class="st0" d="M44.4,85.6l-6.1-8.8l5.1-16.6l1,0.3l1-0.3l5.1,16.6L44.4,85.6z M40.5,76.5l3.9,5.6l3.9-5.6l-3.9-12.7
				L40.5,76.5z"/>
		</g>
		<g>
			<path class="st0" d="M26.5,15.9c-0.5,0-1-0.4-1-0.9c0-0.6,0.4-1,0.9-1.1c4.5-0.3,8.6-2.4,11.5-5.8c0.4-0.4,1-0.5,1.4-0.1
				c0.4,0.4,0.5,1,0.1,1.4C36.2,13.2,31.6,15.5,26.5,15.9C26.5,15.9,26.5,15.9,26.5,15.9z"/>
		</g>
		<g>
			<path class="st0" d="M54.2,18.2c-9.4,0-17.4-7-18.7-16.3c-0.1-0.5,0.3-1.1,0.9-1.1c0.5-0.1,1.1,0.3,1.1,0.9
				c1.1,8.3,8.3,14.6,16.7,14.6c0,0,0,0,0,0c2.6,0,5.2-0.6,7.5-1.8c0.5-0.2,1.1,0,1.3,0.4c0.2,0.5,0,1.1-0.4,1.3
				C60.1,17.5,57.2,18.2,54.2,18.2C54.2,18.2,54.2,18.2,54.2,18.2z"/>
		</g>
	</g>
</g>
</svg>
