<svg xmlns="http://www.w3.org/2000/svg" viewBox="0 0 86.66 96.9">
    <defs>
        <style>.cls-1{fill:#1547fe;}.cls-2{fill:#bed8fd;}</style>
    </defs>
    <title>10</title>
    <g id="Слой_2" data-name="Слой 2">
        <g id="Слой_1-2" data-name="Слой 1">
            <g id="Слой_2-2" data-name="Слой 2">
                <g id="Слой_1-2-2" data-name="Слой 1-2">
                    <path class="cls-1"
                          d="M64.82,30.32h-43a4.39,4.39,0,0,1-.64-8.72A22.26,22.26,0,0,1,39.84,2.28a1,1,0,1,1,.31,2A20.26,20.26,0,0,0,23.09,22.63l-.08.92H21.82a2.39,2.39,0,0,0,0,4.77h43a2.39,2.39,0,0,0,0-4.77H63.63l-.08-.92a20.27,20.27,0,0,0-17-18.38,1,1,0,1,1,.31-2A22.26,22.26,0,0,1,65.46,21.6a4.39,4.39,0,0,1-.64,8.72Z"/>
                    <path class="cls-1"
                          d="M44.32,14.9h-2a3.25,3.25,0,0,1-3.25-3.25V3.25A3.25,3.25,0,0,1,42.34,0h2a3.25,3.25,0,0,1,3.25,3.25v8.4A3.25,3.25,0,0,1,44.32,14.9ZM42.34,2a1.25,1.25,0,0,0-1.25,1.25v8.4a1.25,1.25,0,0,0,1.25,1.25h2a1.25,1.25,0,0,0,1.25-1.25V3.25A1.25,1.25,0,0,0,44.32,2Z"/>
                    <path class="cls-1"
                          d="M37.28,52.55A12.42,12.42,0,0,1,24.86,40.14v-9a2.8,2.8,0,0,1,2-2.69l0-.1.73,0H59a2.79,2.79,0,0,1,2.79,2.79v9A12.44,12.44,0,0,1,49.38,52.55H37.28ZM27.65,30.34a.79.79,0,0,0-.79.79v9A10.42,10.42,0,0,0,37.28,50.55H49.34A10.45,10.45,0,0,0,59.79,40.1v-9a.79.79,0,0,0-.79-.79Z"/>
                    <path class="cls-2"
                          d="M23.69,59.45H63A22.69,22.69,0,0,1,85.66,82.14V92.9a3,3,0,0,1-3,3H4a3,3,0,0,1-3-3V82.14A22.69,22.69,0,0,1,23.69,59.45Z"/>
                    <path class="cls-1"
                          d="M82.66,96.9H4a4,4,0,0,1-4-4V82.14A23.72,23.72,0,0,1,23.69,58.45H63A23.72,23.72,0,0,1,86.66,82.14V92.9A4,4,0,0,1,82.66,96.9Zm-59-36.45A21.71,21.71,0,0,0,2,82.14V92.9a2,2,0,0,0,2,2H82.66a2,2,0,0,0,2-2V82.14A21.72,21.72,0,0,0,63,60.45Z"/>
                </g>
            </g>
        </g>
    </g>
</svg>