<svg xmlns="http://www.w3.org/2000/svg" viewBox="0 0 92.62 62.84">
    <defs>
        <style>.cls-1{fill:#bed8fd;}.cls-2{fill:#1547fe;}.cls-3{fill:#fff;}</style>
    </defs>
    <title>9</title>
    <g id="Слой_2" data-name="Слой 2">
        <g id="Слой_1-2" data-name="Слой 1">
            <rect class="cls-1" x="1" y="42.22" width="19.62" height="19.62"/>
            <path class="cls-2" d="M21.62,62.84H0V41.22H21.62ZM2,60.84H19.62V43.22H2Z"/>
            <rect class="cls-1" x="30.42" y="22.6" width="19.62" height="39.23"/>
            <path class="cls-2" d="M51,62.84H29.42V21.6H51Zm-19.62-2H49V23.6H31.42Z"/>
            <rect class="cls-1" x="59.85" y="2.99" width="19.62" height="58.85"/>
            <path class="cls-2" d="M80.46,62.84H58.85V2H80.46Zm-19.62-2H78.46V4H60.85Z"/>
            <circle class="cls-3" cx="78.79" cy="13.82" r="12.82"/>
            <path class="cls-2"
                  d="M78.79,27.65A13.82,13.82,0,1,1,92.62,13.82,13.84,13.84,0,0,1,78.79,27.65ZM78.79,2A11.82,11.82,0,1,0,90.62,13.82,11.84,11.84,0,0,0,78.79,2Z"/>
            <path class="cls-2"
                  d="M78.15,23.22V21a6.42,6.42,0,0,1-3.37-1l.53-1.48a5.87,5.87,0,0,0,3.17.95c1.56,0,2.62-.9,2.62-2.16s-.86-2-2.49-2.62C76.37,13.84,75,12.83,75,10.91a3.61,3.61,0,0,1,3.32-3.54V5.14h1.37V7.28a5.88,5.88,0,0,1,2.86.77L82,9.5a5.33,5.33,0,0,0-2.77-.75c-1.7,0-2.33,1-2.33,1.89,0,1.14.81,1.72,2.73,2.51,2.27.92,3.41,2.07,3.41,4a3.83,3.83,0,0,1-3.48,3.74v2.29Z"/>
        </g>
    </g>
</svg>