<svg xmlns="http://www.w3.org/2000/svg" viewBox="0 0 618.39 744.41"><defs><style>.cls-1{fill:#bed8fd;}</style></defs><title>2x2_2</title><g id="Слой_2" data-name="Слой 2"><g id="Слой_1-2" data-name="Слой 1"><path class="cls-1" d="M544.69,414.39C612,341.77,618.39,277.68,618.39,236c0-125-71.56-236-291.57-236C141,0,5.33,67.29,5.33,273.41v16.36H216c-1-7.61-1.29-15.53-1.29-27,0-90.78,51.27-108.94,94-108.94,64.08,0,87.58,39.53,87.58,85.45,0,58.73-39.51,97.2-80.1,134.56-44.86,40.59-92.91,76.91-142,112.15C117.48,527.6,58.73,567.12,0,605.56V744.41H608.77V573.53H315.07C438.95,503,497.7,465.66,544.69,414.39Z"/></g></g></svg>