<svg xmlns="http://www.w3.org/2000/svg" xmlns:xlink="http://www.w3.org/1999/xlink" viewBox="0 0 322 212"><defs><style>.cls-1{fill:#fff;stroke:#e5e5e6;stroke-miterlimit:10;}.cls-2{fill:#130e09;}.cls-3{fill:#be0442;}.cls-4{fill:url(#Безымянный_градиент_4);}</style><linearGradient id="Безымянный_градиент_4" x1="356.06" y1="-231.55" x2="369.28" y2="-230.22" gradientTransform="translate(-174.26 367.61) rotate(-7.02)" gradientUnits="userSpaceOnUse"><stop offset="0" stop-color="#fff" stop-opacity="0.2"/><stop offset="1" stop-color="#be0442"/></linearGradient></defs><title>logo_2.1_mob</title><g id="Слой_2" data-name="Слой 2"><g id="dash"><rect class="cls-1" x="0.5" y="0.5" width="321" height="211"/></g><g id="pack_1" data-name="pack 1"><path class="cls-2" d="M150.81,149.62h0l-.36,1.38-.78,2.87H149l-1.4-5.57h.77L149,151l.34,1.51h0l.37-1.5.76-2.75h.58l.78,2.79.38,1.46h0l.14-.7.14-.73.64-2.82H154l-1.41,5.57H152l-.75-2.77Z"/><path class="cls-2" d="M158.23,153.88h-.7v-5.57h.7Z"/><path class="cls-2" d="M166.45,153.88h-.69l-2-3.14-.74-1.22h0v4.35h-.7v-5.57h.7l2,3,.81,1.34,0,0v-4.36h.7Z"/><path class="cls-2" d="M174,153.88h-3.52v-5.57H174V149h-2.82v1.8h2.4v.62h-2.4v1.86H174Z"/><path class="cls-2" d="M144.94,164.23h-.7v-4l0,0-.43,1-1,2.08h-.62l-1-2.15-.42-1,0,0v4h-.7v-5.57h.7l1.18,2.6.55,1.3h0l.55-1.29,1.16-2.61h.69Z"/><path class="cls-2" d="M153,164.23h-.74l-.45-1.28H149.5l-.45,1.28h-.74l2-5.57H151Zm-1.39-1.89-.54-1.56-.41-1.19h0l-.39,1.15-.55,1.59Z"/><path class="cls-2" d="M160.28,164.23h-.78l-1.07-2.45h-1.26v2.45h-.7v-5.57h2.27a1.63,1.63,0,0,1,1.15.42,1.41,1.41,0,0,1,.46,1.1,1.58,1.58,0,0,1-1.2,1.53Zm-1.67-5h-1.44v1.89h1.41a1,1,0,0,0,1.06-1C159.64,159.57,159.24,159.27,158.61,159.27Z"/><path class="cls-2" d="M168.35,164.23h-.82l-1.7-2.83-1.07,1.29v1.54h-.7v-5.57h.71v3h0l1-1.25,1.47-1.76h.82l-1.82,2.19Z"/><path class="cls-2" d="M175.33,164.23h-3.52v-5.57h3.52v.65h-2.82v1.8h2.4v.62h-2.4v1.86h2.82Z"/><path class="cls-2" d="M182.23,159.27h-1.59v5h-.7v-5h-1.59v-.62h3.88Z"/><path class="cls-3" d="M177.34,82.94c-.55-.14-2.45-.72-3-.81h0a21,21,0,0,0-13.75,2.3c-.21.12-2.75,1.79-2.75,1.79a34.52,34.52,0,0,1-19.2,5,21.21,21.21,0,0,0,19.78,15.33.25.25,0,0,1,.24.24l1.42,27.75a.25.25,0,0,1-.07.19,7,7,0,0,1-1.47,1.11,13.23,13.23,0,0,1-5.23,1.66.25.25,0,0,0-.23.25h0a.25.25,0,0,0,.25.25h14.57a.25.25,0,0,0,.25-.25h0a.25.25,0,0,0-.23-.25,13.23,13.23,0,0,1-5.23-1.66,7,7,0,0,1-1.47-1.11.25.25,0,0,1-.07-.19l1.47-28.1a.25.25,0,0,1,.21-.23l.41-.07A21.21,21.21,0,0,0,179.7,89.87s.51-2.56.71-3.22,1.75-4.47,1.75-4.47C181.1,82.42,178.49,83.11,177.34,82.94Zm-3.39,7.62a3.09,3.09,0,1,1,2.67-3.46A3.09,3.09,0,0,1,173.94,90.55Z"/><path class="cls-4" d="M159.55,102.38a13.12,13.12,0,0,1-8.47,1.56,21.22,21.22,0,0,1,11.66-19.77,21.26,21.26,0,0,1,.78,12.3C163.19,97.82,162.32,100.81,159.55,102.38Z"/><path class="cls-2" d="M117,75c-.15.36.17,1,.72,1.51l2.13,1.81,1.56,1.32,1.13.94a4.48,4.48,0,0,1,.56.5,11.81,11.81,0,0,1-1.31-.1l-.3,0-2.61-.27-2.82-.29c-.72-.07-1.43.16-1.58.51s.31.7,1,.76l8.11.69c.72.06,1.4-.11,1.52-.37s-.23-.88-.77-1.36l-6.09-5.4C117.75,74.75,117.18,74.65,117,75Z"/><path class="cls-2" d="M122.32,66.88c-.22.28.07.87.64,1.32l6,4.67c.57.45,1.21.58,1.43.3s-.07-.87-.64-1.32l-6-4.67C123.18,66.74,122.54,66.6,122.32,66.88Z"/><path class="cls-2" d="M134.56,55.18c-.26.24-.06.87.44,1.39l3.68,3.9c.5.53.9,1,.9,1s-.58-.13-1.27-.32l-.23-.06c-.7-.19-1.84-.49-2.54-.66l-3.88-1a2.3,2.3,0,0,0-1.74.13c-.26.24-.06.87.44,1.39l5.21,5.52c.5.53,1.11.76,1.37.51s.06-.87-.43-1.4l-3.67-3.89c-.5-.53-.9-1-.89-1s.58.14,1.27.33,1.83.49,2.53.66l4.11,1a2.31,2.31,0,0,0,1.74-.12c.25-.24.05-.86-.44-1.39l-5.21-5.52C135.43,55.17,134.82,54.94,134.56,55.18Z"/><path class="cls-2" d="M152.62,53.6a19.06,19.06,0,0,0-.92-2.45A3,3,0,0,0,150.56,50a3.45,3.45,0,0,0-2.83-.29,3.39,3.39,0,0,0-2.29,1.78,3.05,3.05,0,0,0-.33,1.54,20.4,20.4,0,0,0,.52,2.57l.05.18a20.69,20.69,0,0,0,.91,2.46,3.1,3.1,0,0,0,1.1,1.16,3.38,3.38,0,0,0,2.88.29A3.48,3.48,0,0,0,152.83,58a3,3,0,0,0,.36-1.62,19.65,19.65,0,0,0-.51-2.57Zm-.95,3.74a2.31,2.31,0,0,1-3.31.91,3,3,0,0,1-.56-.44,21.23,21.23,0,0,1-.9-2.46l0-.08a20.36,20.36,0,0,1-.52-2.57s0,0,.25-.62a2.33,2.33,0,0,1,3.3-1,3,3,0,0,1,.57.4,19.6,19.6,0,0,1,.92,2.45l0,.08a20.47,20.47,0,0,1,.52,2.57A2.16,2.16,0,0,1,151.67,57.34Z"/><path class="cls-2" d="M159.5,48.34c0,.31.57.58,1.29.61h.28a1.32,1.32,0,0,1,1.27,1.36l-.22,6.45c0,.72.25,1.32.6,1.34s.67-.57.69-1.29l.22-6.46A1.32,1.32,0,0,1,165,49.09h.28c.72,0,1.32-.21,1.33-.52S166,48,165.3,48l-4.47-.15C160.11,47.79,159.51,48,159.5,48.34Z"/><path class="cls-2" d="M172.14,58.11a1.32,1.32,0,0,0,.8,1.68l3.61,1.27c.68.24,1.33.18,1.44-.12s-.36-.76-1-1l-2.39-.84a1.32,1.32,0,0,1-.8-1.68l.26-.73a1.32,1.32,0,0,1,1.68-.8l1.67.59c.68.24,1.32.2,1.43-.1s-.37-.73-1.05-1l-1.67-.59a1.32,1.32,0,0,1-.8-1.68l.22-.64a1.32,1.32,0,0,1,1.68-.8l2.39.84c.68.24,1.33.18,1.44-.12s-.36-.76-1-1l-3.61-1.27a1.32,1.32,0,0,0-1.68.8Z"/><path class="cls-2" d="M179.51,49.74c.71-.15,1.17-.52,1-.83s-.81-.36-1.49-.11l-.18.06c-.68.25-1.17.62-1.08.83s.73.26,1.44.11Z"/><path class="cls-2" d="M193.11,62.87a2.58,2.58,0,0,0,.56-2.11,2.06,2.06,0,0,0-.29-.93,18.68,18.68,0,0,0-1.92-1.78l-1.22-.94a1.32,1.32,0,0,0-1.84.23l-4.65,6c-.44.57-.58,1.22-.3,1.43s.87-.07,1.32-.64l1.14-1.47a1.24,1.24,0,0,1,1.72-.33,2.06,2.06,0,0,1,.59,2l-.56,2.2a1.87,1.87,0,0,0,.24,1.71c.31.24.71-.13.88-.84l.58-2.37A1.6,1.6,0,0,1,191,63.84,2.64,2.64,0,0,0,193.11,62.87Zm-1-.79c-.69.89-1.41.65-1.41.65a9.32,9.32,0,0,1-2.26-1.21,1.31,1.31,0,0,1-.21-1.83l.51-.66a1.32,1.32,0,0,1,1.84-.23h0a11,11,0,0,1,1.81,1.87S192.76,61.21,192.09,62.08Z"/><path class="cls-2" d="M201.12,67.84c-.21-.29-.86-.17-1.44.27l-6.09,4.53c-.58.43-.88,1-.67,1.3s.86.17,1.44-.27l6.09-4.53C201,68.71,201.33,68.12,201.12,67.84Z"/><path class="cls-2" d="M207.58,79.54c-.11-.29-.79-.51-1.51-.5l-8.25.14c-.72,0-1.2.31-1.07.65s.8.61,1.49.59a1.94,1.94,0,0,1,1.72,1.19l.58,1.51a1.94,1.94,0,0,1-.47,2c-.52.44-.84,1.09-.7,1.44s.69.25,1.23-.23l6.2-5.44C207.33,80.45,207.69,79.83,207.58,79.54Zm-2.47,1.37-1.88,1.59-.3.26a.88.88,0,0,1-1.48-.38l-.32-.82a.88.88,0,0,1,.84-1.27l.46,0,2.43-.09c.61,0,1.12,0,1.12,0S205.59,80.51,205.1,80.92Z"/></g></g></svg>