<svg xmlns="http://www.w3.org/2000/svg" xmlns:xlink="http://www.w3.org/1999/xlink" viewBox="0 0 606.5 427"><defs><style>.cls-1{fill:#130e09;}.cls-2{fill:#fff;}.cls-3{fill:#be0442;}.cls-4{fill:url(#Безымянный_градиент_4);}</style><linearGradient id="Безымянный_градиент_4" x1="360.16" y1="-63.98" x2="379.72" y2="-62.01" gradientTransform="translate(-61.41 303.66) rotate(-7.02)" gradientUnits="userSpaceOnUse"><stop offset="0" stop-color="#fff" stop-opacity="0.2"/><stop offset="1" stop-color="#be0442"/></linearGradient></defs><title>logo_2.2</title><g id="Слой_2" data-name="Слой 2"><g id="dash"><rect class="cls-1" width="606.5" height="427"/></g><g id="pack_1" data-name="pack 1"><path class="cls-2" d="M288.16,278.07h0l-.53,2-1.15,4.26h-.91l-2.07-8.25h1.14l.92,4,.5,2.23h0l.54-2.22,1.13-4.07h.85l1.16,4.14.57,2.16h0l.21-1,.21-1.08.95-4.17h1.14l-2.09,8.25h-.9l-1.11-4.1Z"/><path class="cls-2" d="M299.15,284.38h-1v-8.25h1Z"/><path class="cls-2" d="M311.31,284.38h-1l-3-4.65-1.09-1.8h0v6.44h-1v-8.25h1l2.9,4.49,1.2,2,0,0v-6.45h1Z"/><path class="cls-2" d="M322.45,284.38h-5.22v-8.25h5.22v1h-4.17v2.67h3.56v.91h-3.56v2.75h4.17Z"/><path class="cls-2" d="M279.48,299.69h-1v-5.88l0,0-.64,1.55-1.42,3.08h-.91L274,295.29l-.62-1.48,0,0v5.86h-1v-8.25h1l1.74,3.85.82,1.92h0l.82-1.91,1.72-3.86h1Z"/><path class="cls-2" d="M291.42,299.69h-1.1l-.66-1.9h-3.43l-.66,1.9h-1.09l3-8.25h.9Zm-2.06-2.8-.79-2.31-.6-1.75h0l-.58,1.71-.82,2.36Z"/><path class="cls-2" d="M302.18,299.69H301l-1.58-3.63h-1.86v3.63h-1v-8.25h3.37a2.42,2.42,0,0,1,1.7.63,2.08,2.08,0,0,1,.69,1.62,2.33,2.33,0,0,1-1.78,2.26Zm-2.47-7.34h-2.13v2.8h2.09a1.42,1.42,0,0,0,1.58-1.46C301.24,292.8,300.65,292.35,299.71,292.35Z"/><path class="cls-2" d="M314.13,299.69h-1.21l-2.51-4.18-1.59,1.91v2.28h-1v-8.25h1.05v4.47h0l1.52-1.85,2.17-2.61h1.21l-2.69,3.25Z"/><path class="cls-2" d="M324.46,299.69h-5.22v-8.25h5.22v1h-4.17v2.67h3.56V296h-3.56v2.75h4.17Z"/><path class="cls-2" d="M334.68,292.35h-2.35v7.34h-1v-7.34h-2.35v-.91h5.74Z"/><path class="cls-3" d="M327.43,179.36c-.82-.21-3.63-1.06-4.47-1.2h0a31.07,31.07,0,0,0-20.35,3.41c-.31.17-4.07,2.65-4.07,2.65a51.1,51.1,0,0,1-28.42,7.39,31.4,31.4,0,0,0,29.28,22.69.37.37,0,0,1,.36.35l2.1,41.08a.37.37,0,0,1-.11.29,10.33,10.33,0,0,1-2.18,1.65,19.59,19.59,0,0,1-7.75,2.45.37.37,0,0,0-.33.37v0a.37.37,0,0,0,.37.37h21.57a.37.37,0,0,0,.37-.37v0a.37.37,0,0,0-.33-.37,19.59,19.59,0,0,1-7.74-2.46,10.33,10.33,0,0,1-2.18-1.65.37.37,0,0,1-.11-.29l2.18-41.6a.37.37,0,0,1,.3-.35l.61-.11a31.39,31.39,0,0,0,24.41-24.05s.76-3.8,1.05-4.77,2.58-6.61,2.58-6.61C333,178.59,329.14,179.62,327.43,179.36Zm-5,11.27a4.58,4.58,0,1,1,4-5.13A4.58,4.58,0,0,1,322.41,190.64Z"/><path class="cls-4" d="M301.1,208.14a19.42,19.42,0,0,1-12.55,2.31,31.41,31.41,0,0,1,17.26-29.26,31.47,31.47,0,0,1,1.15,18.2C306.5,201.39,305.2,205.82,301.1,208.14Z"/><path class="cls-2" d="M238.16,167.63a1.74,1.74,0,0,0,.59,1.82l4.11,3.5,1.83,1.55,1.67,1.39a6.63,6.63,0,0,1,.83.75,8.05,8.05,0,0,1-1.32-.08l-1.71-.18-2.61-.27-5.42-.56a1.74,1.74,0,0,0-1.72.82c-.23.53.18,1,.9,1.07l13.26,1.13a1.2,1.2,0,1,0,.94-2.2l-10-8.83C239,167.05,238.39,167.1,238.16,167.63Z"/><path class="cls-2" d="M246,155.6a1.18,1.18,0,0,0,.45,1.56l9.84,7.7a1,1,0,1,0,1.18-1.51l-9.84-7.7A1.18,1.18,0,0,0,246,155.6Z"/><path class="cls-2" d="M264.11,138.27a1.18,1.18,0,0,0,.21,1.6l6.31,6.68c.5.53.9,1,.89,1a11.11,11.11,0,0,1-1.27-.31l-1.55-.43c-.7-.19-1.84-.49-2.54-.66l-7-1.71a2.39,2.39,0,0,0-2,.34,1.18,1.18,0,0,0,.21,1.6l8.58,9.09a1,1,0,1,0,1.39-1.31l-6.3-6.67c-.5-.53-.89-1-.89-1a13.2,13.2,0,0,1,1.28.32l1.19.33c.7.19,1.84.49,2.54.66l7.31,1.78a2.39,2.39,0,0,0,2-.33,1.18,1.18,0,0,0-.22-1.6l-8.58-9.09A1.18,1.18,0,0,0,264.11,138.27Z"/><path class="cls-2" d="M290.68,135.33a19.06,19.06,0,0,0-.92-2.45,6,6,0,0,0-2-2.27,5.11,5.11,0,0,0-4.19-.43,5,5,0,0,0-3.38,2.63,6.06,6.06,0,0,0-.41,2.9,20.4,20.4,0,0,0,.52,2.57l.42,1.48a20.69,20.69,0,0,0,.91,2.46,6.15,6.15,0,0,0,1.89,2.29,5,5,0,0,0,4.26.44,5.15,5.15,0,0,0,3.34-2.53,6.06,6.06,0,0,0,.45-3,19.65,19.65,0,0,0-.51-2.57Zm-1.23,6.15a3.42,3.42,0,0,1-4.9,1.35,3.45,3.45,0,0,1-1.09-1.23,21.23,21.23,0,0,1-.9-2.46l-.38-1.34a20.36,20.36,0,0,1-.52-2.57,3.31,3.31,0,0,1,.3-1.54,3.38,3.38,0,0,1,6-.25,19.6,19.6,0,0,1,.92,2.45l.38,1.34a20.47,20.47,0,0,1,.52,2.57A3.42,3.42,0,0,1,289.45,141.47Z"/><path class="cls-2" d="M301,128.15c0,.46.56.86,1.29.88l1.67.06a1.32,1.32,0,0,1,1.27,1.36l-.37,10.82c0,.72.39,1.33.91,1.35s1-.56,1-1.28l.37-10.82a1.32,1.32,0,0,1,1.36-1.27l1.67.06c.72,0,1.33-.33,1.34-.79s-.56-.86-1.28-.88l-7.88-.27C301.64,127.33,301,127.69,301,128.15Z"/><path class="cls-2" d="M319.53,143.21a1.32,1.32,0,0,0,.8,1.68l6.54,2.3c.68.24,1.37.06,1.53-.39s-.26-1-.95-1.27l-4.73-1.67a1.32,1.32,0,0,1-.8-1.68l.8-2.27a1.32,1.32,0,0,1,1.68-.8l3.67,1.29c.68.24,1.36.08,1.52-.35s-.28-1-1-1.23l-3.67-1.29a1.32,1.32,0,0,1-.8-1.68l.75-2.13a1.32,1.32,0,0,1,1.68-.8l4.73,1.67c.68.24,1.37.06,1.53-.39s-.27-1-.95-1.27l-6.54-2.3a1.32,1.32,0,0,0-1.68.8Z"/><path class="cls-2" d="M331.27,130.1c.71-.15,1.11-.65.9-1.11a1.29,1.29,0,0,0-1.62-.39l-1.45.53c-.68.25-1.13.7-1,1s.81.44,1.51.3Z"/><path class="cls-2" d="M350.78,149.66a3.81,3.81,0,0,0,.83-3.12,4,4,0,0,0-.86-1.85,18.68,18.68,0,0,0-1.92-1.78l-2.8-2.17a1.32,1.32,0,0,0-1.84.23l-7.66,9.87A1,1,0,1,0,338,152l2.47-3.18a1.32,1.32,0,0,1,1.84-.23l.62.48a2.18,2.18,0,0,1,.71,2.08l-1.14,4.48a2,2,0,0,0,.52,1.93c.46.36,1,.08,1.15-.62l1.15-4.73A1.6,1.6,0,0,1,347,151S349.54,151.25,350.78,149.66Zm-1.51-1.17a2.5,2.5,0,0,1-2.68.76,9.4,9.4,0,0,1-2.28-1.23l-.95-.73a1.32,1.32,0,0,1-.23-1.84l1.53-2a1.32,1.32,0,0,1,1.84-.23l1,.79a11,11,0,0,1,1.81,1.87A2.22,2.22,0,0,1,349.27,148.48Z"/><path class="cls-2" d="M362.64,157a1.18,1.18,0,0,0-1.62,0l-10,7.46a1,1,0,1,0,1.14,1.53l10-7.46A1.18,1.18,0,0,0,362.64,157Z"/><path class="cls-2" d="M372.2,174.34a1.76,1.76,0,0,0-1.61-.75l-13.47.24c-.72,0-1.15.44-1,1a1.79,1.79,0,0,0,1.67.89l1.05,0a2,2,0,0,1,1.79,1.18l1.32,3.41a2,2,0,0,1-.53,2.08l-.8.68a1.8,1.8,0,0,0-.64,1.79c.2.52.81.55,1.35.08L371.51,176A1.76,1.76,0,0,0,372.2,174.34Zm-4,2.28-2,1.69-1.42,1.19a.88.88,0,0,1-1.48-.38l-.92-2.39a.88.88,0,0,1,.84-1.27l1.95-.07,2.63-.1.68,0c.72,0,1.32,0,1.32,0s-.44.41-1,.88Z"/></g></g></svg>