<svg xmlns="http://www.w3.org/2000/svg" xmlns:xlink="http://www.w3.org/1999/xlink" viewBox="0 0 1612.76 770.19"><defs><style>.cls-1{fill:#cbcbcb;}.cls-2{opacity:0.79;isolation:isolate;fill:url(#Безымянный_градиент_5);}.cls-3{fill:#ddd;}.cls-4{fill:none;stroke:#cbcbcb;stroke-miterlimit:10;stroke-width:4px;}</style><linearGradient id="Безымянный_градиент_5" x1="443.85" y1="260.73" x2="76.15" y2="628.42" gradientTransform="matrix(1, 0, 0, -1, 0, 772.56)" gradientUnits="userSpaceOnUse"><stop offset="0" stop-color="#fff" stop-opacity="0"/><stop offset="0.03" stop-color="#f8fcfb"/><stop offset="1" stop-color="#d1d1d1" stop-opacity="0.6"/></linearGradient></defs><title>logo_concept_9 </title><g id="Слой_2" data-name="Слой 2"><g id="Слой_1-2" data-name="Слой 1"><path class="cls-1" d="M686.46,496.61l25.75,69.73L738,496.61h11.23l-37,96.85-37-96.85Z"/><path class="cls-1" d="M811,496.61V588H800.9V496.61Z"/><path class="cls-1" d="M873.71,588V492.77L945,567.43V496.61h10.14v95.48L883.9,517.43V588Z"/><path class="cls-1" d="M1012.78,542.36c0-27.26,21.23-47.26,47.54-47.26s47.54,20,47.54,47.26-21.1,47.26-47.54,47.26S1012.78,569.49,1012.78,542.36Zm10.41,0a37.28,37.28,0,1,0,0-.24Q1023.19,542.24,1023.19,542.36Z"/><path class="cls-1" d="M1182.12,506.19V588H1172V506.19h-22.19V496.6h54.52v9.59Z"/><path class="cls-1" d="M1303.71,506.19h-37.26v27.12h36.17v9.59h-36.17v35.48h37.26V588h-47.4V496.61h47.4Z"/><path class="cls-1" d="M1376,496.61c6.17,0,15.34.41,22.19,5.07,5.34,3.56,10,10.55,10,20.27,0,14-9.18,24.25-23,25.21l29,40.82h-12.33L1374,548h-2.6v40h-10.14V496.61Zm-4.52,42.33h6.44c12.6,0,20.14-6,20.14-16.71,0-5.07-1.51-10.14-7.26-13.43-4.11-2.33-8.77-2.6-13.15-2.6h-6.17Z"/><path class="cls-1" d="M1478.17,496.61V588H1468V496.61Z"/><path class="cls-1" d="M1590.8,562.23h-38.9l-11,25.75h-11.2l42.06-95.76,41,95.76h-11.23Zm-4-9.59-15.34-36.58-15.62,36.58Z"/><circle class="cls-2" cx="260" cy="327.98" r="260"/><circle class="cls-3" cx="465" cy="292.98" r="115"/><line class="cls-4" x1="72.52" y1="768.58" x2="834.29" y2="199.25"/><line class="cls-4" x1="145.68" y1="601.13" x2="72.52" y2="3.79"/><line class="cls-4" x1="80.29" y1="597.58" x2="7.13" y2="0.24"/></g></g></svg>