<svg xmlns="http://www.w3.org/2000/svg" viewBox="0 0 395.69 395.69"><defs><style>.cls-1{fill:#cbcbcb;}</style></defs><title>logo_concept_5</title><g id="Слой_2" data-name="Слой 2"><g id="Слой_1-2" data-name="Слой 1"><g id="Слой_2-2" data-name="Слой 2"><g id="Слой_1-2-2" data-name="Слой 1-2"><path class="cls-1" d="M280.54,373.55H115.16A32.58,32.58,0,0,1,87,357.3L4.34,214.1a32.59,32.59,0,0,1,0-32.5L87,38.39a32.59,32.59,0,0,1,28.15-16.25H280.53a32.59,32.59,0,0,1,28.14,16.25L391.35,181.6a32.59,32.59,0,0,1,0,32.5L308.69,357.3A32.59,32.59,0,0,1,280.54,373.55Zm-165.36-5H280.54a27.57,27.57,0,0,0,23.82-13.75L387,211.6a27.58,27.58,0,0,0,0-27.5L304.34,40.89a27.57,27.57,0,0,0-23.81-13.75H115.15A27.57,27.57,0,0,0,91.33,40.89L8.67,184.1a27.58,27.58,0,0,0,0,27.5L91.35,354.8a27.57,27.57,0,0,0,23.82,13.75Z"/><path class="cls-1" d="M197.85,395.69a32.48,32.48,0,0,1-16.25-4.34L38.39,308.69a32.59,32.59,0,0,1-16.25-28.17V115.19A32.59,32.59,0,0,1,38.39,87L181.6,4.34a32.59,32.59,0,0,1,32.5,0L357.29,87a32.59,32.59,0,0,1,16.25,28.17V280.53a32.59,32.59,0,0,1-16.24,28.14L214.1,391.35A32.51,32.51,0,0,1,197.85,395.69ZM197.85,5A27.49,27.49,0,0,0,184.1,8.67L40.89,91.35a27.58,27.58,0,0,0-13.75,23.83V280.53a27.58,27.58,0,0,0,13.75,23.83L184.1,387a27.58,27.58,0,0,0,27.5,0l143.21-82.68a27.58,27.58,0,0,0,13.74-23.81V115.17a27.58,27.58,0,0,0-13.75-23.83L211.6,8.67A27.5,27.5,0,0,0,197.85,5Z"/><path class="cls-1" d="M257.89,138.4,239,130.85v-3.77h46.55v3.77l-20.13,7.55L203.79,305.72h-7.55l-75.49-171.1-12.58-3.77v-3.77h30.19c18.87,0,28.94,10.06,34,21.39l44.54,101.4Z"/></g></g></g></g></svg>