<svg xmlns="http://www.w3.org/2000/svg" viewBox="0 0 247.3 573.82"><defs><style>.cls-1{fill:#cbcbcb;}</style></defs><title>logo_concept_2</title><g id="Слой_2" data-name="Слой 2"><g id="Слой_1-2" data-name="Слой 1"><path class="cls-1" d="M123.64,51.22A51.28,51.28,0,0,0,174.86,0h-30a21.24,21.24,0,0,1-21.22,21.22A21.24,21.24,0,0,1,102.43,0h-30A51.28,51.28,0,0,0,123.64,51.22Z"/><path class="cls-1" d="M247.3,112.54a51.2,51.2,0,0,0-87.43-36.19,51.14,51.14,0,0,0-72.43,0A51.21,51.21,0,1,0,39,162.28a51.18,51.18,0,0,0,36.22,66.39,51.22,51.22,0,1,0,96.85,0,51.18,51.18,0,0,0,36.21-66.39A51.3,51.3,0,0,0,247.3,112.54ZM123.65,91.32a21.24,21.24,0,0,1,21.21,21.09s0,.09,0,.13,0,.09,0,.13a21.21,21.21,0,0,1-42.43,0s0-.09,0-.13,0-.09,0-.13A21.24,21.24,0,0,1,123.65,91.32ZM30,112.54a21.22,21.22,0,0,1,42.43-.13s0,.09,0,.13,0,.09,0,.13A21.22,21.22,0,0,1,30,112.54Zm36.21,66.39a21.22,21.22,0,0,1,42.43-.13s0,.09,0,.13,0,.09,0,.13a21.22,21.22,0,0,1-42.43-.13Zm57.44,87.62a21.22,21.22,0,1,1,21.22-21.22A21.24,21.24,0,0,1,123.65,266.55Zm36.21-66.4a21.24,21.24,0,0,1-21.21-21.08s0-.09,0-.14,0-.09,0-.14a21.22,21.22,0,1,1,21.21,21.36Zm36.22-66.39a21.24,21.24,0,0,1-21.21-21.09s0-.09,0-.13,0-.09,0-.13a21.22,21.22,0,1,1,21.21,21.35Z"/><polygon class="cls-1" points="141.15 308.93 106.15 308.93 106.15 573.82 193.65 573.82 193.65 538.82 141.15 538.82 141.15 308.93"/><rect class="cls-1" x="151.29" y="488.82" width="42.36" height="35"/></g></g></svg>