<svg xmlns="http://www.w3.org/2000/svg" xmlns:xlink="http://www.w3.org/1999/xlink" viewBox="0 0 607.5 428"><defs><style>.cls-1{fill:#fff;stroke:#e5e5e6;stroke-miterlimit:10;}.cls-2{fill:#be0442;}.cls-3{fill:url(#Безымянный_градиент_4);}.cls-4{fill:#130e09;}</style><linearGradient id="Безымянный_градиент_4" x1="241.12" y1="-158.85" x2="260.78" y2="-156.87" gradientTransform="translate(-56.92 377.88) rotate(-7.02)" gradientUnits="userSpaceOnUse"><stop offset="0" stop-color="#fff" stop-opacity="0.2"/><stop offset="1" stop-color="#be0442"/></linearGradient></defs><title>logo_1.2</title><g id="Слой_2" data-name="Слой 2"><g id="dash"><rect class="cls-1" x="0.5" y="0.5" width="606.5" height="427"/></g><g id="pack_2" data-name="pack 2"><path class="cls-2" d="M202.38,173.87c-.82-.21-3.65-1.07-4.49-1.21h0a31.23,31.23,0,0,0-20.46,3.43c-.31.17-4.09,2.66-4.09,2.67a51.36,51.36,0,0,1-28.56,7.42A31.56,31.56,0,0,0,174.2,209a.37.37,0,0,1,.36.35l2.11,41.29a.38.38,0,0,1-.11.29,10.39,10.39,0,0,1-2.19,1.65,19.69,19.69,0,0,1-7.79,2.46.37.37,0,0,0-.34.37v0a.37.37,0,0,0,.37.37H188.3a.37.37,0,0,0,.37-.37v0a.37.37,0,0,0-.34-.37,19.69,19.69,0,0,1-7.78-2.47,10.39,10.39,0,0,1-2.19-1.66.38.38,0,0,1-.11-.29l2.19-41.81a.37.37,0,0,1,.31-.35l.61-.11a31.55,31.55,0,0,0,24.54-24.18s.76-3.82,1.06-4.8,2.6-6.65,2.6-6.65C208,173.09,204.11,174.13,202.38,173.87Zm-5,11.33a4.6,4.6,0,1,1,4-5.15A4.6,4.6,0,0,1,197.34,185.2Z"/><path class="cls-3" d="M175.92,202.79a19.52,19.52,0,0,1-12.61,2.32,31.57,31.57,0,0,1,17.35-29.41,31.63,31.63,0,0,1,1.16,18.3C181.34,196,180,200.46,175.92,202.79Z"/><path class="cls-4" d="M217.37,229.56c-.43-2.49-1.15-6.57-1.59-9.06L214,210.21c-.44-2.49-2-4.53-3.47-4.53s-2.29,2-1.82,4.52L215.54,247c.46,2.49,2.12,4.52,3.67,4.52s3.22-2,3.69-4.52l7-36.84c.47-2.48-.34-4.52-1.8-4.52s-3,2-3.49,4.52l-1.85,10.17c-.45,2.49-1.16,6.57-1.56,9.06l-1.14,7c-.41,2.5-1.1,2.5-1.53,0Z"/><path class="cls-4" d="M237.94,246.89c0,2.53,1.17,4.6,2.6,4.6s2.6-2.07,2.6-4.6V210.28c0-2.53-1.17-4.6-2.6-4.6s-2.6,2.07-2.6,4.6Z"/><path class="cls-4" d="M270.08,232.61a41.6,41.6,0,0,1-.13,4.63,37.88,37.88,0,0,1-1.71-4.15c-.87-2.3-2.36-6.1-3.32-8.44l-6-14.72c-1-2.34-2.85-4.26-4.2-4.26s-2.47,2.07-2.47,4.6v36.61c0,2.53,1.17,4.6,2.6,4.6s2.6-2.07,2.6-4.6V224.76c0-2.53,0-4.6.1-4.6s.84,1.87,1.74,4.15,2.43,6.06,3.39,8.4l6,14.53c1,2.34,2.85,4.25,4.18,4.25s2.44-2.07,2.44-4.6V210.28c0-2.53-1.17-4.6-2.6-4.6s-2.6,2.07-2.6,4.6Z"/><path class="cls-4" d="M302.32,208.9a7.4,7.4,0,0,0-3.19-2.67,13.3,13.3,0,0,0-5.5-1,11.33,11.33,0,0,0-5.33,1.09,8.33,8.33,0,0,0-3.19,2.9,11.48,11.48,0,0,0-1.58,4.11,25.85,25.85,0,0,0-.43,4.74v22.58a12.94,12.94,0,0,0,2.4,8.16q2.4,3.09,8.06,3.09t8.19-3.32q2.4-3.32,2.4-9.44V218a32.85,32.85,0,0,0-.36-5.07A10.13,10.13,0,0,0,302.32,208.9ZM299,239.8a15.55,15.55,0,0,1-.23,2.69,7,7,0,0,1-.82,2.33,4.81,4.81,0,0,1-1.65,1.67,5.95,5.95,0,0,1-5.36,0,4.71,4.71,0,0,1-1.61-1.61,6.1,6.1,0,0,1-.79-2.1,12,12,0,0,1-.2-2.1V218.55q0-1,.1-2.46a9,9,0,0,1,.63-2.79A6,6,0,0,1,290.6,211a4.37,4.37,0,0,1,3-1,5.29,5.29,0,0,1,2.86.69,4.44,4.44,0,0,1,1.61,1.7,6.83,6.83,0,0,1,.69,2.26,18.7,18.7,0,0,1,.16,2.43Z"/><path class="cls-4" d="M309.12,208.08c0,1.32,1.75,2.4,3.88,2.4s3.88,2.07,3.88,4.6v31.81c0,2.53,1.17,4.6,2.6,4.6s2.6-2.07,2.6-4.6V215.08c0-2.53,1.75-4.6,3.88-4.6s3.88-1.08,3.88-2.4-2.07-2.4-4.6-2.4H313.72C311.19,205.68,309.12,206.76,309.12,208.08Z"/><path class="cls-4" d="M336,246.89a4.61,4.61,0,0,0,4.6,4.6H351c2.53,0,4.6-1.08,4.6-2.4s-2.07-2.4-4.6-2.4h-5.22a4.61,4.61,0,0,1-4.6-4.6V231.81a4.61,4.61,0,0,1,4.6-4.6h3.31c2.53,0,4.6-1.08,4.6-2.4s-2.07-2.4-4.6-2.4h-3.31a4.61,4.61,0,0,1-4.6-4.6v-2.73a4.61,4.61,0,0,1,4.6-4.6H351c2.53,0,4.6-1.08,4.6-2.4s-2.07-2.4-4.6-2.4H340.61a4.61,4.61,0,0,0-4.6,4.6Z"/><path class="cls-4" d="M382.43,225.69a19.14,19.14,0,0,0,1.18-7q0-6.58-2.62-9.81a6.68,6.68,0,0,0-3.67-2.47,67.16,67.16,0,0,0-9.13-.76h-.84a4.61,4.61,0,0,0-4.6,4.6v36.61c0,2.53,1.17,4.6,2.6,4.6s2.6-2.07,2.6-4.6V236c0-2.53,1.11-4.6,2.46-4.6s3.09,2,3.87,4.37l3.66,11.32c.78,2.41,2.61,4.37,4.07,4.37s2-2,1.22-4.37l-4.08-12.39a6.45,6.45,0,0,1,2.37-6.94A11,11,0,0,0,382.43,225.69Zm-7.11.36-.79.37c-1.19.1-3.16.19-4.38.19s-2.2-2.07-2.2-4.6v-6.93c0-2.53.89-4.6,2-4.6s3.05.09,4.37.2l.83.39a5,5,0,0,1,2,1.68,6.42,6.42,0,0,1,1,2.6,19.76,19.76,0,0,1,.26,3.36,18.17,18.17,0,0,1-.26,3.23,6.69,6.69,0,0,1-1,2.5A4.48,4.48,0,0,1,375.32,226.05Z"/><path class="cls-4" d="M392,246.89c0,2.53,1.17,4.6,2.6,4.6s2.6-2.07,2.6-4.6V210.28c0-2.53-1.17-4.6-2.6-4.6s-2.6,2.07-2.6,4.6Z"/><path class="cls-4" d="M406.22,251.49c1.38,0,2.91-2,3.4-4.51l.24-1.18a5.86,5.86,0,0,1,5.5-4.51h1a5.9,5.9,0,0,1,5.53,4.5l.25,1.2c.51,2.48,2.08,4.5,3.5,4.5s2.13-2,1.6-4.49l-7.94-36.82c-.53-2.47-2.06-4.49-3.4-4.49s-2.87,2-3.39,4.5L404.68,247C404.15,249.46,404.85,251.49,406.22,251.49Zm9.61-15c-2.32,0-3.8-2-3.3-4.51l.35-1.72c.5-2.48,1.28-6.54,1.72-9l.29-1.61a41.92,41.92,0,0,1,.94-4.53,41.88,41.88,0,0,1,.92,4.53l.26,1.47c.44,2.49,1.21,6.56,1.72,9l.38,1.85C419.63,234.46,418.15,236.48,415.83,236.48Z"/><path class="cls-2" d="M347.3,191.85a4.85,4.85,0,1,1-6.13,7.53"/></g></g></svg>