<svg xmlns="http://www.w3.org/2000/svg" viewBox="0 0 772.46 523.07"><defs><style>.cls-1{fill:#cbcbcb;}</style></defs><title>logo_concept_4</title><g id="Слой_2" data-name="Слой 2"><g id="Слой_1-2" data-name="Слой 1"><rect class="cls-1" x="217.87" y="2" width="159.03" height="15"/><rect class="cls-1" x="217.87" y="37.18" width="159.03" height="15"/><rect class="cls-1" x="217.87" y="72.35" width="159.03" height="15"/><rect class="cls-1" x="217.87" y="107.53" width="159.03" height="15"/><rect class="cls-1" x="217.87" y="142.7" width="159.03" height="15"/><path class="cls-1" d="M554.87,159.39,545.48,150l9.39-9.39V119.39L545.48,110l9.39-9.39V79.39L545.48,70l9.39-9.39V39.39L545.48,30l9.39-9.39V0h-160V20.61h0L404.26,30l-9.39,9.39h0V60.61h0L404.26,70l-9.39,9.39h0v21.22h0l9.39,9.39-9.39,9.39h0v21.22h0l9.39,9.39-9.39,9.39h0V160h160Zm-140-20L405.48,130l9.39-9.39,9.39,9.39Zm0-40L405.48,90l9.39-9.39L424.26,90Zm0-40L405.48,50l9.39-9.39L424.26,50Zm0-40L405.48,10,414.87.61,424.26,10Zm20,140L425.48,150l9.39-9.39,9.39,9.39Zm0-40L425.48,110l9.39-9.39,9.39,9.39Zm0-40L425.48,70l9.39-9.39L444.26,70Zm0-40L425.48,30l9.39-9.39L444.26,30Zm20,100L445.48,130l9.39-9.39,9.39,9.39Zm0-40L445.48,90l9.39-9.39L464.26,90Zm0-40L445.48,50l9.39-9.39L464.26,50Zm0-40L445.48,10,454.87.61,464.26,10Zm20,140L465.48,150l9.39-9.39,9.39,9.39Zm0-40L465.48,110l9.39-9.39,9.39,9.39Zm0-40L465.48,70l9.39-9.39L484.26,70Zm0-40L465.48,30l9.39-9.39L484.26,30Zm20,100L485.48,130l9.39-9.39,9.39,9.39Zm0-40L485.48,90l9.39-9.39L504.26,90Zm0-40L485.48,50l9.39-9.39L504.26,50Zm0-40L485.48,10,494.87.61,504.26,10Zm20,140L505.48,150l9.39-9.39,9.39,9.39Zm0-40L505.48,110l9.39-9.39,9.39,9.39Zm0-40L505.48,70l9.39-9.39L524.26,70Zm0-40L505.48,30l9.39-9.39L524.26,30Zm20,100L525.48,130l9.39-9.39,9.39,9.39Zm0-40L525.48,90l9.39-9.39L544.26,90Zm0-40L525.48,50l9.39-9.39L544.26,50Zm0-40L525.48,10,534.87.61,544.26,10Z"/><polygon class="cls-1" points="553.1 337.18 553.1 178.15 538.1 178.15 538.1 226.51 517.93 226.51 517.93 178.15 502.93 178.15 502.93 269.51 482.75 269.51 482.75 178.15 467.75 178.15 467.75 226.51 447.58 226.51 447.58 178.15 432.58 178.15 432.58 269.51 412.4 269.51 412.4 178.15 397.4 178.15 397.4 337.18 412.4 337.18 412.4 284.51 432.58 284.51 432.58 337.18 447.58 337.18 447.58 241.51 467.75 241.51 467.75 337.18 482.75 337.18 482.75 284.51 502.93 284.51 502.93 337.18 517.93 337.18 517.93 241.51 538.1 241.51 538.1 337.18 553.1 337.18"/><circle class="cls-1" cx="234.12" cy="194.09" r="10.59"/><circle class="cls-1" cx="276.47" cy="194.09" r="10.59"/><circle class="cls-1" cx="318.81" cy="194.09" r="10.59"/><circle class="cls-1" cx="361.16" cy="194.09" r="10.59"/><circle class="cls-1" cx="234.12" cy="241.73" r="10.59"/><circle class="cls-1" cx="276.47" cy="241.73" r="10.59"/><circle class="cls-1" cx="318.81" cy="241.73" r="10.59"/><circle class="cls-1" cx="361.16" cy="241.73" r="10.59"/><circle class="cls-1" cx="234.12" cy="284.08" r="10.59"/><circle class="cls-1" cx="276.47" cy="284.08" r="10.59"/><circle class="cls-1" cx="318.81" cy="284.08" r="10.59"/><circle class="cls-1" cx="361.16" cy="284.08" r="10.59"/><circle class="cls-1" cx="234.12" cy="326.42" r="10.59"/><circle class="cls-1" cx="276.47" cy="326.42" r="10.59"/><circle class="cls-1" cx="318.81" cy="326.42" r="10.59"/><circle class="cls-1" cx="361.16" cy="326.42" r="10.59"/><path class="cls-1" d="M150.74,376.51H99.6v7.31c17.94,2.26,18.6,4.87,13.73,19.26C106.91,423.45,95,455.33,83,485.88h-.42c-10.65-27-27.45-71.11-33.65-88.11-3.54-9.52-3.32-11.74,12.84-14v-7.31H0v7.31c13.5,1.32,17,4,23.69,20.81C34.07,431,54,482.34,69.07,522.85H78.6c17-45.82,38.3-98.07,45.16-114.23,8.62-20.59,12.39-23,27-24.8Z"/><path class="cls-1" d="M165.16,404.36h.08a14.13,14.13,0,0,0,14.31-14q0-.17,0-.34a14,14,0,0,0-14.17-13.83,14.27,14.27,0,0,0-14.17,14.17v0A14.33,14.33,0,0,0,165.16,404.36Z"/><path class="cls-1" d="M291.57,497.19V455.13c0-21.92-10.85-34.76-28.56-34.76-6.42,0-11.29,2.21-17.71,6.42-5.31,3.32-9.74,6.64-14.17,9.74V419.7a205.13,205.13,0,0,1-36.75,8.6v6c11.29,2.21,12.4,2.87,12.4,16.6v45.86c0,14.15-1.05,15.18-14.12,16.85-12.52-1.5-13.56-3.21-13.56-17.78V420.12a197.92,197.92,0,0,1-37.19,8.19v6.2c11.51,1.78,12.84,2.66,12.84,16.83v44.5c0,15.49-1.33,16.38-14.61,17.93v6.64H243v-6.64c-10.4-1.33-11.73-2.21-11.73-16.38V444.47c6-4.87,12.4-8.41,19.26-8.41,10.14,0,17,6.64,17,22.36v37.2c0,15.71-1.37,16.82-12,18.15v6.64l49.59,0v-6.64C292.9,512.24,291.57,511.58,291.57,497.19Z"/><path class="cls-1" d="M356.66,420.33c-23,0-51.36,17.49-51.36,53.58,0,24.35,17.49,49.15,50.7,49.15,24.35,0,50.25-17.49,50.25-53.13C406.25,443.15,386.32,420.34,356.66,420.33Zm1.8,94.54c-15.46,0-25.46-21.25-25.46-48.7,0-25.24,9.93-37.86,20.82-37.9,15.93,0,24.79,18.6,24.79,47.6C378.61,507.79,368.86,514.87,358.46,514.87Z"/><path class="cls-1" d="M456.44,508.27c-4.84,0-12.84-2.43-12.84-19.92V433h21.7c3.33-1.81,3.77-7.79,1.33-10h-23V391.57l-2.88-1.11L419.5,406.84V423h-9.3l-6.2,7.31,1.14,2.65h14.4v62.66c0,19.26,9.06,27.45,25,27.45a25.43,25.43,0,0,0,9.08-2.66l17-8.16-2.21-6.86A29.7,29.7,0,0,1,456.44,508.27Z"/><path class="cls-1" d="M521.16,504.69c-15.72,0-30.34-12.18-31-38.3,23.24-.88,50.46-2.88,54.46-3.54,4.67-.67,6-3.32,6-7.75,0-17.76-15.3-34.76-35-34.76-11.73,0-23.91,5.94-33.43,15.94-9.3,9.3-15.72,23.25-15.72,39.41,0,25.46,16.16,47.38,44.72,47.38,8.41,0,25-4.43,38.52-23.25l-3.76-5.31C538.16,501.59,529.79,504.69,521.16,504.69ZM510.74,429c9.72,0,15.72,11.07,15.72,22.58-.22,3.55-1.55,4.21-5.09,4.21-10.19.44-19.93.66-30.11.66C493.25,438.94,501.66,429,510.74,429Z"/><path class="cls-1" d="M664.61,495.83V420.12a197.91,197.91,0,0,1-36.49,8.1c-2-4.54-6.83-7.88-13.1-7.88-9.08,0-18.15,10.41-25.68,23.47l-.42,0V419.94a207.38,207.38,0,0,1-37,8.63v5.76c11.29,2.22,12.62,3.1,12.62,15.5v47.6c0,13.94-2,15-14.61,16.38v6.64H607v-6.64c-17-1.33-18.15-2.43-18.15-16.38v-41c4.21-10.18,9.52-14.39,14.39-14.39,3.58,0,6.24,1.55,10,4.65,1.33,1.32,3.54,1.77,6.42.66a15.39,15.39,0,0,0,9.42-12.57c10,1.64,11.17,3.11,11.17,16.56v44.5c0,15.49-1.33,16.38-14.61,17.93v6.64h53.79v-6.64C665.72,512.21,664.61,510.88,664.61,495.83Z"/><path class="cls-1" d="M650.67,404.36h.08a14.13,14.13,0,0,0,14.31-14q0-.17,0-.34a14,14,0,0,0-14.17-13.83,14.27,14.27,0,0,0-14.17,14.17v0A14.33,14.33,0,0,0,650.67,404.36Z"/><path class="cls-1" d="M770,504.26a17.3,17.3,0,0,1-7.53,2c-3.77,0-7.31-2.88-7.31-13.06V454.9c0-12-2.21-21.48-11.07-28.34-5.54-4.2-12.18-6.2-20.37-6.2-12.62,2.44-27.89,10.19-35.42,15.72-4.87,3.32-7.53,6.2-7.53,9.74,0,5.76,7.09,10.63,12.18,10.63,4.2,0,7.08-1.55,8.41-6.64,1.77-6.86,3.76-12,6.42-15a9.87,9.87,0,0,1,8.19-4c9.3,0,15.5,8.19,15.5,22.8v5.53c-5.11,4.43-21.94,10-35,14.61-11.74,4.2-17.27,10.18-17.27,21.47q0,.1,0,.2A28.24,28.24,0,0,0,708,523.06c5.13,0,15.5-7.52,24.13-13.28a22.7,22.7,0,0,0,5.53,8.86,19.49,19.49,0,0,0,12.4,4.43l22.4-12.17Zm-50.95,3.35c-5.76,0-14.17-4.83-14.17-16.83,0-7.75,4-12,11.51-15.5,4.65-2.47,10.62-5.56,15-8v35.24C727.48,505.61,723.07,507.61,719.07,507.61Z"/></g></g></svg>