<svg xmlns="http://www.w3.org/2000/svg" viewBox="0 0 440.88 440.88"><defs><style>.cls-1{fill:#cbcbcb;}</style></defs><title>logo_concept_6</title><g id="Слой_2" data-name="Слой 2"><g id="Слой_1-2" data-name="Слой 1"><g id="Слой_2-2" data-name="Слой 2"><g id="Слой_1-2-2" data-name="Слой 1-2"><path class="cls-1" d="M167.94,416.41,24.47,273l.37-1.39L77,77,273,24.47,416.41,167.93l-52.51,196-1.39.37ZM30,271.46,169.43,410.84l190.39-51,51-190.4L271.46,30l-190.39,51Z"/><path class="cls-1" d="M260,440.88a52.74,52.74,0,0,1-13.64-1.68L88.6,396.92C69.2,391.72,49.18,371.69,44,352.28L1.68,194.49c-5.2-19.41,2.13-46.76,16.34-61L133.52,18c14.23-14.22,41.59-21.55,61-16.34L352.28,44c19.39,5.2,39.42,25.23,44.64,44.64L439.2,246.38c5.21,19.41-2.12,46.76-16.34,61L307.32,422.86C296.2,434,277.07,440.88,260,440.88ZM180.64,5c-15.73,0-33.35,6.36-43.59,16.59L21.55,137.06c-13.08,13.08-19.83,38.26-15,56.14L48.79,351c4.81,17.87,23.25,36.31,41.1,41.1l157.75,42.28c17.85,4.8,43-1.95,56.15-15L419.33,303.82c12.87-12.87,19.76-38.58,15-56.14L392.09,89.88C387.28,72,368.84,53.57,351,48.78L193.2,6.51A48.58,48.58,0,0,0,180.64,5Z"/><path class="cls-1" d="M272.94,416.41,77,363.91l-.37-1.39L24.47,167.94,167.93,24.47l1.39.37L363.9,77l.37,1.39L416.41,273ZM81.06,359.82l190.39,51L410.84,271.46l-51-190.39L169.42,30,30,169.43Z"/><path class="cls-1" d="M180.87,440.88c-17.1,0-36.23-6.9-47.34-18L18,307.32c-14.22-14.23-21.55-41.59-16.34-61L44,88.6C49.15,69.21,69.18,49.18,88.59,44L246.35,1.68c19.45-5.2,46.82,2.13,61,16.34l115.51,115.5c14.22,14.23,21.55,41.59,16.34,61L396.93,352.28c-5.2,19.39-25.23,39.42-44.64,44.64L194.5,439.2A52.87,52.87,0,0,1,180.87,440.88ZM260.21,5a48.89,48.89,0,0,0-12.57,1.54L89.88,48.79C72,53.6,53.57,72,48.78,89.89L6.51,247.64c-4.8,17.85,1.95,43,15,56.15L137.06,419.33c12.87,12.87,38.58,19.75,56.14,15L351,392.09c17.87-4.81,36.31-23.25,41.1-41.1L434.37,193.2c4.8-17.85-1.95-43-15-56.14L303.82,21.55C293.61,11.33,276,5,260.21,5Z"/><path class="cls-1" d="M169.38,150.09,227.25,271l53.57-120.89h27.64L229.7,327.74H209.56L125,150.09Z"/></g></g></g></g></svg>