<svg xmlns="http://www.w3.org/2000/svg" viewBox="0 0 655.58 679.09"><defs><style>.cls-1{fill:#cbcbcb;}</style></defs><title>logo_concept_8</title><g id="Слой_2" data-name="Слой 2"><g id="Слой_1-2" data-name="Слой 1"><g id="Слой_2-2" data-name="Слой 2"><g id="Слой_1-2-2" data-name="Слой 1-2"><path class="cls-1" d="M254.41,487c-13.5,0-36.31-3.5-52.58-24.24-11.26-14.34-21.46-34.56-27.28-54.06-3.62-12.13-8.43-33.79,0-42.5a169.75,169.75,0,0,1,22.9-21c4.32-3.33,5.48-4.3,6.36-6.84,1.21-3.48,1.83-10.09,3-22.08.3-3.13.63-6.65,1-10.6,2.54-25.76,20.44-58.54,37-79.61,7.35-9.31,45.08-40.33,65.13-49.76,7.42-3.49,11.92-1.72,14.39.39l.31.27a13.48,13.48,0,0,1,7.74-5.71c4-1.21,6,.87,19.09,14.42C362.4,197,377.34,212.5,391.1,222.82c19.71,14.78,20.4,46.74,20.66,58.77V282c.32,14.41-1.85,30-3.55,39.74l75.17-35.84,57.47-44.73c17.44-13,29.93-17.06,38.18-12.5,6.91,3.82,8.15,12.53,7.79,17.07l-.14,1.72-1.17,1.27c-2.43,2.64-59.76,64.75-74.52,75.45-7,5-25.83,15.73-44,25.72,9.87-2.16,21.56-4.43,35.24-6.66,9.62-1.57,45.37-13.74,69-21.8,9.89-3.37,17.7-6,21.25-7.12,14.54-4.46,24.33-3.8,29.93,2,7,7.24,3.28,18.53,2.84,19.8l-.74,2.11L512.7,384.48l-88.65,24.91c20.71,9.28,63,27.5,92.77,35.29,9.42,2.46,15.58,7.06,18.32,13.65,4.19,10.09-1.81,20.58-2.06,21l-1.86,3.19-3.59-.83c-1.21-.28-121.94-28.17-158.41-25.8C351.43,457.06,306.78,462,275,483c-1.43,1.22-4.53,2.58-11.91,3.49A72,72,0,0,1,254.41,487Zm63.31-302.68a8.61,8.61,0,0,0-3.5,1c-18.6,8.75-54.82,38.39-61.53,46.9-15.2,19.27-32.62,50.78-35,74.39-.39,3.94-.72,7.44-1,10.56-2.48,26.19-2.63,27.76-13.18,35.89a161.18,161.18,0,0,0-21.75,20c-2.32,2.4-3.55,13,2.34,32.76,5.48,18.37,15,37.34,25.57,50.75,20.45,26.08,53.82,20.59,59,18.6L269,475c33.79-22.59,80.9-27.87,99.58-29.08C403,443.67,503.87,466,525.81,471c.78-2.44,1.36-5.86.08-8.9-1.49-3.53-5.39-6.14-11.6-7.77C472.85,443.49,410.08,414,407.43,412.79l-12.13-5.71,114.41-32.15,106.57-44.07c.44-2.37.6-5.79-1.12-7.56-1.22-1.26-5.6-3.73-19.78.62-3.41,1-11.15,3.68-21,7-25.4,8.65-60.18,20.5-70.63,22.2-55.86,9.13-77.88,18.87-78.09,19l-4.4-9c.7-.37,69.74-36.81,83.82-47,12.78-9.27,62.89-63.16,71.71-72.7-.14-2-.76-4.94-2.66-6-1.56-.85-8.13-2.51-27.31,11.75l-58.2,45.3-94.41,45,2.27-10c.06-.25,5.72-25.6,5.24-47.2v-.45c-.23-10.7-.85-39.13-16.66-51-14.4-10.8-29.66-26.64-40.81-38.2-3.94-4.09-8.3-8.61-10.71-10.82-.92,1-1.46,3.2-.08,8.06,1.95,6.91,15.33,24.44,25.1,37.24,14.22,18.62,17.83,23.78,17.83,27.72,0,1.59,0,3.1,0,4.55.11,15.12.18,25.11-12.73,46.69C355.38,320,332.67,324.82,312,317c-25.86-9.72-37.88-34.31-32.16-65.78,2.53-13.73,13.23-24.42,22.67-33.86,6.57-6.56,12.77-12.76,14.33-18.21,2.67-9.3,1.82-14.12,1-14.9ZM269.05,475h0Zm58-275.27c-.19.74-.39,1.48-.59,2.19-2.27,7.93-9.37,15-16.88,22.53-8.82,8.81-17.94,17.93-19.9,28.58-6.9,37.94,15.78,50.84,25.84,54.62,15.74,5.92,33.88,2.82,39.62-6.76,11.47-19.17,11.42-26.63,11.31-41.48,0-1.33,0-2.7,0-4.14-1.2-3-9.26-13.6-15.77-22.13C340,219.21,331.57,207.95,327,199.77Zm39.46,55.76Zm-31.19-74.71h0Z"/><rect class="cls-1" x="308.4" width="10" height="76.5"/><rect class="cls-1" x="148.47" y="26.21" width="10" height="82.19" transform="translate(-2.64 128.24) rotate(-45)"/><rect class="cls-1" x="425.81" y="62.21" width="82.46" height="10" transform="translate(89.25 349.91) rotate(-45)"/><path class="cls-1" d="M309.35,399.77l-6.9-7.24c22.2-21.15,32.29-42.33,30-63l9.94-1.11C345,352.36,333.93,376.35,309.35,399.77Z"/><path class="cls-1" d="M0,563.17H17.85L43.1,650.76h.31l25.33-87.59H86.58l-36.77,115H36.69Z"/><path class="cls-1" d="M108.55,563.17h15.92v16.4H108.55Zm0,33.12h15.92v81.86H108.55Z"/><path class="cls-1" d="M154.87,596.3h15.92V605h.3a25.24,25.24,0,0,1,20.61-9.7q9.85,0,18,7.18t8.47,21.29v54.42h-15.9v-48.8q0-8.61-4.43-13.11a14.81,14.81,0,0,0-11.23-4.58,15,15,0,0,0-11.31,4.58q-4.51,4.5-4.51,13.11v48.8H154.87Z"/><path class="cls-1" d="M245.76,637.15q0-13,2.06-19.91a29,29,0,0,1,6.57-11.46,30.1,30.1,0,0,1,9.17-7.3q5.81-3.06,14.9-3.22,9.39.16,15.2,3.23a28.67,28.67,0,0,1,8.86,7.33,26,26,0,0,1,6.7,11.44q1.9,6.94,1.9,19.87t-1.91,19.72a28.27,28.27,0,0,1-6.72,11.75,25,25,0,0,1-3.74,3.55,17.29,17.29,0,0,1-5.12,3.39q-5.8,3.39-15.19,3.55-9.09-.16-14.89-3.55a30.2,30.2,0,0,1-9.16-6.94,31.73,31.73,0,0,1-6.57-11.75Q245.75,650.08,245.76,637.15Zm49.45.16a76.22,76.22,0,0,0-.77-12.82,15.35,15.35,0,0,0-3.14-6.81,11.8,11.8,0,0,0-5.21-4.35,16.8,16.8,0,0,0-7.66-1.66,17,17,0,0,0-7.5,1.66,14.27,14.27,0,0,0-5.36,4.35,19.42,19.42,0,0,0-3,6.81,62.53,62.53,0,0,0-.92,12.66,60.71,60.71,0,0,0,.92,12.5,21,21,0,0,0,3,7.12,19.52,19.52,0,0,0,5.36,4.19,16.39,16.39,0,0,0,7.5,1.74,16.14,16.14,0,0,0,7.66-1.74,15.1,15.1,0,0,0,5.21-4.19,16.56,16.56,0,0,0,3.14-7.12,71.45,71.45,0,0,0,.76-12.34Z"/><path class="cls-1" d="M339.48,571.38H355.4V596.3H367v12.61H355.39v47.73q-.16,6.23,5.65,6.07h6v15.45h-8.31A18.54,18.54,0,0,1,345,672.8q-5.49-5.12-5.49-14.81V608.91h-8V596.3h8Z"/><path class="cls-1" d="M403.45,643.45q0,9.87,5.5,15,5.12,5.21,13.45,5.21,9.71,0,17.35-8l11.54,10.18q-12.14,13.4-28.56,13.24a40.11,40.11,0,0,1-12.22-1.89,29.18,29.18,0,0,1-5.8-2.76,27.93,27.93,0,0,1-5.58-3.71A32.57,32.57,0,0,1,391,658q-3.44-7.89-3.44-20.5,0-12.15,3-20.19a35.33,35.33,0,0,1,7.63-12.93,28.35,28.35,0,0,1,10.62-6.94,33.1,33.1,0,0,1,11.45-2.13,32.41,32.41,0,0,1,23,9.23q9.54,9.23,9.7,25.4v13.55ZM437,629.9q-.31-9.59-5-14.5a17.2,17.2,0,0,0-23.58,0q-4.52,4.91-5,14.5Z"/><path class="cls-1" d="M480.31,596.3h15.92V605h.33a26.09,26.09,0,0,1,36.69-3.92l.6.5L522.23,615.8a16.43,16.43,0,0,0-10.48-4.11,14.74,14.74,0,0,0-10.48,4.11q-4.9,4-5,13v49.35h-16Z"/><path class="cls-1" d="M551.72,563.17h15.92v16.4H551.72Zm0,33.12h15.92v81.86H551.72Z"/><path class="cls-1" d="M639.68,670.91h-.3a13.4,13.4,0,0,1-6.87,6.15q-4.58,2-12.67,2-13.29-.16-20.46-7.25a23,23,0,0,1-7.56-17.74q0-10.33,6.57-17.11,6.57-6.94,19.24-7.1h22.06v-8.64q.16-10.86-16.27-10.54A28,28,0,0,0,614,612a11.6,11.6,0,0,0-5.65,5.07l-12.53-9.87q9.08-12.24,26.79-11.92,15-.16,23.89,5.84t9.08,21.14v55.91h-15.9Zm0-27.46H620.55q-13.93.32-13.77,9.87a8.85,8.85,0,0,0,3.6,7.1q3.44,3.24,11.4,3.24,10,.16,14.16-2.45,3.75-2.6,3.75-11.84Z"/></g></g></g></g></svg>