<svg xmlns="http://www.w3.org/2000/svg" viewBox="0 0 390 740"><defs><style>.cls-1{fill:#cbcbcb;}</style></defs><title>logo_concept_1</title><g id="Слой_2" data-name="Слой 2"><g id="Слой_1-2" data-name="Слой 1"><path class="cls-1" d="M110,75A30,30,0,0,0,80,45v60A30,30,0,0,0,110,75Z"/><path class="cls-1" d="M225,75a30,30,0,0,0-30-30v60A30,30,0,0,0,225,75Z"/><path class="cls-1" d="M315,45v60a30,30,0,0,0,0-60Z"/><path class="cls-1" d="M165,185a30,30,0,0,0-30-30v60A30,30,0,0,0,165,185Z"/><path class="cls-1" d="M255,155v60a30,30,0,0,0,0-60Z"/><path class="cls-1" d="M195,265v60a30,30,0,0,0,0-60Z"/><path class="cls-1" d="M390,75A75,75,0,0,0,255,30.05a74.92,74.92,0,0,0-120,0A75,75,0,1,0,68.84,149.73a74.94,74.94,0,0,0,60,110A74.91,74.91,0,0,0,160,361.3V740h70V698.12h78.39V610h-40.7V590H230V361.3a74.91,74.91,0,0,0,31.16-101.58,74.94,74.94,0,0,0,60-110A75.09,75.09,0,0,0,390,75ZM270,640h8.39v28.12H270ZM195,30a45,45,0,1,1-45,45A45.05,45.05,0,0,1,195,30ZM30,75a45,45,0,1,1,45,45A45.05,45.05,0,0,1,30,75ZM90,185a45,45,0,1,1,45,45A45.05,45.05,0,0,1,90,185ZM237.69,620v48.12H230V620ZM200,698.12V710H190V380h10V590h-.7V698.12ZM195,340a45,45,0,1,1,45-45A45.05,45.05,0,0,1,195,340Zm60-110a45,45,0,1,1,45-45A45.05,45.05,0,0,1,255,230Zm60-110a45,45,0,1,1,45-45A45.05,45.05,0,0,1,315,120Z"/></g></g></svg>