<svg xmlns="http://www.w3.org/2000/svg" viewBox="0 0 1498.08 561.88"><defs><style>.cls-1{fill:#cbcbcb;}</style></defs><title>Ресурс 7</title><g id="Слой_2" data-name="Слой 2"><g id="Слой_1-2" data-name="Слой 1"><path class="cls-1" d="M226,110.62c17.46-13.41,28.53-41.32,11.57-70.92l-1-1.76-1.44-1.43c-23.7-23.51-52.76-20.66-70.36-8l0,0-1.44-1.43C139.64,3.58,110.59,6.42,93,19.1v0l-1.44-1.43C67.32-6.39,37.49-2.91,20,10.51s-28.55,41.35-11.57,71l1,1.76,1.44,1.43A61.5,61.5,0,0,0,32.71,98.94c-7.17,14.43-8.3,33.38,3,53.08l1,1.76,1.44,1.43A61.5,61.5,0,0,0,60,169.49c-7.16,14.43-8.3,33.37,3,53.06l1,1.76,1.44,1.43a64.81,64.81,0,0,0,14.32,10.84L38.58,550.17l89.23,11.71L133,522.22l-49.57-6.51L86,495.88l49.57,6.51,5.21-39.66-49.58-6.51,28.18-214.74a51.1,51.1,0,0,0,17.49-8.63A52.14,52.14,0,0,0,156,181.9a51.11,51.11,0,0,0,44.55-61.11A51.71,51.71,0,0,0,226,110.62ZM181.9,53.19c6.85-5.26,18.82-7.39,30.64,3.23,7.2,14.15,2.06,25.16-4.78,30.42s-18.82,7.39-30.64-3.22C169.91,69.46,175,58.45,181.9,53.19Zm-71.81-9.43c6.85-5.26,18.82-7.38,30.63,3.23,7.2,14.15,2.06,25.16-4.78,30.42s-18.82,7.39-30.64-3.22C98.09,60,103.24,49,110.09,43.75ZM38.29,34.3c6.85-5.26,18.82-7.38,30.64,3.25C76.13,51.7,71,62.71,64.14,68S45.32,75.36,33.5,64.75C26.29,50.59,31.43,39.57,38.29,34.3Zm27.26,70.58c6.85-5.26,18.82-7.39,30.63,3.23,7.2,14.15,2.06,25.16-4.78,30.42s-18.82,7.39-30.64-3.22C53.55,121.15,58.69,110.14,65.54,104.88Zm53.11,104.18c-6.85,5.26-18.82,7.39-30.64-3.22-7.2-14.15-2.06-25.16,4.79-30.42s18.82-7.39,30.63,3.22C130.64,192.79,125.5,203.8,118.65,209.06Zm44.55-61.12c-6.85,5.26-18.82,7.39-30.64-3.22-7.21-14.15-2.06-25.17,4.8-30.43s18.82-7.38,30.62,3.23C175.19,131.67,170.05,142.68,163.2,147.94Z"/><path class="cls-1" d="M310.37,252.53v20.62h8.69q10.06,0,10.06,6.71a8.73,8.73,0,0,1-1,4.38l-29.66,73-29.4-75.05a8,8,0,0,1-.77-3.61q0-5.42,7-5.42h11.6V252.53h-82v20.66q14.18,0,17.8,9l41,101.62H308.3l40.46-101.88a12.23,12.23,0,0,1,7-6.58,32.37,32.37,0,0,1,12.64-2.19l0-20.63Z"/><path class="cls-1" d="M444.74,351.08l0-98.55H375.66v20.63q21.92,0,21.92,11.83v66.1q0,11.57-21.92,11.57v21.15h91V362.66Q444.22,362.66,444.74,351.08Z"/><path class="cls-1" d="M402.72,229.32A27.11,27.11,0,0,0,411,235a24.43,24.43,0,0,0,10,2.06,25.53,25.53,0,0,0,18.46-7.74,27.92,27.92,0,0,0,5.54-8.38,25.41,25.41,0,0,0,2.09-10.18,24.51,24.51,0,0,0-2.11-10.1,26.76,26.76,0,0,0-5.54-8.12,26.35,26.35,0,0,0-8.25-5.54A25.42,25.42,0,0,0,421,184.93a24.51,24.51,0,0,0-10,2.1,28.46,28.46,0,0,0-8.25,5.54,25.57,25.57,0,0,0-5.67,8.12A24.43,24.43,0,0,0,395,210.75a25.33,25.33,0,0,0,2.08,10.19A26.64,26.64,0,0,0,402.72,229.32Z"/><path class="cls-1" d="M640.49,351.08v-62.8q0-20.07-10.59-29.21t-30.74-9.14q-18.86,0-33.09,7.5a61.63,61.63,0,0,0-23.25,21.41l-.08-26.31H473.87v20.63q21.67,0,21.67,11.57v66.36q0,11.57-21.92,11.57v21.1h83.56V362.61q-14.44,0-14.44-11.57V310.93q4.38-14.6,13.67-23.09t20.12-8.49q8,0,12.38,7.46t4.38,23.65v40.63q0,11.57-14.7,11.57v21.15h84.08V362.66Q640.49,362.66,640.49,351.08Z"/><path class="cls-1" d="M795.54,261.81a57.48,57.48,0,0,0-23-11.22,116.76,116.76,0,0,0-27.85-3.22q-74.28,0-74.28,73.25,0,20.11,5.8,33.14t15.6,20.63a58.87,58.87,0,0,0,22.83,10.7,118.49,118.49,0,0,0,27.47,3.09q35.85,0,55.19-17.92t19.34-52.74q0-20.63-5.63-34.17T795.54,261.81Zm-26.09,57q0,25-5.93,35.85T742.63,365.5a28.77,28.77,0,0,1-11.48-2.06q-4.78-2.06-7.87-7.87t-4.64-16a180.15,180.15,0,0,1-1.55-26.18q0-23.21,6.58-33.14t20.5-9.93h0A26.49,26.49,0,0,1,755,272.39a17.69,17.69,0,0,1,7.87,7.48q3.22,5.42,4.9,14.83A142.1,142.1,0,0,1,769.45,318.82Z"/><path class="cls-1" d="M911.52,353.93q0,5.41-2.06,8.51t-7.48,3.1q-5.42,0-7.61-2.84t-2.19-8.77V271.62q9.28,0,17.28.64a118.29,118.29,0,0,1,15.22,2.19L926,252.53H892.21V212.09l-31.72,1.81v5.67q0,11-3.22,18a27.29,27.29,0,0,1-8.51,10.83,32.41,32.41,0,0,1-12.12,5.42,93.7,93.7,0,0,1-13.8,2.06v15.68H845V347.7q.05,17.54,9.84,27.73t33.79,10.19A54.57,54.57,0,0,0,906.53,383a29.31,29.31,0,0,0,11.86-7.35,27.59,27.59,0,0,0,6.45-11.35,52.52,52.52,0,0,0,1.93-14.83v-8H911.52Z"/><path class="cls-1" d="M1057.17,264.37q-16.64-17-51.2-17-17.59,0-31,4.9a61.36,61.36,0,0,0-22.66,14.21,60.53,60.53,0,0,0-14.06,22.31,84.59,84.59,0,0,0-4.77,29.27q0,20.38,6.06,33.79a56.28,56.28,0,0,0,16.38,21.54,62.15,62.15,0,0,0,23.86,11.48,117.17,117.17,0,0,0,28.24,3.35,70.17,70.17,0,0,0,24.63-4,57.91,57.91,0,0,0,18.18-10.57,53.83,53.83,0,0,0,12-15,62.42,62.42,0,0,0,6.32-17.41l-21.67-2.32q-3.35,13.42-13.28,20a39.51,39.51,0,0,1-22.31,6.58q-16.24,0-23.73-11.74t-8-35.21l93.65,0Q1073.81,281.37,1057.17,264.37Zm-76.5,36.37q1.55-18.57,8.77-27.08a23.51,23.51,0,0,1,18.83-8.51,21.77,21.77,0,0,1,11.86,3.1,24.91,24.91,0,0,1,8,8.12,39.19,39.19,0,0,1,4.64,11.48,55.09,55.09,0,0,1,1.55,12.9Z"/><path class="cls-1" d="M1213.94,256.39a36,36,0,0,0-11.48-6,41.7,41.7,0,0,0-12.64-2,40.8,40.8,0,0,0-22.7,6.71q-10.3,6.71-17,21.41l0-24h-68.86v20.63q21.67,0,21.67,11.57v66.36q0,11.57-21.92,11.57V383.8h93.91V362.65q-11.09,0-17.92-2.83t-6.83-8.75V305.8a72.15,72.15,0,0,1,5.8-15.82,60.66,60.66,0,0,1,8.38-12.6,39.18,39.18,0,0,1,9.8-8.23,20.58,20.58,0,0,1,10.32-3,18.19,18.19,0,0,1,7.74,1.68,14,14,0,0,1,5.93,5.29q-9,.51-12.9,5.67a18.87,18.87,0,0,0-3.87,11.61,17.37,17.37,0,0,0,5.42,13.15q5.41,5.16,15.47,5.16,10.81,0,17-7.74t6.19-20.12a30.48,30.48,0,0,0-3.22-14.38A31,31,0,0,0,1213.94,256.39Z"/><path class="cls-1" d="M1301.77,351.08l0-98.55h-69.12v20.63q21.92,0,21.92,11.83v66.1q0,11.57-21.92,11.57v21.15h91V362.66Q1301.25,362.66,1301.77,351.08Z"/><path class="cls-1" d="M1259.74,229.33A27.11,27.11,0,0,0,1268,235a24.43,24.43,0,0,0,10.06,2.06,25.53,25.53,0,0,0,18.44-7.74,27.92,27.92,0,0,0,5.54-8.38,25.41,25.41,0,0,0,2.06-10.19A24.51,24.51,0,0,0,1302,200.7a26.76,26.76,0,0,0-5.54-8.12,26.35,26.35,0,0,0-8.25-5.54,25.42,25.42,0,0,0-10.19-2.06A24.51,24.51,0,0,0,1268,187a28.46,28.46,0,0,0-8.25,5.54,25.57,25.57,0,0,0-5.67,8.12,24.43,24.43,0,0,0-2.06,10.06,25.33,25.33,0,0,0,2.06,10.19A26.64,26.64,0,0,0,1259.74,229.33Z"/><path class="cls-1" d="M1483.08,341.51v13.15a15.35,15.35,0,0,1-1.8,7.61,5.84,5.84,0,0,1-5.42,3.22q-7.48,0-7.48-10.83l0-60.13q0-13.92-5.8-23.08A42.62,42.62,0,0,0,1447.44,257a67.13,67.13,0,0,0-21.15-7.48,130.58,130.58,0,0,0-23.73-2.19,112.17,112.17,0,0,0-27.08,3,70.29,70.29,0,0,0-20,8,37.93,37.93,0,0,0-12.38,11.73,25.65,25.65,0,0,0-4.26,13.93q0,20.12,20.63,20.12,10.31,0,15.6-4.77t5.29-12.77q0-7-4.51-10.06a21.79,21.79,0,0,0-10.7-3.61,41.93,41.93,0,0,1,12.9-5.8,71.1,71.1,0,0,1,18.05-1.93,29.55,29.55,0,0,1,12.51,2.45,24.61,24.61,0,0,1,8.64,6.45,25.56,25.56,0,0,1,4.9,9.16,36.63,36.63,0,0,1,1.55,10.57v8a206.24,206.24,0,0,1-23.47,6.19q-11.6,2.32-21.92,4.51t-19.08,4.64a51.83,51.83,0,0,0-15.09,6.71,30.39,30.39,0,0,0-9.93,11q-3.61,6.69-3.61,17,0,16.51,11,26.44t34.95,9.93a72.58,72.58,0,0,0,19.09-2.32,56.31,56.31,0,0,0,15-6.32,45.56,45.56,0,0,0,10.83-9.16,40.26,40.26,0,0,0,6.71-10.83,36.55,36.55,0,0,0,10.19,18.7q7.6,7.35,23.6,7.35a55.08,55.08,0,0,0,12.9-1.55,29.33,29.33,0,0,0,11.61-5.67,30.3,30.3,0,0,0,8.38-11q3.22-6.84,3.22-17.67v-8.25Zm-71.54,15.26a32.26,32.26,0,0,1-19,5.67q-10.06,0-14.7-4.38A14.6,14.6,0,0,1,1373.2,347q0-7.22,3.35-11.48a29.37,29.37,0,0,1,9.93-7.61,136.77,136.77,0,0,1,16-6.71q9.41-3.35,21.54-8.51l0,29.92A38.79,38.79,0,0,1,1411.54,356.77Z"/></g></g></svg>