<svg xmlns="http://www.w3.org/2000/svg" viewBox="0 0 598.58 818.63"><defs><style>.cls-1{fill:#cbcbcb;}</style></defs><title>logo_concept_3</title><g id="Слой_2" data-name="Слой 2"><g id="Слой_1-2" data-name="Слой 1"><path class="cls-1" d="M64.77,78.36a15,15,0,0,1,4.39-4L64,66.29,41.26,80.93,46.46,89l3.44-2.19q3.93-2.53,5.62.09a4.07,4.07,0,0,1,.7,2l6.78,36-30.41-22a3.7,3.7,0,0,1-1.21-1.22Q30,99.56,32.74,97.81l4.54-2.92-5.2-8.07L0,107.48l5.19,8.12q5.55-3.62,9.24-1L56.07,144l17.45-11.26-9.82-50A5.69,5.69,0,0,1,64.77,78.36Z"/><path class="cls-1" d="M80,43.48A12.43,12.43,0,0,0,84,46a12.63,12.63,0,0,0,4.61.94,11.38,11.38,0,0,0,4.67-1,11.88,11.88,0,0,0,6.43-6.73,12.94,12.94,0,0,0,.81-4.61,11.81,11.81,0,0,0-1-4.73A11.4,11.4,0,0,0,96.77,26a12.47,12.47,0,0,0-3.95-2.53,12.27,12.27,0,0,0-4.55-.83,11.81,11.81,0,0,0-4.73,1,11.39,11.39,0,0,0-3.91,2.75,13.23,13.23,0,0,0-2.49,3.9,11.91,11.91,0,0,0-.91,4.52,11.37,11.37,0,0,0,1,4.67A11.78,11.78,0,0,0,80,43.48Z"/><path class="cls-1" d="M124.59,90.17l-18.3-42L76.8,61l3.83,8.74q9.35-4,11.55,1L104.45,99q2.15,4.93-7.2,9l3.93,9L140,100l-3.93-9Q126.52,95.17,124.59,90.17Z"/><path class="cls-1" d="M178.41,78.48q-6.53,1.56-7.78-3.68l-4.32-18.16A23.22,23.22,0,0,1,170,44.69a13.63,13.63,0,0,1,8.19-6,6.37,6.37,0,0,1,6.41,2q2.79,2.9,4.53,10.23l4.37,18.39q1.24,5.24-5.41,6.82l2.28,9.57,38.06-9.06-2.28-9.57q-10,2.39-11.29-2.85l-6.75-28.44Q206,26.7,200.18,23.7t-14.9-.83a32.6,32.6,0,0,0-14.17,6.94A28.7,28.7,0,0,0,162.89,42L160,30.14l-31.14,7.44,2.22,9.34q9.81-2.33,11.05,2.91l7.14,30q1.24,5.24-8.68,7.6L142.87,97l37.82-9Z"/><path class="cls-1" d="M232.19,63.49a24.43,24.43,0,0,0,7.55,9.38,27.39,27.39,0,0,0,10.76,4.66,55,55,0,0,0,12.82,1q16.67-.5,25.42-9.11T297,44.67q-.34-9.59-3.17-15.8a25.21,25.21,0,0,0-7.5-9.8,26.76,26.76,0,0,0-10.83-4.9,54.36,54.36,0,0,0-13-1.11Q228,14.1,229,48.16,229.31,57.49,232.19,63.49Zm21-34.84q2.92-4.72,9.4-4.91a12.33,12.33,0,0,1,5.05.8,8.23,8.23,0,0,1,3.76,3.37,20.82,20.82,0,0,1,2.49,6.83A66.2,66.2,0,0,1,275,45.93q.32,11.64-2.24,16.76T263.2,68a13.38,13.38,0,0,1-5.37-.8,7.7,7.7,0,0,1-3.77-3.55,23.67,23.67,0,0,1-2.38-7.37,83.78,83.78,0,0,1-1.09-12.15Q250.26,33.37,253.18,28.65Z"/><path class="cls-1" d="M311.47,60.94q-.92,8.1,3,13.36t15,6.61a25.43,25.43,0,0,0,8.42-.18A13.64,13.64,0,0,0,343.78,78a12.83,12.83,0,0,0,3.58-4.87,24.47,24.47,0,0,0,1.73-6.74l.45-3.69-7-.86-.7,5.72a7.07,7.07,0,0,1-1.43,3.81,3.91,3.91,0,0,1-3.63,1,4.21,4.21,0,0,1-3.35-1.74,6.65,6.65,0,0,1-.52-4.17l4.63-38q4.28.52,7.94,1.27a55,55,0,0,1,6.91,1.87l1.83-10-15.61-1.9L340.88.95,326.13,0l-.32,2.62a20.15,20.15,0,0,1-2.5,8.16,12.7,12.7,0,0,1-4.54,4.52,15.09,15.09,0,0,1-5.9,1.82,43.79,43.79,0,0,1-6.49.18l-.88,7.27,10.25,1.23Z"/><path class="cls-1" d="M362.38,80.56a28.92,28.92,0,0,0,9.23,8.16,54.58,54.58,0,0,0,12.22,5.08,32.65,32.65,0,0,0,11.53,1.33,26.94,26.94,0,0,0,9.48-2.43,25.08,25.08,0,0,0,7.27-5.18,29,29,0,0,0,5-7l-9.4-3.79A15,15,0,0,1,399.23,84a18.39,18.39,0,0,1-10.83.09q-7.26-2.06-9.13-8.26t.88-16.77l42,11.91q4.71-16.63-.58-26.36T400.8,30.5a41.9,41.9,0,0,0-14.48-1.73,28.55,28.55,0,0,0-12,3.47,28.14,28.14,0,0,0-9.12,8.21,39.37,39.37,0,0,0-5.85,12.5q-2.57,9.12-1.57,15.89A26.18,26.18,0,0,0,362.38,80.56ZM390,40.15a10.94,10.94,0,0,1,9.5-1.46,10.12,10.12,0,0,1,4.92,2.89A11.58,11.58,0,0,1,407,46.23a18.25,18.25,0,0,1,.62,5.73,25.7,25.7,0,0,1-.94,6l-24-6.81Q385.69,43,390,40.15Z"/><path class="cls-1" d="M490.15,94.16A14.53,14.53,0,0,0,496.83,87a14.16,14.16,0,0,0,1.57-6.69,14.45,14.45,0,0,0-1.4-5.9,16.78,16.78,0,0,0-3.6-4.85,19.41,19.41,0,0,0-4.87-3.42,19,19,0,0,0-10.86-1.8Q472,65,466.2,69.84l4.87-10-28.82-14-4.19,8.64q9.07,4.41,6.72,9.25L431.3,91.46q-2.36,4.84-11.53.39l-4.3,8.85,39.24,19,4.3-8.85a22.15,22.15,0,0,1-6.93-4.83q-2.28-2.52-1.08-5l9.29-18.9a33.63,33.63,0,0,1,5.64-5.44A28.17,28.17,0,0,1,472,73.09a18.21,18.21,0,0,1,5.75-1.43,9.57,9.57,0,0,1,4.92.86,8.47,8.47,0,0,1,2.9,2.27A6.54,6.54,0,0,1,487,78.21q-3.88-1.62-6.55-.25a8.78,8.78,0,0,0-4,4.07,8.09,8.09,0,0,0-.41,6.61q1.22,3.3,5.43,5.3A9.59,9.59,0,0,0,490.15,94.16Z"/><path class="cls-1" d="M514.11,138.65l26-37.72L513.66,82.68l-5.45,7.91q8.39,5.79,5.27,10.32L496,126.23q-3,4.43-11.45-1.36L479,133l34.87,24,5.58-8.1Q510.85,142.95,514.11,138.65Z"/><path class="cls-1" d="M531.82,85.26a11.35,11.35,0,0,0,3.31,3.45,11.87,11.87,0,0,0,9.11,1.91,13,13,0,0,0,4.34-1.75,11.8,11.8,0,0,0,3.48-3.36,11.39,11.39,0,0,0,1.85-4.4,12.43,12.43,0,0,0,0-4.58,12.25,12.25,0,0,0-1.7-4.3,11.85,11.85,0,0,0-3.36-3.48,11.41,11.41,0,0,0-4.4-1.87,13.22,13.22,0,0,0-4.63-.05,11.88,11.88,0,0,0-4.32,1.61,11.38,11.38,0,0,0-3.45,3.31,11.78,11.78,0,0,0-1.9,4.45,12.41,12.41,0,0,0,0,4.71A12.6,12.6,0,0,0,531.82,85.26Z"/><path class="cls-1" d="M592.62,172.94a18.78,18.78,0,0,0,5.1-19.32,31.24,31.24,0,0,0-4.68-9.33,60.56,60.56,0,0,0-7.25-8.39,52.23,52.23,0,0,0-10-7.74,32.7,32.7,0,0,0-9.28-3.77,17.64,17.64,0,0,0-7.94-.06,11.93,11.93,0,0,0-5.92,3.3q-6.49,6.74.43,13.4,3.46,3.32,6.77,3.43a7.6,7.6,0,0,0,5.89-2.58,5.27,5.27,0,0,0,1.73-4.83,10.13,10.13,0,0,0-2.42-4.66,19.47,19.47,0,0,1,6.2,2.21,33,33,0,0,1,6.68,5.17,13.75,13.75,0,0,1,3.4,4.86,11.43,11.43,0,0,1,.82,5,11.88,11.88,0,0,1-1.31,4.65,17,17,0,0,1-2.89,4l-2.58,2.68a95.76,95.76,0,0,1-9.87-5.5q-4.64-3-8.81-5.56t-7.9-4.6a24.1,24.1,0,0,0-7.22-2.62,14.13,14.13,0,0,0-6.87.47,16.59,16.59,0,0,0-6.7,4.54q-5.36,5.54-4.85,12.4t8.51,14.6a33.81,33.81,0,0,0,7.15,5.38,26.19,26.19,0,0,0,7,2.71,21.24,21.24,0,0,0,6.59.42,18.74,18.74,0,0,0,5.74-1.47,17,17,0,0,0-2.62,9.56q.18,4.92,5.54,10.08a25.54,25.54,0,0,0,4.82,3.64,13.63,13.63,0,0,0,5.72,1.84,14.08,14.08,0,0,0,6.35-1,19.33,19.33,0,0,0,6.8-4.94l2.66-2.77-5-4.83-4.24,4.41a7.15,7.15,0,0,1-3.06,2,2.72,2.72,0,0,1-2.86-.67q-2.5-2.37,1-6Zm-30.29,1.67a18,18,0,0,1-8.77.72,15,15,0,0,1-8.19-4.21q-3.37-3.21-3.51-6.21a6.79,6.79,0,0,1,2-5.21,8.4,8.4,0,0,1,4.83-2.77,13.64,13.64,0,0,1,5.78.65,63.57,63.57,0,0,1,7.53,2.91q4.27,1.91,10,4.09Z"/><path class="cls-1" d="M373.58,276a50.89,50.89,0,0,0-37.85,10.15,51.17,51.17,0,0,0-71.82-9.38,51.21,51.21,0,1,0-59.21,78.91,51,51,0,0,0-4.93,16.13h0A51.26,51.26,0,0,0,232,426.19a51.27,51.27,0,0,0,19.9,67L210.68,806.92l89.23,11.71L305.11,779l-49.57-6.51,2.6-19.83,49.57,6.51,5.21-39.66L263.35,713l28.16-214.59A51.3,51.3,0,0,0,328,438.8a51.28,51.28,0,0,0,44.55-61.14,51.22,51.22,0,0,0,1-101.68Zm-75.7,20.31a21.2,21.2,0,0,1,18.3,23.47c0,.11,0,.22-.05.33s0,.22,0,.32a21.21,21.21,0,0,1-42-5.77v-.19A21.24,21.24,0,0,1,297.88,296.29Zm-95.62,8.86h0a21.23,21.23,0,0,1,21-18.46,21.5,21.5,0,0,1,2.81.18,21.24,21.24,0,0,1,18.29,23.69l0,.1h0v.09a21.22,21.22,0,0,1-42.06-5.6Zm27.26,70.53h0a21.22,21.22,0,0,1,42.08,5.47v.11a21.22,21.22,0,0,1-42.07-5.58Zm69.35,76.08a21.22,21.22,0,1,1-21.08-24,21.49,21.49,0,0,1,2.81.18,21.22,21.22,0,0,1,18.28,23.8Zm44.55-61.12a21.22,21.22,0,0,1-42.09-5.44v-.14a21.22,21.22,0,0,1,42.07,5.59ZM388,329.53a21.21,21.21,0,0,1-42.11-5.2c0-.11,0-.22.05-.33s0-.22,0-.32a21.2,21.2,0,0,1,20.94-18.13,21.49,21.49,0,0,1,2.81.18A21.22,21.22,0,0,1,388,329.53Z"/></g></g></svg>