<svg xmlns="http://www.w3.org/2000/svg" viewBox="0 0 1084.45 182.42"><defs><style>.cls-1{fill:#cbcbcb;}</style></defs><title>logo_concept_10</title><g id="Слой_2" data-name="Слой 2"><g id="Слой_1-2" data-name="Слой 1"><g id="Слой_2-2" data-name="Слой 2"><g id="Слой_1-2-2" data-name="Слой 1-2"><path class="cls-1" d="M149.71,13.84,130.84,6.29V2.52h46.55V6.29l-20.13,7.55L95.61,181.16H88.07L12.58,10.06,0,6.29V2.52H30.19c18.87,0,28.94,10.06,34,21.39l44.54,101.4Z"/><path class="cls-1" d="M195,52.84q22.65,0,22.65,22.65V171.1l15.1,3.77v3.77H162.29v-3.77l15.1-3.77V60.39l-15.1-3.77V52.84ZM197.52,0c11.32,0,21.39,10.06,21.39,21.39s-10.06,21.39-21.39,21.39-21.39-10.06-21.39-21.39S186.19,0,197.52,0Z"/><path class="cls-1" d="M332.13,90.58c0-22.65-10.06-32.71-18.87-32.71-15.1,0-22.65,20.13-22.65,20.13v93.1l15.1,3.77v3.77H235.26v-3.77l15.1-3.77V60.39l-15.1-3.77V52.84H257.9c23.9,0,28.94,18.87,28.94,18.87s10.06-22.65,36.48-22.65c28.94,0,49.07,20.13,49.07,41.52V171.1l15.1,3.77v3.77H354.78q-22.65,0-22.65-22.65Z"/><path class="cls-1" d="M523.35,115.74c0,41.52-25.16,66.68-66.68,66.68S390,157.26,390,115.74s25.16-66.68,66.68-66.68S523.35,74.23,523.35,115.74Zm-42.78,0c0-49.07-12.58-61.65-23.9-61.65s-23.9,12.58-23.9,61.65,12.58,61.65,23.9,61.65,23.91-12.58,23.91-61.65Z"/><path class="cls-1" d="M542.22,40.26q0-22.65,22.65-22.65h17.61V52.84h35.23v6.29H582.48v76.74c0,32.71,7.55,40.26,18.87,40.26S624,164.81,624,143.42h6.29c0,25.16-13.84,39-34,39-34,0-54.1-20.13-54.1-46.55V59.13H524.61V52.84h17.61Z"/><path class="cls-1" d="M631.54,115.74c0-41.52,25.16-66.68,61.65-66.68,37.74,0,60.39,22.65,60.39,50.32a44.55,44.55,0,0,1-2.52,15.1A427.61,427.61,0,0,1,674.32,122c0,41.52,12.58,54.1,30.19,54.1,20.13,0,36.48-16.35,36.48-32.71h6.29c0,20.13-18.87,39-47.81,39C656.7,182.42,631.54,157.26,631.54,115.74Zm78-2.52a77.15,77.15,0,0,0,2.52-18.87c0-30.19-10.06-40.26-18.87-40.26s-18.87,10.06-18.87,61.65c22.68,0,35.22-2.51,35.22-2.51Z"/><path class="cls-1" d="M846.67,57.87C826.54,57.87,815.22,78,815.22,78v93.1l15.1,3.77v3.77H759.86v-3.77L775,171.1V60.39l-15.1-3.77V52.84h22.65c23.9,0,28.94,18.87,28.94,18.87S824,51.58,848.94,51.58c17.86,0,26.67,8.81,26.67,23.9,0,11.32-7.55,18.87-18.87,18.87a47.6,47.6,0,0,1-10.06-1.26Z"/><path class="cls-1" d="M907.06,52.84q22.65,0,22.65,22.65V171.1l15.1,3.77v3.77H874.35v-3.77l15.1-3.77V60.39l-15.1-3.77V52.84ZM909.57,0C920.9,0,931,10.06,931,21.39s-10.1,21.38-21.43,21.38-21.39-10.06-21.39-21.39S898.25,0,909.57,0Z"/><path class="cls-1" d="M1069.35,103.16V171.1l15.1,3.77v3.77H1061.8c-23.9,0-28.94-18.87-28.94-18.87s-10.06,22.65-36.48,22.65c-31.45,0-46.55-15.1-46.55-34,0-15.1,8.81-27.68,8.81-27.68s36.48-8.81,70.45-10.06v-7.55c0-39-10.07-49.06-27.68-49.06a30.53,30.53,0,0,0-12.58,2.52V94.36a47.63,47.63,0,0,1-10.07,1.26c-11.32,0-18.87-7.55-18.87-18.87,0-13.84,13.84-27.68,46.55-27.68C1046.7,49.07,1069.35,71.71,1069.35,103.16Zm-78,42.78c0,20.13,7.55,27.68,15.1,27.68,15.1,0,22.65-20.13,22.65-20.13V117a273.44,273.44,0,0,0-32.71,2.52A71.5,71.5,0,0,0,991.35,145.94Z"/></g></g></g></g></svg>