<svg xmlns="http://www.w3.org/2000/svg" xmlns:xlink="http://www.w3.org/1999/xlink" viewBox="0 0 321 211"><defs><style>.cls-1{fill:#130e09;}.cls-2{fill:#fff;}.cls-3{fill:#be0442;}.cls-4{fill:url(#Безымянный_градиент_4);}</style><linearGradient id="Безымянный_градиент_4" x1="330.39" y1="-233.6" x2="343.6" y2="-232.27" gradientTransform="translate(-149.02 366) rotate(-7.02)" gradientUnits="userSpaceOnUse"><stop offset="0" stop-color="#fff" stop-opacity="0.2"/><stop offset="1" stop-color="#be0442"/></linearGradient></defs><title>logo_2.2_mob</title><g id="Слой_2" data-name="Слой 2"><g id="dash"><rect class="cls-1" width="321" height="211"/></g><g id="pack_1" data-name="pack 1"><path class="cls-2" d="M150.31,149.12h0l-.36,1.38-.78,2.87h-.62l-1.4-5.57h.77l.62,2.73.34,1.51h0l.37-1.5.76-2.75h.58l.78,2.79.38,1.46h0l.14-.7.14-.73.64-2.82h.77l-1.41,5.57h-.61l-.75-2.77Z"/><path class="cls-2" d="M157.73,153.38H157v-5.57h.7Z"/><path class="cls-2" d="M165.95,153.38h-.69l-2-3.14-.74-1.22h0v4.35h-.7v-5.57h.7l2,3,.81,1.34,0,0v-4.36h.7Z"/><path class="cls-2" d="M173.47,153.38h-3.52v-5.57h3.52v.65h-2.82v1.8h2.4v.62h-2.4v1.86h2.82Z"/><path class="cls-2" d="M144.44,163.73h-.7v-4l0,0-.43,1-1,2.08h-.62l-1-2.15-.42-1,0,0v4h-.7v-5.57h.7l1.18,2.6.55,1.3h0l.55-1.29,1.16-2.61h.69Z"/><path class="cls-2" d="M152.51,163.73h-.74l-.45-1.28H149l-.45,1.28h-.74l2-5.57h.61Zm-1.39-1.89-.54-1.56-.41-1.19h0l-.39,1.15-.55,1.59Z"/><path class="cls-2" d="M159.78,163.73H159l-1.07-2.45h-1.26v2.45H156v-5.57h2.27a1.63,1.63,0,0,1,1.15.42,1.41,1.41,0,0,1,.46,1.1,1.58,1.58,0,0,1-1.2,1.53Zm-1.67-5h-1.44v1.89h1.41a1,1,0,0,0,1.06-1C159.14,159.07,158.74,158.77,158.11,158.77Z"/><path class="cls-2" d="M167.85,163.73H167l-1.7-2.83-1.07,1.29v1.54h-.7v-5.57h.71v3h0l1-1.25,1.47-1.76h.82l-1.82,2.19Z"/><path class="cls-2" d="M174.83,163.73h-3.52v-5.57h3.52v.65H172v1.8h2.4v.62H172v1.86h2.82Z"/><path class="cls-2" d="M181.73,158.77h-1.59v5h-.7v-5h-1.59v-.62h3.88Z"/><path class="cls-3" d="M176.84,82.44c-.55-.14-2.45-.72-3-.81h0a21,21,0,0,0-13.75,2.3c-.21.12-2.75,1.79-2.75,1.79a34.52,34.52,0,0,1-19.2,5A21.21,21.21,0,0,0,157.89,106a.25.25,0,0,1,.24.24L159.55,134a.25.25,0,0,1-.07.19,7,7,0,0,1-1.47,1.11,13.23,13.23,0,0,1-5.23,1.66.25.25,0,0,0-.23.25h0a.25.25,0,0,0,.25.25h14.57a.25.25,0,0,0,.25-.25h0a.25.25,0,0,0-.23-.25,13.23,13.23,0,0,1-5.23-1.66,7,7,0,0,1-1.47-1.11.25.25,0,0,1-.07-.19l1.47-28.1a.25.25,0,0,1,.21-.23l.41-.07A21.21,21.21,0,0,0,179.2,89.37s.51-2.56.71-3.22,1.75-4.47,1.75-4.47C180.6,81.92,178,82.61,176.84,82.44Zm-3.39,7.62a3.09,3.09,0,1,1,2.67-3.46A3.09,3.09,0,0,1,173.44,90.05Z"/><path class="cls-4" d="M159,101.88a13.12,13.12,0,0,1-8.47,1.56,21.22,21.22,0,0,1,11.66-19.77A21.26,21.26,0,0,1,163,96C162.69,97.32,161.82,100.31,159,101.88Z"/><path class="cls-2" d="M116.53,74.51c-.15.36.17,1,.72,1.51l2.13,1.81,1.56,1.32,1.13.94a4.48,4.48,0,0,1,.56.5,11.81,11.81,0,0,1-1.31-.1l-.3,0-2.61-.27-2.82-.29c-.72-.07-1.43.16-1.58.51s.31.7,1,.76l8.11.69c.72.06,1.4-.11,1.52-.37s-.23-.88-.77-1.36l-6.09-5.4C117.25,74.25,116.68,74.15,116.53,74.51Z"/><path class="cls-2" d="M121.82,66.38c-.22.28.07.87.64,1.32l6,4.67c.57.45,1.21.58,1.43.3s-.07-.87-.64-1.32l-6-4.67C122.68,66.24,122,66.1,121.82,66.38Z"/><path class="cls-2" d="M134.06,54.68c-.26.24-.06.87.44,1.39l3.68,3.9c.5.53.9,1,.9,1s-.58-.13-1.27-.32l-.23-.06c-.7-.19-1.84-.49-2.54-.66l-3.88-1a2.3,2.3,0,0,0-1.74.13c-.26.24-.06.87.44,1.39L135.05,66c.5.53,1.11.76,1.37.51s.06-.87-.43-1.4l-3.67-3.89c-.5-.53-.9-1-.89-1s.58.14,1.27.33,1.83.49,2.53.66l4.11,1a2.31,2.31,0,0,0,1.74-.12c.25-.24.05-.86-.44-1.39l-5.21-5.52C134.93,54.67,134.32,54.44,134.06,54.68Z"/><path class="cls-2" d="M152.12,53.1a19.06,19.06,0,0,0-.92-2.45,3,3,0,0,0-1.14-1.15,3.45,3.45,0,0,0-2.83-.29A3.39,3.39,0,0,0,144.94,51a3.05,3.05,0,0,0-.33,1.54,20.4,20.4,0,0,0,.52,2.57l.05.18a20.69,20.69,0,0,0,.91,2.46,3.1,3.1,0,0,0,1.1,1.16,3.38,3.38,0,0,0,2.88.29,3.48,3.48,0,0,0,2.26-1.71,3,3,0,0,0,.36-1.62,19.65,19.65,0,0,0-.51-2.57Zm-.95,3.74a2.31,2.31,0,0,1-3.31.91,3,3,0,0,1-.56-.44,21.23,21.23,0,0,1-.9-2.46l0-.08a20.36,20.36,0,0,1-.52-2.57s0,0,.25-.62a2.33,2.33,0,0,1,3.3-1,3,3,0,0,1,.57.4,19.6,19.6,0,0,1,.92,2.45l0,.08a20.47,20.47,0,0,1,.52,2.57A2.16,2.16,0,0,1,151.17,56.84Z"/><path class="cls-2" d="M159,47.84c0,.31.57.58,1.29.61h.28a1.32,1.32,0,0,1,1.27,1.36l-.22,6.45c0,.72.25,1.32.6,1.34s.67-.57.69-1.29l.22-6.46a1.32,1.32,0,0,1,1.36-1.27h.28c.72,0,1.32-.21,1.33-.52s-.57-.59-1.29-.61l-4.47-.15C159.61,47.29,159,47.53,159,47.84Z"/><path class="cls-2" d="M171.64,57.61a1.32,1.32,0,0,0,.8,1.68l3.61,1.27c.68.24,1.33.18,1.44-.12s-.36-.76-1-1l-2.39-.84a1.32,1.32,0,0,1-.8-1.68l.26-.73a1.32,1.32,0,0,1,1.68-.8l1.67.59c.68.24,1.32.2,1.43-.1s-.37-.73-1.05-1l-1.67-.59a1.32,1.32,0,0,1-.8-1.68L175,52a1.32,1.32,0,0,1,1.68-.8l2.39.84c.68.24,1.33.18,1.44-.12s-.36-.76-1-1l-3.61-1.27a1.32,1.32,0,0,0-1.68.8Z"/><path class="cls-2" d="M179,49.24c.71-.15,1.17-.52,1-.83s-.81-.36-1.49-.11l-.18.06c-.68.25-1.17.62-1.08.83s.73.26,1.44.11Z"/><path class="cls-2" d="M192.61,62.37a2.58,2.58,0,0,0,.56-2.11,2.06,2.06,0,0,0-.29-.93A18.68,18.68,0,0,0,191,57.55l-1.22-.95a1.32,1.32,0,0,0-1.84.23l-4.65,6c-.44.57-.58,1.22-.3,1.43s.87-.07,1.32-.64l1.14-1.47a1.24,1.24,0,0,1,1.72-.33,2.06,2.06,0,0,1,.59,2l-.56,2.2a1.87,1.87,0,0,0,.24,1.71c.31.24.71-.13.88-.84l.58-2.37a1.6,1.6,0,0,1,1.62-1.17A2.64,2.64,0,0,0,192.61,62.37Zm-1-.79c-.69.89-1.41.65-1.41.65A9.32,9.32,0,0,1,187.92,61a1.31,1.31,0,0,1-.21-1.83l.51-.66a1.32,1.32,0,0,1,1.84-.23h0a11,11,0,0,1,1.81,1.87S192.26,60.71,191.59,61.58Z"/><path class="cls-2" d="M200.62,67.34c-.21-.29-.86-.17-1.44.27l-6.09,4.53c-.58.43-.88,1-.67,1.3s.86.17,1.44-.27L200,68.64C200.53,68.21,200.83,67.62,200.62,67.34Z"/><path class="cls-2" d="M207.08,79c-.11-.29-.79-.51-1.51-.5l-8.25.14c-.72,0-1.2.31-1.07.65s.8.61,1.49.59a1.94,1.94,0,0,1,1.72,1.19l.58,1.51a1.94,1.94,0,0,1-.47,2c-.52.44-.84,1.09-.7,1.44s.69.25,1.23-.23l6.2-5.44C206.84,80,207.19,79.33,207.08,79Zm-2.47,1.37L202.72,82l-.3.26a.88.88,0,0,1-1.48-.38l-.32-.82a.88.88,0,0,1,.84-1.27l.46,0,2.43-.09c.61,0,1.12,0,1.12,0S205.09,80,204.6,80.42Z"/></g></g></svg>