<svg xmlns="http://www.w3.org/2000/svg" xmlns:xlink="http://www.w3.org/1999/xlink" viewBox="0 0 321 211"><defs><style>.cls-1{fill:#130e09;}.cls-2{fill:#be0442;}.cls-3{fill:url(#Безымянный_градиент_4);}.cls-4{fill:#fff;}</style><linearGradient id="Безымянный_градиент_4" x1="203.45" y1="-251.89" x2="216.66" y2="-250.56" gradientTransform="translate(-96.74 362.75) rotate(-7.02)" gradientUnits="userSpaceOnUse"><stop offset="0" stop-color="#fff" stop-opacity="0.2"/><stop offset="1" stop-color="#be0442"/></linearGradient></defs><title>logo_1.1_mob</title><g id="Слой_2" data-name="Слой 2"><g id="dash"><rect class="cls-1" width="321" height="211"/></g><g id="pack_2" data-name="pack 2"><path class="cls-2" d="M100.87,76.55c-.55-.14-2.45-.72-3-.81h0A21,21,0,0,0,84.1,78c-.21.12-2.74,1.79-2.75,1.79a34.49,34.49,0,0,1-19.18,5,21.19,21.19,0,0,0,19.77,15.32.25.25,0,0,1,.24.24L83.6,128.1a.25.25,0,0,1-.07.19,7,7,0,0,1-1.47,1.11,13.22,13.22,0,0,1-5.23,1.65.25.25,0,0,0-.23.25h0a.25.25,0,0,0,.25.25H91.42a.25.25,0,0,0,.25-.25h0a.25.25,0,0,0-.23-.25,13.22,13.22,0,0,1-5.23-1.66,7,7,0,0,1-1.47-1.11.25.25,0,0,1-.07-.19L86.14,100a.25.25,0,0,1,.21-.23l.41-.07a21.19,21.19,0,0,0,16.48-16.24s.51-2.56.71-3.22,1.74-4.46,1.74-4.46C104.63,76,102,76.72,100.87,76.55Zm-3.39,7.61a3.09,3.09,0,1,1,2.67-3.46A3.09,3.09,0,0,1,97.48,84.16Z"/><path class="cls-3" d="M83.1,96a13.11,13.11,0,0,1-8.47,1.56A21.2,21.2,0,0,1,86.28,77.78a21.24,21.24,0,0,1,.78,12.29C86.74,91.42,85.87,94.41,83.1,96Z"/><path class="cls-4" d="M111.19,115.44c-.43-2.49-1.15-6.57-1.59-9.06l-.7-3.94c-.44-2.49-1.61-4.53-2.59-4.53s-1.41,2-.95,4.52l4.06,21.77c.46,2.49,1.7,4.52,2.74,4.52s2.29-2,2.76-4.52l4.16-21.78c.47-2.48.06-4.52-.93-4.52s-2.16,2-2.61,4.52l-.7,3.86c-.45,2.49-1.16,6.57-1.56,9.06l-.28,1.71c-.41,2.5-1.1,2.5-1.53,0Z"/><path class="cls-4" d="M124.75,124.08c0,2.53.79,4.6,1.75,4.6s1.75-2.07,1.75-4.6V102.51c0-2.53-.79-4.6-1.75-4.6s-1.75,2.07-1.75,4.6Z"/><path class="cls-4" d="M146.33,114.49c0,2.53,0,4.61-.09,4.62a25.44,25.44,0,0,1-1.15-2.78c-.58-1.54-1.84-4.72-2.8-7.06l-2.89-7.09c-1-2.34-2.48-4.26-3.39-4.26s-1.66,2.07-1.66,4.6v21.57c0,2.53.79,4.6,1.75,4.6s1.75-2.07,1.75-4.6V112.23c0-2.53,0-4.6.07-4.6s.56,1.25,1.17,2.78,1.89,4.7,2.85,7l2.87,7c1,2.34,2.49,4.25,3.38,4.25s1.64-2.07,1.64-4.6V102.51c0-2.53-.79-4.6-1.75-4.6s-1.75,2.07-1.75,4.6Z"/><path class="cls-4" d="M168,100.08a5,5,0,0,0-2.14-1.79,8.93,8.93,0,0,0-3.69-.64,7.61,7.61,0,0,0-3.58.73,5.59,5.59,0,0,0-2.14,1.94,7.71,7.71,0,0,0-1.06,2.76,17.36,17.36,0,0,0-.29,3.18v15.16a8.69,8.69,0,0,0,1.61,5.48Q158.3,129,162.1,129t5.5-2.23a10.7,10.7,0,0,0,1.61-6.34V106.18a22.06,22.06,0,0,0-.24-3.4A6.8,6.8,0,0,0,168,100.08Zm-2.25,20.75a10.44,10.44,0,0,1-.15,1.81,4.7,4.7,0,0,1-.55,1.56,3.23,3.23,0,0,1-1.1,1.12,4,4,0,0,1-3.6,0,3.17,3.17,0,0,1-1.08-1.08,4.09,4.09,0,0,1-.53-1.41,8.08,8.08,0,0,1-.13-1.41V106.56q0-.66.07-1.65a6.08,6.08,0,0,1,.42-1.87,4.06,4.06,0,0,1,1.06-1.52,2.94,2.94,0,0,1,2-.64,3.55,3.55,0,0,1,1.92.46,3,3,0,0,1,1.08,1.14,4.59,4.59,0,0,1,.46,1.52,12.56,12.56,0,0,1,.11,1.63Z"/><path class="cls-4" d="M172.55,99.53c0,.89,1.17,1.61,2.61,1.61s2.61,2.07,2.61,4.6v18.34c0,2.53.79,4.6,1.75,4.6s1.75-2.07,1.75-4.6V105.74c0-2.53,1.17-4.6,2.61-4.6s2.61-.73,2.61-1.61-2.07-1.61-4.6-1.61h-4.73C174.62,97.91,172.55,98.64,172.55,99.53Z"/><path class="cls-4" d="M190.61,124.08a4.61,4.61,0,0,0,4.6,4.6h4c2.53,0,4.6-.73,4.6-1.61s-2.07-1.61-4.6-1.61h-.48a4.61,4.61,0,0,1-4.6-4.6V117a4.43,4.43,0,0,1,4.2-4.6c2.31,0,4.2-.73,4.2-1.61s-1.89-1.61-4.2-1.61a4.12,4.12,0,0,1-4.2-4c0-2.2,2.07-4,4.6-4h.48c2.53,0,4.6-.73,4.6-1.61s-2.07-1.61-4.6-1.61h-4a4.61,4.61,0,0,0-4.6,4.6Z"/><path class="cls-4" d="M221.79,111.35a12.85,12.85,0,0,0,.79-4.69q0-4.42-1.76-6.59l-1.18-1.44a57.53,57.53,0,0,0-7.7-.72c-1.85,0-3.37,2.07-3.37,4.6v21.57c0,2.53.79,4.6,1.75,4.6s1.75-2.07,1.75-4.6v-4.29c0-2.53.74-4.6,1.65-4.6s2.29,2,3.06,4.37l1.53,4.73c.78,2.41,2.22,4.37,3.2,4.37s1.14-2,.35-4.37l-1.79-5.45c-.79-2.4-.25-5.17,1.2-6.15Zm-4.78.24-.53.25c-.8.07-2.12.13-2.94.13s-1.48-2.07-1.48-4.6v-1.63c0-2.53.6-4.6,1.33-4.6s2,.06,2.93.13l.56.27a3.37,3.37,0,0,1,1.35,1.13,4.31,4.31,0,0,1,.68,1.75,13.27,13.27,0,0,1,.18,2.25,12.2,12.2,0,0,1-.18,2.17,4.49,4.49,0,0,1-.64,1.68A3,3,0,0,1,217,111.59Z"/><path class="cls-4" d="M228.18,124.08c0,2.53.79,4.6,1.75,4.6s1.75-2.07,1.75-4.6V102.51c0-2.53-.79-4.6-1.75-4.6s-1.75,2.07-1.75,4.6Z"/><path class="cls-4" d="M237.76,128.68c.92,0,2-1.54,2.36-3.43a4.19,4.19,0,0,1,8.24,0c.39,1.88,1.48,3.43,2.43,3.43s1.29-2,.76-4.49l-4.69-21.77c-.53-2.47-1.7-4.49-2.6-4.49s-2.07,2-2.59,4.5L237,124.18C236.51,126.65,236.84,128.68,237.76,128.68Zm6.45-10.08c-1.56,0-2.5-1.62-2.1-3.6s1-5.21,1.37-7.18.68-3.58.73-3.58.37,1.59.71,3.54,1,5.18,1.37,7.18S245.77,118.6,244.22,118.6Z"/><path class="cls-2" d="M198.19,88.62a3.26,3.26,0,1,1-4.12,5.05"/></g></g></svg>