<svg xmlns="http://www.w3.org/2000/svg" xmlns:xlink="http://www.w3.org/1999/xlink" viewBox="0 0 177.55 286.75"><defs><style>.cls-1{fill:#e6e6e7;}.cls-2{fill:url(#Безымянный_градиент_35);}.cls-3,.cls-4,.cls-5,.cls-6,.cls-7,.cls-8,.cls-9{fill:none;stroke:#4cadd3;stroke-linejoin:round;stroke-width:0.5px;}.cls-4{stroke-dasharray:2.98 2.98;}.cls-5{stroke-dasharray:2.95 2.95;}.cls-6{stroke-dasharray:2.97 2.97;}.cls-7{stroke-dasharray:3 3;}.cls-8{stroke-dasharray:3 3;}.cls-9{stroke-dasharray:2.99 2.99;}</style><linearGradient id="Безымянный_градиент_35" x1="745.64" y1="-82.84" x2="804.97" y2="-82.84" gradientTransform="translate(-683.61 285.27) rotate(-7.02)" gradientUnits="userSpaceOnUse"><stop offset="0" stop-color="#fff" stop-opacity="0.3"/><stop offset="1" stop-color="#ccc" stop-opacity="0.2"/></linearGradient></defs><title>vino_logo_grid_2</title><g id="Слой_2" data-name="Слой 2"><g id="Слой_2-2" data-name="Слой 2"><path class="cls-1" d="M157.66,62.26c-2.25-.58-10-2.92-12.29-3.31h0a85.46,85.46,0,0,0-56,9.37c-.84.47-11.18,7.29-11.19,7.3a139.48,139.48,0,0,1-46.95,18A140.28,140.28,0,0,1,0,95.92a86.35,86.35,0,0,0,80.54,62.41,1,1,0,0,1,1,1l5.78,113a1,1,0,0,1-.3.79,28.4,28.4,0,0,1-6,4.52,53.87,53.87,0,0,1-21.3,6.74,1.12,1.12,0,0,0-1,1v0c.06.56.51,1,1.08.37l29.66,1h29.66c.56-.31,1-.77.6-1.33v0c.42-.52,0-1-.5-1a53.87,53.87,0,0,1-21.29-6.77,28.42,28.42,0,0,1-6-4.53,1,1,0,0,1-.3-.79l6-114.4a1,1,0,0,1,.84-.95l1.68-.3A86.34,86.34,0,0,0,167.3,90.48s2.08-10.44,2.89-13.12,7.11-18.18,7.11-18.18C173,60.14,162.38,63,157.66,62.26Zm-14,31.11a12.6,12.6,0,1,1,10.88-14.1A12.59,12.59,0,0,1,143.67,93.37Z"/><path class="cls-2" d="M85.23,141.39a53.4,53.4,0,0,1-34.5,6.36A86.4,86.4,0,0,1,98.22,67.27a86.55,86.55,0,0,1,3.16,50.07C100.09,122.84,96.53,135,85.23,141.39Z"/><polyline class="cls-3" points="175.8 0.25 177.3 0.25 177.3 1.75"/><line class="cls-4" x1="177.3" y1="4.73" x2="177.3" y2="283.26"/><polyline class="cls-3" points="177.3 284.75 177.3 286.25 175.8 286.25"/><line class="cls-5" x1="172.85" y1="286.25" x2="3.28" y2="286.25"/><polyline class="cls-3" points="1.8 286.25 0.3 286.25 0.3 284.75"/><line class="cls-4" x1="0.3" y1="281.77" x2="0.3" y2="3.24"/><polyline class="cls-3" points="0.3 1.75 0.3 0.25 1.8 0.25"/><line class="cls-5" x1="4.75" y1="0.25" x2="174.33" y2="0.25"/><line class="cls-3" x1="88.8" y1="0.25" x2="88.8" y2="1.75"/><line class="cls-6" x1="88.8" y1="4.72" x2="88.8" y2="282.72"/><line class="cls-3" x1="88.8" y1="284.21" x2="88.8" y2="285.71"/><line class="cls-3" x1="59.3" y1="0.25" x2="59.3" y2="1.75"/><line class="cls-6" x1="59.3" y1="4.72" x2="59.3" y2="282.72"/><line class="cls-3" x1="59.3" y1="284.21" x2="59.3" y2="285.71"/><line class="cls-3" x1="118.43" y1="0.25" x2="118.43" y2="1.75"/><line class="cls-6" x1="118.43" y1="4.72" x2="118.43" y2="282.72"/><line class="cls-3" x1="118.43" y1="284.21" x2="118.43" y2="285.71"/><polyline class="cls-3" points="1.47 1.19 0.3 0.25 1.09 1.52"/><line class="cls-7" x1="2.67" y1="4.08" x2="175.72" y2="283.7"/><polyline class="cls-3" points="176.51 284.98 177.3 286.25 176.13 285.31"/><line class="cls-8" x1="173.81" y1="283.42" x2="2.63" y2="144.8"/><polyline class="cls-3" points="1.47 143.86 0.3 142.91 1.8 142.91"/><line class="cls-5" x1="4.75" y1="142.91" x2="174.33" y2="142.91"/><polyline class="cls-3" points="175.8 142.91 177.3 142.91 176.13 141.97"/><line class="cls-9" x1="173.8" y1="140.1" x2="2.63" y2="2.13"/><line class="cls-3" x1="0.3" y1="142.91" x2="1.47" y2="141.97"/><line class="cls-9" x1="3.8" y1="140.1" x2="174.97" y2="2.13"/><polyline class="cls-3" points="176.13 1.19 177.3 0.25 176.51 1.52"/><line class="cls-7" x1="174.93" y1="4.08" x2="1.88" y2="283.7"/><polyline class="cls-3" points="1.09 284.98 0.3 286.25 1.47 285.31"/><line class="cls-8" x1="3.8" y1="283.42" x2="174.97" y2="144.8"/><line class="cls-3" x1="176.14" y1="143.86" x2="177.3" y2="142.91"/><line class="cls-3" x1="0.3" y1="95.33" x2="1.8" y2="95.33"/><line class="cls-5" x1="4.75" y1="95.33" x2="174.33" y2="95.33"/><line class="cls-3" x1="175.8" y1="95.33" x2="177.3" y2="95.33"/><line class="cls-3" x1="0.3" y1="71.75" x2="1.8" y2="71.75"/><line class="cls-5" x1="4.75" y1="71.75" x2="174.33" y2="71.75"/><line class="cls-3" x1="175.8" y1="71.75" x2="177.3" y2="71.75"/><line class="cls-3" x1="0.3" y1="214.75" x2="1.8" y2="214.75"/><line class="cls-5" x1="4.75" y1="214.75" x2="174.33" y2="214.75"/><line class="cls-3" x1="175.8" y1="214.75" x2="177.3" y2="214.75"/><line class="cls-3" x1="0.3" y1="191.16" x2="1.8" y2="191.16"/><line class="cls-5" x1="4.75" y1="191.16" x2="174.33" y2="191.16"/><line class="cls-3" x1="175.8" y1="191.16" x2="177.3" y2="191.16"/></g></g></svg>