<svg xmlns="http://www.w3.org/2000/svg" viewBox="0 -27 447.01 120">
    <defs>
        <style>.cls-1{fill:#e6e6e7;}</style>
    </defs>
    <title>Vino_font1</title>
    <g id="Слой_2" data-name="Слой 2">
        <g id="Слой_1-2" data-name="Слой 1">
            <path class="cls-1" d="M28.87,93.95H17.37L0,.8H10.82l6.95,39.29L23,72.43h.4l5.35-32.61L35.81.8H46.64Z"/>
            <path class="cls-1" d="M61.2,93.81V.8H71.76v93Z"/>
            <path class="cls-1"
                  d="M100.63,30.2V93.81H90.07V.8h10L119.33,48l6.41,17,.53-.13V.8h10.56v93H127L107.71,47,101,30.2Z"/>
            <path class="cls-1"
                  d="M196.58,68.82q0,12.43-4.88,19.18t-16.64,6.75q-11.49,0-16.37-6.28T153.81,71.9V26.06a52.52,52.52,0,0,1,.87-9.62,23.31,23.31,0,0,1,3.21-8.35,16.91,16.91,0,0,1,6.48-5.88Q168.51,0,175.19,0q6.95,0,11.16,1.94a15,15,0,0,1,6.48,5.41,20.56,20.56,0,0,1,3,8.15,66.74,66.74,0,0,1,.73,10.29ZM186,24.14a37.88,37.88,0,0,0-.33-4.93,13.88,13.88,0,0,0-1.4-4.59A9,9,0,0,0,181,11.15a10.73,10.73,0,0,0-5.81-1.4A8.87,8.87,0,0,0,169,11.69a12.25,12.25,0,0,0-3.21,4.59,18.33,18.33,0,0,0-1.27,5.66q-.2,3-.2,5v45a24.52,24.52,0,0,0,.4,4.26,12.36,12.36,0,0,0,1.6,4.26,9.55,9.55,0,0,0,3.27,3.26,12.08,12.08,0,0,0,10.89-.06,9.76,9.76,0,0,0,3.34-3.4,14.22,14.22,0,0,0,1.67-4.73,31.65,31.65,0,0,0,.47-5.46Z"/>
            <path class="cls-1" d="M233.46,10.56V93.81H222.9V10.56H207.13V.8h42.1v9.76Z"/>
            <path class="cls-1" d="M260.72,93.81V.8h39.82v9.76H271.28V41.69h25.39v9.76H271.28V84.06h29.27v9.76Z"/>
            <path class="cls-1"
                  d="M347.35,93.81,334.18,53.05h-10V93.81H313.64V.8H334q11.32,0,16.65,6.55T356,27.26a38.88,38.88,0,0,1-2.4,14.17q-2.4,6.15-9.58,9.49l14.12,42.9Zm-1.91-66.55a40.1,40.1,0,0,0-.53-6.82,13,13,0,0,0-2.07-5.28,10.18,10.18,0,0,0-4.08-3.41,15.35,15.35,0,0,0-6.55-1.2h-8V43.3h9a14.05,14.05,0,0,0,6-1.14A9.08,9.08,0,0,0,343,38.89a13.56,13.56,0,0,0,1.94-5.08A36.88,36.88,0,0,0,345.45,27.26Z"/>
            <path class="cls-1" d="M373.37,93.81V.8h10.56v93Z"/>
            <path class="cls-1"
                  d="M436.58,93.81,432.31,73.1H411.59l-4.14,20.71H397.29L417.07.8H427l20,93Zm-15-73.9-3.88,21.65-4.41,21.78h17.11l-4.54-22.05-3.74-21.38Z"/>
        </g>
    </g>
</svg>