<svg xmlns="http://www.w3.org/2000/svg" viewBox="0 0 448.44 122.78">
    <defs>
        <style>.cls-1{fill:#e6e6e7;}</style>
    </defs>
    <title>Vino_font2</title>
    <g id="Слой_2" data-name="Слой 2">
        <g id="Слой_1-2" data-name="Слой 1">
            <path class="cls-1"
                  d="M17.9,72.71c-.47-2.71-1.25-7.14-1.73-9.85L10.93,33.18a6.2,6.2,0,0,0-5.87-4.92H4.17A4,4,0,0,0,.08,33.17l15.65,83.89A6.27,6.27,0,0,0,21.65,122h1.56a6.3,6.3,0,0,0,5.94-4.91l16-83.9a4,4,0,0,0-4.06-4.91H40.2a6.23,6.23,0,0,0-5.89,4.92L29,62.6c-.49,2.71-1.26,7.14-1.7,9.85L23.51,95.39c-.44,2.71-1.19,2.72-1.66,0Z"/>
            <rect class="cls-1" x="60.68" y="28.25" width="10.62" height="93.58" rx="5" ry="5"/>
            <path class="cls-1"
                  d="M126.35,87.66a24.82,24.82,0,0,1-.27,5.07,23.65,23.65,0,0,1-2-4.61l-2.92-7.72c-1-2.57-2.62-6.76-3.66-9.31l-15.58-38.2A8.06,8.06,0,0,0,95,28.25h-.08a5,5,0,0,0-5,5v83.58a5,5,0,0,0,5,5h.62a5,5,0,0,0,5-5v-54a31.35,31.35,0,0,1,.2-5,35.63,35.63,0,0,1,2,4.65l3,7.65c1,2.56,2.7,6.73,3.75,9.27l15.56,37.81a8.07,8.07,0,0,0,6.88,4.62,5,5,0,0,0,5-5V33.25a5,5,0,0,0-5-5h-.62a5,5,0,0,0-5,5Z"/>
            <path class="cls-1"
                  d="M192.2,34.84a15.12,15.12,0,0,0-6.52-5.45q-4.24-1.95-11.23-1.95-6.72,0-10.89,2.22A17,17,0,0,0,157,35.58a23.45,23.45,0,0,0-3.23,8.4,52.8,52.8,0,0,0-.87,9.68V99.78q0,10.36,4.91,16.67t16.47,6.32q11.83,0,16.74-6.79T196,96.69V53.4A67.11,67.11,0,0,0,195.23,43,20.7,20.7,0,0,0,192.2,34.84ZM185.34,98a31.77,31.77,0,0,1-.47,5.5,14.28,14.28,0,0,1-1.68,4.76,9.82,9.82,0,0,1-3.36,3.42,12.15,12.15,0,0,1-11,.07,9.63,9.63,0,0,1-3.29-3.28,12.45,12.45,0,0,1-1.61-4.29,24.58,24.58,0,0,1-.4-4.29V54.55q0-2,.2-5A18.48,18.48,0,0,1,165,43.83a12.34,12.34,0,0,1,3.23-4.62,8.93,8.93,0,0,1,6.19-1.94,10.8,10.8,0,0,1,5.85,1.41,9.07,9.07,0,0,1,3.29,3.48A14,14,0,0,1,185,46.77a38.2,38.2,0,0,1,.34,5Z"/>
            <path class="cls-1"
                  d="M206.11,33.16a5,5,0,0,0,5,4.91H217a5,5,0,0,1,5,5v73.77a5,5,0,0,0,5,5h.62a5,5,0,0,0,5-5V43.07a5,5,0,0,1,5-5h5.87a4.91,4.91,0,1,0,0-9.82H211.11A5,5,0,0,0,206.11,33.16Z"/>
            <path class="cls-1"
                  d="M261,116.84a5,5,0,0,0,5,5H296.1a4.91,4.91,0,1,0,0-9.82H276.66a5,5,0,0,1-5-5V77.25a5,5,0,0,1,5-5H292.2a4.91,4.91,0,1,0,0-9.82H276.66a5,5,0,0,1-5-5V43.07a5,5,0,0,1,5-5H296.1a4.91,4.91,0,1,0,0-9.82H266a5,5,0,0,0-5,5Z"/>
            <path class="cls-1"
                  d="M355.88,69.13a39.1,39.1,0,0,0,2.41-14.25q0-13.44-5.36-20c-3.58-4.39-11.82-5.77-11.82-5.77a73,73,0,0,0-9.93-.82H320.66a5,5,0,0,0-5,5v83.58a5,5,0,0,0,5,5h.62a5,5,0,0,0,5-5v-31a5,5,0,0,1,5-5h0a7.34,7.34,0,0,1,6.54,4.76L348,117.08a7.34,7.34,0,0,0,6.54,4.76h.85a3.41,3.41,0,0,0,3.44-4.75L347.8,83.42a7,7,0,0,1,2.58-7.55A16.48,16.48,0,0,0,355.88,69.13Zm-14.53.74-1.61.76c-2.44.21-6.46.38-8.94.38a4.79,4.79,0,0,1-4.5-5V43.07c0-2.75,1.82-5,4-5s6.23.18,8.92.4l1.7.81a10.26,10.26,0,0,1,4.1,3.43A13.12,13.12,0,0,1,347.13,48a40.36,40.36,0,0,1,.54,6.86,37.13,37.13,0,0,1-.54,6.59,13.67,13.67,0,0,1-1.95,5.11A9.15,9.15,0,0,1,341.34,69.87Z"/>
            <rect class="cls-1" x="375.33" y="28.25" width="10.62" height="93.58" rx="5" ry="5"/>
            <path class="cls-1"
                  d="M404.59,121.84a6.37,6.37,0,0,0,6-4.9l2.21-11a6.37,6.37,0,0,1,6-4.9H429.6a6.42,6.42,0,0,1,6,4.9l2.28,11a6.42,6.42,0,0,0,6,4.9h.49a3.88,3.88,0,0,0,3.95-4.89L430.27,33.14a6.15,6.15,0,0,0-12,0l-17.82,83.8a3.89,3.89,0,0,0,4,4.89ZM420.5,91.18a3.94,3.94,0,0,1-4-4.9l2.45-12.12c.55-2.7,1.39-7.12,1.87-9.82L423,52.4a24.84,24.84,0,0,1,1.15-4.92,24.81,24.81,0,0,1,1.13,4.93l2,11.66c.47,2.71,1.32,7.13,1.87,9.82l2.55,12.39a3.92,3.92,0,0,1-4,4.9Z"/>
            <path class="cls-1" d="M284.09,0a9.92,9.92,0,1,1-12.53,15.37"/>
        </g>
    </g>
</svg>