<svg xmlns="http://www.w3.org/2000/svg" viewBox="0 0 1281.6 476.89"><defs><style>.cls-1{fill:#e6e6e7;}.cls-2,.cls-3,.cls-4{fill:none;stroke-miterlimit:10;}.cls-2{stroke:#3298cb;stroke-width:0.2px;}.cls-3,.cls-4{stroke:#6598cb;stroke-width:0.5px;}.cls-3{stroke-dasharray:2 1;}.cls-4{stroke-dasharray:2.08 1.04;}</style></defs><title>LOGO</title><g id="Слой_2" data-name="Слой 2"><g id="Слой_1-2" data-name="Слой 1"><path class="cls-1" d="M557,134.44c8.21-11.83,17.94-17.17,32.63-17.17,22.71,0,33.39,13.17,33.39,35.49v65.64H601.23V161.16c0-13.55-1.72-25.76-19.08-25.76-13.17,0-24,7.25-24,30v53H536.35V119.94H557Z"/><path class="cls-1" d="M729.26,203.9c-4,0-5.15-1.53-5.15-7.25v-50c0-21.18-17.17-29.77-40.45-29.77-24,0-40.65,9.16-43.13,33.39h20.61c1.72-12.79,7.82-17.56,21.94-17.56,13.74,0,20.23,4.77,20.23,14.88,0,3.63-.38,5.92-1.34,7.06-2.1,2.86-6.49,3.82-21.56,5.72-19.65,2.48-44.08,5-44.08,31.1,0,18.13,12.79,29.39,33.2,29.39,13,0,25.57-3.24,34.54-11.83,1.53,8.59,7.63,11.83,16,11.83,4.2,0,7.25-.38,14.12-2.1V203.52A27.39,27.39,0,0,1,729.26,203.9Zm-30.53-6.3c-5,5-13.36,7.82-22.33,7.82-11.26,0-17.75-5.34-17.75-14.69,0-13,11.45-14.88,21.56-16.41,7.82-1.14,15.84-1.34,22.9-5.34v11.64C703.12,186.54,703.31,193,698.73,197.61Z"/><polygon class="cls-1" points="754.91 119.94 780.1 195.7 804.34 119.94 826.85 119.94 791.55 218.6 767.12 218.6 731.25 119.94 754.91 119.94"/><rect class="cls-1" x="839.68" y="81.97" width="21.75" height="21.37"/><rect class="cls-1" x="839.68" y="119.94" width="21.75" height="98.47"/><path class="cls-1" d="M923.56,220.89c-30,0-48.47-21-48.47-50.76,0-32.44,19.08-53.24,49-53.24,25.19,0,41.41,13.36,43.89,36.07H946.46c-2.48-12.4-10.31-19.27-22.14-19.27-16.79,0-27.1,13.36-27.1,35.3,0,21.75,9.73,34.73,26.33,34.73,13,0,21.56-8,23.85-22.52h21.37C965.73,205.43,948.18,220.89,923.56,220.89Z"/><path class="cls-1" d="M1029.18,117.08c-30.53,0-50.19,20.42-50.19,52.1,0,32.06,19.46,52.29,50.19,52.29,30.15,0,49.23-20.23,49.23-52.29C1078.42,137.31,1059.34,117.08,1029.18,117.08Zm-.19,87.4c-17.56,0-28.05-13.17-28.05-35.3,0-21.56,10.69-34.92,27.86-34.92s27.67,13.17,27.67,34.73C1056.47,191.12,1046.17,204.48,1029,204.48Z"/><path class="cls-1" d="M1111,133.87c7.82-10.69,17.17-16.6,30.91-16.6,12.79,0,22.9,5.92,27.48,16.79,7.63-10.88,18.13-16.79,31.87-16.79,17.94,0,32.25,11.07,32.25,31.3v69.84h-21.75V157.92c0-12-2.48-22.33-17.56-22.33-14.31,0-21.56,9.54-21.56,25v57.82h-21.75V156.77c0-11.83-1.72-21.18-16.22-21.18-15.27,0-22.52,10.88-22.52,26.14v56.67h-21.75V119.94H1111Z"/><path class="cls-1" d="M626.49,320.48c0-34-17.94-55.15-46.75-55.15-27.67,0-47.71,22.33-47.71,53.24,0,29.39,18.13,51.33,48.47,51.33,22.14,0,39.69-12.4,44.65-34h-20.8c-4.39,12.59-11.45,17.94-23.47,17.94-16.79,0-26.52-11.26-27.1-31.1h72.7Zm-72.32-12.21c2.1-17.36,11.07-26.72,25.38-26.72s23.85,10.11,25.19,26.72Z"/><path class="cls-1" d="M659.89,282.7c8.21-11.83,17.94-17.17,32.63-17.17,22.71,0,33.39,13.17,33.39,35.49v65.64H704.17V309.41c0-13.55-1.72-25.76-19.08-25.76-13.17,0-24,7.25-24,30v53H639.29V268.2h20.61Z"/><path class="cls-1" d="M833.92,320.48c0-34-17.94-55.15-46.75-55.15-27.67,0-47.71,22.33-47.71,53.24,0,29.39,18.13,51.33,48.47,51.33,22.14,0,39.69-12.4,44.65-34h-20.8c-4.39,12.59-11.45,17.94-23.47,17.94-16.79,0-26.52-11.26-27.1-31.1h72.7Zm-72.32-12.21c2.1-17.36,11.07-26.72,25.38-26.72s23.85,10.11,25.19,26.72Z"/><path class="cls-1" d="M904.44,287.09a71.72,71.72,0,0,0-7.63-.57c-21.56,0-28.43,16.22-28.43,36.83v43.32H846.81V268.2h20.42v19.65c6.49-13.55,17.17-21.94,33-21.94,1.34,0,2.1.19,4.2.38Z"/><path class="cls-1" d="M984.82,268.2v13.74c-7.82-11.07-16.41-16.41-30.72-16.41-26.52,0-43.89,20.23-43.89,51.14,0,30,16.6,49,42.74,49,14.12,0,23.85-5,31.3-16.6v11.64c0,20.23-7.82,29-26,29-13.74,0-20.8-4.58-22.9-14.69H913.64c2.48,20,17.37,30,44.08,30,35.49,0,47.33-17.36,47.33-49.81v-87Zm-26.91,80.53c-15.84,0-26.14-12.59-26.14-32.44,0-20.8,9.73-33.2,26.14-33.2s26.33,12,26.33,32.06C984.25,335.75,974.13,348.72,957.91,348.72Z"/><path class="cls-1" d="M1075.32,364.75c-7.06,18.89-12.4,39.5-36.64,39.5a101.66,101.66,0,0,1-15.07-1.15V384.79a55.54,55.54,0,0,0,11.45,1.34c11.07,0,13.93-13.74,16.79-22.33l-37.78-95.6h23.85l26.33,72.51,24.81-72.51h22.71Z"/><path class="cls-1" d="M30,40.12V447.28h417.1V40.12ZM427.25,427.44H49.87V60H427.25Z"/><path class="cls-1" d="M298.15,175.2v19a5,5,0,0,0,6.81,4.72l49.51-18.57a5,5,0,0,0,3.27-4.72v-19a5,5,0,0,0-6.81-4.72l-49.51,18.57A5,5,0,0,0,298.15,175.2Z"/><path class="cls-1" d="M172.17,278.54,122.66,297.1a5,5,0,0,0-3.27,4.72v19a5,5,0,0,0,6.81,4.72L175.71,307a5,5,0,0,0,3.27-4.72v-19A5,5,0,0,0,172.17,278.54Z"/><path class="cls-1" d="M300.48,260.21l54-20.24a5,5,0,0,0,3.27-4.72v-19a5,5,0,0,0-6.81-4.72l-50.45,18.92A5,5,0,0,1,296,230l-115-71.84a5,5,0,0,0-4.44-.45l-54,20.24a5,5,0,0,0-3.27,4.72v19a5,5,0,0,0,6.81,4.72l50.45-18.92a5,5,0,0,1,4.44.45l115,71.84A5,5,0,0,0,300.48,260.21Z"/><path class="cls-1" d="M300.48,319.8l54-20.24a5,5,0,0,0,3.27-4.72v-19a5,5,0,0,0-6.81-4.72L300.48,290a5,5,0,0,1-4.44-.45l-115-71.84a5,5,0,0,0-4.44-.45l-54,20.24a5,5,0,0,0-3.27,4.72v19A5,5,0,0,0,126.2,266l50.45-18.92a5,5,0,0,1,4.44.45l115,71.84A5,5,0,0,0,300.48,319.8Z"/><rect class="cls-2" x="119.3" y="-119.05" width="476.64" height="715.03" transform="translate(119.15 596.08) rotate(-90)"/><polyline class="cls-2" points="1281.18 454.44 1281.18 476.79 0.1 476.79 0.1 454.44"/><line class="cls-2" x1="0.1" y1="476.79" x2="1281.18" y2="476.79"/><rect class="cls-2" x="625.74" y="-178.65" width="29.79" height="1281.08" transform="translate(178.75 1102.53) rotate(-90)"/><rect class="cls-2" x="625.74" y="-208.44" width="29.79" height="1281.08" transform="translate(208.54 1072.74) rotate(-90)"/><rect class="cls-2" x="625.74" y="-238.24" width="29.79" height="1281.08" transform="translate(238.34 1042.94) rotate(-90)"/><rect class="cls-2" x="625.74" y="-268.03" width="29.79" height="1281.08" transform="translate(268.13 1013.15) rotate(-90)"/><rect class="cls-2" x="625.74" y="-297.82" width="29.79" height="1281.08" transform="translate(297.92 983.36) rotate(-90)"/><rect class="cls-2" x="625.74" y="-327.62" width="29.79" height="1281.08" transform="translate(327.72 953.57) rotate(-90)"/><rect class="cls-2" x="625.74" y="-357.41" width="29.79" height="1281.08" transform="translate(357.51 923.77) rotate(-90)"/><rect class="cls-2" x="625.74" y="-387.2" width="29.79" height="1281.08" transform="translate(387.3 893.98) rotate(-90)"/><rect class="cls-2" x="625.74" y="-416.99" width="29.79" height="1281.08" transform="translate(417.09 864.19) rotate(-90)"/><rect class="cls-2" x="625.74" y="-446.79" width="29.79" height="1281.08" transform="translate(446.89 834.39) rotate(-90)"/><rect class="cls-2" x="625.74" y="-476.58" width="29.79" height="1281.08" transform="translate(476.68 804.6) rotate(-90)"/><rect class="cls-2" x="625.74" y="-506.37" width="29.79" height="1281.08" transform="translate(506.47 774.81) rotate(-90)"/><rect class="cls-2" x="625.74" y="-536.17" width="29.79" height="1281.08" transform="translate(536.27 745.02) rotate(-90)"/><rect class="cls-2" x="625.74" y="-565.96" width="29.79" height="1281.08" transform="translate(566.06 715.22) rotate(-90)"/><rect class="cls-2" x="625.74" y="-595.75" width="29.79" height="1281.08" transform="translate(595.85 685.43) rotate(-90)"/><rect class="cls-2" x="625.74" y="-625.54" width="29.79" height="1281.08" transform="translate(625.64 655.64) rotate(-90)"/><rect class="cls-2" x="655.54" y="0.15" width="29.79" height="476.64" transform="translate(1340.88 476.94) rotate(180)"/><rect class="cls-2" x="595.96" y="0.15" width="29.79" height="476.64" transform="translate(1221.71 476.94) rotate(180)"/><rect class="cls-2" x="566.16" y="0.15" width="29.79" height="476.64" transform="translate(1162.12 476.94) rotate(180)"/><rect class="cls-2" x="536.37" y="0.15" width="29.79" height="476.64" transform="translate(1102.54 476.94) rotate(180)"/><rect class="cls-2" x="476.79" y="0.15" width="29.79" height="476.64" transform="translate(983.36 476.94) rotate(180)"/><rect class="cls-2" x="446.99" y="0.15" width="29.79" height="476.64" transform="translate(923.78 476.94) rotate(180)"/><rect class="cls-2" x="387.41" y="0.15" width="29.79" height="476.64" transform="translate(804.61 476.94) rotate(180)"/><rect class="cls-2" x="357.61" y="0.15" width="29.79" height="476.64" transform="translate(745.02 476.94) rotate(180)"/><rect class="cls-2" x="298.03" y="0.15" width="29.79" height="476.64" transform="translate(625.85 476.94) rotate(180)"/><rect class="cls-2" x="238.44" y="0.15" width="29.79" height="476.64" transform="translate(506.68 476.94) rotate(180)"/><rect class="cls-2" x="208.65" y="0.15" width="29.79" height="476.64" transform="translate(447.09 476.94) rotate(180)"/><rect class="cls-2" x="149.06" y="0.15" width="29.79" height="476.64" transform="translate(327.92 476.94) rotate(180)"/><rect class="cls-2" x="119.27" y="0.15" width="29.79" height="476.64" transform="translate(268.34 476.94) rotate(180)"/><rect class="cls-2" x="89.48" y="0.15" width="29.79" height="476.64" transform="translate(208.75 476.94) rotate(180)"/><line class="cls-2" x1="1072.64" y1="476.79" x2="1072.64" y2="0.15"/><rect class="cls-2" x="1042.85" y="0.15" width="29.79" height="476.64" transform="translate(2115.49 476.94) rotate(180)"/><rect class="cls-2" x="983.26" y="0.15" width="29.79" height="476.64" transform="translate(1996.32 476.94) rotate(180)"/><rect class="cls-2" x="923.68" y="0.15" width="29.79" height="476.64" transform="translate(1877.15 476.94) rotate(180)"/><rect class="cls-2" x="864.09" y="0.15" width="29.79" height="476.64" transform="translate(1757.98 476.94) rotate(-180)"/><rect class="cls-2" x="804.51" y="0.15" width="29.79" height="476.64" transform="translate(1638.81 476.94) rotate(180)"/><rect class="cls-2" x="744.92" y="0.15" width="29.79" height="476.64" transform="translate(1519.64 476.94) rotate(180)"/><rect class="cls-2" x="29.89" y="0.15" width="29.79" height="476.64" transform="translate(89.58 476.94) rotate(180)"/><rect class="cls-2" x="0.1" y="0.15" width="29.79" height="476.64" transform="translate(29.99 476.94) rotate(180)"/><line class="cls-2" x1="1281.18" y1="476.74" x2="1281.18" y2="0.1"/><rect class="cls-2" x="1251.39" y="0.1" width="29.79" height="476.64" transform="translate(2532.57 476.84) rotate(180)"/><rect class="cls-2" x="1221.6" y="0.1" width="29.79" height="476.64" transform="translate(2472.98 476.84) rotate(180)"/><rect class="cls-2" x="1191.8" y="0.1" width="29.79" height="476.64" transform="translate(2413.4 476.84) rotate(180)"/><rect class="cls-2" x="1162.01" y="0.1" width="29.79" height="476.64" transform="translate(2353.81 476.84) rotate(180)"/><rect class="cls-2" x="1132.22" y="0.1" width="29.79" height="476.64" transform="translate(2294.23 476.84) rotate(180)"/><rect class="cls-2" x="1102.42" y="0.1" width="29.79" height="476.64" transform="translate(2234.64 476.84) rotate(180)"/><line class="cls-3" x1="387.27" y1="137.91" x2="89.72" y2="249.63"/><line class="cls-3" x1="387.27" y1="108.14" x2="89.66" y2="219.89"/><line class="cls-3" x1="387.27" y1="78.34" x2="89.72" y2="190.07"/><line class="cls-3" x1="387.27" y1="167.72" x2="89.66" y2="279.47"/><line class="cls-3" x1="387.27" y1="197.38" x2="89.66" y2="309.12"/><line class="cls-3" x1="387.27" y1="227.16" x2="89.66" y2="338.91"/><line class="cls-3" x1="387.27" y1="256.96" x2="89.66" y2="368.71"/><line class="cls-3" x1="387.91" y1="286.76" x2="89.66" y2="398.75"/><line class="cls-3" x1="89.66" y1="100.71" x2="387.91" y2="286.76"/><line class="cls-3" x1="89.66" y1="130.59" x2="387.91" y2="316.99"/><line class="cls-3" x1="89.66" y1="160.3" x2="387.27" y2="346.3"/><line class="cls-3" x1="89.72" y1="190.07" x2="387.59" y2="376.23"/><line class="cls-3" x1="536.37" y1="29.79" x2="536.37" y2="446.99"/><line class="cls-3" x1="357.72" y1="30.77" x2="357.72" y2="447.97"/><line class="cls-3" x1="119.27" y1="30.77" x2="119.27" y2="447.97"/><circle class="cls-4" cx="124.34" cy="320.27" r="4.97"/><circle class="cls-4" cx="124.34" cy="301.45" r="4.97"/><circle class="cls-4" cx="174" cy="282.56" r="4.97"/><circle class="cls-4" cx="174" cy="301.65" r="4.97"/><circle class="cls-4" cx="124.34" cy="260.88" r="4.97"/><circle class="cls-4" cx="124.34" cy="242.05" r="4.97"/><circle class="cls-4" cx="124.34" cy="201.2" r="4.97"/><circle class="cls-4" cx="124.34" cy="182.38" r="4.97"/><circle class="cls-4" cx="352.75" cy="156.19" r="4.97"/><circle class="cls-4" cx="352.75" cy="175.01" r="4.97"/><circle class="cls-4" cx="303.1" cy="193.9" r="4.97"/><circle class="cls-4" cx="303.1" cy="174.81" r="4.97"/><circle class="cls-4" cx="352.75" cy="215.59" r="4.97"/><circle class="cls-4" cx="352.75" cy="234.41" r="4.97"/><circle class="cls-4" cx="352.75" cy="275.26" r="4.97"/><circle class="cls-4" cx="352.75" cy="294.08" r="4.97"/><circle class="cls-4" cx="178.6" cy="162.11" r="4.97"/><circle class="cls-4" cx="178.36" cy="191.78" r="4.97"/><circle class="cls-4" cx="178.6" cy="221.33" r="4.97"/><circle class="cls-4" cx="178.36" cy="251" r="4.97"/><circle class="cls-4" cx="298.48" cy="225.13" r="4.97"/><circle class="cls-4" cx="298.25" cy="254.8" r="4.97"/><circle class="cls-4" cx="298.48" cy="284.79" r="4.97"/><circle class="cls-4" cx="298.25" cy="314.45" r="4.97"/><circle class="cls-3" cx="34.96" cy="422.06" r="4.97"/><circle class="cls-3" cx="44.89" cy="422.06" r="4.97"/><circle class="cls-3" cx="54.83" cy="422.06" r="4.97"/><circle class="cls-3" cx="34.96" cy="431.99" r="4.97"/><circle class="cls-3" cx="44.89" cy="431.99" r="4.97"/><circle class="cls-3" cx="54.83" cy="431.99" r="4.97"/><circle class="cls-3" cx="34.96" cy="441.92" r="4.97"/><circle class="cls-3" cx="44.89" cy="441.92" r="4.97"/><circle class="cls-3" cx="54.83" cy="441.92" r="4.97"/><circle class="cls-3" cx="442.13" cy="441.92" r="4.97"/><circle class="cls-3" cx="422.17" cy="422.06" r="4.97"/><circle class="cls-3" cx="34.96" cy="34.75" r="4.97"/><circle class="cls-3" cx="54.72" cy="64.65" r="4.97"/><circle class="cls-3" cx="442.13" cy="34.75" r="4.97"/><circle class="cls-3" cx="422.17" cy="64.65" r="4.97"/><line class="cls-3" x1="1281.51" y1="228.53" x2="447.45" y2="228.53"/><line class="cls-3" x1="1281.6" y1="218.59" x2="447.53" y2="218.59"/><line class="cls-3" x1="1281.18" y1="377.32" x2="447.11" y2="377.32"/><line class="cls-3" x1="1281.18" y1="367.38" x2="447.11" y2="367.38"/></g></g></svg>