<?xml version="1.0" encoding="utf-8"?>
<!-- Generator: Adobe Illustrator 21.0.0, SVG Export Plug-In . SVG Version: 6.00 Build 0)  -->
<svg version="1.1" id="Слой_1" xmlns="http://www.w3.org/2000/svg" xmlns:xlink="http://www.w3.org/1999/xlink" x="0px" y="0px"
	 viewBox="0 0 582.2 196.6" style="enable-background:new 0 0 582.2 196.6;" xml:space="preserve">
<style type="text/css">
	.st0{fill:url(#SVGID_1_);stroke:#ADADAD;stroke-width:0.99;stroke-linejoin:round;}
	.st1{fill:url(#SVGID_2_);stroke:#ADADAD;stroke-width:0.99;stroke-linejoin:round;}
	.st2{fill:#7F7F7F;stroke:#ADADAD;stroke-width:0.99;stroke-linejoin:round;}
	.st3{fill:url(#SVGID_3_);stroke:#ADADAD;stroke-width:0.99;stroke-linejoin:round;}
	.st4{fill:url(#SVGID_4_);stroke:#ADADAD;stroke-width:0.99;stroke-linejoin:round;}
	.st5{fill:url(#SVGID_5_);stroke:#ADADAD;stroke-width:0.99;stroke-linejoin:round;}
	.st6{fill:url(#SVGID_6_);stroke:#ADADAD;stroke-width:0.99;stroke-linejoin:round;}
	.st7{fill:url(#SVGID_7_);stroke:#ADADAD;stroke-width:0.99;stroke-linejoin:round;}
	.st8{fill:url(#SVGID_8_);stroke:#ADADAD;stroke-width:0.99;stroke-linejoin:round;}
	.st9{fill:url(#SVGID_9_);stroke:#ADADAD;stroke-width:0.99;stroke-linejoin:round;}
	.st10{fill:url(#SVGID_10_);stroke:#ADADAD;stroke-width:0.99;stroke-linejoin:round;}
	.st11{fill:url(#SVGID_11_);stroke:#ADADAD;stroke-width:0.99;stroke-linejoin:round;}
	.st12{fill:none;stroke:#5B5B5B;stroke-width:0.99;stroke-linejoin:round;}
	.st13{fill:url(#SVGID_12_);stroke:#ADADAD;stroke-width:0.99;stroke-linejoin:round;}
	.st14{fill:url(#SVGID_13_);stroke:#ADADAD;stroke-width:0.99;stroke-linejoin:round;}
	.st15{fill:url(#SVGID_14_);stroke:#ADADAD;stroke-width:0.99;stroke-linejoin:round;}
	.st16{fill:url(#SVGID_15_);stroke:#ADADAD;stroke-width:0.99;stroke-linejoin:round;}
	.st17{fill:url(#SVGID_16_);stroke:#ADADAD;stroke-width:0.99;stroke-linejoin:round;}
	.st18{fill:url(#SVGID_17_);stroke:#ADADAD;stroke-width:0.99;stroke-linejoin:round;}
	.st19{fill:#0067B2;}
	.st20{enable-background:new    ;}
	.st21{fill:#383838;}
</style>
<title>box2</title>
<linearGradient id="SVGID_1_" gradientUnits="userSpaceOnUse" x1="29.16" y1="95.57" x2="552.92" y2="95.57" gradientTransform="matrix(1 0 0 -1 0 198.2797)">
	<stop  offset="0" style="stop-color:#E2E2E2"/>
	<stop  offset="0.51" style="stop-color:#E0E0E0"/>
	<stop  offset="0.7" style="stop-color:#D9D9D9"/>
	<stop  offset="0.83" style="stop-color:#CECECE"/>
	<stop  offset="0.94" style="stop-color:#BDBDBD"/>
	<stop  offset="1" style="stop-color:#AFAFAF"/>
</linearGradient>
<path class="st0" d="M40.7,21.5h500.6c6.4,0,11.6,5.2,11.6,11.6v150.8l0,0H29.2l0,0V33.1C29.2,26.7,34.3,21.5,40.7,21.5L40.7,21.5z"
	/>
<linearGradient id="SVGID_2_" gradientUnits="userSpaceOnUse" x1="29.16" y1="172.06" x2="552.91" y2="172.06" gradientTransform="matrix(1 0 0 -1 0 198.2797)">
	<stop  offset="0" style="stop-color:#E2E2E2"/>
	<stop  offset="6.000000e-02" style="stop-color:#DDDDDD"/>
	<stop  offset="0.42" style="stop-color:#C4C4C4"/>
	<stop  offset="0.74" style="stop-color:#B4B4B4"/>
	<stop  offset="1" style="stop-color:#AFAFAF"/>
</linearGradient>
<path class="st1" d="M38.5,21.5h505.1c5.2,0,9.3,4.2,9.3,9.3c0,0,0,0,0,0l0,0l0,0H29.2l0,0l0,0C29.2,25.7,33.3,21.5,38.5,21.5z"/>
<rect x="287.8" y="52.6" class="st2" width="6.4" height="6.4"/>
<linearGradient id="SVGID_3_" gradientUnits="userSpaceOnUse" x1="557.88" y1="178.835" x2="581.66" y2="178.835" gradientTransform="matrix(1 0 0 -1 0 198.2797)">
	<stop  offset="0" style="stop-color:#E2E2E2"/>
	<stop  offset="0.51" style="stop-color:#E0E0E0"/>
	<stop  offset="0.7" style="stop-color:#D9D9D9"/>
	<stop  offset="0.83" style="stop-color:#CECECE"/>
	<stop  offset="0.94" style="stop-color:#BDBDBD"/>
	<stop  offset="1" style="stop-color:#AFAFAF"/>
</linearGradient>
<path class="st3" d="M569.8,0.5L569.8,0.5c-6.6,0-11.9,5.3-11.9,11.9c0,0,0,0,0,0v24l23.8,2v-26C581.7,5.8,576.3,0.5,569.8,0.5
	C569.8,0.5,569.8,0.5,569.8,0.5z M569.8,18.2c-3.4,0-6.2-2.8-6.2-6.2c0-3.4,2.8-6.2,6.2-6.2c3.4,0,6.2,2.8,6.2,6.2
	C576,15.4,573.2,18.2,569.8,18.2L569.8,18.2z"/>
<linearGradient id="SVGID_4_" gradientUnits="userSpaceOnUse" x1="552.99" y1="147.175" x2="581.66" y2="147.175" gradientTransform="matrix(1 0 0 -1 0 198.2797)">
	<stop  offset="0" style="stop-color:#E2E2E2"/>
	<stop  offset="0.51" style="stop-color:#E0E0E0"/>
	<stop  offset="0.7" style="stop-color:#D9D9D9"/>
	<stop  offset="0.83" style="stop-color:#CECECE"/>
	<stop  offset="0.94" style="stop-color:#BDBDBD"/>
	<stop  offset="1" style="stop-color:#AFAFAF"/>
</linearGradient>
<polygon class="st4" points="553,69.4 553,34.1 557.9,32.8 581.7,38.4 "/>
<linearGradient id="SVGID_5_" gradientUnits="userSpaceOnUse" x1="-3917.74" y1="178.84" x2="-3893.96" y2="178.84" gradientTransform="matrix(-1 0 0 -1 -3893.46 198.2797)">
	<stop  offset="0" style="stop-color:#E2E2E2"/>
	<stop  offset="0.51" style="stop-color:#E0E0E0"/>
	<stop  offset="0.7" style="stop-color:#D9D9D9"/>
	<stop  offset="0.83" style="stop-color:#CECECE"/>
	<stop  offset="0.94" style="stop-color:#BDBDBD"/>
	<stop  offset="1" style="stop-color:#AFAFAF"/>
</linearGradient>
<path class="st5" d="M0.5,12.4v26l23.8-2v-24c0-6.6-5.3-11.9-11.9-11.9c0,0,0,0,0,0l0,0C5.8,0.5,0.5,5.8,0.5,12.4z M6.2,12
	c0-3.4,2.8-6.2,6.2-6.2s6.2,2.8,6.2,6.2s-2.8,6.2-6.2,6.2c0,0,0,0,0,0C8.9,18.2,6.2,15.4,6.2,12z"/>
<linearGradient id="SVGID_6_" gradientUnits="userSpaceOnUse" x1="-3922.6299" y1="147.175" x2="-3893.96" y2="147.175" gradientTransform="matrix(-1 0 0 -1 -3893.46 198.2797)">
	<stop  offset="0" style="stop-color:#E2E2E2"/>
	<stop  offset="0.51" style="stop-color:#E0E0E0"/>
	<stop  offset="0.7" style="stop-color:#D9D9D9"/>
	<stop  offset="0.83" style="stop-color:#CECECE"/>
	<stop  offset="0.94" style="stop-color:#BDBDBD"/>
	<stop  offset="1" style="stop-color:#AFAFAF"/>
</linearGradient>
<polygon class="st6" points="29.2,69.4 29.2,34.1 24.3,32.8 0.5,38.4 "/>
<linearGradient id="SVGID_7_" gradientUnits="userSpaceOnUse" x1="25.9" y1="120.21" x2="556.1801" y2="120.21" gradientTransform="matrix(1 0 0 -1 0 198.2797)">
	<stop  offset="0" style="stop-color:#E2E2E2"/>
	<stop  offset="0.51" style="stop-color:#E0E0E0"/>
	<stop  offset="0.7" style="stop-color:#D9D9D9"/>
	<stop  offset="0.83" style="stop-color:#CECECE"/>
	<stop  offset="0.94" style="stop-color:#BDBDBD"/>
	<stop  offset="1" style="stop-color:#AFAFAF"/>
</linearGradient>
<rect x="25.9" y="73.7" class="st7" width="530.3" height="8.6"/>
<linearGradient id="SVGID_8_" gradientUnits="userSpaceOnUse" x1="25.9" y1="113.73" x2="556.18" y2="113.73" gradientTransform="matrix(1 0 0 -1 0 198.2797)">
	<stop  offset="0" style="stop-color:#E2E2E2"/>
	<stop  offset="0.21" style="stop-color:#DEDEDE"/>
	<stop  offset="0.4" style="stop-color:#D3D3D3"/>
	<stop  offset="0.59" style="stop-color:#C1C1C0"/>
	<stop  offset="0.78" style="stop-color:#A7A7A6"/>
	<stop  offset="0.96" style="stop-color:#878684"/>
	<stop  offset="1" style="stop-color:#7F7E7C"/>
</linearGradient>
<polygon class="st8" points="553,86.7 29.2,86.7 25.9,82.4 556.2,82.4 "/>
<linearGradient id="SVGID_9_" gradientUnits="userSpaceOnUse" x1="25.9" y1="126.685" x2="556.18" y2="126.685" gradientTransform="matrix(1 0 0 -1 0 198.2797)">
	<stop  offset="0" style="stop-color:#E2E2E2"/>
	<stop  offset="0.44" style="stop-color:#ECECEC"/>
	<stop  offset="1" style="stop-color:#EFEFEF"/>
</linearGradient>
<polygon class="st9" points="556.2,73.7 25.9,73.7 29.2,69.4 553,69.4 "/>
<radialGradient id="SVGID_10_" cx="150.58" cy="2234.6626" r="6.5776" gradientTransform="matrix(1 0 0 -2 0 4516.4399)" gradientUnits="userSpaceOnUse">
	<stop  offset="0" style="stop-color:#E2E2E2"/>
	<stop  offset="0.13" style="stop-color:#D4D4D4"/>
	<stop  offset="0.5" style="stop-color:#B3B2B2"/>
	<stop  offset="0.8" style="stop-color:#9E9E9D"/>
	<stop  offset="1" style="stop-color:#979695"/>
</radialGradient>
<rect x="147.3" y="38.4" class="st10" width="6.6" height="17.4"/>
<radialGradient id="SVGID_11_" cx="423.62" cy="151.165" r="6.5812" gradientTransform="matrix(1 0 0 -1 0 198.2797)" gradientUnits="userSpaceOnUse">
	<stop  offset="0" style="stop-color:#E2E2E2"/>
	<stop  offset="0.13" style="stop-color:#D4D4D4"/>
	<stop  offset="0.5" style="stop-color:#B3B2B2"/>
	<stop  offset="0.8" style="stop-color:#9E9E9D"/>
	<stop  offset="1" style="stop-color:#979695"/>
</radialGradient>
<rect x="420.3" y="38.4" class="st11" width="6.6" height="17.4"/>
<line class="st12" x1="29.2" y1="30.9" x2="552.9" y2="30.9"/>
<linearGradient id="SVGID_12_" gradientUnits="userSpaceOnUse" x1="291.04" y1="170.71" x2="291.04" y2="176.27" gradientTransform="matrix(1 0 0 -1 0 198.2797)">
	<stop  offset="0" style="stop-color:#E2E2E2"/>
	<stop  offset="0.29" style="stop-color:#DEDEDE"/>
	<stop  offset="0.56" style="stop-color:#D3D3D3"/>
	<stop  offset="0.82" style="stop-color:#C1C1C1"/>
	<stop  offset="1" style="stop-color:#AFAFAF"/>
</linearGradient>
<rect x="272" y="22" class="st13" width="38.1" height="5.6"/>
<linearGradient id="SVGID_13_" gradientUnits="userSpaceOnUse" x1="291.04" y1="170.71" x2="291.04" y2="145.68" gradientTransform="matrix(1 0 0 -1 0 198.2797)">
	<stop  offset="0" style="stop-color:#E2E2E2"/>
	<stop  offset="0.66" style="stop-color:#C1C1C1"/>
	<stop  offset="1" style="stop-color:#AFAFAF"/>
</linearGradient>
<rect x="272" y="27.6" class="st14" width="38.1" height="25"/>
<linearGradient id="SVGID_14_" gradientUnits="userSpaceOnUse" x1="324.53" y1="154.67" x2="324.53" y2="145.68" gradientTransform="matrix(1 0 0 -1 0 198.2797)">
	<stop  offset="0" style="stop-color:#E2E2E2"/>
	<stop  offset="0.66" style="stop-color:#C1C1C1"/>
	<stop  offset="1" style="stop-color:#AFAFAF"/>
</linearGradient>
<rect x="323.8" y="43.6" class="st15" width="1.5" height="9"/>
<linearGradient id="SVGID_15_" gradientUnits="userSpaceOnUse" x1="291.035" y1="2.14" x2="291.035" y2="14.41" gradientTransform="matrix(1 0 0 -1 0 198.2797)">
	<stop  offset="0" style="stop-color:#E2E2E2"/>
	<stop  offset="5.000000e-02" style="stop-color:#DBDBDB"/>
	<stop  offset="0.2" style="stop-color:#C7C7C7"/>
	<stop  offset="0.38" style="stop-color:#B9B9B9"/>
	<stop  offset="0.6" style="stop-color:#B1B1B1"/>
	<stop  offset="1" style="stop-color:#AFAFAF"/>
</linearGradient>
<polygon class="st16" points="306.1,196.1 275.9,196.1 267.1,183.9 315,183.9 "/>
<linearGradient id="SVGID_16_" gradientUnits="userSpaceOnUse" x1="81.465" y1="2.14" x2="81.465" y2="14.41" gradientTransform="matrix(1 0 0 -1 0 198.2797)">
	<stop  offset="0" style="stop-color:#E2E2E2"/>
	<stop  offset="5.000000e-02" style="stop-color:#DBDBDB"/>
	<stop  offset="0.2" style="stop-color:#C7C7C7"/>
	<stop  offset="0.38" style="stop-color:#B9B9B9"/>
	<stop  offset="0.6" style="stop-color:#B1B1B1"/>
	<stop  offset="1" style="stop-color:#AFAFAF"/>
</linearGradient>
<polygon class="st17" points="96.6,196.1 66.4,196.1 57.5,183.9 105.4,183.9 "/>
<linearGradient id="SVGID_17_" gradientUnits="userSpaceOnUse" x1="500.68" y1="2.14" x2="500.68" y2="14.41" gradientTransform="matrix(1 0 0 -1 0 198.2797)">
	<stop  offset="0" style="stop-color:#E2E2E2"/>
	<stop  offset="5.000000e-02" style="stop-color:#DBDBDB"/>
	<stop  offset="0.2" style="stop-color:#C7C7C7"/>
	<stop  offset="0.38" style="stop-color:#B9B9B9"/>
	<stop  offset="0.6" style="stop-color:#B1B1B1"/>
	<stop  offset="1" style="stop-color:#AFAFAF"/>
</linearGradient>
<polygon class="st18" points="515.8,196.1 485.6,196.1 476.7,183.9 524.6,183.9 "/>
<path class="st19" d="M124.5,119c1-1.6,2.7-2.5,4.6-2.4c3.2,0,4.7,1.8,4.7,5v9.2h-3v-8c0-1.9-0.2-3.6-2.7-3.6c-1.8,0-3.4,1-3.4,4.2
	v7.4h-3V117h2.9L124.5,119z"/>
<path class="st19" d="M148.7,128.8c-0.6,0-0.7-0.2-0.7-1v-7c0-3-2.4-4.2-5.7-4.2s-5.7,1.3-6,4.7h2.9c0.2-1.8,1.1-2.5,3.1-2.5
	s2.8,0.7,2.8,2.1c0,0.3,0,0.7-0.2,1c-0.3,0.4-0.9,0.5-3,0.8c-2.8,0.3-6.2,0.7-6.2,4.4c0,2.5,1.8,4.1,4.6,4.1
	c1.8,0.1,3.5-0.5,4.8-1.7c0.2,1.1,1.2,1.8,2.3,1.7c0.7,0,1.4-0.1,2-0.3v-2.1C149.2,128.8,148.9,128.8,148.7,128.8z M144.4,127.9
	c-0.9,0.8-2,1.1-3.1,1.1c-1.6,0-2.5-0.8-2.5-2.1c0-1.8,1.6-2.1,3-2.3c1.1,0,2.2-0.3,3.2-0.8v1.6
	C145.1,126.4,144.9,127.2,144.4,127.9z"/>
<polygon class="st19" points="152.3,117 155.8,127.6 159.2,117 162.4,117 157.4,130.8 154,130.8 149,117 "/>
<rect x="164.2" y="111.7" class="st19" width="3.1" height="3"/>
<rect x="164.2" y="117" class="st19" width="3.1" height="13.8"/>
<path class="st19" d="M175.9,131.2c-4.2,0-6.8-2.9-6.8-7.1c0-4.6,2.7-7.5,6.9-7.5c3.5,0,5.8,1.9,6.1,5.1h-3
	c-0.2-1.6-1.5-2.8-3.1-2.7c-2.4,0-3.8,1.9-3.8,4.9s1.4,4.9,3.7,4.9c1.8,0,3-1.1,3.3-3.2h3C182,128.9,179.2,131.3,175.9,131.2z"/>
<path class="st19" d="M190.7,116.6c-4.3,0-7,2.9-7,7.3s2.7,7.3,7,7.3s6.9-2.8,6.9-7.3S195,116.6,190.7,116.6z M190.7,128.9
	c-2.5,0-3.9-1.8-3.9-4.9s1.5-4.9,3.9-4.9s3.9,1.8,3.9,4.9S193.1,128.9,190.7,128.9L190.7,128.9z"/>
<path class="st19" d="M202.2,119c0.9-1.5,2.6-2.4,4.3-2.3c1.6-0.1,3.2,0.8,3.9,2.3c1-1.5,2.7-2.4,4.5-2.3c2.3-0.2,4.3,1.5,4.5,3.9
	c0,0.2,0,0.4,0,0.5v9.8h-3v-8.5c0-1.7-0.4-3.1-2.5-3.1s-3,1.3-3,3.5v8.1h-3v-8.6c0-1.7-0.2-3-2.3-3s-3.2,1.5-3.2,3.7v7.9h-3V117h2.9
	L202.2,119z"/>
<path class="st19" d="M134.3,145.1c0-4.8-2.5-7.7-6.6-7.7c-3.9,0-6.7,3.1-6.7,7.5c0,4.1,2.5,7.2,6.8,7.2c3,0.2,5.6-1.9,6.3-4.8h-2.9
	c-0.3,1.5-1.7,2.6-3.3,2.5c-2.3,0-3.7-1.6-3.8-4.4h10.2L134.3,145.1z M124.1,143.4c0.3-2.4,1.6-3.8,3.6-3.8s3.3,1.4,3.5,3.8H124.1z"
	/>
<path class="st19" d="M139,139.8c1-1.6,2.7-2.5,4.6-2.4c3.2,0,4.7,1.9,4.7,5v9.2h-3v-8c0-1.9-0.2-3.6-2.7-3.6c-1.9,0-3.4,1-3.4,4.2
	v7.4h-3v-13.8h2.8V139.8z"/>
<path class="st19" d="M163.4,145.1c0-4.8-2.5-7.7-6.6-7.7c-3.9,0-6.7,3.1-6.7,7.5c0,4.1,2.5,7.2,6.8,7.2c3,0.2,5.6-1.9,6.3-4.8h-2.9
	c-0.3,1.5-1.7,2.6-3.2,2.5c-2.4,0-3.7-1.6-3.8-4.4h10.2L163.4,145.1z M153.2,143.4c0.3-2.4,1.6-3.8,3.6-3.8s3.3,1.4,3.5,3.8H153.2z"
	/>
<path class="st19" d="M173.2,140.4c-0.4,0-0.7-0.1-1.1-0.1c-3,0-4,2.3-4,5.2v6.1h-3v-13.8h2.8v2.8c0.8-1.9,2.6-3.1,4.6-3.1
	c0.2,0,0.3,0,0.6,0.1L173.2,140.4z"/>
<path class="st19" d="M184.5,137.8v1.9c-0.9-1.5-2.6-2.4-4.3-2.3c-3.7,0-6.1,2.8-6.1,7.2s2.3,6.9,6,6.9c1.8,0.1,3.5-0.8,4.4-2.3v1.6
	c0,2.8-1.1,4.1-3.6,4.1c-1.9,0-2.9-0.6-3.2-2.1h-3c0.4,2.8,2.4,4.2,6.2,4.2c5,0,6.6-2.4,6.6-7v-12.2L184.5,137.8z M180.7,149.1
	c-2.2,0-3.7-1.8-3.7-4.6s1.4-4.6,3.7-4.6s3.7,1.7,3.7,4.5S183,149.1,180.7,149.1L180.7,149.1z"/>
<path class="st19" d="M197.2,151.3c-1,2.6-1.7,5.5-5.1,5.5c-0.7,0-1.4-0.1-2.1-0.2v-2.6c0.5,0.1,1.1,0.2,1.6,0.2
	c1.6,0,2-1.9,2.4-3.1l-5.3-13.4h3.3l3.7,10.2l3.5-10.2h3.2L197.2,151.3z"/>
<path class="st19" d="M124.5,119c1-1.6,2.7-2.5,4.6-2.4c3.2,0,4.7,1.8,4.7,5v9.2h-3v-8c0-1.9-0.2-3.6-2.7-3.6c-1.8,0-3.4,1-3.4,4.2
	v7.4h-3V117h2.9L124.5,119z"/>
<path class="st19" d="M148.7,128.8c-0.6,0-0.7-0.2-0.7-1v-7c0-3-2.4-4.2-5.7-4.2s-5.7,1.3-6,4.7h2.9c0.2-1.8,1.1-2.5,3.1-2.5
	s2.8,0.7,2.8,2.1c0,0.3,0,0.7-0.2,1c-0.3,0.4-0.9,0.5-3,0.8c-2.8,0.3-6.2,0.7-6.2,4.4c0,2.5,1.8,4.1,4.6,4.1
	c1.8,0.1,3.5-0.5,4.8-1.7c0.2,1.1,1.2,1.8,2.3,1.7c0.7,0,1.4-0.1,2-0.3v-2.1C149.2,128.8,148.9,128.8,148.7,128.8z M144.4,127.9
	c-0.9,0.8-2,1.1-3.1,1.1c-1.6,0-2.5-0.8-2.5-2.1c0-1.8,1.6-2.1,3-2.3c1.1,0,2.2-0.3,3.2-0.8v1.6
	C145.1,126.4,144.9,127.2,144.4,127.9z"/>
<polygon class="st19" points="152.3,117 155.8,127.6 159.2,117 162.4,117 157.4,130.8 154,130.8 149,117 "/>
<rect x="164.2" y="111.7" class="st19" width="3.1" height="3"/>
<rect x="164.2" y="117" class="st19" width="3.1" height="13.8"/>
<path class="st19" d="M175.9,131.2c-4.2,0-6.8-2.9-6.8-7.1c0-4.6,2.7-7.5,6.9-7.5c3.5,0,5.8,1.9,6.1,5.1h-3
	c-0.2-1.6-1.5-2.8-3.1-2.7c-2.4,0-3.8,1.9-3.8,4.9s1.4,4.9,3.7,4.9c1.8,0,3-1.1,3.3-3.2h3C182,128.9,179.2,131.3,175.9,131.2z"/>
<path class="st19" d="M190.7,116.6c-4.3,0-7,2.9-7,7.3s2.7,7.3,7,7.3s6.9-2.8,6.9-7.3S195,116.6,190.7,116.6z M190.7,128.9
	c-2.5,0-3.9-1.8-3.9-4.9s1.5-4.9,3.9-4.9s3.9,1.8,3.9,4.9S193.1,128.9,190.7,128.9L190.7,128.9z"/>
<path class="st19" d="M202.2,119c0.9-1.5,2.6-2.4,4.3-2.3c1.6-0.1,3.2,0.8,3.9,2.3c1-1.5,2.7-2.4,4.5-2.3c2.3-0.2,4.3,1.5,4.5,3.9
	c0,0.2,0,0.4,0,0.5v9.8h-3v-8.5c0-1.7-0.4-3.1-2.5-3.1s-3,1.3-3,3.5v8.1h-3v-8.6c0-1.7-0.2-3-2.3-3s-3.2,1.5-3.2,3.7v7.9h-3V117h2.9
	L202.2,119z"/>
<path class="st19" d="M134.3,145.1c0-4.8-2.5-7.7-6.6-7.7c-3.9,0-6.7,3.1-6.7,7.5c0,4.1,2.5,7.2,6.8,7.2c3,0.2,5.6-1.9,6.3-4.8h-2.9
	c-0.3,1.5-1.7,2.6-3.3,2.5c-2.3,0-3.7-1.6-3.8-4.4h10.2L134.3,145.1z M124.1,143.4c0.3-2.4,1.6-3.8,3.6-3.8s3.3,1.4,3.5,3.8H124.1z"
	/>
<path class="st19" d="M139,139.8c1-1.6,2.7-2.5,4.6-2.4c3.2,0,4.7,1.9,4.7,5v9.2h-3v-8c0-1.9-0.2-3.6-2.7-3.6c-1.9,0-3.4,1-3.4,4.2
	v7.4h-3v-13.8h2.8V139.8z"/>
<path class="st19" d="M163.4,145.1c0-4.8-2.5-7.7-6.6-7.7c-3.9,0-6.7,3.1-6.7,7.5c0,4.1,2.5,7.2,6.8,7.2c3,0.2,5.6-1.9,6.3-4.8h-2.9
	c-0.3,1.5-1.7,2.6-3.2,2.5c-2.4,0-3.7-1.6-3.8-4.4h10.2L163.4,145.1z M153.2,143.4c0.3-2.4,1.6-3.8,3.6-3.8s3.3,1.4,3.5,3.8H153.2z"
	/>
<path class="st19" d="M173.2,140.4c-0.4,0-0.7-0.1-1.1-0.1c-3,0-4,2.3-4,5.2v6.1h-3v-13.8h2.8v2.8c0.8-1.9,2.6-3.1,4.6-3.1
	c0.2,0,0.3,0,0.6,0.1L173.2,140.4z"/>
<path class="st19" d="M184.5,137.8v1.9c-0.9-1.5-2.6-2.4-4.3-2.3c-3.7,0-6.1,2.8-6.1,7.2s2.3,6.9,6,6.9c1.8,0.1,3.5-0.8,4.4-2.3v1.6
	c0,2.8-1.1,4.1-3.6,4.1c-1.9,0-2.9-0.6-3.2-2.1h-3c0.4,2.8,2.4,4.2,6.2,4.2c5,0,6.6-2.4,6.6-7v-12.2L184.5,137.8z M180.7,149.1
	c-2.2,0-3.7-1.8-3.7-4.6s1.4-4.6,3.7-4.6s3.7,1.7,3.7,4.5S183,149.1,180.7,149.1L180.7,149.1z"/>
<path class="st19" d="M197.2,151.3c-1,2.6-1.7,5.5-5.1,5.5c-0.7,0-1.4-0.1-2.1-0.2v-2.6c0.5,0.1,1.1,0.2,1.6,0.2
	c1.6,0,2-1.9,2.4-3.1l-5.3-13.4h3.3l3.7,10.2l3.5-10.2h3.2L197.2,151.3z"/>
<path class="st19" d="M50.7,105.8v57.1h58.5v-57.1H50.7z M106.3,160.1H53.5v-51.5h52.9L106.3,160.1z"/>
<path class="st19" d="M88.3,124.8v2.7c0,0.4,0.3,0.7,0.7,0.7c0.1,0,0.2,0,0.3-0.1l6.9-2.6c0.3-0.1,0.5-0.4,0.5-0.7v-2.7
	c0-0.4-0.3-0.7-0.7-0.7c-0.1,0-0.2,0-0.3,0.1l-6.9,2.6C88.4,124.2,88.3,124.5,88.3,124.8z"/>
<path class="st19" d="M70.6,139.2l-6.9,2.6c-0.3,0.1-0.5,0.4-0.5,0.7v2.7c0,0.4,0.3,0.7,0.7,0.7c0.1,0,0.2,0,0.3-0.1l6.9-2.6
	c0.3-0.1,0.5-0.4,0.5-0.7v-2.7c0-0.4-0.3-0.7-0.7-0.7C70.8,139.2,70.7,139.2,70.6,139.2z"/>
<path class="st19" d="M88.6,136.7l7.6-2.8c0.3-0.1,0.5-0.4,0.5-0.7v-2.7c0-0.4-0.3-0.7-0.7-0.7c-0.1,0-0.2,0-0.3,0.1l-7.1,2.6
	c-0.2,0.1-0.4,0.1-0.6-0.1l-16.1-10.1c-0.2-0.1-0.4-0.1-0.6-0.1l-7.6,2.8c-0.3,0.1-0.5,0.4-0.5,0.7v2.7c0,0.4,0.3,0.7,0.7,0.7
	c0.1,0,0.2,0,0.3-0.1l7.1-2.7c0.2-0.1,0.4-0.1,0.6,0.1L88,136.6C88.2,136.7,88.4,136.7,88.6,136.7z"/>
<path class="st19" d="M88.6,145l7.6-2.8c0.3-0.1,0.5-0.4,0.5-0.7v-2.7c0-0.4-0.3-0.7-0.7-0.7c-0.1,0-0.2,0-0.3,0.1l-7.1,2.6
	c-0.2,0.1-0.4,0.1-0.6-0.1l-16.1-10c-0.2-0.1-0.4-0.1-0.6-0.1l-7.6,2.8c-0.3,0.1-0.5,0.4-0.5,0.7v2.7c0,0.4,0.3,0.7,0.7,0.7
	c0.1,0,0.2,0,0.3-0.1l7.1-2.6c0.2-0.1,0.4-0.1,0.6,0.1L88,145C88.2,145.1,88.4,145.1,88.6,145z"/>
<g class="st20">
	<path class="st19" d="M383.8,151.8V147c0-1-0.2-1.8-1.4-1.8c-1.3,0-1.8,1-1.8,2.2v4.4h-2.2v-8.2h2.1v1.1c0.7-0.9,1.6-1.4,2.7-1.4
		c1.7,0,2.8,1,2.8,2.9v5.5H383.8z"/>
	<path class="st19" d="M393.1,151.8c-0.1-0.3-0.1-0.4-0.2-0.8c-0.7,0.7-1.7,1-2.7,1c-1.8,0-2.9-0.9-2.9-2.5c0-2.1,2-2.4,3.6-2.6
		c1.5-0.2,2-0.3,2-1c0-0.7-0.5-1.1-1.5-1.1c-1,0-1.5,0.3-1.6,1.3h-2.1c0.1-1.8,1.4-2.8,3.8-2.8c1.7,0,3.6,0.4,3.6,2.7v3.5
		c0,0.7,0,1.5,0.3,2.2H393.1z M391.4,148.2c-0.8,0.1-1.7,0.2-1.7,1.2c0,0.7,0.5,1.1,1.2,1.1c1.2,0,2-0.7,2-1.8v-0.9
		C392.4,148.1,391.9,148.1,391.4,148.2z"/>
	<path class="st19" d="M404.2,143.6l-2.8,8.2h-2.5l-2.8-8.2h2.4l1.7,5.6l1.7-5.6H404.2z"/>
	<path class="st19" d="M407.5,142.4h-2.3v-1.9h2.3V142.4z M407.5,151.8h-2.3v-8.2h2.3V151.8z"/>
	<path class="st19" d="M413.2,152c-2.5,0-4.2-1.7-4.2-4.2c0-2.7,1.7-4.4,4.2-4.4c2.2,0,3.7,1.2,3.8,3.1h-2.2
		c-0.2-0.9-0.7-1.4-1.6-1.4c-1.2,0-2,1-2,2.7c0,1.6,0.7,2.6,1.9,2.6c1,0,1.6-0.6,1.7-1.7h2.2C416.8,150.7,415.3,152,413.2,152z"/>
	<path class="st19" d="M426.6,147.7c0,2.6-1.7,4.4-4.2,4.4s-4.2-1.7-4.2-4.4c0-2.6,1.7-4.3,4.3-4.3
		C424.9,143.3,426.6,145.1,426.6,147.7z M420.4,147.7c0,1.7,0.7,2.7,2,2.7c1.2,0,2-1,2-2.7c0-1.6-0.7-2.6-2-2.6
		C421.1,145.1,420.4,146,420.4,147.7z"/>
	<path class="st19" d="M438.4,151.8v-4.9c0-0.9-0.1-1.7-1.3-1.7c-1.2,0-1.6,0.9-1.6,2v4.6h-2.3v-5c0-0.9-0.2-1.6-1.2-1.6
		c-1.3,0-1.6,1-1.6,2.1v4.4h-2.3v-8.2h2.1v1.1c0.6-0.9,1.4-1.4,2.6-1.4c1.1,0,1.9,0.4,2.3,1.4c0.7-0.9,1.5-1.4,2.7-1.4
		c1.8,0,2.8,1.2,2.8,2.9v5.5H438.4z"/>
	<path class="st19" d="M446.3,152c-2.5,0-4.2-1.7-4.2-4.3c0-2.5,1.7-4.4,4.1-4.4c2.5,0,4,1.8,4,4.7v0.2h-5.9c0,1.4,0.7,2.2,1.9,2.2
		c0.8,0,1.3-0.4,1.7-1.2h2.2C449.7,151,448.2,152,446.3,152z M446.2,145c-1,0-1.7,0.7-1.8,1.8h3.6C447.9,145.8,447.4,145,446.2,145z
		"/>
	<path class="st19" d="M457,151.8V147c0-1-0.2-1.8-1.4-1.8c-1.4,0-1.8,1-1.8,2.2v4.4h-2.2v-8.2h2.1v1.1c0.7-0.9,1.6-1.4,2.7-1.4
		c1.7,0,2.8,1,2.8,2.9v5.5H457z"/>
	<path class="st19" d="M464.9,152c-2.5,0-4.2-1.7-4.2-4.3c0-2.5,1.7-4.4,4.1-4.4c2.5,0,4.1,1.8,4.1,4.7v0.2H463
		c0,1.4,0.7,2.2,1.9,2.2c0.8,0,1.3-0.4,1.7-1.2h2.2C468.2,151,466.7,152,464.9,152z M464.8,145c-1,0-1.7,0.7-1.8,1.8h3.6
		C466.4,145.8,465.9,145,464.8,145z"/>
	<path class="st19" d="M475.4,145.5c-0.4-0.1-0.6-0.1-0.9-0.1c-1.6,0-2.2,1.1-2.2,2.6v3.7h-2.3v-8.2h2.1v1.5
		c0.5-1.1,1.4-1.7,2.7-1.7c0.2,0,0.3,0,0.5,0V145.5z"/>
	<path class="st19" d="M484.2,150.9c0,2.7-1.4,3.9-4,3.9c-2.4,0-3.6-0.8-3.8-2.6h2.2c0.2,0.7,0.7,1,1.7,1c1.5,0,1.8-0.8,1.8-2.1
		l0-0.9c-0.6,0.9-1.4,1.3-2.5,1.3c-2.1,0-3.5-1.6-3.5-4c0-2.5,1.4-4.1,3.6-4.1c1.1,0,1.8,0.4,2.4,1.3v-1.1h2.1V150.9z M478.2,147.5
		c0,1.4,0.7,2.4,1.9,2.4c1.2,0,1.9-0.9,1.9-2.4c0-1.5-0.7-2.3-1.9-2.3S478.2,146,478.2,147.5z"/>
</g>
<g class="st20">
	<path class="st19" d="M490.4,151.7c-0.7,1.8-1,3-3.1,3c-0.7,0-0.4,0-1.5,0v-1.9h1.1c0.7,0,1.1-0.4,1.1-1.1c0-0.1,0-0.2-0.1-0.3
		l-3-7.8h2.4l1.9,5.6l1.8-5.6h2.3L490.4,151.7z"/>
</g>
<g class="st20">
	<path class="st19" d="M496,151.8h-2.5v-2.5h2.5V151.8z"/>
	<path class="st19" d="M501.7,152c-2.5,0-4.2-1.7-4.2-4.2c0-2.7,1.7-4.4,4.2-4.4c2.2,0,3.7,1.2,3.8,3.1h-2.2
		c-0.2-0.9-0.7-1.4-1.6-1.4c-1.2,0-2,1-2,2.7c0,1.6,0.7,2.6,1.9,2.6c1,0,1.6-0.6,1.7-1.7h2.2C505.3,150.7,503.9,152,501.7,152z"/>
	<path class="st19" d="M515.1,147.7c0,2.6-1.7,4.4-4.2,4.4s-4.2-1.7-4.2-4.4c0-2.6,1.7-4.3,4.3-4.3
		C513.5,143.3,515.1,145.1,515.1,147.7z M508.9,147.7c0,1.7,0.7,2.7,2,2.7c1.2,0,2-1,2-2.7c0-1.6-0.7-2.6-2-2.6
		C509.7,145.1,508.9,146,508.9,147.7z"/>
	<path class="st19" d="M527,151.8v-4.9c0-0.9-0.1-1.7-1.3-1.7c-1.2,0-1.6,0.9-1.6,2v4.6h-2.3v-5c0-0.9-0.2-1.6-1.2-1.6
		c-1.3,0-1.6,1-1.6,2.1v4.4h-2.3v-8.2h2.1v1.1c0.6-0.9,1.4-1.4,2.6-1.4c1.1,0,1.9,0.4,2.3,1.4c0.7-0.9,1.5-1.4,2.7-1.4
		c1.8,0,2.8,1.2,2.8,2.9v5.5H527z"/>
</g>
<path class="st21" d="M527.1,57.9c-0.1-0.2-0.2-0.4-0.3-0.6c-0.4-1.4-0.8-2.8-1.2-4.3c-0.2-0.7-0.4-1.4-0.7-2.1
	c-0.2-0.3-0.1-0.8,0.2-1c0.6-0.5,1.2-1,1.8-1.5c0.1-0.2,0.2-0.3,0.3-0.5c-0.2-0.1-0.4-0.3-0.6-0.3c-0.7,0-1.3,0-2,0
	c-0.3,0.1-0.6,0.2-0.8,0.4c-0.5,0.4-0.9,0.8-1.3,1.3l-0.1-0.1c0.2-0.7,0.4-1.5,0.5-2.2c0.1-0.5,0.2-1,0.3-1.4s-0.2-0.7-0.6-0.7h-0.3
	c-1.8,0-1.9,0.2-2.2,1.9c-0.2,0.8-0.4,1.6-0.5,2.5c0,0.1-0.1,0.1-0.1,0.2c-0.3-0.4-0.5-0.9-0.9-1.3c-0.8-0.8-1.9-0.7-2.8-0.7
	s-0.9,0.1-0.5-0.7v-0.1c0.5-1.5,0.3-1.8-1.2-1.8h-5.7c-0.7,0-0.8-0.1-0.6-0.8c0.1-0.5,0.3-0.9,0.3-1.4c0.1-0.6,0.4-0.7,1-0.7
	c7.1,0,14.1,0,21.2,0h0.6c0.3,0,0.4,0.2,0.3,0.5c-0.4,1.7-0.8,3.5-1.2,5.2s-0.8,3.2-1.3,4.9s-0.7,3.1-1.1,4.7c0,0.2-0.1,0.4-0.1,0.6
	L527.1,57.9z"/>
<path class="st21" d="M497.2,48.5l-0.2,0.1c0,0.9-0.6,1-1.4,1s-1.1,0.6-1.3,1.2c-0.4,1-0.6,2.1-0.9,3.1c-0.1,0.4-0.3,0.6-0.8,0.6
	s-0.7,0-1,0c-0.6,0-0.7-0.2-0.5-0.7s0.3-0.8,0.4-1.3c0-0.2-0.1-0.3-0.1-0.5c-0.2,0.1-0.3,0.2-0.4,0.3c-0.7,1.3-2,2.1-3.4,2.2
	c-1.2,0.1-2.4,0.1-3.6,0.2c-0.2,0-0.4,0-0.6-0.1c0.1-0.2,0.3-0.4,0.5-0.6c0.6-0.4,1.2-0.9,1.9-1.3c0.2-0.1,0.5-0.2,0.8-0.2
	c1.1,0.2,2.1-0.5,2.4-1.5c0.3-0.8,0.5-1.7,0.6-2.6c0-0.8-0.6-1.4-1.4-1.4c-0.3,0-0.5,0.1-0.7,0.2c-0.2,0.2-0.3,0.4-0.3,0.6
	c-0.3,1-0.5,2-0.7,3c0,0.5-0.4,0.8-0.9,0.8c-0.1,0-0.1,0-0.2,0c-0.3,0-0.7,0-1,0c-0.5,0-0.7-0.2-0.5-0.7c0.3-1,0.5-2.1,0.8-3.1
	c0.2-0.7,0.3-1.4,0.5-2c0.1-0.5,0.5-0.8,1-0.8c0,0,0,0,0,0c1.4,0.1,2.7,0,4.1,0.1c1,0.1,1.9,0.9,2,1.9c0.1,0.6,0.3,0.8,1,0.7
	s1.4-0.3,1.9,0.3c0.1,0.1,0.3,0,0.5-0.1c0.5-0.5,1.2-0.5,1.7-0.2c0.2,0.1,0.4,0.1,0.6,0l1.5-0.1c0.5,0,0.6,0.2,0.5,0.7
	c-0.2,1-0.5,2-0.7,3.1c-0.2,0.8-0.4,1.5-0.5,2.3c-0.1,0.5-0.5,0.8-1,0.8c0,0,0,0,0,0c-1.5,0-1.5,0-1.2-1.5s0.6-2.6,0.9-3.9
	C497.2,49,497.2,48.8,497.2,48.5z"/>
<path class="st21" d="M511.2,52c0,0.1,0,0.3,0,0.4c0,1.4,1.1,2.6,2.5,2.7c1.5,0.3,3.1-0.2,4.2-1.4c0.2-0.2,0.3-0.5,0.3-0.7
	c0-0.2-0.4-0.4-0.6-0.4c-0.7-0.3-1.5-0.2-2.1,0.3c-0.3,0.3-0.9,0.3-1.2,0c-0.1-0.1-0.2-0.3-0.2-0.5c0-0.1,0.2-0.2,0.3-0.2
	c1.2,0,2.5,0,3.7,0c0.3,0,0.5,0.2,0.4,0.5s-0.2,1-0.3,1.4s0,0.7,0.5,0.8s0.8,0,1.2,0c0.9,0,1.1-0.2,1.2-1c0.1-0.6,0.5-1.2,1.1-1.5
	c0.2,0.9,0.4,1.7,0.6,2.5c0.3,1.2,0.5,2.3,0.8,3.5c0,0.2,0.1,0.3,0.1,0.5c0.1,0.3-0.1,0.5-0.4,0.5h-18.9c-0.6,0-0.6-0.1-0.5-0.7
	c0.2-1,0.4-1.9,0.7-2.9s0.6-2,0.9-3v-0.1c0.2-1,0.4-2,0.6-3c0.1-0.6,0.3-1.2,0.5-1.7c0-0.1,0.1-0.2,0.2-0.2c0.6,0,1.2,0,1.7,0
	c0.1,0,0.2,0.4,0.2,0.5c-0.2,1-0.5,2-0.7,3s-0.5,1.8-0.7,2.7c-0.1,0.6,0.1,0.9,0.7,0.9h1.6c0.4,0,0.8-0.3,0.8-0.7c0,0,0,0,0,0
	c0.2-0.7,0.4-1.5,0.5-2.2L511.2,52z M511.4,56.7h0.2l0.2,0.7c0.1,0.5,0.6,0.8,1.1,0.7c0.2,0,0.3-0.1,0.5-0.3
	c0.1-0.1,0.2-0.2,0.3-0.3c0.6-0.6,0.6-0.6,1,0.2c0.1,0.4,0.5,0.6,0.9,0.5c0.1,0,0.3-0.1,0.3-0.2c0.2-0.2,0.4-0.4,0.6-0.7
	s0.3-0.3,0.5-0.5c0,0.1,0,0.2,0,0.4c-0.1,0.8,0.1,1,0.9,1c0.9,0.2,1.7,0,2.5-0.5c0.3-0.2,0.6-0.6,0.7-1c0-0.5-0.5-0.8-0.9-0.8
	c-0.8,0-1.6,0-2.5,0c-0.4-0.1-0.8-0.1-1.2,0c-0.4,0.2-0.7,0.5-1,0.9c-0.1-0.7-0.5-1-1.1-0.9c-0.5,0.1-0.9,0.4-1.3,0.6
	c-0.3-0.3-0.6-0.5-1-0.6c-0.5,0-0.9,0-1.4,0c-0.5-0.1-0.9,0.1-1.2,0.5c-0.2,0.3-0.5,0.3-0.7,0c-0.3-0.6-0.8-0.5-1.3-0.5
	s-0.6,0.5-0.7,0.8c0,0.1-0.1,0.2-0.1,0.3c-0.1,0.3-0.3,0.8,0.1,1s0.7-0.1,0.9-0.4c0,0,0.1,0,0.1,0c0.1,0,0.1,0.1,0.2,0.1
	c0.7,0.6,0.6,0.6,1.5,0.1c0.2,0,0.3,0,0.5,0.1c0.5,0.4,0.8,0.3,1.1-0.3C511.2,57.2,511.3,56.9,511.4,56.7L511.4,56.7z"/>
<path class="st21" d="M503.3,54.6c-1.2,0-1.2-0.1-1-1.2c0.6-2.5,1.2-5.1,1.9-7.6c0-0.3,0.3-0.6,0.7-0.6c0.4,0,0.8,0,1.2,0
	c0.3,0,0.5,0.2,0.6,0.4c0,0.1,0,0.2,0,0.3c-0.3,1.1-0.6,2.3-0.9,3.4c0,0.1,0,0.2-0.1,0.2c-0.2,1-0.4,2-0.6,3
	c-0.1,0.6-0.3,1.2-0.5,1.8c-0.1,0.2-0.2,0.3-0.4,0.3C503.8,54.6,503.5,54.6,503.3,54.6z"/>
<path class="st21" d="M500.2,54.6h-0.5c-0.5,0-0.7-0.2-0.5-0.7c0.7-2.7,1.3-5.4,2-8.1c0.1-0.5,0.4-0.7,0.9-0.7c0.3,0,0.5,0,0.8,0
	c0.6,0,0.8,0.2,0.6,0.8l-1.8,7.2c0,0.1-0.1,0.3-0.1,0.4C501.4,54.6,501.4,54.6,500.2,54.6z"/>
<path class="st21" d="M498.8,47.2c-1.2,0.1-1.3,0-0.9-1.3c0.1-0.5,0.5-0.8,1-0.7c0,0,0,0,0,0c0.3,0,0.6,0,0.9,0s0.5,0.1,0.4,0.2
	c0,0.5-0.1,1.1-0.3,1.6c0,0.2-0.4,0.2-0.7,0.3C499.2,47.2,499,47.2,498.8,47.2z"/>
<path class="st21" d="M513.9,47.7l-2.4,2.7c0.1-0.4,0.2-0.8,0.3-1.2c0-0.2,0.1-0.3,0.2-0.5c0.1-0.3,0.1-0.8,0.3-0.9
	C512.8,47.7,513.4,47.7,513.9,47.7z"/>
<path class="st21" d="M514.5,50.2c0.3-0.3,0.6-0.6,1-0.8c0.3-0.2,0.8-0.1,1,0.2c0,0,0,0,0,0.1c0.3,0.4,0.1,0.8-0.4,0.8s-1,0-1.5,0
	L514.5,50.2z"/>
<path class="st21" d="M519,56.4l-0.6,0.6c0.2,0.1,0.3,0.2,0.5,0.3c0.3,0,0.7,0,0.7-0.4C519.7,56.8,519.3,56.6,519,56.4z"/>
<path class="st21" d="M519,56.4c0.3,0.2,0.7,0.3,0.7,0.5c0,0.4-0.4,0.5-0.7,0.4c-0.2-0.1-0.4-0.2-0.5-0.3L519,56.4z"/>
</svg>
