<svg xmlns="http://www.w3.org/2000/svg" viewBox="0 0 285.39 260.61"><defs><style>.cls-1{fill:#5b5e5d;}.cls-2{fill:#f2f1f1;}.cls-3{fill:#333;}.cls-4{fill:#e30d1b;}.cls-5{fill:#fff;}.cls-6{fill:#fac700;}.cls-7{fill:#272a27;}.cls-8{fill:#b7b3b3;}.cls-10,.cls-9{fill:none;stroke-miterlimit:22.93;}.cls-9{stroke:#0a0c06;stroke-width:0.22px;}.cls-10{stroke:#b86f2c;stroke-width:0.03px;}</style></defs><title>car6</title><g id="Слой_2" data-name="Слой 2"><g id="Слой_1-2" data-name="Слой 1"><path class="cls-1" d="M285.42,72.41c-.28,6.4-2.49,9.71-6,10.92A54.63,54.63,0,0,1,268,85.07h0c-.42.06-.82.1-1.2.14h-.13c-4.85.21-10.23-5.13-10.23-9.78V66.76c0-6.07,1.45-9.57,4.87-10.13a44.1,44.1,0,0,1,14.41,0C283.58,58.65,285.35,64.94,285.42,72.41ZM279,82c4-1.39,4.86-5.85,5-9.59-.07-6.63-1.39-12.5-8.54-14.37a42.87,42.87,0,0,0-13.89,0c-3.53.57-3.68,6.05-3.69,8.73v8.77c.07,3.86,4.73,8.33,8.61,8.28h.15l1.17-.14H268A52.53,52.53,0,0,0,279,82Z" transform="translate(-0.14 -0.14)"/><path class="cls-2" d="M284,72.39c-.17,3.74-1,8.2-5,9.59a52.53,52.53,0,0,1-11,1.67h-.15l-1.17.14h-.15c-3.88,0-8.54-4.42-8.61-8.28V66.76c0-2.68.16-8.16,3.69-8.73a42.87,42.87,0,0,1,13.89,0C282.61,59.89,283.93,65.76,284,72.39Z" transform="translate(-0.14 -0.14)"/><path class="cls-3" d="M265.17,101.37c7.48,27.61,9.84,65.74,5.33,79.42q-.33.88-.69,1.71c-.12.31-.25.6-.39.89-.31.67-.64,1.31-1,1.91-.18.31-.35.6-.54.89a.75.75,0,0,1-.1.17q-.24.39-.51.75A11.22,11.22,0,0,1,265.6,185l-.05-.09a2.66,2.66,0,0,1-.49-1.72c6.3-27.56,5.77-54.8.09-81.81Z" transform="translate(-0.14 -0.14)"/><path class="cls-1" d="M269.91,182.29v68.33a10.05,10.05,0,0,1-10,10H243.13a10.05,10.05,0,0,1-10-10V197.43l1.61-.1c1.37,0,2.69-.1,4-.16s2.3-.12,3.39-.19l2-.15c.56,0,1.12-.09,1.66-.15,1.64-.16,3.17-.35,4.62-.59q.65-.09,1.26-.21a1.7,1.7,0,0,0,.31-.06c.39-.07.77-.14,1.15-.23l1-.23.58-.14c.37-.09.73-.19,1.09-.3l.79-.24.95-.32.67-.25c.32-.12.62-.24.93-.38l.56-.25.5-.24a17.18,17.18,0,0,0,1.79-1c.25-.15.5-.32.74-.49l.11-.07c.28-.2.56-.4.82-.62s.48-.38.71-.6a17.57,17.57,0,0,0,2.25-2.38q.33-.4.63-.84l0,0c.2-.27.39-.56.57-.85a.75.75,0,0,0,.1-.17c.19-.29.37-.59.54-.89.34-.61.67-1.24,1-1.91.14-.29.27-.58.39-.89A2,2,0,0,0,269.91,182.29Z" transform="translate(-0.14 -0.14)"/><path class="cls-3" d="M267.29,187.11a.37.37,0,0,1-.06.1l0,0q-.3.43-.63.84a17.57,17.57,0,0,1-2.25,2.38c-.23.21-.47.41-.71.6s-.54.42-.82.62l-.11.07c-.24.17-.49.33-.74.49a17.18,17.18,0,0,1-1.79,1l-.5.24-.56.25c-.31.14-.61.26-.93.38l-.67.25-.95.32-.79.24c-.36.11-.72.21-1.09.3l-.58.14-1,.23-1.15.23a1.7,1.7,0,0,1-.31.06q-.62.12-1.26.21c-1.45.24-3,.43-4.62.59l-1.66.15-2,.15c-1.09.07-2.22.14-3.39.19s-2.59.12-4,.16l-5.35.3c-.38,0-.77.05-1.15.06l-3.26.17-1.25.07-2.31.11c-2.93.15-5.75.28-8.55.38l-4.95.19h-.49l-1.47,0c-5.94.19-12.08.32-19.22.4l-1.68,0-2.28,0-3.08,0c-9.81.08-21.57.09-36.83.08s-27,0-36.84-.08l-3.18,0-2.27,0-1.69,0c-7.13-.08-13.28-.21-19.22-.4l-1.11,0-1.17,0-4.54-.17c-2.58-.1-5.18-.21-7.86-.34l-2.06-.1-2.28-.12-2.34-.12L57,197.67l-5.35-.3-.69,0-1.75-.06-1.5-.07q-3.15-.14-5.92-.36l-1.37-.12-1.22-.12-.18,0-1.19-.14-1.24-.16c-1.73-.24-3.34-.52-4.82-.88l-.74-.18c-.74-.18-1.44-.39-2.11-.61-.35-.11-.69-.23-1-.36s-.84-.31-1.23-.49-.5-.21-.74-.33c-.41-.19-.81-.39-1.2-.61s-.63-.35-.93-.54-.6-.39-.88-.59-.57-.41-.84-.63-.46-.37-.68-.57a15.72,15.72,0,0,1-1.43-1.4c-.14-.15-.28-.31-.41-.47a2.32,2.32,0,0,1-.21-.25l-.38-.48c-.2-.25-.39-.51-.58-.78A11.22,11.22,0,0,0,20.07,185c.05-.09.1-.19.16-.28,4-5.77,40.27-7.47,78.27-7.45,4,1.83,7.86,4.46,12.23,4.69.23,0,.45,0,.67,0h62.83c.3,0,.59,0,.88,0,4.28-.3,8-2.88,12-4.68h.08c38.19,0,75,1.74,78.34,7.64l.05.09A11.22,11.22,0,0,0,267.29,187.11Z" transform="translate(-0.14 -0.14)"/><path class="cls-1" d="M266.7,85.22h.06a23.34,23.34,0,0,0-6.49,1.58c-.2-.47-.4-.94-.61-1.39C262.74,85.28,264.39,85.43,266.7,85.22Z" transform="translate(-0.14 -0.14)"/><path class="cls-1" d="M256.47,75.44c0,4.65,5.38,10,10.23,9.78-2.31.21-4,.06-7,.19-.12-.29-.25-.57-.38-.85,0,0,0,0,0,0l0-.1c-.42-1-.86-2-1.31-2.83-.11-.22-.23-.44-.35-.65-.24-.43-.48-.82-.73-1.2l-.21-.31-.16-.24Z" transform="translate(-0.14 -0.14)"/><path class="cls-3" d="M264.45,107.7c-.09-.74-.18-1.47-.28-2.18,0-.27-.07-.54-.11-.8-.06-.49-.13-1-.21-1.45,0-.18-.05-.36-.08-.53q-.45-3-1-5.7-.17-.82-.33-1.62c-.11-.5-.22-1-.33-1.46-.07-.32-.14-.63-.22-.94s-.09-.38-.14-.57v0h0a3.59,3.59,0,0,0-.12-.47,59.4,59.4,0,0,0-2-6.53h.05c.21.45.41.92.61,1.39a115.92,115.92,0,0,1,4.9,14.57h0c5.68,27,6.21,54.25-.09,81.81a2.66,2.66,0,0,0,.49,1.72c-3.33-5.9-40.15-7.64-78.34-7.64.17-.08.34-.16.51-.26a16.31,16.31,0,0,1,6-1.49c9.73-.25,58.06-.56,61.53-.75,6.07-.41,11.82-18.24,11.4-24.64q0-3.78-.06-7.37c0-1.73-.06-3.42-.11-5.08,0-1.17-.06-2.31-.09-3.44,0-.34,0-.68,0-1,0-1.14-.08-2.27-.13-3.39s-.1-2.06-.15-3.06c0-.62-.06-1.23-.1-1.84s-.07-1.21-.11-1.81c0-.17,0-.34,0-.52,0-.34,0-.68-.07-1s0-.44,0-.66q-.11-1.42-.21-2.79c-.09-1.2-.19-2.38-.3-3.53,0-.45-.08-.9-.13-1.34-.06-.74-.14-1.46-.22-2.18,0-.4-.08-.79-.13-1.18s-.08-.78-.13-1.17S264.5,108,264.45,107.7Z" transform="translate(-0.14 -0.14)"/><path class="cls-3" d="M266.63,150.13c.42,6.4-5.33,24.23-11.4,24.64-3.47.19-51.8.5-61.53.75a16.31,16.31,0,0,0-6,1.49,5.62,5.62,0,0,0,.63-.41,5.7,5.7,0,0,0,1.65-2c2.37-5.89,3.4-13.09,4.48-20.22a3,3,0,0,0-.65-2.29,4.6,4.6,0,0,0-3.54-1.18H95.41c-1.75,0-3.07.45-3.73,1.43a3.18,3.18,0,0,0-.45,2c1.07,7.13,2.1,14.33,4.47,20.22a6.22,6.22,0,0,0,1,1.34,5.75,5.75,0,0,0,1.82,1.29,17,17,0,0,0-6.54-1.74c-9.73-.25-58-.56-61.47-.75-6.07-.41-11.82-18.24-11.4-24.64.1-1.4.49-2.26,1.24-2.26H265.39C266.14,147.87,266.53,148.73,266.63,150.13Z" transform="translate(-0.14 -0.14)"/><path class="cls-4" d="M264.58,108.73c.05.39.09.78.13,1.17s.09.78.13,1.18c.08.72.16,1.44.22,2.18.05.44.09.89.13,1.34.11,1.15.21,2.33.3,3.53q.1,1.36.21,2.79c0,.22,0,.44,0,.66s.05.68.07,1c0,.18,0,.35,0,.52,0,.6.07,1.2.11,1.81s.07,1.22.1,1.84c.05,1,.1,2,.15,3.06s.09,2.25.13,3.39l0,1c0,1.13.07,2.28.1,3.44.05,1.66.08,3.35.11,5.08l-24.57,0V88.08h11.08c4.35,0,7.12,1.36,8.55,3.86a3.59,3.59,0,0,1,.12.47A4.47,4.47,0,0,0,258.61,91h-10a4.84,4.84,0,0,0-3.86,2.25,9.43,9.43,0,0,0-1.6,5.4c0,4.21,2.46,7.65,5.46,7.65h10c2.18,0,4.07-1.82,4.94-4.42h.08c.05.29.09.57.14.87s.05.35.08.53l.21,1.45c0,.26.08.53.11.8.1.72.19,1.44.28,2.18C264.5,108,264.54,108.38,264.58,108.73Zm-.52,6.52a5.46,5.46,0,0,0-5.45-5.45h-10a5.45,5.45,0,1,0,0,10.9h10a5.46,5.46,0,0,0,5.45-5.45Zm0,12.56c0-2.42-2.45-4.4-5.45-4.4h-10a6.24,6.24,0,0,0-3.86,1.29,4,4,0,0,0-1.6,3.11c0,2.41,2.46,4.39,5.46,4.39h10a6.13,6.13,0,0,0,3.85-1.29A4,4,0,0,0,264.06,127.81Zm0,10.65c0-1.94-2.45-3.53-5.45-3.53h-10a7.24,7.24,0,0,0-3.86,1,3.09,3.09,0,0,0-1.6,2.49c0,1.94,2.46,3.53,5.46,3.53h10a7.18,7.18,0,0,0,3.85-1A3.07,3.07,0,0,0,264.06,138.46Z" transform="translate(-0.14 -0.14)"/><path class="cls-3" d="M266.57,142.76q0,3.59.06,7.37c-.1-1.4-.49-2.26-1.24-2.26H242v-5.09Z" transform="translate(-0.14 -0.14)"/><path class="cls-3" d="M266.37,134.24c0,1.13.07,2.27.09,3.44,0-1.16-.06-2.31-.1-3.44Z" transform="translate(-0.14 -0.14)"/><path class="cls-3" d="M266.33,133.22c0,.34,0,.68,0,1h0Z" transform="translate(-0.14 -0.14)"/><path class="cls-5" d="M266.2,129.83c0-1-.1-2-.15-3.06C266.1,127.77,266.15,128.8,266.2,129.83Z" transform="translate(-0.14 -0.14)"/><path class="cls-5" d="M265.95,124.93c0-.61-.07-1.21-.11-1.81C265.88,123.72,265.92,124.32,265.95,124.93Z" transform="translate(-0.14 -0.14)"/><path class="cls-5" d="M265.49,118.13q.1,1.36.21,2.79Q265.59,119.49,265.49,118.13Z" transform="translate(-0.14 -0.14)"/><path class="cls-5" d="M265.19,114.6c0-.45-.08-.9-.13-1.34C265.11,113.7,265.15,114.15,265.19,114.6Z" transform="translate(-0.14 -0.14)"/><path class="cls-5" d="M264.84,111.08c0-.4-.08-.79-.13-1.18C264.76,110.29,264.8,110.68,264.84,111.08Z" transform="translate(-0.14 -0.14)"/><path class="cls-4" d="M264.17,105.52c.1.71.19,1.44.28,2.18C264.36,107,264.27,106.24,264.17,105.52Z" transform="translate(-0.14 -0.14)"/><path class="cls-4" d="M264.06,104.72l-.21-1.45C263.93,103.74,264,104.23,264.06,104.72Z" transform="translate(-0.14 -0.14)"/><path class="cls-4" d="M263.77,102.74c0-.3-.09-.58-.14-.87-.26-1.69-.55-3.3-.85-4.83Q263.32,99.72,263.77,102.74Z" transform="translate(-0.14 -0.14)"/><path class="cls-4" d="M263.63,101.87h-.08c-.87,2.6-2.76,4.42-4.94,4.42h-10c-3,0-5.46-3.44-5.46-7.65a9.43,9.43,0,0,1,1.6-5.4A4.84,4.84,0,0,1,248.63,91h10a4.47,4.47,0,0,1,3.14,1.41.06.06,0,0,1,0,0c.05.19.1.38.14.57s.15.62.22.94c.11.47.22,1,.33,1.46s.22,1.07.33,1.62C263.08,98.57,263.37,100.18,263.63,101.87Z" transform="translate(-0.14 -0.14)"/><path class="cls-4" d="M258.61,109.8a5.45,5.45,0,0,1,0,10.9h-10a5.45,5.45,0,1,1,0-10.9Z" transform="translate(-0.14 -0.14)"/><path class="cls-6" d="M258.61,123.41c3,0,5.45,2,5.45,4.4a4,4,0,0,1-1.6,3.1,6.13,6.13,0,0,1-3.85,1.29h-10c-3,0-5.46-2-5.46-4.39a4,4,0,0,1,1.6-3.11,6.24,6.24,0,0,1,3.86-1.29Z" transform="translate(-0.14 -0.14)"/><path class="cls-2" d="M258.61,134.93c3,0,5.45,1.59,5.45,3.53a3.07,3.07,0,0,1-1.6,2.49,7.18,7.18,0,0,1-3.85,1h-10c-3,0-5.46-1.59-5.46-3.53a3.09,3.09,0,0,1,1.6-2.49,7.24,7.24,0,0,1,3.86-1Z" transform="translate(-0.14 -0.14)"/><path class="cls-4" d="M262.45,95.42q.17.8.33,1.62Q262.61,96.21,262.45,95.42Z" transform="translate(-0.14 -0.14)"/><path class="cls-5" d="M262.12,94c-.07-.32-.14-.63-.22-.94C262,93.33,262,93.64,262.12,94Z" transform="translate(-0.14 -0.14)"/><path class="cls-4" d="M261.76,92.42v0a.06.06,0,0,0,0,0Z" transform="translate(-0.14 -0.14)"/><path class="cls-1" d="M259.66,193.48l.5-.24Z" transform="translate(-0.14 -0.14)"/><path class="cls-3" d="M259.61,85.41a59.4,59.4,0,0,1,2,6.53c-1.43-2.5-4.2-3.87-8.55-3.86H242V74.51h9.43A14.8,14.8,0,0,1,256.31,79l.05.07a51.62,51.62,0,0,1,2.87,5.38l0,.1s0,0,0,0Z" transform="translate(-0.14 -0.14)"/><path class="cls-5" d="M259.28,84.56c.13.28.26.56.38.85h-.05Z" transform="translate(-0.14 -0.14)"/><path class="cls-1" d="M257.5,194.36l.67-.25Z" transform="translate(-0.14 -0.14)"/><path class="cls-1" d="M257.92,81.61l-.35-.65C257.69,81.17,257.81,81.39,257.92,81.61Z" transform="translate(-0.14 -0.14)"/><path class="cls-1" d="M256.84,79.76l-.21-.31Z" transform="translate(-0.14 -0.14)"/><path class="cls-1" d="M254.09,195.36l.58-.14Z" transform="translate(-0.14 -0.14)"/><path class="cls-3" d="M256.31,79a14.8,14.8,0,0,0-4.88-4.48h0l-.38-.21c-.24-.14-.49-.26-.74-.38-.4-.19-.83-.38-1.26-.55l-1-.35-.21-.07L247,72.7l-.44-.11c-.37-.09-.74-.17-1.13-.24l-.84-.14c-.53-.08-1.08-.15-1.64-.2l-.94-.07h-.21l-.46,0-1,0H238.9c-2.07-6-4.4-12.3-7-18.58l-.11-.27q-.91-2.2-1.88-4.39c-.18-.43-.37-.86-.57-1.28q-.42-1-.87-1.92c-1.51-3.31-3.11-6.56-4.8-9.72-.72-1.35-1.45-2.69-2.21-4q-.57-1-1.17-2c-.39-.66-.78-1.31-1.19-1.95s-.62-1-.94-1.47c-.4-.64-.81-1.26-1.23-1.87l-.64-.93c-.3-.44-.6-.87-.91-1.29-.41-.59-.84-1.16-1.27-1.73l0,0-.16-.23-.16-.23c-2.67-3.92-6-5.67-10.66-6.21l-.31,0V2.38l1.56.16c7.64.87,14.08,4.19,18.78,11.1,9.7,12.84,19.07,32.37,28.09,59.24A24.23,24.23,0,0,1,256.31,79Z" transform="translate(-0.14 -0.14)"/><path class="cls-1" d="M251.46,74.51h0a3.24,3.24,0,0,0-.35-.21Z" transform="translate(-0.14 -0.14)"/><path class="cls-1" d="M251.08,74.3a3.24,3.24,0,0,1,.35.21H242V71.95c.32,0,.63,0,.94.06.56.05,1.11.12,1.64.2a7.36,7.36,0,0,1,.84.14c.39.07.76.15,1.13.24l.44.11c.3.07.59.16.87.25l.21.07c.35.1.68.22,1,.35s.86.36,1.26.55S250.84,74.17,251.08,74.3Z" transform="translate(-0.14 -0.14)"/><path class="cls-1" d="M251.08,74.3c-.24-.13-.48-.26-.74-.38C250.59,74,250.84,74.16,251.08,74.3Z" transform="translate(-0.14 -0.14)"/><path class="cls-1" d="M249.08,73.37c-.33-.13-.66-.25-1-.35Z" transform="translate(-0.14 -0.14)"/><path class="cls-1" d="M247.86,72.95c-.28-.09-.57-.18-.87-.25Z" transform="translate(-0.14 -0.14)"/><path class="cls-5" d="M247,72.7l-.44-.11Z" transform="translate(-0.14 -0.14)"/><path class="cls-1" d="M245.42,72.35a7.36,7.36,0,0,0-.84-.14Z" transform="translate(-0.14 -0.14)"/><path class="cls-1" d="M242.94,72c-.31,0-.62,0-.94-.06h0Z" transform="translate(-0.14 -0.14)"/><path class="cls-3" d="M74.65,89.92h.13v1a235.13,235.13,0,0,0,50,9.73c.74,4.17,3.61,8.23,8.24,8.62a109.41,109.41,0,0,0,19.66,0c4.64-.39,7.52-4.46,8.26-8.63a234.62,234.62,0,0,0,50-9.72v-1H211V88.69a620.62,620.62,0,0,0-136.38,0ZM242,88.08v59.79H43.69V74.51H242ZM163.16,84c3.73,0,1.83-5.71-1.89-5.71H124.42c-3.73,0-5.62,5.71-1.89,5.71h40.63Z" transform="translate(-0.14 -0.14)"/><path class="cls-1" d="M242,71.95v2.56H43.69V71.95c.11,0,.22,0,.33,0h.1c.38,0,.76,0,1.16,0h195l1,0,.46,0Z" transform="translate(-0.14 -0.14)"/><path class="cls-1" d="M242,71.94h0l-.21,0Z" transform="translate(-0.14 -0.14)"/><path class="cls-1" d="M241.33,71.91l-1,0Z" transform="translate(-0.14 -0.14)"/><path class="cls-3" d="M238.9,71.89H46.79c2.08-6,4.42-12.33,7-18.61-1.15,2.92,0,4.65,4.55,4.64H227.32c4.49,0,5.68-1.7,4.57-4.6C234.5,59.59,236.83,65.89,238.9,71.89Z" transform="translate(-0.14 -0.14)"/><path class="cls-7" d="M233.11,197.43v22.14c-17.79,0-17.13-8.06-26.16-6.73-3.26,1.29-2.24,4-9.79,3.88-4.49-.2-7.64-1.93-13.46-.6-12.87,2.9-26.86,3.68-40.85,3.68s-28-.78-40.86-3.68c-5.82-1.33-9,.4-13.46.6-7.55.09-6.53-2.59-9.79-3.88-9-1.33-8.36,6.73-26.17,6.73V197.43l4.43.24,1.29.07,2.34.12,2.28.12,2.06.1c2.68.13,5.28.24,7.86.34,1.51.07,3,.12,4.54.17l1.17,0,1.11,0c5.94.19,12.09.32,19.22.4l1.69,0,2.27,0,3.18,0c9.81.08,21.58.09,36.84.08s27,0,36.83-.08l3.08,0,2.28,0,1.68,0c7.14-.08,13.28-.21,19.22-.4l1.47,0h.49l4.95-.19c2.8-.1,5.62-.23,8.55-.38l2.31-.11,1.25-.07c1.07,0,2.15-.1,3.26-.17.38,0,.77,0,1.15-.06Z" transform="translate(-0.14 -0.14)"/><path class="cls-1" d="M202.79,13.78l.31,0c4.64.54,8,2.29,10.66,6.21l.16.23.16.23,0,0c.43.57.85,1.14,1.27,1.73.31.42.61.85.91,1.29l.64.93c.42.61.83,1.23,1.23,1.87.32.49.63,1,.94,1.47.4.65.8,1.29,1.19,1.95s.79,1.32,1.17,2c.75,1.31,1.49,2.65,2.21,4,1.69,3.16,3.29,6.41,4.8,9.72q.45,1,.87,1.92l.57,1.28q1,2.19,1.88,4.39l.11.27c1.11,2.9-.08,4.61-4.57,4.6H58.37c-4.52,0-5.7-1.72-4.55-4.64.18-.45.37-.9.56-1.35s.27-.64.41-1c.33-.77.66-1.54,1-2.31a1.59,1.59,0,0,1,.12-.27c.49-1.13,1-2.25,1.51-3.36l.78-1.67c.26-.55.52-1.1.79-1.65q.8-1.65,1.62-3.27c.28-.55.56-1.08.84-1.62s.56-1.07.85-1.6c.72-1.35,1.47-2.68,2.23-4q.42-.73.87-1.47c.38-.66.78-1.31,1.19-2,.31-.49.62-1,.94-1.47.4-.64.81-1.26,1.23-1.87l.64-.93c.3-.44.6-.87.91-1.29.42-.59.85-1.17,1.27-1.74,0,0,0,0,0,0l.17-.23.16-.23c2.67-3.92,6-5.67,10.65-6.21l.24,0c19.92-2.11,40-2.21,60-2.2S182.89,11.68,202.79,13.78Zm24.53,42c1.5,0,3.29.17,2.59-1.69l-.09-.24c-4.61-11.07-10.2-22.53-17.43-32.1l-.2-.27-.19-.27c-2.31-3.4-5.1-4.83-9.13-5.29-19.93-2.13-40-2.22-60-2.21s-40.1.08-60,2.21c-4,.46-6.82,1.89-9.14,5.29l-.18.27-.2.27c-7.24,9.57-12.83,21-17.43,32.1l0,.06c-.82,2,.85,1.87,2.53,1.87Z" transform="translate(-0.14 -0.14)"/><path class="cls-8" d="M229.91,54.1c.7,1.86-1.09,1.69-2.59,1.69H58.37c-1.68,0-3.35.13-2.53-1.87l0-.06c4.6-11.07,10.19-22.53,17.43-32.1l.2-.27.18-.27c2.32-3.4,5.11-4.83,9.14-5.29,19.92-2.13,40-2.22,60-2.21s40.1.08,60,2.21c4,.46,6.82,1.89,9.13,5.29l.19.27.2.27c7.23,9.57,12.82,21,17.43,32.1Z" transform="translate(-0.14 -0.14)"/><path class="cls-5" d="M229.9,48.65l-.57-1.28C229.53,47.79,229.72,48.22,229.9,48.65Z" transform="translate(-0.14 -0.14)"/><path class="cls-1" d="M229.33,47.37q-.42-1-.87-1.92Q228.91,46.41,229.33,47.37Z" transform="translate(-0.14 -0.14)"/><path class="cls-5" d="M223.66,35.73c-.72-1.35-1.46-2.69-2.21-4C222.21,33,222.94,34.38,223.66,35.73Z" transform="translate(-0.14 -0.14)"/><path class="cls-5" d="M221.45,31.73c-.38-.66-.77-1.33-1.17-2Q220.88,30.72,221.45,31.73Z" transform="translate(-0.14 -0.14)"/><path class="cls-5" d="M220.28,29.75c-.39-.66-.79-1.3-1.19-1.95C219.5,28.44,219.89,29.09,220.28,29.75Z" transform="translate(-0.14 -0.14)"/><path class="cls-5" d="M219.09,27.8c-.31-.49-.62-1-.94-1.47C218.47,26.81,218.79,27.3,219.09,27.8Z" transform="translate(-0.14 -0.14)"/><path class="cls-1" d="M216.92,24.46l-.64-.93Z" transform="translate(-0.14 -0.14)"/><path class="cls-5" d="M215.37,22.24c-.42-.59-.84-1.16-1.27-1.73C214.53,21.08,215,21.65,215.37,22.24Z" transform="translate(-0.14 -0.14)"/><path class="cls-3" d="M211,88.69v1.23H74.65V88.69A620.62,620.62,0,0,1,211,88.69Z" transform="translate(-0.14 -0.14)"/><path class="cls-3" d="M210.9,89.92v1a234.62,234.62,0,0,1-50,9.72c.8-4.47-.86-9-5.44-9.33q-6.36-.39-12.68-.39v-1H210.9Z" transform="translate(-0.14 -0.14)"/><path class="cls-3" d="M202.79,2.38v11.4c-19.9-2.1-40-2.2-60-2.19s-40.1.09-60,2.2V2.39c19.95-2,40-2.15,60-2.14S182.86.35,202.79,2.38Z" transform="translate(-0.14 -0.14)"/><path class="cls-3" d="M193.83,152.12a3,3,0,0,1,.65,2.29c-1.08,7.13-2.11,14.33-4.48,20.22a5.7,5.7,0,0,1-1.65,2l-.35-.66L183,174.4l-1.29-.09a5.29,5.29,0,0,0,.9-1.27c2-5.12,2.87-11.37,3.78-17.55a2.78,2.78,0,0,0-.38-1.77l.59-.16,6.59-1.07Z" transform="translate(-0.14 -0.14)"/><path class="cls-3" d="M193.83,152.12l-.59.37-6.59,1.07-.59.16c-.56-.86-1.68-1.24-3.15-1.25H102.8c-1.61,0-2.79.46-3.29,1.49l-.62-.4-6.59-1.07-.62-.12c.66-1,2-1.42,3.73-1.43h94.88A4.6,4.6,0,0,1,193.83,152.12Z" transform="translate(-0.14 -0.14)"/><path class="cls-3" d="M187.13,177.27c-4,1.8-7.74,4.38-12,4.68l0-.38-2.86-1.89-.16-.63c2.83-.73,5.44-2.45,8.17-3.72l.5-.23a4.72,4.72,0,0,0,1-.79l1.29.09,4.95,1.54.35.66a5.62,5.62,0,0,1-.63.41Z" transform="translate(-0.14 -0.14)"/><path class="cls-5" d="M187.72,177c-.17.1-.34.18-.51.26h-.08Z" transform="translate(-0.14 -0.14)"/><path class="cls-3" d="M186.06,153.72a2.78,2.78,0,0,1,.38,1.77c-.91,6.18-1.78,12.43-3.78,17.55a5.29,5.29,0,0,1-.9,1.27,4.72,4.72,0,0,1-1,.79l-.5.23c-2.73,1.27-5.34,3-8.17,3.72a10.74,10.74,0,0,1-2.72.36h-53a10.38,10.38,0,0,1-2.56-.32c-2.89-.71-5.55-2.47-8.33-3.76a4.83,4.83,0,0,1-1.85-1.46A7,7,0,0,1,103,173c-2-5.12-2.87-11.37-3.77-17.55a2.91,2.91,0,0,1,.24-1.53c.5-1,1.68-1.48,3.29-1.49h80.11C184.38,152.48,185.5,152.86,186.06,153.72Z" transform="translate(-0.14 -0.14)"/><path class="cls-3" d="M175.08,181.57l0,.38c-.29,0-.58,0-.88,0H111.4c-.22,0-.44,0-.67,0v-.39l2.86-1.89.14-.59a10.38,10.38,0,0,0,2.56.32h53a10.74,10.74,0,0,0,2.72-.36l.16.63Z" transform="translate(-0.14 -0.14)"/><path class="cls-4" d="M161.27,78.29c3.72,0,5.62,5.71,1.89,5.71H122.53c-3.73,0-1.84-5.71,1.89-5.71Zm2.36,2.87a.69.69,0,1,0-.69.69A.69.69,0,0,0,163.63,81.16Zm0,1.74a.69.69,0,1,0-1.37,0,.69.69,0,1,0,1.37,0Zm-1.74-3.52a.69.69,0,1,0-.69.69A.69.69,0,0,0,161.89,79.38Zm0,1.78a.69.69,0,1,0-.69.69A.69.69,0,0,0,161.89,81.16Zm0,1.74a.69.69,0,1,0-.69.69A.69.69,0,0,0,161.89,82.9Zm-1.75-3.52a.69.69,0,1,0-.69.69A.69.69,0,0,0,160.14,79.38Zm0,1.78a.69.69,0,1,0-.69.69A.69.69,0,0,0,160.14,81.16Zm0,1.74a.69.69,0,1,0-.69.69A.69.69,0,0,0,160.14,82.9Zm-1.75-3.52a.69.69,0,1,0-.69.69A.69.69,0,0,0,158.39,79.38Zm0,1.78a.69.69,0,1,0-.69.69A.69.69,0,0,0,158.39,81.16Zm0,1.74a.69.69,0,1,0-.69.69A.69.69,0,0,0,158.39,82.9Zm-1.75-3.52a.69.69,0,1,0-.69.69A.69.69,0,0,0,156.64,79.38Zm0,1.78a.69.69,0,1,0-.69.69A.69.69,0,0,0,156.64,81.16Zm0,1.74a.69.69,0,1,0-.69.69A.69.69,0,0,0,156.64,82.9Zm-1.74-3.52a.69.69,0,1,0-.69.69A.69.69,0,0,0,154.9,79.38Zm0,1.78a.69.69,0,1,0-.69.69A.69.69,0,0,0,154.9,81.16Zm0,1.74a.69.69,0,1,0-.69.69A.69.69,0,0,0,154.9,82.9Zm-1.75-3.52a.69.69,0,1,0-.69.69A.69.69,0,0,0,153.15,79.38Zm0,1.78a.69.69,0,1,0-.69.69A.69.69,0,0,0,153.15,81.16Zm0,1.74a.69.69,0,1,0-.69.69A.69.69,0,0,0,153.15,82.9Zm-1.75-3.52a.69.69,0,1,0-.69.69A.69.69,0,0,0,151.4,79.38Zm0,1.78a.69.69,0,1,0-.69.69A.69.69,0,0,0,151.4,81.16Zm0,1.74a.69.69,0,1,0-.69.69A.69.69,0,0,0,151.4,82.9Zm-1.75-3.52a.69.69,0,1,0-.69.69A.69.69,0,0,0,149.65,79.38Zm0,1.78a.69.69,0,1,0-.69.69A.69.69,0,0,0,149.65,81.16Zm0,1.74a.69.69,0,1,0-.69.69A.69.69,0,0,0,149.65,82.9Zm-1.75-3.52a.69.69,0,1,0-.69.69A.69.69,0,0,0,147.9,79.38Zm0,1.78a.69.69,0,1,0-.69.69A.69.69,0,0,0,147.9,81.16Zm0,1.74a.69.69,0,1,0-1.37,0,.69.69,0,1,0,1.37,0Zm-1.74-3.52a.69.69,0,1,0-.69.69A.69.69,0,0,0,146.16,79.38Zm0,1.78a.69.69,0,1,0-.69.69A.69.69,0,0,0,146.16,81.16Zm0,1.74a.69.69,0,1,0-.69.69A.69.69,0,0,0,146.16,82.9Zm-1.75-3.52a.69.69,0,1,0-.69.69A.69.69,0,0,0,144.41,79.38Zm0,1.78a.69.69,0,1,0-.69.69A.69.69,0,0,0,144.41,81.16Zm0,1.74a.69.69,0,1,0-.69.69A.69.69,0,0,0,144.41,82.9Zm-1.75-3.52a.69.69,0,1,0-.69.69A.69.69,0,0,0,142.66,79.38Zm0,1.78a.69.69,0,1,0-.69.69A.69.69,0,0,0,142.66,81.16Zm0,1.74a.69.69,0,1,0-.69.69A.69.69,0,0,0,142.66,82.9Zm-1.75-3.52a.69.69,0,1,0-.69.69A.69.69,0,0,0,140.91,79.38Zm0,1.78a.69.69,0,1,0-.69.69A.69.69,0,0,0,140.91,81.16Zm0,1.74a.69.69,0,1,0-.69.69A.69.69,0,0,0,140.91,82.9Zm-1.75-3.52a.69.69,0,1,0-.68.69A.68.68,0,0,0,139.16,79.38Zm0,1.78a.69.69,0,1,0-.68.69A.68.68,0,0,0,139.16,81.16Zm0,1.74a.69.69,0,1,0-.68.69A.68.68,0,0,0,139.16,82.9Zm-1.74-3.52a.69.69,0,1,0-.69.69A.69.69,0,0,0,137.42,79.38Zm0,1.78a.69.69,0,1,0-.69.69A.69.69,0,0,0,137.42,81.16Zm0,1.74a.69.69,0,1,0-.69.69A.69.69,0,0,0,137.42,82.9Zm-1.75-3.52a.69.69,0,1,0-.69.69A.69.69,0,0,0,135.67,79.38Zm0,1.78a.69.69,0,1,0-.69.69A.69.69,0,0,0,135.67,81.16Zm0,1.74a.69.69,0,1,0-.69.69A.69.69,0,0,0,135.67,82.9Zm-1.75-3.52a.69.69,0,1,0-.69.69A.69.69,0,0,0,133.92,79.38Zm0,1.78a.69.69,0,1,0-.69.69A.69.69,0,0,0,133.92,81.16Zm0,1.74a.69.69,0,1,0-.69.69A.69.69,0,0,0,133.92,82.9Zm-1.75-3.52a.69.69,0,1,0-.69.69A.69.69,0,0,0,132.17,79.38Zm0,1.78a.69.69,0,1,0-.69.69A.69.69,0,0,0,132.17,81.16Zm0,1.74a.69.69,0,1,0-.69.69A.69.69,0,0,0,132.17,82.9Zm-1.74-3.52a.69.69,0,1,0-.69.69A.69.69,0,0,0,130.43,79.38Zm0,1.78a.69.69,0,1,0-.69.69A.69.69,0,0,0,130.43,81.16Zm0,1.74a.69.69,0,1,0-.69.69A.69.69,0,0,0,130.43,82.9Zm-1.75-3.52a.69.69,0,1,0-.69.69A.69.69,0,0,0,128.68,79.38Zm0,1.78a.69.69,0,1,0-.69.69A.69.69,0,0,0,128.68,81.16Zm0,1.74a.69.69,0,1,0-.69.69A.69.69,0,0,0,128.68,82.9Zm-1.75-3.52a.69.69,0,1,0-.69.69A.69.69,0,0,0,126.93,79.38Zm0,1.78a.69.69,0,1,0-.69.69A.69.69,0,0,0,126.93,81.16Zm0,1.74a.69.69,0,1,0-.69.69A.69.69,0,0,0,126.93,82.9Zm-1.75-3.52a.69.69,0,1,0-.69.69A.69.69,0,0,0,125.18,79.38Zm0,1.78a.69.69,0,1,0-.69.69A.69.69,0,0,0,125.18,81.16Zm0,1.74a.69.69,0,1,0-.69.69A.69.69,0,0,0,125.18,82.9Zm-1.75-1.74a.69.69,0,1,0-.69.69A.69.69,0,0,0,123.43,81.16Zm0,1.74a.69.69,0,1,0-.69.69A.69.69,0,0,0,123.43,82.9Z" transform="translate(-0.14 -0.14)"/><path class="cls-4" d="M162.94,80.47a.69.69,0,1,1-.68.69A.69.69,0,0,1,162.94,80.47Z" transform="translate(-0.14 -0.14)"/><path class="cls-4" d="M162.94,82.21a.69.69,0,0,1,0,1.38.69.69,0,0,1,0-1.38Z" transform="translate(-0.14 -0.14)"/><circle class="cls-4" cx="161.06" cy="79.24" r="0.69"/><circle class="cls-4" cx="161.06" cy="81.02" r="0.69"/><path class="cls-4" d="M161.2,82.21a.69.69,0,1,1-.69.69A.69.69,0,0,1,161.2,82.21Z" transform="translate(-0.14 -0.14)"/><path class="cls-3" d="M160.94,100.63c-.74,4.17-3.62,8.24-8.26,8.63a109.41,109.41,0,0,1-19.66,0c-4.63-.39-7.5-4.45-8.24-8.62-.81-4.47.85-9.06,5.43-9.34,4.23-.26,8.39-.39,12.61-.39s8.44.13,12.68.39C160.08,91.58,161.74,96.16,160.94,100.63Zm-.35-.88c.27-2.41-.16-5-1.83-6.63a5.08,5.08,0,0,0-3.32-1.39c-4.19-.26-8.4-.39-12.6-.39s-8.41.13-12.6.39a5.06,5.06,0,0,0-3.32,1.39c-1.68,1.64-2.11,4.22-1.84,6.63a.9.9,0,0,0,1,.83c1.13-.19,1.51-.73,2.54-.72h28.46c1,0,1.41.53,2.54.72h0A.91.91,0,0,0,160.59,99.75Z" transform="translate(-0.14 -0.14)"/><path class="cls-3" d="M158.76,93.12c1.67,1.64,2.1,4.22,1.83,6.63a.91.91,0,0,1-1,.84h0c-1.13-.19-1.52-.73-2.54-.72H128.61c-1,0-1.41.53-2.54.72a.9.9,0,0,1-1-.83c-.27-2.41.16-5,1.84-6.63a5.06,5.06,0,0,1,3.32-1.39c4.19-.26,8.4-.39,12.6-.39s8.41.13,12.6.39A5.08,5.08,0,0,1,158.76,93.12Z" transform="translate(-0.14 -0.14)"/><circle class="cls-4" cx="159.31" cy="79.24" r="0.69"/><circle class="cls-4" cx="159.31" cy="81.02" r="0.69"/><path class="cls-4" d="M159.45,82.21a.69.69,0,1,1-.69.69A.69.69,0,0,1,159.45,82.21Z" transform="translate(-0.14 -0.14)"/><circle class="cls-4" cx="157.56" cy="79.24" r="0.69"/><circle class="cls-4" cx="157.56" cy="81.02" r="0.69"/><path class="cls-4" d="M157.7,82.21a.69.69,0,1,1-.69.69A.69.69,0,0,1,157.7,82.21Z" transform="translate(-0.14 -0.14)"/><circle class="cls-4" cx="155.81" cy="79.24" r="0.69"/><circle class="cls-4" cx="155.81" cy="81.02" r="0.69"/><path class="cls-4" d="M155.95,82.21a.69.69,0,1,1-.69.69A.69.69,0,0,1,155.95,82.21Z" transform="translate(-0.14 -0.14)"/><circle class="cls-4" cx="154.07" cy="79.24" r="0.69"/><circle class="cls-4" cx="154.07" cy="81.02" r="0.69"/><path class="cls-4" d="M154.21,82.21a.69.69,0,1,1-.69.69A.69.69,0,0,1,154.21,82.21Z" transform="translate(-0.14 -0.14)"/><circle class="cls-4" cx="152.32" cy="79.24" r="0.69"/><circle class="cls-4" cx="152.32" cy="81.02" r="0.69"/><path class="cls-4" d="M152.46,82.21a.69.69,0,1,1-.69.69A.69.69,0,0,1,152.46,82.21Z" transform="translate(-0.14 -0.14)"/><circle class="cls-4" cx="150.57" cy="79.24" r="0.69"/><circle class="cls-4" cx="150.57" cy="81.02" r="0.69"/><path class="cls-4" d="M150.71,82.21a.69.69,0,1,1-.69.69A.69.69,0,0,1,150.71,82.21Z" transform="translate(-0.14 -0.14)"/><circle class="cls-4" cx="148.82" cy="79.24" r="0.69"/><circle class="cls-4" cx="148.82" cy="81.02" r="0.69"/><path class="cls-4" d="M149,82.21a.69.69,0,1,1-.69.69A.69.69,0,0,1,149,82.21Z" transform="translate(-0.14 -0.14)"/><path class="cls-4" d="M147.21,78.69a.69.69,0,1,1-.68.69A.69.69,0,0,1,147.21,78.69Z" transform="translate(-0.14 -0.14)"/><path class="cls-4" d="M147.21,80.47a.69.69,0,1,1-.68.69A.69.69,0,0,1,147.21,80.47Z" transform="translate(-0.14 -0.14)"/><path class="cls-4" d="M147.21,82.21a.69.69,0,1,1,0,1.38.69.69,0,0,1,0-1.38Z" transform="translate(-0.14 -0.14)"/><circle class="cls-4" cx="145.33" cy="79.24" r="0.69"/><circle class="cls-4" cx="145.33" cy="81.02" r="0.69"/><path class="cls-4" d="M145.47,82.21a.69.69,0,1,1-.69.69A.69.69,0,0,1,145.47,82.21Z" transform="translate(-0.14 -0.14)"/><circle class="cls-4" cx="143.58" cy="79.24" r="0.69"/><circle class="cls-4" cx="143.58" cy="81.02" r="0.69"/><path class="cls-4" d="M143.72,82.21a.69.69,0,1,1-.69.69A.69.69,0,0,1,143.72,82.21Z" transform="translate(-0.14 -0.14)"/><path class="cls-3" d="M142.82,89.92v1c-4.22,0-8.38.13-12.61.39-4.58.28-6.24,4.87-5.43,9.34a235.13,235.13,0,0,1-50-9.73v-1Z" transform="translate(-0.14 -0.14)"/><circle class="cls-4" cx="141.83" cy="79.24" r="0.69"/><circle class="cls-4" cx="141.83" cy="81.02" r="0.69"/><path class="cls-4" d="M142,82.21a.69.69,0,1,1-.69.69A.69.69,0,0,1,142,82.21Z" transform="translate(-0.14 -0.14)"/><circle class="cls-4" cx="140.08" cy="79.24" r="0.69"/><circle class="cls-4" cx="140.08" cy="81.02" r="0.69"/><path class="cls-4" d="M140.22,82.21a.69.69,0,1,1-.69.69A.69.69,0,0,1,140.22,82.21Z" transform="translate(-0.14 -0.14)"/><path class="cls-4" d="M138.48,78.69a.69.69,0,1,1-.69.69A.68.68,0,0,1,138.48,78.69Z" transform="translate(-0.14 -0.14)"/><path class="cls-4" d="M138.48,80.47a.69.69,0,1,1-.69.69A.68.68,0,0,1,138.48,80.47Z" transform="translate(-0.14 -0.14)"/><path class="cls-4" d="M138.48,82.21a.69.69,0,1,1-.69.69A.68.68,0,0,1,138.48,82.21Z" transform="translate(-0.14 -0.14)"/><circle class="cls-4" cx="136.59" cy="79.24" r="0.69"/><circle class="cls-4" cx="136.59" cy="81.02" r="0.69"/><path class="cls-4" d="M136.73,82.21a.69.69,0,1,1-.69.69A.69.69,0,0,1,136.73,82.21Z" transform="translate(-0.14 -0.14)"/><circle class="cls-4" cx="134.84" cy="79.24" r="0.69"/><circle class="cls-4" cx="134.84" cy="81.02" r="0.69"/><path class="cls-4" d="M135,82.21a.69.69,0,1,1-.69.69A.69.69,0,0,1,135,82.21Z" transform="translate(-0.14 -0.14)"/><circle class="cls-4" cx="133.09" cy="79.24" r="0.69"/><circle class="cls-4" cx="133.09" cy="81.02" r="0.69"/><path class="cls-4" d="M133.23,82.21a.69.69,0,1,1-.69.69A.69.69,0,0,1,133.23,82.21Z" transform="translate(-0.14 -0.14)"/><circle class="cls-4" cx="131.34" cy="79.24" r="0.69"/><circle class="cls-4" cx="131.34" cy="81.02" r="0.69"/><path class="cls-4" d="M131.48,82.21a.69.69,0,1,1-.69.69A.69.69,0,0,1,131.48,82.21Z" transform="translate(-0.14 -0.14)"/><circle class="cls-4" cx="129.6" cy="79.24" r="0.69"/><circle class="cls-4" cx="129.6" cy="81.02" r="0.69"/><path class="cls-4" d="M129.74,82.21a.69.69,0,1,1-.69.69A.69.69,0,0,1,129.74,82.21Z" transform="translate(-0.14 -0.14)"/><circle class="cls-4" cx="127.85" cy="79.24" r="0.69"/><circle class="cls-4" cx="127.85" cy="81.02" r="0.69"/><path class="cls-4" d="M128,82.21a.69.69,0,1,1-.69.69A.69.69,0,0,1,128,82.21Z" transform="translate(-0.14 -0.14)"/><circle class="cls-4" cx="126.1" cy="79.24" r="0.69"/><circle class="cls-4" cx="126.1" cy="81.02" r="0.69"/><path class="cls-4" d="M126.24,82.21a.69.69,0,1,1-.69.69A.69.69,0,0,1,126.24,82.21Z" transform="translate(-0.14 -0.14)"/><circle class="cls-4" cx="124.35" cy="79.24" r="0.69"/><circle class="cls-4" cx="124.35" cy="81.02" r="0.69"/><path class="cls-4" d="M124.49,82.21a.69.69,0,1,1-.69.69A.69.69,0,0,1,124.49,82.21Z" transform="translate(-0.14 -0.14)"/><circle class="cls-4" cx="122.6" cy="81.02" r="0.69"/><path class="cls-4" d="M122.74,82.21a.69.69,0,1,1-.69.69A.69.69,0,0,1,122.74,82.21Z" transform="translate(-0.14 -0.14)"/><path class="cls-3" d="M113.74,179.09l-.14.59-2.86,1.89V182c-4.37-.23-8.19-2.86-12.23-4.69h0A5.75,5.75,0,0,1,96.65,176l1.17,0,4.95-1.54.79-.53a4.83,4.83,0,0,0,1.85,1.46C108.19,176.62,110.85,178.38,113.74,179.09Z" transform="translate(-0.14 -0.14)"/><path class="cls-3" d="M103.56,173.87l-.79.53-4.95,1.54-1.17,0a6.22,6.22,0,0,1-1-1.34c-2.37-5.89-3.4-13.09-4.47-20.22a3.18,3.18,0,0,1,.45-2l.62.12,6.59,1.07.62.4a2.91,2.91,0,0,0-.24,1.53c.9,6.18,1.77,12.43,3.77,17.55A7,7,0,0,0,103.56,173.87Z" transform="translate(-0.14 -0.14)"/><path class="cls-3" d="M26,85.41l.37-.84s0,0,0,0,.1-.19.14-.28a56.61,56.61,0,0,0-2.48,7.68,3.59,3.59,0,0,0-.12.47h0v0c-.22.86-.43,1.76-.62,2.69-.07.31-.14.62-.2.94-.2,1-.39,1.93-.57,3-.13.68-.25,1.37-.36,2.08-.05.25-.09.5-.12.76-.08.46-.15.93-.22,1.4s-.15,1-.21,1.45c-.14,1-.27,2-.4,3a1.11,1.11,0,0,1,0,.17c-.08.66-.16,1.34-.24,2-.15,1.36-.29,2.77-.43,4.21-.09.87-.17,1.76-.24,2.66s-.15,1.88-.22,2.84c0,.65-.1,1.31-.14,2s-.09,1.47-.14,2.22q-.12,1.9-.21,3.9c-.06,1.21-.11,2.44-.16,3.7,0,.6-.05,1.21-.07,1.82h0l0,1c-.09,2.74-.15,5.58-.2,8.52q0,3.59-.06,7.37c-.42,6.4,5.33,24.23,11.4,24.64,3.47.19,51.74.5,61.47.75a17,17,0,0,1,6.54,1.74h0c-38,0-74.27,1.68-78.27,7.45a2.49,2.49,0,0,0,.38-1.53c-6.3-27.56-5.77-54.8-.09-81.81a111.28,111.28,0,0,1,5.36-15.67,1.94,1.94,0,0,1,.13-.3Z" transform="translate(-0.14 -0.14)"/><path class="cls-3" d="M82.82,2.39v11.4l-.24,0c-4.64.54-8,2.29-10.65,6.21l-.16.23-.17.23s0,0,0,0c-.43.57-.85,1.15-1.27,1.74-.31.42-.61.85-.91,1.29l-.64.93c-.42.61-.83,1.23-1.23,1.87-.32.48-.63,1-.94,1.47s-.81,1.3-1.19,2q-.45.72-.87,1.47c-.76,1.3-1.51,2.63-2.23,4-.29.53-.57,1.06-.85,1.6s-.57,1.08-.84,1.62Q59.78,40,59,41.7c-.27.55-.53,1.1-.79,1.65s-.53,1.11-.78,1.67c-.52,1.12-1,2.23-1.51,3.36a1.59,1.59,0,0,0-.12.27c-.34.77-.68,1.54-1,2.31-.14.32-.28.64-.41,1s-.31.75-.47,1.12l0,.07-.06.16c-2.61,6.28-4.95,12.6-7,18.61H45.28c-.39,0-.78,0-1.16,0H44l-.33,0-.93.07c-.55.05-1.09.11-1.61.19l-.93.16q-.57.1-1.11.24a3.2,3.2,0,0,0-.42.1l-.84.25-.36.11-.78.27c-.28.11-.56.22-.83.35l-.51.23s0,0,0,0l-.73.37-.07,0-.32.18h0a14.84,14.84,0,0,0-4.92,4.55,24.57,24.57,0,0,1,5.13-6.18c9-26.87,18.4-46.4,28.09-59.24C67.26,6.73,73.7,3.41,81.34,2.54Z" transform="translate(-0.14 -0.14)"/><path class="cls-5" d="M71.58,20.5c-.42.57-.85,1.15-1.27,1.74C70.73,21.65,71.15,21.07,71.58,20.5Z" transform="translate(-0.14 -0.14)"/><path class="cls-1" d="M69.4,23.53l-.64.93Z" transform="translate(-0.14 -0.14)"/><path class="cls-5" d="M67.53,26.33c-.32.49-.63,1-.94,1.47C66.9,27.3,67.21,26.81,67.53,26.33Z" transform="translate(-0.14 -0.14)"/><path class="cls-5" d="M65.4,29.76q-.45.73-.87,1.47Q64.95,30.48,65.4,29.76Z" transform="translate(-0.14 -0.14)"/><path class="cls-1" d="M62.3,35.21c-.29.53-.57,1.06-.85,1.6C61.73,36.27,62,35.74,62.3,35.21Z" transform="translate(-0.14 -0.14)"/><path class="cls-1" d="M61.45,36.81c-.28.54-.56,1.07-.84,1.62Q61,37.62,61.45,36.81Z" transform="translate(-0.14 -0.14)"/><path class="cls-1" d="M59,41.7c-.27.55-.53,1.1-.79,1.65C58.46,42.8,58.72,42.25,59,41.7Z" transform="translate(-0.14 -0.14)"/><path class="cls-1" d="M58.2,43.35,57.42,45C57.67,44.46,57.93,43.91,58.2,43.35Z" transform="translate(-0.14 -0.14)"/><path class="cls-1" d="M57.42,45c-.51,1.11-1,2.23-1.51,3.36C56.4,47.25,56.9,46.14,57.42,45Z" transform="translate(-0.14 -0.14)"/><path class="cls-1" d="M55.79,48.65c-.34.77-.67,1.54-1,2.31C55.11,50.19,55.45,49.42,55.79,48.65Z" transform="translate(-0.14 -0.14)"/><path class="cls-1" d="M53.91,53c.16-.37.31-.75.47-1.12-.19.45-.38.9-.56,1.35l.06-.16Z" transform="translate(-0.14 -0.14)"/><path class="cls-1" d="M52.57,219.57v31.05a10.05,10.05,0,0,1-10,10H25.8a10.05,10.05,0,0,1-10-10V182.29a26.92,26.92,0,0,0,2.09,4.05c.15.24.31.48.47.71l0,.06c.19.27.38.53.58.78s.25.33.38.48a2.32,2.32,0,0,0,.21.25c.13.16.27.32.41.47a15.72,15.72,0,0,0,1.43,1.4,7.08,7.08,0,0,0,.68.57,8.36,8.36,0,0,0,.84.63c.28.21.58.4.88.59s.61.37.93.54.79.42,1.2.61c.24.12.49.23.74.33s.8.34,1.23.49.68.25,1,.36c.67.22,1.37.43,2.11.61l.74.18c1.48.36,3.09.64,4.82.88l1.24.16,1.19.14.18,0c.4,0,.8.09,1.22.12s.9.09,1.37.12q2.77.23,5.92.36l1.5.07,1.75.06.69,0,.92.06Z" transform="translate(-0.14 -0.14)"/><path class="cls-1" d="M47.71,197.2l1.5.07Z" transform="translate(-0.14 -0.14)"/><path class="cls-1" d="M45.28,71.89c-.4,0-.78,0-1.16,0C44.5,71.9,44.89,71.89,45.28,71.89Z" transform="translate(-0.14 -0.14)"/><path class="cls-1" d="M44,71.92c-.11,0-.22,0-.33,0h0Z" transform="translate(-0.14 -0.14)"/><path class="cls-3" d="M21.23,107.7c.13-1,.26-2,.4-3l.21-1.45c.07-.47.14-.94.22-1.4h.08c.87,2.6,2.76,4.42,4.94,4.42h10c3,0,5.45-3.44,5.45-7.65a9.35,9.35,0,0,0-1.6-5.4A4.81,4.81,0,0,0,37.06,91h-10a4.47,4.47,0,0,0-3.14,1.41,3.59,3.59,0,0,1,.12-.47c1.43-2.5,4.19-3.87,8.55-3.86H43.69v54.7l-24.57,0c0-2.94.11-5.78.2-8.52,0-.34,0-.68,0-1,0-.61,0-1.22.07-1.82.05-1.26.1-2.49.16-3.7s.13-2.63.21-3.9c.05-.75.09-1.49.14-2.22s.09-1.32.14-2c.07-1,.15-1.91.22-2.84s.16-1.79.24-2.66c.14-1.44.28-2.85.43-4.21.05-.39.09-.79.14-1.17s.07-.58.1-.86A1.11,1.11,0,0,0,21.23,107.7Zm21.28,7.55a5.46,5.46,0,0,0-5.45-5.45h-10a5.47,5.47,0,0,0-5.46,5.45,5.48,5.48,0,0,0,5.46,5.45h10A5.46,5.46,0,0,0,42.51,115.25Zm0,12.56a4,4,0,0,0-1.6-3.11,6.19,6.19,0,0,0-3.85-1.29h-10c-3,0-5.46,2-5.46,4.4a4,4,0,0,0,1.61,3.1,6.11,6.11,0,0,0,3.85,1.29h10C40.06,132.2,42.51,130.22,42.51,127.81Zm0,10.65a3.07,3.07,0,0,0-1.6-2.49,7.18,7.18,0,0,0-3.85-1h-10c-3,0-5.46,1.59-5.46,3.53a3.06,3.06,0,0,0,1.61,2.49,7.15,7.15,0,0,0,3.85,1h10C40.06,142,42.51,140.4,42.51,138.46Z" transform="translate(-0.14 -0.14)"/><path class="cls-3" d="M43.69,142.78v5.09H20.3c-.75,0-1.14.86-1.24,2.26q0-3.78.06-7.37Z" transform="translate(-0.14 -0.14)"/><path class="cls-3" d="M43.69,74.51V88.08H32.61c-4.36,0-7.12,1.36-8.55,3.86a56.61,56.61,0,0,1,2.48-7.68.05.05,0,0,1,0,0A51.68,51.68,0,0,1,29.3,79.1l0,0a14.84,14.84,0,0,1,4.92-4.55Z" transform="translate(-0.14 -0.14)"/><path class="cls-1" d="M43.69,71.95v2.56H34.25a2.38,2.38,0,0,1,.3-.18l.07,0,.73-.37s0,0,0,0l.51-.23c.27-.13.55-.24.83-.35s.51-.19.78-.27l.36-.11a7.44,7.44,0,0,1,.84-.25l.42-.1q.54-.14,1.11-.24c.3-.06.61-.12.93-.16.52-.08,1.06-.14,1.61-.19Q43.22,72,43.69,71.95Z" transform="translate(-0.14 -0.14)"/><path class="cls-1" d="M43.69,71.94h0q-.47,0-.93.06Z" transform="translate(-0.14 -0.14)"/><path class="cls-1" d="M40.42,196.72l1.37.12C41.32,196.81,40.87,196.77,40.42,196.72Z" transform="translate(-0.14 -0.14)"/><path class="cls-4" d="M40.91,93.25a9.35,9.35,0,0,1,1.6,5.4c0,4.21-2.45,7.65-5.45,7.65h-10c-2.18,0-4.07-1.82-4.94-4.42h-.08c0-.26.07-.51.12-.76.12-.71.23-1.4.36-2.08.18-1,.37-2,.57-3,.06-.32.13-.63.2-.94.19-.93.4-1.83.62-2.69,0,0,0,0,0,0A4.47,4.47,0,0,1,27.08,91h10A4.81,4.81,0,0,1,40.91,93.25Z" transform="translate(-0.14 -0.14)"/><path class="cls-4" d="M40.91,111.4a5.44,5.44,0,0,1-3.85,9.3h-10a5.48,5.48,0,0,1-5.46-5.45,5.47,5.47,0,0,1,5.46-5.45h10A5.43,5.43,0,0,1,40.91,111.4Z" transform="translate(-0.14 -0.14)"/><path class="cls-6" d="M40.91,124.7a4,4,0,0,1,1.6,3.11c0,2.41-2.45,4.39-5.45,4.39h-10a6.11,6.11,0,0,1-3.85-1.29,4,4,0,0,1-1.61-3.1c0-2.42,2.46-4.4,5.46-4.4h10A6.19,6.19,0,0,1,40.91,124.7Z" transform="translate(-0.14 -0.14)"/><path class="cls-4" d="M40.91,136a3.07,3.07,0,0,1,1.6,2.49c0,1.94-2.45,3.53-5.45,3.53h-10a7.15,7.15,0,0,1-3.85-1,3.06,3.06,0,0,1-1.61-2.49c0-1.94,2.46-3.53,5.46-3.53h10A7.18,7.18,0,0,1,40.91,136Z" transform="translate(-0.14 -0.14)"/><path class="cls-1" d="M41.15,72.2c-.32,0-.63.1-.93.16Z" transform="translate(-0.14 -0.14)"/><path class="cls-1" d="M39.2,196.6l1.22.12C40,196.69,39.6,196.64,39.2,196.6Z" transform="translate(-0.14 -0.14)"/><path class="cls-5" d="M39.11,72.6l-.42.1A3.2,3.2,0,0,1,39.11,72.6Z" transform="translate(-0.14 -0.14)"/><path class="cls-1" d="M37.83,196.44l1.19.14Z" transform="translate(-0.14 -0.14)"/><path class="cls-1" d="M38.69,72.7a7.44,7.44,0,0,0-.84.25Z" transform="translate(-0.14 -0.14)"/><path class="cls-1" d="M36.59,196.28l1.24.16Z" transform="translate(-0.14 -0.14)"/><path class="cls-1" d="M37.49,73.06q-.4.12-.78.27Z" transform="translate(-0.14 -0.14)"/><path class="cls-5" d="M35.88,73.68l-.51.23Z" transform="translate(-0.14 -0.14)"/><path class="cls-1" d="M35.35,73.92l-.73.37Z" transform="translate(-0.14 -0.14)"/><path class="cls-1" d="M34.55,74.33a2.38,2.38,0,0,0-.3.18h0Z" transform="translate(-0.14 -0.14)"/><path class="cls-1" d="M31,195.22l.74.18Z" transform="translate(-0.14 -0.14)"/><path class="cls-1" d="M29.2,75.43v3.78a26.8,26.8,0,0,0-2.8,5.33s0,0,0,0c-.13.28-.26.56-.38.84-3.08-.13-4.73,0-7-.19C23.81,85.43,29.2,80.08,29.2,75.43Z" transform="translate(-0.14 -0.14)"/><path class="cls-1" d="M29.2,75.34v.09c0,4.65-5.39,10-10.23,9.79h-.1s0,0,0,0c-.37,0-.77-.08-1.19-.14h0A54.63,54.63,0,0,1,6.27,83.33C2.74,82.12.53,78.81.25,72.41c.07-7.47,1.83-13.76,9.66-15.78a44.16,44.16,0,0,1,14.42,0c3.42.56,4.86,4.06,4.87,10.13Zm-1.41.19V66.76c0-2.68-.16-8.16-3.69-8.73a42.87,42.87,0,0,0-13.89,0C3,59.89,1.73,65.76,1.67,72.39c.17,3.74,1,8.2,5,9.59a52.43,52.43,0,0,0,11,1.67h.14L19,83.8h.14C23.06,83.86,27.72,79.39,27.79,75.53Z" transform="translate(-0.14 -0.14)"/><path class="cls-2" d="M27.79,66.76v8.77c-.07,3.86-4.73,8.33-8.62,8.28H19l-1.18-.14h-.14A52.43,52.43,0,0,1,6.7,82c-4-1.39-4.86-5.85-5-9.59C1.73,65.76,3,59.89,10.21,58A42.87,42.87,0,0,1,24.1,58C27.63,58.6,27.78,64.08,27.79,66.76Z" transform="translate(-0.14 -0.14)"/><path class="cls-1" d="M26,85.41a1.94,1.94,0,0,0-.13.3c-.17.36-.32.72-.48,1.09a23.72,23.72,0,0,0-6.53-1.59H19C21.28,85.43,22.93,85.28,26,85.41Z" transform="translate(-0.14 -0.14)"/><path class="cls-4" d="M23.94,92.41s0,0,0,0v0Z" transform="translate(-0.14 -0.14)"/><path class="cls-4" d="M23.31,95.14c-.07.31-.14.62-.2.94C23.17,95.76,23.24,95.45,23.31,95.14Z" transform="translate(-0.14 -0.14)"/><path class="cls-4" d="M22.54,99c-.13.68-.24,1.37-.36,2.08C22.29,100.4,22.41,99.71,22.54,99Z" transform="translate(-0.14 -0.14)"/><path class="cls-4" d="M21.63,104.72c.06-.49.14-1,.21-1.45Z" transform="translate(-0.14 -0.14)"/><path class="cls-4" d="M21.21,107.87c0,.28-.07.57-.1.86s-.09.78-.14,1.17C21,109.21,21.13,108.53,21.21,107.87Z" transform="translate(-0.14 -0.14)"/><path class="cls-3" d="M20.61,183.19a2.49,2.49,0,0,1-.38,1.53c-.06.09-.11.19-.16.28a11.22,11.22,0,0,1-1.69,2.11l0-.06c-.16-.23-.32-.47-.47-.71a26.92,26.92,0,0,1-2.09-4.05q-.31-.72-.6-1.5C10.68,167.12,13,129,20.52,101.38,14.84,128.39,14.31,155.63,20.61,183.19Z" transform="translate(-0.14 -0.14)"/><path class="cls-4" d="M20.54,114.11c-.08.87-.16,1.76-.24,2.66C20.37,115.87,20.45,115,20.54,114.11Z" transform="translate(-0.14 -0.14)"/><path class="cls-4" d="M20.08,119.61c0,.65-.09,1.31-.14,2C20,120.92,20,120.26,20.08,119.61Z" transform="translate(-0.14 -0.14)"/><path class="cls-1" d="M19.55,188.62c.13.16.27.32.41.47C19.82,188.94,19.68,188.78,19.55,188.62Z" transform="translate(-0.14 -0.14)"/><path class="cls-4" d="M19.8,123.8q-.12,1.9-.21,3.9Q19.68,125.7,19.8,123.8Z" transform="translate(-0.14 -0.14)"/><path class="cls-4" d="M19.36,133.22c0-.61,0-1.22.07-1.82C19.4,132,19.38,132.61,19.36,133.22Z" transform="translate(-0.14 -0.14)"/><path class="cls-4" d="M19.36,133.22c0,.34,0,.68,0,1l0-1Z" transform="translate(-0.14 -0.14)"/><path class="cls-1" d="M19,187.89l.38.48C19.21,188.22,19.08,188.06,19,187.89Z" transform="translate(-0.14 -0.14)"/><path class="cls-9" d="M256.31,79a24.23,24.23,0,0,0-5.09-6.11c-9-26.87-18.39-46.4-28.09-59.24C218.43,6.73,212,3.41,204.35,2.54l-1.56-.16c-19.93-2-40-2.14-60-2.13s-40.07.1-60,2.14l-1.48.15c-7.64.87-14.08,4.19-18.79,11.1C52.86,26.48,43.48,46,34.46,72.88a24.57,24.57,0,0,0-5.13,6.18" transform="translate(-0.14 -0.14)"/><path class="cls-9" d="M259.23,84.44a51.62,51.62,0,0,0-2.87-5.38" transform="translate(-0.14 -0.14)"/><path class="cls-9" d="M269.81,182.5q.36-.83.69-1.71c4.51-13.68,2.15-51.81-5.33-79.42a115.92,115.92,0,0,0-4.9-14.57" transform="translate(-0.14 -0.14)"/><path class="cls-9" d="M267.9,186.19c.19-.29.36-.58.54-.89.34-.6.67-1.24,1-1.91" transform="translate(-0.14 -0.14)"/><path class="cls-9" d="M267.23,187.21a.37.37,0,0,0,.06-.1q.27-.36.51-.75" transform="translate(-0.14 -0.14)"/><path class="cls-9" d="M266.58,188.08q.33-.4.63-.84" transform="translate(-0.14 -0.14)"/><path class="cls-9" d="M262.8,191.68c.28-.2.55-.4.82-.62s.48-.39.71-.6" transform="translate(-0.14 -0.14)"/><path class="cls-9" d="M261.95,192.24c.25-.16.5-.32.74-.49" transform="translate(-0.14 -0.14)"/><path class="cls-9" d="M259.1,193.73l.56-.25" transform="translate(-0.14 -0.14)"/><path class="cls-9" d="M255.76,194.92l.79-.24" transform="translate(-0.14 -0.14)"/><path class="cls-9" d="M251.92,195.82l1.15-.23,1-.23" transform="translate(-0.14 -0.14)"/><path class="cls-9" d="M250.35,196.09q.65-.09,1.26-.21" transform="translate(-0.14 -0.14)"/><path class="cls-9" d="M244.07,196.83l1.66-.15" transform="translate(-0.14 -0.14)"/><path class="cls-9" d="M238.68,197.17c1.17,0,2.3-.12,3.39-.19" transform="translate(-0.14 -0.14)"/><path class="cls-9" d="M229.37,197.63l5.35-.3" transform="translate(-0.14 -0.14)"/><path class="cls-9" d="M225,197.86l3.26-.17" transform="translate(-0.14 -0.14)"/><path class="cls-9" d="M221.4,198l2.31-.11" transform="translate(-0.14 -0.14)"/><path class="cls-9" d="M207.9,198.61l4.95-.19" transform="translate(-0.14 -0.14)"/><path class="cls-9" d="M205.94,198.67l1.47,0" transform="translate(-0.14 -0.14)"/><path class="cls-9" d="M185,199.09l1.68,0" transform="translate(-0.14 -0.14)"/><path class="cls-9" d="M179.68,199.14l3.08,0" transform="translate(-0.14 -0.14)"/><path class="cls-9" d="M102.83,199.11l3.18,0" transform="translate(-0.14 -0.14)"/><path class="cls-9" d="M98.87,199.07l1.69,0" transform="translate(-0.14 -0.14)"/><path class="cls-9" d="M78.54,198.63l1.11,0" transform="translate(-0.14 -0.14)"/><path class="cls-9" d="M72.83,198.42l4.54.17" transform="translate(-0.14 -0.14)"/><path class="cls-9" d="M62.91,198l2.06.1" transform="translate(-0.14 -0.14)"/><path class="cls-9" d="M58.29,197.74l2.34.12" transform="translate(-0.14 -0.14)"/><path class="cls-9" d="M51.65,197.37l5.35.3" transform="translate(-0.14 -0.14)"/><path class="cls-9" d="M27.89,194.25c.34.13.68.25,1,.36" transform="translate(-0.14 -0.14)"/><path class="cls-9" d="M25.92,193.43c.24.12.49.23.74.33" transform="translate(-0.14 -0.14)"/><path class="cls-9" d="M21.39,190.49c.22.2.45.39.68.57s.55.43.84.63.58.4.88.59.61.37.93.54" transform="translate(-0.14 -0.14)"/><path class="cls-9" d="M17.87,186.34c.15.24.31.48.47.71" transform="translate(-0.14 -0.14)"/><path class="cls-9" d="M25.88,85.71a111.28,111.28,0,0,0-5.36,15.67C13,129,10.68,167.12,15.18,180.79q.29.78.6,1.5" transform="translate(-0.14 -0.14)"/><path class="cls-9" d="M26.39,84.57l-.37.84" transform="translate(-0.14 -0.14)"/><path class="cls-9" d="M26.54,84.26c0,.09-.09.19-.14.28" transform="translate(-0.14 -0.14)"/><path class="cls-9" d="M29.3,79.1a51.68,51.68,0,0,0-2.74,5.12" transform="translate(-0.14 -0.14)"/><path class="cls-9" d="M53.82,53.27c-2.61,6.28-4.95,12.6-7,18.61" transform="translate(-0.14 -0.14)"/><path class="cls-9" d="M59,41.7c-.27.55-.53,1.1-.79,1.65L57.42,45" transform="translate(-0.14 -0.14)"/><path class="cls-9" d="M62.3,35.21c-.29.53-.57,1.06-.85,1.6s-.56,1.07-.84,1.62" transform="translate(-0.14 -0.14)"/><path class="cls-9" d="M65.4,29.76q-.45.72-.87,1.47" transform="translate(-0.14 -0.14)"/><path class="cls-9" d="M67.53,26.33c-.32.48-.63,1-.94,1.47" transform="translate(-0.14 -0.14)"/><path class="cls-9" d="M71.58,20.5c-.43.57-.85,1.15-1.27,1.74" transform="translate(-0.14 -0.14)"/><path class="cls-9" d="M215.37,22.24c-.41-.59-.84-1.16-1.27-1.73" transform="translate(-0.14 -0.14)"/><path class="cls-9" d="M223.66,35.73c-.72-1.35-1.45-2.69-2.21-4q-.57-1-1.17-2c-.39-.66-.78-1.31-1.19-1.95s-.62-1-.94-1.47" transform="translate(-0.14 -0.14)"/><path class="cls-9" d="M229.9,48.65c-.18-.43-.37-.86-.57-1.28" transform="translate(-0.14 -0.14)"/><path class="cls-9" d="M238.9,71.89c-2.07-6-4.4-12.3-7-18.58" transform="translate(-0.14 -0.14)"/><path class="cls-9" d="M52.57,219.57c17.81,0,17.14-8.06,26.17-6.73,3.26,1.29,2.24,4,9.79,3.88,4.49-.2,7.64-1.93,13.46-.6,12.87,2.9,26.88,3.68,40.86,3.68s28-.78,40.85-3.68c5.82-1.33,9,.4,13.46.6,7.55.09,6.53-2.59,9.79-3.88,9-1.33,8.37,6.73,26.16,6.73" transform="translate(-0.14 -0.14)"/><path class="cls-9" d="M233.11,197.43l-3.74.2c-.38,0-.77.05-1.15.06-1.11.07-2.19.12-3.26.17l-1.25.07-2.31.11c-2.93.15-5.75.28-8.55.38l-4.95.19h-.49l-1.47,0c-5.94.19-12.08.32-19.22.4l-1.68,0-2.28,0-3.08,0c-9.81.08-21.57.09-36.83.08s-27,0-36.84-.08l-3.18,0-2.27,0-1.69,0c-7.13-.08-13.28-.21-19.22-.4l-1.11,0-1.17,0c-1.52-.05-3-.1-4.54-.17-2.58-.1-5.18-.21-7.86-.34l-2.06-.1-2.28-.12-2.34-.12L57,197.67l-4.43-.24" transform="translate(-0.14 -0.14)"/><path class="cls-9" d="M35.35,73.92l-.73.37" transform="translate(-0.14 -0.14)"/><path class="cls-9" d="M35.88,73.68l-.51.23" transform="translate(-0.14 -0.14)"/><path class="cls-9" d="M37.49,73.06l-.78.27" transform="translate(-0.14 -0.14)"/><path class="cls-9" d="M39.11,72.6l-.42.1-.84.25" transform="translate(-0.14 -0.14)"/><path class="cls-9" d="M41.15,72.2l-.93.16" transform="translate(-0.14 -0.14)"/><path class="cls-9" d="M44,71.92l-.33,0-.93.07" transform="translate(-0.14 -0.14)"/><path class="cls-9" d="M45.28,71.89c-.39,0-.78,0-1.16,0" transform="translate(-0.14 -0.14)"/><path class="cls-9" d="M241.33,71.91l-1,0" transform="translate(-0.14 -0.14)"/><path class="cls-9" d="M242.94,72l-.94-.07h-.21" transform="translate(-0.14 -0.14)"/><path class="cls-9" d="M245.42,72.35l-.84-.14" transform="translate(-0.14 -0.14)"/><path class="cls-9" d="M247.86,72.95,247,72.7l-.44-.11" transform="translate(-0.14 -0.14)"/><path class="cls-9" d="M249.08,73.37l-1-.35" transform="translate(-0.14 -0.14)"/><path class="cls-9" d="M34.55,74.33l-.32.18H251.46l-.38-.21c-.24-.14-.49-.26-.74-.38" transform="translate(-0.14 -0.14)"/><path class="cls-9" d="M53.82,53.27c-1.15,2.92,0,4.65,4.55,4.64H227.32c4.49,0,5.68-1.7,4.57-4.6l-.11-.27q-.91-2.2-1.88-4.39l-.57-1.28q-.42-1-.87-1.92c-1.51-3.31-3.11-6.56-4.8-9.72-.72-1.35-1.46-2.69-2.21-4-.38-.66-.77-1.33-1.17-2s-.79-1.3-1.19-1.95c-.31-.49-.62-1-.94-1.47-.4-.64-.81-1.26-1.23-1.87l-.64-.93c-.3-.44-.6-.87-.91-1.29-.42-.59-.84-1.16-1.27-1.73l0,0-.16-.23-.16-.23c-2.67-3.92-6-5.67-10.66-6.21l-.31,0c-19.9-2.1-40-2.2-60-2.19s-40.1.09-60,2.2l-.24,0c-4.64.54-8,2.29-10.65,6.21l-.16.23-.17.23s0,0,0,0c-.42.57-.85,1.15-1.27,1.74-.31.42-.61.85-.91,1.29l-.64.93c-.42.61-.83,1.23-1.23,1.87-.32.49-.63,1-.94,1.47-.41.65-.81,1.3-1.19,2q-.45.73-.87,1.47c-.76,1.3-1.51,2.63-2.23,4-.29.53-.57,1.06-.85,1.6s-.57,1.08-.84,1.62Q59.78,40,59,41.7c-.27.55-.53,1.1-.79,1.65s-.53,1.11-.78,1.67c-.52,1.12-1,2.23-1.51,3.36a1.59,1.59,0,0,0-.12.27c-.34.77-.68,1.54-1,2.31-.14.32-.28.64-.41,1s-.31.75-.47,1.12l0,.07Z" transform="translate(-0.14 -0.14)"/><path class="cls-9" d="M15.78,182.29v68.33a10.05,10.05,0,0,0,10,10H42.55a10.05,10.05,0,0,0,10-10V197.43l-.92-.06" transform="translate(-0.14 -0.14)"/><path class="cls-9" d="M18.34,187c-.16-.23-.32-.47-.47-.71" transform="translate(-0.14 -0.14)"/><path class="cls-9" d="M19.34,188.37l-.38-.48" transform="translate(-0.14 -0.14)"/><path class="cls-9" d="M20,189.09c-.14-.15-.28-.31-.41-.47" transform="translate(-0.14 -0.14)"/><path class="cls-9" d="M24.72,192.82q-.48-.25-.93-.54c-.3-.19-.6-.38-.88-.59a8.36,8.36,0,0,1-.84-.63,7.08,7.08,0,0,1-.68-.57" transform="translate(-0.14 -0.14)"/><path class="cls-9" d="M26.66,193.76c-.25-.1-.5-.21-.74-.33" transform="translate(-0.14 -0.14)"/><path class="cls-9" d="M28.92,194.61c-.35-.11-.7-.23-1-.36" transform="translate(-0.14 -0.14)"/><path class="cls-9" d="M31.77,195.4l-.74-.18" transform="translate(-0.14 -0.14)"/><path class="cls-9" d="M39,196.58l-1.19-.14-1.24-.16" transform="translate(-0.14 -0.14)"/><path class="cls-9" d="M49.21,197.27l-1.5-.07q-3.15-.14-5.92-.36l-1.37-.12-1.22-.12" transform="translate(-0.14 -0.14)"/><path class="cls-9" d="M245.73,196.68c-.54.06-1.1.1-1.66.15l-2,.15c-1.09.07-2.22.14-3.39.19s-2.59.12-4,.16l-1.61.1v53.19a10.05,10.05,0,0,0,10,10h16.76a10.05,10.05,0,0,0,10-10V182.29a2,2,0,0,1-.1.21" transform="translate(-0.14 -0.14)"/><path class="cls-9" d="M251.61,195.88q-.62.12-1.26.21" transform="translate(-0.14 -0.14)"/><path class="cls-9" d="M254.67,195.22l-.58.14-1,.23c-.38.09-.76.16-1.15.23" transform="translate(-0.14 -0.14)"/><path class="cls-9" d="M256.55,194.68l-.79.24" transform="translate(-0.14 -0.14)"/><path class="cls-9" d="M258.17,194.11l-.67.25" transform="translate(-0.14 -0.14)"/><path class="cls-9" d="M260.16,193.24l-.5.24-.56.25" transform="translate(-0.14 -0.14)"/><path class="cls-9" d="M262.69,191.75c-.24.17-.49.34-.74.49" transform="translate(-0.14 -0.14)"/><path class="cls-9" d="M267.21,187.24q-.3.43-.63.84a17.57,17.57,0,0,1-2.25,2.38c-.23.22-.47.41-.71.6s-.54.42-.82.62" transform="translate(-0.14 -0.14)"/><path class="cls-9" d="M267.8,186.36c-.18.29-.37.58-.57.85" transform="translate(-0.14 -0.14)"/><path class="cls-9" d="M269.42,183.39c-.31.67-.64,1.3-1,1.91-.17.3-.35.6-.54.89" transform="translate(-0.14 -0.14)"/><path class="cls-9" d="M98.47,177.26a17,17,0,0,0-6.54-1.74c-9.73-.25-58-.56-61.47-.75-6.07-.41-11.82-18.24-11.4-24.64.1-1.4.49-2.26,1.24-2.26H265.39c.75,0,1.14.86,1.24,2.26.42,6.4-5.33,24.23-11.4,24.64-3.47.19-51.8.5-61.53.75a16.31,16.31,0,0,0-6,1.49l-.59.26c-4,1.8-7.74,4.38-12,4.68-.29,0-.58,0-.88,0H111.4c-.22,0-.44,0-.67,0-4.37-.23-8.19-2.86-12.23-4.69" transform="translate(-0.14 -0.14)"/><path class="cls-9" d="M229.91,54.1l-.09-.24c-4.61-11.07-10.2-22.53-17.43-32.1l-.2-.27-.19-.27c-2.31-3.4-5.1-4.83-9.13-5.29-19.93-2.13-40-2.22-60-2.21s-40.1.08-60,2.21c-4,.46-6.82,1.89-9.14,5.29l-.18.27-.2.27c-7.24,9.57-12.83,21-17.43,32.1l0,.06c-.82,2,.85,1.87,2.53,1.87H227.32C228.82,55.79,230.61,56,229.91,54.1Z" transform="translate(-0.14 -0.14)"/><path class="cls-9" d="M261.63,91.94c-1.43-2.5-4.2-3.87-8.55-3.86H242" transform="translate(-0.14 -0.14)"/><path class="cls-9" d="M261.76,92.45v0" transform="translate(-0.14 -0.14)"/><path class="cls-9" d="M262.12,94c-.07-.32-.14-.63-.22-.94" transform="translate(-0.14 -0.14)"/><path class="cls-9" d="M263.77,102.74q-.45-3-1-5.7-.17-.82-.33-1.62" transform="translate(-0.14 -0.14)"/><path class="cls-9" d="M264.06,104.72c-.06-.49-.13-1-.21-1.45" transform="translate(-0.14 -0.14)"/><path class="cls-9" d="M264.45,107.7c-.09-.74-.18-1.47-.28-2.18" transform="translate(-0.14 -0.14)"/><path class="cls-9" d="M264.84,111.08c0-.4-.08-.79-.13-1.18" transform="translate(-0.14 -0.14)"/><path class="cls-9" d="M265.19,114.6c0-.45-.08-.9-.13-1.34" transform="translate(-0.14 -0.14)"/><path class="cls-9" d="M265.7,120.92q-.11-1.42-.21-2.79" transform="translate(-0.14 -0.14)"/><path class="cls-9" d="M265.95,124.93c0-.61-.07-1.21-.11-1.81" transform="translate(-0.14 -0.14)"/><path class="cls-9" d="M266.2,129.83c0-1-.1-2-.15-3.06" transform="translate(-0.14 -0.14)"/><path class="cls-9" d="M266.46,137.68c0-1.16-.06-2.31-.1-3.44l0-1" transform="translate(-0.14 -0.14)"/><line class="cls-9" x1="241.86" y1="142.64" x2="266.43" y2="142.62"/><path class="cls-9" d="M24.06,91.94c1.43-2.5,4.19-3.87,8.55-3.86H43.69" transform="translate(-0.14 -0.14)"/><path class="cls-9" d="M23.93,92.45v0" transform="translate(-0.14 -0.14)"/><path class="cls-9" d="M23.11,96.08c.06-.32.13-.63.2-.94" transform="translate(-0.14 -0.14)"/><path class="cls-9" d="M22.18,101.11c.11-.71.23-1.4.36-2.08" transform="translate(-0.14 -0.14)"/><path class="cls-9" d="M21.63,104.72c.06-.49.14-1,.21-1.45" transform="translate(-0.14 -0.14)"/><path class="cls-9" d="M21,109.9c.08-.69.16-1.37.24-2" transform="translate(-0.14 -0.14)"/><path class="cls-9" d="M20.3,116.77c.07-.9.15-1.79.24-2.66" transform="translate(-0.14 -0.14)"/><path class="cls-9" d="M19.94,121.58c0-.66.09-1.32.14-2" transform="translate(-0.14 -0.14)"/><path class="cls-9" d="M19.59,127.7q.09-2,.21-3.9" transform="translate(-0.14 -0.14)"/><path class="cls-9" d="M19.36,133.22c0-.61,0-1.22.07-1.82" transform="translate(-0.14 -0.14)"/><path class="cls-9" d="M19.32,134.24l0-1" transform="translate(-0.14 -0.14)"/><line class="cls-9" x1="43.55" y1="142.64" x2="18.98" y2="142.62"/><path class="cls-9" d="M248.63,123.41h10c3,0,5.45,2,5.45,4.4a4,4,0,0,1-1.6,3.1,6.13,6.13,0,0,1-3.85,1.29h-10c-3,0-5.46-2-5.46-4.39a4,4,0,0,1,1.6-3.11A6.24,6.24,0,0,1,248.63,123.41Z" transform="translate(-0.14 -0.14)"/><path class="cls-9" d="M37.06,123.41h-10c-3,0-5.46,2-5.46,4.4a4,4,0,0,0,1.61,3.1,6.11,6.11,0,0,0,3.85,1.29h10c3,0,5.45-2,5.45-4.39a4,4,0,0,0-1.6-3.11A6.19,6.19,0,0,0,37.06,123.41Z" transform="translate(-0.14 -0.14)"/><path class="cls-9" d="M123.36,84h39.8c3.73,0,1.83-5.71-1.89-5.71H124.42c-3.73,0-5.62,5.71-1.89,5.71Z" transform="translate(-0.14 -0.14)"/><circle class="cls-10" cx="124.35" cy="79.24" r="0.69"/><circle class="cls-10" cx="126.1" cy="79.24" r="0.69"/><circle class="cls-10" cx="127.85" cy="79.24" r="0.69"/><circle class="cls-10" cx="129.6" cy="79.24" r="0.69"/><circle class="cls-10" cx="131.34" cy="79.24" r="0.69"/><circle class="cls-10" cx="133.09" cy="79.24" r="0.69"/><circle class="cls-10" cx="134.84" cy="79.24" r="0.69"/><circle class="cls-10" cx="136.59" cy="79.24" r="0.69"/><path class="cls-10" d="M138.48,78.69a.69.69,0,1,1-.69.69A.68.68,0,0,1,138.48,78.69Z" transform="translate(-0.14 -0.14)"/><circle class="cls-10" cx="140.08" cy="79.24" r="0.69"/><circle class="cls-10" cx="141.83" cy="79.24" r="0.69"/><circle class="cls-10" cx="143.58" cy="79.24" r="0.69"/><circle class="cls-10" cx="145.33" cy="79.24" r="0.69"/><path class="cls-10" d="M147.21,78.69a.69.69,0,1,1-.68.69A.69.69,0,0,1,147.21,78.69Z" transform="translate(-0.14 -0.14)"/><circle class="cls-10" cx="148.82" cy="79.24" r="0.69"/><circle class="cls-10" cx="150.57" cy="79.24" r="0.69"/><circle class="cls-10" cx="152.32" cy="79.24" r="0.69"/><circle class="cls-10" cx="154.07" cy="79.24" r="0.69"/><circle class="cls-10" cx="155.81" cy="79.24" r="0.69"/><circle class="cls-10" cx="157.56" cy="79.24" r="0.69"/><circle class="cls-10" cx="159.31" cy="79.24" r="0.69"/><circle class="cls-10" cx="161.06" cy="79.24" r="0.69"/><circle class="cls-10" cx="124.35" cy="81.02" r="0.69"/><circle class="cls-10" cx="126.1" cy="81.02" r="0.69"/><circle class="cls-10" cx="127.85" cy="81.02" r="0.69"/><circle class="cls-10" cx="129.6" cy="81.02" r="0.69"/><circle class="cls-10" cx="131.34" cy="81.02" r="0.69"/><circle class="cls-10" cx="133.09" cy="81.02" r="0.69"/><circle class="cls-10" cx="134.84" cy="81.02" r="0.69"/><circle class="cls-10" cx="136.59" cy="81.02" r="0.69"/><path class="cls-10" d="M138.48,80.47a.69.69,0,1,1-.69.69A.68.68,0,0,1,138.48,80.47Z" transform="translate(-0.14 -0.14)"/><circle class="cls-10" cx="140.08" cy="81.02" r="0.69"/><circle class="cls-10" cx="141.83" cy="81.02" r="0.69"/><circle class="cls-10" cx="143.58" cy="81.02" r="0.69"/><circle class="cls-10" cx="145.33" cy="81.02" r="0.69"/><path class="cls-10" d="M147.21,80.47a.69.69,0,1,1-.68.69A.69.69,0,0,1,147.21,80.47Z" transform="translate(-0.14 -0.14)"/><circle class="cls-10" cx="148.82" cy="81.02" r="0.69"/><circle class="cls-10" cx="150.57" cy="81.02" r="0.69"/><circle class="cls-10" cx="152.32" cy="81.02" r="0.69"/><circle class="cls-10" cx="154.07" cy="81.02" r="0.69"/><circle class="cls-10" cx="155.81" cy="81.02" r="0.69"/><circle class="cls-10" cx="157.56" cy="81.02" r="0.69"/><circle class="cls-10" cx="159.31" cy="81.02" r="0.69"/><circle class="cls-10" cx="161.06" cy="81.02" r="0.69"/><path class="cls-10" d="M162.94,80.47a.69.69,0,1,1-.68.69A.69.69,0,0,1,162.94,80.47Z" transform="translate(-0.14 -0.14)"/><circle class="cls-10" cx="122.6" cy="81.02" r="0.69"/><path class="cls-10" d="M124.49,82.21a.69.69,0,1,1-.69.69A.69.69,0,0,1,124.49,82.21Z" transform="translate(-0.14 -0.14)"/><path class="cls-10" d="M126.24,82.21a.69.69,0,1,1-.69.69A.69.69,0,0,1,126.24,82.21Z" transform="translate(-0.14 -0.14)"/><path class="cls-10" d="M128,82.21a.69.69,0,1,1-.69.69A.69.69,0,0,1,128,82.21Z" transform="translate(-0.14 -0.14)"/><path class="cls-10" d="M129.74,82.21a.69.69,0,1,1-.69.69A.69.69,0,0,1,129.74,82.21Z" transform="translate(-0.14 -0.14)"/><path class="cls-10" d="M131.48,82.21a.69.69,0,1,1-.69.69A.69.69,0,0,1,131.48,82.21Z" transform="translate(-0.14 -0.14)"/><path class="cls-10" d="M133.23,82.21a.69.69,0,1,1-.69.69A.69.69,0,0,1,133.23,82.21Z" transform="translate(-0.14 -0.14)"/><path class="cls-10" d="M135,82.21a.69.69,0,1,1-.69.69A.69.69,0,0,1,135,82.21Z" transform="translate(-0.14 -0.14)"/><path class="cls-10" d="M136.73,82.21a.69.69,0,1,1-.69.69A.69.69,0,0,1,136.73,82.21Z" transform="translate(-0.14 -0.14)"/><path class="cls-10" d="M138.48,82.21a.69.69,0,1,1-.69.69A.68.68,0,0,1,138.48,82.21Z" transform="translate(-0.14 -0.14)"/><path class="cls-10" d="M140.22,82.21a.69.69,0,1,1-.69.69A.69.69,0,0,1,140.22,82.21Z" transform="translate(-0.14 -0.14)"/><path class="cls-10" d="M142,82.21a.69.69,0,1,1-.69.69A.69.69,0,0,1,142,82.21Z" transform="translate(-0.14 -0.14)"/><path class="cls-10" d="M143.72,82.21a.69.69,0,1,1-.69.69A.69.69,0,0,1,143.72,82.21Z" transform="translate(-0.14 -0.14)"/><path class="cls-10" d="M145.47,82.21a.69.69,0,1,1-.69.69A.69.69,0,0,1,145.47,82.21Z" transform="translate(-0.14 -0.14)"/><path class="cls-10" d="M147.21,82.21a.69.69,0,1,1,0,1.38.69.69,0,0,1,0-1.38Z" transform="translate(-0.14 -0.14)"/><path class="cls-10" d="M149,82.21a.69.69,0,1,1-.69.69A.69.69,0,0,1,149,82.21Z" transform="translate(-0.14 -0.14)"/><path class="cls-10" d="M150.71,82.21a.69.69,0,1,1-.69.69A.69.69,0,0,1,150.71,82.21Z" transform="translate(-0.14 -0.14)"/><path class="cls-10" d="M152.46,82.21a.69.69,0,1,1-.69.69A.69.69,0,0,1,152.46,82.21Z" transform="translate(-0.14 -0.14)"/><path class="cls-10" d="M154.21,82.21a.69.69,0,1,1-.69.69A.69.69,0,0,1,154.21,82.21Z" transform="translate(-0.14 -0.14)"/><path class="cls-10" d="M155.95,82.21a.69.69,0,1,1-.69.69A.69.69,0,0,1,155.95,82.21Z" transform="translate(-0.14 -0.14)"/><path class="cls-10" d="M157.7,82.21a.69.69,0,1,1-.69.69A.69.69,0,0,1,157.7,82.21Z" transform="translate(-0.14 -0.14)"/><path class="cls-10" d="M159.45,82.21a.69.69,0,1,1-.69.69A.69.69,0,0,1,159.45,82.21Z" transform="translate(-0.14 -0.14)"/><path class="cls-10" d="M161.2,82.21a.69.69,0,1,1-.69.69A.69.69,0,0,1,161.2,82.21Z" transform="translate(-0.14 -0.14)"/><path class="cls-10" d="M162.94,82.21a.69.69,0,0,1,0,1.38.69.69,0,0,1,0-1.38Z" transform="translate(-0.14 -0.14)"/><path class="cls-10" d="M122.74,82.21a.69.69,0,1,1-.69.69A.69.69,0,0,1,122.74,82.21Z" transform="translate(-0.14 -0.14)"/><path class="cls-9" d="M248.63,134.93h10c3,0,5.45,1.59,5.45,3.53a3.07,3.07,0,0,1-1.6,2.49,7.18,7.18,0,0,1-3.85,1h-10c-3,0-5.46-1.59-5.46-3.53a3.09,3.09,0,0,1,1.6-2.49A7.24,7.24,0,0,1,248.63,134.93Z" transform="translate(-0.14 -0.14)"/><path class="cls-9" d="M142.84,99.86h14.23c1,0,1.41.53,2.54.72h0a.91.91,0,0,0,1-.84c.27-2.41-.16-5-1.83-6.63a5.08,5.08,0,0,0-3.32-1.39c-4.19-.26-8.4-.39-12.6-.39s-8.41.13-12.6.39a5.06,5.06,0,0,0-3.32,1.39c-1.68,1.64-2.11,4.22-1.84,6.63a.9.9,0,0,0,1,.83c1.13-.19,1.51-.73,2.54-.72Z" transform="translate(-0.14 -0.14)"/><path class="cls-9" d="M29.33,79.06a14.84,14.84,0,0,1,4.92-4.55,2.38,2.38,0,0,1,.3-.18l.07,0,.73-.37s0,0,0,0l.51-.23c.27-.13.55-.24.83-.35s.51-.19.78-.27l.36-.11a7.44,7.44,0,0,1,.84-.25,3.2,3.2,0,0,1,.42-.1q.54-.14,1.11-.24c.3-.06.61-.12.93-.16.52-.08,1.06-.14,1.61-.19q.46,0,.93-.06c.11,0,.22,0,.33,0h.1c.38,0,.76,0,1.16,0h97.56" transform="translate(-0.14 -0.14)"/><path class="cls-9" d="M29.33,79.06l0,0a25.49,25.49,0,0,0-2.74,5.12.05.05,0,0,0,0,0,56.61,56.61,0,0,0-2.48,7.68,3.59,3.59,0,0,0-.12.47s0,0,0,0c-.22.86-.43,1.76-.62,2.69-.07.31-.14.62-.2.94-.2,1-.39,1.93-.57,3-.13.68-.24,1.37-.36,2.08-.05.25-.09.5-.12.76-.08.46-.15.93-.22,1.4l-.21,1.45c-.14,1-.27,2-.4,3a1.11,1.11,0,0,1,0,.17c0,.28-.07.57-.1.86s-.09.78-.14,1.17c-.15,1.36-.29,2.77-.43,4.21-.08.87-.16,1.76-.24,2.66s-.15,1.88-.22,2.84c0,.65-.09,1.31-.14,2s-.09,1.47-.14,2.22q-.12,1.9-.21,3.9c-.06,1.21-.11,2.44-.16,3.7,0,.6-.05,1.21-.07,1.82,0,.34,0,.68,0,1-.09,2.74-.15,5.58-.2,8.52q0,3.59-.06,7.37" transform="translate(-0.14 -0.14)"/><path class="cls-9" d="M256.36,79.06l-.05-.07a14.8,14.8,0,0,0-4.88-4.48,3.24,3.24,0,0,0-.35-.21c-.24-.13-.48-.26-.74-.38s-.83-.38-1.26-.55-.66-.25-1-.35l-.21-.07c-.28-.09-.57-.18-.87-.25l-.44-.11c-.37-.09-.74-.17-1.13-.24a7.36,7.36,0,0,0-.84-.14c-.53-.08-1.08-.15-1.64-.2-.31,0-.62,0-.94-.06l-.21,0-.46,0-1,0H142.84" transform="translate(-0.14 -0.14)"/><path class="cls-9" d="M259.28,84.56l.33.85a59.4,59.4,0,0,1,2,6.53,3.59,3.59,0,0,1,.12.47.06.06,0,0,1,0,0c.05.19.1.38.14.57s.15.62.22.94c.11.47.22,1,.33,1.46s.22,1.07.33,1.62c.3,1.53.59,3.14.85,4.83.05.29.09.57.14.87s.05.35.08.53l.21,1.45c0,.26.08.53.11.8.1.72.19,1.44.28,2.18.05.34.09.68.13,1s.09.78.13,1.17.09.78.13,1.18c.08.72.16,1.44.22,2.18.05.44.09.89.13,1.34.11,1.15.21,2.33.3,3.53q.1,1.36.21,2.79c0,.22,0,.44,0,.66s.05.68.07,1c0,.18,0,.35,0,.52,0,.6.08,1.2.11,1.81s.07,1.22.1,1.84c.05,1,.1,2,.15,3.06s.09,2.25.13,3.39c0,.34,0,.68,0,1,0,1.13.07,2.27.09,3.44.05,1.66.08,3.35.11,5.08q0,3.59.06,7.37" transform="translate(-0.14 -0.14)"/><path class="cls-9" d="M256.36,79.06l.11.15" transform="translate(-0.14 -0.14)"/><path class="cls-9" d="M20.52,101.38c-5.68,27-6.21,54.25.09,81.81" transform="translate(-0.14 -0.14)"/><path class="cls-9" d="M20.07,185a11.22,11.22,0,0,1-1.69,2.11" transform="translate(-0.14 -0.14)"/><path class="cls-9" d="M20.61,183.19a2.49,2.49,0,0,1-.38,1.53" transform="translate(-0.14 -0.14)"/><path class="cls-9" d="M20.07,185c.05-.09.1-.19.16-.28,4-5.77,40.27-7.47,78.27-7.45" transform="translate(-0.14 -0.14)"/><path class="cls-9" d="M265.15,101.38c5.68,27,6.21,54.25-.09,81.81" transform="translate(-0.14 -0.14)"/><path class="cls-9" d="M265.6,185a11.22,11.22,0,0,0,1.69,2.11" transform="translate(-0.14 -0.14)"/><path class="cls-9" d="M265.06,183.19a2.66,2.66,0,0,0,.49,1.72" transform="translate(-0.14 -0.14)"/><path class="cls-9" d="M265.6,185l-.05-.09c-3.33-5.9-40.15-7.64-78.34-7.64h-.6" transform="translate(-0.14 -0.14)"/><polyline class="cls-9" points="241.86 71.8 241.86 71.81 241.86 74.37 241.86 87.94 241.86 142.64 241.86 147.73"/><polyline class="cls-9" points="43.55 71.8 43.55 71.81 43.55 74.37 43.55 87.94 43.55 142.64 43.55 147.73"/><polyline class="cls-9" points="265.61 121.44 265.6 121.44 243.02 121.44"/><line class="cls-9" x1="19.8" y1="121.44" x2="42.39" y2="121.44"/><polyline class="cls-9" points="266.2 133.08 266.19 133.08 243 133.08"/><polyline class="cls-9" points="19.21 133.08 19.22 133.08 42.41 133.08"/><polyline class="cls-9" points="264.32 107.56 264.31 107.56 243.04 107.56"/><line class="cls-9" x1="21.09" y1="107.56" x2="42.37" y2="107.56"/><line class="cls-9" x1="265.67" y1="122.46" x2="243.02" y2="122.46"/><line class="cls-9" x1="19.74" y1="122.46" x2="42.39" y2="122.46"/><polyline class="cls-9" points="266.23 134.1 266.22 134.1 243 134.1"/><line class="cls-9" x1="19.18" y1="134.1" x2="42.41" y2="134.1"/><line class="cls-9" x1="264.44" y1="108.59" x2="243.04" y2="108.59"/><line class="cls-9" x1="20.97" y1="108.59" x2="42.37" y2="108.59"/><path class="cls-9" d="M258.61,109.8a5.45,5.45,0,0,1,0,10.9h-10a5.45,5.45,0,1,1,0-10.9Z" transform="translate(-0.14 -0.14)"/><path class="cls-9" d="M27.08,109.8a5.47,5.47,0,0,0-5.46,5.45,5.48,5.48,0,0,0,5.46,5.45h10a5.45,5.45,0,0,0,0-10.9Z" transform="translate(-0.14 -0.14)"/><path class="cls-9" d="M263.55,101.88c-.87,2.6-2.76,4.42-4.94,4.42h-10c-3,0-5.46-3.44-5.46-7.65a9.43,9.43,0,0,1,1.6-5.4A4.84,4.84,0,0,1,248.63,91h10a4.47,4.47,0,0,1,3.14,1.41h0" transform="translate(-0.14 -0.14)"/><path class="cls-9" d="M22.14,101.88c.87,2.6,2.76,4.42,4.94,4.42h10c3,0,5.45-3.44,5.45-7.65a9.35,9.35,0,0,0-1.6-5.4A4.81,4.81,0,0,0,37.06,91h-10a4.47,4.47,0,0,0-3.14,1.41h0" transform="translate(-0.14 -0.14)"/><path class="cls-9" d="M37.06,134.93h-10c-3,0-5.46,1.59-5.46,3.53a3.06,3.06,0,0,0,1.61,2.49,7.15,7.15,0,0,0,3.85,1h10c3,0,5.45-1.59,5.45-3.53a3.07,3.07,0,0,0-1.6-2.49A7.18,7.18,0,0,0,37.06,134.93Z" transform="translate(-0.14 -0.14)"/><path class="cls-9" d="M98.5,177.27h0A5.75,5.75,0,0,1,96.65,176a6.22,6.22,0,0,1-1-1.34c-2.37-5.89-3.4-13.09-4.47-20.22a3.18,3.18,0,0,1,.45-2c.66-1,2-1.42,3.73-1.43h94.88a4.6,4.6,0,0,1,3.54,1.18,3,3,0,0,1,.65,2.29c-1.08,7.13-2.11,14.33-4.48,20.22a5.7,5.7,0,0,1-1.65,2,5.62,5.62,0,0,1-.63.41c-.17.1-.34.18-.51.26" transform="translate(-0.14 -0.14)"/><polyline class="cls-9" points="82.68 13.65 82.68 2.25 82.68 2.24"/><polyline class="cls-9" points="202.65 13.65 202.65 13.64 202.65 2.24"/><polyline class="cls-9" points="211.66 89.78 210.89 89.78 210.76 89.78 142.7 89.78 142.68 89.78 74.64 89.78 74.51 89.78 73.74 89.78"/><path class="cls-9" d="M211,88.69a620.62,620.62,0,0,0-136.38,0" transform="translate(-0.14 -0.14)"/><path class="cls-9" d="M160.94,100.63c-.74,4.17-3.62,8.24-8.26,8.63a109.41,109.41,0,0,1-19.66,0c-4.63-.39-7.5-4.45-8.24-8.62-.81-4.47.85-9.06,5.43-9.34,4.23-.26,8.39-.39,12.61-.39s8.44.13,12.68.39C160.08,91.58,161.74,96.16,160.94,100.63Z" transform="translate(-0.14 -0.14)"/><path class="cls-9" d="M124.78,100.64a235.13,235.13,0,0,1-50-9.73" transform="translate(-0.14 -0.14)"/><path class="cls-9" d="M210.9,90.91a234.62,234.62,0,0,1-50,9.72h0" transform="translate(-0.14 -0.14)"/><line class="cls-9" x1="128.47" y1="100.07" x2="129.88" y2="107.87"/><line class="cls-9" x1="157.18" y1="100.07" x2="155.6" y2="107.87"/><path class="cls-9" d="M186.06,153.72c-.56-.86-1.68-1.24-3.15-1.25H102.8c-1.61,0-2.79.46-3.29,1.49a2.91,2.91,0,0,0-.24,1.53c.9,6.18,1.77,12.43,3.77,17.55a7,7,0,0,0,.52.83,4.83,4.83,0,0,0,1.85,1.46c2.78,1.29,5.44,3.05,8.33,3.76a10.38,10.38,0,0,0,2.56.32h53a10.74,10.74,0,0,0,2.72-.36c2.83-.73,5.44-2.45,8.17-3.72l.5-.23a4.72,4.72,0,0,0,1-.79,5.29,5.29,0,0,0,.9-1.27c2-5.12,2.87-11.37,3.78-17.55A2.78,2.78,0,0,0,186.06,153.72Z" transform="translate(-0.14 -0.14)"/><line class="cls-9" x1="102.63" y1="174.26" x2="97.68" y2="175.8"/><line class="cls-9" x1="113.46" y1="179.54" x2="110.6" y2="181.43"/><line class="cls-9" x1="182.91" y1="174.26" x2="187.86" y2="175.8"/><line class="cls-9" x1="172.08" y1="179.54" x2="174.94" y2="181.43"/><line class="cls-9" x1="98.75" y1="153.42" x2="92.16" y2="152.35"/><line class="cls-9" x1="186.51" y1="153.42" x2="193.1" y2="152.35"/><path class="cls-9" d="M256.47,75.44v3.77l.16.24.21.31c.25.38.49.77.73,1.2l.35.65c.45.85.89,1.8,1.31,2.83l0,.1s0,0,0,0c.13.28.26.56.38.85.21.45.41.92.61,1.39a23.34,23.34,0,0,1,6.49-1.58" transform="translate(-0.14 -0.14)"/><path class="cls-9" d="M268,85.07h0a54.63,54.63,0,0,0,11.35-1.74c3.53-1.21,5.74-4.52,6-10.92-.07-7.47-1.84-13.76-9.67-15.78a44.1,44.1,0,0,0-14.41,0c-3.42.56-4.86,4.06-4.87,10.13v8.58" transform="translate(-0.14 -0.14)"/><path class="cls-9" d="M266.7,85.22c-2.31.21-4,.06-7,.19h-.05" transform="translate(-0.14 -0.14)"/><path class="cls-9" d="M268,85.07c-.42.06-.82.1-1.2.14" transform="translate(-0.14 -0.14)"/><path class="cls-9" d="M256.47,75.34v.1c0,4.65,5.38,10,10.23,9.78h.19" transform="translate(-0.14 -0.14)"/><path class="cls-9" d="M266.49,83.81h.15l1.17-.14H268A52.53,52.53,0,0,0,279,82c4-1.39,4.86-5.85,5-9.59-.07-6.63-1.39-12.5-8.54-14.37a42.87,42.87,0,0,0-13.89,0c-3.53.57-3.68,6.05-3.69,8.73v8.77C257.95,79.39,262.61,83.86,266.49,83.81Z" transform="translate(-0.14 -0.14)"/><path class="cls-9" d="M29.2,75.43v3.78a26.8,26.8,0,0,0-2.8,5.33s0,0,0,0c-.13.28-.26.56-.38.84a1.94,1.94,0,0,0-.13.3c-.17.36-.32.72-.48,1.09a23.72,23.72,0,0,0-6.53-1.59" transform="translate(-0.14 -0.14)"/><path class="cls-9" d="M17.64,85.07h0A54.63,54.63,0,0,1,6.27,83.33C2.74,82.12.53,78.81.25,72.41c.07-7.47,1.83-13.76,9.66-15.78a44.16,44.16,0,0,1,14.42,0c3.42.56,4.86,4.06,4.87,10.13v8.58" transform="translate(-0.14 -0.14)"/><path class="cls-9" d="M19,85.22c2.31.21,4,.06,7,.19h0" transform="translate(-0.14 -0.14)"/><path class="cls-9" d="M17.64,85.07c.42.06.82.1,1.19.14" transform="translate(-0.14 -0.14)"/><path class="cls-9" d="M29.2,75.34v.09c0,4.65-5.39,10-10.23,9.79h-.1s0,0,0,0h0" transform="translate(-0.14 -0.14)"/><path class="cls-9" d="M19.17,83.81H19l-1.18-.14h-.14A52.43,52.43,0,0,1,6.7,82c-4-1.39-4.86-5.85-5-9.59C1.73,65.76,3,59.89,10.21,58A42.87,42.87,0,0,1,24.1,58c3.53.57,3.68,6.05,3.69,8.73v8.77C27.72,79.39,23.06,83.86,19.17,83.81Z" transform="translate(-0.14 -0.14)"/><path class="cls-5" d="M142.17,124.79a1.66,1.66,0,0,1,1.5-.79c1,0,1.53.6,1.53,1.63v3h-1V126c0-.62-.08-1.18-.87-1.18-.6,0-1.1.33-1.1,1.37v2.43h-1v-4.51h.94Z" transform="translate(-0.14 -0.14)"/><path class="cls-5" d="M150.07,128c-.18,0-.24-.07-.24-.33v-2.29c0-1-.79-1.36-1.85-1.36s-1.86.42-2,1.53h.94c.08-.59.36-.8,1-.8s.93.22.93.68a.55.55,0,0,1-.06.32c-.1.13-.3.17-1,.26-.9.11-2,.23-2,1.43a1.34,1.34,0,0,0,1.52,1.35,2.24,2.24,0,0,0,1.58-.54.65.65,0,0,0,.73.54,2.34,2.34,0,0,0,.65-.1V128Zm-1.4-.29a1.47,1.47,0,0,1-1,.36c-.52,0-.81-.24-.81-.67,0-.59.52-.68,1-.75a2.88,2.88,0,0,0,1-.24v.53A1,1,0,0,1,148.67,127.69Z" transform="translate(-0.14 -0.14)"/><polygon class="cls-5" points="151.11 123.99 152.26 127.46 153.38 123.99 154.41 123.99 152.79 128.51 151.67 128.51 150.02 123.99 151.11 123.99"/><rect class="cls-5" x="155" y="122.25" width="1" height="0.98"/><rect class="cls-5" x="155" y="123.99" width="1" height="4.51"/><path class="cls-5" d="M159,128.76a2.15,2.15,0,0,1-2.22-2.33A2.2,2.2,0,0,1,159,124a1.82,1.82,0,0,1,2,1.65h-1a1,1,0,0,0-1-.88c-.77,0-1.24.61-1.24,1.62S158.22,128,159,128a1.07,1.07,0,0,0,1.09-1h1A2,2,0,0,1,159,128.76Z" transform="translate(-0.14 -0.14)"/><path class="cls-5" d="M163.82,124a2.39,2.39,0,0,0,0,4.79,2.4,2.4,0,0,0,0-4.79Zm0,4c-.8,0-1.29-.6-1.29-1.62s.49-1.6,1.28-1.6,1.27.6,1.27,1.59S164.6,128,163.81,128Z" transform="translate(-0.14 -0.14)"/><path class="cls-5" d="M167.57,124.77A1.65,1.65,0,0,1,169,124a1.28,1.28,0,0,1,1.26.77,1.7,1.7,0,0,1,1.46-.77,1.37,1.37,0,0,1,1.48,1.43v3.2h-1v-2.77c0-.55-.11-1-.8-1s-1,.44-1,1.15v2.65h-1v-2.83c0-.54-.08-1-.74-1s-1,.5-1,1.2v2.6h-1v-4.51h.94Z" transform="translate(-0.14 -0.14)"/><path class="cls-5" d="M145.36,133.32c0-1.56-.82-2.53-2.14-2.53a2.25,2.25,0,0,0-2.19,2.44,2.17,2.17,0,0,0,2.22,2.35,2,2,0,0,0,2-1.56h-1a1,1,0,0,1-1.08.82c-.77,0-1.22-.52-1.24-1.43h3.33Zm-3.32-.56c.1-.8.51-1.22,1.16-1.22a1.17,1.17,0,0,1,1.15,1.22Z" transform="translate(-0.14 -0.14)"/><path class="cls-5" d="M146.89,131.59a1.66,1.66,0,0,1,1.5-.79c1,0,1.53.6,1.53,1.63v3h-1v-2.62c0-.62-.08-1.18-.87-1.18-.6,0-1.1.33-1.1,1.37v2.43h-1v-4.51h.94Z" transform="translate(-0.14 -0.14)"/><path class="cls-5" d="M154.87,133.32c0-1.56-.82-2.53-2.14-2.53a2.25,2.25,0,0,0-2.19,2.44,2.17,2.17,0,0,0,2.22,2.35,2,2,0,0,0,2-1.56h-1a1,1,0,0,1-1.08.82c-.77,0-1.22-.52-1.24-1.43h3.33Zm-3.32-.56c.1-.8.51-1.22,1.16-1.22a1.17,1.17,0,0,1,1.15,1.22Z" transform="translate(-0.14 -0.14)"/><path class="cls-5" d="M158.1,131.79l-.35,0c-1,0-1.3.74-1.3,1.69v2h-1v-4.51h.94v.9a1.6,1.6,0,0,1,1.51-1l.19,0Z" transform="translate(-0.14 -0.14)"/><path class="cls-5" d="M161.79,130.92v.63a1.56,1.56,0,0,0-1.41-.75,2.06,2.06,0,0,0-2,2.34,2,2,0,0,0,2,2.25,1.55,1.55,0,0,0,1.43-.76v.53c0,.93-.36,1.33-1.19,1.33-.63,0-1-.21-1-.67h-1c.11.92.8,1.37,2,1.37,1.63,0,2.17-.8,2.17-2.28v-4Zm-1.23,3.69c-.73,0-1.2-.58-1.2-1.49s.45-1.52,1.2-1.52,1.21.55,1.21,1.47S161.3,134.62,160.56,134.62Z" transform="translate(-0.14 -0.14)"/><path class="cls-5" d="M165.94,135.35c-.32.87-.57,1.81-1.68,1.81a4.66,4.66,0,0,1-.69-.05v-.84a2.55,2.55,0,0,0,.52.06c.51,0,.64-.63.77-1l-1.73-4.38h1.09l1.21,3.32,1.14-3.32h1Z" transform="translate(-0.14 -0.14)"/><path class="cls-5" d="M142.17,124.79a1.66,1.66,0,0,1,1.5-.79c1,0,1.53.6,1.53,1.63v3h-1V126c0-.62-.08-1.18-.87-1.18-.6,0-1.1.33-1.1,1.37v2.43h-1v-4.51h.94Z" transform="translate(-0.14 -0.14)"/><path class="cls-5" d="M150.07,128c-.18,0-.24-.07-.24-.33v-2.29c0-1-.79-1.36-1.85-1.36s-1.86.42-2,1.53h.94c.08-.59.36-.8,1-.8s.93.22.93.68a.55.55,0,0,1-.06.32c-.1.13-.3.17-1,.26-.9.11-2,.23-2,1.43a1.34,1.34,0,0,0,1.52,1.35,2.24,2.24,0,0,0,1.58-.54.65.65,0,0,0,.73.54,2.34,2.34,0,0,0,.65-.1V128Zm-1.4-.29a1.47,1.47,0,0,1-1,.36c-.52,0-.81-.24-.81-.67,0-.59.52-.68,1-.75a2.88,2.88,0,0,0,1-.24v.53A1,1,0,0,1,148.67,127.69Z" transform="translate(-0.14 -0.14)"/><polygon class="cls-5" points="151.11 123.99 152.26 127.46 153.38 123.99 154.41 123.99 152.79 128.51 151.67 128.51 150.02 123.99 151.11 123.99"/><rect class="cls-5" x="155" y="122.25" width="1" height="0.98"/><rect class="cls-5" x="155" y="123.99" width="1" height="4.51"/><path class="cls-5" d="M159,128.76a2.15,2.15,0,0,1-2.22-2.33A2.2,2.2,0,0,1,159,124a1.82,1.82,0,0,1,2,1.65h-1a1,1,0,0,0-1-.88c-.77,0-1.24.61-1.24,1.62S158.22,128,159,128a1.07,1.07,0,0,0,1.09-1h1A2,2,0,0,1,159,128.76Z" transform="translate(-0.14 -0.14)"/><path class="cls-5" d="M163.82,124a2.39,2.39,0,0,0,0,4.79,2.4,2.4,0,0,0,0-4.79Zm0,4c-.8,0-1.29-.6-1.29-1.62s.49-1.6,1.28-1.6,1.27.6,1.27,1.59S164.6,128,163.81,128Z" transform="translate(-0.14 -0.14)"/><path class="cls-5" d="M167.57,124.77A1.65,1.65,0,0,1,169,124a1.28,1.28,0,0,1,1.26.77,1.7,1.7,0,0,1,1.46-.77,1.37,1.37,0,0,1,1.48,1.43v3.2h-1v-2.77c0-.55-.11-1-.8-1s-1,.44-1,1.15v2.65h-1v-2.83c0-.54-.08-1-.74-1s-1,.5-1,1.2v2.6h-1v-4.51h.94Z" transform="translate(-0.14 -0.14)"/><path class="cls-5" d="M145.36,133.32c0-1.56-.82-2.53-2.14-2.53a2.25,2.25,0,0,0-2.19,2.44,2.17,2.17,0,0,0,2.22,2.35,2,2,0,0,0,2-1.56h-1a1,1,0,0,1-1.08.82c-.77,0-1.22-.52-1.24-1.43h3.33Zm-3.32-.56c.1-.8.51-1.22,1.16-1.22a1.17,1.17,0,0,1,1.15,1.22Z" transform="translate(-0.14 -0.14)"/><path class="cls-5" d="M146.89,131.59a1.66,1.66,0,0,1,1.5-.79c1,0,1.53.6,1.53,1.63v3h-1v-2.62c0-.62-.08-1.18-.87-1.18-.6,0-1.1.33-1.1,1.37v2.43h-1v-4.51h.94Z" transform="translate(-0.14 -0.14)"/><path class="cls-5" d="M154.87,133.32c0-1.56-.82-2.53-2.14-2.53a2.25,2.25,0,0,0-2.19,2.44,2.17,2.17,0,0,0,2.22,2.35,2,2,0,0,0,2-1.56h-1a1,1,0,0,1-1.08.82c-.77,0-1.22-.52-1.24-1.43h3.33Zm-3.32-.56c.1-.8.51-1.22,1.16-1.22a1.17,1.17,0,0,1,1.15,1.22Z" transform="translate(-0.14 -0.14)"/><path class="cls-5" d="M158.1,131.79l-.35,0c-1,0-1.3.74-1.3,1.69v2h-1v-4.51h.94v.9a1.6,1.6,0,0,1,1.51-1l.19,0Z" transform="translate(-0.14 -0.14)"/><path class="cls-5" d="M161.79,130.92v.63a1.56,1.56,0,0,0-1.41-.75,2.06,2.06,0,0,0-2,2.34,2,2,0,0,0,2,2.25,1.55,1.55,0,0,0,1.43-.76v.53c0,.93-.36,1.33-1.19,1.33-.63,0-1-.21-1-.67h-1c.11.92.8,1.37,2,1.37,1.63,0,2.17-.8,2.17-2.28v-4Zm-1.23,3.69c-.73,0-1.2-.58-1.2-1.49s.45-1.52,1.2-1.52,1.21.55,1.21,1.47S161.3,134.62,160.56,134.62Z" transform="translate(-0.14 -0.14)"/><path class="cls-5" d="M165.94,135.35c-.32.87-.57,1.81-1.68,1.81a4.66,4.66,0,0,1-.69-.05v-.84a2.55,2.55,0,0,0,.52.06c.51,0,.64-.63.77-1l-1.73-4.38h1.09l1.21,3.32,1.14-3.32h1Z" transform="translate(-0.14 -0.14)"/><path class="cls-5" d="M118,120.47v18.67h19.12V120.47Zm18.21,17.76h-17.3V121.38h17.3Z" transform="translate(-0.14 -0.14)"/><path class="cls-5" d="M130.31,126.66v.87a.23.23,0,0,0,.31.22l2.27-.85a.23.23,0,0,0,.15-.22v-.87a.23.23,0,0,0-.31-.22l-2.27.85A.23.23,0,0,0,130.31,126.66Z" transform="translate(-0.14 -0.14)"/><path class="cls-5" d="M124.53,131.4l-2.27.85a.23.23,0,0,0-.15.22v.87a.23.23,0,0,0,.31.22l2.27-.85a.23.23,0,0,0,.15-.22v-.87A.23.23,0,0,0,124.53,131.4Z" transform="translate(-0.14 -0.14)"/><path class="cls-5" d="M130.41,130.56l2.48-.93a.23.23,0,0,0,.15-.22v-.87a.23.23,0,0,0-.31-.22l-2.31.87a.23.23,0,0,1-.2,0l-5.27-3.29a.23.23,0,0,0-.2,0l-2.48.93a.23.23,0,0,0-.15.22v.87a.23.23,0,0,0,.31.22l2.31-.87a.23.23,0,0,1,.2,0l5.27,3.29A.23.23,0,0,0,130.41,130.56Z" transform="translate(-0.14 -0.14)"/><path class="cls-5" d="M130.41,133.29l2.48-.93a.23.23,0,0,0,.15-.22v-.87a.23.23,0,0,0-.31-.22l-2.31.87a.23.23,0,0,1-.2,0l-5.27-3.29a.23.23,0,0,0-.2,0l-2.48.93a.23.23,0,0,0-.15.22v.87a.23.23,0,0,0,.31.22l2.31-.87a.23.23,0,0,1,.2,0l5.27,3.29A.23.23,0,0,0,130.41,133.29Z" transform="translate(-0.14 -0.14)"/></g></g></svg>