<svg xmlns="http://www.w3.org/2000/svg" viewBox="0 0 230 230"><defs><style>.cls-1{fill:#ccc;}.cls-2{fill:#fff;}</style></defs><title>ubs_prot_14</title><g id="Слой_2" data-name="Слой 2"><g id="Layer_1" data-name="Layer 1"><rect class="cls-1" width="230" height="230" rx="10" ry="10" transform="translate(230 0) rotate(90)"/><path class="cls-2" d="M197.19,147.54h0l2.66,2.66a5,5,0,0,0,7.07-7.07l-8.33-8.33L184,120.16l-7.07,7.07Z"/><path class="cls-2" d="M138,127.23l-7.07-7.07L93.8,157.28l7.07,7.07h0L126.48,190h0l16.8,16.8a5,5,0,0,0,7.07-7.07l-34.48-34.48h0l-7.93-7.93,7.07-7.07,10.6,10.61h0L139.76,175a5,5,0,0,0,7.07-7.07l-14.14-14.14h0l-10.6-10.6,7.07-7.07,24.75,24.75a5,5,0,0,0,7.07-7.07L136.23,129Z"/><path class="cls-2" d="M86.42,207.08,100.5,193h0l9.2-9.2-7.07-7.07-9.46,9.46L79.35,200a5,5,0,0,0,7.07,7.07Z"/><path class="cls-2" d="M95.56,169.66l-3.46-3.46-.06-.07-.07-.06-3.48-3.48-5.28,5.3A5,5,0,1,0,90.27,175Z"/><path class="cls-2" d="M100.88,136.07l1.76,1.76,7.07-7.07-5.3-5.3L79.66,100.71h0l-7.07-7.07L33.43,132.8,23.08,143.15a5,5,0,0,0,7.07,7.07L58.07,122.3h0l14.51-14.51,7.07,7.07L69.06,125.46h0L54.92,139.6A5,5,0,0,0,62,146.67l14.14-14.14,0,0,10.58-10.58L93.81,129,69.06,153.74a5,5,0,1,0,7.07,7.07Z"/><path class="cls-2" d="M168,146.68a5,5,0,0,0,7.07-7.07l-1.77-1.77-.09-.07-3.46-3.46-7.07,7.07,3.54,3.54h0Z"/><path class="cls-2" d="M53.15,102.48,34.56,83.89h0l-4.41-4.41a5,5,0,1,0-7.07,7.07L34.56,98h0l11.51,11.51Z"/><path class="cls-2" d="M92,102.48l7.07,7.07,23-23h0l14.14-14.14L118.55,54.75,86.72,22.92A5,5,0,1,0,79.65,30l22.09,22.09h0l5.53,5.53,4.22,4.22h0l10.61,10.61L115,79.5h0L104.41,68.89h0L90.27,54.75a5,5,0,1,0-7.07,7.07L97.34,76h0l10.6,10.61-7.07,7.07L76.13,68.89A5,5,0,1,0,69.06,76L93.8,100.71Z"/><path class="cls-2" d="M125.25,41h0l-4.92,4.92L127.39,53l12-12h0l11-11a5,5,0,0,0-7.07-7.07Z"/><path class="cls-2" d="M138,56.52h0l-3.54,3.54,7.07,7.07L145,63.65l.07-.06,1.77-1.77a5,5,0,1,0-7.07-7.07Z"/><path class="cls-2" d="M129.16,93.64l-1.77-1.77-7.07,7.07,5.3,5.3h0l17.67,17.68,14.14,14.14,15.65-15.65,33.84-33.84a5,5,0,1,0-7.07-7.07L168,111.32h0l-10.61,10.61-3.54-3.54h0l-3.54-3.54,10.6-10.6h0l14.14-14.14A5,5,0,1,0,168,83L153.91,97.18h0L143.3,107.78l-7.07-7.07L161,76a5,5,0,1,0-7.07-7.07Z"/><path class="cls-2" d="M62,83a5,5,0,1,0-7.07,7.07l5.29,5.31,3.51-3.51,0,0,0,0,3.49-3.49Z"/></g></g></svg>