<svg xmlns="http://www.w3.org/2000/svg" viewBox="0 0 311.34 311.12"><defs><style>.cls-1{fill:#ccc;}.cls-1,.cls-2{stroke:#fff;stroke-miterlimit:10;stroke-width:5px;}.cls-2{fill:none;}</style></defs><title>ubs_prot_1</title><g id="Слой_2" data-name="Слой 2"><g id="Layer_1" data-name="Layer 1"><rect class="cls-1" x="48.05" y="48.06" width="214.96" height="214.96" transform="translate(-64.42 155.53) rotate(-45)"/><rect class="cls-2" x="16.49" y="126.3" width="59.02" height="59.02" transform="translate(-96.7 78.16) rotate(-45)"/><rect class="cls-2" x="126.53" y="16.26" width="59.02" height="59.02" transform="translate(13.34 123.74) rotate(-45)"/><rect class="cls-2" x="126.53" y="236.34" width="59.02" height="59.02" transform="translate(-142.28 188.2) rotate(-45)"/><rect class="cls-2" x="236.56" y="126.3" width="59.02" height="59.02" transform="translate(-32.24 233.78) rotate(-45)"/><polygon class="cls-2" points="184.54 144.32 205.25 123.61 205.25 105.61 187.25 105.61 166.52 126.34 143.34 126.34 122.61 105.61 104.61 105.61 104.61 123.61 126.54 145.54 126.54 167.9 104.61 189.84 104.61 207.84 122.61 207.84 146.1 184.34 163.76 184.34 187.25 207.84 205.25 207.84 205.25 189.84 184.54 169.12 184.54 144.32"/><line class="cls-2" x1="156.04" y1="87.51" x2="156.04" y2="126.34"/><line class="cls-2" x1="87.73" y1="155.81" x2="126.54" y2="155.81"/><line class="cls-2" x1="224.34" y1="155.81" x2="184.54" y2="155.81"/><line class="cls-2" x1="156.04" y1="224.11" x2="156.04" y2="184.34"/></g></g></svg>