<svg xmlns="http://www.w3.org/2000/svg" viewBox="0 0 350.73 350.72"><defs><style>.cls-1{fill:none;stroke:#ccc;stroke-miterlimit:10;stroke-width:8px;}</style></defs><title>ubs_prot_6</title><g id="Слой_2" data-name="Слой 2"><g id="Layer_1" data-name="Layer 1"><rect class="cls-1" x="55.36" y="55.36" width="240" height="240" transform="translate(175.36 -72.64) rotate(45)"/><polyline class="cls-1" points="210.72 83.44 224.86 83.44 239 69.3 231.93 62.23"/><polyline class="cls-1" points="231.93 175.36 246.07 161.22 253.15 168.29 267.29 154.15 267.29 140.01 288.5 118.79 239 69.3 224.86 83.44 210.72 83.44 175.36 118.79"/><polyline class="cls-1" points="203.65 118.79 189.5 132.94 132.94 189.5"/><line class="cls-1" x1="189.51" y1="161.22" x2="217.79" y2="132.94"/><line class="cls-1" x1="203.65" y1="175.36" x2="231.93" y2="147.08"/><polyline class="cls-1" points="140.01 267.29 125.86 267.29 111.72 281.43 118.79 288.5"/><polyline class="cls-1" points="118.79 175.36 104.65 189.5 97.58 182.43 83.44 196.58 83.44 210.72 62.23 231.93 111.72 281.43 125.86 267.29 140.01 267.29 175.36 231.93"/><path class="cls-1" d="M203.65,175.36s-42.43,40.54-42.43,42.43l-14.14,14.14"/><line class="cls-1" x1="161.22" y1="189.5" x2="132.94" y2="217.79"/><line class="cls-1" x1="132.94" y1="189.5" x2="118.79" y2="203.65"/><polyline class="cls-1" points="267.29 210.72 267.29 224.86 281.43 239 288.5 231.93"/><polyline class="cls-1" points="161.22 217.79 175.36 231.93 189.5 246.07 182.43 253.14 196.58 267.29 210.72 267.29 231.93 288.5 281.43 239 267.29 224.86 267.29 210.72 231.93 175.36 217.79 189.5"/><polyline class="cls-1" points="175.36 147.08 217.79 189.5 231.93 203.65"/><line class="cls-1" x1="189.51" y1="189.5" x2="217.79" y2="217.79"/><polyline class="cls-1" points="147.08 175.36 175.36 203.65 203.65 231.93"/><polyline class="cls-1" points="83.44 140.01 83.44 125.86 69.3 111.72 62.23 118.79"/><line class="cls-1" x1="147.08" y1="175.36" x2="118.79" y2="147.08"/><line class="cls-1" x1="161.22" y1="161.22" x2="132.94" y2="132.94"/><line class="cls-1" x1="175.36" y1="147.08" x2="147.08" y2="118.79"/><path class="cls-1" d="M175.36,147.08"/><path class="cls-1" d="M161.22,161.22"/><path class="cls-1" d="M147.08,175.36"/><polyline class="cls-1" points="189.5 132.94 175.36 118.79 173.59 117.03 171.83 115.26 170.06 113.49 168.29 111.72 168.29 111.72 168.29 111.72 168.29 111.72 168.29 111.72 168.29 111.72 168.29 111.72 168.29 111.72 168.29 111.72 166.52 109.95 164.76 108.19 162.99 106.42 161.22 104.65 162.99 102.88 164.76 101.12 166.52 99.35 168.29 97.58 164.76 94.05 161.22 90.51 157.69 86.97 154.15 83.44 150.61 83.44 147.08 83.44 143.54 83.44 140.01 83.44 134.7 78.14 129.4 72.83 124.1 67.53 118.79 62.23 106.42 74.6 94.05 86.97 81.67 99.35 69.3 111.72 72.83 115.26 76.37 118.79 79.9 122.33 83.44 125.86 83.44 129.4 83.44 132.94 83.44 136.47 83.44 140.01 92.28 148.85 101.12 157.69 109.95 166.52 118.79 175.36 132.94 189.5"/></g></g></svg>