<svg xmlns="http://www.w3.org/2000/svg" viewBox="0 0 201.53 201.52"><defs><style>.cls-1{fill:#ccc;}.cls-2,.cls-3{fill:#fff;}.cls-3{stroke:#333;}.cls-3,.cls-4{stroke-miterlimit:10;stroke-width:5px;}.cls-4{fill:none;stroke:#fff;}</style></defs><title>ubs_prot_15</title><g id="Слой_2" data-name="Слой 2"><g id="Layer_1" data-name="Layer 1"><rect class="cls-1" x="3.89" y="3.89" width="193.74" height="193.74" transform="translate(201.51 201.54) rotate(-179.99)"/><polygon class="cls-2" points="72.48 104.3 57.46 89.27 42.43 74.25 39.22 67.5 45.96 70.71 59.22 83.97 72.48 97.23 77.79 91.92 83.09 86.62 69.83 73.36 56.57 60.1 53.36 53.36 60.1 56.57 73.36 69.83 86.62 83.08 91.93 77.78 97.23 72.48 91.04 66.29 84.85 60.1 86.62 58.34 88.39 56.57 96.34 64.52 104.3 72.48 88.39 88.39 72.48 104.3"/><polygon class="cls-2" points="84.85 60.1 77.78 53.03 70.71 45.96 67.5 39.22 74.25 42.43 81.32 49.5 88.39 56.57 86.62 58.34 84.85 60.1"/><polygon class="cls-2" points="141.43 144.96 128.17 131.7 114.91 118.44 109.61 123.74 104.3 129.05 110.49 135.23 116.68 141.42 114.91 143.19 113.14 144.96 105.19 137 97.23 129.05 113.14 113.14 129.05 97.23 137.01 105.18 144.96 113.14 143.19 114.9 141.43 116.67 135.24 110.48 129.05 104.3 123.75 109.6 118.44 114.9 131.71 128.16 144.96 141.42 148.19 148.18 141.43 144.96"/><polygon class="cls-2" points="127.29 159.1 120.22 152.03 113.14 144.96 114.91 143.19 116.68 141.42 123.75 148.49 130.82 155.56 134.05 162.32 127.29 159.1"/><polygon class="cls-2" points="155.57 130.81 148.5 123.74 141.43 116.67 143.19 114.91 144.96 113.14 152.03 120.21 159.1 127.28 162.33 134.04 155.57 130.81"/><polygon class="cls-2" points="129.05 104.3 113.14 88.39 116.68 84.85 129.05 97.23 141.43 84.85 144.96 88.39 129.05 104.3"/><polygon class="cls-2" points="116.68 88.39 114.91 86.62 113.14 84.85 127.28 70.71 141.43 56.57 148.18 53.34 144.96 60.1 130.82 74.25 116.68 88.39"/><polygon class="cls-2" points="113.14 88.39 97.23 72.48 113.14 56.57 116.67 60.1 104.3 72.48 116.68 84.85 113.14 88.39"/><polygon class="cls-2" points="144.96 3.54 141.42 0 100.76 40.66 60.1 0 56.57 3.54 99 45.96 100.76 47.73 144.96 3.54"/><polygon class="cls-2" points="160.87 100.76 201.53 60.1 197.99 56.57 157.34 97.23 157.34 97.23 153.8 100.76 198 144.96 201.53 141.42 160.87 100.76"/><polygon class="cls-2" points="144.96 88.39 143.19 86.62 141.43 84.85 148.5 77.78 155.57 70.71 162.32 67.49 159.1 74.25 152.03 81.32 144.96 88.39"/><polygon class="cls-2" points="116.68 60.1 114.91 58.34 113.14 56.57 120.21 49.5 127.28 42.43 134.04 39.2 130.82 45.96 123.75 53.03 116.68 60.1"/><polygon class="cls-2" points="74.26 159.1 67.5 162.32 70.72 155.56 83.98 142.3 97.23 129.05 91.93 123.74 86.63 118.44 73.37 131.7 60.12 144.96 53.36 148.18 56.58 141.42 69.84 128.16 83.09 114.91 77.79 109.6 72.48 104.3 66.3 110.48 60.11 116.67 58.34 114.9 56.57 113.14 64.53 105.18 72.48 97.23 79.56 104.3 86.63 111.37 86.63 111.37 86.63 111.37 87.49 112.23 88.36 113.1 89.3 113.96 90.24 114.83 90.2 114.86 90.16 114.9 97.23 121.97 104.3 129.05 89.28 144.07 74.26 159.1"/><polygon class="cls-2" points="144.97 197.99 100.77 153.79 56.58 197.99 60.11 201.52 100.77 160.87 141.43 201.52 144.97 197.99"/><polygon class="cls-2" points="47.73 100.76 3.54 56.57 0 60.1 40.66 100.76 0.01 141.42 3.54 144.96 44.2 104.3 44.2 104.3 47.73 100.76"/><polygon class="cls-2" points="45.97 130.81 39.22 134.03 42.44 127.28 49.51 120.21 56.58 113.14 58.35 114.9 60.11 116.67 53.04 123.74 45.97 130.81"/><path class="cls-3" d="M162.33,134"/><rect class="cls-2" x="77.24" y="77.23" width="47.06" height="47.06" transform="translate(-41.74 100.78) rotate(-45.01)"/><line class="cls-4" x1="100.76" y1="43.43" x2="88.01" y2="56.18"/><line class="cls-4" x1="158.3" y1="100.93" x2="144.44" y2="87.07"/><line class="cls-4" x1="100.77" y1="157.76" x2="112.62" y2="145.91"/><line class="cls-4" x1="41.85" y1="99.37" x2="57.47" y2="114.99"/></g></g></svg>