<svg xmlns="http://www.w3.org/2000/svg" viewBox="0 0 238 238"><defs><style>.cls-1{fill:#ccc;}</style></defs><title>ubs_prot_13</title><g id="Слой_2" data-name="Слой 2"><g id="Layer_1" data-name="Layer 1"><path class="cls-1" d="M224,238H14A14,14,0,0,1,0,224V14A14,14,0,0,1,14,0H224a14,14,0,0,1,14,14V224a14,14,0,0,1-14,14ZM14,8a6,6,0,0,0-6,6V224a6,6,0,0,0,6,6H224a6,6,0,0,0,6-6V14a6,6,0,0,0-6-6Z"/><path class="cls-1" d="M108.23,179.1,87.89,199.44h0l-4.41,4.41a5,5,0,0,0,7.07,7.07L102,199.44h0l13.27-13.27Z"/><path class="cls-1" d="M108.19,143.67l7.07-7.07-7-7h0L94.11,115.45h0L76.43,97.77,58.76,115.45h0L26.92,147.28A5,5,0,0,0,34,154.35l22.09-22.09h0l20.35-20.35L83.5,119,72.89,129.59h0L58.75,143.73a5,5,0,0,0,7.07,7.07L80,136.66h0l10.6-10.6,7.07,7.07L72.89,157.87A5,5,0,1,0,80,164.94l24.75-24.75Z"/><path class="cls-1" d="M45,108.75h0l6.62,6.62,7.07-7.07L45,94.61h0l-11-11a5,5,0,0,0-7.07,7.07Z"/><path class="cls-1" d="M87,172a5,5,0,0,0,7.07,7.07l1.76-1.76h0l5.29-5.29L94.1,165l-5.19,5.19-.11.09Z"/><path class="cls-1" d="M60.52,96h0l5.23,5.23,7.07-7.07L67.66,89l-.06-.07-1.77-1.77a5,5,0,0,0-7.07,7.07Z"/><path class="cls-1" d="M97.64,104.84l-3.55,3.55,7.07,7.07,27.7-27.7h0l11.21-11.21L129.84,66.33h0L90.59,27.08a5,5,0,1,0-7.07,7.07L115.32,66h0l10.61,10.61-4.14,4.14h0l-1.89,1.89-1,1L108.25,73h0L94.11,58.88A5,5,0,0,0,87,66l14.14,14.14h0L111.79,90.7l-7.07,7.07L80,73a5,5,0,0,0-7.07,7.07Z"/><path class="cls-1" d="M176.61,141.38l-.08-.06-4.72-4.72-7.07,7.07,4.79,4.79h0l2.34,2.34a5,5,0,0,0,7.07-7.07Z"/><path class="cls-1" d="M129.45,58.89l22.09-22.09h0l.93-.93a5,5,0,1,0-7.07-7.07L131.53,42.68h0l-9.14,9.14Z"/><path class="cls-1" d="M129.4,94.17l-7.07,7.07,39,39,3.52-3.52h0l0,0,3.5-3.5h0L194,107.52h0l16.8-16.8a5,5,0,0,0-7.07-7.07l-34.48,34.48h0l-7.93,7.93L154.21,119l10.61-10.6h0L179,94.24a5,5,0,0,0-7.07-7.07l-14.14,14.14h0l-10.6,10.6-7.07-7.07L164.82,80.1A5,5,0,0,0,157.75,73L133,97.77Z"/><path class="cls-1" d="M211.08,147.58,197,133.5h0l-11-11-7.07,7.07,11,11h0L204,154.65a5,5,0,0,0,7.07-7.07Z"/><path class="cls-1" d="M140.07,133.12l3.52-3.52-7.07-7.07-7.06,7.06h0l-28.28,28.28h0l-3.54,3.54,42.8,42.81h0l6.71,6.71a5,5,0,0,0,7.07-7.07L126.3,175.93h0l-14.51-14.51,7.07-7.07,10.61,10.61h0l14.14,14.14a5,5,0,1,0,7.07-7.07l-14.14-14.14,0,0-10.58-10.58,7.07-7.07,24.75,24.75a5,5,0,1,0,7.07-7.07Z"/><path class="cls-1" d="M150.68,66a5,5,0,0,0-7.07-7.07l-2.95,2.95-.07.09L136.53,66,143.6,73l4.13-4.13h0Z"/></g></g></svg>