<svg xmlns="http://www.w3.org/2000/svg" viewBox="-10 -16 220 216">
    <defs>
        <style>.cls-1{fill:#ccc;}</style>
    </defs>
    <title>ubs_prot_8</title>
    <g id="Слой_2" data-name="Слой 2">
        <g id="Layer_1" data-name="Layer 1">
            <polygon class="cls-1" points="125.13 0.02 68.65 0.01 96.89 28.25 125.13 0.02"/>
            <polygon class="cls-1" points="68.65 193.75 125.14 193.76 96.89 165.51 68.65 193.75"/>
            <polygon class="cls-1" points="0.01 68.63 0.02 125.13 28.27 96.89 0.01 68.63"/>
            <polygon class="cls-1" points="193.76 125.12 193.75 68.66 165.52 96.89 193.76 125.12"/>
            <path class="cls-1"
                  d="M158.45,96.89,162,93.35l31.76-31.76V0H132.2L96.89,35.33,61.57,0H0V61.56L35.34,96.89l-3.54,3.54L0,132.2v61.54H61.58l35.31-35.31,35.32,35.32h61.56V132.19Zm-6.77-30.05,6.76-3.22-3.22,6.76-7.07,7.07-7.07,7.07-1.77-1.77L137.55,81l7.07-7.07ZM116.33,45.62l7.07-7.07,6.76-3.22-3.22,6.76-7.07,7.07-7.07,7.07L111,54.46l-1.77-1.77Zm7.08,109.6-7.07-7.07-7.07-7.07,1.77-1.77,1.77-1.77,7.07,7.07,7.07,7.07,3.23,6.76Zm14.14-14.14-13.26-13.26-12.53-12.53L101.15,125.9l5.46,5.46,6.19,6.19L111,139.31l-1.77,1.77-8-8-3.69-3.69-.73.73-.73-.73L85.4,140.2l-15,15-6.76,3.22,3.22-6.76L80.1,138.43,92.63,125.9,82,115.29,69.49,127.82,56.24,141.08l-6.76,3.22,3.22-6.76L66,124.29l12.53-12.53L67.88,101.15l-5.46,5.46-6.18,6.18h0l-7.07,7.07-7.07,7.07-6.76,3.22,3.22-6.76,7.07-7.07,7.07-7.07h0l8-8,3.69-3.69-.73-.73.73-.73L53.58,85.4l-15-15-3.21-6.74,6.74,3.21L55.34,80.09,67.87,92.62,78.48,82,66,69.49,52.69,56.23l-3.21-6.74,6.74,3.21L69.49,66,82,78.48l10.6-10.61-5.46-5.46L81,56.23h0L73.9,49.16l-7.07-7.07-3.21-6.74,6.74,3.21,7.07,7.07,7.07,7.07,8,8,3.69,3.69.73-.73.73.73,11.65-11.65,3.54,3.54L101.15,67.87l10.61,10.61L123.4,66.83l14.14-14.14,6.76-3.22-3.22,6.76L126.94,70.37,115.29,82,125.9,92.62,137.55,81l3.54,3.54L129.44,96.16l.73.73-.73.73,3.69,3.69,8,8L139.32,111l-1.77,1.77-6.19-6.19-5.46-5.46L115.3,111.76l12.53,12.53,13.26,13.26,3.23,6.76Zm14.14-14.14-7.07-7.07-7.07-7.07,1.77-1.77,1.77-1.77,7.07,7.07,7.07,7.07,3.23,6.76Z"/>
        </g>
    </g>
</svg>