<svg xmlns="http://www.w3.org/2000/svg" viewBox="0 0 1101.96 1101.99"><defs><style>.cls-1,.cls-3{fill:#fff;stroke-miterlimit:10;stroke-width:30px;}.cls-1{stroke:#336;}.cls-2{fill:#ccc;}.cls-3{stroke:#ccc;stroke-linecap:square;}</style></defs><title>ubs_prot_3</title><g id="Слой_2" data-name="Слой 2"><g id="Layer_1" data-name="Layer 1"><rect class="cls-1" x="509.91" y="510.65" width="80" height="80" transform="translate(1328.12 551.16) rotate(135)"/><rect class="cls-2" x="161.37" y="161.39" width="779.22" height="779.22" transform="translate(551 -228.22) rotate(45)"/><rect class="cls-3" x="558.55" y="303.06" width="240" height="240" transform="translate(497.89 -355.89) rotate(45)"/><line class="cls-3" x1="592.84" y1="423.92" x2="551.27" y2="465.49"/><line class="cls-3" x1="635.27" y1="466.35" x2="593.69" y2="507.92"/><line class="cls-3" x1="677.69" y1="508.77" x2="636.12" y2="550.34"/><rect class="cls-3" x="303.49" y="558.12" width="240" height="240" transform="translate(243.44 1457.08) rotate(-135)"/><line class="cls-3" x1="509.2" y1="677.27" x2="550.77" y2="635.69"/><line class="cls-3" x1="466.77" y1="634.84" x2="508.34" y2="593.27"/><line class="cls-3" x1="424.35" y1="592.41" x2="465.92" y2="550.84"/><rect class="cls-3" x="558.55" y="558.12" width="240" height="240" transform="translate(1637.85 677.82) rotate(135)"/><line class="cls-3" x1="677.69" y1="592.41" x2="636.12" y2="550.84"/><line class="cls-3" x1="635.27" y1="634.84" x2="593.69" y2="593.27"/><line class="cls-3" x1="592.84" y1="677.27" x2="551.27" y2="635.69"/><rect class="cls-3" x="303.49" y="303.06" width="240" height="240" transform="translate(-175.11 423.37) rotate(-45)"/><line class="cls-3" x1="424.35" y1="508.77" x2="465.92" y2="550.34"/><line class="cls-3" x1="466.77" y1="466.35" x2="508.34" y2="507.92"/><line class="cls-3" x1="509.2" y1="423.92" x2="550.77" y2="465.49"/></g></g></svg>