<svg xmlns="http://www.w3.org/2000/svg" viewBox="0 0 372.15 372.15"><defs><style>.cls-1,.cls-2{fill:#ccc;}.cls-2,.cls-3{stroke:#fff;}.cls-2,.cls-3,.cls-4{stroke-miterlimit:10;stroke-width:6px;}.cls-3{fill:#336;}.cls-4{fill:none;stroke:#8282c4;}</style></defs><title>ubs_prot_2</title><g id="Слой_2" data-name="Слой 2"><g id="Layer_1" data-name="Layer 1"><path class="cls-1" d="M164.13,207v39.18l-58.24,58.24,59,59a30,30,0,0,0,42.43,0l57.79-57.79-59.42-59.42V207h39.18l59.42,59.42,59.1-59.1a30,30,0,0,0,0-42.43l-59.1-59.1-59.42,59.42H205.66V126l59.42-59.42L207.29,8.79a30,30,0,0,0-42.43,0l-59,59L164.13,126v39.18H125L66.71,106.94,8.79,164.86a30,30,0,0,0,0,42.43l57.92,57.92L125,207Z"/><polygon class="cls-2" points="205.66 165.18 244.84 165.18 304.26 105.76 265.08 66.58 205.66 126 205.66 165.18"/><line class="cls-3" x1="66.71" y1="106.94" x2="105.89" y2="67.76"/><polygon class="cls-2" points="164.13 165.18 164.13 126 105.89 67.76 66.71 106.94 124.95 165.18 164.13 165.18"/><polygon class="cls-2" points="205.66 206.97 205.66 246.15 265.08 305.56 304.26 266.39 244.84 206.97 205.66 206.97"/><polygon class="cls-2" points="164.13 246.15 164.13 206.97 124.95 206.97 66.71 265.21 105.89 304.39 164.13 246.15"/><rect class="cls-2" x="166.48" y="166.48" width="39.18" height="39.18" transform="translate(372.15 0) rotate(90)"/><path class="cls-4" d="M125,207"/><path class="cls-4" d="M205.66,184"/></g></g></svg>