<svg xmlns="http://www.w3.org/2000/svg" viewBox="20 20 270 270">
    <defs>
        <style>
            .cls-1{
                fill:#ccc;
            }
            .cls-2{
                fill:none;
                stroke:#fff;
                stroke-miterlimit:10;
                stroke-width:5px;
            }
        </style>
    </defs>
    <title>ubs_prot_4</title>
    <g id="Слой_2" data-name="Слой 2">
        <g id="Layer_1" data-name="Layer 1">
            <polygon class="cls-1"
                     points="211.27 147.75 197.57 134.05 184.32 120.8 167 103.48 158.05 94.53 158.05 64.87 188.71 34.21 279.38 124.87 248.71 155.54 248.71 155.53 219.06 155.53 211.27 147.75"/>
            <polygon class="cls-1"
                     points="279.37 186.21 188.71 276.87 158.05 246.21 158.05 246.2 158.05 216.54 219.06 155.53 248.71 155.53 248.71 155.54 279.37 186.21"/>
            <polygon class="cls-1"
                     points="158.05 246.2 158.05 246.21 158.04 246.2 127.38 276.87 36.72 186.2 67.38 155.54 97.05 155.54 158.05 216.54 158.05 246.2"/>
            <polygon class="cls-1"
                     points="147.99 104.59 134.29 118.29 121.04 131.54 103.72 148.86 97.05 155.54 67.38 155.54 36.72 124.87 127.39 34.21 158.05 64.87 158.05 94.53 147.99 104.59"/>
            <polyline class="cls-2" points="158.05 307.53 127.38 276.87 36.72 186.2 6.05 155.54"/>
            <line class="cls-2" x1="279.37" y1="186.21" x2="188.71" y2="276.87"/>
            <line class="cls-2" x1="188.71" y1="34.21" x2="279.38" y2="124.87"/>
            <polyline class="cls-2" points="36.72 124.87 127.39 34.21 158.05 3.55 158.05 3.54"/>
            <polygon class="cls-2"
                     points="36.72 186.2 36.71 186.21 6.04 155.54 6.05 155.54 36.72 124.87 67.38 155.54 36.72 186.2"/>
            <polygon class="cls-2"
                     points="158.05 216.54 97.05 155.54 103.72 148.86 121.04 131.54 134.29 118.29 147.99 104.59 158.05 94.53 167 103.48 184.32 120.8 197.57 134.05 211.27 147.75 219.06 155.53 158.05 216.54"/>
            <rect class="cls-2" x="257.68" y="133.85" width="43.38" height="43.37"
                  transform="translate(-28.17 243.05) rotate(-44.99)"/>
            <polygon class="cls-2"
                     points="188.71 276.87 158.05 307.53 158.05 307.54 127.38 276.87 158.04 246.2 158.05 246.21 188.71 276.87"/>
            <polygon class="cls-2"
                     points="188.71 34.21 158.05 64.87 127.39 34.21 127.38 34.2 158.04 3.54 158.05 3.55 188.71 34.21"/>
            <line class="cls-2" x1="158.05" y1="64.87" x2="158.05" y2="94.53"/>
            <line class="cls-2" x1="97.05" y1="155.54" x2="67.38" y2="155.54"/>
            <line class="cls-2" x1="219.06" y1="155.53" x2="248.71" y2="155.53"/>
            <line class="cls-2" x1="158.05" y1="216.54" x2="158.05" y2="246.2"/>
            <line class="cls-2" x1="103.72" y1="148.86" x2="77.22" y2="122.37"/>
            <line class="cls-2" x1="121.04" y1="131.54" x2="94.54" y2="105.04"/>
            <line class="cls-2" x1="134.29" y1="118.29" x2="107.79" y2="91.8"/>
            <line class="cls-2" x1="147.99" y1="104.59" x2="121.5" y2="78.09"/>
            <line class="cls-2" x1="192.38" y1="237.53" x2="165.89" y2="211.03"/>
            <line class="cls-2" x1="209.71" y1="220.21" x2="183.21" y2="193.71"/>
            <line class="cls-2" x1="222.95" y1="206.96" x2="196.46" y2="180.46"/>
            <line class="cls-2" x1="236.66" y1="193.25" x2="210.16" y2="166.76"/>
            <polyline class="cls-2" points="165.89 104.59 167 103.48 192.38 78.09"/>
            <polyline class="cls-2" points="183.21 121.91 184.32 120.8 209.71 95.41"/>
            <polyline class="cls-2" points="196.46 135.16 197.57 134.05 222.95 108.66"/>
            <polyline class="cls-2" points="210.16 148.86 211.27 147.75 236.66 122.37"/>
            <line class="cls-2" x1="77.22" y1="193.25" x2="103.72" y2="166.76"/>
            <line class="cls-2" x1="94.54" y1="210.58" x2="121.04" y2="184.08"/>
            <line class="cls-2" x1="107.79" y1="223.83" x2="134.29" y2="197.33"/>
            <line class="cls-2" x1="121.5" y1="237.53" x2="147.99" y2="211.03"/>
        </g>
    </g>
</svg>