<svg xmlns="http://www.w3.org/2000/svg" viewBox="-10 -10 220 220">
    <defs>
        <style>
            .cls-1,
            .cls-2 {
                fill:none;
                stroke:#ccc;
                stroke-miterlimit:10;
                stroke-width:10px;
            }
            .cls-2 {
                stroke-linecap:round;
            }
        </style>
    </defs>
    <title>ubs_prot_9</title>
    <g id="Слой_2" data-name="Слой 2">
        <g id="Layer_1" data-name="Layer 1">
            <polyline class="cls-1" points="60 60 60 40 60 0"/>
            <line class="cls-1" x1="100" y1="80" x2="120" y2="80"/>
            <polyline class="cls-1" points="120 80 140 80 140 60"/>
            <line class="cls-1" x1="60" y1="80" x2="80" y2="80"/>
            <path class="cls-1" d="M60,60"/>
            <polyline class="cls-1" points="140 60 140 40 140 0"/>
            <line class="cls-1" x1="80" y1="80" x2="100" y2="80"/>
            <line class="cls-1" x1="120" y1="120" x2="100" y2="120"/>
            <polyline class="cls-1" points="140 140 140 160 140 200"/>
            <path class="cls-1" d="M140,140"/>
            <line class="cls-1" x1="120" y1="120" x2="140" y2="120"/>
            <line class="cls-1" x1="80" y1="120" x2="100" y2="120"/>
            <line class="cls-1" x1="60" y1="120" x2="60" y2="140"/>
            <polyline class="cls-1" points="60 120 60 120 80 120"/>
            <polyline class="cls-1" points="60 140 60 160 60 200"/>
            <polyline class="cls-1" points="200 140 160 140 140 140"/>
            <polyline class="cls-1" points="140 60 160 60 200 60"/>
            <path class="cls-1" d="M140,60"/>
            <line class="cls-1" x1="120" y1="80" x2="120" y2="60"/>
            <line class="cls-1" x1="120" y1="120" x2="120" y2="100"/>
            <polyline class="cls-1" points="120 100 120 100 120 80"/>
            <polyline class="cls-1" points="120 120 120 140 140 140"/>
            <polyline class="cls-1" points="0 60 40 60 60 60"/>
            <polyline class="cls-1" points="60 140 40 140 0 140"/>
            <line class="cls-1" x1="80" y1="140" x2="80" y2="120"/>
            <path class="cls-1" d="M60,140"/>
            <line class="cls-1" x1="80" y1="80" x2="80" y2="60"/>
            <polyline class="cls-1" points="80 80 80 100 80 100"/>
            <line class="cls-1" x1="60" y1="60" x2="80" y2="60"/>
            <line class="cls-1" x1="80" y1="100" x2="80" y2="120"/>
            <line class="cls-2" x1="80" y1="60" x2="80" y2="40"/>
            <line class="cls-2" x1="100" y1="80" x2="100" y2="40"/>
            <line class="cls-2" x1="120" y1="60" x2="120" y2="40"/>
            <line class="cls-2" x1="160" y1="80" x2="140" y2="80"/>
            <line class="cls-2" x1="120" y1="100" x2="160" y2="100"/>
            <line class="cls-1" x1="120" y1="100" x2="120" y2="100"/>
            <line class="cls-2" x1="160" y1="120" x2="140" y2="120"/>
            <line class="cls-2" x1="40" y1="120" x2="60" y2="120"/>
            <line class="cls-1" x1="60" y1="120" x2="60" y2="120"/>
            <line class="cls-1" x1="80" y1="100" x2="80" y2="100"/>
            <line class="cls-2" x1="40" y1="100" x2="80" y2="100"/>
            <line class="cls-2" x1="60" y1="80" x2="40" y2="80"/>
            <line class="cls-2" x1="120" y1="140" x2="120" y2="160"/>
            <line class="cls-2" x1="100" y1="160" x2="100" y2="120"/>
            <line class="cls-2" x1="80" y1="140" x2="80" y2="160"/>
        </g>
    </g>
</svg>