<svg xmlns="http://www.w3.org/2000/svg" xmlns:xlink="http://www.w3.org/1999/xlink" viewBox="0 0 212.13 212.13"><defs><style>.cls-1,.cls-4,.cls-5{fill:none;}.cls-2{clip-path:url(#clip-path);}.cls-3{fill:#ccc;}.cls-4{stroke:#333;stroke-width:10px;}.cls-4,.cls-5{stroke-miterlimit:10;}.cls-5{stroke:#fff;stroke-width:5px;}</style><clipPath id="clip-path"><rect class="cls-1" x="15.1" y="15.1" width="181.92" height="181.92"/></clipPath></defs><title>ubs_prot_10</title><g id="Слой_2" data-name="Слой 2"><g id="Layer_1" data-name="Layer 1"><g class="cls-2"><polygon class="cls-1" points="106.07 77.78 91.92 91.92 91.92 91.93 91.92 91.93 91.92 91.93 77.78 106.07 91.92 120.21 91.92 120.21 106.07 134.35 120.21 120.21 120.21 120.21 120.21 120.21 120.21 120.21 134.35 106.07 120.21 91.92 106.07 77.78"/><polygon class="cls-3" points="148.49 127.28 127.28 106.07 144.96 88.39 152.03 95.46 141.42 106.07 148.49 113.14 159.1 102.53 166.17 109.6 148.49 127.28"/><path class="cls-3" d="M148.49,14.14,130.81,31.82,113.14,49.5,116.67,53l3.54,3.54,5.3-5.3,5.3-5.3,10.61-3.54L137.89,53,125.51,65.41,113.14,77.78l3.54,3.54,3.54,3.54,12.37-12.37L145,60.1l10.61-3.54L152,67.18,139.65,79.55,127.28,91.92l3.54,3.54L134.35,99l5.3-5.3,5.3-5.3,3.54,3.54L152,95.46l-8.72,8.72-9,9L116.67,95.46,99,77.78l7.07-7.07,7.07-7.07-7.07-7.07L99,49.5l24.75-24.75L148.49,0m63.64,63.64-23,23-23,23-3.54-3.54-3.54-3.54,19.45-19.45L198,63.64M152,95.46l-3.54-3.54L145,88.39,152,81.32l7.07-7.07,10.61-3.54-3.54,10.61-7.07,7.07Z"/><polygon class="cls-3" points="67.17 152.03 56.57 155.56 60.1 144.96 72.48 132.58 84.85 120.21 81.32 116.67 77.78 113.14 72.48 118.44 67.17 123.74 63.64 120.21 60.1 116.67 68.94 107.83 77.78 99 95.46 116.67 113.14 134.35 106.07 141.42 99 148.49 104.3 153.8 109.6 159.1 106.07 162.63 102.53 166.17 93.69 157.33 84.85 148.49 91.92 141.42 99 134.35 95.46 130.81 91.92 127.28 79.55 139.65 67.17 152.03"/><polyline class="cls-3" points="63.64 197.99 102.53 159.1 109.6 166.17 63.64 212.13"/><polyline class="cls-3" points="0 148.49 57.21 91.28 64.28 98.35 14.14 148.49"/><polygon class="cls-3" points="53.03 137.89 42.43 141.42 45.96 130.81 53.03 123.74 60.1 116.67 63.64 120.21 67.17 123.74 60.1 130.81 53.03 137.89"/><polygon class="cls-3" points="81.32 166.17 70.71 169.71 74.25 159.1 81.32 152.03 88.39 144.96 91.92 148.49 95.46 152.03 88.39 159.1 81.32 166.17"/><path class="cls-3" d="M198,148.49l-17.68-17.68-17.68-17.68-3.54,3.54-3.54,3.54,5.3,5.3,5.3,5.3,3.54,10.61-10.61-3.54-12.37-12.37-12.37-12.37-3.54,3.54-3.54,3.54,12.37,12.37L152,145l3.54,10.61L145,152l-12.37-12.37-12.37-12.37-3.54,3.54-3.54,3.54,5.3,5.3,5.3,5.3-3.54,3.54L116.67,152l-8.84-8.84L99,134.35l17.68-17.68L134.35,99l7.07,7.07,7.07,7.07,7.07-7.07L162.63,99l24.75,24.75,24.75,24.75m-63.64,63.64-23-23-23-23,3.54-3.54,3.54-3.54L129,178.54,148.49,198m-17.68-31.82-7.07-7.07L116.67,152l3.54-3.54,3.54-3.54,7.07,7.07,7.07,7.07,3.54,10.61Z"/><polygon class="cls-3" points="102.53 166.17 84.85 148.49 106.07 127.28 123.74 144.96 116.67 152.03 106.07 141.42 99 148.49 109.6 159.1 102.53 166.17"/><path class="cls-3" d="M14.14,63.64,53,102.53,46,109.6l-46-46M63.64,0l46,46L102.53,53,63.64,14.14M60.1,95.46,53,88.39,46,81.32,42.43,70.72,53,74.25,65.41,86.62,77.78,99l3.53-3.53,3.53-3.53L72.48,79.55,60.1,67.18,56.57,56.57l10.61,3.54L79.55,72.48,91.92,84.86l3.54-3.54L99,77.78,86.62,65.41,74.25,53,70.71,42.43,81.32,46,97.23,61.87l15.91,15.91L95.46,95.46,77.78,113.14l-8.84-8.84Z"/><path class="cls-4" d="M49.5,106.07"/><polygon class="cls-3" points="67.17 123.74 60.1 116.67 70.71 106.07 56.57 91.93 63.64 84.86 84.85 106.07 67.17 123.74"/><line class="cls-5" x1="103.12" y1="91.47" x2="119.03" y2="75.56"/><line class="cls-5" x1="158.63" y1="120.81" x2="174.54" y2="104.9"/><line class="cls-5" x1="76.75" y1="94.38" x2="92.66" y2="110.29"/><line class="cls-5" x1="121.12" y1="103.38" x2="137.03" y2="119.3"/><line class="cls-5" x1="104.32" y1="37.1" x2="130.91" y2="63.68"/><line class="cls-5" x1="78.66" y1="145.84" x2="113.85" y2="181.02"/><line class="cls-5" x1="146.81" y1="132.64" x2="162.72" y2="116.72"/><line class="cls-5" x1="89.2" y1="140.47" x2="105.11" y2="124.56"/><line class="cls-5" x1="33.52" y1="111.3" x2="64.1" y2="80.71"/></g></g></g></svg>