<svg xmlns="http://www.w3.org/2000/svg" viewBox="0 0 152.47 176.06"><defs><style>.cls-1,.cls-2{fill:none;stroke:#ccc;stroke-width:6px;}.cls-1{stroke-miterlimit:10;}.cls-2{stroke-linejoin:bevel;}</style></defs><title>ubs_prot_7</title><g id="Слой_2" data-name="Слой 2"><g id="Layer_1" data-name="Layer 1"><polygon class="cls-1" points="149.47 130.31 76.24 172.6 3 130.31 3 45.75 76.24 3.46 149.47 45.75 149.47 130.31"/><polygon class="cls-2" points="96.73 88.03 93.2 84.49 96.73 88.03 96.73 88.03"/><circle class="cls-2" cx="76.47" cy="67.77" transform="translate(-22.23 41.36) rotate(-26.57)"/><polygon class="cls-2" points="96.73 88.03 96.73 88.03 96.73 88.03 106.62 78.14 96.73 88.03 96.73 88.03 96.73 88.03"/><polygon class="cls-2" points="86.36 57.88 76.47 67.77 76.47 67.77 86.36 57.88"/><circle class="cls-2" cx="96.73" cy="88.03" transform="translate(-25.26 135.18) rotate(-63.43)"/><polygon class="cls-2" points="96.73 88.03 96.73 88.03 93.2 84.49 76.6 67.9 76.6 67.9 76.6 67.9 76.47 67.77 76.47 67.77 76.47 67.77 76.47 67.77 56.34 87.9 56.34 87.9 56.34 87.9 56.22 88.03 66.23 98.04 66.23 98.04 66.23 98.04 76.47 108.29 96.73 88.03 96.73 88.03 96.73 88.03"/><polygon class="cls-2" points="86.36 118.17 76.47 108.29 76.47 108.29 86.36 118.17"/><polyline class="cls-2" points="86.36 118.17 76.47 108.29 66.35 118.41 76.24 128.29"/><polyline class="cls-2" points="35.97 88.03 46.09 98.15 56.22 88.03 46.09 77.91"/><polyline class="cls-2" points="66.35 57.65 76.47 67.77 86.36 57.88 76.24 47.76"/><polyline class="cls-2" points="146.65 57.88 116.5 88.03 146.65 118.17"/><rect class="cls-2" x="96.73" y="88.03"/><path class="cls-2" d="M5.83,57.89,36,88M76.24,47.76,46.09,17.62m0,60.29L56.22,88l.13-.13L36.21,67.77,56.34,87.9,76.47,67.77h0L66.23,78,76.47,67.77,56.34,47.64,76.47,67.77h0L66.35,57.65M66.23,78,46.09,57.89Z"/><path class="cls-2" d="M46.09,158.44l30.14-30.14-9.89-9.89,10.12-10.12h0L56.34,128.42l20.13-20.13L66.23,98l10.25,10.25h0L66.23,98,46.09,118.17,66.23,98l-10-10L46.09,98.15,36,88,5.83,118.17,36,88,5.83,57.89M56.34,88.15,36.21,108.29Z"/><path class="cls-2" d="M146.65,118.17,116.5,88l-9.89,9.89L97.7,89l1.69,1.69,7.23,7.23-7.23-7.23,17.48,17.48L99.38,90.68,96.73,88,86.49,98.28,96.73,88h0L76.47,108.29m-.24,20,30.14,30.14M76.6,108.16l20.13,20.13Zm9.89-9.89,20.13,20.13Z"/><polyline class="cls-2" points="106.38 158.44 76.24 128.29 46.09 158.44"/><polygon class="cls-2" points="96.73 88.03 97.7 88.99 96.73 88.03 96.73 88.03"/><polygon class="cls-2" points="96.73 88.03 99.39 90.68 97.7 88.99 96.73 88.03 96.73 88.03"/><polyline class="cls-2" points="106.62 78.14 96.73 88.03 97.7 88.99 106.62 97.91 116.5 88.03"/><path class="cls-2" d="M106.38,17.62,76.24,47.76,86.36,57.89l-9.89,9.89.13.13L96.73,47.76,76.6,67.9l16.6,16.6-6.71-6.71,6.71,6.71L96.73,88,116.86,67.9,96.73,88h0l9.89-9.89M116.5,88l30.14-30.14M86.49,77.78l20.13-20.13Z"/></g></g></svg>