<svg xmlns="http://www.w3.org/2000/svg" viewBox="0 0 229.44 229.44"><defs><style>.cls-1{fill:none;stroke:#ccc;stroke-miterlimit:10;stroke-width:10px;}</style></defs><title>ubs_prot_5</title><g id="Слой_2" data-name="Слой 2"><g id="Layer_1" data-name="Layer 1"><rect class="cls-1" x="31.28" y="31.28" width="166.89" height="166.89" rx="20" ry="20" transform="translate(-47.52 114.72) rotate(-45)"/><polyline class="cls-1" points="33.9 75.6 73.08 114.78 33.9 153.96"/><polyline class="cls-1" points="153.9 33.96 114.72 73.14 75.54 33.96"/><polyline class="cls-1" points="75.48 195.54 114.66 156.37 153.84 195.54"/><polyline class="cls-1" points="195.48 153.9 156.31 114.72 195.48 75.54"/><polygon class="cls-1" points="114.66 156.37 104.27 145.97 93.87 135.57 83.47 125.18 73.08 114.78 83.49 104.37 93.9 93.96 104.31 83.55 114.72 73.14 125.12 83.53 135.51 93.93 145.91 104.33 156.31 114.72 145.89 125.13 135.48 135.54 125.07 145.95 114.66 156.37"/><line class="cls-1" x1="74.29" y1="53.53" x2="104.31" y2="83.55"/><line class="cls-1" x1="93.9" y1="93.96" x2="63.91" y2="63.97"/><line class="cls-1" x1="83.49" y1="104.37" x2="53.5" y2="74.38"/><line class="cls-1" x1="145.83" y1="125.07" x2="175.85" y2="155.09"/><line class="cls-1" x1="165.44" y1="165.5" x2="135.45" y2="135.51"/><line class="cls-1" x1="155.03" y1="175.91" x2="125.04" y2="145.92"/><line class="cls-1" x1="72.04" y1="177.04" x2="102.07" y2="147.02"/><line class="cls-1" x1="91.65" y1="136.61" x2="61.66" y2="166.6"/><line class="cls-1" x1="81.24" y1="126.2" x2="51.25" y2="156.19"/><line class="cls-1" x1="146.96" y1="102.12" x2="176.98" y2="72.1"/><line class="cls-1" x1="166.57" y1="61.69" x2="136.58" y2="91.68"/><line class="cls-1" x1="156.16" y1="51.28" x2="126.17" y2="81.27"/><path class="cls-1" d="M125.12,144.74"/><path class="cls-1" d="M135.51,134.35"/><path class="cls-1" d="M145.91,124"/><path class="cls-1" d="M104.31,144.73"/></g></g></svg>