<svg xmlns="http://www.w3.org/2000/svg" viewBox="0 0 247.68 247.68"><defs><style>.cls-1{fill:none;}.cls-2{fill:red;}.cls-3{fill:#ccc;}.cls-4{fill:#fff;}</style></defs><title>ubs_prot_11</title><g id="Слой_2" data-name="Слой 2"><g id="Layer_1" data-name="Layer 1"><path class="cls-1" d="M32.88,82.38l30.79,30.79,7.07-7.07-7-7A5.59,5.59,0,0,1,70.81,92h0l7,7,2.3-2.3,3.54,3.54-2.3,2.3,1.84,1.84,12.37,12.37,0,0-2.82-2.82,3.54-3.54,2.82,2.82,3.51-3.51L90.25,97.33,77.88,85a5.59,5.59,0,0,1,7.07-7.07L97.32,90.26l12.37,12.37,3.54-3.54,3.54-3.54L104.39,83.19,92,70.81a5.59,5.59,0,0,1,7.07-7.07L115,79.65l8.84,8.84h0l7.07-7.07-7.07-7.07-3.54-3.54h0L82.38,32.88"/><polygon class="cls-1" points="130.91 67.27 134.45 70.81 137.98 74.34 138.01 74.32 130.94 67.25 130.91 67.27"/><polygon class="cls-1" points="176.87 134.45 173.34 137.98 173.41 138.05 174.64 136.82 174.64 136.82 180.48 130.98 180.41 130.91 176.87 134.45"/><path class="cls-1" d="M148.59,183.95l-7.07-7.07-7.07-7.07,3.54-3.54,3.54-3.54,7.07,7.07,7.07,7.07A5.59,5.59,0,0,1,148.59,183.95Z"/><polygon class="cls-1" points="67.2 116.7 67.27 116.77 74.34 109.7 74.27 109.63 67.2 116.7"/><path class="cls-1" d="M82.38,214.8l30.86-30.86-7.07-7.07h0l-7.07,7.07h0A5.59,5.59,0,0,1,92,176.87h0l7.07-7.07h0l-4.42-4.42,3.54-3.54,4.42,4.42,1.77-1.77,5.3-5.3,7.07-7.07-.07-.07-8,8-3.54-3.54,8-8-3.47-3.47L97.32,157.43,84.95,169.8h0a5.59,5.59,0,0,1-7.07-7.07l12.37-12.37L102.63,138l-3.54-3.54-3.54-3.54-3,3-2.27,2.27-5.3,5.3L81.41,138l-3.54-3.54,8.84-8.84,1.77-1.77-1.77-1.77-5.3-5.3L32.88,165.31m37.93-9.65a5.59,5.59,0,0,1-7.07-7.07h0l7.07-7.07,7.07-7.07L81.41,138l3.54,3.54-7.07,7.07-7.07,7.07Z"/><polygon class="cls-1" points="140.63 119.42 134.45 113.23 127.44 106.23 122.66 111.01 119.13 107.48 123.91 102.7 123.84 102.63 113.23 113.23 106.19 120.28 112.21 126.3 108.67 129.83 102.65 123.82 102.63 123.84 113.23 134.45 120.23 141.45 121.12 140.56 124.66 144.1 123.77 144.99 123.84 145.06 134.45 134.45 141.55 127.35 137.13 122.93 140.63 119.42"/><rect class="cls-2" x="126.68" y="97.31" width="5" height="0.1" transform="translate(-31.01 119.87) rotate(-45)"/><polygon class="cls-3" points="143.29 83.18 145.08 81.39 138.01 74.32 137.98 74.34 134.45 70.81 130.91 67.27 130.94 67.25 123.87 60.18 123.84 60.2 127.38 63.74 120.31 70.81 123.84 74.34 130.91 81.42 123.84 88.49 123.84 88.49 130.91 95.56 143.29 83.18"/><path class="cls-3" d="M155.66,70.81h0a5.59,5.59,0,0,0-7.07-7.07h0l-5.3,5.3-1.74,1.74,7.07,7.07Z"/><path class="cls-3" d="M138,109.7l10.61,10.61h0l3.54-3.54-3.54-3.54-3.54-3.54,12.37-12.37L169.8,85h0a5.59,5.59,0,0,0-7.07-7.07h0L150.36,90.25,138,102.63l-3.47-3.47L131,102.7Z"/><path class="cls-3" d="M127.4,56.64l7.07,7.07L148.59,49.6l6.72-6.72a5.86,5.86,0,0,0-4.14-10h0l-9.64,9.64Z"/><rect class="cls-2" x="123.14" y="100.85" width="5" height="0.1" transform="translate(-34.55 118.38) rotate(-45)"/><polygon class="cls-3" points="134.45 113.23 140.63 119.42 140.66 119.39 145.08 123.81 148.59 120.31 137.98 109.7 130.98 102.7 127.44 106.23 134.45 113.23"/><path class="cls-3" d="M176.87,120.31l3.54-3.54,7.07,7.07,19.45-19.45,7.88-7.88h0a5.86,5.86,0,0,0-10-4.14l-8.48,8.48Z"/><path class="cls-3" d="M176.87,106.16l7.07-7.07A5.59,5.59,0,0,0,176.87,92h0l-7.07,7.07-7.07,7.07,7.07,7.07Z"/><polygon class="cls-2" points="123.84 180.41 123.84 180.41 127.38 176.88 123.84 180.41 123.84 180.41"/><polygon class="cls-2" points="116.77 152.13 116.77 152.13 109.7 159.2 104.39 164.5 105.28 163.62 116.77 152.13"/><path class="cls-3" d="M109.68,138,99.07,127.38l-3.54,3.54,3.54,3.54,3.54,3.54L90.23,150.36,77.86,162.73a5.59,5.59,0,0,0,7.07,7.07h0L97.3,157.43l12.37-12.37,3.47,3.47,3.54-3.54Z"/><polygon class="cls-2" points="90.25 136.22 92.53 133.94 84.95 141.52 90.25 136.22"/><polygon class="cls-2" points="81.41 137.98 84.95 141.52 77.88 134.45 81.41 137.98"/><polygon class="cls-3" points="113.23 134.45 102.62 123.84 99.08 127.38 109.69 137.99 116.69 144.99 120.23 141.45 113.23 134.45"/><path class="cls-3" d="M113.23,183.95,92.38,204.8a5.86,5.86,0,0,0,4.14,10h0L120.31,191Z"/><polygon class="cls-2" points="120.31 183.94 120.31 183.94 123.84 180.41 123.84 180.41 120.31 183.94"/><path class="cls-3" d="M77.88,113.24l-3.33-3.33-.2-.2h0l-7.07,7.07,3.54,3.54-7.07,7.07-3.54-3.54L32.88,151.16h0a5.86,5.86,0,0,0,10,4.14l38.53-38.53Z"/><path class="cls-3" d="M84.95,141.52,81.41,138l-3.54-3.54-7.07,7.07-7.07,7.07h0a5.59,5.59,0,0,0,7.07,7.07h0l7.07-7.07Z"/><path class="cls-3" d="M99.09,169.8,92,176.87h0a5.59,5.59,0,0,0,7.07,7.07h0l7.07-7.07h0l-7.07-7.07Z"/><polygon class="cls-2" points="102.63 166.27 104.39 164.5 102.63 166.27 106.57 170.22 102.63 166.27"/><polygon class="cls-2" points="105.28 163.62 104.39 164.5 102.63 166.27 105.28 163.62"/><path class="cls-3" d="M148.59,169.8l-7.07-7.07L138,166.27l-3.54,3.54,7.07,7.07,7.07,7.07a5.59,5.59,0,0,0,7.07-7.07Z"/><path class="cls-3" d="M138,138h0l-10.61,10.61,3.54,3.54,3.54-3.54,3.54-3.54,12.37,12.37,12.37,12.37h0a5.59,5.59,0,0,0,7.07-7.07l-12.37-12.37L145.05,138l3.54-3.54,0,0-3.54-3.53Z"/><polygon class="cls-2" points="123.84 159.2 125.61 160.97 123.84 159.2 123.84 159.2"/><polygon class="cls-2" points="132.68 153.89 130.91 152.13 130.91 152.13 132.68 153.89"/><path class="cls-3" d="M191.08,127.44,184,134.52l14.07,14.07,6.72,6.72a5.86,5.86,0,0,0,10-4.14h0l-9.65-9.65Z"/><path class="cls-3" d="M176.87,155.66a5.59,5.59,0,0,0,7.07-7.07h0l-5.3-5.3-1.7-1.7-7.07,7.07Z"/><path class="cls-3" d="M127.38,176.87l-3.54,3.54h0l3.54,3.54-3.53,3.53,9.55,9.55h0l9.9,9.9,7.88,7.88h0a5.86,5.86,0,0,0,4.14-10l-8.48-8.48Z"/><polygon class="cls-3" points="134.45 134.45 123.84 145.06 127.38 148.59 137.98 137.98 137.98 137.98 137.98 137.98 137.98 137.98 145.08 130.88 141.55 127.35 134.45 134.45"/><polygon class="cls-2" points="148.59 120.31 148.59 120.31 148.59 120.31 148.59 120.31"/><polyline class="cls-3" points="187.48 123.84 180.41 116.77 176.87 120.31 180.41 123.84 183.94 127.38"/><rect class="cls-3" x="121.34" y="181.45" width="5" height="5" transform="translate(-93.8 141.46) rotate(-45)"/><polygon class="cls-3" points="159.22 123.86 160.99 122.1 169.83 113.26 166.3 109.72 162.76 106.19 155.18 113.76 152.15 116.8 159.22 123.86"/><polyline class="cls-3" points="183.94 127.38 180.41 123.84 176.87 120.31 173.34 123.84 166.27 130.91 159.2 123.84 152.15 130.88 156.58 135.3 156.55 135.33 166.27 145.06"/><polygon class="cls-3" points="148.6 120.29 148.6 120.29 152.14 123.83 148.63 127.33 152.17 130.87 159.21 123.83 152.14 116.76 148.6 120.29"/><rect class="cls-3" x="146.14" y="121.31" width="4.96" height="5" transform="translate(-44.02 141.35) rotate(-45)"/><polygon class="cls-2" points="127.38 176.88 116.77 166.27 122.07 171.57 127.38 176.88"/><polygon class="cls-2" points="134.45 169.8 141.52 162.73 137.98 166.27 134.45 169.8"/><polygon class="cls-2" points="141.52 162.73 132.68 153.89 136.22 157.43 141.52 162.73"/><polygon class="cls-3" points="105.28 163.62 106.16 162.73 109.7 166.27 113.23 169.81 109.7 173.34 116.77 180.41 120.31 176.88 123.84 180.41 127.38 176.88 122.07 171.57 116.77 166.27 123.84 159.2 116.77 152.13 105.28 163.62"/><rect class="cls-3" x="117.81" y="177.91" width="5" height="5" transform="translate(-92.33 137.91) rotate(-45)"/><polygon class="cls-2" points="102.63 166.27 106.57 170.22 106.7 170.35 102.63 166.27"/><polygon class="cls-3" points="106.7 170.35 109.7 173.34 113.23 169.81 109.7 166.27 106.16 162.73 105.28 163.62 102.63 166.27 106.7 170.35"/><polygon class="cls-3" points="123.84 159.2 125.61 160.97 135.28 170.63 138.92 167.12 142.35 163.56 136.22 157.43 132.68 153.89 130.91 152.13 123.84 159.2"/><polygon class="cls-3" points="130.91 152.13 127.38 148.59 123.84 152.13 120.31 148.59 116.77 152.13 123.84 159.2 123.84 159.2 130.91 152.13"/><rect class="cls-3" x="121.34" y="146.09" width="5" height="5" transform="translate(-68.8 131.1) rotate(-45)"/><path class="cls-3" d="M109.7,109.7h0L120.3,99.09l-3.54-3.54-3.54,3.54-3.54,3.54L97.32,90.26,84.95,77.89A5.59,5.59,0,0,0,77.88,85L90.25,97.33l12.37,12.37-3.51,3.51,3.54,3.54Z"/><path class="cls-3" d="M63.67,113.17,42.88,92.38a5.86,5.86,0,0,0-10,4.14h0L56.6,120.24Z"/><path class="cls-3" d="M120.31,70.81l-3.54-3.54,7.07-7.07L96.52,32.88h0a5.86,5.86,0,0,0-4.14,10l27.93,27.93Z"/><polygon class="cls-2" points="60.13 123.77 60.2 123.84 67.27 116.77 67.2 116.7 60.13 123.77"/><path class="cls-3" d="M70.81,92h0a5.59,5.59,0,0,0-7.07,7.07l7,7L77.81,99Z"/><polygon class="cls-2" points="81.41 116.77 81.41 116.77 86.72 122.08 88.48 123.84 88.48 123.84 81.41 116.77"/><path class="cls-3" d="M115,79.65,99.09,63.74A5.59,5.59,0,0,0,92,70.81l12.37,12.37,12.37,12.37,7.07-7.07Z"/><polygon class="cls-3" points="113.23 113.23 123.84 102.63 120.31 99.09 109.7 109.7 109.7 109.7 109.7 109.7 109.7 109.7 102.65 116.75 106.19 120.28 113.23 113.23"/><polygon class="cls-3" points="123.84 95.56 127.38 99.09 130.91 95.56 123.84 88.49 116.77 95.56 120.31 99.09 123.84 95.56"/><rect class="cls-3" x="117.07" y="63" width="10" height="5" transform="translate(-10.56 105.5) rotate(-45)"/><rect class="cls-3" x="121.34" y="96.59" width="5" height="5" transform="translate(-33.8 116.59) rotate(-45)"/><rect class="cls-3" x="60.5" y="119.57" width="10" height="5" transform="translate(-67.13 82.08) rotate(-45)"/><polygon class="cls-2" points="92.53 133.94 95.56 130.91 95.56 130.91 92.53 133.94"/><polygon class="cls-3" points="88.48 123.84 86.72 125.61 77.88 134.45 84.95 141.52 92.53 133.94 95.56 130.91 88.48 123.84"/><polygon class="cls-3" points="74.34 109.7 81.41 116.77 88.48 123.84 95.56 116.77 81.41 102.63 74.34 109.7"/><polyline class="cls-3" points="99.12 127.38 95.58 123.84 99.12 120.31 95.58 116.77 88.51 123.84 88.51 123.84 95.58 130.91"/><rect class="cls-3" x="96.59" y="121.34" width="5" height="5" transform="translate(-58.55 106.34) rotate(-45)"/><polygon class="cls-4" points="134.52 99.16 138.57 95.1 135.04 91.57 130.98 95.63 134.45 99.09 134.52 99.16"/><rect class="cls-4" x="119.91" y="104.36" width="6.76" height="5" transform="translate(-39.45 118.47) rotate(-45)"/><polygon class="cls-4" points="130.91 102.63 134.45 99.09 134.38 99.02 130.91 95.56 127.38 99.09 130.91 102.63"/><rect class="cls-4" x="124.88" y="100.13" width="5" height="5" transform="translate(-35.26 120.13) rotate(-45)"/><polygon class="cls-4" points="174.64 136.82 174.64 136.82 178.73 132.73 182.26 136.27 181.95 136.58 184.01 134.52 180.48 130.98 174.64 136.82"/><rect class="cls-4" x="188.7" y="121.68" width="4.24" height="5" transform="translate(-31.92 171.28) rotate(-45)"/><polygon class="cls-4" points="99.12 113.21 96.29 110.39 92.76 113.92 95.58 116.75 99.09 113.24 99.12 113.21"/><rect class="cls-4" x="104.93" y="120.8" width="5" height="8.51" transform="translate(-56.97 112.62) rotate(-45.01)"/><rect class="cls-4" x="100.15" y="117.78" width="5" height="5" transform="translate(-54.99 107.84) rotate(-45.01)"/><rect class="cls-4" x="150.1" y="131.75" width="4.96" height="6.25" transform="translate(-50.68 147.42) rotate(-45.01)"/><rect class="cls-4" x="138.61" y="120.26" width="4.96" height="6.25" transform="translate(-45.92 135.92) rotate(-45.01)"/><rect class="cls-4" x="142.84" y="118.49" width="0.04" height="6.25" transform="translate(-44.15 136.65) rotate(-45)"/><polygon class="cls-4" points="152.13 130.91 156.55 135.33 156.55 135.33 152.13 130.91"/><rect class="cls-4" x="146.12" y="128.4" width="4.96" height="5" transform="translate(-49.03 143.4) rotate(-45)"/><rect class="cls-4" x="142.59" y="124.86" width="4.96" height="5" transform="translate(-47.57 139.91) rotate(-45.01)"/><polygon class="cls-4" points="148.59 127.38 152.13 130.91 148.59 127.38 148.59 127.38"/><polygon class="cls-4" points="145.05 123.84 145.08 123.81 145.08 123.81 145.05 123.84 148.59 127.38 148.59 127.38 145.05 123.84"/><rect class="cls-4" x="154.33" y="129.98" width="0.04" height="6.25" transform="translate(-48.78 149.81) rotate(-45.47)"/><polygon class="cls-4" points="148.62 127.35 148.59 127.38 152.13 130.91 152.15 130.88 148.62 127.35"/><polygon class="cls-4" points="145.05 123.84 148.59 127.38 148.62 127.35 145.08 123.81 145.05 123.84"/><rect class="cls-4" x="133.74" y="64.01" width="5" height="10" transform="translate(-8.9 116.55) rotate(-45)"/><rect class="cls-4" x="145.27" y="79.24" width="5" height="2.6" transform="translate(-13.67 128.09) rotate(-45)"/><rect class="cls-4" x="121.37" y="54.14" width="5" height="5" transform="translate(-3.77 104.19) rotate(-45)"/><rect class="cls-4" x="126.67" y="56.94" width="5" height="10" transform="translate(-5.96 109.49) rotate(-45.01)"/><rect class="cls-4" x="140.81" y="71.09" width="5" height="10" transform="translate(-11.83 123.61) rotate(-45)"/><rect class="cls-4" x="124.35" y="187.27" width="5" height="13.5" transform="translate(-100.05 146.54) rotate(-45)"/><rect class="cls-4" x="96.15" y="162.7" width="5" height="6.25" transform="translate(-88.36 118.32) rotate(-45)"/><rect class="cls-4" x="108.97" y="173.64" width="5" height="10" transform="translate(-93.67 131.14) rotate(-45)"/><polygon class="cls-4" points="120.31 183.95 116.77 180.41 113.23 183.94 120.31 191.02 123.84 187.48 120.31 183.95"/><polygon class="cls-4" points="120.31 183.94 120.31 183.94 120.31 183.95 120.31 183.94"/><polygon class="cls-4" points="106.57 170.22 102.63 166.27 99.09 169.8 106.16 176.87 109.7 173.34 106.57 170.22"/><rect class="cls-4" x="128.61" y="185.5" height="13.5" transform="translate(-98.27 147.25) rotate(-45)"/><rect class="cls-4" x="122.07" y="183.21" height="5" transform="translate(-95.56 140.71) rotate(-45)"/><polygon class="cls-4" points="111.47 175.11 109.7 173.34 109.7 173.34 116.77 180.41 116.77 180.41 111.47 175.11"/><polygon class="cls-4" points="111.47 175.11 116.77 180.41 116.77 180.41 109.7 173.34 109.7 173.34 111.47 175.11"/><polygon class="cls-4" points="116.77 180.41 120.31 183.95 116.77 180.41 116.77 180.41"/><rect class="cls-4" x="118.54" y="179.68" height="5" transform="translate(-94.1 137.18) rotate(-45)"/><polygon class="cls-4" points="106.7 170.35 106.57 170.22 109.7 173.34 109.7 173.34 106.7 170.35"/><polygon class="cls-4" points="109.7 173.34 109.7 173.34 106.7 170.35 109.7 173.34"/><polygon class="cls-4" points="174.64 136.82 173.41 138.05 176.94 141.59 181.95 136.58 178.17 140.36 174.64 136.82"/><rect class="cls-4" x="163.85" y="146.15" width="4.98" height="5" transform="translate(-56.39 161.16) rotate(-45)"/><rect class="cls-4" x="166.64" y="140.86" width="10" height="5" transform="translate(-51.1 163.35) rotate(-45)"/><polygon class="cls-4" points="178.73 132.73 174.64 136.82 178.17 140.36 181.95 136.58 182.26 136.27 178.73 132.73"/><polygon class="cls-4" points="113.17 148.52 105.21 156.48 108.75 160.01 116.7 152.06 113.23 148.59 113.17 148.52"/><rect class="cls-4" x="121.82" y="140.28" width="1.25" height="5" transform="translate(-65.09 128.4) rotate(-45)"/><polygon class="cls-4" points="116.7 144.99 113.17 148.52 113.23 148.59 116.7 152.06 120.24 148.52 116.7 144.99"/><rect class="cls-4" x="117.74" y="142.49" width="5" height="5" transform="translate(-67.31 127.51) rotate(-45.01)"/><rect class="cls-4" x="49.83" y="123.04" width="10" height="5" transform="translate(-72.71 75.54) rotate(-45)"/><rect class="cls-4" x="79.1" y="97.14" width="3.26" height="5" transform="translate(-46.81 86.27) rotate(-45)"/><polygon class="cls-4" points="74.27 109.63 70.81 106.17 70.74 106.1 63.67 113.17 67.2 116.7 74.27 109.63"/><rect class="cls-4" x="56.97" y="116.04" width="10" height="5" transform="translate(-65.67 78.55) rotate(-45)"/><polygon class="cls-4" points="74.27 109.63 81.34 102.56 77.81 99.03 70.74 106.1 70.81 106.17 74.27 109.63"/><path class="cls-3" d="M123.84,247.68,0,123.84,123.84,0,247.68,123.84ZM7.07,123.84,123.84,240.61,240.61,123.84,123.84,7.07Z"/></g></g></svg>