<svg xmlns="http://www.w3.org/2000/svg" viewBox="0 0 183.28 183.29"><defs><style>.cls-1,.cls-2{fill:#ccc;}.cls-2{stroke:#333;stroke-miterlimit:10;stroke-width:10px;}</style></defs><title>ubs_prot_16</title><g id="Слой_2" data-name="Слой 2"><g id="Layer_1" data-name="Layer 1"><rect class="cls-1" x="12.82" y="59.99" width="10" height="28.76" transform="translate(-47.37 34.38) rotate(-45)"/><path class="cls-1" d="M14.72,76.27a5,5,0,0,1-3.54-1.46L0,63.64V0L63.65,0,95.17,31.52a5,5,0,1,1-7.07,7.07L59.51,10,10,10V59.5l8.24,8.24a5,5,0,0,1-3.54,8.54Z"/><rect class="cls-1" x="65.38" y="67.15" width="34.91" height="10" transform="translate(-26.76 79.7) rotate(-45)"/><rect class="cls-1" x="46.28" y="93.7" width="20" height="10" transform="translate(-53.3 68.7) rotate(-45)"/><polygon class="cls-1" points="95.17 66.88 88.1 59.81 98.71 49.2 78.36 28.85 85.43 21.78 112.85 49.2 95.17 66.88"/><rect class="cls-1" x="161.31" y="94.11" width="10" height="31.24" transform="translate(-28.88 149.73) rotate(-45)"/><path class="cls-1" d="M183.28,183.29l-63.67-.05L85.43,149.06A5,5,0,1,1,92.5,142l31.25,31.25,49.53,0V123.77l-12.4-12.41a5,5,0,0,1,7.07-7.07l15.33,15.33Z"/><rect class="cls-1" x="116.99" y="79.56" width="20" height="10" transform="translate(-22.6 114.56) rotate(-45)"/><rect class="cls-1" x="65.89" y="113.11" width="55.09" height="10" transform="translate(-56.15 100.67) rotate(-45)"/><path class="cls-2" d="M91.64,119.91"/><rect class="cls-1" x="87.06" y="128" width="10" height="41.24" transform="translate(-78.12 108.62) rotate(-45)"/><rect class="cls-1" x="95.94" y="16.07" width="19.37" height="10" transform="translate(16.03 80.85) rotate(-45)"/><rect class="cls-1" x="79.57" y="46.27" width="10" height="20" transform="translate(-15.02 76.28) rotate(-45)"/><rect class="cls-1" x="107.54" y="64.67" width="10" height="39.17" transform="translate(-26.61 104.26) rotate(-45)"/><path class="cls-1" d="M140.76,104.07a5,5,0,0,1-3.54-8.54l36-36,0-49.5H123.75L108.94,24.83a5,5,0,1,1-7.07-7.07L119.61,0h63.66l0,63.64-39,38.95A5,5,0,0,1,140.76,104.07Z"/><polygon class="cls-1" points="134.06 112.84 116.39 95.16 123.46 88.09 134.06 98.7 144.67 88.09 151.74 95.16 134.06 112.84"/><rect class="cls-1" x="56.79" y="161.73" width="32.61" height="10" transform="translate(-96.48 100.51) rotate(-45)"/><path class="cls-1" d="M0,183.26l0-63.64L27.62,92a5,5,0,1,1,7.07,7.07L10,123.76l0,49.5H59.5L70,162.71a5,5,0,1,1,7.07,7.07L63.64,183.26Z"/><path class="cls-2" d="M77.48,134"/><rect class="cls-1" x="93.71" y="116.98" width="10" height="20" transform="translate(-60.88 106.98) rotate(-45)"/><rect class="cls-1" x="58.35" y="71.63" width="10" height="40" transform="translate(-46.23 71.63) rotate(-45)"/><rect class="cls-1" x="76.03" y="104.31" width="10" height="9.98" transform="translate(-53.55 89.31) rotate(-45)"/><rect class="cls-1" x="1.08" y="90.35" width="60.53" height="10" transform="translate(-58.24 50.09) rotate(-45)"/><path class="cls-1" d="M36.84,70.11a5,5,0,0,1-3.54-1.47l-1.77-1.77a5,5,0,1,1,7.07-7.07l1.77,1.77a5,5,0,0,1-3.54,8.53Z"/><path class="cls-1" d="M77.5,82.48A5,5,0,0,1,74,81L45.68,52.74a5,5,0,1,1,7.07-7.07L81,73.95a5,5,0,0,1-3.54,8.54Z"/><path class="cls-1" d="M77.5,54.2A5,5,0,0,1,74,52.74L59.82,38.59a5,5,0,1,1,7.07-7.07L81,45.67A5,5,0,0,1,77.5,54.2Z"/><path class="cls-1" d="M118.15,41.83a5,5,0,0,1-3.54-8.54l1.77-1.77a5,5,0,0,1,7.07,7.07l-1.77,1.77A5,5,0,0,1,118.15,41.83Z"/><path class="cls-1" d="M105.78,82.49A5,5,0,0,1,102.24,74l28.28-28.28a5,5,0,0,1,7.07,7.07L109.31,81A5,5,0,0,1,105.78,82.49Z"/><path class="cls-1" d="M105.78,77.49"/><path class="cls-1" d="M134.06,82.49A5,5,0,0,1,130.53,74l14.14-14.14a5,5,0,0,1,7.07,7.07L137.6,81A5,5,0,0,1,134.06,82.49Z"/><path class="cls-1" d="M63.36,153.19a5,5,0,0,1-3.54-8.54l2.35-2.35a5,5,0,1,1,7.07,7.07l-2.35,2.35A5,5,0,0,1,63.36,153.19Z"/><polygon class="cls-1" points="81.4 108.89 73.59 102.65 81.41 108.89 81.4 108.89"/><path class="cls-1" d="M49.22,139.05a5,5,0,0,1-3.54-8.54L74,102.24A5,5,0,0,1,81,109.31L52.75,137.59A5,5,0,0,1,49.22,139.05Z"/><path class="cls-1" d="M35.08,124.91a5,5,0,0,1-3.54-8.54l14.14-14.14a5,5,0,0,1,7.07,7.07L38.61,123.44A5,5,0,0,1,35.08,124.91Z"/><path class="cls-1" d="M148.2,124.91a5,5,0,0,1-3.54-1.46l-2.95-2.95a5,5,0,1,1,7.07-7.07l2.95,2.95a5,5,0,0,1-3.54,8.54Z"/><path class="cls-1" d="M134.06,139.05a5,5,0,0,1-3.54-1.46L102.24,109.3a5,5,0,1,1,7.07-7.07l28.28,28.28a5,5,0,0,1-3.54,8.54Z"/><path class="cls-1" d="M119.92,153.19a5,5,0,0,1-3.54-1.46l-14.14-14.14a5,5,0,1,1,7.07-7.07l14.14,14.14a5,5,0,0,1-3.54,8.54Z"/><rect class="cls-1" x="34.47" y="64.02" width="10" height="7.49" transform="translate(-36.35 47.76) rotate(-45)"/><rect class="cls-1" x="138.18" y="111.98" width="10" height="5.84" transform="translate(-39.31 134.9) rotate(-45)"/><rect class="cls-1" x="63.09" y="140.06" width="10" height="6.78" transform="translate(121.38 -6.13) rotate(45)"/><rect class="cls-1" x="110.52" y="35.75" width="10" height="7.4" transform="translate(61.73 -70.14) rotate(45)"/></g></g></svg>