<svg xmlns="http://www.w3.org/2000/svg" viewBox="0 0 208.05 36.06">
    <defs>
        <style>.cls-1{fill:#333333;fill-rule:evenodd;}</style>
    </defs>
    <title>Asset 1</title>
    <g id="Layer_2" data-name="Layer 2">
        <g id="Слой_1" data-name="Слой 1">
            <path class="cls-1" d="M54.57,33.94A11.83,11.83,0,0,1,48,36.06a9,9,0,0,1-3.18-.54A7.28,7.28,0,0,1,42.26,34a7.16,7.16,0,0,1-1.65-2.39A7.68,7.68,0,0,1,40,28.51a7.56,7.56,0,0,1,.86-3.6,8.34,8.34,0,0,1,2.47-2.81,12,12,0,0,1,3.8-1.83A17.31,17.31,0,0,1,52,19.63l1.18,0,1.38.07v-.38a2.54,2.54,0,0,0-1.11-2.15c-.74-.54-2.47-1.93-6.76-.42a32.3,32.3,0,0,0-5.18,2.56v-7a25.6,25.6,0,0,1,10.08-2.12,12.61,12.61,0,0,1,4.37.72,9.79,9.79,0,0,1,3.33,2,8.75,8.75,0,0,1,2.12,3,9.86,9.86,0,0,1,.74,3.87V35.47h-7.6Zm-6.66-6.66a2.52,2.52,0,0,0,.79,1.92,2.9,2.9,0,0,0,2.07.74,5.56,5.56,0,0,0,3.8-1.78v-3.8l-1.09-.07-1.09,0a5.55,5.55,0,0,0-3.28.86A2.56,2.56,0,0,0,47.91,27.28Z"/>
            <path class="cls-1" d="M173.57,33.94A11.83,11.83,0,0,1,167,36.06a9,9,0,0,1-3.18-.54A7.28,7.28,0,0,1,161.26,34a7.16,7.16,0,0,1-1.65-2.39,7.68,7.68,0,0,1-.59-3.06,7.56,7.56,0,0,1,.86-3.6,8.34,8.34,0,0,1,2.47-2.81,12,12,0,0,1,3.8-1.83,17.31,17.31,0,0,1,4.86-.64l1.18,0,1.38.07v-.38a2.54,2.54,0,0,0-1.11-2.15c-.74-.54-2.47-1.93-6.76-.42a32.3,32.3,0,0,0-5.18,2.56v-7a25.6,25.6,0,0,1,10.08-2.12,12.61,12.61,0,0,1,4.37.72,9.79,9.79,0,0,1,3.33,2,8.75,8.75,0,0,1,2.12,3,9.86,9.86,0,0,1,.74,3.87V35.47h-7.6Zm-6.66-6.66a2.52,2.52,0,0,0,.79,1.92,2.9,2.9,0,0,0,2.07.74,5.56,5.56,0,0,0,3.8-1.78v-3.8l-1.09-.07-1.09,0a5.55,5.55,0,0,0-3.28.86A2.56,2.56,0,0,0,166.91,27.28Z"/>
            <path class="cls-1" d="M0,10.8H8v1.53a11,11,0,0,1,3.21-1.63,11.55,11.55,0,0,1,3.36-.49,7.87,7.87,0,0,1,6.92,3.55,11.23,11.23,0,0,1,8.05-3.55,8.64,8.64,0,0,1,3.43.67,7.86,7.86,0,0,1,2.67,1.85,8.08,8.08,0,0,1,1.7,2.84A10.67,10.67,0,0,1,38,19.19V35.47h-8v-15a3.19,3.19,0,0,0-.86-2.32,2.93,2.93,0,0,0-2.2-.89,4.63,4.63,0,0,0-1.95.47A6.87,6.87,0,0,0,23,19.14V35.47h-8v-15a3.24,3.24,0,0,0-.84-2.32,2.85,2.85,0,0,0-2.17-.89A5.52,5.52,0,0,0,8,19.14V35.47H0V10.8Z"/>
            <path class="cls-1" d="M83.16,10.8h8v1.53a11,11,0,0,1,3.21-1.63,11.55,11.55,0,0,1,3.36-.49,7.87,7.87,0,0,1,6.92,3.55,11.23,11.23,0,0,1,8.05-3.55,8.64,8.64,0,0,1,3.43.67,7.86,7.86,0,0,1,2.67,1.85,8.08,8.08,0,0,1,1.7,2.84,10.67,10.67,0,0,1,.59,3.63V35.47h-8v-15a3.19,3.19,0,0,0-.86-2.32,2.93,2.93,0,0,0-2.2-.89,4.63,4.63,0,0,0-1.95.47,6.87,6.87,0,0,0-1.95,1.41V35.47h-8v-15a3.24,3.24,0,0,0-.84-2.32,2.85,2.85,0,0,0-2.17-.89,5.52,5.52,0,0,0-3.9,1.87V35.47h-8V10.8Z"/>
            <path class="cls-1" d="M148.65,0h8V35.47h-8Z"/>
            <path class="cls-1" d="M208.05,35.47h-8V34.14a10.18,10.18,0,0,1-5.82,1.92,10.48,10.48,0,0,1-4.51-1,10.59,10.59,0,0,1-3.53-2.66,12.46,12.46,0,0,1-2.32-4.07,15.55,15.55,0,0,1-.84-5.23,15.56,15.56,0,0,1,.84-5.23,12.46,12.46,0,0,1,2.32-4.07,10.59,10.59,0,0,1,3.53-2.66,10.48,10.48,0,0,1,4.51-1A10.18,10.18,0,0,1,200,12.14V0h8ZM191.23,23.14a6.77,6.77,0,0,0,1.33,4.34,4.3,4.3,0,0,0,3.55,1.68,5.6,5.6,0,0,0,3.9-1.73V18.84a5.61,5.61,0,0,0-3.9-1.73,4.33,4.33,0,0,0-3.55,1.65A6.75,6.75,0,0,0,191.23,23.14Z"/>
            <path class="cls-1" d="M79,10.33a7.9,7.9,0,0,0-5.88,2.41V10.81h-8V35.47h8V18.8a6.45,6.45,0,0,1,3.91-1.4,6.92,6.92,0,0,1,3.8.72V10.53A13.42,13.42,0,0,0,79,10.33Z"/>
            <path class="cls-1" d="M146.83,22.74c-.15-3.18-.62-6.77-2.73-9.15a10,10,0,0,0-3.49-2.66,10.85,10.85,0,0,0-4.69-.9,16.92,16.92,0,0,0-5.92.86,10.45,10.45,0,0,0-4.21,2.76,8.8,8.8,0,0,0-2.11,4.08,20.51,20.51,0,0,0-.49,5.2,14,14,0,0,0,1,5.31A12.09,12.09,0,0,0,131,35.1a14.15,14.15,0,0,0,5.3,1,22.1,22.1,0,0,0,8.83-1.93V27.51A12.59,12.59,0,0,1,137.68,30a12.17,12.17,0,0,1-2.92-.32A4.6,4.6,0,0,1,131.48,27a4.89,4.89,0,0,1-.37-1.59h15.68C146.85,24.91,146.85,23.13,146.83,22.74Zm-7.21-2.26h-8.49q0-.16,0-.33a4.26,4.26,0,1,1,8.51,0Q139.64,20.31,139.62,20.48Z"/>
        </g>
    </g>
</svg>