<svg xmlns="http://www.w3.org/2000/svg" viewBox="0 0 747.7 276.13"><defs><style>.cls-1,.cls-2{fill:none;stroke:#95918d;stroke-linejoin:round;stroke-width:2px;}.cls-1{stroke-linecap:round;}</style></defs><title>Asset 11</title><g id="Layer_2" data-name="Layer 2"><g id="Слой_1" data-name="Слой 1"><path class="cls-1" d="M90.5,162.13l-8.35-10.45-8.35,10.45Z"/><path class="cls-1" d="M68.14,114.74l-8.35-10.45-8.35,10.45Z"/><path class="cls-1" d="M696.22,114.74l-8.35-10.45-8.35,10.45Z"/><path class="cls-1" d="M68.7,162.13l-8.35-10.45L52,162.13Z"/><path class="cls-1" d="M46.82,162.13l-8.35-10.45-8.35,10.45Z"/><polyline class="cls-2" points="739.76 144.96 739.76 275.13 8.26 275.13 8.26 145.52"/><polyline class="cls-2" points="296.39 200.53 282.11 200.53 282.11 210.61 296.18 210.61"/><path class="cls-2" d="M296.34,255.67"/><line class="cls-2" x1="275.46" y1="76.48" x2="275.46" y2="275.33"/><path class="cls-2" d="M463.52,50.68l16.35,26.05H431.13l16.35-26.05Z"/><path class="cls-2" d="M300.4,50.68l16.35,26.05H268l16.35-26.05Z"/><polygon class="cls-2" points="292.18 28.76 286.1 43.34 298.27 43.34 292.18 28.76"/><line class="cls-2" x1="296.44" y1="43.37" x2="296.44" y2="50.29"/><line class="cls-2" x1="287.58" y1="50.29" x2="287.58" y2="43.37"/><line class="cls-2" x1="292.18" y1="30.76" x2="292.18" y2="4.77"/><circle class="cls-2" cx="292.17" cy="3.12" r="2.12"/><polygon class="cls-2" points="455.3 28.76 449.21 43.34 461.38 43.34 455.3 28.76"/><line class="cls-2" x1="459.55" y1="43.37" x2="459.55" y2="50.29"/><line class="cls-2" x1="450.69" y1="50.29" x2="450.69" y2="43.37"/><line class="cls-2" x1="455.3" y1="30.76" x2="455.3" y2="4.77"/><circle class="cls-2" cx="455.29" cy="3.12" r="2.12"/><line class="cls-2" x1="309.56" y1="76.64" x2="309.56" y2="101.88"/><path class="cls-2" d="M292.54,84.2h0a2.54,2.54,0,0,1,2.54,2.54v6.45a0,0,0,0,1,0,0H290a0,0,0,0,1,0,0V86.73a2.54,2.54,0,0,1,2.54-2.54Z"/><path class="cls-2" d="M283.63,84.2h0a2.54,2.54,0,0,1,2.54,2.54v6.45a0,0,0,0,1,0,0h-5.07a0,0,0,0,1,0,0V86.73A2.54,2.54,0,0,1,283.63,84.2Z"/><path class="cls-2" d="M301.42,84.15h0A2.54,2.54,0,0,1,304,86.68v6.45a0,0,0,0,1,0,0h-5.07a0,0,0,0,1,0,0V86.68A2.54,2.54,0,0,1,301.42,84.15Z"/><line class="cls-2" x1="275.12" y1="131.05" x2="99.66" y2="131.05"/><line class="cls-2" x1="275.37" y1="156.26" x2="112.97" y2="156.26"/><line class="cls-2" x1="112.41" y1="274.8" x2="112.41" y2="144.59"/><line class="cls-1" x1="416.05" y1="196.24" x2="331.98" y2="196.24"/><line class="cls-2" x1="357.48" y1="257.58" x2="8.47" y2="257.58"/><polyline class="cls-2" points="241.31 203.61 241.31 181.59 239.56 174.16 235.34 174.16 235.36 174.16 231.14 174.16 229.39 181.59 229.39 203.61"/><line class="cls-1" x1="244.1" y1="203.72" x2="226.88" y2="203.72"/><line class="cls-2" x1="229.96" y1="181.59" x2="240.74" y2="181.59"/><polyline class="cls-2" points="213.88 203.41 213.88 181.59 212.13 174.16 207.91 174.16 207.93 174.16 203.72 174.16 201.96 181.59 201.96 203.41"/><line class="cls-1" x1="216.67" y1="203.72" x2="199.45" y2="203.72"/><line class="cls-2" x1="202.53" y1="181.59" x2="213.31" y2="181.59"/><polyline class="cls-2" points="186.63 203.41 186.63 181.59 184.88 174.16 180.66 174.16 180.68 174.16 176.46 174.16 174.71 181.59 174.71 203.41"/><line class="cls-1" x1="189.42" y1="203.72" x2="172.2" y2="203.72"/><line class="cls-2" x1="175.85" y1="181.59" x2="186.06" y2="181.59"/><polyline class="cls-2" points="159.05 203.31 159.05 181.59 157.3 174.16 153.08 174.16 153.1 174.16 148.88 174.16 147.13 181.59 147.13 203.31"/><line class="cls-1" x1="161.84" y1="203.72" x2="144.62" y2="203.72"/><line class="cls-2" x1="147.7" y1="181.59" x2="158.48" y2="181.59"/><polyline class="cls-2" points="131.95 203.31 131.95 181.59 130.2 174.16 125.98 174.16 126 174.16 121.78 174.16 120.03 181.59 120.03 203.31"/><line class="cls-1" x1="134.74" y1="203.72" x2="117.52" y2="203.72"/><line class="cls-2" x1="120.6" y1="181.59" x2="131.38" y2="181.59"/><polyline class="cls-2" points="268.11 203.36 268.11 181.65 266.36 174.21 262.14 174.21 262.16 174.21 257.95 174.21 256.19 181.65 256.19 203.36"/><line class="cls-1" x1="270.91" y1="203.77" x2="253.69" y2="203.77"/><line class="cls-2" x1="257.33" y1="181.64" x2="266.98" y2="181.64"/><path class="cls-2" d="M339.7,190V156.54a8.75,8.75,0,0,1,8.75-8.75h0a8.75,8.75,0,0,1,8.75,8.75V190Z"/><line class="cls-2" x1="340.21" y1="158.88" x2="356.71" y2="158.88"/><line class="cls-1" x1="337.91" y1="142.18" x2="359" y2="142.18"/><path class="cls-2" d="M365.26,190V156.54a8.75,8.75,0,0,1,8.75-8.75h0a8.75,8.75,0,0,1,8.75,8.75V190Z"/><line class="cls-2" x1="365.76" y1="158.88" x2="382.26" y2="158.88"/><line class="cls-1" x1="363.47" y1="142.18" x2="384.56" y2="142.18"/><path class="cls-2" d="M390.87,190V156.54a8.75,8.75,0,0,1,8.75-8.75h0a8.75,8.75,0,0,1,8.75,8.75V190Z"/><line class="cls-2" x1="391.37" y1="158.88" x2="407.87" y2="158.88"/><line class="cls-1" x1="389.08" y1="142.18" x2="410.16" y2="142.18"/><path class="cls-2" d="M74.7,202.59V175.26a7.42,7.42,0,0,1,7.42-7.42h0a7.42,7.42,0,0,1,7.42,7.42v27.32Z"/><line class="cls-2" x1="74.64" y1="177.25" x2="89.59" y2="177.25"/><path class="cls-2" d="M52.93,202.59V175.26a7.42,7.42,0,0,1,7.42-7.42h0a7.42,7.42,0,0,1,7.42,7.42v27.32Z"/><line class="cls-2" x1="52.88" y1="177.25" x2="67.83" y2="177.25"/><path class="cls-2" d="M31,202.59V175.26a7.42,7.42,0,0,1,7.42-7.42h0a7.42,7.42,0,0,1,7.42,7.42v27.32Z"/><line class="cls-2" x1="30.99" y1="177.25" x2="45.94" y2="177.25"/><polyline class="cls-2" points="390.17 270.21 390.17 224.64 384.68 212.16 374.95 212.16 373.15 212.16 363.42 212.16 357.93 224.64 357.93 269.81"/><polygon class="cls-2" points="383.94 266.31 383.94 238.61 380.94 228.38 367.16 228.38 364.17 238.61 364.17 266.31 383.94 266.31"/><line class="cls-2" x1="364.17" y1="238.61" x2="383.93" y2="238.61"/><line class="cls-2" x1="373.83" y1="266.19" x2="373.83" y2="228.38"/><path class="cls-2" d="M201.38,275.23v-6.76c0-2.45,2.9-4.43,6.48-4.43h0c3.58,0,6.48,2,6.48,4.43v6.76"/><path class="cls-2" d="M228.67,275.23v-6.76c0-2.45,2.9-4.43,6.48-4.43h0c3.58,0,6.48,2,6.48,4.43v6.19"/><path class="cls-2" d="M255.62,274.66v-6.19c0-2.45,2.9-4.43,6.48-4.43h0c3.58,0,6.48,2,6.48,4.43v6.19"/><path class="cls-2" d="M174.09,275.23v-6.76c0-2.45,2.9-4.43,6.48-4.43h0c3.58,0,6.48,2,6.48,4.43v6.76"/><path class="cls-2" d="M146.64,275.23v-6.76c0-2.45,2.9-4.43,6.48-4.43h0c3.58,0,6.48,2,6.48,4.43v6.76"/><path class="cls-2" d="M119.36,275.23v-6.76c0-2.45,2.9-4.43,6.48-4.43h0c3.58,0,6.48,2,6.48,4.43v6.76"/><path class="cls-2" d="M75.63,274.79V268c0-2.45,2.9-4.43,6.48-4.43h0c3.58,0,6.48,2,6.48,4.43v6.76"/><path class="cls-2" d="M53.79,274.79V268c0-2.45,2.9-4.43,6.48-4.43h0c3.58,0,6.48,2,6.48,4.43v6.76"/><path class="cls-2" d="M31.83,274.79V268c0-2.45,2.9-4.43,6.48-4.43h0c3.58,0,6.48,2,6.48,4.43v6.76"/><path class="cls-2" d="M357.78,260.16"/><polyline class="cls-2" points="364.17 266.31 349.37 275.05 349.37 257.87"/><polyline class="cls-2" points="338.68 118.31 338.68 126.62 334.35 126.62 334.35 118.31"/><polyline class="cls-2" points="363.74 118.31 363.74 126.62 359.41 126.62 359.41 118.31"/><polyline class="cls-2" points="388.49 118.31 388.49 126.62 384.17 126.62 384.17 118.31"/><line class="cls-2" x1="296.34" y1="117.77" x2="296.34" y2="274.69"/><line class="cls-2" x1="451.68" y1="257.28" x2="451.68" y2="118.07"/><line class="cls-2" x1="472.56" y1="76.48" x2="472.56" y2="275.13"/><line class="cls-2" x1="438.45" y1="76.64" x2="438.45" y2="101.68"/><path class="cls-2" d="M452.94,84.2H458a0,0,0,0,1,0,0v6.45a2.54,2.54,0,0,1-2.54,2.54h0a2.54,2.54,0,0,1-2.54-2.54V84.2a0,0,0,0,1,0,0Z" transform="translate(910.96 177.38) rotate(-180)"/><path class="cls-2" d="M461.85,84.2h5.07a0,0,0,0,1,0,0v6.45a2.54,2.54,0,0,1-2.54,2.54h0a2.54,2.54,0,0,1-2.54-2.54V84.2A0,0,0,0,1,461.85,84.2Z" transform="translate(928.76 177.38) rotate(-180)"/><path class="cls-2" d="M444.05,84.15h5.07a0,0,0,0,1,0,0v6.45a2.54,2.54,0,0,1-2.54,2.54h0a2.54,2.54,0,0,1-2.54-2.54V84.15a0,0,0,0,1,0,0Z" transform="translate(893.18 177.28) rotate(-180)"/><line class="cls-2" x1="472.79" y1="131.05" x2="647.98" y2="131.05"/><line class="cls-2" x1="472.64" y1="156.26" x2="635.61" y2="156.26"/><line class="cls-2" x1="635.61" y1="274.8" x2="635.61" y2="145.06"/><path class="cls-2" d="M518.7,249.1V229.95a6,6,0,0,0-6-6h0a6,6,0,0,0-6,6V249.1"/><line class="cls-1" x1="520.16" y1="249.5" x2="505.32" y2="249.5"/><path class="cls-2" d="M491.91,249.1V229.95a6,6,0,0,0-6-6h0a6,6,0,0,0-6,6V249.1"/><line class="cls-1" x1="493.38" y1="249.5" x2="478.53" y2="249.5"/><path class="cls-2" d="M628,249.1V229.95a6,6,0,0,0-6-6h0a6,6,0,0,0-6,6V249.1"/><line class="cls-1" x1="629.48" y1="249.5" x2="614.63" y2="249.5"/><path class="cls-2" d="M546,249.1V229.95a6,6,0,0,0-6-6h0a6,6,0,0,0-6,6V249.1"/><line class="cls-1" x1="547.45" y1="249.5" x2="532.6" y2="249.5"/><path class="cls-2" d="M573.27,249.1V229.95a6,6,0,0,0-6-6h0a6,6,0,0,0-6,6V249.1"/><line class="cls-1" x1="574.74" y1="249.5" x2="559.89" y2="249.5"/><path class="cls-2" d="M600.89,249.1V229.95a6,6,0,0,0-6-6h0a6,6,0,0,0-6,6V249.1"/><line class="cls-1" x1="602.36" y1="249.5" x2="587.51" y2="249.5"/><line class="cls-2" x1="390.13" y1="257.58" x2="739.54" y2="257.58"/><polyline class="cls-2" points="506.7 203.71 506.7 181.59 508.46 174.16 512.67 174.16 512.65 174.16 516.87 174.16 518.62 181.59 518.62 203.71"/><line class="cls-1" x1="503.91" y1="203.72" x2="521.13" y2="203.72"/><line class="cls-2" x1="518.06" y1="181.59" x2="507.27" y2="181.59"/><polyline class="cls-2" points="534.13 203.71 534.13 181.59 535.88 174.16 540.1 174.16 540.08 174.16 544.3 174.16 546.05 181.59 546.05 203.71"/><line class="cls-1" x1="531.34" y1="203.72" x2="548.56" y2="203.72"/><line class="cls-2" x1="545.48" y1="181.59" x2="534.7" y2="181.59"/><polyline class="cls-2" points="561.38 203.71 561.38 181.59 563.14 174.16 567.35 174.16 567.33 174.16 571.55 174.16 573.3 181.59 573.3 203.71"/><line class="cls-1" x1="558.59" y1="203.72" x2="575.81" y2="203.72"/><line class="cls-2" x1="572.74" y1="181.59" x2="561.95" y2="181.59"/><polyline class="cls-2" points="588.96 203.41 588.96 181.59 590.71 174.16 594.93 174.16 594.91 174.16 599.13 174.16 600.88 181.59 600.88 203.41"/><line class="cls-1" x1="586.17" y1="203.72" x2="603.39" y2="203.72"/><line class="cls-2" x1="600.31" y1="181.59" x2="589.53" y2="181.59"/><polyline class="cls-2" points="616.07 203.51 616.07 181.59 617.82 174.16 622.03 174.16 622.01 174.16 626.23 174.16 627.98 181.59 627.98 203.51"/><line class="cls-1" x1="613.27" y1="203.72" x2="630.49" y2="203.72"/><line class="cls-2" x1="627.42" y1="181.59" x2="616.63" y2="181.59"/><polyline class="cls-2" points="479.9 203.76 479.9 181.65 481.65 174.21 485.87 174.21 485.85 174.21 490.07 174.21 491.82 181.65 491.82 203.76"/><line class="cls-1" x1="477.11" y1="203.77" x2="494.33" y2="203.77"/><line class="cls-2" x1="491.25" y1="181.64" x2="480.47" y2="181.64"/><polyline class="cls-2" points="451.82 200.53 465.99 200.53 465.99 210.61 452.02 210.61"/><polyline class="cls-2" points="460.53 200.82 460.53 176.33 451.95 176.33"/><line class="cls-1" x1="390.5" y1="248.31" x2="451.44" y2="248.31"/><line class="cls-1" x1="450.29" y1="227.9" x2="390.35" y2="227.9"/><path class="cls-2" d="M427.26,248.65v-21.5a11.93,11.93,0,0,0-11.8-12.07h0a11.93,11.93,0,0,0-11.8,12.07v21.5"/><line class="cls-2" x1="415.41" y1="227.52" x2="415.41" y2="248.37"/><line class="cls-2" x1="332.8" y1="227.77" x2="332.8" y2="248.62"/><line class="cls-1" x1="296.87" y1="248.31" x2="357.81" y2="248.31"/><line class="cls-1" x1="357.66" y1="227.9" x2="297.61" y2="227.9"/><path class="cls-2" d="M344.6,248.65v-21.5a11.93,11.93,0,0,0-11.8-12.07h0A11.93,11.93,0,0,0,321,227.14v21.5"/><path class="cls-2" d="M546.63,275.13v-6.66c0-2.45-2.9-4.43-6.48-4.43h0c-3.58,0-6.48,2-6.48,4.43v6.66"/><path class="cls-2" d="M519.35,275.13v-6.66c0-2.45-2.9-4.43-6.48-4.43h0c-3.58,0-6.48,2-6.48,4.43v6.66"/><path class="cls-2" d="M492.39,275.13v-6.66c0-2.45-2.9-4.43-6.48-4.43h0c-3.58,0-6.48,2-6.48,4.43v6.66"/><path class="cls-2" d="M573.92,275.13v-6.66c0-2.45-2.9-4.43-6.48-4.43h0c-3.58,0-6.48,2-6.48,4.43v6.66"/><path class="cls-2" d="M601.37,275.13v-6.66c0-2.45-2.9-4.43-6.48-4.43h0c-3.58,0-6.48,2-6.48,4.43v6.66"/><path class="cls-2" d="M628.66,275.13v-6.66c0-2.45-2.9-4.43-6.48-4.43h0c-3.58,0-6.48,2-6.48,4.43v6.66"/><path class="cls-2" d="M672.38,275.19V268c0-2.45-2.9-4.43-6.48-4.43h0c-3.58,0-6.48,2-6.48,4.43v7.16"/><path class="cls-2" d="M694.22,275.19V268c0-2.45-2.9-4.43-6.48-4.43h0c-3.58,0-6.48,2-6.48,4.43v7.16"/><path class="cls-2" d="M716.18,275.19V268c0-2.45-2.9-4.43-6.48-4.43h0c-3.58,0-6.48,2-6.48,4.43v7.16"/><line class="cls-2" x1="451.73" y1="257.56" x2="451.73" y2="274.97"/><path class="cls-2" d="M390.23,260.16"/><path class="cls-2" d="M158.88,249.14V230a6,6,0,0,0-6-6h0a6,6,0,0,0-6,6v19.15"/><line class="cls-1" x1="160.35" y1="249.55" x2="145.5" y2="249.55"/><path class="cls-2" d="M132.09,249.14V230a6,6,0,0,0-6-6h0a6,6,0,0,0-6,6v19.15"/><line class="cls-1" x1="133.56" y1="249.55" x2="118.71" y2="249.55"/><path class="cls-2" d="M268.19,249.14V230a6,6,0,0,0-6-6h0a6,6,0,0,0-6,6v19.15"/><line class="cls-1" x1="269.66" y1="249.55" x2="254.81" y2="249.55"/><path class="cls-2" d="M186.17,249.14V230a6,6,0,0,0-6-6h0a6,6,0,0,0-6,6v19.15"/><line class="cls-1" x1="187.63" y1="249.55" x2="172.78" y2="249.55"/><path class="cls-2" d="M213.45,249.14V230a6,6,0,0,0-6-6h0a6,6,0,0,0-6,6v19.15"/><line class="cls-1" x1="214.92" y1="249.55" x2="200.07" y2="249.55"/><path class="cls-2" d="M241.07,249.14V230a6,6,0,0,0-6-6h0a6,6,0,0,0-6,6v19.15"/><line class="cls-1" x1="242.54" y1="249.55" x2="227.69" y2="249.55"/><polyline class="cls-2" points="383.85 266.31 398.64 275.05 398.64 258.35"/><polyline class="cls-2" points="313.42 118.31 313.42 126.62 317.74 126.62 317.74 118.31"/><polyline class="cls-2" points="302.44 118.31 302.44 126.62 306.76 126.62 306.76 118.31"/><polyline class="cls-2" points="441.19 118.31 441.19 126.62 445.52 126.62 445.52 118.31"/><polyline class="cls-2" points="430.21 118.31 430.21 126.62 434.54 126.62 434.54 118.31"/><polyline class="cls-2" points="409.43 118.31 409.43 126.62 413.76 126.62 413.76 118.31"/><polygon class="cls-2" points="282.11 117.42 465.79 117.42 414.88 88.47 412.88 79.49 335.02 79.49 333.02 88.47 282.11 117.42"/><polygon class="cls-2" points="628.88 144.64 672.25 114.42 687.8 96.3 703.33 114.42 746.7 144.64 628.88 144.64"/><polygon class="cls-2" points="1 144.67 44.37 114.45 59.92 96.33 75.45 114.45 118.83 144.67 1 144.67"/><path class="cls-2" d="M286.16,250.78V230.3a6,6,0,0,1,6-6h0a6,6,0,0,1,3.95,1.49"/><line class="cls-1" x1="284.68" y1="251.09" x2="296.26" y2="251.09"/><polyline class="cls-1" points="452.14 165.98 455.42 161.48 461 169.14 452.57 169.14"/><polyline class="cls-2" points="296.2 176.23 287.21 176.23 287.21 200.72"/><polyline class="cls-1" points="296.3 166.79 292.33 161.38 286.75 169.04 296.18 169.04"/><line class="cls-1" x1="94.97" y1="208.7" x2="25.39" y2="208.7"/><line class="cls-1" x1="722.48" y1="208.75" x2="652.9" y2="208.75"/><path class="cls-2" d="M702.21,202.49V175.16a7.42,7.42,0,0,1,7.42-7.42h0a7.42,7.42,0,0,1,7.42,7.42v27.32Z"/><line class="cls-2" x1="702.15" y1="177.15" x2="717.1" y2="177.15"/><path class="cls-2" d="M680.45,202.49V175.16a7.42,7.42,0,0,1,7.42-7.42h0a7.42,7.42,0,0,1,7.42,7.42v27.32Z"/><line class="cls-2" x1="680.39" y1="177.15" x2="695.34" y2="177.15"/><path class="cls-2" d="M658.56,202.49V175.16a7.42,7.42,0,0,1,7.42-7.42h0a7.42,7.42,0,0,1,7.42,7.42v27.32Z"/><line class="cls-2" x1="658.5" y1="177.15" x2="673.45" y2="177.15"/><path class="cls-1" d="M718,162.13l-8.35-10.45-8.35,10.45Z"/><path class="cls-1" d="M696.22,162.13l-8.35-10.45-8.35,10.45Z"/><path class="cls-1" d="M674.33,162.13,666,151.68l-8.35,10.45Z"/><line class="cls-1" x1="275.74" y1="227.9" x2="286.15" y2="227.9"/><path class="cls-1" d="M275.41,248.47"/><line class="cls-1" x1="275.74" y1="248.31" x2="285.72" y2="248.31"/><path class="cls-2" d="M462.13,250.31V229.84a6,6,0,0,0-6-6h0a6,6,0,0,0-3.95,1.49"/><line class="cls-1" x1="463.61" y1="250.63" x2="452.03" y2="250.63"/><line class="cls-1" x1="472.55" y1="227.9" x2="462.7" y2="227.9"/><line class="cls-1" x1="472.55" y1="248.31" x2="462.57" y2="248.31"/><path class="cls-2" d="M74.6,249.08V224.55c0-3.55,3.32-6.43,7.42-6.43h0c4.1,0,7.42,2.88,7.42,6.43v24.54"/><path class="cls-2" d="M53.18,249.08V224.55c0-3.55,3.32-6.43,7.42-6.43h0c4.1,0,7.42,2.88,7.42,6.43v24.54"/><path class="cls-2" d="M31.07,249.08V224.55c0-3.55,3.32-6.43,7.42-6.43h0c4.1,0,7.42,2.88,7.42,6.43v24.54"/><line class="cls-2" x1="112.71" y1="248.31" x2="8.17" y2="248.31"/><line class="cls-2" x1="112.89" y1="227.9" x2="8.35" y2="227.9"/><path class="cls-2" d="M673.42,248.3V223.77c0-3.55-3.32-6.43-7.42-6.43h0c-4.1,0-7.42,2.88-7.42,6.43V248.3"/><path class="cls-2" d="M694.83,248.3V223.77c0-3.55-3.32-6.43-7.42-6.43h0c-4.1,0-7.42,2.88-7.42,6.43V248.3"/><path class="cls-2" d="M716.94,248.3V223.77c0-3.55-3.32-6.43-7.42-6.43h0c-4.1,0-7.42,2.88-7.42,6.43V248.3"/><line class="cls-2" x1="739.91" y1="248.31" x2="635.38" y2="248.31"/><line class="cls-2" x1="740.09" y1="227.9" x2="635.56" y2="227.9"/></g></g></svg>