<svg xmlns="http://www.w3.org/2000/svg" viewBox="0 0 840 857.63"><defs><style>.cls-1,.cls-2,.cls-3,.cls-4,.cls-5,.cls-6,.cls-7{fill:none;stroke-linejoin:round;}.cls-1,.cls-2{stroke:#2222c3;}.cls-2{opacity:0.2;}.cls-3{stroke:#63aefb;}.cls-4{stroke:#d51c1c;}.cls-5{stroke:#d31fc7;}.cls-6,.cls-7{stroke:#999;stroke-width:2px;}.cls-6{stroke-linecap:round;}.cls-8{fill:#999;}</style></defs><title>Asset 10</title><g id="Layer_2" data-name="Layer 2"><g id="Слой_1" data-name="Слой 1"><line class="cls-1" x1="10" y1="528.33" x2="840" y2="528.33"/><line class="cls-2" x1="10" y1="600.81" x2="840" y2="600.81"/><line class="cls-2" x1="10" y1="561.23" x2="840" y2="561.23"/><line class="cls-2" y1="747.81" x2="830" y2="747.81"/><line class="cls-2" y1="708.23" x2="830" y2="708.23"/><line class="cls-2" x1="10" y1="675.21" x2="840" y2="675.21"/><line class="cls-2" x1="8" y1="780.23" x2="838" y2="780.23"/><line class="cls-3" x1="781.09" y1="423.56" x2="47.32" y2="423.56"/><line class="cls-3" x1="780.59" y1="633.92" x2="47.82" y2="210.85"/><line class="cls-3" x1="47.82" y1="633.92" x2="780.59" y2="210.85"/><polygon class="cls-4" points="47.82 212.03 47.82 635.1 414.2 846.63 780.59 635.1 780.59 212.03 414.2 0.5 47.82 212.03"/><polygon class="cls-4" points="414.2 0.5 47.82 635.1 780.59 635.1 414.2 0.5"/><polygon class="cls-4" points="47.82 212.03 780.59 212.03 414.2 846.63 47.82 212.03"/><line class="cls-3" x1="414.2" y1="0.5" x2="414.2" y2="846.63"/><line class="cls-5" x1="675.76" y1="0.5" x2="675.76" y2="846.63"/><line class="cls-5" x1="152.15" y1="0.5" x2="152.15" y2="846.63"/><line class="cls-5" x1="231.15" y1="7.5" x2="231.15" y2="853.63"/><line class="cls-5" x1="597.15" y1="11.5" x2="597.15" y2="857.63"/><path class="cls-6" d="M130.66,348.54l-8.35-10.45L114,348.54Z"/><path class="cls-6" d="M108.3,301.16l-8.35-10.45-8.35,10.45Z"/><path class="cls-6" d="M736.38,301.16,728,290.71l-8.35,10.45Z"/><path class="cls-6" d="M108.86,348.54l-8.35-10.45-8.35,10.45Z"/><path class="cls-6" d="M87,348.54l-8.35-10.45-8.35,10.45Z"/><polyline class="cls-7" points="779.92 331.38 779.92 461.55 48.41 461.54 48.41 331.94"/><polyline class="cls-7" points="336.55 386.94 322.27 386.94 322.27 397.02 336.34 397.02"/><path class="cls-7" d="M336.5,442.08"/><line class="cls-7" x1="315.61" y1="262.89" x2="315.61" y2="461.75"/><path class="cls-7" d="M503.68,237.09,520,263.14H471.29l16.35-26.05Z"/><path class="cls-7" d="M340.56,237.09l16.35,26.05H308.17l16.35-26.05Z"/><polygon class="cls-7" points="332.34 215.18 326.26 229.75 338.43 229.75 332.34 215.18"/><line class="cls-7" x1="336.6" y1="229.79" x2="336.6" y2="236.7"/><line class="cls-7" x1="327.74" y1="236.7" x2="327.74" y2="229.79"/><line class="cls-7" x1="332.34" y1="217.17" x2="332.34" y2="191.18"/><circle class="cls-7" cx="332.33" cy="189.54" r="2.12"/><polygon class="cls-7" points="495.46 215.18 489.37 229.75 501.54 229.75 495.46 215.18"/><line class="cls-7" x1="499.71" y1="229.79" x2="499.71" y2="236.7"/><line class="cls-7" x1="490.85" y1="236.7" x2="490.85" y2="229.79"/><line class="cls-7" x1="495.46" y1="217.17" x2="495.46" y2="191.18"/><circle class="cls-7" cx="495.44" cy="189.54" r="2.12"/><line class="cls-7" x1="349.72" y1="263.06" x2="349.72" y2="288.3"/><path class="cls-7" d="M332.69,270.61h0a2.54,2.54,0,0,1,2.54,2.54v6.45a0,0,0,0,1,0,0h-5.07a0,0,0,0,1,0,0v-6.45a2.54,2.54,0,0,1,2.54-2.54Z"/><path class="cls-7" d="M323.79,270.61h0a2.54,2.54,0,0,1,2.54,2.54v6.45a0,0,0,0,1,0,0h-5.07a0,0,0,0,1,0,0v-6.45A2.54,2.54,0,0,1,323.79,270.61Z"/><path class="cls-7" d="M341.58,270.56h0a2.54,2.54,0,0,1,2.54,2.54v6.45a0,0,0,0,1,0,0H339a0,0,0,0,1,0,0V273.1A2.54,2.54,0,0,1,341.58,270.56Z"/><line class="cls-7" x1="315.28" y1="317.46" x2="139.82" y2="317.46"/><line class="cls-7" x1="315.53" y1="342.67" x2="153.13" y2="342.67"/><line class="cls-7" x1="152.56" y1="461.22" x2="152.56" y2="331.01"/><line class="cls-6" x1="456.21" y1="382.65" x2="372.14" y2="382.65"/><line class="cls-7" x1="397.64" y1="444" x2="48.63" y2="443.99"/><polyline class="cls-7" points="281.47 390.02 281.47 368.01 279.72 360.57 275.5 360.57 275.52 360.57 271.3 360.57 269.55 368.01 269.55 390.02"/><line class="cls-6" x1="284.26" y1="390.14" x2="267.04" y2="390.14"/><line class="cls-7" x1="270.12" y1="368.01" x2="280.9" y2="368.01"/><polyline class="cls-7" points="254.04 389.82 254.04 368.01 252.29 360.57 248.07 360.57 248.09 360.57 243.87 360.57 242.12 368.01 242.12 389.82"/><line class="cls-6" x1="256.83" y1="390.14" x2="239.61" y2="390.14"/><line class="cls-7" x1="242.69" y1="368.01" x2="253.47" y2="368.01"/><polyline class="cls-7" points="226.79 389.82 226.79 368.01 225.04 360.57 220.82 360.57 220.84 360.57 216.62 360.57 214.87 368.01 214.87 389.82"/><line class="cls-6" x1="229.58" y1="390.14" x2="212.36" y2="390.14"/><line class="cls-7" x1="216" y1="368.01" x2="226.22" y2="368.01"/><polyline class="cls-7" points="199.21 389.73 199.21 368.01 197.46 360.57 193.24 360.57 193.26 360.57 189.04 360.57 187.29 368.01 187.29 389.73"/><line class="cls-6" x1="202" y1="390.14" x2="184.78" y2="390.14"/><line class="cls-7" x1="187.86" y1="368.01" x2="198.64" y2="368.01"/><polyline class="cls-7" points="172.11 389.73 172.11 368.01 170.36 360.57 166.14 360.57 166.16 360.57 161.94 360.57 160.19 368.01 160.19 389.73"/><line class="cls-6" x1="174.9" y1="390.14" x2="157.68" y2="390.14"/><line class="cls-7" x1="160.76" y1="368.01" x2="171.54" y2="368.01"/><polyline class="cls-7" points="308.27 389.78 308.27 368.06 306.52 360.62 302.3 360.62 302.32 360.62 298.11 360.62 296.35 368.06 296.35 389.78"/><line class="cls-6" x1="311.06" y1="390.19" x2="293.84" y2="390.19"/><line class="cls-7" x1="297.49" y1="368.06" x2="307.14" y2="368.06"/><path class="cls-7" d="M379.86,376.37V343a8.75,8.75,0,0,1,8.75-8.75h0a8.75,8.75,0,0,1,8.75,8.75v33.42Z"/><line class="cls-7" x1="380.37" y1="345.3" x2="396.87" y2="345.3"/><line class="cls-6" x1="378.07" y1="328.59" x2="399.16" y2="328.59"/><path class="cls-7" d="M405.42,376.37V343a8.75,8.75,0,0,1,8.75-8.75h0a8.75,8.75,0,0,1,8.75,8.75v33.42Z"/><line class="cls-7" x1="405.92" y1="345.3" x2="422.42" y2="345.3"/><line class="cls-6" x1="403.63" y1="328.59" x2="424.72" y2="328.59"/><path class="cls-7" d="M431,376.37V343a8.75,8.75,0,0,1,8.75-8.75h0a8.75,8.75,0,0,1,8.75,8.75v33.42Z"/><line class="cls-7" x1="431.53" y1="345.3" x2="448.03" y2="345.3"/><line class="cls-6" x1="429.23" y1="328.59" x2="450.32" y2="328.59"/><path class="cls-7" d="M114.85,389V361.68a7.42,7.42,0,0,1,7.42-7.42h0a7.42,7.42,0,0,1,7.42,7.42V389Z"/><line class="cls-7" x1="114.8" y1="363.66" x2="129.75" y2="363.66"/><path class="cls-7" d="M93.09,389V361.68a7.42,7.42,0,0,1,7.42-7.42h0a7.42,7.42,0,0,1,7.42,7.42V389Z"/><line class="cls-7" x1="93.04" y1="363.66" x2="107.98" y2="363.66"/><path class="cls-7" d="M71.2,389V361.68a7.42,7.42,0,0,1,7.42-7.42h0A7.42,7.42,0,0,1,86,361.68V389Z"/><line class="cls-7" x1="71.15" y1="363.66" x2="86.1" y2="363.66"/><polyline class="cls-7" points="430.33 456.62 430.33 411.05 424.84 398.57 415.11 398.57 413.31 398.57 403.58 398.57 398.09 411.05 398.09 456.22"/><polygon class="cls-7" points="424.09 452.73 424.09 425.03 421.1 414.8 407.32 414.8 404.33 425.03 404.33 452.73 424.09 452.73"/><line class="cls-7" x1="404.33" y1="425.03" x2="424.09" y2="425.03"/><line class="cls-7" x1="413.99" y1="452.61" x2="413.99" y2="414.8"/><path class="cls-7" d="M241.54,461.65v-6.76c0-2.45,2.9-4.43,6.48-4.43h0c3.58,0,6.48,2,6.48,4.43v6.76"/><path class="cls-7" d="M268.83,461.65v-6.76c0-2.45,2.9-4.43,6.48-4.43h0c3.58,0,6.48,2,6.48,4.43v6.19"/><path class="cls-7" d="M295.78,461.08v-6.19c0-2.45,2.9-4.43,6.48-4.43h0c3.58,0,6.48,2,6.48,4.43v6.19"/><path class="cls-7" d="M214.25,461.65v-6.76c0-2.45,2.9-4.43,6.48-4.43h0c3.58,0,6.48,2,6.48,4.43v6.76"/><path class="cls-7" d="M186.8,461.65v-6.76c0-2.45,2.9-4.43,6.48-4.43h0c3.58,0,6.48,2,6.48,4.43v6.76"/><path class="cls-7" d="M159.51,461.65v-6.76c0-2.45,2.9-4.43,6.48-4.43h0c3.58,0,6.48,2,6.48,4.43v6.76"/><path class="cls-7" d="M115.79,461.21v-6.76c0-2.45,2.9-4.43,6.48-4.43h0c3.58,0,6.48,2,6.48,4.43v6.76"/><path class="cls-7" d="M94,461.21v-6.76c0-2.45,2.9-4.43,6.48-4.43h0c3.58,0,6.48,2,6.48,4.43v6.76"/><path class="cls-7" d="M72,461.21v-6.76c0-2.45,2.9-4.43,6.48-4.43h0c3.58,0,6.48,2,6.48,4.43v6.76"/><path class="cls-7" d="M397.94,446.57"/><polyline class="cls-7" points="404.33 452.73 389.53 461.46 389.53 444.29"/><polyline class="cls-7" points="378.84 304.72 378.84 313.04 374.51 313.04 374.51 304.72"/><polyline class="cls-7" points="403.89 304.72 403.89 313.04 399.57 313.04 399.57 304.72"/><polyline class="cls-7" points="428.65 304.72 428.65 313.04 424.33 313.04 424.33 304.72"/><line class="cls-7" x1="336.5" y1="304.19" x2="336.5" y2="461.1"/><line class="cls-7" x1="491.84" y1="443.7" x2="491.84" y2="304.49"/><line class="cls-7" x1="512.72" y1="262.89" x2="512.72" y2="461.55"/><line class="cls-7" x1="478.61" y1="263.06" x2="478.61" y2="288.1"/><path class="cls-7" d="M493.1,270.61h5.07a0,0,0,0,1,0,0v6.45a2.54,2.54,0,0,1-2.54,2.54h0a2.54,2.54,0,0,1-2.54-2.54v-6.45A0,0,0,0,1,493.1,270.61Z" transform="translate(991.27 550.21) rotate(-180)"/><path class="cls-7" d="M502,270.61h5.07a0,0,0,0,1,0,0v6.45a2.54,2.54,0,0,1-2.54,2.54h0a2.54,2.54,0,0,1-2.54-2.54v-6.45A0,0,0,0,1,502,270.61Z" transform="translate(1009.08 550.21) rotate(-180)"/><path class="cls-7" d="M484.21,270.56h5.07a0,0,0,0,1,0,0V277a2.54,2.54,0,0,1-2.54,2.54h0a2.54,2.54,0,0,1-2.54-2.54v-6.45A0,0,0,0,1,484.21,270.56Z" transform="translate(973.5 550.11) rotate(-180)"/><line class="cls-7" x1="512.95" y1="317.46" x2="688.14" y2="317.46"/><line class="cls-7" x1="512.8" y1="342.67" x2="675.77" y2="342.67"/><line class="cls-7" x1="675.77" y1="461.22" x2="675.77" y2="331.48"/><path class="cls-7" d="M558.86,435.51V416.36a6,6,0,0,0-6-6h0a6,6,0,0,0-6,6v19.15"/><line class="cls-6" x1="560.32" y1="435.92" x2="545.47" y2="435.92"/><path class="cls-7" d="M532.07,435.51V416.36a6,6,0,0,0-6-6h0a6,6,0,0,0-6,6v19.15"/><line class="cls-6" x1="533.54" y1="435.92" x2="518.69" y2="435.92"/><path class="cls-7" d="M668.17,435.51V416.36a6,6,0,0,0-6-6h0a6,6,0,0,0-6,6v19.15"/><line class="cls-6" x1="669.63" y1="435.92" x2="654.78" y2="435.92"/><path class="cls-7" d="M586.14,435.51V416.36a6,6,0,0,0-6-6h0a6,6,0,0,0-6,6v19.15"/><line class="cls-6" x1="587.61" y1="435.92" x2="572.76" y2="435.92"/><path class="cls-7" d="M613.43,435.51V416.36a6,6,0,0,0-6-6h0a6,6,0,0,0-6,6v19.15"/><line class="cls-6" x1="614.9" y1="435.92" x2="600.05" y2="435.92"/><path class="cls-7" d="M641,435.51V416.36a6,6,0,0,0-6-6h0a6,6,0,0,0-6,6v19.15"/><line class="cls-6" x1="642.51" y1="435.92" x2="627.66" y2="435.92"/><line class="cls-7" x1="430.29" y1="444" x2="779.7" y2="444"/><polyline class="cls-7" points="546.86 390.13 546.86 368.01 548.62 360.57 552.83 360.57 552.81 360.57 557.03 360.57 558.78 368.01 558.78 390.13"/><line class="cls-6" x1="544.07" y1="390.14" x2="561.29" y2="390.14"/><line class="cls-7" x1="558.21" y1="368.01" x2="547.43" y2="368.01"/><polyline class="cls-7" points="574.29 390.13 574.29 368.01 576.04 360.57 580.26 360.57 580.24 360.57 584.46 360.57 586.21 368.01 586.21 390.13"/><line class="cls-6" x1="571.5" y1="390.14" x2="588.72" y2="390.14"/><line class="cls-7" x1="585.64" y1="368.01" x2="574.86" y2="368.01"/><polyline class="cls-7" points="601.54 390.13 601.54 368.01 603.29 360.57 607.51 360.57 607.49 360.57 611.71 360.57 613.46 368.01 613.46 390.13"/><line class="cls-6" x1="598.75" y1="390.14" x2="615.97" y2="390.14"/><line class="cls-7" x1="612.89" y1="368.01" x2="602.11" y2="368.01"/><polyline class="cls-7" points="629.12 389.83 629.12 368.01 630.87 360.57 635.09 360.57 635.07 360.57 639.29 360.57 641.04 368.01 641.04 389.83"/><line class="cls-6" x1="626.33" y1="390.14" x2="643.55" y2="390.14"/><line class="cls-7" x1="640.47" y1="368.01" x2="629.69" y2="368.01"/><polyline class="cls-7" points="656.22 389.93 656.22 368.01 657.98 360.57 662.19 360.57 662.17 360.57 666.39 360.57 668.14 368.01 668.14 389.93"/><line class="cls-6" x1="653.43" y1="390.14" x2="670.65" y2="390.14"/><line class="cls-7" x1="667.57" y1="368.01" x2="656.79" y2="368.01"/><polyline class="cls-7" points="520.06 390.18 520.06 368.06 521.81 360.62 526.03 360.62 526.01 360.62 530.23 360.62 531.98 368.06 531.98 390.18"/><line class="cls-6" x1="517.27" y1="390.19" x2="534.49" y2="390.19"/><line class="cls-7" x1="531.41" y1="368.06" x2="520.63" y2="368.06"/><polyline class="cls-7" points="491.98 386.94 506.15 386.94 506.15 397.02 492.18 397.02"/><polyline class="cls-7" points="500.69 387.23 500.69 362.75 492.11 362.75"/><line class="cls-6" x1="430.66" y1="434.73" x2="491.6" y2="434.73"/><line class="cls-6" x1="490.45" y1="414.32" x2="430.51" y2="414.32"/><path class="cls-7" d="M467.42,435.06v-21.5a11.93,11.93,0,0,0-11.8-12.07h0a11.93,11.93,0,0,0-11.8,12.07v21.5"/><line class="cls-7" x1="455.57" y1="413.93" x2="455.57" y2="434.79"/><line class="cls-7" x1="372.96" y1="414.18" x2="372.96" y2="435.04"/><line class="cls-6" x1="337.02" y1="434.73" x2="397.96" y2="434.73"/><line class="cls-6" x1="397.81" y1="414.32" x2="337.77" y2="414.32"/><path class="cls-7" d="M384.76,435.06v-21.5A11.93,11.93,0,0,0,373,401.49h0a11.93,11.93,0,0,0-11.8,12.07v21.5"/><path class="cls-7" d="M586.79,461.55v-6.66c0-2.45-2.9-4.43-6.48-4.43h0c-3.58,0-6.48,2-6.48,4.43v6.66"/><path class="cls-7" d="M559.51,461.55v-6.66c0-2.45-2.9-4.43-6.48-4.43h0c-3.58,0-6.48,2-6.48,4.43v6.66"/><path class="cls-7" d="M532.55,461.55v-6.66c0-2.45-2.9-4.43-6.48-4.43h0c-3.58,0-6.48,2-6.48,4.43v6.66"/><path class="cls-7" d="M614.08,461.55v-6.66c0-2.45-2.9-4.43-6.48-4.43h0c-3.58,0-6.48,2-6.48,4.43v6.66"/><path class="cls-7" d="M641.53,461.55v-6.66c0-2.45-2.9-4.43-6.48-4.43h0c-3.58,0-6.48,2-6.48,4.43v6.66"/><path class="cls-7" d="M668.82,461.55v-6.66c0-2.45-2.9-4.43-6.48-4.43h0c-3.58,0-6.48,2-6.48,4.43v6.66"/><path class="cls-7" d="M712.54,461.61v-7.16c0-2.45-2.9-4.43-6.48-4.43h0c-3.58,0-6.48,2-6.48,4.43v7.16"/><path class="cls-7" d="M734.38,461.61v-7.16c0-2.45-2.9-4.43-6.48-4.43h0c-3.58,0-6.48,2-6.48,4.43v7.16"/><path class="cls-7" d="M756.34,461.61v-7.16c0-2.45-2.9-4.43-6.48-4.43h0c-3.58,0-6.48,2-6.48,4.43v7.16"/><line class="cls-7" x1="491.89" y1="443.98" x2="491.89" y2="461.38"/><path class="cls-7" d="M430.39,446.57"/><path class="cls-7" d="M199,435.56V416.41a6,6,0,0,0-6-6h0a6,6,0,0,0-6,6v19.15"/><line class="cls-6" x1="200.5" y1="435.97" x2="185.65" y2="435.97"/><path class="cls-7" d="M172.25,435.56V416.41a6,6,0,0,0-6-6h0a6,6,0,0,0-6,6v19.15"/><line class="cls-6" x1="173.72" y1="435.97" x2="158.87" y2="435.97"/><path class="cls-7" d="M308.35,435.56V416.41a6,6,0,0,0-6-6h0a6,6,0,0,0-6,6v19.15"/><line class="cls-6" x1="309.81" y1="435.97" x2="294.97" y2="435.97"/><path class="cls-7" d="M226.32,435.56V416.41a6,6,0,0,0-6-6h0a6,6,0,0,0-6,6v19.15"/><line class="cls-6" x1="227.79" y1="435.97" x2="212.94" y2="435.97"/><path class="cls-7" d="M253.61,435.56V416.41a6,6,0,0,0-6-6h0a6,6,0,0,0-6,6v19.15"/><line class="cls-6" x1="255.08" y1="435.97" x2="240.23" y2="435.97"/><path class="cls-7" d="M281.23,435.56V416.41a6,6,0,0,0-6-6h0a6,6,0,0,0-6,6v19.15"/><line class="cls-6" x1="282.69" y1="435.97" x2="267.85" y2="435.97"/><polyline class="cls-7" points="424 452.73 438.8 461.46 438.8 444.76"/><polyline class="cls-7" points="353.57 304.72 353.57 313.04 357.9 313.04 357.9 304.72"/><polyline class="cls-7" points="342.59 304.72 342.59 313.04 346.92 313.04 346.92 304.72"/><polyline class="cls-7" points="481.35 304.72 481.35 313.04 485.68 313.04 485.68 304.72"/><polyline class="cls-7" points="470.37 304.72 470.37 313.04 474.7 313.04 474.7 304.72"/><polyline class="cls-7" points="449.59 304.72 449.59 313.04 453.92 313.04 453.92 304.72"/><polygon class="cls-7" points="322.27 303.84 505.95 303.84 455.04 274.89 453.04 265.9 375.18 265.9 373.18 274.89 322.27 303.84"/><polygon class="cls-7" points="669.04 331.05 712.41 300.83 727.96 282.72 743.49 300.83 786.86 331.05 669.04 331.05"/><polygon class="cls-7" points="41.16 331.08 84.53 300.87 100.08 282.75 115.61 300.87 158.98 331.08 41.16 331.08"/><path class="cls-7" d="M326.32,437.19V416.72a6,6,0,0,1,6-6h0a6,6,0,0,1,3.95,1.49"/><line class="cls-6" x1="324.84" y1="437.51" x2="336.41" y2="437.51"/><polyline class="cls-6" points="492.3 352.4 495.58 347.9 501.15 355.56 492.72 355.56"/><polyline class="cls-7" points="336.36 362.65 327.37 362.65 327.37 387.13"/><polyline class="cls-6" points="336.45 353.21 332.49 347.8 326.91 355.46 336.34 355.46"/><line class="cls-6" x1="135.12" y1="395.11" x2="65.54" y2="395.11"/><line class="cls-6" x1="762.64" y1="395.17" x2="693.06" y2="395.16"/><path class="cls-7" d="M742.37,388.9V361.58a7.42,7.42,0,0,1,7.42-7.42h0a7.42,7.42,0,0,1,7.42,7.42V388.9Z"/><line class="cls-7" x1="742.31" y1="363.56" x2="757.26" y2="363.56"/><path class="cls-7" d="M720.6,388.9V361.58a7.42,7.42,0,0,1,7.42-7.42h0a7.42,7.42,0,0,1,7.42,7.42V388.9Z"/><line class="cls-7" x1="720.55" y1="363.56" x2="735.5" y2="363.56"/><path class="cls-7" d="M698.72,388.9V361.58a7.42,7.42,0,0,1,7.42-7.42h0a7.42,7.42,0,0,1,7.42,7.42V388.9Z"/><line class="cls-7" x1="698.66" y1="363.56" x2="713.61" y2="363.56"/><path class="cls-6" d="M758.17,348.54l-8.35-10.45-8.35,10.45Z"/><path class="cls-6" d="M736.38,348.54,728,338.09l-8.35,10.45Z"/><path class="cls-6" d="M714.49,348.54l-8.35-10.45-8.35,10.45Z"/><line class="cls-6" x1="315.9" y1="414.32" x2="326.31" y2="414.32"/><path class="cls-6" d="M315.57,434.89"/><line class="cls-6" x1="315.9" y1="434.73" x2="325.88" y2="434.73"/><path class="cls-7" d="M502.29,436.73V416.25a6,6,0,0,0-6-6h0a6,6,0,0,0-3.95,1.49"/><line class="cls-6" x1="503.76" y1="437.04" x2="492.19" y2="437.04"/><line class="cls-6" x1="512.71" y1="414.32" x2="502.86" y2="414.32"/><line class="cls-6" x1="512.71" y1="434.73" x2="502.73" y2="434.73"/><path class="cls-7" d="M114.75,435.5V411c0-3.55,3.32-6.43,7.42-6.43h0c4.1,0,7.42,2.88,7.42,6.43V435.5"/><path class="cls-7" d="M93.34,435.5V411c0-3.55,3.32-6.43,7.42-6.43h0c4.1,0,7.42,2.88,7.42,6.43V435.5"/><path class="cls-7" d="M71.23,435.5V411c0-3.55,3.32-6.43,7.42-6.43h0c4.1,0,7.42,2.88,7.42,6.43V435.5"/><line class="cls-7" x1="152.87" y1="434.73" x2="48.33" y2="434.73"/><line class="cls-7" x1="153.04" y1="414.32" x2="48.51" y2="414.32"/><path class="cls-7" d="M713.58,434.72V410.18c0-3.55-3.32-6.43-7.42-6.43h0c-4.1,0-7.42,2.88-7.42,6.43v24.54"/><path class="cls-7" d="M735,434.72V410.18c0-3.55-3.32-6.43-7.42-6.43h0c-4.1,0-7.42,2.88-7.42,6.43v24.54"/><path class="cls-7" d="M757.1,434.72V410.18c0-3.55-3.32-6.43-7.42-6.43h0c-4.1,0-7.42,2.88-7.42,6.43v24.54"/><line class="cls-7" x1="780.07" y1="434.73" x2="675.54" y2="434.73"/><line class="cls-7" x1="780.25" y1="414.32" x2="675.71" y2="414.32"/><path class="cls-8" d="M253.29,586.3a19,19,0,0,1,19-19h5.33a1.11,1.11,0,0,1,.67.21.74.74,0,0,1,.29.64v31.55q0,.85-.92.85h-4.48a.91.91,0,0,1-.64-.21.82.82,0,0,1-.24-.64V573.25h0A12.73,12.73,0,0,0,259.56,586v4.41a19.31,19.31,0,0,1-.27,3.27,8,8,0,0,1-1.09,2.87,9,9,0,0,1-2,2.3,9.59,9.59,0,0,1-2.73,1.54,9.21,9.21,0,0,1-3.2.56.9.9,0,0,1-.69-.27,1,1,0,0,1-.25-.72v-3.76q0-1,.92-1a2.62,2.62,0,0,0,1.19-.28,3.28,3.28,0,0,0,1-.74,3.68,3.68,0,0,0,.66-1,3,3,0,0,0,.25-1.17Z"/><path class="cls-8" d="M172.81,573.21H159.36v26.42a1,1,0,0,1-.25.68.89.89,0,0,1-.67.26H154a1,1,0,0,1-.68-.25.85.85,0,0,1-.28-.67V568.21q0-.92.85-.92h24.27a.88.88,0,0,1,.62.24.85.85,0,0,1,.26.66v31.44a.9.9,0,0,1-.27.68,1,1,0,0,1-.72.26h-4.37a.87.87,0,0,1-.67-.27,1,1,0,0,1-.25-.7Z"/><path class="cls-8" d="M232,579.42a17.19,17.19,0,0,0-4.43-7.57,17,17,0,0,0-3.47-2.68,17.61,17.61,0,0,0-4.09-1.73,17.1,17.1,0,0,0-9.1,0,17.59,17.59,0,0,0-4.09,1.73,16.7,16.7,0,0,0-3.46,2.68,17.5,17.5,0,0,0-2.68,3.47,17.09,17.09,0,0,0,2.66,20.74,17.23,17.23,0,0,0,3.46,2.68A17.31,17.31,0,0,0,220,600.46a17.47,17.47,0,0,0,4.1-1.71,17,17,0,0,0,3.49-2.67,16.7,16.7,0,0,0,2.68-3.46,17.6,17.6,0,0,0,1.73-4.08,16.61,16.61,0,0,0,.62-4.55A16.86,16.86,0,0,0,232,579.42Zm-6.52,8.83a11.16,11.16,0,0,1-2.3,3.52,10.91,10.91,0,0,1-12,2.36,10.78,10.78,0,0,1-3.45-2.36,10.91,10.91,0,0,1-2.3-3.52,11.64,11.64,0,0,1,0-8.63,10.84,10.84,0,0,1,5.75-5.89,10.89,10.89,0,0,1,8.55,0,10.79,10.79,0,0,1,3.45,2.38,11.39,11.39,0,0,1,2.3,12.15Z"/><path class="cls-8" d="M299.7,568.17a.82.82,0,0,1,.26-.64.94.94,0,0,1,.66-.24h23.75a1,1,0,0,1,.65.21.92.92,0,0,1,.31.66v3.92a1.1,1.1,0,0,1-.25.69.86.86,0,0,1-.72.31h-8.74v26.56a.93.93,0,0,1-.25.65.87.87,0,0,1-.67.27h-4.44a.92.92,0,0,1-.64-.26.86.86,0,0,1-.28-.66V573.1h-8.74a.92.92,0,0,1-.66-.25,1,1,0,0,1-.26-.76Z"/><path class="cls-8" d="M419.59,587.23a10.53,10.53,0,0,0-1-2.39,9.22,9.22,0,0,0-1.43-1.93,12,12,0,0,0-1.77-1.5,16.22,16.22,0,0,0,1.1-1.21,6.78,6.78,0,0,0,1.55-4.39,8.27,8.27,0,0,0-.73-3.52,8.06,8.06,0,0,0-2-2.68,8.82,8.82,0,0,0-2.95-1.7,10.86,10.86,0,0,0-3.62-.59H395a1.05,1.05,0,0,0-.8.29,1.11,1.11,0,0,0-.28.81v31.13a1,1,0,0,0,.29.77,1.14,1.14,0,0,0,.78.26H410.2a9.62,9.62,0,0,0,4-.82,9.18,9.18,0,0,0,3.08-2.24,9.93,9.93,0,0,0,2-3.34,12.08,12.08,0,0,0,.68-4.09A10.83,10.83,0,0,0,419.59,587.23Zm-19.43-14.71h6.54a12.46,12.46,0,0,1,2,.16,5,5,0,0,1,1.62.54,2.75,2.75,0,0,1,1.06,1,3.3,3.3,0,0,1,.38,1.67,3.26,3.26,0,0,1-1.12,2.71,4.55,4.55,0,0,1-2.94.9h-7.6Zm13.64,19.7a4.82,4.82,0,0,1-1,1.68,4.49,4.49,0,0,1-1.63,1.06,5.82,5.82,0,0,1-2.12.37h-8.85v-11H409a5.09,5.09,0,0,1,2.1.43,4.82,4.82,0,0,1,1.64,1.19,5.34,5.34,0,0,1,1.05,1.8,6.69,6.69,0,0,1,.37,2.25A6.36,6.36,0,0,1,413.8,592.21Z"/><path class="cls-8" d="M468.06,569.71a1.4,1.4,0,0,1,.56.58.93.93,0,0,1-.07.85l-2.17,3.7a1.2,1.2,0,0,1-.67.52,1.15,1.15,0,0,1-.81-.22,11.45,11.45,0,0,0-3-1.57,10.5,10.5,0,0,0-3.44-.56,10,10,0,0,0-4.19.86,10.3,10.3,0,0,0-3.29,2.34,10.61,10.61,0,0,0-2.16,3.47A11.73,11.73,0,0,0,448,584a11.58,11.58,0,0,0,.77,4.25,10.64,10.64,0,0,0,2.16,3.46,10.09,10.09,0,0,0,7.49,3.18,10.77,10.77,0,0,0,3.47-.56,11,11,0,0,0,3-1.57,1.35,1.35,0,0,1,.82-.25,1.1,1.1,0,0,1,.66.49l2.22,3.74a.88.88,0,0,1,.07.83,1.45,1.45,0,0,1-.56.56,17.34,17.34,0,0,1-4.54,2.19,17.12,17.12,0,0,1-13.77-1.56,17.36,17.36,0,0,1-6.14-6.13,16.71,16.71,0,0,1-1.72-4.08,17.49,17.49,0,0,1,0-9.12,17.16,17.16,0,0,1,1.72-4.1,17.38,17.38,0,0,1,2.68-3.48,16.69,16.69,0,0,1,3.46-2.68,17.59,17.59,0,0,1,4.09-1.73,17.33,17.33,0,0,1,9.63.13A17.39,17.39,0,0,1,468.06,569.71Z"/><path class="cls-8" d="M519,583.23a10.93,10.93,0,0,0-2.64-3.79,11.61,11.61,0,0,0-4-2.38,14.76,14.76,0,0,0-5-.83h-6.57v-8.09a.79.79,0,0,0-.9-.85h-4.5a.8.8,0,0,0-.9.92v31.51q0,.85.9.85h13.58a8.85,8.85,0,0,0,2.9-.48,10.61,10.61,0,0,0,2.62-1.33,12.09,12.09,0,0,0,2.23-2,13.69,13.69,0,0,0,1.74-2.53,13.17,13.17,0,0,0,1.12-2.87,12,12,0,0,0,.39-3A12.7,12.7,0,0,0,519,583.23Zm-5.8,7.74a7.12,7.12,0,0,1-1.27,2.16,6.25,6.25,0,0,1-1.82,1.46,4.44,4.44,0,0,1-2.1.54h-7.24V581.66h6.12a8.64,8.64,0,0,1,3.06.48A5.37,5.37,0,0,1,512,583.5a5.52,5.52,0,0,1,1.2,2.11,9.42,9.42,0,0,1,.42,2.73A7.06,7.06,0,0,1,513.16,591Z"/><path class="cls-8" d="M544.42,568.28a1,1,0,0,1,.25-.71.94.94,0,0,1,.74-.28h4.24a1.12,1.12,0,0,1,.73.27.89.89,0,0,1,.33.72v13.24a3.59,3.59,0,0,0,2.12-.92,13.65,13.65,0,0,0,2.36-2.46l4.8-6.25q.6-.81,1.12-1.47a12.8,12.8,0,0,1,1-1.18,6.46,6.46,0,0,1,1.1-.89,5.93,5.93,0,0,1,1.33-.62,9.26,9.26,0,0,1,1.71-.37,18.21,18.21,0,0,1,2.29-.12.73.73,0,0,1,.81.83v4a1,1,0,0,1-.24.64.76.76,0,0,1-.62.28,7.14,7.14,0,0,0-1.49.12,2.49,2.49,0,0,0-.89.36,2.39,2.39,0,0,0-.58.58q-.25.35-.58.77l-4.82,6.25q-.38.49-.72,1a8.76,8.76,0,0,1-.65.85l14.19,17a.42.42,0,0,1,.09.45c-.06.16-.16.25-.29.25h-6.7a1,1,0,0,1-.72-.19,3.11,3.11,0,0,1-.38-.44l-10.51-12.89a5.88,5.88,0,0,1-1.82.84,10.17,10.17,0,0,1-1.95.33v11.36q0,1-1.05,1h-4.24a.87.87,0,0,1-1-1Z"/><path class="cls-8" d="M601.79,599.72a.75.75,0,0,1-.85.85h-4.44q-1,0-1-.85V568.17a.75.75,0,0,1,.31-.64,1.07,1.07,0,0,1,.65-.24h4.44a.8.8,0,0,1,.64.25.92.92,0,0,1,.21.63v10.15l13.71-9.75.82-.58a5,5,0,0,1,.64-.39,3.39,3.39,0,0,1,.56-.22,2.15,2.15,0,0,1,.61-.08h4.26a.8.8,0,0,1,.64.25.92.92,0,0,1,.21.63v31.55a.92.92,0,0,1-.2.62.81.81,0,0,1-.65.23h-4.32a1,1,0,0,1-.72-.21.9.9,0,0,1-.2-.64V574.85l-15.35,10.67Z"/><path class="cls-8" d="M654.8,599.72a.75.75,0,0,1-.85.85h-4.44q-1,0-1-.85V568.17a.75.75,0,0,1,.31-.64,1.07,1.07,0,0,1,.65-.24H654a.8.8,0,0,1,.64.25.92.92,0,0,1,.21.63v10.15l13.71-9.75.82-.58a5,5,0,0,1,.64-.39,3.39,3.39,0,0,1,.56-.22,2.15,2.15,0,0,1,.61-.08h4.26a.8.8,0,0,1,.64.25.92.92,0,0,1,.21.63v31.55a.92.92,0,0,1-.2.62.81.81,0,0,1-.65.23h-4.32a1,1,0,0,1-.72-.21.9.9,0,0,1-.2-.64V574.85L654.8,585.51Z"/><path class="cls-8" d="M662.4,564a5.79,5.79,0,0,1-2.32-.46,6.35,6.35,0,0,1-1.86-1.21,5.57,5.57,0,0,1-1.24-1.71,4.72,4.72,0,0,1-.45-2,.8.8,0,0,1,.26-.62.88.88,0,0,1,.62-.24h2.35a.7.7,0,0,1,.52.2.67.67,0,0,1,.2.49,1.59,1.59,0,0,0,.5,1.15,2.05,2.05,0,0,0,1.51.5,2,2,0,0,0,1.39-.48,1.46,1.46,0,0,0,.52-1.09,1,1,0,0,1,.15-.54.56.56,0,0,1,.53-.25h2.29a1.21,1.21,0,0,1,.7.21.72.72,0,0,1,.31.64,4.79,4.79,0,0,1-.46,2,5.59,5.59,0,0,1-1.27,1.74,6.08,6.08,0,0,1-1.89,1.19A6.22,6.22,0,0,1,662.4,564Z"/><path class="cls-8" d="M153.08,641.54a1,1,0,0,1,.25-.71.93.93,0,0,1,.74-.28h4.24a1.12,1.12,0,0,1,.73.27.89.89,0,0,1,.32.72v13.24a3.59,3.59,0,0,0,2.12-.92,13.65,13.65,0,0,0,2.36-2.46l4.8-6.25,1.12-1.47a12.8,12.8,0,0,1,1-1.18,6.46,6.46,0,0,1,1.1-.89,6,6,0,0,1,1.33-.62,9.25,9.25,0,0,1,1.71-.37,18.19,18.19,0,0,1,2.29-.12.73.73,0,0,1,.81.83v4a1,1,0,0,1-.24.64.76.76,0,0,1-.62.28,7.14,7.14,0,0,0-1.49.12,2.5,2.5,0,0,0-.89.36,2.39,2.39,0,0,0-.58.58q-.25.35-.58.77l-4.82,6.25q-.38.49-.72,1a8.92,8.92,0,0,1-.65.85l14.19,17a.42.42,0,0,1,.09.45c-.06.16-.16.25-.29.25h-6.7a1,1,0,0,1-.72-.19,3.11,3.11,0,0,1-.38-.44l-10.51-12.89a5.87,5.87,0,0,1-1.82.84,10.17,10.17,0,0,1-1.95.33v11.36q0,1-1.05,1h-4.24a.87.87,0,0,1-1-1Z"/><path class="cls-8" d="M227.31,650.29a13.35,13.35,0,0,0-1.5-3.27,13.83,13.83,0,0,0-2.24-2.69,15,15,0,0,0-2.76-2,13.57,13.57,0,0,0-3-1.29,11.34,11.34,0,0,0-3.1-.45H204.24q-1.05,0-1.05,1.1V672.8a.91.91,0,0,0,1,1h4.15q1.08,0,1.08-1v-5.22h3.65q.63,0,1.23,0l1.21-.08a13.07,13.07,0,0,0,4.83-1.37,13.64,13.64,0,0,0,3.91-2.95,13.88,13.88,0,0,0,2.62-4.15,12.92,12.92,0,0,0,1-5A12.68,12.68,0,0,0,227.31,650.29Zm-6.15,6.91a8.12,8.12,0,0,1-1.7,2.57,7.9,7.9,0,0,1-2.5,1.7,7.55,7.55,0,0,1-3,.62h-4.48v-16.2h4.3a7.82,7.82,0,0,1,3.23.66,7.93,7.93,0,0,1,2.54,1.78,8.35,8.35,0,0,1,1.67,2.59,8,8,0,0,1,.6,3.08A8.13,8.13,0,0,1,221.16,657.21Z"/><path class="cls-8" d="M324.88,643.54a1.28,1.28,0,0,1,.32.48.76.76,0,0,1-.17.62l-2.4,3.61a.67.67,0,0,1-.57.32,1.4,1.4,0,0,1-.71-.26,11.54,11.54,0,0,0-3-1.55,11.69,11.69,0,0,0-3.33-.61,11.15,11.15,0,0,0-3.81.64,10.76,10.76,0,0,0-5.51,4.39,10.76,10.76,0,0,0-1.39,3.26h13a.91.91,0,0,1,.59.21.81.81,0,0,1,.26.66V659a1.06,1.06,0,0,1-.22.64.74.74,0,0,1-.63.3h-13a10.47,10.47,0,0,0,3.71,6,10.75,10.75,0,0,0,3.09,1.71,10.56,10.56,0,0,0,3.6.62,10.72,10.72,0,0,0,3.33-.53,13.41,13.41,0,0,0,3.37-1.71,1.14,1.14,0,0,1,.68-.24.68.68,0,0,1,.55.37L325.1,670a.7.7,0,0,1,.09.71,1.5,1.5,0,0,1-.54.55,17.89,17.89,0,0,1-4.56,2.25,17.5,17.5,0,0,1-9.85.21,17,17,0,0,1-4.08-1.73,17.23,17.23,0,0,1-3.46-2.68A17.15,17.15,0,0,1,300,648.58a17.53,17.53,0,0,1,2.68-3.47,16.69,16.69,0,0,1,3.46-2.68,17.59,17.59,0,0,1,4.09-1.73,16.73,16.73,0,0,1,4.56-.62,16.93,16.93,0,0,1,2.64.22,18.44,18.44,0,0,1,2.77.66,15.5,15.5,0,0,1,2.57,1.09A9.13,9.13,0,0,1,324.88,643.54Z"/><path class="cls-8" d="M353.63,655.84q-.74,0-.87-.36a1.11,1.11,0,0,1,.11-.87l4.19-8.09-7.44,0a1.19,1.19,0,0,1-.82-.27,1.09,1.09,0,0,1-.3-.85v-3.72a1,1,0,0,1,.3-.78,1.13,1.13,0,0,1,.82-.29l15.87,0a1.12,1.12,0,0,1,.76.23,1.08,1.08,0,0,1,.35.59,1.93,1.93,0,0,1,0,.77,2.52,2.52,0,0,1-.28.77l-4.89,9.37a11,11,0,0,1,3,1.67,11.29,11.29,0,0,1,3.84,5.51,11.09,11.09,0,0,1,.53,3.4,10.82,10.82,0,0,1-.94,4.5,11.72,11.72,0,0,1-6.23,6.06,11.4,11.4,0,0,1-4.46.89,10.82,10.82,0,0,1-4.18-.84,12.22,12.22,0,0,1-3.61-2.29,11.44,11.44,0,0,1-2.53-3.35,8.94,8.94,0,0,1-1-4.06,2.38,2.38,0,0,1,.09-.64.4.4,0,0,1,.43-.33h4.24a.55.55,0,0,1,.48.25,1.13,1.13,0,0,1,.17.65,3.39,3.39,0,0,0,.49,1.63,6.74,6.74,0,0,0,1.31,1.65,7.43,7.43,0,0,0,1.87,1.27,5,5,0,0,0,2.2.5,6.24,6.24,0,0,0,2.23-.4,5.51,5.51,0,0,0,3.15-3,5.92,5.92,0,0,0,.47-2.4,12,12,0,0,0-.11-1.61,5.85,5.85,0,0,0-.47-1.62,5.94,5.94,0,0,0-1-1.51A5.73,5.73,0,0,0,359.8,657a10,10,0,0,0-2.57-.85A18.16,18.16,0,0,0,353.63,655.84Z"/><path class="cls-8" d="M393.9,641.43a.86.86,0,0,1,.25-.62.83.83,0,0,1,.63-.26h4.51a1,1,0,0,1,.63.25.78.78,0,0,1,.29.63v17.41h15.44V641.43a.87.87,0,0,1,.23-.63.84.84,0,0,1,.64-.25H421a1.16,1.16,0,0,1,.68.21.73.73,0,0,1,.3.64V673a.78.78,0,0,1-.26.64,1.07,1.07,0,0,1-.71.21h-4.46a.76.76,0,0,1-.87-.85v-8.22H400.2V673q0,.85-1,.85h-4.46q-.85,0-.87-.81Z"/><path class="cls-8" d="M521.83,660.49a10.53,10.53,0,0,0-1-2.39,9.21,9.21,0,0,0-1.43-1.93,12,12,0,0,0-1.77-1.5,16.17,16.17,0,0,0,1.1-1.21,6.78,6.78,0,0,0,1.55-4.39,8.27,8.27,0,0,0-.73-3.52,8.07,8.07,0,0,0-2-2.68,8.81,8.81,0,0,0-2.95-1.7,10.87,10.87,0,0,0-3.62-.59H497.2a1.05,1.05,0,0,0-.8.29,1.12,1.12,0,0,0-.28.81V672.8a1,1,0,0,0,.29.77,1.14,1.14,0,0,0,.78.26h15.24a9.62,9.62,0,0,0,4-.82,9.18,9.18,0,0,0,3.08-2.24,9.93,9.93,0,0,0,2-3.34,12.08,12.08,0,0,0,.68-4.09A10.82,10.82,0,0,0,521.83,660.49ZM502.4,645.78h6.54a12.46,12.46,0,0,1,2,.16,5,5,0,0,1,1.62.54,2.75,2.75,0,0,1,1.06,1,3.3,3.3,0,0,1,.38,1.67,3.26,3.26,0,0,1-1.12,2.71,4.55,4.55,0,0,1-2.94.9h-7.6ZM516,665.48a4.82,4.82,0,0,1-1,1.68,4.48,4.48,0,0,1-1.63,1.06,5.82,5.82,0,0,1-2.12.37H502.4v-11h8.85a5.09,5.09,0,0,1,2.1.43,4.82,4.82,0,0,1,1.64,1.19A5.34,5.34,0,0,1,516,661a6.69,6.69,0,0,1,.37,2.25A6.36,6.36,0,0,1,516,665.48Z"/><path class="cls-8" d="M563.78,663.08a8.58,8.58,0,0,1-2.83,1.93,8.74,8.74,0,0,1-3.48.72,13.47,13.47,0,0,1-4.59-.75,10.42,10.42,0,0,1-3.63-2.2,10.71,10.71,0,0,1-2.48-3.55,14.12,14.12,0,0,1-1.11-4.8q0-.67-.08-1.39t0-1.46v-10a1,1,0,0,1,.27-.67.85.85,0,0,1,.65-.29H551a.75.75,0,0,1,.65.28,1.1,1.1,0,0,1,.2.66v12a6.9,6.9,0,0,0,.5,2.7,6.17,6.17,0,0,0,1.34,2,5.87,5.87,0,0,0,1.95,1.28,6.06,6.06,0,0,0,2.3.45,5.76,5.76,0,0,0,4.1-1.71,6.21,6.21,0,0,0,1.29-1.95,6.39,6.39,0,0,0,.48-2.52V641.52a1,1,0,0,1,.25-.66.91.91,0,0,1,.72-.28h4.53c.34,0,.56.1.65.29a1.6,1.6,0,0,1,.13.67v31.33a.9.9,0,0,1-.29.7,1,1,0,0,1-.74.27h-4.24a1.05,1.05,0,0,1-.74-.25.9.9,0,0,1-.27-.7Z"/><path class="cls-8" d="M601.79,673a.75.75,0,0,1-.85.85h-4.44q-1,0-1-.85V641.43a.75.75,0,0,1,.31-.64,1.07,1.07,0,0,1,.65-.24h4.44a.8.8,0,0,1,.64.25.92.92,0,0,1,.21.63v10.15l13.71-9.75.82-.58a5,5,0,0,1,.64-.39,3.39,3.39,0,0,1,.56-.22,2.15,2.15,0,0,1,.61-.08h4.26a.8.8,0,0,1,.64.25.92.92,0,0,1,.21.63V673a.92.92,0,0,1-.2.62.81.81,0,0,1-.65.23h-4.32a1,1,0,0,1-.72-.21.9.9,0,0,1-.2-.64V648.11l-15.35,10.67Z"/><path class="cls-8" d="M654.8,673a.75.75,0,0,1-.85.85h-4.44q-1,0-1-.85V641.43a.75.75,0,0,1,.31-.64,1.07,1.07,0,0,1,.65-.24H654a.8.8,0,0,1,.64.25.92.92,0,0,1,.21.63v10.15l13.71-9.75.82-.58a5,5,0,0,1,.64-.39,3.39,3.39,0,0,1,.56-.22,2.15,2.15,0,0,1,.61-.08h4.26a.8.8,0,0,1,.64.25.92.92,0,0,1,.21.63V673a.92.92,0,0,1-.2.62.81.81,0,0,1-.65.23h-4.32a1,1,0,0,1-.72-.21.9.9,0,0,1-.2-.64V648.11L654.8,658.78Z"/><path class="cls-8" d="M662.4,637.22a5.79,5.79,0,0,1-2.32-.46,6.35,6.35,0,0,1-1.86-1.21,5.57,5.57,0,0,1-1.24-1.71,4.72,4.72,0,0,1-.45-2,.8.8,0,0,1,.26-.62.88.88,0,0,1,.62-.24h2.35a.7.7,0,0,1,.52.2.67.67,0,0,1,.2.49,1.59,1.59,0,0,0,.5,1.15,2.05,2.05,0,0,0,1.51.5,2,2,0,0,0,1.39-.48,1.46,1.46,0,0,0,.52-1.09,1,1,0,0,1,.15-.54.56.56,0,0,1,.53-.25h2.29a1.21,1.21,0,0,1,.7.21.72.72,0,0,1,.31.64,4.79,4.79,0,0,1-.46,2,5.59,5.59,0,0,1-1.27,1.74,6.08,6.08,0,0,1-1.89,1.19A6.22,6.22,0,0,1,662.4,637.22Z"/><path class="cls-8" d="M318.14,739.3a1.43,1.43,0,0,1-.45.54,1.32,1.32,0,0,1-.85.27h-2.71a1,1,0,0,1-.74-.2,1.81,1.81,0,0,1-.38-.61l-6.41-15.84-8.52,22.61a1.77,1.77,0,0,1-.52.75,1.28,1.28,0,0,1-.85.28h-3.88a1.82,1.82,0,0,1-.5-.07,1.43,1.43,0,0,1-.4-.18.6.6,0,0,1-.23-.28.46.46,0,0,1,0-.37L303.88,715l.2-.49a1.22,1.22,0,0,1,.24-.38.91.91,0,0,1,.37-.23,2,2,0,0,1,.63-.08h2.26a1.21,1.21,0,0,1,1,.37,3.51,3.51,0,0,1,.46.82l6.52,15.76,6.12-15.22c.1-.28.2-.53.29-.75a2.25,2.25,0,0,1,.3-.54,1.1,1.1,0,0,1,.41-.33,1.6,1.6,0,0,1,.65-.11h2.26a1.21,1.21,0,0,1,1,.39,3.73,3.73,0,0,1,.47.84l12.15,30.61a1,1,0,0,1-.08,1,1.24,1.24,0,0,1-1,.41h-3.74a1.4,1.4,0,0,1-.9-.35,2,2,0,0,1-.61-.79l-8.49-22.5Z"/><path class="cls-8" d="M359.86,715.23a3.12,3.12,0,0,1-.15-.47.91.91,0,0,1,0-.45A.59.59,0,0,1,360,714a1.1,1.1,0,0,1,.61-.13h4.26a1,1,0,0,1,.72.23,1.44,1.44,0,0,1,.4.62l5.24,14.57,5.13-14.63a1.13,1.13,0,0,1,1.19-.78h4.17a1.5,1.5,0,0,1,.49.08.66.66,0,0,1,.35.27.86.86,0,0,1,.11.5,2.36,2.36,0,0,1-.19.76l-10.17,25.37a18.9,18.9,0,0,1-1.4,2.87A10.24,10.24,0,0,1,369,746a8,8,0,0,1-2.47,1.54,8.69,8.69,0,0,1-3.24.56q-.85,0-.85-.94v-4.39a1.06,1.06,0,0,1,.18-.61.6.6,0,0,1,.54-.27,5.94,5.94,0,0,0,1.14-.1,2.6,2.6,0,0,0,1-.41,3.69,3.69,0,0,0,.89-.91,9.52,9.52,0,0,0,.87-1.58l1.21-3Z"/><path class="cls-8" d="M411.11,729.1q-.74,0-.87-.36a1.11,1.11,0,0,1,.11-.87l4.19-8.09-7.44,0a1.18,1.18,0,0,1-.82-.27,1.08,1.08,0,0,1-.3-.85v-3.72a1,1,0,0,1,.3-.78,1.13,1.13,0,0,1,.82-.29l15.87,0a1.12,1.12,0,0,1,.76.23,1.08,1.08,0,0,1,.35.59,2,2,0,0,1,0,.77,2.52,2.52,0,0,1-.28.77l-4.88,9.37a11,11,0,0,1,3,1.67,11.29,11.29,0,0,1,3.84,5.51,11.08,11.08,0,0,1,.53,3.4,10.81,10.81,0,0,1-.94,4.5,11.71,11.71,0,0,1-6.23,6.06,11.4,11.4,0,0,1-4.46.89,10.82,10.82,0,0,1-4.18-.84,12.21,12.21,0,0,1-3.61-2.29,11.43,11.43,0,0,1-2.53-3.35,8.94,8.94,0,0,1-1-4.06,2.38,2.38,0,0,1,.09-.64.4.4,0,0,1,.43-.33h4.24a.55.55,0,0,1,.48.25,1.13,1.13,0,0,1,.17.65,3.39,3.39,0,0,0,.49,1.63,6.71,6.71,0,0,0,1.31,1.65,7.41,7.41,0,0,0,1.87,1.27,5,5,0,0,0,2.2.5,6.25,6.25,0,0,0,2.23-.4,5.51,5.51,0,0,0,3.15-3,5.92,5.92,0,0,0,.47-2.4,12,12,0,0,0-.11-1.61A5.83,5.83,0,0,0,420,733a6,6,0,0,0-1-1.51,5.73,5.73,0,0,0-1.68-1.26,10,10,0,0,0-2.57-.85A18.15,18.15,0,0,0,411.11,729.1Z"/><path class="cls-8" d="M452.75,714.74q0-.92.85-.92h22.16q.9,0,.9,1v3.9a1,1,0,0,1-.22.65.85.85,0,0,1-.72.29H459v11.23h13.15a1,1,0,0,1,.63.19.76.76,0,0,1,.25.64v3.59a.87.87,0,0,1-.21.57.78.78,0,0,1-.64.26H459v5.22h17.26q.87,0,.87.92v3.41a3.43,3.43,0,0,1-.13,1q-.13.43-.76.43H453.61q-.85,0-.85-.81Z"/><path class="cls-8" d="M508.47,746.25a.75.75,0,0,1-.85.85h-4.44q-1,0-1-.85V714.69a.75.75,0,0,1,.31-.64,1.07,1.07,0,0,1,.65-.24h4.44a.8.8,0,0,1,.64.25.92.92,0,0,1,.21.63v10.15l13.71-9.75.82-.58a5,5,0,0,1,.64-.39,3.39,3.39,0,0,1,.56-.22,2.15,2.15,0,0,1,.61-.08h4.26a.8.8,0,0,1,.64.25.92.92,0,0,1,.21.63v31.55a.92.92,0,0,1-.2.62.81.81,0,0,1-.65.23h-4.32a1,1,0,0,1-.72-.21.9.9,0,0,1-.2-.64V721.37L508.47,732Z"/><path class="cls-8" d="M515.07,710.48a5.79,5.79,0,0,1-2.32-.46,6.35,6.35,0,0,1-1.86-1.21,5.57,5.57,0,0,1-1.24-1.71,4.72,4.72,0,0,1-.45-2,.8.8,0,0,1,.26-.62.88.88,0,0,1,.62-.24h2.35a.7.7,0,0,1,.52.2.67.67,0,0,1,.2.49,1.59,1.59,0,0,0,.5,1.15,2.05,2.05,0,0,0,1.51.5,2,2,0,0,0,1.39-.48,1.46,1.46,0,0,0,.52-1.09,1,1,0,0,1,.15-.54.56.56,0,0,1,.53-.25H520a1.21,1.21,0,0,1,.7.21.72.72,0,0,1,.31.64,4.79,4.79,0,0,1-.46,2,5.59,5.59,0,0,1-1.27,1.74,6.08,6.08,0,0,1-1.89,1.19A6.22,6.22,0,0,1,515.07,710.48Z"/><path class="cls-8" d="M475.5,672.69,462.9,641.34a2.17,2.17,0,0,0-.35-.52,1,1,0,0,0-.75-.27h-3.52a1.06,1.06,0,0,0-.76.3,1.78,1.78,0,0,0-.43.57l-12.44,31a1.12,1.12,0,0,0-.11,1q.18.39.83.39h4.3a1.17,1.17,0,0,0,1.16-.87l2.05-5.38h14.23l2,5.4a1.21,1.21,0,0,0,1.23.85h4.19a1.11,1.11,0,0,0,.81-.3A.7.7,0,0,0,475.5,672.69Zm-20.38-10.94L460,648.87l4.89,12.89Z"/><path class="cls-8" d="M278.32,672.69l-12.59-31.35a2.17,2.17,0,0,0-.35-.52,1,1,0,0,0-.75-.27h-3.52a1.06,1.06,0,0,0-.76.3,1.78,1.78,0,0,0-.43.57l-12.44,31a1.12,1.12,0,0,0-.11,1q.18.39.83.39h4.3a1.17,1.17,0,0,0,1.16-.87l2.05-5.38H270l2,5.4a1.21,1.21,0,0,0,1.23.85h4.19a1.11,1.11,0,0,0,.81-.3A.7.7,0,0,0,278.32,672.69Zm-20.38-10.94,4.92-12.89,4.89,12.89Z"/><path class="cls-8" d="M373.6,599.41,361,568.06a2.17,2.17,0,0,0-.35-.52,1,1,0,0,0-.75-.27h-3.52a1.06,1.06,0,0,0-.76.3,1.78,1.78,0,0,0-.43.57l-12.44,31a1.12,1.12,0,0,0-.11,1q.18.39.83.39h4.3a1.17,1.17,0,0,0,1.16-.87L351,594.3h14.23l2,5.4a1.21,1.21,0,0,0,1.23.85h4.19a1.11,1.11,0,0,0,.81-.3A.7.7,0,0,0,373.6,599.41Zm-20.38-10.94,4.92-12.89L363,588.47Z"/><path class="cls-8" d="M154.26,812.91v16.35h-2.34V812.91Z"/><path class="cls-8" d="M180.68,812.91v16.35h-2.35V816.54h0l-5,6.32h-.39l-5-6.32h0v12.72h-2.34V812.91h2.2l5.42,6.72,5.44-6.72Z"/><path class="cls-8" d="M201.07,812.91V815h-6.93V820h6.69v2.12h-6.69v5.08h7.15v2.11H191.8V812.91Z"/><path class="cls-8" d="M225.22,812.91v16.35h-2.34v-7.12h-9.16v7.12h-2.34V812.91h2.34V820h9.16v-7.13Z"/><path class="cls-8" d="M238.81,812.91v16.35h-2.34V812.91Z"/><path class="cls-8" d="M264.3,829.26V812.91H269a6.37,6.37,0,0,1,2.27.36,4.64,4.64,0,0,1,1.56.95,3.67,3.67,0,0,1,.91,1.34,4.2,4.2,0,0,1,.29,1.53,3.6,3.6,0,0,1-.6,2.12,4.13,4.13,0,0,1-1.9,1.38v0a6.09,6.09,0,0,1,1.64.55,4.41,4.41,0,0,1,1.24.92,3.86,3.86,0,0,1,.78,1.25,4.27,4.27,0,0,1,0,3.06,3.82,3.82,0,0,1-1,1.41,5.06,5.06,0,0,1-1.74,1,7.52,7.52,0,0,1-2.6.4ZM266.64,815v4.89h1.56a4.32,4.32,0,0,0,2.61-.64,2.31,2.31,0,0,0,.84-2,2.7,2.7,0,0,0-.14-.87,1.74,1.74,0,0,0-.47-.73,2.44,2.44,0,0,0-.88-.5,4.19,4.19,0,0,0-1.35-.19Zm0,7v5.13h2.95a5.3,5.3,0,0,0,1.71-.23,3,3,0,0,0,1.07-.6,2,2,0,0,0,.56-.83,2.82,2.82,0,0,0,.16-.92,2.38,2.38,0,0,0-.22-1,2.13,2.13,0,0,0-.67-.8,3.33,3.33,0,0,0-1.13-.53,6.11,6.11,0,0,0-1.6-.19Z"/><path class="cls-8" d="M292.26,812.82l7.31,16.44h-2.4L295,824.44h-7L286,829.26h-2.4l7-16.44Zm-.85,3.59L289,822.33H294Z"/><path class="cls-8" d="M323.07,828q-.6.31-1.24.58a10.59,10.59,0,0,1-1.36.45,12.35,12.35,0,0,1-1.54.29,14,14,0,0,1-1.77.11,10,10,0,0,1-2.79-.36,8.59,8.59,0,0,1-2.23-1,7.81,7.81,0,0,1-1.7-1.44,8.55,8.55,0,0,1-1.19-1.73,8.27,8.27,0,0,1-.7-1.84,7.57,7.57,0,0,1-.23-1.79,9.06,9.06,0,0,1,.3-2.37,8.36,8.36,0,0,1,.87-2.08,8.07,8.07,0,0,1,1.36-1.73,8.35,8.35,0,0,1,1.8-1.32,9.07,9.07,0,0,1,2.17-.84,10.13,10.13,0,0,1,2.47-.29,10.64,10.64,0,0,1,2.6.32q.68.17,1.43.42t1.57.6v2.52a16.2,16.2,0,0,0-1.47-.77,11.63,11.63,0,0,0-1.39-.53,9.1,9.1,0,0,0-1.37-.31,9.71,9.71,0,0,0-1.4-.1,7,7,0,0,0-2.6.47,6.35,6.35,0,0,0-2.07,1.3,5.91,5.91,0,0,0-1.36,2,6.29,6.29,0,0,0-.49,2.5,6.41,6.41,0,0,0,.48,2.51,5.66,5.66,0,0,0,1.35,2,6.17,6.17,0,0,0,2.09,1.28,7.61,7.61,0,0,0,2.69.46,9.26,9.26,0,0,0,2.86-.47,12,12,0,0,0,2.86-1.38Z"/><path class="cls-8" d="M345,817.25l-10.38,12.22h-1.12V812.91h2.34v12.44l10.36-12.44h1.15v16.35H345Z"/><path class="cls-8" d="M365.49,812.82l7.31,16.44h-2.4L364.63,816l-5.42,13.26h-2.4l7-16.44Z"/><path class="cls-8" d="M382.73,825.62a23.6,23.6,0,0,1,1.48-2,8.17,8.17,0,0,1,1.52-1.47,12.59,12.59,0,0,1-1.22-.64,4.65,4.65,0,0,1-1.08-.88,4.12,4.12,0,0,1-.77-1.25,5.22,5.22,0,0,1,.14-3.8,4.1,4.1,0,0,1,1.2-1.46,5.24,5.24,0,0,1,1.82-.87,8.74,8.74,0,0,1,2.29-.29H393v16.35h-2.34v-6.71H390a5.18,5.18,0,0,0-1.34.16,3.72,3.72,0,0,0-1.18.56,6,6,0,0,0-1.14,1.08,14.11,14.11,0,0,0-1.2,1.72l-2,3.18H380.4Zm8-5.08v-5.62h-2.45a3.93,3.93,0,0,0-2.59.73,2.46,2.46,0,0,0-.87,2,2.78,2.78,0,0,0,.21,1,2.62,2.62,0,0,0,.64.94,3.32,3.32,0,0,0,1.11.68,4.45,4.45,0,0,0,1.62.26Z"/><path class="cls-8" d="M418.53,812.91h2.34v6.65a5.71,5.71,0,0,0,1.19-.11A2.44,2.44,0,0,0,423,819a3.28,3.28,0,0,0,.79-.88,8.91,8.91,0,0,0,.73-1.48,10.71,10.71,0,0,1,.9-1.81,4.56,4.56,0,0,1,1-1.15,3.34,3.34,0,0,1,1.23-.61,6.18,6.18,0,0,1,1.54-.18h.36V815a4.76,4.76,0,0,0-1.3.15,2,2,0,0,0-.84.47,2.74,2.74,0,0,0-.58.83q-.24.51-.5,1.22a5.68,5.68,0,0,1-.4.88,6.41,6.41,0,0,1-.54.83,5.36,5.36,0,0,1-.63.69,2.57,2.57,0,0,1-.67.46,7.67,7.67,0,0,1,1,.57,4.47,4.47,0,0,1,.82.71,7.63,7.63,0,0,1,.76,1q.38.58.87,1.45l2.88,5h-2.67l-2.54-4.41a18.64,18.64,0,0,0-1.08-1.7,5.06,5.06,0,0,0-1-1,2.83,2.83,0,0,0-1-.52,5.49,5.49,0,0,0-1.32-.14v7.79h-2.34Z"/><path class="cls-8" d="M440.25,812.91h5.11a6.61,6.61,0,0,1,2.32.37,4.49,4.49,0,0,1,1.62,1,4,4,0,0,1,.95,1.5,5.36,5.36,0,0,1,.31,1.83,4.88,4.88,0,0,1-.33,1.8,3.81,3.81,0,0,1-1,1.45,4.89,4.89,0,0,1-1.71,1,7.58,7.58,0,0,1-2.46.36H442.6v7.07h-2.35ZM442.6,815v5.07h2.66a3.9,3.9,0,0,0,1.19-.17,2.46,2.46,0,0,0,.91-.5,2.27,2.27,0,0,0,.58-.81,2.74,2.74,0,0,0,.21-1.09,3.07,3.07,0,0,0-.13-.89,2.09,2.09,0,0,0-.46-.8,2.34,2.34,0,0,0-.85-.58,3.46,3.46,0,0,0-1.33-.22Z"/><path class="cls-8" d="M471.7,817.25l-10.38,12.22h-1.12V812.91h2.34v12.44l10.36-12.44H474v16.35H471.7Z"/><path class="cls-8" d="M496.52,812.91v16.35h-2.35v-6.83a4.37,4.37,0,0,1-.64.29,8.8,8.8,0,0,1-.88.27q-.48.12-1,.21a6.21,6.21,0,0,1-1,.08,10,10,0,0,1-3-.39,4.13,4.13,0,0,1-2.94-3.12,11.28,11.28,0,0,1-.3-2.76v-4.1h2.35v4.32a6.94,6.94,0,0,0,.24,2,2.62,2.62,0,0,0,.71,1.2,2.48,2.48,0,0,0,1.19.57,8.5,8.5,0,0,0,1.68.15,9.17,9.17,0,0,0,1.93-.2,7.91,7.91,0,0,0,1.64-.53v-7.53Z"/><path class="cls-8" d="M517,812.91V815h-6.93V820h6.69v2.12h-6.69v5.08h7.15v2.11h-9.49V812.91Z"/><path class="cls-8" d="M527.33,829.26V812.91h4.74a6.37,6.37,0,0,1,2.27.36,4.64,4.64,0,0,1,1.56.95,3.67,3.67,0,0,1,.91,1.34,4.2,4.2,0,0,1,.29,1.53,3.6,3.6,0,0,1-.6,2.12,4.13,4.13,0,0,1-1.9,1.38v0a6.09,6.09,0,0,1,1.64.55,4.41,4.41,0,0,1,1.24.92,3.86,3.86,0,0,1,.78,1.25,4.27,4.27,0,0,1,0,3.06,3.82,3.82,0,0,1-1,1.41,5.06,5.06,0,0,1-1.74,1,7.52,7.52,0,0,1-2.6.4ZM529.67,815v4.89h1.56a4.32,4.32,0,0,0,2.61-.64,2.31,2.31,0,0,0,.84-2,2.7,2.7,0,0,0-.14-.87,1.74,1.74,0,0,0-.47-.73,2.44,2.44,0,0,0-.88-.5,4.19,4.19,0,0,0-1.35-.19Zm0,7v5.13h2.95a5.3,5.3,0,0,0,1.71-.23,3,3,0,0,0,1.07-.6,2,2,0,0,0,.56-.83,2.82,2.82,0,0,0,.16-.92,2.38,2.38,0,0,0-.22-1,2.13,2.13,0,0,0-.67-.8,3.33,3.33,0,0,0-1.13-.53,6.11,6.11,0,0,0-1.6-.19Z"/><path class="cls-8" d="M562.52,828q-.6.31-1.24.58a10.59,10.59,0,0,1-1.36.45,12.35,12.35,0,0,1-1.54.29,14,14,0,0,1-1.77.11,10,10,0,0,1-2.79-.36,8.59,8.59,0,0,1-2.23-1,7.81,7.81,0,0,1-1.7-1.44,8.55,8.55,0,0,1-1.19-1.73,8.27,8.27,0,0,1-.7-1.84,7.57,7.57,0,0,1-.23-1.79,9.06,9.06,0,0,1,.3-2.37,8.36,8.36,0,0,1,.87-2.08,8.07,8.07,0,0,1,1.36-1.73,8.35,8.35,0,0,1,1.8-1.32,9.07,9.07,0,0,1,2.17-.84,10.13,10.13,0,0,1,2.47-.29,10.64,10.64,0,0,1,2.6.32q.68.17,1.43.42t1.57.6v2.52a16.2,16.2,0,0,0-1.47-.77,11.63,11.63,0,0,0-1.39-.53,9.1,9.1,0,0,0-1.37-.31,9.71,9.71,0,0,0-1.4-.1,7,7,0,0,0-2.6.47,6.35,6.35,0,0,0-2.07,1.3,5.91,5.91,0,0,0-1.36,2,6.29,6.29,0,0,0-.49,2.5,6.41,6.41,0,0,0,.48,2.51,5.66,5.66,0,0,0,1.35,2,6.17,6.17,0,0,0,2.09,1.28,7.61,7.61,0,0,0,2.69.46,9.26,9.26,0,0,0,2.86-.47,12,12,0,0,0,2.86-1.38Z"/><path class="cls-8" d="M578,819.79a7.16,7.16,0,0,1,2.47.39,5.1,5.1,0,0,1,1.75,1,4.16,4.16,0,0,1,1,1.52,4.92,4.92,0,0,1,.35,1.84,4.62,4.62,0,0,1-.36,1.83,4.23,4.23,0,0,1-1.06,1.49,5.08,5.08,0,0,1-1.74,1,7,7,0,0,1-2.37.37H573V812.91h2.34v6.88Zm-2.65,2.11v5.25h3a3.54,3.54,0,0,0,1.35-.22,2.34,2.34,0,0,0,.86-.58,2.16,2.16,0,0,0,.46-.8,2.94,2.94,0,0,0,.14-.89,3.12,3.12,0,0,0-.19-1.12,2.44,2.44,0,0,0-.56-.87,2.54,2.54,0,0,0-.88-.57,3.19,3.19,0,0,0-1.18-.21Z"/><path class="cls-8" d="M593.63,812.91H596v6.65a5.71,5.71,0,0,0,1.19-.11,2.44,2.44,0,0,0,.95-.43,3.28,3.28,0,0,0,.79-.88,8.91,8.91,0,0,0,.73-1.48,10.71,10.71,0,0,1,.9-1.81,4.56,4.56,0,0,1,1-1.15,3.34,3.34,0,0,1,1.23-.61,6.18,6.18,0,0,1,1.54-.18h.36V815a4.76,4.76,0,0,0-1.3.15,2,2,0,0,0-.84.47,2.74,2.74,0,0,0-.58.83q-.24.51-.5,1.22a5.68,5.68,0,0,1-.4.88,6.41,6.41,0,0,1-.54.83,5.36,5.36,0,0,1-.63.69,2.57,2.57,0,0,1-.67.46,7.67,7.67,0,0,1,1,.57,4.47,4.47,0,0,1,.82.71,7.63,7.63,0,0,1,.76,1q.38.58.87,1.45l2.88,5h-2.67l-2.54-4.41a18.64,18.64,0,0,0-1.08-1.7,5.06,5.06,0,0,0-1-1,2.83,2.83,0,0,0-1-.52,5.49,5.49,0,0,0-1.32-.14v7.79h-2.34Z"/><path class="cls-8" d="M614.74,821.09a8.38,8.38,0,0,1,.63-3.22,8.16,8.16,0,0,1,1.77-2.67,8.4,8.4,0,0,1,2.77-1.83,9.34,9.34,0,0,1,3.61-.67,9.48,9.48,0,0,1,3.65.67,8.37,8.37,0,0,1,2.77,1.82,8,8,0,0,1,1.76,2.67,8.7,8.7,0,0,1,0,6.4,8,8,0,0,1-1.74,2.67,8.39,8.39,0,0,1-2.78,1.85,9.52,9.52,0,0,1-3.72.69,9.73,9.73,0,0,1-2.5-.31,8.57,8.57,0,0,1-2.14-.87,8,8,0,0,1-1.73-1.34,8.2,8.2,0,0,1-2.09-3.69A8.54,8.54,0,0,1,614.74,821.09Zm2.42,0a6.32,6.32,0,0,0,.48,2.48,6,6,0,0,0,3.34,3.28,7.1,7.1,0,0,0,5.07,0,5.94,5.94,0,0,0,3.35-3.28,6.68,6.68,0,0,0,0-5,6,6,0,0,0-1.33-2,6.07,6.07,0,0,0-2-1.3,7.1,7.1,0,0,0-5.07,0,6.07,6.07,0,0,0-2,1.3,6,6,0,0,0-1.33,2A6.38,6.38,0,0,0,617.17,821.09Z"/><path class="cls-8" d="M652.07,812.91V815h-6.93v14.24H642.8V812.91Z"/><path class="cls-8" d="M661,821.09a8.38,8.38,0,0,1,.63-3.22,8.16,8.16,0,0,1,1.77-2.67,8.4,8.4,0,0,1,2.77-1.83,9.34,9.34,0,0,1,3.61-.67,9.48,9.48,0,0,1,3.65.67,8.37,8.37,0,0,1,2.77,1.82,8,8,0,0,1,1.76,2.67,8.7,8.7,0,0,1,0,6.4,8,8,0,0,1-1.74,2.67,8.39,8.39,0,0,1-2.78,1.85,9.52,9.52,0,0,1-3.72.69,9.73,9.73,0,0,1-2.5-.31,8.57,8.57,0,0,1-2.14-.87A8,8,0,0,1,663.4,827a8.2,8.2,0,0,1-2.09-3.69A8.54,8.54,0,0,1,661,821.09Zm2.42,0a6.32,6.32,0,0,0,.48,2.48,6,6,0,0,0,3.34,3.28,7.1,7.1,0,0,0,5.07,0,5.94,5.94,0,0,0,3.35-3.28,6.68,6.68,0,0,0,0-5,6,6,0,0,0-1.33-2,6.07,6.07,0,0,0-2-1.3,7.1,7.1,0,0,0-5.07,0,6.07,6.07,0,0,0-2,1.3,6,6,0,0,0-1.33,2A6.38,6.38,0,0,0,663.46,821.09Z"/></g></g></svg>