<svg xmlns="http://www.w3.org/2000/svg" viewBox="62 60 745 527">
    <defs>
        <style>.cls-1{fill:#333;}.cls-2{fill:#fff;}.cls-3{fill:#f33;}.cls-4{fill:none;}</style>
    </defs>
    <title>museum_icons</title>
    <g id="Слой_2" data-name="Слой 2">
        <g id="Слой_1-2" data-name="Слой 1">
            <g id="Layer_2" data-name="Layer 2">
                <g id="Layer_1-2" data-name="Layer 1-2">
                    <path class="cls-1"
                          d="M699.19,119l26,43.4L715.47,202H677.91l11.68-40.48a19.65,19.65,0,0,0-6.21-22V119Z"/>
                    <path class="cls-1"
                          d="M806.56,119v26.91H746a21.64,21.64,0,0,0-12,3.64,20.71,20.71,0,0,0-5.26,5h0L707.45,119Z"/>
                    <rect class="cls-1" x="677.91" y="208.4" width="37.52" height="8.04"/>
                    <path class="cls-1"
                          d="M771.66,160.16c0,5.36,2.74,8,2.74,8H736.9l-4.44-7.38h0a16.25,16.25,0,0,1,3-3.93,15.43,15.43,0,0,1,2-1.64,16.57,16.57,0,0,1,9.64-3.07H774.4S771.66,154.8,771.66,160.16Z"/>
                    <polygon class="cls-2"
                             points="782.22 243.94 782.2 243.95 736.9 168.2 732.46 160.78 728.72 154.53 707.45 118.96 675.34 65.26 707.46 118.96 728.73 154.52 732.46 160.76 736.91 168.2 782.22 243.94"/>
                    <polygon class="cls-3"
                             points="788.29 240.31 782.22 243.94 782.2 243.95 736.9 168.2 732.46 160.78 728.72 154.53 707.45 118.96 675.34 65.26 675.25 65.12 681.34 61.48 715.72 118.96 733.99 149.51 737.38 155.19 745.16 168.2 788.29 240.31"/>
                </g>
            </g>
            <g id="Layer_2-2" data-name="Layer 2">
                <g id="Layer_1-2-2" data-name="Layer 1-2">
                    <path class="cls-1"
                          d="M390.67,516.91l-2.12-2.12a17.62,17.62,0,0,1,0-24.88l2.12-2.12,4.24,4.2-2.12,2.12a11.62,11.62,0,0,0,0,16.4l2.12,2.12Z"/>
                    <path class="cls-1"
                          d="M374.86,523.14,372.74,521a25.05,25.05,0,0,1,0-35.43h0l2.12-2.12,4.24,4.24L377,489.79a19,19,0,0,0,0,26.94h0l2.12,2.12Z"/>
                    <path class="cls-1"
                          d="M484.13,516.91l-4.25-4.24,2.12-2.12a11.62,11.62,0,0,0,0-16.4L479.89,492l4.24-4.24,2.12,2.12a17.62,17.62,0,0,1,0,24.88Z"/>
                    <path class="cls-1"
                          d="M499.94,523.14l-4.24-4.24,2.12-2.12a19,19,0,0,0,0-26.94h0l-2.12-2.12,4.24-4.24,2.12,2.12a25.05,25.05,0,0,1,0,35.43h0Z"/>
                    <path class="cls-1"
                          d="M448.58,539.28a12.06,12.06,0,0,1-23.18-3.57H395.7l11.7-19.6V488.82a34.55,34.55,0,0,1,2.67-13.92l35.8,59.85.57,1Z"/>
                    <path class="cls-1"
                          d="M479.1,535.71H454.7l-40.4-67.55a30.2,30.2,0,0,1,5.35-4.86,30.79,30.79,0,0,1,41.3,5.41c4.51,5.47,6.45,12.47,6.45,20.11v27.29Z"/>
                    <polygon class="cls-2"
                             points="485.67 587.45 485.65 587.46 454.71 535.71 414.31 468.15 454.71 535.71 485.67 587.45"/>
                    <polygon class="cls-3"
                             points="491.74 583.82 485.67 587.45 485.65 587.46 454.71 535.71 414.31 468.15 378.78 408.76 378.69 408.63 384.79 404.99 419.66 463.3 462.96 535.71 491.74 583.82"/>
                </g>
            </g>
            <g id="Layer_2-3" data-name="Layer 2">
                <g id="Layer_1-2-3" data-name="Layer 1-2">
                    <path class="cls-1"
                          d="M176,144.8a22,22,0,0,0,2.67-11c0-9.37-4.52-14.17-8.51-18.41-3.69-3.92-6.88-7.31-6.88-14.29s3.19-10.38,6.88-14.3c2.4-2.55,5-5.3,6.68-9.13H170a36.75,36.75,0,0,1-4.21,5c-4,4.24-8.51,9-8.51,18.41s4.52,14.16,8.51,18.4c3.69,3.92,6.88,7.31,6.88,14.3a16.15,16.15,0,0,1-3.91,11Z"/>
                    <path class="cls-1"
                          d="M203.24,144.8a22,22,0,0,0,2.67-11c0-9.37-4.52-14.17-8.51-18.41-3.69-3.92-6.88-7.31-6.88-14.29s3.19-10.38,6.88-14.3c2.4-2.55,5-5.3,6.68-9.13h-6.84a38.25,38.25,0,0,1-4.21,5c-4,4.24-8.51,9-8.51,18.41s4.52,14.16,8.51,18.4c3.69,3.92,6.88,7.31,6.88,14.3a16.15,16.15,0,0,1-3.91,11Z"/>
                    <line class="cls-4" x1="176.87" y1="77.71" x2="170.03" y2="77.71"/>
                    <line class="cls-4" x1="176.03" y1="144.8" x2="168.79" y2="144.8"/>
                    <line class="cls-4" x1="203.24" y1="144.8" x2="196" y2="144.8"/>
                    <rect class="cls-1" x="61.98" y="156.94" width="41.93" height="17.86"/>
                    <polygon class="cls-1" points="140.53 174.8 109.91 174.8 109.91 156.94 129.85 156.94 140.53 174.8"/>
                    <polygon class="cls-1"
                             points="175.91 156.94 175.91 174.8 148.79 174.8 138.12 156.94 175.91 156.94"/>
                    <rect class="cls-1" x="181.91" y="156.94" width="12" height="17.86"/>
                    <polygon class="cls-2" points="83.33 65.33 138.12 156.94 138.11 156.94 83.33 65.33"/>
                    <polygon class="cls-2" points="138.12 156.94 148.8 174.8 148.79 174.8 138.12 156.94"/>
                    <polygon class="cls-2" points="190.16 243.94 190.15 243.95 148.8 174.8 190.16 243.94"/>
                    <polygon class="cls-3"
                             points="196.24 240.31 190.16 243.94 190.15 243.95 148.8 174.8 148.79 174.8 138.12 156.94 138.11 156.94 83.33 65.33 83.2 65.12 89.28 61.48 146.38 156.94 157.06 174.8 196.24 240.31"/>
                </g>
            </g>
            <g id="Layer_2-4" data-name="Layer 2">
                <g id="Layer_1-2-4" data-name="Layer 1-2">
                    <polygon class="cls-1" points="713 487.31 723.18 487.31 748.42 529.5 736.61 571.3 713 487.31"/>
                    <polygon class="cls-1" points="718.27 479.07 719.6 481.31 716.24 481.31 718.27 479.07"/>
                    <path class="cls-1"
                          d="M760.38,487.31l-6.62,23.44-2.65,9.37h0l-19.67-32.81L730.07,485l-2.22-3.71-4.6-7.69h0l5-5.47,7.53,12.59a19.25,19.25,0,0,0,2.12-2.8l.11,1.74a18.13,18.13,0,0,0,1.64,1.64h-3.53l3.59,6Z"/>
                    <path class="cls-1"
                          d="M771.58,466.93a19.12,19.12,0,0,1-6.49,14.38H739.64a18.13,18.13,0,0,1-1.64-1.64l-.11-1.74a19.25,19.25,0,0,1-2.12,2.8l-7.53-12.59-11.34-19c.43-.11.86-.2,1.29-.28v-1.92a19.2,19.2,0,1,1,38.39-.88q0,.44,0,.88v1.25A19.19,19.19,0,0,1,771.58,466.93Z"/>
                    <path class="cls-1" d="M718.27,479.08l1.33,2.23H707.94a19.22,19.22,0,0,1-2.56-23.8Z"/>
                    <path class="cls-1"
                          d="M735.77,480.73c-.18.2-.36.39-.56.58a18.75,18.75,0,0,1-5.13,3.68h0l-2.22-3.71-4.6-7.69-12.88-21.42h0a19,19,0,0,1,6.47-3l11.34,19Z"/>
                    <polygon class="cls-2"
                             points="739.71 487.31 731.44 487.31 730.07 485.01 727.85 481.31 736.12 481.31 739.71 487.31"/>
                    <polygon class="cls-2"
                             points="791.35 587.45 791.34 587.46 751.07 520.13 731.44 487.31 730.07 485.01 727.85 481.31 723.25 473.62 710.42 452.17 684.47 408.77 684.48 408.76 710.43 452.15 723.26 473.61 727.87 481.31 730.08 485.01 731.45 487.31 751.08 520.12 791.35 587.45"/>
                    <polygon class="cls-3"
                             points="797.43 583.82 791.35 587.45 791.34 587.46 751.07 520.13 731.44 487.31 730.07 485.01 727.85 481.31 723.25 473.62 710.42 452.17 684.47 408.77 684.38 408.63 690.47 404.99 716.9 449.17 728.24 468.13 735.77 480.73 736.12 481.31 739.71 487.31 753.73 510.75 797.43 583.82"/>
                </g>
            </g>
            <g id="Layer_2-5" data-name="Layer 2">
                <g id="Layer_1-2-5" data-name="Layer 1-2">
                    <polygon class="cls-1"
                             points="403.74 136.29 430.65 181.29 389.03 181.29 389.03 208.24 380.03 208.24 380.03 145.12 369.2 126.29 375.95 122.21 384.48 136.29 403.74 136.29"/>
                    <polygon class="cls-1"
                             points="479.03 166.49 479.03 208.29 470.23 208.29 470.23 181.29 438.91 181.29 411.99 136.29 448.83 136.29 479.03 166.49"/>
                    <path class="cls-1"
                          d="M488,119.11V93.6L454.58,132l26.62,26.66h.07a5.56,5.56,0,0,1,7.21.56l2.9,2.9L510.81,142Zm.89,17.27a2.58,2.58,0,1,1,2.58-2.58,2.58,2.58,0,0,1-2.58,2.58Z"/>
                    <polygon class="cls-2"
                             points="476.4 243.94 476.38 243.95 438.91 181.29 411.99 136.29 369.51 65.26 369.52 65.25 412.01 136.29 438.92 181.29 476.4 243.94"/>
                    <polygon class="cls-3"
                             points="482.47 240.31 476.4 243.94 476.38 243.95 438.91 181.29 411.99 136.29 369.51 65.26 369.43 65.12 375.52 61.48 420.26 136.29 447.17 181.29 482.47 240.31"/>
                </g>
            </g>
            <g id="Layer_2-6" data-name="Layer 2">
                <g id="Layer_1-2-6" data-name="Layer 1-2">
                    <path class="cls-1"
                          d="M129.7,461.67h2.51a21.38,21.38,0,0,1,6.25.93V437.67h-15V462.6A21.38,21.38,0,0,1,129.7,461.67Z"/>
                    <path class="cls-1"
                          d="M153.46,489.39v44.4l-36.7-61.35h0A21.36,21.36,0,0,1,129.88,468H132A21.44,21.44,0,0,1,153.46,489.39Z"/>
                    <path class="cls-1"
                          d="M111.78,477.91l41.68,69.69v13.62a8.45,8.45,0,0,1-8.45,8.45H116.89a8.44,8.44,0,0,1-8.44-8.44h0V489.39A21.34,21.34,0,0,1,111.78,477.91Z"/>
                    <rect class="cls-1" x="123.46" y="425.67" width="15.09" height="6"/>
                    <polygon class="cls-2"
                             points="185.57 587.45 185.56 587.46 153.46 533.78 116.76 472.44 78.69 408.77 78.7 408.76 116.77 472.43 153.46 533.76 185.57 587.45"/>
                    <polygon class="cls-3"
                             points="191.65 583.82 185.57 587.45 185.56 587.46 153.46 533.78 116.76 472.44 78.69 408.77 78.6 408.63 84.69 404.99 123.02 469.07 153.46 519.97 191.65 583.82"/>
                </g>
            </g>
            <rect class="cls-4" width="933.59" height="686.39"/>
        </g>
    </g>
</svg>