<svg xmlns="http://www.w3.org/2000/svg" viewBox="0 0 105 96"><defs><style>.cls-1,.cls-2{fill:none;}.cls-1{stroke:#ffffff;stroke-miterlimit:10;}</style></defs><title>Asset 33</title><g id="Layer_2" data-name="Layer 2"><g id="Layer_1-2" data-name="Layer 1"><path class="cls-1" d="M87.48,38.6a9,9,0,0,0-1,.1,35.23,35.23,0,0,0-68,0,9,9,0,0,0-1-.1,9.11,9.11,0,0,0,0,18.22c.29,0,.56-.06.84-.09a35.22,35.22,0,0,0,68.27,0c.28,0,.55.09.84.09a9.11,9.11,0,0,0,0-18.22Z"/><circle class="cls-1" cx="39.27" cy="43.59" r="4.41"/><circle class="cls-1" cx="65.73" cy="43.59" r="4.41"/><path class="cls-1" d="M61.32,56.82a8.82,8.82,0,1,1-17.64,0"/><rect class="cls-2" width="105" height="96"/></g></g></svg>