<svg xmlns="http://www.w3.org/2000/svg" viewBox="0 0 105 96"><defs><style>.cls-1,.cls-2{fill:none;}.cls-1{stroke:#ffffff;stroke-miterlimit:10;}</style></defs><title>Asset 29</title><g id="Layer_2" data-name="Layer 2"><g id="Layer_1-2" data-name="Layer 1"><path class="cls-1" d="M52.5,72.27a18.67,18.67,0,1,1-37.34,0c0-10.31,18.67-37.34,18.67-37.34S52.5,62,52.5,72.27Z"/><path class="cls-1" d="M89.84,64.81a14.94,14.94,0,1,1-29.88,0c0-8.25,14.94-29.88,14.94-29.88S89.84,56.56,89.84,64.81Z"/><path class="cls-1" d="M67.44,27.46a11.2,11.2,0,1,1-22.41,0c0-6.19,11.2-22.41,11.2-22.41S67.44,21.27,67.44,27.46Z"/><path class="cls-1" d="M34.23,81.71A11.44,11.44,0,0,1,22.79,70.27"/><path class="cls-1" d="M74.91,72.27a7.47,7.47,0,0,1-7.47-7.47"/><path class="cls-1" d="M57.29,32.25a5.91,5.91,0,0,1-5.91-5.91"/><rect class="cls-2" width="105" height="96"/></g></g></svg>