<svg xmlns="http://www.w3.org/2000/svg" viewBox="0 0 105 96"><defs><style>.cls-1,.cls-2{fill:none;}.cls-1{stroke:#ffffff;stroke-linecap:round;stroke-linejoin:round;}</style></defs><title>Asset 11</title><g id="Layer_2" data-name="Layer 2"><g id="Layer_1-2" data-name="Layer 1"><polyline class="cls-1" points="52.5 15.44 66.56 7.32 80.62 15.44 80.62 31.67 66.56 39.79 52.5 31.67 52.5 15.44 38.44 7.32 24.38 15.44 24.38 31.67"/><polyline class="cls-1" points="52.5 31.86 38.44 39.98 38.44 56.21 52.5 64.33 66.56 56.21 66.56 39.98"/><polyline class="cls-1" points="52.5 64.33 52.5 80.56 66.56 88.68 80.62 80.56 80.62 64.33"/><polyline class="cls-1" points="24.38 64.33 24.38 80.56 38.44 88.68 52.5 80.56"/><polyline class="cls-1" points="38.44 39.98 24.38 31.86 10.32 39.98 10.32 56.21 24.38 64.33 38.44 56.21"/><polyline class="cls-1" points="66.56 55.77 80.62 63.88 94.68 55.77 94.68 39.53 80.62 31.41"/><rect class="cls-2" width="105" height="96"/></g></g></svg>