<svg xmlns="http://www.w3.org/2000/svg" viewBox="0 0 105 96"><defs><style>.cls-1,.cls-2{fill:none;}.cls-1{stroke:#ffffff;stroke-linecap:round;stroke-linejoin:round;}</style></defs><title>Asset 17</title><g id="Layer_2" data-name="Layer 2"><g id="Layer_1-2" data-name="Layer 1"><circle class="cls-1" cx="67" cy="27.43" r="1.65"/><circle class="cls-1" cx="76.79" cy="22.02" r="1.65"/><circle class="cls-1" cx="77.17" cy="35.04" r="1.65"/><circle class="cls-1" cx="73.69" cy="28.05" r="17.15"/><line class="cls-1" x1="73.69" y1="10.44" x2="73.69" y2="3.55"/><line class="cls-1" x1="64.89" y1="12.8" x2="61.45" y2="6.83"/><line class="cls-1" x1="58.45" y1="19.24" x2="52.48" y2="15.8"/><line class="cls-1" x1="56.09" y1="28.05" x2="49.2" y2="28.05"/><line class="cls-1" x1="58.45" y1="36.85" x2="52.48" y2="40.3"/><line class="cls-1" x1="64.89" y1="43.3" x2="61.45" y2="49.27"/><line class="cls-1" x1="73.69" y1="45.66" x2="73.69" y2="52.55"/><line class="cls-1" x1="82.5" y1="43.3" x2="85.94" y2="49.27"/><line class="cls-1" x1="88.94" y1="36.85" x2="94.91" y2="40.3"/><line class="cls-1" x1="91.3" y1="28.05" x2="98.19" y2="28.05"/><line class="cls-1" x1="88.94" y1="19.24" x2="94.91" y2="15.8"/><line class="cls-1" x1="82.5" y1="12.8" x2="85.94" y2="6.83"/><circle class="cls-1" cx="23.16" cy="55.07" r="1.65"/><circle class="cls-1" cx="23.16" cy="55.07" r="11.45"/><line class="cls-1" x1="23.16" y1="43.32" x2="23.16" y2="38.72"/><line class="cls-1" x1="17.28" y1="44.9" x2="14.98" y2="40.91"/><line class="cls-1" x1="12.98" y1="49.2" x2="9" y2="46.9"/><line class="cls-1" x1="11.41" y1="55.07" x2="6.81" y2="55.07"/><line class="cls-1" x1="12.98" y1="60.95" x2="9" y2="63.25"/><line class="cls-1" x1="17.28" y1="65.25" x2="14.98" y2="69.24"/><line class="cls-1" x1="23.16" y1="66.83" x2="23.16" y2="71.43"/><line class="cls-1" x1="29.03" y1="65.25" x2="31.33" y2="69.24"/><line class="cls-1" x1="33.34" y1="60.95" x2="37.32" y2="63.25"/><line class="cls-1" x1="34.91" y1="55.07" x2="39.51" y2="55.07"/><line class="cls-1" x1="33.34" y1="49.2" x2="37.32" y2="46.9"/><line class="cls-1" x1="29.03" y1="44.9" x2="31.33" y2="40.91"/><circle class="cls-1" cx="58.84" cy="76.1" r="1.65"/><circle class="cls-1" cx="58.84" cy="76.1" r="11.45"/><line class="cls-1" x1="58.84" y1="64.35" x2="58.84" y2="59.75"/><line class="cls-1" x1="52.96" y1="65.92" x2="50.66" y2="61.94"/><line class="cls-1" x1="48.66" y1="70.22" x2="44.67" y2="67.92"/><line class="cls-1" x1="47.08" y1="76.1" x2="42.48" y2="76.1"/><line class="cls-1" x1="48.66" y1="81.98" x2="44.67" y2="84.28"/><line class="cls-1" x1="52.96" y1="86.28" x2="50.66" y2="90.26"/><line class="cls-1" x1="58.84" y1="87.85" x2="58.84" y2="92.45"/><line class="cls-1" x1="64.71" y1="86.28" x2="67.01" y2="90.26"/><line class="cls-1" x1="69.01" y1="81.98" x2="73" y2="84.28"/><line class="cls-1" x1="70.59" y1="76.1" x2="75.19" y2="76.1"/><line class="cls-1" x1="69.01" y1="70.22" x2="73" y2="67.92"/><line class="cls-1" x1="64.71" y1="65.92" x2="67.01" y2="61.94"/><rect class="cls-2" width="105" height="96"/></g></g></svg>