<svg xmlns="http://www.w3.org/2000/svg" viewBox="0 0 105 96"><defs><style>.cls-1{fill:#ffffff;}.cls-2,.cls-3{fill:none;}.cls-2{stroke:#ffffff;stroke-linecap:round;stroke-linejoin:round;}</style></defs><title>Asset 21</title><g id="Layer_2" data-name="Layer 2"><g id="Layer_1-2" data-name="Layer 1"><path class="cls-1" d="M77.65,32.61c3.49,0,5.81,1.44,5.81,4.32a3.78,3.78,0,0,1-2.74,3.79A4.3,4.3,0,0,1,84.15,45c0,3.88-3.81,4.69-6.3,4.69h-7.2V32.61Zm-.17,2H72.7v5.32H78c1.78,0,3.34-.71,3.34-2.66S79.9,34.57,77.48,34.57ZM78,41.84H72.7v5.91h4.74c2.15,0,4.64-.15,4.64-3S79.63,41.84,78,41.84Z"/><path class="cls-1" d="M97.54,33.1v2h-8l-.29,4.69A10.75,10.75,0,0,1,92,39.38c3.13,0,6.3,1.34,6.3,5.32,0,3.37-2.83,5.3-6.44,5.3a12.55,12.55,0,0,1-5.32-1.12v-2a11.17,11.17,0,0,0,5.08,1.17c2.71,0,4.61-1.15,4.61-3.39,0-2.71-2.34-3.47-4.93-3.47A13.05,13.05,0,0,0,87,42l.54-8.91Z"/><circle class="cls-1" cx="32.61" cy="76" r="1.88" transform="translate(-30.57 22.63) rotate(-26.59)"/><circle class="cls-1" cx="25.22" cy="68.71" r="1.88" transform="translate(-28.09 18.55) rotate(-26.59)"/><circle class="cls-1" cx="18.22" cy="61.82" r="1.88" transform="translate(-25.74 14.69) rotate(-26.59)"/><circle class="cls-1" cx="43.02" cy="73.39" r="1.88" transform="translate(-28.3 27.02) rotate(-26.59)"/><circle class="cls-1" cx="35.63" cy="66.1" r="1.88" transform="translate(-25.82 22.94) rotate(-26.59)"/><circle class="cls-1" cx="28.63" cy="59.21" r="1.88" transform="translate(-23.47 19.08) rotate(-26.59)"/><circle class="cls-1" cx="21.86" cy="52.23" r="1.88" transform="translate(-21.07 15.31) rotate(-26.59)"/><path class="cls-2" d="M67.78,59.12l-5.31,5.55L50,77.75C39.59,88.62,23.29,90,13.59,80.77h0c-9.7-9.21-9.15-25.49,1.24-36.36l25-26.16C50.22,7.38,66.51,6,76.22,15.23h0A21.8,21.8,0,0,1,81.46,23"/><line class="cls-2" x1="27.33" y1="31.33" x2="62.48" y2="64.67"/><rect class="cls-3" width="105" height="96"/></g></g></svg>