<svg xmlns="http://www.w3.org/2000/svg" viewBox="0 0 105 96"><defs><style>.cls-1{fill:#ffffff;}.cls-2,.cls-3{fill:none;}.cls-2{stroke:#ffffff;stroke-linecap:round;stroke-linejoin:round;}</style></defs><title>Asset 8</title><g id="Layer_2" data-name="Layer 2"><g id="Layer_1-2" data-name="Layer 1"><circle class="cls-1" cx="78.91" cy="51.08" r="3.22"/><polyline class="cls-2" points="37.03 60.75 37.03 73.64 43.47 73.64"/><polyline class="cls-2" points="75.69 60.75 75.69 73.64 82.14 73.64"/><path class="cls-2" d="M23.41,60.75l-4,.42c-7.12.75-12.85-6.44-9.93-13a10.09,10.09,0,0,1,.47-.92h0A9.89,9.89,0,0,0,3.53,32.69"/><path class="cls-2" d="M62.45,29.25a32.25,32.25,0,0,0-39,31.5h78.06L78.27,37.83c-.25-.25-.48-.52-.73-.75a8.7,8.7,0,0,0,0-12.21A8.54,8.54,0,0,0,65.49,36.94"/><rect class="cls-3" width="105" height="96"/></g></g></svg>