<svg xmlns="http://www.w3.org/2000/svg" viewBox="0 0 105 96"><defs><style>.cls-1,.cls-2{fill:none;}.cls-1{stroke:#ffffff;stroke-linecap:round;stroke-linejoin:round;}</style></defs><title>Asset 10</title><g id="Layer_2" data-name="Layer 2"><g id="Layer_1-2" data-name="Layer 1"><path class="cls-1" d="M85.37,47.82l-23,33A23.82,23.82,0,0,1,19,67.18V26.08a4,4,0,0,1,8,0V42.64a2.13,2.13,0,1,0,4.26,0V17.41a4,4,0,0,1,8,0V40a2.13,2.13,0,1,0,4.26,0V9a4,4,0,0,1,8,0V39.59a2.3,2.3,0,1,0,4.6,0l0-23.36a4,4,0,0,1,8,0V51.95A3,3,0,0,0,69,54L79.67,43.16a3.7,3.7,0,0,1,5.7,4.67"/><rect class="cls-2" width="105" height="96"/></g></g></svg>