<svg xmlns="http://www.w3.org/2000/svg" viewBox="0 0 105 96"><defs><style>.cls-1,.cls-2{fill:none;}.cls-1{stroke:#ffffff;stroke-linecap:round;stroke-linejoin:round;}</style></defs><title>Asset 19</title><g id="Layer_2" data-name="Layer 2"><g id="Layer_1-2" data-name="Layer 1"><path class="cls-1" d="M90.94,42.82a47.25,47.25,0,0,1-17,3.4A46.14,46.14,0,0,1,58.5,43.33C58,43.15,57.44,43,57,42.76a3.85,3.85,0,0,1,0-7.37c.69-.26,1.41-.54,2.19-.81A45.55,45.55,0,0,1,74,32a47.17,47.17,0,0,1,17,3.47C94.61,36.89,94.6,41.39,90.94,42.82Z"/><path class="cls-1" d="M46,35.17c.39-2,.82-3.94,1.27-5.74"/><path class="cls-1" d="M60.22,43.89a96.4,96.4,0,0,1,.55,10.16,105.56,105.56,0,0,1-4,27.94c-1.69,6-6.93,6-8.6,0a105.05,105.05,0,0,1-4-27.94,95.06,95.06,0,0,1,.51-9.55"/><path class="cls-1" d="M57.55,28.92c.45,1.8.89,3.73,1.28,5.77"/><path class="cls-1" d="M48,43.3c-.46.18-.92.36-1.41.53-1.55.56-3.24,1.09-5.07,1.55A43.14,43.14,0,0,1,31,46.69a46.77,46.77,0,0,1-17-3.45c-3.65-1.45-3.65-6,0-7.38a46.83,46.83,0,0,1,17-3.39A45.33,45.33,0,0,1,45.65,35c.84.28,1.63.58,2.38.87C51.69,37.36,51.69,41.85,48,43.3Z"/><path class="cls-1" d="M58.93,24.95a6.46,6.46,0,1,1-6.46-6.45A6.48,6.48,0,0,1,58.93,24.95Z"/><line class="cls-1" x1="52.46" y1="7.93" x2="52.46" y2="17.31"/><polyline class="cls-1" points="13.7 74.75 28.48 60.55 28.48 50.97 41.55 45.36"/><polyline class="cls-1" points="28.48 9.44 39.77 20.73 39.77 20.87 34.13 26.51 46.11 31.75"/><polyline class="cls-1" points="76.55 9.44 65.26 20.73 65.27 20.87 70.91 26.51 58.92 31.75"/><polyline class="cls-1" points="44.34 48.34 35.96 56.72 35.96 72.14 20.04 88.07"/><polyline class="cls-1" points="91.71 74.4 76.93 60.19 76.93 50.62 63.87 45.01"/><polyline class="cls-1" points="60.77 47.69 69.45 56.36 69.45 71.79 85.37 87.72"/><rect class="cls-2" width="105" height="96"/></g></g></svg>