<svg xmlns="http://www.w3.org/2000/svg" viewBox="0 0 105 96"><defs><style>.cls-1,.cls-2{fill:none;}.cls-1{stroke:#ffffff;stroke-linecap:round;stroke-linejoin:round;}</style></defs><title>Asset 18</title><g id="Layer_2" data-name="Layer 2"><g id="Layer_1-2" data-name="Layer 1"><path class="cls-1" d="M69.86,40c14.07-9.82,33.3-8.75,33.3-8.75s1.32,24-12.66,38-38,14.62-38,14.62-24-.63-38-14.62-12.66-38-12.66-38S21.1,30.14,35.17,40"/><path class="cls-1" d="M52.52,12.19S70.42,28.22,70.42,48c0,18-14.84,32.91-17.5,35.43a.59.59,0,0,1-.81,0C49.45,80.91,34.61,66,34.61,48,34.61,28.22,52.52,12.19,52.52,12.19Z"/><rect class="cls-2" width="105" height="96"/></g></g></svg>