<svg xmlns="http://www.w3.org/2000/svg" viewBox="0 0 105 96">
    <defs>
        <style>.cls-1,.cls-2{fill:none;}.cls-1{stroke:#ffffff;stroke-linecap:round;stroke-linejoin:round;}</style>
    </defs>
    <title>Asset 2</title>
    <g id="Layer_2" data-name="Layer 2">
        <g id="Layer_1-2" data-name="Layer 1">
            <polyline class="cls-1" points="53.58 6.45 53 42.44 48.98 46.32"/>
            <line class="cls-1" x1="53" y1="42.43" x2="57.53" y2="47.11"/>
            <path class="cls-1"
                  d="M10.36,81.23C8.77,59.07,22.26,21.34,39.66,17.28A18.39,18.39,0,0,1,41.9,17a7.05,7.05,0,0,1,6.93,7.16L48.06,71.3a10.52,10.52,0,0,1-7.26,9.86h0L19.63,88.08h0a7.63,7.63,0,0,1-2.32.32,7.06,7.06,0,0,1-7-7.18"/>
            <path class="cls-1"
                  d="M94.48,82.59c2.31-22.1-9.95-60.24-27.2-64.86a18.39,18.39,0,0,0-2.23-.4,7.05,7.05,0,0,0-7.16,6.93l-.77,47.19a10.52,10.52,0,0,0,6.93,10.09h0L85,89.14h0a7.63,7.63,0,0,0,2.31.4,7.06,7.06,0,0,0,7.18-7"/>
            <rect class="cls-2" width="105" height="96"/>
        </g>
    </g>
</svg>