<svg xmlns="http://www.w3.org/2000/svg" viewBox="0 0 105 96"><defs><style>.cls-1,.cls-2{fill:none;}.cls-1{stroke:#ffffff;stroke-linecap:round;stroke-linejoin:round;}</style></defs><title>Asset 12</title><g id="Layer_2" data-name="Layer 2"><g id="Layer_1-2" data-name="Layer 1"><polygon class="cls-1" points="47.37 59.95 47.37 70.2 57.63 70.2 57.63 59.95 67.88 59.95 67.88 49.69 57.63 49.69 57.63 39.44 47.37 39.44 47.37 49.69 37.12 49.69 37.12 59.95 47.37 59.95"/><path class="cls-1" d="M74.17,11.88A21.67,21.67,0,0,0,52.5,33.55,21.67,21.67,0,1,0,10.16,40.1c6.49,22,42.34,44,42.34,44s35.85-22,42.34-44A21.68,21.68,0,0,0,74.17,11.88Z"/><rect class="cls-2" width="105" height="96"/></g></g></svg>