<svg xmlns="http://www.w3.org/2000/svg" viewBox="0 0 105 96"><defs><style>.cls-1,.cls-2{fill:none;}.cls-1{stroke:#ffffff;stroke-linecap:round;stroke-linejoin:round;}</style></defs><title>Asset 4</title><g id="Layer_2" data-name="Layer 2"><g id="Layer_1-2" data-name="Layer 1"><line class="cls-1" x1="4.54" y1="45.25" x2="100.46" y2="45.25"/><path class="cls-1" d="M48.32,26.73c2.47,1.67,4.18,2.66,4.18,2.66s1.46-.85,3.65-2.31a15.19,15.19,0,0,1,13.92-1.66,9.22,9.22,0,0,1,.85.37c14.18,6.25,29.54,19.44,29.54,19.44s-15,26.64-48,26.64c-34.25,0-48-26.64-48-26.64a108.69,108.69,0,0,1,28-19.45,21.24,21.24,0,0,1,3.31-1.16A15.26,15.26,0,0,1,48.32,26.73Z"/><rect class="cls-2" width="105" height="96"/></g></g></svg>