<svg xmlns="http://www.w3.org/2000/svg" viewBox="0 0 105 96"><defs><style>.cls-1,.cls-2{fill:none;}.cls-1{stroke:#ffffff;stroke-linecap:round;stroke-linejoin:round;}</style></defs><title>Asset 5</title><g id="Layer_2" data-name="Layer 2"><g id="Layer_1-2" data-name="Layer 1"><path class="cls-1" d="M88.25,50s-6.8-3.28-13.57-1.09-11,9-11,9-5.46-5.21-12.58-5.21-13.2,5.21-13.2,5.21l0,0a52.7,52.7,0,0,0,3.31-18.14,52.85,52.85,0,0,0-2-13.78.9.9,0,0,1,1.56-.84l4.91,5.73,7.58-.45V15.34H35A71,71,0,0,0,19.12,43.12a71.06,71.06,0,0,0-1,32h.11a76.18,76.18,0,0,0,27.9,5.56A76.19,76.19,0,0,0,74,75.11"/><rect class="cls-2" width="105" height="96"/></g></g></svg>