<svg xmlns="http://www.w3.org/2000/svg" viewBox="0 0 105 96"><defs><style>.cls-1,.cls-3,.cls-4{fill:none;}.cls-1,.cls-2{stroke:#ffffff;}.cls-1,.cls-2,.cls-3{stroke-linecap:round;stroke-linejoin:round;}.cls-2{fill:#ffffff;}.cls-3{stroke:#0066b4;}</style></defs><title>Asset 32</title><g id="Layer_2" data-name="Layer 2"><g id="Layer_1-2" data-name="Layer 1"><line class="cls-1" x1="52.5" y1="25.52" x2="52.5" y2="91.45"/><path class="cls-1" d="M79.49,62.92c-10.84,10.84-27,12.27-27,12.27S53.93,59,64.77,48.2s27-12.27,27-12.27S90.33,52.08,79.49,62.92Z"/><path class="cls-1" d="M25.51,62.92c10.84,10.84,27,12.27,27,12.27S51.07,59,40.23,48.2s-27-12.27-27-12.27S14.67,52.08,25.51,62.92Z"/><line class="cls-1" x1="52.5" y1="23.77" x2="52.5" y2="11.36"/><path class="cls-1" d="M57.37,5.79a4.87,4.87,0,0,1-9.75,0"/><circle class="cls-2" cx="52.5" cy="5.79" r="1.24"/><line class="cls-1" x1="52.5" y1="23.77" x2="41.76" y2="17.57"/><path class="cls-1" d="M39.37,10.56A4.87,4.87,0,0,1,34.49,19"/><circle class="cls-2" cx="36.93" cy="14.78" r="1.24" transform="translate(5.66 39.37) rotate(-60)"/><line class="cls-1" x1="52.5" y1="23.77" x2="41.76" y2="29.97"/><path class="cls-1" d="M34.49,28.54A4.87,4.87,0,0,1,39.37,37"/><circle class="cls-2" cx="36.93" cy="32.76" r="1.24" transform="matrix(0.87, -0.5, 0.5, 0.87, -11.43, 22.85)"/><path class="cls-3" d="M52.5,23.77"/><line class="cls-1" x1="52.5" y1="23.77" x2="63.24" y2="29.97"/><path class="cls-1" d="M65.63,37a4.87,4.87,0,0,1,4.87-8.44"/><circle class="cls-2" cx="68.07" cy="32.76" r="1.24" transform="translate(5.66 75.33) rotate(-60)"/><line class="cls-1" x1="52.5" y1="23.77" x2="63.24" y2="17.57"/><path class="cls-1" d="M70.51,19a4.87,4.87,0,0,1-4.87-8.44"/><circle class="cls-2" cx="68.07" cy="14.78" r="1.24" transform="translate(1.73 36.02) rotate(-30)"/><rect class="cls-4" width="105" height="96"/></g></g></svg>