<svg xmlns="http://www.w3.org/2000/svg" viewBox="0 0 105 96"><defs><style>.cls-1,.cls-2{fill:none;}.cls-1{stroke:#ffffff;stroke-linecap:round;stroke-linejoin:round;}</style></defs><title>Asset 6</title><g id="Layer_2" data-name="Layer 2"><g id="Layer_1-2" data-name="Layer 1"><path class="cls-1" d="M87.63,11A50.08,50.08,0,0,1,69.71,79.51,40.06,40.06,0,0,1,14.9,65.17,32,32,0,0,1,26.37,21.32,25.64,25.64,0,0,1,61.45,30.5a20.51,20.51,0,0,1-7.34,28.06,16.41,16.41,0,0,1-22.45-5.87,13.13,13.13,0,0,1,4.7-18,10.5,10.5,0,0,1,14.37,3.76,8.4,8.4,0,0,1-3,11.49,6.72,6.72,0,0,1-9.2-2.41"/><rect class="cls-2" width="105" height="96"/></g></g></svg>