<svg xmlns="http://www.w3.org/2000/svg" viewBox="0 0 579.16 579.16"><defs><style>.cls-1{fill:#ef552d;}.cls-2{fill:#5587a1;}.cls-3{fill:#0c4b8a;}.cls-4{fill:#fff;}</style></defs><title>concept4</title><g id="Layer_2" data-name="Layer 2"><g id="Слой_1" data-name="Слой 1"><rect class="cls-1" x="84.82" y="84.82" width="409.53" height="409.53" transform="translate(289.58 -119.95) rotate(45)"/><rect class="cls-2" x="136.36" y="187.3" width="307.02" height="204.52" transform="translate(289.65 -120.16) rotate(45)"/><rect class="cls-3" x="489.74" y="272.24" width="34.37" height="34.37" transform="translate(353.13 -273.68) rotate(45)"/><rect class="cls-3" x="272.73" y="55.23" width="34.37" height="34.37" transform="translate(136.12 -183.79) rotate(45)"/><rect class="cls-3" x="55.63" y="272.32" width="34.37" height="34.37" transform="translate(226.04 33.31) rotate(45)"/><rect class="cls-3" x="273.42" y="488.74" width="34.37" height="34.37" transform="translate(442.86 -57.31) rotate(45)"/><rect class="cls-3" x="136.36" y="187.21" width="307.02" height="204.52" transform="translate(699.52 289.18) rotate(135)"/><rect class="cls-4" x="247.02" y="71.39" width="68.25" height="453.25" transform="translate(293.07 -111.52) rotate(45)"/><rect class="cls-4" x="248.81" y="53.62" width="70.38" height="460.48" transform="translate(-117.54 283.96) rotate(-45)"/><rect class="cls-3" x="271.85" y="273.21" width="34.37" height="34.37" transform="translate(290 -119.32) rotate(45)"/></g></g></svg>