<svg xmlns="http://www.w3.org/2000/svg" viewBox="0 0 635.13 214.26"><defs><style>.cls-1,.cls-5,.cls-6{opacity:0.6;}.cls-2,.cls-5{fill:#666;}.cls-3,.cls-4,.cls-6{fill:#999;}.cls-3{opacity:0.52;}.cls-4{opacity:0.7;}.cls-7{fill:none;stroke:#55c3f4;stroke-miterlimit:10;stroke-width:0.5px;}</style></defs><title>Asset 1</title><g id="Layer_2" data-name="Layer 2"><g id="Слой_1" data-name="Слой 1"><g class="cls-1"><path class="cls-2" d="M314.89,60.88V36.81h-12V60.88h-12V.69h36.12V60.88Zm0-48.15h-12v12h12Z"/><path class="cls-2" d="M371.64,60.88V36.81h-12V60.88h-12V.69h36.12V24.77h-12v-12h-12v12h12v12h12V60.88Z"/><path class="cls-2" d="M440.43.69v12h-12V60.88h-12V12.73h-12V.69Z"/></g><g class="cls-1"><path class="cls-2" d="M290.61,214V186.64h18.23v-9.12H290.61v-9.12H318v27.35H299.73v9.12H318V214Z"/><path class="cls-2" d="M324.93,214V168.41h27.35V214Zm18.23-36.47H334v27.35h9.12Z"/><path class="cls-2" d="M364.65,214V168.41h9.12V214Z"/><path class="cls-2" d="M404.37,214V177.52H386.14v-9.12h27.35V214Z"/></g><g class="cls-1"><path class="cls-2" d="M302.57,77.72v12h12v12h12v12h-12v-12h-12v36.12h-12V77.72Zm24.08,24.08v-12h12v-12h12v60.19h-12V101.79Z"/><path class="cls-2" d="M395.43,137.91V113.83h-12v24.08h-12V77.72h36.12v60.19Zm0-48.15h-12v12h12Z"/><path class="cls-2" d="M452.18,137.91V113.83h-12v24.08h-12V77.72h36.12v24.08h-12v-12h-12v12h12v12h12v24.08Z"/><path class="cls-2" d="M508.94,137.91V113.83h-12v24.08h-12V77.72h12v24.08h12v12h12v24.08Zm0-36.12V77.72h12v24.08Z"/><path class="cls-2" d="M541.61,137.91V77.72h36.12v12H553.65v12h12v12h-12v12h24.08v12Z"/><path class="cls-2" d="M610.4,137.91V89.75h-12v-12h36.12v12h-12v48.15Z"/></g><rect class="cls-3" x="30.63" y="61.51" width="152.95" height="91.87"/><rect class="cls-4" x="61.22" y="31.11" width="91.63" height="152.6"/><rect class="cls-5" x="193.32" y="193.67" width="20.49" height="20.49"/><rect class="cls-5" x="193.33" y="0.45" width="20.49" height="20.49"/><rect class="cls-5" x="0.46" y="0.45" width="20.49" height="20.49"/><rect class="cls-5" x="0.46" y="193.67" width="20.49" height="20.49"/><rect class="cls-6" x="91.58" y="0.63" width="30.91" height="213.57" transform="translate(-0.38 214.45) rotate(-90)"/><rect class="cls-5" x="91.98" y="0.45" width="30.68" height="213.72"/><rect class="cls-7" x="0.25" y="0.25" width="213.76" height="213.76"/><line class="cls-7" x1="0.25" y1="183.47" x2="214.01" y2="183.47"/><line class="cls-7" x1="0.25" y1="152.93" x2="214.01" y2="152.93"/><line class="cls-7" x1="0.25" y1="122.4" x2="214.01" y2="122.4"/><line class="cls-7" x1="0.25" y1="91.86" x2="214.01" y2="91.86"/><line class="cls-7" x1="0.25" y1="61.32" x2="214.01" y2="61.32"/><line class="cls-7" x1="0.25" y1="30.79" x2="214.01" y2="30.79"/><line class="cls-7" x1="183.47" y1="0.25" x2="183.47" y2="214.01"/><line class="cls-7" x1="152.93" y1="0.25" x2="152.93" y2="214.01"/><line class="cls-7" x1="122.4" y1="0.25" x2="122.4" y2="214.01"/><line class="cls-7" x1="91.86" y1="0.25" x2="91.86" y2="214.01"/><line class="cls-7" x1="61.32" y1="0.25" x2="61.32" y2="214.01"/><line class="cls-7" x1="30.79" y1="0.25" x2="30.79" y2="214.01"/><line class="cls-7" x1="213.82" y1="61.32" x2="634.88" y2="61.32"/><line class="cls-7" x1="214.24" y1="107.45" x2="634.88" y2="107.45"/><polyline class="cls-7" points="214.24 213.99 634.3 213.99 634.88 213.99 634.88 107.45 634.88 0.25 213.82 0.25"/><line class="cls-7" x1="214.24" y1="168.41" x2="634.88" y2="168.41"/><line class="cls-7" x1="214.24" y1="137.93" x2="634.88" y2="137.93"/><line class="cls-7" x1="214.24" y1="77.69" x2="521.29" y2="77.69"/></g></g></svg>