<svg xmlns="http://www.w3.org/2000/svg" viewBox="0 0 652.4 515.7"><defs><style>.cls-1{fill:#fff;}.cls-2{fill:#5587a1;}.cls-3{fill:#0c4b8a;}.cls-4{fill:#ef552d;}</style></defs><title>concept1</title><g id="Layer_2" data-name="Layer 2"><g id="Слой_1" data-name="Слой 1"><rect class="cls-1" x="211.89" y="115.2" width="230.93" height="230.93" transform="translate(258.99 -163.92) rotate(45)"/><polygon class="cls-2" points="652.12 24.45 652.12 190.3 488.56 190.3 488.62 190.24 326.2 27.82 163.88 190.14 164.04 190.3 0.59 190.3 0.59 24.45 652.12 24.45"/><polygon class="cls-1" points="487.95 230.23 427.83 290.38 368.33 349.85 325.69 392.5 284.84 351.64 283.05 349.85 223.67 290.48 163.43 230.23 487.95 230.23"/><polygon class="cls-1" points="489.59 189.28 488.62 190.24 326.2 27.82 163.88 190.14 163.01 189.28 326.3 25.99 326.73 26.42 326.79 26.48 489.59 189.28"/><polygon class="cls-3" points="652.4 27.45 652.12 27.72 489.55 190.3 489.11 190.73 488.68 190.3 488.62 190.24 325.82 27.45 328.82 24.45 649.41 24.45 652.4 27.45"/><polygon class="cls-3" points="326.57 27.45 163.88 190.14 163.72 190.3 163.7 190.32 163.29 190.73 162.85 190.3 0.59 28.04 0 27.45 2.99 24.45 323.58 24.45 326.57 27.45"/><rect class="cls-1" x="0.63" y="24.45" width="651.49" height="1.97"/><rect class="cls-2" x="163.1" y="349.85" width="325.35" height="165.85"/><polygon class="cls-3" points="489.09 351.64 488.44 352.29 325.81 514.93 163.09 352.24 162.5 351.64 163.09 351.05 164.29 349.85 223.67 290.48 283.93 230.23 367.68 230.23 427.83 290.38 487.3 349.85 488.44 350.99 489.09 351.64"/><rect class="cls-4" x="163.09" y="190.73" width="325.41" height="160.91"/><rect class="cls-4" x="274.33" width="102.01" height="25.57"/></g></g></svg>