<svg xmlns="http://www.w3.org/2000/svg" viewBox="0 0 220.86 220.7"><defs><style>.cls-1{fill:#5587a1;}.cls-2{fill:#0c4b8a;}.cls-3{fill:#ef552d;}.cls-4{fill:#fff;}</style></defs><title>concept16</title><g id="Layer_2" data-name="Layer 2"><g id="Слой_1" data-name="Слой 1"><rect class="cls-1" x="-55.12" y="55.12" width="220.7" height="110.46" transform="translate(165.58 55.12) rotate(90)"/><rect class="cls-2" x="55.28" y="55.12" width="220.7" height="110.46" transform="translate(275.98 -55.28) rotate(90)"/><polygon class="cls-3" points="220.83 96.64 193.23 96.64 193.23 69.14 165.63 69.14 165.63 41.54 138.36 41.54 138.36 13.94 82.5 13.94 82.5 41.54 55.23 41.54 55.23 69.14 27.63 69.14 27.63 96.64 0.13 96.64 0.13 124.77 27.63 124.77 27.63 152.37 55.23 152.37 55.23 180.5 82.5 180.5 82.5 207.57 138.36 207.57 138.36 180.5 165.63 180.5 165.63 152.37 193.23 152.37 193.23 124.77 220.83 124.77 220.83 96.64"/><rect class="cls-4" x="96.41" y="96.64" width="28.13" height="28.13" transform="translate(221.18 0.22) rotate(90)"/></g></g></svg>