<svg xmlns="http://www.w3.org/2000/svg" viewBox="0 0 408.7 408.67"><defs><style>.cls-1{fill:#0c4b8a;}.cls-2{fill:#ef552d;}</style></defs><title>concept3</title><g id="Layer_2" data-name="Layer 2"><g id="Слой_1" data-name="Слой 1"><rect class="cls-1" x="248.68" y="119.62" width="27.6" height="110.17" transform="translate(200.41 -134.43) rotate(45)"/><rect class="cls-1" x="248.64" y="178.08" width="27.6" height="110.3" transform="translate(-88.05 253.88) rotate(-45)"/><rect class="cls-2" x="258.43" y="190.19" width="27.6" height="27.6" transform="translate(223.98 -132.75) rotate(45)"/><rect class="cls-2" x="375.39" y="190.19" width="27.6" height="27.6" transform="translate(258.23 -215.45) rotate(45)"/><rect class="cls-2" x="303.19" y="176.38" width="55.2" height="55.2" transform="translate(241.12 -174.16) rotate(45)"/><rect class="cls-1" x="336.42" y="268.18" width="27.6" height="27.6" transform="translate(301.97 -165.06) rotate(45)"/><rect class="cls-1" x="336.42" y="112.2" width="27.6" height="27.6" transform="translate(191.67 -210.74) rotate(45)"/><rect class="cls-1" x="346.21" y="225.09" width="27.6" height="55.2" transform="translate(-73.23 328.57) rotate(-45)"/><rect class="cls-1" x="332.35" y="141.43" width="55.2" height="27.6" transform="translate(-4.34 299.99) rotate(-45)"/><rect class="cls-1" x="154.7" y="94.08" width="27.6" height="90.05" transform="translate(-49.01 159.89) rotate(-45)"/><rect class="cls-1" x="220.34" y="91.12" width="27.6" height="110.3" transform="translate(296.28 415.25) rotate(-135)"/><rect class="cls-2" x="191.1" y="122.67" width="27.6" height="27.6" transform="translate(-36.49 184.86) rotate(-45)"/><rect class="cls-2" x="191.1" y="5.72" width="27.6" height="27.6" transform="translate(46.21 150.6) rotate(-45)"/><rect class="cls-2" x="177.3" y="50.32" width="55.2" height="55.2" transform="translate(4.92 167.7) rotate(-45)"/><rect class="cls-1" x="269.1" y="44.68" width="27.6" height="27.6" transform="translate(41.51 217.17) rotate(-45)"/><rect class="cls-1" x="113.11" y="44.68" width="27.6" height="27.6" transform="translate(-4.18 106.87) rotate(-45)"/><rect class="cls-1" x="239.8" y="21.1" width="27.6" height="55.2" transform="translate(398.49 262.45) rotate(-135)"/><rect class="cls-1" x="128.55" y="34.96" width="55.2" height="27.6" transform="translate(232.09 193.64) rotate(-135)"/><rect class="cls-1" x="160.9" y="207.37" width="27.6" height="110.16" transform="translate(236.75 -46.66) rotate(45)"/><rect class="cls-1" x="219.43" y="207.25" width="27.6" height="110.3" transform="translate(583.69 283.03) rotate(135)"/><rect class="cls-2" x="190.19" y="258.4" width="27.6" height="27.6" transform="translate(252.22 -64.52) rotate(45)"/><rect class="cls-2" x="190.19" y="375.35" width="27.6" height="27.6" transform="translate(334.92 -30.26) rotate(45)"/><rect class="cls-2" x="176.38" y="303.15" width="55.2" height="55.2" transform="translate(293.62 -47.36) rotate(45)"/><rect class="cls-1" x="268.18" y="336.39" width="27.6" height="27.6" transform="translate(330.21 -96.82) rotate(45)"/><rect class="cls-1" x="112.2" y="336.39" width="27.6" height="27.6" transform="translate(284.52 13.48) rotate(45)"/><rect class="cls-1" x="238.89" y="332.37" width="27.6" height="55.2" transform="translate(685.9 435.83) rotate(135)"/><rect class="cls-1" x="127.63" y="346.11" width="55.2" height="27.6" transform="translate(519.5 504.64) rotate(135)"/><rect class="cls-1" x="132.46" y="120.48" width="27.6" height="110.27" transform="translate(373.86 196.38) rotate(135)"/><rect class="cls-1" x="132.47" y="178.96" width="27.6" height="110.3" transform="translate(84.15 503.07) rotate(-135)"/><rect class="cls-2" x="122.67" y="191.07" width="27.6" height="27.6" transform="translate(377.84 253.23) rotate(135)"/><rect class="cls-2" x="5.72" y="191.07" width="27.6" height="27.6" transform="translate(178.18 335.93) rotate(135)"/><rect class="cls-2" x="50.35" y="177.36" width="55.2" height="55.07" transform="translate(277.95 294.65) rotate(135)"/><rect class="cls-1" x="44.68" y="269.06" width="27.6" height="27.6" transform="translate(299.84 441.52) rotate(135)"/><rect class="cls-1" x="44.68" y="113.07" width="27.6" height="27.6" transform="translate(189.54 175.24) rotate(135)"/><rect class="cls-1" x="34.9" y="225.96" width="27.6" height="55.2" transform="translate(-96.17 467.29) rotate(-135)"/><rect class="cls-1" x="21.16" y="142.31" width="55.2" height="27.6" transform="translate(-27.16 300.98) rotate(-135)"/></g></g></svg>