<svg xmlns="http://www.w3.org/2000/svg" viewBox="0 0 616.56 435.21"><defs><style>.cls-1{fill:#ef552d;}.cls-2{fill:#0c4b8a;}.cls-3{fill:#5587a1;}</style></defs><title>logo2</title><g id="Layer_2" data-name="Layer 2"><g id="Слой_1" data-name="Слой 1"><path class="cls-1" d="M246,435.21V408.68h18v-8.84H246V391h27v26.53H255v8.84h18v8.84Z"/><path class="cls-1" d="M283.1,435.21V391h27v44.21Zm18-35.37h-9v26.53h9Z"/><path class="cls-1" d="M325.52,435.21V391h9v44.21Z"/><path class="cls-1" d="M367.95,435.21V399.84h-18V391h27v44.21Z"/><path class="cls-2" d="M28,354.43v-28H14v28H0V284.52H41.95v69.91Zm0-55.93H14v14H28Z"/><path class="cls-2" d="M93.88,354.43v-28h-14v28h-14V284.52h41.95v28h-14v-14h-14v14h14v14h14v28Z"/><path class="cls-2" d="M173.78,284.52v14h-14v55.93h-14V298.5h-14v-14Z"/><path class="cls-2" d="M231,284v14h14v14h14v14H245v-14H231V353.9h-14V284Zm28,28V298h14V284h14V353.9H273V311.95Z"/><path class="cls-2" d="M338.9,353.9v-28h-14v28h-14V284h41.95V353.9Zm0-55.93h-14v14h14Z"/><path class="cls-2" d="M404.82,353.9v-28h-14v28h-14V284H418.8v28h-14V298h-14v14h14v14h14v28Z"/><path class="cls-2" d="M470.74,353.9v-28h-14v28h-14V284h14v28h14v14h14v28Zm0-41.95V284h14v28Z"/><path class="cls-2" d="M508.69,353.9V284h41.95v14h-28v14h14v14h-14v14h28v14Z"/><path class="cls-2" d="M588.59,353.9V298h-14V284h41.95v14h-14V353.9Z"/><rect class="cls-1" x="235.11" y="61.06" width="152.95" height="91.87"/><rect class="cls-3" x="265.71" y="30.66" width="91.63" height="152.6"/><rect class="cls-2" x="397.81" y="193.22" width="20.49" height="20.49"/><rect class="cls-2" x="397.81" width="20.49" height="20.49"/><rect class="cls-2" x="204.95" width="20.49" height="20.49"/><rect class="cls-2" x="204.95" y="193.22" width="20.49" height="20.49"/><rect class="cls-3" x="296.06" y="0.18" width="30.91" height="213.57" transform="translate(204.56 418.48) rotate(-90)"/><rect class="cls-2" x="296.47" width="30.68" height="213.72"/></g></g></svg>