<svg xmlns="http://www.w3.org/2000/svg" xmlns:xlink="http://www.w3.org/1999/xlink" viewBox="0 0 375.44 437.56">
    <defs>
        <style>
            .cls-1,.cls-10,.cls-11,.cls-12,.cls-13,.cls-6,.cls-7,.cls-8,.cls-9{fill:none;}.cls-2{clip-path:url(#clip-path);}.cls-3{fill:#fff;}.cls-4{fill:#95c1dd;}.cls-5{fill:#1a4967;}.cls-10,.cls-11,.cls-6,.cls-9{stroke:#1a4967;}.cls-10,.cls-11,.cls-12,.cls-13,.cls-6,.cls-7,.cls-8,.cls-9{stroke-miterlimit:10;}.cls-6,.cls-8{stroke-width:3.86px;}.cls-12,.cls-13,.cls-7,.cls-8{stroke:#fff;}.cls-11,.cls-12,.cls-7,.cls-8,.cls-9{stroke-linecap:round;}.cls-11,.cls-7{stroke-width:4.82px;}.cls-9{stroke-width:2.89px;}.cls-10{stroke-width:0.96px;}.cls-12{stroke-width:9.65px;}.cls-13{stroke-width:1.93px;}
        </style>
        <clipPath id="clip-path" transform="translate(-0.02 -0.02)">
            <rect class="cls-1" width="375.46" height="437.58"/>
        </clipPath>
    </defs>
    <title>Yoy_gogol</title>
    <g id="Слой_2" data-name="Слой 2">
        <g id="Слой_1-2" data-name="Слой 1">
            <g class="cls-2">
                <path class="cls-3"
                      d="M209.7,45.1S228.93,61,234.56,69.36s14,23.43,16.62,32.21,5.85,12.15,6.64,31.8,2.15,21.31-.39,38.45-8.19,49-18.37,66.28S210.79,273.22,207.51,274s-15.09,2-24.82,0-28.85-8.77-35.72-13.64-12.29-8-19.43-16.32S116.86,231.47,113.66,226l-3.2-5.43s7.51-1,10.36-4.78,4.75-4.51-.43-11.66-13.71-19.49-14.7-28.51-1.74-25.08,3.87-34.83,19.29-24.7,35.07-33.48S202,75.58,209.7,45.1"
                      transform="translate(-0.02 -0.02)"/>
                <path class="cls-4"
                      d="M180.77,318.05c-4.69-1.53-21.16,22.95-22.49,30.48S134,342.42,134,342.42s-1.77,15.89-2.21,17.71c-.91,3.76,1.28,24.35,14.11,42.79,12.67,18.21,7,30.15,7,30.15a126.84,126.84,0,0,0,28.46,3.53,167.79,167.79,0,0,0,34.16-3.77s-5.32-12.88,8.37-30.88c9.83-12.92,8-23.9,10-36.47a104.94,104.94,0,0,0,.61-27.08s-12.4,11.75-25,11.3c0,0-7.28-14.52-9.75-18a38.44,38.44,0,0,0-18.95-13.63"
                      transform="translate(-0.02 -0.02)"/>
                <path class="cls-4"
                      d="M105.44,265.32c-.2-2.12.28-13.75.57-15.86,1-7.34,4.55-16.78,6.88-18.47a1.85,1.85,0,0,1,1.43-.32c1.34.25,5.61,2.2,6.21,3.86.82,2.26,9.57,28.87,13.11,34.58s15.88,22.86,24,29.3,28,19.5,30,19.5-10.57,6.25-15,11.66-5.41,5.24-10.14,14.84-6.4,11.42-10.24,10.2-16.86-9.78-21.79-17.1c-.88-1.32-1.72-2.6-2.51-3.82C126.8,331.95,114.13,310,114.6,312l-2.95-20.89c-.48-1.62-6.17-10.37-6.32-12Z"
                      transform="translate(-0.02 -0.02)"/>
                <path class="cls-5"
                      d="M248.36,209s3.4.55,4.54.67c7.8.82,15.9-1,23.4-4.85a46,46,0,0,0,7.77-5c19.41-15.42,19.65-42.4,6.34-63.32-8.73-13.74-19.43-34.2-20.64-52.92-.84-12.86,1.66-26.8-5.59-42.55-8.51-18.48-29.6-30.84-48-28.66l-7.65,30.48,7.39,5.45C285.6,108.32,248.36,209,248.36,209"
                      transform="translate(-0.02 -0.02)"/>
                <path class="cls-6"
                      d="M248.36,209s3.4.55,4.54.67c7.8.82,15.9-1,23.4-4.85a46,46,0,0,0,7.77-5c19.41-15.42,19.65-42.4,6.34-63.32-8.73-13.74-19.43-34.2-20.64-52.92-.84-12.86,1.66-26.8-5.59-42.55-8.51-18.48-29.6-30.84-48-28.66l-7.65,30.48,7.39,5.45C285.6,108.32,248.36,209,248.36,209"
                      transform="translate(-0.02 -0.02)"/>
                <path class="cls-5"
                      d="M118.62,234.92s14.69,18.64,36.36,30c12.25,6.4,26.35,10.62,41.54,9.1,2.42-.24,13.59-1.15,22-9.22,11.64-11.2,18-16,21.81-27.71,0,0,1.56,3.76.36,10.27s-9.76,33.17-13.25,38.75-27.56,26.58-38.5,28.8-42-30.63-42-30.63-29.34-38.56-28.25-49.32"
                      transform="translate(-0.02 -0.02)"/>
                <path class="cls-6"
                      d="M118.62,234.92s14.69,18.64,36.36,30c12.25,6.4,26.35,10.62,41.54,9.1,2.42-.24,13.59-1.15,22-9.22,11.64-11.2,18-16,21.81-27.71,0,0,1.56,3.76.36,10.27s-9.76,33.17-13.25,38.75-27.56,26.58-38.5,28.8-42-30.63-42-30.63S117.54,245.69,118.62,234.92Z"
                      transform="translate(-0.02 -0.02)"/>
                <path class="cls-5"
                      d="M120.78,323l3.85,11.7s.92,8.63,2.09,26.36c.47,7-.12,14.73,1.46,21.67A59,59,0,0,0,132.67,396c2.57,5.1,7.19,11.19,8.57,14.18,5.93,12.85,4.4,21.34,4.4,21.34s-31.46-5.62-57.45-17.68c-6.91-3.21-30.82-16.33-52.71-33.95-9.13-7.35-26.25-28.67-26.25-28.67s14-25.23,27.89-33.9,19.47-13,24.89-21c2-2.92,11.32-21.78,11.32-21.78s18.36-26.25,23.39-30.76,8.29-8.69,11.81-8.88c4.27-.24-9.32,1.37-3.2,44.16,2.41,16.83,15.45,43.95,15.45,43.95"
                      transform="translate(-0.02 -0.02)"/>
                <path class="cls-6"
                      d="M120.78,323l3.85,11.7s.92,8.63,2.09,26.36c.47,7-.12,14.73,1.46,21.67A59,59,0,0,0,132.67,396c2.57,5.1,7.19,11.19,8.57,14.18,5.93,12.85,4.4,21.34,4.4,21.34s-31.46-5.62-57.45-17.68c-6.91-3.21-30.82-16.33-52.71-33.95-9.13-7.35-26.25-28.67-26.25-28.67s14-25.23,27.89-33.9,19.47-13,24.89-21c2-2.92,11.32-21.78,11.32-21.78s18.36-26.25,23.39-30.76,8.29-8.69,11.81-8.88c4.27-.24-9.32,1.37-3.2,44.16C107.74,295.92,120.78,323,120.78,323Z"
                      transform="translate(-0.02 -0.02)"/>
                <path class="cls-5"
                      d="M245.24,329.38l-2.63,16.21-1.78,14.54c-.13,1-.53,7.72-.51,8.75a63.14,63.14,0,0,1-4.21,23.6c-2,5.35-4.7,8.66-9.41,17.05-7.24,12.9-5.23,18.07-5.62,21.65-.34,3.09,37-9.52,40-10.53,13.15-4.51,8.69-2.28,30.79-14.26,17.67-9.57,37.09-24.15,44.81-31.84,13.27-13.21,16.22-18.08,31.46-37.63,0,0-23.61-24.14-36.9-29.32s-11.13-.62-22.47-12.93-16.13-20.91-16.13-20.91-13-17.62-25.2-26.52c0,0-12.76-10.92-17.55-12.22s6.83,11.3,7.69,27.84c.79,15.18-1.22,49-12.3,66.53"
                      transform="translate(-0.02 -0.02)"/>
                <path class="cls-6"
                      d="M245.24,329.38l-2.63,16.21-1.78,14.54c-.13,1-.53,7.72-.51,8.75a63.14,63.14,0,0,1-4.21,23.6c-2,5.35-4.7,8.66-9.41,17.05-7.24,12.9-5.23,18.07-5.62,21.65-.34,3.09,37-9.52,40-10.53,13.15-4.51,8.69-2.28,30.79-14.26,17.67-9.57,37.09-24.15,44.81-31.84,13.27-13.21,16.22-18.08,31.46-37.63,0,0-23.61-24.14-36.9-29.32s-11.13-.62-22.47-12.93-16.13-20.91-16.13-20.91-13-17.62-25.2-26.52c0,0-12.76-10.92-17.55-12.22s6.83,11.3,7.69,27.84C258.32,278,256.31,311.81,245.24,329.38Z"
                      transform="translate(-0.02 -0.02)"/>
                <path class="cls-4"
                      d="M242.9,230.5l3.84,1.53a114.58,114.58,0,0,1,6.07,16.59c1.89,7.52,3.5,14.46,3.94,22.49s1.86,9.35-.72,21.55-6.79,27.26-11.37,33.77-14.3,18.31-22.23,22.22-12,3.42-12,3.42-1.28,1.7-3.46-3.89-11.07-19-17.14-21.45-7.11-4-7.11-4l1.84-2.77s9.72-4.14,13.66-7.78,21.51-17,25.1-22.37,14.53-24.07,14.77-30.15,5.35-11.19,4.86-29.18"
                      transform="translate(-0.02 -0.02)"/>
                <path class="cls-7" d="M155.71,378.43c14.43,5.53,36.34,9.45,54.6.11"
                      transform="translate(-0.02 -0.02)"/>
                <circle class="cls-7" cx="150.42" cy="377.27" r="4.54"/>
                <circle class="cls-7" cx="215.55" cy="377.27" r="4.54"/>
                <path class="cls-5"
                      d="M175.91,207.39c-9.11,3.81-12.71,7.31-16.82,16.25,0,0,9.52,6.66,25.75,3.25,5.8-1.22,11.63-2.07,17.21-.09,6,2.11,11.73,1.1,21.14-3.14-4.17-9.23-8.18-12.75-17.62-16.52,0,0-4.75,7.4-9.29,6.1l-20.38-5.86"
                      transform="translate(-0.02 -0.02)"/>
                <path class="cls-6"
                      d="M175.91,207.39c-9.11,3.81-12.71,7.31-16.82,16.25,0,0,9.52,6.66,25.75,3.25,5.8-1.22,11.63-2.07,17.21-.09,6,2.11,11.73,1.1,21.14-3.14-4.17-9.23-8.18-12.75-17.62-16.52,0,0-4.75,7.4-9.29,6.1Z"
                      transform="translate(-0.02 -0.02)"/>
                <path class="cls-7"
                      d="M241.36,226.31s16.17,24.38,15.76,52.16c-.26,17.5-6,39.87-15.48,52.51-11.3,15.07-31.75,27.72-35.22,20.22-7.27-15.72-12.72-25.54-26.57-28.25"
                      transform="translate(-0.02 -0.02)"/>
                <path class="cls-8" d="M241.64,228.88s28.72,9,57.2,50.3c25.26,36.6,36.42,17.75,70.74,59.23"
                      transform="translate(-0.02 -0.02)"/>
                <path class="cls-8"
                      d="M112.79,230.26c-7.63,4.51-22.53,13.52-39,39.39-2.81,4.41-11.87,26.75-19,33.61-14.41,13.92-29,16.91-42.93,39.93,0,0-6.73,8.6-9.9,16.93"
                      transform="translate(-0.02 -0.02)"/>
                <path class="cls-9" d="M138.54,141s.39,7.5,5.94,7.67,7.21-3.74,7-7.67"
                      transform="translate(-0.02 -0.02)"/>
                <path class="cls-5"
                      d="M139.12,144.2a5.6,5.6,0,0,1,5.6-5.6c3.09,0,6.64,1.65,6.64,4.74s-3.55,6.47-6.64,6.47a5.6,5.6,0,0,1-5.6-5.6"
                      transform="translate(-0.02 -0.02)"/>
                <path class="cls-10"
                      d="M139.12,144.2a5.6,5.6,0,0,1,5.6-5.6c3.09,0,6.64,1.65,6.64,4.74s-3.55,6.47-6.64,6.47A5.6,5.6,0,0,1,139.12,144.2Z"
                      transform="translate(-0.02 -0.02)"/>
                <path class="cls-9" d="M216.12,141.91s1.49,7.36,7,6.71,6.58-4.76,5.8-8.62"
                      transform="translate(-0.02 -0.02)"/>
                <path class="cls-5"
                      d="M216.12,141.91c0-2.94,4-2.93,6.91-2.93s6.12.06,6.12,3-3.18,7.65-6.12,7.65-6.91-4.78-6.91-7.72"
                      transform="translate(-0.02 -0.02)"/>
                <path class="cls-10"
                      d="M216.12,141.91c0-2.94,4-2.93,6.91-2.93s6.12.06,6.12,3-3.18,7.65-6.12,7.65S216.12,144.85,216.12,141.91Z"
                      transform="translate(-0.02 -0.02)"/>
                <path class="cls-11" d="M166.22,149.49s-19.77-22.58-36.83-2.72" transform="translate(-0.02 -0.02)"/>
                <path class="cls-11" d="M207.39,149.27s14.59-20.91,33.55-3.57" transform="translate(-0.02 -0.02)"/>
                <path class="cls-11"
                      d="M174.48,190c-7.29.65-7.62,13.94-1.94,15.07.67.13,1.52.35,2.51.62,7.48,2.06,20.53,6.59,24.87,5.42a5.21,5.21,0,0,0,3.69-3c1.48-3.09,2.7-10.94,1.89-17.34-2.9-22.68-4.18-29.57-3.94-40,.16-7.11,2.16-10.83,4.36-15,1.34-2.51,4.81-8.33,9.23-10,3.69-1.4,21.06-6.21,32.2,1.68"
                      transform="translate(-0.02 -0.02)"/>
                <path class="cls-11" d="M173.3,131.14s-18-13.75-43.58-3.71" transform="translate(-0.02 -0.02)"/>
                <path class="cls-11" d="M210.5,236.84a82.15,82.15,0,0,1-35.56.74" transform="translate(-0.02 -0.02)"/>
                <path class="cls-12" d="M132.72,343.74c3.06,21.51,0,37,11.15,56.48,4.1,7.14,10.35,12.32,10.35,31.45"
                      transform="translate(-0.02 -0.02)"/>
                <path class="cls-12" d="M236.09,343.74c-3.06,21.51,0,37-11.15,56.48-4.1,7.14-10.35,12.32-10.35,31.45"
                      transform="translate(-0.02 -0.02)"/>
                <path class="cls-8"
                      d="M112.79,217.66c6.43,11.75,24.66,47.4,68,54.06,4.31.66,20.87,1.85,24.82,0,10.6-5,26.5-17.1,40.2-57.21,0,0,39-106.19-30.62-166.2l-7.4-5.45"
                      transform="translate(-0.02 -0.02)"/>
                <path class="cls-4"
                      d="M182.54,8.34C125.28,8.34,77.38,50.78,70.42,106c-.19,1.53-.34,3-.45,4.5-.65,8.65-2.93,15.24-9.29,23.68-7,9.26-12.7,22-12.7,35.49a54,54,0,0,0,.33,6c1.29,12,5.93,16.08,12.07,26.08,7.52,12.24,26.7,18.82,41.67,21.9,12.55,2.58,27.35-2.61,30.57-8.43,1.68-3,1.67-7.18-.27-11.19-3-6.15-9.8-11.41-13.22-17.76-3-5.6-8.09-14.91-6.33-28.56a53.72,53.72,0,0,1,19-34c16-13.18,31.79-15.39,44-24.42,9-6.66,18.15-13.05,25.54-21.37a113.13,113.13,0,0,0,18.65-28.71,112.39,112.39,0,0,0,8.28-26.92,31.13,31.13,0,0,0,.85-6.47A36.71,36.71,0,0,0,213,15c-10.24,2.09-20.16-6.68-30.45-6.68"
                      transform="translate(-0.02 -0.02)"/>
                <path class="cls-5"
                      d="M215.05,12.39a5.21,5.21,0,0,0-1-1.23,5.16,5.16,0,0,0-1.5-.94A112.76,112.76,0,0,0,170,1.94c-57.26,0-105.16,42.44-112.13,97.7-.19,1.53-.34,3-.45,4.5-.65,8.65-2.93,15.23-9.29,23.68-7,9.26-12.7,22-12.7,35.49a54,54,0,0,0,.33,6,55.92,55.92,0,0,0,55.59,49.87c3.1,0,17.3,0,27.19-5.63a5.66,5.66,0,0,0,2-8.12c-6.24-9.19-11.85-15.14-15-24.09A58,58,0,0,1,103,153.92c2.27-14.2,6.92-22.5,15.06-31.35C130.94,108.63,151,102,163.21,92.94c9-6.66,18.15-13.05,25.54-21.37A113.13,113.13,0,0,0,207.4,42.87a112.35,112.35,0,0,0,8.28-26.92v0a5.1,5.1,0,0,0-.63-3.52"
                      transform="translate(-0.02 -0.02)"/>
                <path class="cls-6"
                      d="M215.05,12.39a5.21,5.21,0,0,0-1-1.23,5.16,5.16,0,0,0-1.5-.94A112.76,112.76,0,0,0,170,1.94c-57.26,0-105.16,42.44-112.13,97.7-.19,1.53-.34,3-.45,4.5-.65,8.65-2.93,15.23-9.29,23.68-7,9.26-12.7,22-12.7,35.49a54,54,0,0,0,.33,6,55.92,55.92,0,0,0,55.59,49.87c3.1,0,17.3,0,27.19-5.63a5.66,5.66,0,0,0,2-8.12c-6.24-9.19-11.85-15.14-15-24.09A58,58,0,0,1,103,153.92c2.27-14.2,6.92-22.5,15.06-31.35C130.94,108.63,151,102,163.21,92.94c9-6.66,18.15-13.05,25.54-21.37A113.13,113.13,0,0,0,207.4,42.87a112.35,112.35,0,0,0,8.28-26.92v0A5.1,5.1,0,0,0,215.05,12.39Z"
                      transform="translate(-0.02 -0.02)"/>
                <path class="cls-13"
                      d="M374.63,330.57c-39.07,63.55-110.11,106-191.28,106A224.27,224.27,0,0,1,1.94,345.26"
                      transform="translate(-0.02 -0.02)"/>
                <path class="cls-7"
                      d="M113.76,230.26c-18.64,25.33-1.22,101.21,30.9,121.39.54.34,11.35,6.29,13.69.27,5.73-14.75,12.54-24.34,29-35.49"
                      transform="translate(-0.02 -0.02)"/>
                <path class="cls-7" d="M241.64,228.88s0,65.63-54.24,87.55c0,0-52.28-19.63-71-85.7"
                      transform="translate(-0.02 -0.02)"/>
            </g>
        </g>
    </g>
</svg>