<svg xmlns="http://www.w3.org/2000/svg" viewBox="0 0 204.49 70.62"><defs><style>.cls-1{fill:#020608;}</style></defs><title>Yoy_logo_3.1</title><g id="Слой_2" data-name="Слой 2"><g id="Слой_2-2" data-name="Слой 2"><path class="cls-1" d="M101.95,13.09a4.93,4.93,0,0,0,1.94,1.29,8.21,8.21,0,0,0,2.53.5,14.54,14.54,0,0,0,2.76-.13,14.57,14.57,0,0,0,2.79-.68,7.91,7.91,0,0,0,2.27-1.21,5,5,0,0,0,1.45-1.79,4.11,4.11,0,0,0,.3-2.4,3.68,3.68,0,0,0-.32-1.08,2.68,2.68,0,0,0-.65-.86,2.48,2.48,0,0,0-1-.52,3.13,3.13,0,0,0-1.3-.06,2.67,2.67,0,0,0-1.92,1,2.39,2.39,0,0,0-.42,1.77,2.25,2.25,0,0,0,.27.79,2.11,2.11,0,0,0,.55.64,2.22,2.22,0,0,0,.78.4,2.28,2.28,0,0,0,.95,0A3,3,0,0,1,111.44,12a9.82,9.82,0,0,1-2.54.69q-3.22.46-4.46-.72a2.48,2.48,0,0,0,.94-.32,2,2,0,0,0,.64-.6,2.28,2.28,0,0,0,.37-1.61,2.38,2.38,0,0,0-.91-1.58,2.69,2.69,0,0,0-2.13-.42,2.66,2.66,0,0,0-2,1.13,3.09,3.09,0,0,0-.43,2.2A4.13,4.13,0,0,0,101.95,13.09Z"/><path class="cls-1" d="M125.38,34.14q-2.71.39-2.91-1l-2.09-14.67q-.2-1.39,2.51-1.77l-.35-2.47-11.18,1.6.35,2.47q2.32-.33,2.52,1.05l.06.45-7.24,10.75-1.44-10q-.2-1.39,2.18-1.73l-.35-2.47L96.26,18l.35,2.47q2.68-.38,2.88,1l2.09,14.67q.2,1.39-2.48,1.77l.35,2.47,11.18-1.6-.35-2.47q-2.38.34-2.58-1l0-.33,7.26-10.75L116.32,34q.2,1.39-2.12,1.72l.35,2.47,11.18-1.6Z"/><path class="cls-1" d="M142.89,22.19a6.38,6.38,0,0,0-2.17-2.26,6.77,6.77,0,0,0-2.87-.93,13.78,13.78,0,0,0-3.31.09q-8.68,1.24-7.46,9.8a9.66,9.66,0,0,0,1.23,3.77,6.2,6.2,0,0,0,2.17,2.15,6.93,6.93,0,0,0,2.84.87,14,14,0,0,0,3.26-.1q4.22-.6,6.17-3t1.36-6.5A10.49,10.49,0,0,0,142.89,22.19Zm-4.35,9.12a2.57,2.57,0,0,1-2.26,1.61,3.42,3.42,0,0,1-1.37,0,2,2,0,0,1-1-.79,6,6,0,0,1-.81-1.79,21.31,21.31,0,0,1-.62-3,7.38,7.38,0,0,1,.22-4,2.7,2.7,0,0,1,2.23-1.5,3.13,3.13,0,0,1,1.3.06,2.09,2.09,0,0,1,1,.74,5.29,5.29,0,0,1,.82,1.65,16.83,16.83,0,0,1,.6,2.79A9.37,9.37,0,0,1,138.53,31.31Z"/><path class="cls-1" d="M167,13.64a9,9,0,0,0-2.83-3.27,8.88,8.88,0,0,0-3.83-1.44,16.58,16.58,0,0,0-4.59.06,15.34,15.34,0,0,0-5.21,1.59,9.06,9.06,0,0,0-3.26,2.91,9.71,9.71,0,0,0-1.5,4.12,18.67,18.67,0,0,0,.08,5.18A15,15,0,0,0,147.45,28a8.75,8.75,0,0,0,2.81,3.13,9,9,0,0,0,3.81,1.38,16.81,16.81,0,0,0,4.57-.07,15,15,0,0,0,5.05-1.55A9.65,9.65,0,0,0,167,28a9.54,9.54,0,0,0,1.63-4,15.85,15.85,0,0,0,0-5A16.22,16.22,0,0,0,167,13.64ZM162.87,24a6.84,6.84,0,0,1-.63,2.69,3.9,3.9,0,0,1-1.54,1.67,6.88,6.88,0,0,1-2.51.8,5.67,5.67,0,0,1-2.15-.08,3.47,3.47,0,0,1-1.81-1.17,8.34,8.34,0,0,1-1.43-2.7,25.25,25.25,0,0,1-1-4.66q-.57-4,.58-6a5.17,5.17,0,0,1,4-2.4,5.48,5.48,0,0,1,2.1.08,3.57,3.57,0,0,1,1.79,1.13,7.73,7.73,0,0,1,1.4,2.51,21.23,21.23,0,0,1,1,4.24A19.84,19.84,0,0,1,162.87,24Z"/><path class="cls-1" d="M191.8,23.28l-1.1-7.72q-.2-1.38,2.36-1.75l-.34-2.41-9.79,1.4.34,2.41a2.06,2.06,0,0,1,1.3.17,1.22,1.22,0,0,1,.62,1v.06l-5.54,6-.74-5.15a1.22,1.22,0,0,1,.32-1.11,2.07,2.07,0,0,1,1.2-.53l-.34-2.41-9.79,1.4.34,2.41q2.56-.37,2.76,1l1.1,7.72q.22,1.35-2.37,1.72l.35,2.47,9.79-1.4-.35-2.47q-1.72.25-1.91-1.1v-.09l5.55-5.93.73,5.13q.19,1.35-1.53,1.6l.35,2.47,9.79-1.4-.35-2.47Q191.93,24.64,191.8,23.28Z"/><path class="cls-1" d="M174.95,9.22a4.4,4.4,0,0,0,1.68,1.13,7,7,0,0,0,2.18.44,12.46,12.46,0,0,0,2.4-.11,12.25,12.25,0,0,0,2.41-.59,7.17,7.17,0,0,0,2-1,4.18,4.18,0,0,0,1.25-1.55,3.61,3.61,0,0,0,.26-2.08,2.87,2.87,0,0,0-.84-1.68,2.21,2.21,0,0,0-2-.5,2.34,2.34,0,0,0-1.65.85A2.06,2.06,0,0,0,183,6.89a1.71,1.71,0,0,0,1.48.37,2.47,2.47,0,0,1-1.29,1.08,8.66,8.66,0,0,1-2.22.59q-2.83.4-3.87-.62a1.74,1.74,0,0,0,1.37-.78,2.05,2.05,0,0,0,.32-1.43A2,2,0,0,0,178,4.74a2.34,2.34,0,0,0-1.82-.35,2.27,2.27,0,0,0-1.7,1,2.69,2.69,0,0,0-.38,1.88A3.52,3.52,0,0,0,174.95,9.22Z"/><path class="cls-1" d="M202.34,18.51q-.26-3.31-.24-5.44t.13-3.52q.11-1.4.19-2.33a8.14,8.14,0,0,0-.05-1.87,2.57,2.57,0,0,0-1.1-2A3.51,3.51,0,0,0,198.93,3a3.8,3.8,0,0,0-2.25,1,2.59,2.59,0,0,0-.49,2.27,7.42,7.42,0,0,0,.49,1.79q.35.86.83,2.17t1.08,3.35q.6,2,1.22,5.3Z"/><path class="cls-1" d="M204.46,22.79a2.75,2.75,0,0,0-3.1-2.33,2.71,2.71,0,0,0-1.86,1.08,2.63,2.63,0,0,0-.52,2,2.75,2.75,0,0,0,3.17,2.38,2.63,2.63,0,0,0,1.8-1.07A2.7,2.7,0,0,0,204.46,22.79Z"/><path class="cls-1" d="M110.13,49.94c.56-.26,1.49-.74,1.46-2.92a4.69,4.69,0,0,1,.76-3.17l-2.43.35a4.41,4.41,0,0,0-.68,2.85c0,1.6-.14,2.19-2.05,2.46l-1.24.18-.69-4.82-2.34.33,1.79,12.52,2.34-.33-.82-5.75,1.31-.19c2.09-.3,2.74.53,3.14,2.12a7.71,7.71,0,0,0,1.26,3.11l2.55-.36a8.54,8.54,0,0,1-1.74-3.84C112.21,50.29,111.25,50,110.13,49.94Z"/><path class="cls-1" d="M122.63,48.4c-.22-1.56-1.48-2.36-4.08-2-3.72.53-3.52,2.82-3.48,3.41l2.18-.18c-.07-.46,0-1.36,1.6-1.59,1.33-.19,1.62.44,1.71,1.11a20.1,20.1,0,0,1-2.64,1c-1.64.54-3,1.52-2.73,3.45.21,1.49,1.59,2.54,3.61,2.25a4.37,4.37,0,0,0,2.48-1.28l.15.68L124,55a2.09,2.09,0,0,1-.6-1.38ZM119,54c-1.06.15-1.53-.29-1.61-.87-.13-.89.82-1.22,1.78-1.5a5.56,5.56,0,0,0,1.61-.74l.17,1.19C121.15,53.21,120,53.88,119,54Z"/><path class="cls-1" d="M131.27,49.09A2,2,0,0,0,132.33,47c-.27-1.88-1.81-2-3.44-1.79l-4.31.62,1.27,8.87,4.72-.67c2.34-.33,2.92-1.56,2.73-2.91A2.18,2.18,0,0,0,131.27,49.09Zm-4.33-2,1.81-.26c1.15-.16,1.42.2,1.49.69s0,1-1.35,1.21L127.2,49Zm2.57,5.42-1.76.25-.32-2.27,1.77-.25c.89-.13,1.77-.16,1.92.89S130.67,52.38,129.5,52.54Z"/><path class="cls-1" d="M142.17,45.62c-.22-1.56-1.48-2.36-4.08-2-3.72.53-3.52,2.82-3.48,3.41l2.18-.19c-.07-.46,0-1.35,1.6-1.59,1.33-.19,1.62.44,1.71,1.11a20.15,20.15,0,0,1-2.64,1c-1.64.54-3,1.52-2.73,3.45.21,1.49,1.59,2.54,3.62,2.25a4.37,4.37,0,0,0,2.48-1.28l.15.68,2.52-.36a2.09,2.09,0,0,1-.6-1.38Zm-3.6,5.62c-1.06.15-1.52-.29-1.61-.87-.13-.89.82-1.22,1.78-1.5a5.54,5.54,0,0,0,1.61-.74l.17,1.19C140.68,50.42,139.55,51.09,138.57,51.23Z"/><rect class="cls-1" x="60.67" y="49.08" width="3.81" height="3.81"/><rect class="cls-1" x="53.04" y="49.08" width="3.81" height="3.81"/><rect class="cls-1" x="45.41" y="49.08" width="3.81" height="3.81"/><rect class="cls-1" x="37.78" y="49.08" width="3.81" height="3.81"/><rect class="cls-1" x="68.29" y="37.64" width="3.81" height="3.81"/><rect class="cls-1" x="60.67" y="37.64" width="3.81" height="3.81"/><rect class="cls-1" x="53.04" y="37.64" width="3.81" height="3.81"/><rect class="cls-1" x="45.41" y="37.64" width="3.81" height="3.81"/><rect class="cls-1" x="75.92" y="26.19" width="3.81" height="3.81"/><rect class="cls-1" x="68.29" y="26.19" width="3.81" height="3.81"/><rect class="cls-1" x="56.85" y="52.89" width="3.81" height="3.81"/><rect class="cls-1" x="49.22" y="52.89" width="3.81" height="3.81"/><rect class="cls-1" x="41.59" y="52.89" width="3.81" height="3.81"/><rect class="cls-1" x="72.11" y="41.45" width="3.81" height="3.81"/><rect class="cls-1" x="64.48" y="41.45" width="3.81" height="3.81"/><rect class="cls-1" x="56.85" y="41.45" width="3.81" height="3.81"/><rect class="cls-1" x="49.22" y="41.45" width="3.81" height="3.81"/><rect class="cls-1" x="41.59" y="41.45" width="3.81" height="3.81"/><rect class="cls-1" x="33.96" y="41.45" width="3.81" height="3.81"/><rect class="cls-1" x="26.33" y="41.45" width="3.81" height="3.81"/><rect class="cls-1" x="72.11" y="30.01" width="3.81" height="3.81"/><rect class="cls-1" x="64.48" y="30.01" width="3.81" height="3.81"/><path class="cls-1" d="M91.05,3.7C87.47.66,84.19-.92,79,.57a14.93,14.93,0,0,0-3.8,2C71.63,5,68,10.85,65.57,15.27a1.24,1.24,0,0,0-.11.29c-.64,1.18-1.27,2.38-1.87,3.58a27.06,27.06,0,0,1-4.1,6c-1.35-3.7-4.45-10.46-9.77-13.4-7.51-4.16-14.36-3.22-16.62.86S33.67,23,41.19,27.13c4.52,2.5,10.51,2.19,14.58,1.54A40.77,40.77,0,0,1,49,33.13,32.52,32.52,0,0,1,24.73,36a6,6,0,0,0-3.53-9.6,6,6,0,0,0-11-4.27,6,6,0,0,0-8,8.76,6,6,0,0,0,6.43,10,6,6,0,0,0,10.22,1.81C24.1,50.06,33.37,59.72,47,61l-1.43,4.19A16.07,16.07,0,0,0,43.16,65a1.31,1.31,0,0,0-1.3,1.32,1.34,1.34,0,0,0,1.32,1.3A11.59,11.59,0,0,1,51,70.31a1.31,1.31,0,0,0,1.67-2,13.89,13.89,0,0,0-4.5-2.51l1.59-4.65h.35a36.53,36.53,0,0,0,8.52-1c.88-.21,1.77-.46,2.67-.74l2.87,6.55a16.45,16.45,0,0,0-1.9,1.53A1.31,1.31,0,0,0,64,69.36,11.72,11.72,0,0,1,71.58,66a1.31,1.31,0,1,0-.13-2.62,13.83,13.83,0,0,0-5,1.2l-2.67-6.1.91-.34A30.34,30.34,0,0,0,79.91,45c4.3-7.63,4.44-13.09,4.68-22.13v-.32s0,0,0-.07a1.26,1.26,0,0,0,0-.27l0-1.86A16.39,16.39,0,0,1,90.68,8,2.89,2.89,0,0,0,92,5.75,2.51,2.51,0,0,0,91.05,3.7ZM15.86,32.41a3.66,3.66,0,1,1-.14-1.59A3.67,3.67,0,0,1,15.86,32.41ZM81.67,30H79.74v3.81h1.48a27.8,27.8,0,0,1-1.48,5.46V37.64H75.92v3.81H78.8c-.35.74-.74,1.49-1.18,2.27a26.76,26.76,0,0,1-5.52,6.82V49.08H68.29v3.81h.76c-.25.17-.5.34-.76.51v-.51H64.48V55.4c-.26.11-.51.24-.77.35A42.94,42.94,0,0,1,58,57.57a33.47,33.47,0,0,1-10,.91l-.13,0v0a29.48,29.48,0,0,1-10.12-2.54v-3H34v1c-.51-.31-1-.66-1.5-1H34V49.08H30.15v2.09A43.36,43.36,0,0,1,26.61,48a49.07,49.07,0,0,1-4.09-4.75V41.45h-1.3c-.37-.53-.73-1.05-1.06-1.55a5.93,5.93,0,0,0,.06-1.69,6,6,0,0,0,1.72-.3c.5.16,1,.31,1.49.46l-.92-.27v3.35h3.81V39.1l-.69-.16a35.4,35.4,0,0,0,5.14.77l-.63,0v1.79H34V39.8H33a33.6,33.6,0,0,0,4.81-.31h-.07v2h3.81V38.76a39,39,0,0,0,8.58-3.31A43.68,43.68,0,0,0,57.1,31l-.25.2v2.66h3.81V30H58.25l-.32.27a35.6,35.6,0,0,0,3-2.81l-.23.26V30h3.81V26.19H62l-.1.11a30.13,30.13,0,0,0,2.89-4l0,.07h3.5V19.09A23.1,23.1,0,0,0,72.2,21.5l-.09,0v.88h2a22.75,22.75,0,0,0,7.82,1.52C81.88,26.13,81.81,28.14,81.67,30Zm-.5-21.55a2.36,2.36,0,1,1,1.51-3A2.36,2.36,0,0,1,81.17,8.45Z"/></g></g></svg>