<svg xmlns="http://www.w3.org/2000/svg" viewBox="0 0 658.16 501.98"><defs><style>.cls-1{fill:#dadbdb;}.cls-2,.cls-3{fill:none;}.cls-3{stroke:#73a7c8;stroke-miterlimit:10;stroke-width:0.5px;stroke-dasharray:3;}</style></defs><title>Yoy_logo_grid</title><g id="Слой_2" data-name="Слой 2"><g id="Слой_1-2" data-name="Слой 1"><path class="cls-1" d="M449.51,175.85c-17.19-14.58-32.89-22.18-58-15.05-6.44,1.86-14.47,6.84-18.2,9.48-16.93,12-34.34,39.81-46,61a6,6,0,0,0-.57,1.53c-3,5.58-6,11.3-8.9,17a129.73,129.73,0,0,1-19.67,28.69c-6.49-17.73-21.33-50.13-46.83-64.26-36-20-68.83-15.43-79.67,4.14s2.73,49.78,38.75,69.74c21.65,12,50.4,10.48,69.89,7.36a195.47,195.47,0,0,1-32.64,21.35c-37.85,19.81-76.77,24.39-116.16,13.81a28.54,28.54,0,0,0-16.87-46,28.52,28.52,0,0,0-52.62-20.47,28.53,28.53,0,0,0-38.24,42,28.54,28.54,0,0,0,30.83,47.71,28.53,28.53,0,0,0,49,8.67c26.7,38.08,76,88.66,149.56,88.66,2,0,3.95,0,5.95-.12l-1.35,31.3a53.91,53.91,0,0,0-16.15,7L248.39,500c14.14-8.89,28.26-8.23,43.17,2l7.11-10.34q-14.15-9.73-28.21-10.45l1.34-31.05a197.3,197.3,0,0,0,44.8-10.68l12.68,31a53.91,53.91,0,0,0-11.76,13.07L328,490.39c9.13-14,22.22-19.28,40.07-16.2l2.14-12.37q-16.93-2.93-30,2.29l-12-29.32c29.3-13.15,52.68-34.12,67.82-61,20.63-36.57,21.3-62.73,22.41-106.06l0-1.22a6.23,6.23,0,0,0,0-2l.24-8.9c.78-27,15.1-49.28,29-59.35,5.23-3.8,6.45-7.91,6.55-10.69C454.36,183.1,453.62,179.33,449.51,175.85ZM76.85,329.11a17.65,17.65,0,1,1,11.31-22.26A17.65,17.65,0,0,1,76.85,329.11Zm93.77,19.74h0ZM334,417.94l.42-.24Zm71.75-141.69-6.16-2.93-21.44,31.58-34.48-16.37L322.2,320.12l-32.92-15.63q-2.25,1.86-4.52,3.61l-18.48,27.23-14-6.65q-7.29,3.75-14.63,6.81l32.93,15.64L292,319.54l34.49,16.37,21.43-31.58,34.48,16.37,21.44-31.58,1.4.67c-.35,8.13-.86,15.59-1.73,22.7l-4-1.89-21.44,31.58-34.48-16.37L322.2,357.39,287.71,341,266.28,372.6,231.8,356.23l-21.43,31.58-34.48-16.37-20.46,30.14q4.85,4.05,9.81,7.67l14.94-22,34.48,16.37L236.1,372l34.48,16.37L292,356.82l34.49,16.37,21.43-31.58L382.41,358l17.43-25.68a144.92,144.92,0,0,1-14.69,35.37,128,128,0,0,1-7.43,11.6l-34.09-16.19L322.2,394.66l-34.49-16.37-21.43,31.58L231.8,393.5l-21.43,31.58-34.48-16.37-3.66,5.39a149.29,149.29,0,0,0,46.6,20.63l17.26-25.43,34.48,16.37L292,394.08l34.49,16.37,21.43-31.58,21.87,10.39A130.27,130.27,0,0,1,353.35,405l-9.72-4.62-13.2,19.46c-3.88,2-7.87,3.87-12,5.55q-2.82,1.11-5.62,2.12l-25.1-11.92-14.84,21.88c-46.19,6.05-88.31-8.33-125.66-43.05a245.26,245.26,0,0,1-37.48-45,28.44,28.44,0,0,0,.27-8.16c.64,0,1.27-.06,1.9-.11-.61.06-1.23.1-1.85.11a28.42,28.42,0,0,1-.24,8l5.91-8.7q-.69.16-1.4.28a28.8,28.8,0,0,0,3.93-1,173.88,173.88,0,0,0,47.76,8.9l-11.54,17L120,349.37l-5.12,7.55c2.42,3.44,5,7,7.84,10.57l1.58-2.32,34.47,16.37L180.19,350l34.48,16.37,20.16-29.7-1.2.46A198.47,198.47,0,0,0,253.55,328c24.34-12.74,57.21-35.67,75.59-72.54,1.77-3.54,3.58-7.08,5.42-10.58l0,0c-1.84,3.49-3.65,7-5.41,10.55-1,2-2,3.86-3,5.74l.35.17,10.05-14.81q3.27,2.76,6.72,5.24L322.2,282.85l-8-3.79q-4,5.14-8.34,9.8l20.61,9.78,21.43-31.58,34.48,16.37,8.31-12.24a109.52,109.52,0,0,0,15.1,1.27Q405.76,274.38,405.71,276.25ZM112.37,341.09c.48-.05,1-.12,1.43-.19Q113.09,341,112.37,341.09Zm62.36,7.76h0Zm4.35-.12.75,0Zm4.36-.24.86-.06Zm4.35-.36.95-.1Zm4.34-.47,1-.13Zm4.32-.59,1.14-.17Zm4.28-.7q7.61-1.35,15.18-3.41l-.52.15-5,7.42-9-4.26Zm16.85-3.89q2.65-.75,5.29-1.6Q220.23,341.74,217.59,342.49Zm7-2.14c.83-.27,1.66-.57,2.49-.85C226.25,339.78,225.42,340.07,224.59,340.35Zm4.54-1.57,2.43-.9Zm154.78-68.87.74.16Zm3.59.73.24,0Zm14.63-72a11.3,11.3,0,1,1,7.24-14.25A11.3,11.3,0,0,1,402.14,198.62Z"/><path class="cls-1" d="M231.8,430.77l-4,5.86a141.94,141.94,0,0,0,20.74,2.1Z"/><path class="cls-2" d="M331.13,237c-3.39,5.56-1.33,13.21-4.77,19.36-21.7,38.89-56.74,59.68-72.46,67C204,346.59,148.69,348.07,89.12,311.9c0,0,65.68,179.19,229.73,123.38,29.23-10.35,55.29-29.48,72.63-57.13,21.73-34.65,23.31-59.5,26.5-103.55a103.83,103.83,0,0,1-77.77-35.08"/><line class="cls-3" x1="91.89" y1="165.38" x2="538.55" y2="443.09"/><line class="cls-3" x1="658.02" y1="304.24" x2="211.37" y2="26.52"/><line class="cls-3" x1="182.98" y1="459.85" x2="460.69" y2="13.2"/><circle class="cls-3" cx="411.41" cy="223.64" r="64.03"/><circle class="cls-3" cx="518.18" cy="273.1" r="103.61"/><circle class="cls-3" cx="409.73" cy="169.5" r="103.61"/><circle class="cls-3" cx="257.41" cy="197.28" r="103.61"/><circle class="cls-3" cx="254.06" cy="284.33" r="167.64"/><circle class="cls-3" cx="167.89" cy="167.89" r="167.64"/><circle class="cls-3" cx="192.85" cy="300.88" r="103.61"/><circle class="cls-3" cx="209.69" cy="241.37" r="39.58"/><circle class="cls-3" cx="44.21" cy="286.23" r="27.52"/><circle class="cls-3" cx="40.56" cy="329.15" r="27.52"/><circle class="cls-3" cx="81.9" cy="346.4" r="27.52"/><circle class="cls-3" cx="110.36" cy="312.61" r="27.52"/><circle class="cls-3" cx="87.19" cy="276.95" r="27.52"/></g></g></svg>