<?xml version="1.0" encoding="utf-8"?>
<!-- Generator: Adobe Illustrator 21.0.0, SVG Export Plug-In . SVG Version: 6.00 Build 0)  -->
<svg version="1.1" id="Слой_1" xmlns="http://www.w3.org/2000/svg" xmlns:xlink="http://www.w3.org/1999/xlink" x="0px" y="0px"
	 viewBox="0 0 356.4 450" style="enable-background:new 0 0 356.4 437;" xml:space="preserve">
<style type="text/css">
	.st0{clip-path:url(#SVGID_2_);}
	.st1{fill:#067D5F;}
	.st2{fill:none;stroke:#067D5F;stroke-width:4.58;stroke-linecap:round;stroke-miterlimit:10;}
	.st3{fill:#9AC777;}
	.st4{fill:none;stroke:#FFFFFF;stroke-width:4.58;stroke-linecap:round;stroke-miterlimit:10;}
	.st5{fill:#FFFFFF;}
</style>
<title>Yoy_skovoroda</title>
<g>
	<defs>
		<path id="SVGID_1_" d="M272.7,240.9c0,82.2,93.2,25.2,50.1,80.6c-2.6,3.3,36.1,24.9,33.4,28.1C310.3,403.7,247.6,437,178.5,437
			C109,437,46,403.3,0,348.6c-1.5-1.8,46.9-49.5,45.4-51.4c-44.5-55.6,24.3,16.4,24.3-67.3c0-45.7-25.7-81.3-11-120.3
			C98.9,2.6,75-2,178.2-2s74.9,5.5,115.1,112.4C308,149.5,272.7,195.1,272.7,240.9z"/>
	</defs>
	<clipPath id="SVGID_2_">
		<use xlink:href="#SVGID_1_"  style="overflow:visible;"/>
	</clipPath>
	<g class="st0">
		<path class="st1" d="M150.6,4.9C207-8.8,280.4,24.8,272,100.6c-0.8-8.2-1.4-7.7-3.2-13.5c-2.8-8.8-10.2-29.3-31.7-38.3
			c-35.1-14.8-72.9-2.4-86.2,6c-21.5,13.5-32.5,28.5-39,51.6c-0.7,2.5-2.5,4.4-4.9,5.3c-6,2.1-19.5,2-20.6,23.2
			c-0.1,1.1-6.7-16.3-8-27.5C77,95.5,64.8,25.8,150.6,4.9z"/>
		<path class="st1" d="M98.1,249.6c0,0-33.3,37.9-39,44c-13.7,14.7-50.4,36.4-99,107s325,150,420-27c0,0-23.2-35.7-137-95"/>
		<path class="st2" d="M169.4,128.9c0,0,1.4,6.9,6.6,6.3s6.2-4.5,5.5-8.1"/>
		<path class="st1" d="M169.6,127.7c0-2.8,4.5-4.1,7.3-4.1s5-1,5,1.8c0,2.8-3,10.5-5.8,10.5S169.6,130.5,169.6,127.7z"/>
		<path class="st2" d="M238.4,129.8c0,0,0.1,7.1,5.3,7.4s6.9-3.3,6.9-7"/>
		<path class="st1" d="M238.6,128.9c0.5-2.7,5.2-3.2,7.9-2.7s5.1-0.1,4.6,2.7c-0.5,2.8-4.9,9.8-7.6,9.3S238.1,131.6,238.6,128.9z"/>
		<path class="st2" d="M206.9,117.2c-4-12.4-47-21.8-62.3,0"/>
		<path class="st2" d="M271.2,112.2c-5.6-5.9-20-10.1-29.8-4.7c-6.4,3.5-11.1,9.6-11.3,16.9c-0.3,8.9,2.1,17.2,5.7,35.5
			c2,9.4,5.6,21.3-2.8,24.3c-1.4,0.5-11.8-0.3-23.9-2c-2.4-0.4-4.3-2.1-5-4.4c-0.3-1.3-0.3-6,2.5-7.1"/>
		<path class="st2" d="M201.5,135.5c-4.3-4.1-21.4-21.3-41.6-4.1"/>
		<path class="st2" d="M263.2,135.2c0,0-10.3-15.8-32.8-3.9"/>
		<path class="st2" d="M112.1,123c-2.7-3.7-11.6-9.1-19.9-2.9c-9.2,6.8-2.3,33.7,9.1,56.4c5.1,10.1,13.1,10.2,17.8,4.6"/>
		<path class="st2" d="M98.6,135.2c0,0,5,0.8,4.6,5.9s-6.4,9-4.6,13.9s11,10.4,11,10.4"/>
		<path class="st3" d="M231.6,258.8c6.1,8.4,23.2,39.5,29.5,78.8c0.1,0.5-0.3,1-0.8,1.1c-0.2,0-0.4,0-0.6-0.1
			c-4.4-2.4-15.6-6.8-25.3-4.5c-6.1,1.4-15,2.4-22.4,11.3c-3.3,3.9-4.1,9.3-4.1,15.9c0,0.3,0,0.3-0.2,0.1c-1.5-1.7-3.1-9.1-2.7-15.3
			c0.6-9.5,1.6-16,8.6-32.6s11.9-40.2,13.8-54.1C227.7,257.8,230.7,257.6,231.6,258.8z"/>
		<path class="st4" d="M231.6,258.8c6.1,8.4,23.2,39.5,29.5,78.8c0.1,0.5-0.3,1-0.8,1.1c-0.2,0-0.4,0-0.6-0.1
			c-4.4-2.4-15.6-6.8-25.3-4.5c-6.1,1.4-15,2.4-22.4,11.3c-3.3,3.9-4.1,9.3-4.1,15.9c0,0.3,0,0.3-0.2,0.1c-1.5-1.7-3.1-9.1-2.7-15.3
			c0.6-9.5,1.6-16,8.6-32.6s11.9-40.2,13.8-54.1C227.7,257.8,230.7,257.6,231.6,258.8z"/>
		<path class="st3" d="M111.7,214.9c0,0-26.1,15.5-8.5,47.2c18.2,32.7,45.5,80.5,55.9,100.3c0.3,0.7,1.1,1.1,1.9,0.8
			c0.2-0.1,0.4-0.2,0.6-0.4c2.8-3.5,9.4-11.8,23.2-13.1c15.7-1.6,23.6,13.1,23.3,12c-4.1-16.1-9.9-16.7-36.7-42.9
			c-28.1-27.4-62.6-72.4-61.8-94.7L111.7,214.9z"/>
		<path class="st5" d="M254.5,471.1c-9.1-39-30.2-82.2-51.6-112.3l6.6-1.8c21.4,30.1,43.4,74.3,52.5,113.2"/>
		<path class="st1" d="M192,211.6c-0.7,0.1-0.4,1.4,0.3,1.5c6.6,0.8,17.6-3.1,22.6-1c5.5,2.3,10.4,2.8,15.1,0c1.8-1,6.9-1.4,9.7,1.1
			c0.4,0.2,0.9,0.2,1.3,0.1c0.4-0.2,0.6-0.6,0.5-0.7c-2.9-3.2-8.8-10.2-13.4-8.4c-4.3,1.7-5.6,2.5-11.2-0.3
			C212,201.3,203.2,209.5,192,211.6z"/>
		<path class="st2" d="M209.7,231.9c0,0,11.3-3.7,19.4,0"/>
		<path class="st5" d="M113,202.5c0,0,0,16.9-3.4,21.5s15.2,41,27.9,56.5s61,63.9,61,63.9l6.3,8.4c0,0,0.9-16.9,3.3-24.1
			s9.9-26.9,9.9-26.9l5.5-20.6l3.6-19l0.4-2.9c0,0-1.5,4.1-26-1.3c-25.7-5.7-29.9-8.9-41.6-14.2C140.1,234.7,113,202.5,113,202.5z"
			/>
		<path class="st2" d="M112.1,188.7c11.1,41.2,66.3,60.8,75.3,63.8c7.7,2.6,16.1,6.4,31.7,6.4c12.3,0,22-7,24.9-12.7
			c1.7-3.4,7.9-10.9,9.6-15.2c17-41.3,23-96.7,18.1-130c-0.6-4.6-1.6-9.1-3-13.6c-2.8-8.8-10.2-29.3-31.7-38.4
			c-35.1-14.8-72.9-2.4-86.2,6c-21.5,13.5-32.5,28.5-39,51.6c-0.7,2.5-2.5,4.4-4.9,5.3c-6,2.1-19.5,2-20.6,23.2
			c-0.1,1.1-6.7-16.3-8-27.5C77,95.8,64.7,26.1,150.5,5.2C207-8.5,280.4,25.1,272,100.9"/>
		<path class="st2" d="M111.7,186.4c0,0,4.2,38.3,2,40.6"/>
		<polygon class="st5" points="145.7,55.1 147.3,67.2 154.8,61.5 		"/>
		<polygon class="st5" points="197.2,36.4 193.1,49.6 205.1,47.7 		"/>
		<polygon class="st5" points="166.3,45.3 164.7,57.3 175.9,52.7 		"/>
		<polygon class="st5" points="245.9,49.1 236.3,56.6 247.6,61.1 		"/>
		<polygon class="st5" points="255.3,58.5 245.7,66.1 257,70.6 		"/>
		<path class="st4" d="M109.6,217.3c0,0-24,13.3-6.4,45c18.2,32.7,45.5,80.5,55.9,100.3c0.3,0.7,1.1,1.1,1.9,0.8
			c0.2-0.1,0.4-0.2,0.6-0.4c2.8-3.5,9.4-11.8,23.2-13.1c15.7-1.6,23.6,13.1,23.3,12c-4.1-16.1-9.9-16.7-36.7-42.9
			c-28.1-27.4-62.6-72.4-61.8-94.7L109.6,217.3z"/>
	</g>
</g>
</svg>
