<?xml version="1.0" encoding="utf-8"?>
<!-- Generator: Adobe Illustrator 21.0.0, SVG Export Plug-In . SVG Version: 6.00 Build 0)  -->
<svg version="1.1" id="Слой_1" xmlns="http://www.w3.org/2000/svg" xmlns:xlink="http://www.w3.org/1999/xlink" x="0px" y="0px"
	 viewBox="0 0 204.5 70.6" style="enable-background:new 0 0 204.5 70.6;" xml:space="preserve">
<style type="text/css">
	.st0{fill:#020608;}
	.st1{fill:#A1CDEB;}
	.st2{fill:#C92A39;}
</style>
<title>Yoy_logo_3</title>
<path class="st0" d="M114.9,24.2l-7.3,10.7v0.3c0.1,0.9,1,1.3,2.6,1l0.3,2.5l-11.2,1.6l-0.3-2.5c1.8-0.3,2.6-0.8,2.5-1.8l-2-14.6
	c-0.1-0.9-1.1-1.3-2.9-1L96.3,18l11.2-1.6l0.3,2.5c-1.6,0.2-2.3,0.8-2.2,1.7l1.4,10l7.2-10.8l-0.1-0.5c-0.1-0.9-1-1.3-2.5-1
	l-0.3-2.5l11.2-1.6l0.3,2.5c-1.8,0.3-2.6,0.9-2.5,1.8l2.1,14.7c0.1,0.9,1.1,1.3,2.9,1l0.3,2.5l-11.2,1.6l-0.3-2.5
	c1.5-0.2,2.3-0.8,2.1-1.7L114.9,24.2z M109.2,14.8c-0.9,0.1-1.8,0.2-2.8,0.1c-0.9,0-1.7-0.2-2.5-0.5c-0.7-0.3-1.4-0.7-1.9-1.3
	c-0.6-0.6-0.9-1.4-1-2.3c-0.1-0.8,0-1.5,0.4-2.2c0.5-0.7,1.2-1.1,2-1.1c0.7-0.2,1.5,0,2.1,0.4c0.5,0.4,0.8,1,0.9,1.6
	c0.1,0.6,0,1.1-0.4,1.6c-0.2,0.2-0.4,0.4-0.6,0.6c-0.3,0.2-0.6,0.3-0.9,0.3c0.8,0.8,2.3,1,4.5,0.7c0.9-0.1,1.7-0.3,2.5-0.7
	c0.6-0.2,1.2-0.7,1.5-1.3c-0.3,0.1-0.6,0.1-0.9,0c-0.3-0.1-0.5-0.2-0.8-0.4c-0.2-0.2-0.4-0.4-0.6-0.6c-0.1-0.2-0.2-0.5-0.3-0.8
	c-0.1-0.6,0.1-1.3,0.4-1.8c0.5-0.6,1.2-1,1.9-1c0.4-0.1,0.9-0.1,1.3,0.1c0.4,0.1,0.7,0.3,1,0.5c0.3,0.2,0.5,0.5,0.7,0.9
	c0.1,0.3,0.2,0.7,0.3,1c0.1,0.8,0,1.6-0.3,2.4c-0.3,0.7-0.8,1.3-1.4,1.8c-0.7,0.5-1.4,0.9-2.3,1.2C111.1,14.4,110.1,14.6,109.2,14.8
	L109.2,14.8z"/>
<path class="st0" d="M144.1,26.1c0.4,2.7-0.1,4.9-1.4,6.5c-1.3,1.6-3.4,2.6-6.2,3c-1.1,0.2-2.2,0.2-3.3,0.1c-1-0.1-2-0.4-2.8-0.9
	c-0.9-0.5-1.6-1.3-2.2-2.2c-0.7-1.2-1.1-2.4-1.2-3.8c-0.8-5.7,1.7-9,7.5-9.8c1.1-0.2,2.2-0.2,3.3-0.1c1,0.1,2,0.4,2.9,0.9
	c0.9,0.6,1.6,1.3,2.2,2.3C143.6,23.4,144,24.7,144.1,26.1z M134.9,21.8c-1,0.1-1.8,0.6-2.2,1.5c-0.4,1.3-0.5,2.7-0.2,4
	c0.1,1,0.3,2,0.6,3c0.2,0.6,0.4,1.2,0.8,1.8c0.2,0.4,0.6,0.6,1,0.8c0.5,0.1,0.9,0.1,1.4,0c1,0,1.9-0.7,2.3-1.6
	c0.4-1.4,0.4-2.9,0.1-4.3c-0.1-0.9-0.3-1.9-0.6-2.8c-0.2-0.6-0.5-1.2-0.8-1.6c-0.3-0.3-0.6-0.6-1-0.7
	C135.7,21.7,135.3,21.7,134.9,21.8L134.9,21.8z"/>
<path class="st0" d="M155.8,9c1.5-0.2,3.1-0.3,4.6-0.1c1.4,0.2,2.7,0.7,3.8,1.4c1.2,0.8,2.2,2,2.8,3.3c0.9,1.7,1.4,3.5,1.6,5.4
	c0.3,1.7,0.3,3.3,0,5c-0.2,1.4-0.8,2.8-1.6,4c-0.9,1.2-2,2.2-3.3,2.8c-1.6,0.8-3.3,1.3-5.1,1.5c-1.5,0.2-3.1,0.3-4.6,0.1
	c-1.4-0.2-2.7-0.6-3.8-1.4c-1.2-0.8-2.1-1.8-2.8-3.1c-0.8-1.6-1.4-3.4-1.6-5.2c-0.3-1.7-0.3-3.5-0.1-5.2c0.2-1.5,0.7-2.9,1.5-4.1
	c0.8-1.2,2-2.2,3.3-2.9C152.2,9.8,153.9,9.2,155.8,9z M156.4,12.2c-1.6,0.1-3.1,1-4,2.4c-0.8,1.3-1,3.3-0.6,6c0.2,1.6,0.5,3.1,1,4.7
	c0.3,1,0.8,1.9,1.4,2.7c0.5,0.6,1.1,1,1.8,1.1c0.7,0.2,1.4,0.2,2.1,0.1c0.9-0.1,1.7-0.4,2.5-0.8c0.7-0.4,1.2-1,1.5-1.7
	c0.4-0.8,0.6-1.8,0.6-2.7c0-1.3,0-2.6-0.2-3.9c-0.2-1.4-0.5-2.9-1-4.2c-0.3-0.9-0.8-1.8-1.4-2.5c-0.5-0.5-1.1-0.9-1.8-1.1
	C157.7,12.1,157,12.1,156.4,12.2L156.4,12.2z"/>
<path class="st0" d="M180.1,13.2l0.3,2.4c-0.4,0-0.9,0.2-1.2,0.5c-0.3,0.3-0.4,0.7-0.3,1.1l0.7,5.1l5.5-6v-0.1c0-0.4-0.3-0.8-0.6-1
	c-0.4-0.2-0.9-0.3-1.3-0.2l-0.3-2.4l9.8-1.4l0.3,2.4c-1.7,0.2-2.5,0.8-2.4,1.8l1.1,7.7c0.1,0.9,1,1.2,2.8,1l0.4,2.5l-9.8,1.4
	l-0.4-2.5c1.1-0.2,1.7-0.7,1.5-1.6l-0.7-5.1l-5.6,6V25c0.1,0.9,0.8,1.3,1.9,1.1l0.4,2.5l-9.8,1.4l-0.4-2.5c1.7-0.2,2.5-0.8,2.4-1.7
	l-1.1-7.8c-0.1-0.9-1.1-1.3-2.8-1l-0.3-2.4L180.1,13.2z M181.2,10.7c-0.8,0.1-1.6,0.2-2.4,0.1c-0.7,0-1.5-0.2-2.2-0.4
	c-0.6-0.2-1.2-0.6-1.7-1.1c-0.5-0.6-0.8-1.3-0.9-2c-0.1-0.7,0-1.3,0.4-1.9c0.4-0.6,1-0.9,1.7-1c0.6-0.1,1.3,0,1.8,0.3
	c0.4,0.3,0.7,0.8,0.8,1.4c0.1,0.5,0,1-0.3,1.4c-0.3,0.5-0.8,0.8-1.4,0.8c0.7,0.7,2,0.9,3.9,0.6c0.8-0.1,1.5-0.3,2.2-0.6
	c0.5-0.2,1-0.6,1.3-1.1c-0.5,0.1-1.1,0-1.5-0.3c-0.8-0.7-1-1.9-0.3-2.8c0.4-0.5,1-0.8,1.6-0.8c0.7-0.2,1.5,0,2,0.5
	c0.5,0.4,0.8,1,0.8,1.7c0.1,0.7,0,1.4-0.3,2.1c-0.3,0.6-0.8,1.1-1.3,1.5c-0.6,0.4-1.3,0.8-2,1C182.8,10.3,182,10.5,181.2,10.7
	L181.2,10.7z"/>
<path class="st0" d="M199.8,18.9c-0.4-2.2-0.8-3.9-1.2-5.3c-0.4-1.4-0.8-2.5-1.1-3.3c-0.3-0.9-0.6-1.6-0.8-2.2
	c-0.2-0.6-0.4-1.2-0.5-1.8c-0.2-0.8,0-1.6,0.5-2.3c0.6-0.6,1.4-0.9,2.3-1c0.8-0.2,1.6,0,2.3,0.3c0.7,0.5,1.1,1.2,1.1,2
	c0.1,0.6,0.1,1.2,0.1,1.9c-0.1,0.6-0.1,1.4-0.2,2.3c-0.1,0.9-0.1,2.1-0.1,3.5c0,1.4,0.1,3.2,0.2,5.4L199.8,18.9z M204.5,22.8
	c0.1,0.7-0.1,1.5-0.5,2.1c-0.4,0.6-1.1,1-1.8,1.1c-1.5,0.2-2.9-0.8-3.1-2.3c0,0,0,0,0-0.1c-0.1-0.7,0.1-1.4,0.5-2
	c0.4-0.6,1.1-1,1.9-1.1C202.9,20.3,204.3,21.3,204.5,22.8L204.5,22.8z"/>
<path class="st0" d="M104.7,57.7l-1.8-12.5l2.3-0.3l0.7,4.8l1.2-0.2c1.9-0.3,2-0.9,2.1-2.5c-0.1-1,0.1-2,0.7-2.8l2.4-0.3
	c-0.6,0.9-0.9,2.1-0.8,3.2c0,2.2-0.9,2.7-1.5,2.9c1.1,0.1,2.1,0.3,2.6,2.5c0.2,1.4,0.8,2.7,1.7,3.8l-2.6,0.4c-0.6-0.9-1.1-2-1.3-3.1
	c-0.4-1.6-1.1-2.4-3.1-2.1l-1.3,0.2l0.8,5.8L104.7,57.7z"/>
<path class="st0" d="M121.4,55.3l-0.2-0.7c-0.7,0.7-1.5,1.1-2.5,1.3c-2,0.3-3.4-0.8-3.6-2.3c-0.3-1.9,1.1-2.9,2.7-3.5
	c0.9-0.3,1.8-0.6,2.6-1c-0.1-0.7-0.4-1.3-1.7-1.1c-1.6,0.2-1.7,1.1-1.6,1.6l-2.2,0.2c0-0.6-0.3-2.9,3.5-3.4c2.6-0.4,3.9,0.4,4.1,2
	l0.7,5.2c0,0.5,0.2,1,0.6,1.4L121.4,55.3z M120.8,50.9c-0.5,0.3-1,0.6-1.6,0.7c-1,0.3-1.9,0.6-1.8,1.5c0.1,0.6,0.5,1,1.6,0.9
	s2.1-0.8,2-1.9L120.8,50.9z"/>
<path class="st0" d="M128.9,45.2c1.6-0.2,3.2-0.1,3.4,1.8c0.1,0.9-0.3,1.7-1.1,2.1c1.1,0.1,1.9,0.9,2,2c0.2,1.3-0.4,2.6-2.7,2.9
	l-4.7,0.7l-1.3-8.9L128.9,45.2z M127.2,49l1.7-0.2c1.4-0.2,1.4-0.7,1.4-1.2s-0.3-0.9-1.5-0.7l-1.8,0.3L127.2,49z M127.7,52.8
	l1.8-0.3c1.2-0.2,1.8-0.4,1.6-1.4s-1-1-1.9-0.9l-1.8,0.3L127.7,52.8z"/>
<path class="st0" d="M141,52.5l-0.1-0.7c-0.7,0.7-1.5,1.1-2.5,1.3c-2,0.3-3.4-0.8-3.6-2.3c-0.3-1.9,1.1-2.9,2.7-3.5
	c0.9-0.3,1.8-0.6,2.6-1c-0.1-0.7-0.4-1.3-1.7-1.1c-1.6,0.2-1.7,1.1-1.6,1.6l-2.2,0.2c0-0.6-0.3-2.9,3.5-3.4c2.6-0.4,3.9,0.4,4.1,2
	l0.7,5.2c0,0.5,0.2,1,0.6,1.4L141,52.5z M140.4,48.1c-0.5,0.3-1,0.6-1.6,0.7c-1,0.3-1.9,0.6-1.8,1.5c0.1,0.6,0.5,1,1.6,0.9
	s2.1-0.8,2-1.9L140.4,48.1z"/>
<path class="st1" d="M49.7,59.6c-0.7,0-1.3,0-2-0.1h-0.2c-8-0.5-15.3-4.2-21.8-10.8c-2.5-2.5-4.7-5.3-6.6-8.2L19,40.3l0.1-0.3
	c0.1-0.5,0.1-1,0-1.4l-0.1-1h1c0.5,0,1-0.1,1.5-0.3l0.3-0.1l0.3,0.1c9.1,3.1,19.1,2.2,27.5-2.4c5-2.6,11.7-7.3,15.4-14.8l0,0
	c0.4-0.7,0.8-1.5,1.1-2.2l0.5-1l0.8,0.7c4,3.5,9,5.5,14.3,5.5h0.9V24c-0.2,8.6-0.5,13.4-4.4,20.3c-3.2,5.7-8.3,10.1-14.4,12.5
	c-1.9,0.8-3.8,1.4-5.8,1.8C55.3,59.2,52.5,59.6,49.7,59.6z"/>
<path class="st2" d="M68.3,49.1v3.8h0.8c1.1-0.7,2.1-1.5,3-2.3v-1.5H68.3z"/>
<rect x="60.7" y="49.1" class="st2" width="3.8" height="3.8"/>
<rect x="53" y="49.1" class="st2" width="3.8" height="3.8"/>
<rect x="45.4" y="49.1" class="st2" width="3.8" height="3.8"/>
<rect x="37.8" y="49.1" class="st2" width="3.8" height="3.8"/>
<path class="st2" d="M34,49.1h-3.9v2.1c0.8,0.6,1.5,1.2,2.3,1.7H34V49.1z"/>
<path class="st2" d="M75.9,37.6v3.8h2.9c0.3-0.7,0.7-1.5,0.9-2.2v-1.6H75.9z"/>
<rect x="68.3" y="37.6" class="st2" width="3.8" height="3.8"/>
<rect x="60.7" y="37.6" class="st2" width="3.8" height="3.8"/>
<rect x="53" y="37.6" class="st2" width="3.8" height="3.8"/>
<rect x="45.4" y="37.6" class="st2" width="3.8" height="3.8"/>
<path class="st2" d="M41.6,41.5v-2.7c-1.3,0.3-2.5,0.6-3.8,0.7v2L41.6,41.5z"/>
<path class="st2" d="M34,41.5v-1.7c-1.3,0-2.5,0-3.8-0.1v1.8L34,41.5z"/>
<path class="st2" d="M26.3,41.5v-2.4c-1.3-0.3-2.6-0.6-3.8-1v3.3L26.3,41.5z"/>
<rect x="75.9" y="26.2" class="st2" width="3.8" height="3.8"/>
<rect x="68.3" y="26.2" class="st2" width="3.8" height="3.8"/>
<path class="st2" d="M64.5,30v-3.8H62c-0.5,0.5-0.9,1-1.4,1.5V30H64.5z"/>
<path class="st2" d="M64.5,52.9v2.5c1.3-0.6,2.6-1.2,3.8-2v-0.5H64.5z"/>
<rect x="56.8" y="52.9" class="st2" width="3.8" height="3.8"/>
<rect x="49.2" y="52.9" class="st2" width="3.8" height="3.8"/>
<rect x="41.6" y="52.9" class="st2" width="3.8" height="3.8"/>
<path class="st2" d="M34,52.9v1c1.2,0.8,2.5,1.4,3.8,2v-3H34z"/>
<rect x="72.1" y="41.5" class="st2" width="3.8" height="3.8"/>
<rect x="64.5" y="41.5" class="st2" width="3.8" height="3.8"/>
<rect x="56.8" y="41.5" class="st2" width="3.8" height="3.8"/>
<rect x="49.2" y="41.5" class="st2" width="3.8" height="3.8"/>
<rect x="41.6" y="41.5" class="st2" width="3.8" height="3.8"/>
<rect x="34" y="41.5" class="st2" width="3.8" height="3.8"/>
<rect x="26.3" y="41.5" class="st2" width="3.8" height="3.8"/>
<path class="st2" d="M21.2,41.5c0.4,0.6,0.8,1.2,1.3,1.8v-1.8H21.2z"/>
<path class="st2" d="M79.7,33.8h1.5c0.2-1.2,0.3-2.5,0.4-3.8h-1.9V33.8z"/>
<rect x="72.1" y="30" class="st2" width="3.8" height="3.8"/>
<rect x="64.5" y="30" class="st2" width="3.8" height="3.8"/>
<path class="st2" d="M60.7,33.8V30h-2.4c-0.5,0.4-0.9,0.8-1.4,1.1v2.7L60.7,33.8z"/>
<path class="st2" d="M74.2,22.4c-0.7-0.3-1.4-0.5-2-0.9v0.9H74.2z"/>
<path class="st2" d="M68.3,19.1l-0.7-0.5h-0.8c-0.3,0.6-0.6,1.2-0.9,1.8s-0.7,1.4-1.2,2.1h3.5L68.3,19.1z"/>
<path class="st0" d="M91.1,3.7c-3.6-3-6.9-4.6-12.1-3.1c-1.4,0.5-2.6,1.2-3.8,2C71.6,5,68,10.9,65.6,15.3c0,0.1-0.1,0.2-0.1,0.3
	c-0.6,1.2-1.3,2.4-1.9,3.6c-1.1,2.2-2.5,4.2-4.1,6c-1.3-3.7-4.5-10.5-9.8-13.4c-7.5-4.2-14.4-3.2-16.6,0.9s0.6,10.4,8.1,14.5
	c4.5,2.5,10.5,2.2,14.6,1.5c-2.1,1.7-4.4,3.2-6.8,4.5c-7.4,4.1-16.1,5.1-24.3,2.9c2.1-2.6,1.6-6.4-1-8.4c-0.7-0.6-1.6-1-2.5-1.2
	c0.6-3.3-1.5-6.4-4.8-7c-2.4-0.5-4.9,0.6-6.2,2.7c-2.8-1.8-6.5-1.1-8.3,1.7c-1.5,2.2-1.3,5.1,0.3,7.1c-2.5,2.2-2.8,5.9-0.7,8.5
	c1.7,2,4.6,2.7,7.1,1.5c1.1,3.1,4.6,4.7,7.7,3.6c1-0.4,1.9-1,2.5-1.8c5.3,7.4,14.5,17,28.2,18.3l-1.4,4.2C44.8,65.1,44,65,43.2,65
	c-0.7,0-1.3,0.6-1.3,1.3c0,0,0,0,0,0c0,0.7,0.6,1.3,1.3,1.3c2.8-0.1,5.6,0.9,7.8,2.7c0.5,0.5,1.3,0.5,1.9,0c0.5-0.5,0.5-1.3,0-1.9
	c-0.1-0.1-0.1-0.1-0.2-0.2c-1.3-1.1-2.9-2-4.5-2.5l1.6-4.7h0.3c2.9,0,5.7-0.3,8.5-1c0.9-0.2,1.8-0.5,2.7-0.7l2.9,6.5
	c-0.7,0.5-1.3,1-1.9,1.5c-0.4,0.6-0.2,1.4,0.4,1.8c0.4,0.3,0.9,0.3,1.4,0.1c2-2,4.7-3.2,7.6-3.4c0.7,0,1.3-0.7,1.2-1.4
	c0-0.7-0.7-1.3-1.4-1.2c-1.7,0.1-3.4,0.5-5,1.2l-2.7-6.1l0.9-0.3C71.1,55.6,76.5,51,79.9,45c4.3-7.6,4.4-13.1,4.7-22.1v-0.3
	c0,0,0,0,0-0.1c0-0.1,0-0.2,0-0.3v-1.9c0.1-4.8,2.3-9.3,6.1-12.4c0.8-0.5,1.3-1.3,1.3-2.3C92,5,91.7,4.2,91.1,3.7z M15.9,32.4
	c-0.3,2-2.1,3.4-4.1,3.1s-3.4-2.1-3.1-4.1c0.3-2,2.1-3.4,4.1-3.1c1.4,0.2,2.6,1.2,3,2.5C15.9,31.3,15.9,31.9,15.9,32.4z M79.7,4
	c1.2-0.4,2.6,0.3,3,1.5c0.4,1.2-0.3,2.6-1.5,3c-1.2,0.4-2.5-0.3-3-1.5C77.8,5.8,78.4,4.4,79.7,4C79.7,4,79.7,4,79.7,4z M77.6,43.7
	c-3.1,5.5-8.1,9.7-13.9,12c-1.9,0.7-3.8,1.4-5.7,1.8c-3.3,0.8-6.6,1.1-10,0.9h-0.1l0,0C40.1,58,33,54.5,26.6,48
	c-2.4-2.5-4.6-5.2-6.4-8.1c0.1-0.6,0.1-1.1,0.1-1.7c0.6,0,1.2-0.1,1.7-0.3c9.3,3.2,19.6,2.3,28.2-2.5c5.1-2.7,12-7.5,15.8-15.1
	c0.4-0.7,0.8-1.5,1.1-2.2c4.1,3.6,9.4,5.7,14.9,5.8C81.7,32.1,81.4,36.9,77.6,43.7z"/>
</svg>
