<svg xmlns="http://www.w3.org/2000/svg" viewBox="0 0 204.49 70.62"><defs><style>.cls-1{fill:#020608;}</style></defs><title>Yoy_logo_4.1</title><g id="Слой_2" data-name="Слой 2"><g id="Слой_2-2" data-name="Слой 2"><path class="cls-1" d="M114.92,24.17l-7.26,10.75,0,.33q.2,1.39,2.58,1l.35,2.47-11.18,1.6-.35-2.47q2.68-.38,2.48-1.77L99.5,21.45q-.2-1.39-2.88-1L96.26,18l11.18-1.6.35,2.47q-2.38.34-2.18,1.73l1.44,10,7.24-10.75-.06-.45q-.2-1.39-2.52-1.05l-.35-2.47,11.18-1.6.35,2.47q-2.71.39-2.51,1.77l2.09,14.67q.2,1.39,2.91,1l.35,2.47-11.18,1.6-.35-2.47q2.32-.33,2.12-1.72Zm-5.74-9.42a14.54,14.54,0,0,1-2.76.13,8.21,8.21,0,0,1-2.53-.5,4.93,4.93,0,0,1-1.94-1.29,4.13,4.13,0,0,1-1-2.27,3.09,3.09,0,0,1,.43-2.2,2.66,2.66,0,0,1,2-1.13,2.69,2.69,0,0,1,2.13.42,2.38,2.38,0,0,1,.91,1.58,2.28,2.28,0,0,1-.37,1.61,2,2,0,0,1-.64.6,2.48,2.48,0,0,1-.94.32q1.24,1.18,4.46.72a9.82,9.82,0,0,0,2.54-.69,3,3,0,0,0,1.51-1.25,2.28,2.28,0,0,1-.95,0,2.22,2.22,0,0,1-.78-.4,2.11,2.11,0,0,1-.55-.64,2.25,2.25,0,0,1-.27-.79,2.39,2.39,0,0,1,.42-1.77,2.67,2.67,0,0,1,1.92-1,3.13,3.13,0,0,1,1.3.06,2.48,2.48,0,0,1,1,.52,2.68,2.68,0,0,1,.65.86A3.68,3.68,0,0,1,116,8.67a4.11,4.11,0,0,1-.3,2.4,5,5,0,0,1-1.45,1.79A7.91,7.91,0,0,1,112,14.07,14.57,14.57,0,0,1,109.17,14.75Z"/><path class="cls-1" d="M144.12,26.08q.58,4.1-1.36,6.5t-6.17,3a14,14,0,0,1-3.26.1,6.93,6.93,0,0,1-2.84-.87,6.2,6.2,0,0,1-2.17-2.15,9.66,9.66,0,0,1-1.23-3.77q-1.22-8.56,7.46-9.8a13.78,13.78,0,0,1,3.31-.09,6.77,6.77,0,0,1,2.87.93,6.38,6.38,0,0,1,2.17,2.26A10.49,10.49,0,0,1,144.12,26.08Zm-9.25-4.31a2.7,2.7,0,0,0-2.23,1.5,7.38,7.38,0,0,0-.22,4,21.31,21.31,0,0,0,.62,3,6,6,0,0,0,.81,1.79,2,2,0,0,0,1,.79,3.42,3.42,0,0,0,1.38,0,2.57,2.57,0,0,0,2.26-1.61,9.37,9.37,0,0,0,.1-4.29,16.83,16.83,0,0,0-.6-2.79,5.29,5.29,0,0,0-.82-1.65,2.09,2.09,0,0,0-1-.74A3.13,3.13,0,0,0,134.87,21.78Z"/><path class="cls-1" d="M155.76,9a16.58,16.58,0,0,1,4.59-.06,8.88,8.88,0,0,1,3.83,1.44A9,9,0,0,1,167,13.64a16.22,16.22,0,0,1,1.62,5.41,15.85,15.85,0,0,1,0,5A9.54,9.54,0,0,1,167,28a9.65,9.65,0,0,1-3.3,2.84,15,15,0,0,1-5.05,1.55,16.81,16.81,0,0,1-4.57.07,9,9,0,0,1-3.81-1.38A8.75,8.75,0,0,1,147.45,28a15,15,0,0,1-1.58-5.17,18.67,18.67,0,0,1-.08-5.18,9.71,9.71,0,0,1,1.5-4.12,9.06,9.06,0,0,1,3.26-2.91A15.34,15.34,0,0,1,155.76,9Zm.61,3.17a5.17,5.17,0,0,0-4,2.4q-1.15,2-.58,6a25.25,25.25,0,0,0,1,4.66,8.34,8.34,0,0,0,1.43,2.7A3.47,3.47,0,0,0,156,29.07a5.67,5.67,0,0,0,2.15.08,6.88,6.88,0,0,0,2.51-.8,3.9,3.9,0,0,0,1.54-1.67,6.84,6.84,0,0,0,.63-2.69,19.84,19.84,0,0,0-.23-3.87,21.23,21.23,0,0,0-1-4.24,7.73,7.73,0,0,0-1.4-2.51,3.57,3.57,0,0,0-1.79-1.13A5.48,5.48,0,0,0,156.37,12.16Z"/><path class="cls-1" d="M180.09,13.2l.34,2.41a2.07,2.07,0,0,0-1.2.53,1.22,1.22,0,0,0-.32,1.11l.74,5.15,5.54-6v-.06a1.22,1.22,0,0,0-.62-1,2.06,2.06,0,0,0-1.3-.17l-.34-2.41,9.79-1.4.34,2.41q-2.56.37-2.36,1.75l1.1,7.72q.13,1.36,2.75,1l.35,2.47-9.79,1.4-.35-2.47q1.72-.25,1.53-1.6l-.73-5.13L180,24.87V25q.19,1.35,1.91,1.1l.35,2.47-9.79,1.4-.35-2.47q2.59-.37,2.37-1.72L173.4,18q-.2-1.38-2.76-1l-.34-2.41Zm1.12-2.53a12.46,12.46,0,0,1-2.4.11,7,7,0,0,1-2.18-.44,4.4,4.4,0,0,1-1.68-1.13,3.52,3.52,0,0,1-.86-2,2.69,2.69,0,0,1,.38-1.88,2.27,2.27,0,0,1,1.7-1,2.34,2.34,0,0,1,1.82.35,2,2,0,0,1,.79,1.36,2.05,2.05,0,0,1-.32,1.43,1.74,1.74,0,0,1-1.37.78q1,1,3.87.62a8.66,8.66,0,0,0,2.22-.59,2.47,2.47,0,0,0,1.29-1.08A1.71,1.71,0,0,1,183,6.89a2.06,2.06,0,0,1-.34-2.81,2.34,2.34,0,0,1,1.65-.85,2.21,2.21,0,0,1,2,.5,2.87,2.87,0,0,1,.84,1.68,3.61,3.61,0,0,1-.26,2.08A4.18,4.18,0,0,1,185.59,9a7.17,7.17,0,0,1-2,1A12.25,12.25,0,0,1,181.21,10.68Z"/><path class="cls-1" d="M199.81,18.87q-.62-3.26-1.22-5.3t-1.08-3.35q-.48-1.32-.83-2.17a7.42,7.42,0,0,1-.49-1.79A2.59,2.59,0,0,1,196.69,4a3.8,3.8,0,0,1,2.25-1,3.51,3.51,0,0,1,2.34.33,2.57,2.57,0,0,1,1.1,2,8.14,8.14,0,0,1,.05,1.87q-.08.93-.19,2.33t-.13,3.52q0,2.13.24,5.44Zm4.65,3.92a2.7,2.7,0,0,1-.52,2.09,2.63,2.63,0,0,1-1.8,1.07A2.75,2.75,0,0,1,199,23.57a2.63,2.63,0,0,1,.52-2,2.71,2.71,0,0,1,1.86-1.08,2.75,2.75,0,0,1,3.1,2.33Z"/><path class="cls-1" d="M104.71,57.71l-1.79-12.52,2.34-.33.69,4.82,1.24-.18c1.92-.27,2-.87,2.05-2.46a4.41,4.41,0,0,1,.68-2.85l2.43-.35A4.69,4.69,0,0,0,111.6,47c0,2.19-.9,2.66-1.46,2.92,1.12.08,2.08.35,2.62,2.54a8.54,8.54,0,0,0,1.74,3.84l-2.55.36a7.71,7.71,0,0,1-1.26-3.11c-.41-1.59-1.05-2.42-3.14-2.12l-1.31.19.82,5.75Z"/><path class="cls-1" d="M121.45,55.32l-.15-.68a4.37,4.37,0,0,1-2.48,1.28c-2,.29-3.4-.76-3.61-2.25-.28-1.93,1.09-2.91,2.73-3.45a20.1,20.1,0,0,0,2.64-1c-.1-.67-.38-1.3-1.71-1.11-1.61.23-1.67,1.13-1.6,1.59l-2.18.18c0-.59-.25-2.88,3.48-3.41,2.61-.37,3.86.43,4.08,2l.74,5.18A2.09,2.09,0,0,0,124,55Zm-.63-4.42a5.56,5.56,0,0,1-1.61.74c-1,.28-1.9.62-1.78,1.5.08.58.54,1,1.61.87s2.11-.81,2-1.93Z"/><path class="cls-1" d="M128.89,45.21c1.63-.23,3.17-.09,3.44,1.79a2,2,0,0,1-1.06,2.09,2.18,2.18,0,0,1,2,2c.19,1.35-.39,2.57-2.73,2.91l-4.72.67-1.27-8.87ZM127.2,49l1.68-.24c1.37-.19,1.42-.73,1.35-1.21s-.34-.86-1.49-.69l-1.81.26Zm.54,3.79,1.76-.25c1.17-.17,1.75-.41,1.61-1.39s-1-1-1.92-.89l-1.77.25Z"/><path class="cls-1" d="M141,52.53l-.15-.68a4.37,4.37,0,0,1-2.48,1.28c-2,.29-3.4-.76-3.62-2.25-.28-1.93,1.09-2.91,2.73-3.45a20.15,20.15,0,0,0,2.64-1c-.1-.67-.38-1.3-1.71-1.11-1.62.23-1.67,1.12-1.6,1.59l-2.18.19c0-.59-.25-2.88,3.48-3.41,2.61-.37,3.86.43,4.08,2l.74,5.18a2.09,2.09,0,0,0,.6,1.38Zm-.63-4.42a5.54,5.54,0,0,1-1.61.74c-1,.28-1.9.62-1.78,1.5.08.58.54,1,1.61.88s2.11-.81,2-1.93Z"/><polygon class="cls-1" points="64.35 51.17 67.03 47.6 61.67 47.6 64.35 51.17"/><polygon class="cls-1" points="53.63 47.6 56.31 51.17 58.99 47.6 53.63 47.6"/><polygon class="cls-1" points="45.6 47.6 48.27 51.17 50.95 47.6 45.6 47.6"/><polygon class="cls-1" points="37.56 47.6 40.24 51.17 42.92 47.6 37.56 47.6"/><polygon class="cls-1" points="32.2 51.17 34.88 47.6 29.52 47.6 32.2 51.17"/><polygon class="cls-1" points="60.24 55.46 62.92 51.89 57.56 51.89 60.24 55.46"/><polygon class="cls-1" points="52.2 55.46 54.88 51.89 49.52 51.89 52.2 55.46"/><polygon class="cls-1" points="44.17 55.46 46.85 51.89 41.49 51.89 44.17 55.46"/><polygon class="cls-1" points="69.7 35.38 72.38 38.95 75.06 35.38 69.7 35.38"/><polygon class="cls-1" points="67.03 35.38 61.67 35.38 64.35 38.95 67.03 35.38"/><polygon class="cls-1" points="58.99 35.38 53.63 35.38 56.31 38.95 58.99 35.38"/><polygon class="cls-1" points="73.63 39.66 76.31 43.23 78.99 39.66 73.63 39.66"/><polygon class="cls-1" points="68.28 43.23 70.95 39.66 65.6 39.66 68.28 43.23"/><polygon class="cls-1" points="60.24 43.23 62.92 39.66 57.56 39.66 60.24 43.23"/><polygon class="cls-1" points="54.88 39.66 49.52 39.66 52.2 43.23 54.88 39.66"/><polygon class="cls-1" points="46.85 39.66 41.49 39.66 44.17 43.23 46.85 39.66"/><polygon class="cls-1" points="75.06 23.16 69.7 23.16 72.38 26.73 75.06 23.16"/><polygon class="cls-1" points="76.31 31.01 78.99 27.44 73.63 27.44 76.31 31.01"/><polygon class="cls-1" points="70.95 27.44 65.6 27.44 68.28 31.01 70.95 27.44"/><path class="cls-1" d="M91.05,3.7C87.47.66,84.19-.92,79,.57a14.92,14.92,0,0,0-3.8,2C71.63,5,68,10.85,65.57,15.27a1.25,1.25,0,0,0-.11.29c-.64,1.18-1.27,2.38-1.87,3.58a27.06,27.06,0,0,1-4.1,6c-1.35-3.7-4.45-10.46-9.77-13.4-7.51-4.16-14.36-3.22-16.62.86S33.67,23,41.19,27.13c4.52,2.5,10.51,2.19,14.58,1.54A40.77,40.77,0,0,1,49,33.13,32.52,32.52,0,0,1,24.73,36a6,6,0,0,0-3.53-9.6,6,6,0,0,0-11-4.27,6,6,0,0,0-8,8.76,6,6,0,0,0,6.43,10,6,6,0,0,0,10.22,1.81C24.1,50.06,33.37,59.72,47,61l-1.43,4.19A16.07,16.07,0,0,0,43.16,65a1.31,1.31,0,0,0-1.3,1.32,1.34,1.34,0,0,0,1.32,1.3A11.59,11.59,0,0,1,51,70.31a1.31,1.31,0,0,0,1.67-2,13.89,13.89,0,0,0-4.5-2.51l1.59-4.65h.35a36.53,36.53,0,0,0,8.52-1c.88-.21,1.77-.46,2.67-.74l2.87,6.55a16.47,16.47,0,0,0-1.9,1.53A1.31,1.31,0,0,0,64,69.36,11.72,11.72,0,0,1,71.58,66a1.31,1.31,0,0,0-.13-2.62,13.83,13.83,0,0,0-5,1.2l-2.67-6.1.91-.34A30.34,30.34,0,0,0,79.91,45c4.3-7.63,4.44-13.09,4.68-22.13v-.32s0,0,0-.07a1.26,1.26,0,0,0,0-.27l0-1.86A16.39,16.39,0,0,1,90.68,8,2.89,2.89,0,0,0,92,5.75,2.51,2.51,0,0,0,91.05,3.7ZM15.86,32.41a3.66,3.66,0,1,1-.14-1.59A3.67,3.67,0,0,1,15.86,32.41ZM77.63,43.72A26.69,26.69,0,0,1,75,47.6H69.7L72,50.65c-.49.43-1,.84-1.52,1.24H65.6L67.21,54a30.29,30.29,0,0,1-3.5,1.72A42.94,42.94,0,0,1,58,57.57a33.47,33.47,0,0,1-10,.91l-.13,0v0a29.64,29.64,0,0,1-11.58-3.25l2.5-3.33H33.45l2.27,3A38.48,38.48,0,0,1,26.61,48a50.65,50.65,0,0,1-5.31-6.39l1.43-1.91H20.19a5.83,5.83,0,0,0,0-1.45,6,6,0,0,0,1.72-.3,36.76,36.76,0,0,0,8.42,1.75H25.42l2.68,3.57,2.65-3.53c.93.07,1.87.09,2.8.09l2.59,3.45,2.68-3.57H36.27A35.69,35.69,0,0,0,46.82,37l1.45,1.93L51,35.38H50.3a42.23,42.23,0,0,0,8.69-6L60.24,31l2.68-3.57h-2A32,32,0,0,0,63,25l1.32,1.77L67,23.16H64.31a28.19,28.19,0,0,0,1.63-2.84c.37-.74.75-1.47,1.13-2.21A23,23,0,0,0,78,23.45l2.46,3.28,1.49-2a56,56,0,0,1-1,10.64H77.74L80,38.45A32.32,32.32,0,0,1,77.63,43.72ZM81.17,8.45a2.36,2.36,0,1,1,1.51-3A2.36,2.36,0,0,1,81.17,8.45Z"/></g></g></svg>