<?xml version="1.0" encoding="utf-8"?>
<!-- Generator: Adobe Illustrator 21.0.0, SVG Export Plug-In . SVG Version: 6.00 Build 0)  -->
<svg version="1.1" id="Слой_1" xmlns="http://www.w3.org/2000/svg" xmlns:xlink="http://www.w3.org/1999/xlink" x="0px" y="0px"
	 viewBox="0 0 368 440" style="enable-background:new 0 0 368 434.5;" xml:space="preserve">
<style type="text/css">
	.st0{clip-path:url(#SVGID_2_);}
	.st1{fill:#E8A8AF;}
	.st2{fill:#C82539;}
	.st3{fill:none;stroke:#C82539;stroke-width:2.87;stroke-linecap:round;stroke-miterlimit:10;}
	.st4{fill:none;stroke:#C82539;stroke-width:4.78;stroke-linecap:round;stroke-miterlimit:10;}
	.st5{fill:#FFFFFF;stroke:#C82539;stroke-width:4.78;stroke-linecap:round;stroke-miterlimit:10;}
	.st6{fill:#C82539;stroke:#C82539;stroke-width:4.78;stroke-miterlimit:10;}
	.st7{fill:none;stroke:#FFFFFF;stroke-width:4.78;stroke-linecap:round;stroke-miterlimit:10;}
	.st8{fill:none;stroke:#C82539;stroke-width:4.7;stroke-linecap:round;stroke-miterlimit:10;}
	.st9{fill:none;stroke:#FFFFFF;stroke-width:5;stroke-linecap:round;stroke-miterlimit:10;}
	.st10{fill:#C82539;stroke:#C82539;stroke-width:5;stroke-miterlimit:10;}
	.st11{fill:#FFFFFF;}
	.st12{fill:none;stroke:#FFFFFF;stroke-width:3.82;stroke-linecap:round;stroke-miterlimit:10;}
	.st13{fill:none;stroke:#FFFFFF;stroke-width:3.82;stroke-linecap:round;stroke-linejoin:round;}
</style>
<title>Yoy_petlyra</title>
<g id="Слой_2">
	<g id="Слой_1-2">
		<g>
			<defs>
				<path id="SVGID_1_" d="M268.4,251c0,69.1,48.3,34.3,53.3,58.4c0.9,4.1,47.8,26.9,46.3,28.7c-46.4,58-111.3,94-183.1,94
					C112.1,432.2,46.5,395.2,0,336c-2.1-2.7,80.2-43.9,78.2-46.6c-39.9-54.6,0.6,33.5,0.6-45.2c0-45.7-31.2-122.4-16.5-161.4
					C102.5-24.1,87.9-1.8,191.1-1.8s60.1,0.3,100.3,107.2C306.1,144.4,268.4,205.2,268.4,251z"/>
			</defs>
			<clipPath id="SVGID_2_">
				<use xlink:href="#SVGID_1_"  style="overflow:visible;"/>
			</clipPath>
			<g class="st0">
				<path class="st1" d="M160.4,273.9l67.2,7.9l53,140c0,0-29.3,45-91.1,16.5S160.4,273.9,160.4,273.9z"/>
				<path class="st1" d="M244.3,43.7c-14.4,3.7-53.3,3.6-79.2,2.7c-12.1-0.5-17.5,3.5-20.7,14.7s-19.8,71.1-31.1,90.8
					c-3.7,6.4-5.8,7.1-8.1,5.3c-3.4-2.6-7.3-44.7-7.3-44.7l18.2-44.1L135.7,33l17.2-5.8l36,5.8l28.3-3l20.2,1l8.3,8.5
					c0.1,0.1,0.1,0.3-0.1,0.4c0,0,0,0,0,0C245.6,39.9,245.5,43.4,244.3,43.7z"/>
				<path class="st2" d="M250.5,290c32.1,1.7,115,40.7,134.1,58.7c9.2,8.7-6,26-42,51c-35.1,24.4-82,43-82,43
					c-1.9-24.9-25.6-96-25.6-96l15.5-27.5L250.5,290z"/>
				<path class="st2" d="M192.4,362.3c0,0,18,56.4,20.3,75.5c0,0-65.7,8.1-128-18c-54.9-23.1-103.2-63.2-103.2-63.2l14.9-16.7
					c19.6-25.5,94.2-47.1,94.2-47.1s26.2,36,52.2,50.1C158.5,351.2,175.1,357.8,192.4,362.3z"/>
				<path class="st3" d="M163.5,133.8c0,0,0.4,7.4,5.8,7.5s7.1-3.7,6.9-7.5l-0.6-3.6"/>
				<path class="st3" d="M229.9,133.8c0,0,0.4,7.4,5.8,7.5s7.1-3.7,6.9-7.5"/>
				<path class="st4" d="M260.6,119.5c0,0-26.6-15-41,5.7c-1,1.5-1.5,3.3-1.5,5.1c0.3,7.4,1.7,29.3,5.8,39.7
					c5.1,12.7,0.8,20.8-15,16.5c0,0-4.2-1.8-13.8,0.1c-5.8,1.1-7.7-8.4-3-11.1"/>
				<path class="st4" d="M192.1,138c0,0-15.9-21.3-40.5-1.1"/>
				<path class="st4" d="M221.4,138c0,0,14.9-19.7,34.6,0"/>
				<path class="st4" d="M198.1,124.4c0,0-24.5-21-55.5,0"/>
				<path class="st4" d="M232.4,176.7"/>
				<path class="st2" d="M230.5,136.9c0-3,2.5-5.5,5.5-5.5l0,0c3,0,6.5,1.6,6.5,4.7s-3.5,6.4-6.5,6.4
					C233,142.4,230.5,139.9,230.5,136.9L230.5,136.9z"/>
				<circle class="st2" cx="169.9" cy="133.6" r="6.7"/>
				<path class="st2" d="M243.2,133.8c0,3.2-3.5,5.7-6.7,5.7c-3.2,0-5.7-2.6-5.7-5.7s2.6-5.7,5.7-5.7
					C239.7,128,243.2,130.6,243.2,133.8z"/>
				<path class="st4" d="M236.3,217.9c-1.5,0.7-3.2,0.9-4.9,0.4c-0.9-0.3-1.7-0.9-2.3-1.7c-1.6-2.3-3.8-4-6.4-4.8
					c-1.4-0.5-2.9-0.3-4.1,0.5c-4.3,2.7-7.6,2.7-13.4-0.1c-0.9-0.5-1.9-0.6-2.9-0.4c-3.7,0.5-7.2,2-10.1,4.2c-3,2.6-7.1,3.4-10.8,2"
					/>
				<path class="st5" d="M269.2,140.3c0,0,4.5-7.1,9.2-4.6c7,3.8-5.4,57-9.2,62c-3.5,4.6-5.7,1.5-5.7,1.5"/>
				<path class="st4" d="M228,226.1c0,0-16.7,8.1-34.6-1"/>
				<path class="st4" d="M95.1,155.2c-4.3-4.2-12.4,0-10.2,7.5c3.3,11,12.1,11.9,12.7,18.9"/>
				<path class="st4" d="M190.2,217.2c7.3-2.3,15.2-2.1,22.4,0.4c0.2,0.1,0.4,0.1,0.5,0c1.5-0.6,9.8-3.3,17.8,0.5"/>
				<path class="st6" d="M239.7,35.7c0,0,14,17.4,19.8,33.3s8.2,41.2,8.2,73.4c2.4-0.4,4.6-1.3,6.6-2.7c2.2-1.7,3.5-8.3,3.5-8.3
					S287.5,44.4,239.7,35.7z"/>
				<path class="st4" d="M192.1,175.5c-10.8,12.1-10.6,13.9-14.5,24.8"/>
				<path class="st4" d="M233.8,180.1c2.5,3.9,4.9,7.3,5.9,14.6"/>
				<path class="st7" d="M90.3,291c0,0-93,24.6-108.8,65.5"/>
				<path class="st7" d="M192.1,360.7c0,0,18.8,58.5,21.1,77.6"/>
				<path class="st7" d="M236.3,347.7c0,0,22.9,64.5,24.9,95.5"/>
				<path class="st7" d="M396.2,358.3C349.4,315.6,288,291,251.8,291"/>
				<circle class="st6" cx="224" cy="381.6" r="7.5"/>
				<path class="st2" d="M208.7,268.8c0,0,18.1,4.8,32.9-13.7c0,0,9.2,39,13.1,47.2s-16.4,51-25.8,54.8S208.7,268.8,208.7,268.8z"/>
				<path class="st6" d="M239.7,35.7c0,0,22.8,23.4,20.7,11.8c-4.5-25.8-39-45.1-73.8-45.1C105.8,2.4,65,69.5,77.2,130.2
					c0,0,23.9-1.7,28.5,21.8c4.6,23.4,20.6-73.4,29.5-101.8C143.9,22.6,171.4,43.9,239.7,35.7z"/>
				<line class="st4" x1="110.2" y1="236.3" x2="109.9" y2="205.1"/>
				<path class="st4" d="M106.1,153.5c0,0-12.2-29.1-28.4-19.4c-8.2,4.9-1.6,38.1,6.8,47.4c7.8,8.6,12.7,25.8,24.7,20.8"/>
				<path class="st7" d="M243.2,257c0,0,7.6,31.6,10.9,41.5c2.9,8.7-12.5,58.3-25.4,57.9c-12.6-0.4-19.9-78.7-19.9-78.7"/>
				<path class="st8" d="M267.6,142.7c-1.5,34.3-3.6,70.2-18.2,99.4c-4.5,8.9-14.1,27.2-36,27.1c-19.4-0.1-53.2-8.8-64.8-14.9
					c-16.2-8.5-22.2-23.7-38.3-51"/>
				<path class="st2" d="M210,274.4c0,0,9.6,73.3,0,84.7s-104.3-22.7-125.9-70.7c0,0,18.6-19.9,11.8-77.2c-0.1-0.6,2.8-0.9,3.1-0.3
					C105.7,224.1,140.7,274.4,210,274.4z"/>
				<path class="st9" d="M210,274.4c0,0,9.6,73.3,0,84.7s-104.3-22.7-125.9-70.7c0,0,13.3-22.3,11.8-77.2c0-0.6,2.8-0.9,3.1-0.3
					C105.7,224.1,140.7,274.4,210,274.4z"/>
				<path class="st10" d="M110.2,208.3v21c0,0,39,61,106,55c0,0,10,2,24-14l-2-9l-8,10h-34l-30-8l-17-8l-13-9l-17-24L110.2,208.3z"
					/>
				<path class="st11" d="M107.7,204.8c0,0,6,36-20,85l-13-16l6-42L107.7,204.8z"/>
				<path class="st12" d="M175.3,317.9c10.4-0.8,5.7-10.7,4.4-13.5c-0.2-0.5-0.1-1,0.4-1.3l12.4-8.9c0.2-0.1,0.4-0.1,0.5,0.1
					c0.1,0.1,0.1,0.2,0,0.3l-10.5,33l-31.4-9.6L161,287c0.1-0.2,0.3-0.3,0.4-0.2c0.1,0,0.2,0.1,0.2,0.2c1,3.2,3.9,12.7,4.1,13.3
					s-10.8,5.5-3.1,13.9"/>
				<path class="st13" d="M177.9,285.9c0,0-4.9,17.1-4,26.4s-0.3,19-10.6,21c0,0-8.8-7.4,4.3-26
					C167.6,307.2,174.1,300.3,177.9,285.9z"/>
				<path class="st12" d="M162.6,314.1c3,3.1,4.1,7.5,3.1,11.7c-0.9,3,2.5-7.4,8-7.6"/>
			</g>
		</g>
	</g>
</g>
</svg>
