<?xml version="1.0" encoding="utf-8"?>
<!-- Generator: Adobe Illustrator 21.0.0, SVG Export Plug-In . SVG Version: 6.00 Build 0)  -->
<svg version="1.1" id="Слой_1" xmlns="http://www.w3.org/2000/svg" xmlns:xlink="http://www.w3.org/1999/xlink" x="0px" y="0px"
	 viewBox="0 0 376.2 446.7" style="enable-background:new 0 0 376.2 446.7;" xml:space="preserve">
<style type="text/css">
	.st0{clip-path:url(#SVGID_2_);}
	.st1{fill:none;stroke:#A094C1;stroke-width:4.88;stroke-linecap:round;stroke-miterlimit:10;}
	.st2{fill:#A094C1;}
	.st3{fill:none;stroke:#191010;stroke-width:2.93;stroke-linecap:round;stroke-miterlimit:10;}
	.st4{fill:#191010;}
	.st5{fill:none;stroke:#342950;stroke-width:4.88;stroke-linecap:round;stroke-miterlimit:10;}
	.st6{fill:#342950;}
	.st7{fill:#342950;stroke:#342950;stroke-width:4.88;stroke-miterlimit:10;}
	.st8{fill:none;stroke:#FFFFFF;stroke-width:4.88;stroke-linecap:round;stroke-miterlimit:10;}
	.st9{fill:none;stroke:#48306E;stroke-width:4.88;stroke-linecap:round;stroke-miterlimit:10;}
	.st10{fill:none;stroke:#1A4967;stroke-width:4.88;stroke-linecap:round;stroke-miterlimit:10;}
	.st11{fill:#FFFFFF;stroke:#342950;stroke-width:4.88;stroke-linecap:round;stroke-miterlimit:10;}
</style>
<title>Yoy_kondratyk</title>
<g>
	<defs>
		<path id="SVGID_1_" d="M299.1,224.5c0,76.8,125.2,51.6,87,105.7c-46.8,66.2-116.2,108.2-193.8,108.2
			c-77.9,0-147.7-42.4-194.5-109.3c-37.8-54,77.3-28.3,77.3-104.6c0-45.7-34.7-56.5-20-95.6C95.3,22,88.7,0,191.8,0
			s85.1,38.3,125.3,145.2C331.8,184.2,299.1,178.7,299.1,224.5z"/>
	</defs>
	<clipPath id="SVGID_2_">
		<use xlink:href="#SVGID_1_"  style="overflow:visible;"/>
	</clipPath>
	<g class="st0">
		<path class="st1" d="M180.1,387.4c0,0,9.6,8.4,22.3,0.9"/>
		<path class="st2" d="M260.1,162.5c-2.3,1.2-5.6-1.2-5.1-6.8c0.7-8.5,0.7-14.8,0.7-21.3c0-9.1,0.8-32.6-12.7-49.8
			c-9.2-11.7-30.5-17.8-41.1-13.1c-8.7,3.9-15.6,1.7-19.5-3.5c-2.7-3.6-1-9.9-3.8-12.2c-6.8-5.7-49.3,4.3-61.1,45.9
			c-6.2,21.8-4.4,44.5-3.7,62.2c0,0.3-0.2,0.5-0.5,0.5c-0.1,0-0.1,0-0.2,0c-2.6-0.9-1.2-6.4-1.6-11.6c-0.4-6-4-28.1-8.3-40.6
			c-6.8-19.9-6.2-50.1,8.9-61.9c13.6-10.6,8-22,39.4-33.4c31-11.3,62.9-4.9,77.2,14.1c5.3,7.1,7.5,12.4,16.9,14.1
			c11.4,2.1,48.5,31.3,26,101.7c-0.1,0.3-0.3,0.6-0.5,0.9C270.1,149.5,267.2,158.8,260.1,162.5z"/>
		<path class="st2" d="M244.9,252.5c0,0-14.8,88.1-54.9,81.9c-35.1-5.5-53.9-76.5-53.9-76.5l-2.5-3l-3.1,3.7l-7.1,28.2l2.2,37.3
			c0,0,4,19.1,8.9,32.1c4.2,11.3,18.9,61.6,24.5,91.5c3.6,0.5,7.3,1.4,10.8,2.4l9.4-66.6l-12.3-25c0,0,13.5-19.6,23.8-19.6
			c15.7,0,23.5,20.5,23.5,20.5l-13.1,26.3l12,65.6c2.7-0.5,5.4-0.6,8.1-0.6c1,0,1.9,0.3,2.7,0.8c9.1-36.1,24.8-96,35.8-129.6
			C274.3,278.2,244.9,252.5,244.9,252.5z"/>
		<path class="st3" d="M149.4,151.6c0,0,0.4,7,5.5,7.1s6.7-3.5,6.5-7.1"/>
		<path class="st4" d="M149.9,154.6c0-2.9,2.3-5.2,5.2-5.2l0,0c2.9,0,6.2,1.5,6.2,4.4s-3.3,6-6.2,6
			C152.3,159.8,149.9,157.5,149.9,154.6C149.9,154.6,149.9,154.6,149.9,154.6z"/>
		<path class="st5" d="M197.2,195.8c0,0,6.1,2.9,9.3-0.9"/>
		<path class="st6" d="M162.7,153.1c0,4-3.3,7.3-7.3,7.3s-7.3-3.3-7.3-7.3c0-4,0-6,7.3-6.4C159.5,146.4,162.7,149,162.7,153.1z"/>
		<path class="st3" d="M217.7,152.1c0,0,0.4,7,5.5,7.1c5.2,0.1,6.7-3.5,6.5-7.1"/>
		<path class="st4" d="M218.2,155c0-2.9,2.3-5.2,5.2-5.2l0,0c2.9,0,6.2,1.5,6.2,4.4s-3.3,6-6.2,6C220.5,160.2,218.2,157.9,218.2,155
			C218.2,155,218.2,155,218.2,155z"/>
		<path class="st6" d="M231,153.5c0,4-3.3,7.3-7.3,7.3s-7.3-3.3-7.3-7.3c0-4,3.3-6.4,7.3-6.4S231,149.5,231,153.5z"/>
		<path class="st4" d="M223.8,176.2"/>
		<path class="st7" d="M187.5,204.7c-3.9,0.3-26.7,2.8-36.8,23.9c-0.3,0.6,0.5,1.5,1,1c2.4-2.4,3.8-3.4,9.9-4.8s17.3-2.9,24.2-2.6
			c0.3,0,0.6-0.1,0.7-0.4c0.9-1.9,4.2-9.4,1.8-16.6C188.2,204.8,187.8,204.6,187.5,204.7z"/>
		<path class="st7" d="M194.8,204.6c3.9,0.3,26.7,2.8,36.8,23.9c0.3,0.6-0.5,1.5-1,1c-2.4-2.4-3.8-3.4-9.9-4.8s-17.4-2.9-24.2-2.5
			c-0.3,0-0.6-0.1-0.7-0.4c-0.9-1.9-4.2-9.4-1.8-16.6C194.1,204.8,194.4,204.6,194.8,204.6z"/>
		<path class="st7" d="M152,247c0,0,38.1,30.4,70.8,0.5c0,0,8.5,7.2,7.2,21.2c-2.3,23.9-37.8,33-37.8,33s-36.6-5.5-44.1-33.5
			C146.3,260.9,147.7,253.2,152,247z"/>
		<path class="st7" d="M260.4,156.2c0,0,7.1-52-8.9-74.7c-15.4-21.8-42.8-23.3-52.5-15.1c-6.4,5.4-11,4.4-16.4-0.2
			c-6.8-5.7-46.4-12.2-58.3,29.3c-6.2,21.8-4.4,44.5-3.7,62.2c0,0.3-0.2,0.5-0.5,0.5c-0.1,0-0.1,0-0.2,0
			c-2.6-0.9-13.2-6.4-13.6-11.6c-0.4-6-2-28.1-6.3-40.6c-6.9-19.9,3.8-50.1,18.9-61.9c13.6-10.6,8-22,39.4-33.4
			c31-11.3,62.9-4.8,77.2,14.1c5.3,7.1,7.5,12.4,16.9,14.1c11.4,2.1,48.7,31.4,25.8,102.2C278.4,141.2,273.5,149.5,260.4,156.2z"/>
		<path class="st8" d="M244.9,246.1c0,0-9.5,86.5-52.7,86.5c-42.7,0-58.2-86.5-58.2-86.5"/>
		<path class="st9" d="M132.6,254c-3.6,2.8-42.7,47.4-83.8,74.6c-14.6,9.7-28.8,20-42.6,30.9"/>
		<path class="st9" d="M382.6,358.3c-16.2-11.1-35.8-22.1-49.5-34.8c-38-35-84-69.4-84-69.4"/>
		<path class="st8" d="M169.1,356.8l10.5,25c0,0,9.6,8.4,22.3,0.9l11.3-27.6"/>
		<line class="st8" x1="181.3" y1="376.2" x2="169.1" y2="455.2"/>
		<line class="st8" x1="201.5" y1="384" x2="213.2" y2="451.2"/>
		<path class="st5" d="M245.8,139.3c-5.9-4.8-41.3-9-46.1,2.3c-7.8,18.1,1.7,43.3-0.9,51.4c-1.9,6-12,6.1-16,3.1
			c-1.3-1-3.1,0.2-4.6,0.9c-1.8,1-6.4,1-7.6-1.3"/>
		<path class="st5" d="M169.1,154.5c0,0-14.5-15-34.3,0"/>
		<path class="st5" d="M203.5,156.4c0,0,20-20.2,40.4,1.9"/>
		<path class="st10" d="M216.5,183.5"/>
		<path class="st5" d="M178.6,139.3c0,0-20.1-9.2-46.9,0"/>
		<path class="st5" d="M176.5,238.8c0,0,14.5,7.8,27.7,0.3"/>
		<path class="st5" d="M206.9,219.1c0,6.3-9.6,11.4-15.9,11.4s-15-5.1-15-11.4"/>
		<path class="st7" d="M362.9,347.1c-32.3-16.4-70.3-65-113.7-94.6c0,0,20.8,53.7,0.2,98.8c-7.2,15.8-20.9,53.4-27.2,95.9
			c0,0,0,0,0,0c0.4-2,2-3.8,4.7-3.8c4,0,8-0.1,12-0.3c5.7-3.3,11.7-5.9,17.6-8.7c12.5-5.8,23.7-13.8,36.3-19.4
			c13.4-5.9,27.3-10.7,40.4-17.4c10.7-5.5,19.4-13,27.8-21.5c6.2-6.4,12.2-13,18.6-19.2C374.5,353.5,369,350.2,362.9,347.1z"/>
		<path class="st7" d="M11.6,361.9c0.3,0.4,0.7,0.8,1,1.2c5,2.6,9.4,6.6,13.8,10.4c1.9,1.6,3.6,3.2,5.3,4.9
			c6.2,4,12.2,8.1,17.9,13.1c6.5,5.7,12.8,11.3,20.3,15.5c16.7,9.3,34.9,16.9,52.7,23.9c8.2,3.2,16.3,6.5,24.3,10.3
			c4.7,2.2,9.3,4.5,14.1,6.6c-6-41.4-18.9-77.4-26.2-93.2c-20.6-45.1-3.2-97.8-3.2-97.8c-38.8,38-48.2,48.4-82.9,67.8
			c-13.7,7.7-29.3,20-42.6,31.5C8.2,357.7,10,359.8,11.6,361.9z"/>
		<path class="st8" d="M245.8,250.3c27.5,61.8-1.6,105.5-27.4,124.8c0,0,5.5-27.6-26.5-36.6c0,0-26,3-26.7,37.8
			c0,0-61.5-21.3-31.7-125"/>
		<path class="st11" d="M259.8,160.8c0,0,4.8-18,17.4-14.4s1.5,42.4-2.3,53.4c-2.7,8-12.4,9.8-17,4.9c0,0-2.8,35.2-27.9,59.3"/>
		<path class="st11" d="M120.5,158.2c0,0-6.3-18.1-16.1-10.3c-10,7.9,1.4,48.1,3.7,54.4s12.2,4.4,14,2c0,0,4.7,42.2,25.1,57.5"/>
		<path class="st5" d="M263.3,168.1c0,0,15.9,0,1.8,22.1"/>
		<path class="st5" d="M116.4,168.1c0,0-13.5,1.4,0,22.1"/>
	</g>
</g>
</svg>
