<svg xmlns="http://www.w3.org/2000/svg" xmlns:xlink="http://www.w3.org/1999/xlink" viewBox="0 0 344.86 441.63"><defs><style>.cls-1,.cls-5{fill:none;}.cls-2{clip-path:url(#clip-path);}.cls-3{fill:#bd811b;}.cls-4{fill:#fff;}.cls-5{stroke:#191010;stroke-linecap:round;stroke-miterlimit:10;stroke-width:4.68px;}.cls-6{fill:#1a4967;}.cls-7{fill:#fcbe43;}</style><clipPath id="clip-path" transform="translate(-22.19 -14.13)"><path class="cls-1" d="M320.89,258c0,88.29,98.1,50.68,49.21,107.05-45.74,52.74-107.6,85.11-175.7,85.11-70.39,0-134.12-34.59-180.27-90.53s35.76-49.06,35.76-134.56c0-45.74-34.68-51-20-90.08C70.06,28.1,79.72,0,182.89,0s127.82,36.84,168,143.74C365.57,182.81,320.89,212.26,320.89,258Z"/></clipPath></defs><title>Yoy_kotlarevsky</title><g id="Слой_2" data-name="Слой 2"><g id="Слой_1-2" data-name="Слой 1"><g class="cls-2"><path class="cls-3" d="M128.25,265.55c8.07,46.6,62.47,183.56,64.75,188.24L300.62,440c-16.55-58.31-52.25-122.36-52.25-122.36h0a42.75,42.75,0,0,1-4,2.43c-27.75,14.87-84.93-8-116.11-54.49" transform="translate(-22.19 -14.13)"/><path class="cls-1" d="M260.49,283s8.9,25.34-16.4,38.9c-34.95,18.72-116.54-22.4-134.16-95.13" transform="translate(-22.19 -14.13)"/><path class="cls-3" d="M197.9,186.38h-.4c-5.93-.18-7.81-6.36-8-9.6a2.34,2.34,0,0,1,4.67-.25c0,.11.36,5.08,3.45,5.17a4.17,4.17,0,0,0,3.26-1,5.45,5.45,0,0,0,1.08-3.94,2.34,2.34,0,0,1,4.67-.24,9.75,9.75,0,0,1-2.41,7.45A8.53,8.53,0,0,1,197.9,186.38Z" transform="translate(-22.19 -14.13)"/><path class="cls-3" d="M193,178.44a5.39,5.39,0,0,1,5.39-5.39c3,0,6.39,1.58,6.39,4.56s-3.41,6.23-6.39,6.23A5.39,5.39,0,0,1,193,178.44Z" transform="translate(-22.19 -14.13)"/><path class="cls-3" d="M247.73,236.34a15.81,15.81,0,0,1-2.81-.26,86.82,86.82,0,0,0-13.95-1c-7.71-.12-14.37-.23-16.39-5.28-1.29-3.22-1.32-6.08-.08-8.49a9.67,9.67,0,0,1,5.93-4.63,2.34,2.34,0,0,1,1.15,4.54,5.09,5.09,0,0,0-2.93,2.25c-.58,1.15-.48,2.7.28,4.6.86,2.15,6.33,2.24,12.12,2.34a90.48,90.48,0,0,1,14.7,1.08c4.11.73,5.45-.84,5.89-1.35,2.79-3.26,1.73-11.19.58-14.53-4.93-14.21-6.44-48.34-6.7-55a3.44,3.44,0,0,1,2.24-3.36c4.52-1.68,15.56-5.61,20.39-5.49,4.53.08,10.57,5.93,13.77,9.41a2.5,2.5,0,0,1-2.56,4.09l-6.76-2a8.55,8.55,0,0,0-5.15.08l-16.85,5.6c.72,12.49,2.45,34.88,6,45.18,1.11,3.21,3.24,13.63-1.44,19.1A9.37,9.37,0,0,1,247.73,236.34Zm2.5-75.07c0,.68.07,1.61.12,2.76l15.62-5.2a13.2,13.2,0,0,1,5.92-.56,8.49,8.49,0,0,0-3.83-1.89C264.91,156.32,256.69,158.91,250.24,161.27Z" transform="translate(-22.19 -14.13)"/><path class="cls-3" d="M228.58,158.08a23.84,23.84,0,0,1-3.53,5.13c-1.37,1.5-3.09,1.61-6,.8-5.06-1.39-16.49-4.47-22.85-5.58-5.36-.94-31.87,8.81-31.87,8.81a.67.67,0,0,1-.42-1.27s16.56-8.83,22.72-10.9c4.94-1.65,10.92-4.71,18.73-5.46,4.12-.4,19.85,5.23,23.27,7.44A.65.65,0,0,1,228.58,158.08Z" transform="translate(-22.19 -14.13)"/><path class="cls-3" d="M164.14,168.19a1.61,1.61,0,0,1-.67-3.07c.63-.34,16.65-8.87,22.82-10.94,1.21-.4,2.49-.9,3.85-1.42,4.26-1.64,9.09-3.5,15.08-4.08,4.46-.43,20.4,5.34,23.87,7.58a1.48,1.48,0,0,1,.67,1.17,1.66,1.66,0,0,1-.42,1.2,24.91,24.91,0,0,1-3.61,5.21c-1.81,2-4.1,1.86-7,1.07-5.92-1.63-16.75-4.51-22.76-5.56-4.19-.73-24.08,6.08-31.39,8.77l-.14,0A1.67,1.67,0,0,1,164.14,168.19Zm.18-1.39h0Zm41.49-16.27-.4,0a53.56,53.56,0,0,0-14.59,4c-1.38.53-2.68,1-3.93,1.45-4.32,1.45-14,6.36-19.17,9,7.71-2.72,24.21-8.28,28.6-7.51,5.78,1,15.66,3.6,22.93,5.6,3.09.85,4.21.45,5.11-.53a23,23,0,0,0,3.38-4.9l0,0C223.89,155.38,210,150.53,205.8,150.53Z" transform="translate(-22.19 -14.13)"/><path class="cls-3" d="M177.32,185.24a2.34,2.34,0,0,1-1.24-4.32,71.27,71.27,0,0,1,27.73-10.06,12.81,12.81,0,0,1,7.87,1.46l.15.09,9.81,6.35a2.34,2.34,0,1,1-2.54,3.93l-9.73-6.3a8.16,8.16,0,0,0-4.94-.89,66.48,66.48,0,0,0-25.87,9.39A2.34,2.34,0,0,1,177.32,185.24Z" transform="translate(-22.19 -14.13)"/><path class="cls-3" d="M257.77,187.63h-.4c-5.93-.18-7.81-6.36-8-9.6a2.34,2.34,0,0,1,4.67-.25c0,.05.34,5.08,3.45,5.17a4.25,4.25,0,0,0,3.26-1,5.45,5.45,0,0,0,1.08-3.94,2.34,2.34,0,0,1,4.67-.24,9.75,9.75,0,0,1-2.41,7.45A8.52,8.52,0,0,1,257.77,187.63Z" transform="translate(-22.19 -14.13)"/><path class="cls-3" d="M252.29,180a5.39,5.39,0,0,1,5.39-5.39c3,0,6.39,1.58,6.39,4.56s-3.41,6.23-6.39,6.23A5.39,5.39,0,0,1,252.29,180Z" transform="translate(-22.19 -14.13)"/><path class="cls-3" d="M277.3,183.94a2.33,2.33,0,0,1-1.27-.38l-7.72-5a8.16,8.16,0,0,0-4.94-.89,54.67,54.67,0,0,0-12.68,3.07,2.34,2.34,0,1,1-1.61-4.39A59,59,0,0,1,262.75,173a12.83,12.83,0,0,1,7.87,1.46l.15.09,7.8,5a2.34,2.34,0,0,1-1.27,4.31Z" transform="translate(-22.19 -14.13)"/><path class="cls-3" d="M218,259.54a8.1,8.1,0,0,1-2.83-.5,2.34,2.34,0,0,1,1.62-4.39c2.11.78,5.13-.84,8.06-2.41,3.82-2,8.14-4.37,12.16-2.12,3.25,1.82,6.53.6,8.93-.3l1.07-.38a4.42,4.42,0,0,1,4.4,1c.32.3.7.69,1.14,1.14,1.1,1.13,2.93,3,4.15,3.42a2.34,2.34,0,0,1-1.43,4.46c-2.34-.75-4.5-3-6.08-4.62-.32-.33-.61-.63-.85-.87l-.76.28c-2.7,1-7.72,2.88-12.86,0-1.77-1-4.63.54-7.65,2.16C224.21,257.87,221.11,259.54,218,259.54Z" transform="translate(-22.19 -14.13)"/><path class="cls-4" d="M361.41,431.32a2.34,2.34,0,0,1-2.12-1.35C345.2,399.73,261,289.48,260.15,288.38a2.34,2.34,0,0,1,3.72-2.84c3.48,4.55,85.37,111.76,99.66,142.46a2.34,2.34,0,0,1-2.12,3.33Z" transform="translate(-22.19 -14.13)"/><path class="cls-5" d="M248.87,326" transform="translate(-22.19 -14.13)"/><path class="cls-4" d="M25.15,366.8a1.87,1.87,0,0,1-1.39-3.13c.19-.21,18.89-21.27,43.34-77.47,24.37-56,36-60.86,37.3-61.24a1.87,1.87,0,0,1,1.14,3.57c-.36.16-11.74,5.71-35,59.17-24.75,56.87-43.23,77.63-44,78.48A1.87,1.87,0,0,1,25.15,366.8Z" transform="translate(-22.19 -14.13)"/><path class="cls-3" d="M249,165a2.81,2.81,0,0,1-.71-5.53l21.58-5.65a2.81,2.81,0,0,1,1.42,5.43l-21.58,5.65A2.81,2.81,0,0,1,249,165Z" transform="translate(-22.19 -14.13)"/><path class="cls-6" d="M103,207.94a2.34,2.34,0,0,1-2.24-3c.74-2.39-1.23-4.41-4.55-7.46-2-1.83-4.07-3.73-5.22-6-3-6.05-.56-9.6.64-10.85a6.72,6.72,0,0,1,7.3-1.74A2.34,2.34,0,0,1,97,183.11a2.13,2.13,0,0,0-2,.71c-1.08,1.12-1,3.13.18,5.52.76,1.52,2.5,3.12,4.19,4.67,3.35,3.07,7.52,6.89,5.86,12.29A2.34,2.34,0,0,1,103,207.94Z" transform="translate(-22.19 -14.13)"/><path class="cls-3" d="M239.08,270.72a19.55,19.55,0,0,1-6.59-1.17,2.34,2.34,0,0,1,1.57-4.41,13.05,13.05,0,0,0,9.4.11,2.34,2.34,0,1,1,2.09,4.19A15.45,15.45,0,0,1,239.08,270.72Z" transform="translate(-22.19 -14.13)"/><path class="cls-3" d="M79.27,163.12c-2.27-17.65-3.21-32.79-2.88-43.4,2.11-68.33,56-103.12,112-103.12s78,28.93,89.88,54C282.93,80.4,287,91.18,287,115.5c0,8.42-4.07,23.79-4.08,23.63-1-30.89-12.34-46.92-15.86-51.85-4.8-6.74-13.34-15.31-19-12.5-7.09,3.51-5,16.64-12.15,16.85-15.87.47-34.73-37.7-71.06-20.12-21.28,10.3-22.7,29.41-22.26,49.15.56,24.8-6,38-14.64,47.61-3.79,4.19-12.91,10.17-20.55,9.64" transform="translate(-22.19 -14.13)"/><path class="cls-3" d="M108.38,180.41q-.56,0-1.12,0l.34-4.93c6.48.47,14.94-4.84,18.55-8.83,6.83-7.55,14.6-19.59,14-45.89-.45-20,1-40.47,23.65-51.43,25.16-12.18,42.72,1.19,55.55,10.95,6.39,4.87,11.91,9,16.52,8.93,1.83-.05,2.63-1.87,4-6,1.25-3.76,2.82-8.45,7.12-10.58,8.9-4.41,20,10.29,22.11,13.28,7.45,10.45,12.39,22.91,14.76,37.17a52.8,52.8,0,0,0,.7-7.52c0-23.89-4-34.37-8.49-43.84-10.67-22.58-31.37-52.6-87.65-52.6C137.15,19.07,81,50.59,78.86,119.79c-.33,10.78.68,26.05,2.86,43l-4.9.63c-2.21-17.21-3.24-32.76-2.9-43.79,1-32.57,13.69-59.89,36.68-79,20.57-17.09,48.2-26.51,77.82-26.51,59.08,0,80.87,31.63,92.11,55.43,4.73,10,9,21,9,45.95A81.67,81.67,0,0,1,287.43,131c-.54,2.61-1.07,4.84-1.42,6.25-.8,3.26-1.07,4.36-3,4.39l-2.43,0-.08-2.43c-.67-20.12-5.85-37.11-15.4-50.5-5-7-12.27-13.52-15.9-11.72-2.46,1.22-3.52,4.38-4.63,7.72-1.37,4.11-3.08,9.22-8.55,9.39-6.36.18-12.51-4.5-19.65-9.94-12.46-9.48-28-21.29-50.41-10.43-20,9.69-21.3,27.7-20.87,46.87.49,21.88-4.22,37.09-15.28,49.32C125.75,174.41,116.61,180.41,108.38,180.41Z" transform="translate(-22.19 -14.13)"/><path class="cls-3" d="M229.26,308.74a54.9,54.9,0,0,1-17.79-3.26c-23.39-8-78.87-37.3-101.09-76.66a2.34,2.34,0,1,1,4.08-2.3c21.56,38.2,75.69,66.71,98.53,74.54,31.76,10.88,41.93-11.59,42.34-12.55.49-1.12,1-2.27,1.62-3.51,21-42.95,23.55-103.38,23.64-145.11a2.34,2.34,0,0,1,2.34-2.33h0a2.34,2.34,0,0,1,2.33,2.34c-.09,42.19-2.69,103.34-24.11,147.15-.57,1.17-1.07,2.26-1.53,3.32S251.34,308.74,229.26,308.74Z" transform="translate(-22.19 -14.13)"/><path class="cls-3" d="M236.5,307.19a2.34,2.34,0,0,1-1.33-4.26c6.27-4.34,1.69-13.69,1.64-13.78A2.34,2.34,0,0,1,241,287c2.26,4.5,4.5,14.42-3.16,19.73A2.33,2.33,0,0,1,236.5,307.19Z" transform="translate(-22.19 -14.13)"/><path class="cls-3" d="M225.68,162.2a2.34,2.34,0,0,1-1.14-4.39c3.7-2,0-10.43-.05-10.51a2.34,2.34,0,1,1,4.24-2c2.15,4.58,4.16,13.23-1.92,16.59A2.33,2.33,0,0,1,225.68,162.2Z" transform="translate(-22.19 -14.13)"/><path class="cls-3" d="M248.61,163.68a2.39,2.39,0,0,1-1.9-.95c-2.14-2.84-1.2-11.73-.45-16.77a2.34,2.34,0,0,1,4.63.69c-.88,5.89-1.07,12.11-.41,13.31a2.33,2.33,0,0,1-1.87,3.72Z" transform="translate(-22.19 -14.13)"/><g id="_Группа_" data-name="&lt;Группа&gt;"><path class="cls-3" d="M132.25,257.61C162.33,300.18,267.41,419.8,237.89,444.5l-.3,2.95-70.75-7.28.3-2.95S104.34,265.59,102,249.32s5.64-22.72,5.64-22.72l.13-.1c10.32,13.78,10.8,13.14,24.42,31.12Z" transform="translate(-22.19 -14.13)"/></g><path class="cls-4" d="M218.67,362s-20.8-8.53-42.56,11.65-15.23,19.28-28.62,25.81c0,0,42.55,29.68,63.78,12.74a45.27,45.27,0,0,0,13.87-24.71S223.06,376.8,218.67,362Z" transform="translate(-22.19 -14.13)"/><path class="cls-7" d="M103,227.81S93,231.79,66.92,288c-27,58.17-44.73,81.87-44.73,81.87S50.27,443.37,193,455.76c0,0-89.34-185.24-93.08-200.37A41.41,41.41,0,0,1,103,227.81" transform="translate(-22.19 -14.13)"/><path class="cls-4" d="M188.55,451.69a2.34,2.34,0,0,1-2.13-1.36C183,443,103.3,270.08,99.54,254.92a35.91,35.91,0,0,1,4.51-28.09,2.34,2.34,0,0,1,3.81,2.71h0a31.76,31.76,0,0,0-3.78,24.25c3.65,14.74,85.76,192.78,86.59,194.57a2.34,2.34,0,0,1-2.12,3.32Z" transform="translate(-22.19 -14.13)"/><path class="cls-4" d="M117.31,221.25c0,7.75-12.42,6.6-15.47,2.48C79.79,194,67.23,158.07,91.72,154.1c8.61-1.39,14.77,9.92,15.71,23.8" transform="translate(-22.19 -14.13)"/><path class="cls-3" d="M110.11,229.3c-4,0-8.24-1.6-10.15-4.17C85.63,205.81,71.16,177.69,77.54,162c2.26-5.56,7-9.08,13.8-10.18a11.25,11.25,0,0,1,9,2.49c5.2,4.13,8.73,12.91,9.44,23.47a2.34,2.34,0,1,1-4.67.31c-.62-9.13-3.56-16.84-7.68-20.12a6.54,6.54,0,0,0-5.32-1.53c-5.22.84-8.56,3.24-10.22,7.32-4.58,11.28,4.19,34.83,21.84,58.6,1.27,1.71,5.84,2.94,9,1.91a2.86,2.86,0,0,0,2.3-3,2.34,2.34,0,0,1,4.68,0,7.52,7.52,0,0,1-5.51,7.44A12.91,12.91,0,0,1,110.11,229.3Z" transform="translate(-22.19 -14.13)"/><path class="cls-3" d="M103.24,208.8a2.34,2.34,0,0,1-2.24-3c.74-2.39-1.23-4.41-4.55-7.46-2-1.83-4.07-3.73-5.22-6-3-6.05-.56-9.6.64-10.85a6.73,6.73,0,0,1,7.3-1.74A2.34,2.34,0,0,1,97.25,184a2.13,2.13,0,0,0-2,.71c-1.08,1.12-1,3.13.18,5.51.76,1.52,2.51,3.12,4.19,4.67,3.35,3.07,7.52,6.89,5.86,12.29A2.34,2.34,0,0,1,103.24,208.8Z" transform="translate(-22.19 -14.13)"/><path class="cls-4" d="M241.38,362s19.61-2.4,37.16,19.59,11.54,20.23,23.18,28.25c0,0-45.57,13.39-61.59,2.91,0,0-10.1-5.82-9.61-11.25.83-9.18.1-13.87.1-13.87S244.25,370.46,241.38,362Z" transform="translate(-22.19 -14.13)"/><path class="cls-3" d="M259.1,418.21c-7.82,0-15-1.12-19.79-4.25-1-.6-10.83-6.43-10.27-12.63.8-8.84.12-13.46.12-13.51l-.1-.64.4-.51c3.65-4.59,12.66-17.89,10.51-24.23l-.58-1.72,1.81-.22c.83-.1,20.64-2.25,38.49,20.14a179.19,179.19,0,0,1,12.89,17.92c2.8,4.42,3.55,5.61,10,10l2.56,1.76-3,.88C300.79,411.62,278.07,418.21,259.1,418.21ZM232.16,388a71.53,71.53,0,0,1-.17,13.57c-.33,3.65,6.46,8.45,8.87,9.84,13,8.51,47.13.48,57.44-2.23-4.66-3.44-5.73-5.13-8.22-9.07a176.4,176.4,0,0,0-12.71-17.65c-14-17.49-29.25-19.08-34.19-19.11C244.13,372,234.53,385,232.16,388Z" transform="translate(-22.19 -14.13)"/><path class="cls-4" d="M153,285.45s47.39,67.14,66.17,67.09C232.3,352.5,241,347,242.86,317" transform="translate(-22.19 -14.13)"/><path class="cls-3" d="M219.16,354.88c-19.45,0-63.14-61.11-68.06-68.08l3.82-2.7c13,18.39,49.82,66.1,64.23,66.1h0c10.15,0,19.43-2.59,21.35-33.3l4.67.29c-2,31.23-11.81,37.65-26,37.69Z" transform="translate(-22.19 -14.13)"/><path class="cls-7" d="M260.89,288s75.55,62.09,95.3,89.73c1.39,2,10,31.44,10.85,33.17.68,1.33-68.63,35.9-71.36,27.05C279.13,384.36,245,320.54,245,320.54" transform="translate(-22.19 -14.13)"/><path class="cls-4" d="M219.42,353.08s-1.15,15.31-.24,26.18c1,11.85,15.8,9.87,20.73,3,3.35-4.68,7.25-19-6-33.61C233.91,348.61,230,353.59,219.42,353.08Z" transform="translate(-22.19 -14.13)"/><path class="cls-3" d="M228.38,389.77a13.18,13.18,0,0,1-3.5-.45c-4.47-1.23-7.28-4.84-7.7-9.9-.91-10.9.2-25.87.24-26.5l.15-1.94,1.94.09c9.3.47,12.7-3.55,12.84-3.72l1.47-1.78,1.57,1.69c13,14.33,10.68,29.76,6.14,36.12C238.75,387.29,233.36,389.77,228.38,389.77Zm-7.09-34.66a191.93,191.93,0,0,0-.12,24c.29,3.43,1.89,5.58,4.78,6.37,4.09,1.13,9.86-.93,12.34-4.41s6.67-16.05-4.54-29.6C231.69,353,227.74,355,221.29,355.11Z" transform="translate(-22.19 -14.13)"/><path class="cls-4" d="M298.19,446.76a2,2,0,0,1-1.92-1.45c-16.41-56.71-53.83-123.51-54.21-124.18a2,2,0,0,1,3.49-2c.38.67,38,67.87,54.56,125a2,2,0,0,1-1.92,2.56Z" transform="translate(-22.19 -14.13)"/><g id="_Группа_2" data-name="&lt;Группа&gt;"><path class="cls-3" d="M260.24,284.65c1.48,6.79,3.32,25.39-17.08,36.32-34.71,18.6-115.45-21.86-133.8-93.69l2.12-.54c21.85,38.7,76.45,70.41,99.81,78.41,30.43,10.43,42.89-11.19,45.25-16.64.51-1.15,1-2.28,1.58-3.41Z" transform="translate(-22.19 -14.13)"/></g></g></g></g></svg>