<?xml version="1.0" encoding="utf-8"?>
<!-- Generator: Adobe Illustrator 21.0.0, SVG Export Plug-In . SVG Version: 6.00 Build 0)  -->
<svg version="1.1" id="Layer_1" xmlns="http://www.w3.org/2000/svg" xmlns:xlink="http://www.w3.org/1999/xlink" x="0px" y="0px"
	 viewBox="0 0 180.1 179.9" style="enable-background:new 0 0 180.1 179.9;" xml:space="preserve" width="60" height="60">
<style type="text/css">
	.st0{fill:#D71920;}
</style>
<g>
	<path class="st0" d="M180.1,165v-41.9c0-3.8-1.4-7.4-4.1-10.2l0,0l-0.3-0.3l0,0l-6.1-6.1l0,0l-13.1-13.1l-7,7l19.3,19.3
		c0.9,0.9,1.4,2.2,1.4,3.5v41.9c0,2.7-2.2,4.9-4.9,4.9h-41.9c-1.3,0-2.6-0.5-3.5-1.4L103.3,152l0,0l-20.1-20.1l7-7l0,0l0,0
		l10.5,10.5l0,0l14,14c1.9,1.9,5.1,1.9,7,0s1.9-5.1,0-7l-14-14l0,0l-10.5-10.5l7-7l24.5,24.5c1.9,1.9,5.1,1.9,7,0s1.9-5.1,0-7
		l-24.5-24.5l3.4-3.4l-7-7l-24.4,24.4l0,0l-14,14l17.5,17.5l0,0l26.2,26.2c2.8,2.8,6.5,4.3,10.5,4.3h41.9
		C173.5,179.9,180.1,173.2,180.1,165z"/>
	<path class="st0" d="M13.3,62l-1.8-1.8c-0.9-0.9-1.4-2.2-1.4-3.5V14.8c0-1.3,0.5-2.6,1.4-3.5s2.2-1.4,3.5-1.4h42
		c1.3,0,2.6,0.5,3.5,1.4l28.9,28.9l0,0l7.8,7.8l-7,7L79.7,44.5l0,0l-14-14c-1.9-1.9-5.1-1.9-7,0c-1,1-1.4,2.2-1.4,3.5
		s0.5,2.5,1.4,3.5l14,14l0,0l0,0L83.2,62l-7,7L51.7,44.5c-1.9-1.9-5.1-1.9-7,0c-1,1-1.4,2.2-1.4,3.5s0.5,2.5,1.4,3.5L69.2,76
		l-3.6,3.6l7,7l38.5-38.5l-3.5-3.5l0,0L84.9,21.9L67.3,4.3C64.5,1.5,60.8,0,56.8,0h-42c-4,0-7.7,1.5-10.5,4.3S0,10.8,0,14.8v41.9
		c0,4,1.5,7.7,4.3,10.5l10.3,10.3l0,0l9,9l7-7L13.3,62L13.3,62z"/>
	<path class="st0" d="M86.5,156.4l-7-7L66,162.9l0,0l-5.6,5.6c-0.9,0.9-2.2,1.4-3.5,1.4H15c-1.3,0-2.6-0.5-3.5-1.4s-1.4-2.2-1.4-3.5
		l0,0v-41.9c0-1.3,0.5-2.6,1.4-3.5l26.2-26.2l0,0l10.5-10.5l4.1,4.1l0,0l2.9,2.9l-10.5,10.5l0,0l-14,14c-1,1-1.4,2.2-1.4,3.5
		s0.5,2.5,1.4,3.5c1.9,1.9,5.1,1.9,7,0l14-14l0,0l0,0l10.5-10.5l7,7l-24.5,24.5c-1,1-1.4,2.2-1.4,3.5s0.5,2.5,1.4,3.5
		c1.9,1.9,5.1,1.9,7,0l24.5-24.5l3.5,3.5l7-7L59.4,80.1L48.3,69L36.7,80.6L4.6,112.7c-2.8,2.8-4.3,6.5-4.3,10.5v41.9l0,0
		c0,4,1.5,7.7,4.3,10.5s6.5,4.3,10.5,4.3H57c4,0,7.7-1.5,10.5-4.3L80.1,163l0,0L86.5,156.4z"/>
	<path class="st0" d="M117.4,13.7L117.4,13.7l2.4-2.4c0.9-0.9,2.2-1.4,3.5-1.4h41.9c2.7,0,4.9,2.2,4.9,4.9v41.9l0,0
		c0,1.3-0.5,2.6-1.4,3.5l-22.4,22.4l0,0L132,96.9l-7-7l10.5-10.5l0,0l14-14c1.9-1.9,1.9-5.1,0-7s-5.1-1.9-7,0l-14,14l0,0L118,82.9
		l-7-7l24.5-24.5c1.9-1.9,1.9-5.1,0-7s-5.1-1.9-7,0L104,68.9l-3.5-3.5l-7,7l7,7l0,0l24.5,24.5l0,0l7,7l33.8-33.8l9.9-9.9
		c2.8-2.8,4.3-6.5,4.3-10.5l0,0V14.8C180,6.6,173.3,0,165.2,0h-41.9c-4,0-7.7,1.5-10.5,4.3l-2.4,2.4l0,0L93.5,23.6l7,7L117.4,13.7z"
		/>
	<path class="st0" d="M140.8,119.6l1.7,1.7c1.9,1.9,5.1,1.9,7,0s1.9-5.1,0-7l-1.7-1.7l0,0l-5.2-5.2l-7,7l5.1,5.1
		C140.7,119.5,140.7,119.6,140.8,119.6z"/>
	<path class="st0" d="M58.7,142.3c-1,1-1.4,2.2-1.4,3.5s0.5,2.5,1.4,3.5c1.9,1.9,5.1,1.9,7,0l1.7-1.7l0,0l0,0l5.2-5.2l-7-7l-5.1,5.1
		c0,0-0.1,0-0.1,0.1L58.7,142.3z"/>
	<path class="st0" d="M121.5,37.5c1.9-1.9,1.9-5.1,0-7s-5.1-1.9-7,0l-2.3,2.3c0,0,0,0.1-0.1,0.1l-4.7,4.7l7,7l4.7-4.7l0,0
		L121.5,37.5z"/>
	<path class="st0" d="M37.7,58.5c-1.9-1.9-5.1-1.9-7,0c-1,1-1.4,2.2-1.4,3.5s0.5,2.5,1.4,3.5l2.9,2.9c0,0,0.1,0,0.1,0.1l4,4l7-7
		l-4.1-4.1l0,0l0,0L37.7,58.5z"/>
</g>
</svg>
