<svg xmlns="http://www.w3.org/2000/svg" viewBox="0 0 799.9 180">
    <defs>
        <style>.cls-1{fill:#b81e24;}</style>
    </defs>
    <title>ubs_logo_3</title>
    <g id="Слой_2" data-name="Слой 2">
        <g id="Layer_2" data-name="Layer 2">
            <path class="cls-1"
                  d="M243.62,73.76,230.27,50.37a.75.75,0,0,0-.66-.38h-9a.75.75,0,0,0-.65,1.14l18.55,31.1a.77.77,0,0,1,0,.71,32.94,32.94,0,0,1-2.75,5.14,6.9,6.9,0,0,1-2.2,2,5.88,5.88,0,0,1-2.81.63A12.52,12.52,0,0,1,226,89.59a.76.76,0,0,0-1,.45l-2.4,7.21a.76.76,0,0,0,.39.92,16.46,16.46,0,0,0,3.32,1.16,20.27,20.27,0,0,0,4.93.61,15.24,15.24,0,0,0,6-1.07,12.4,12.4,0,0,0,4.51-3.39,34.46,34.46,0,0,0,4.42-7.36L264,51.07a.75.75,0,0,0-.68-1.08h-8.76a.75.75,0,0,0-.69.45Z"/>
            <path class="cls-1"
                  d="M300.44,64.15l8.5-13a.75.75,0,0,0-.63-1.17h-8.68a.75.75,0,0,0-.64.35l-7,11a48.49,48.49,0,0,1-5.4,7.46q-2.08,2.15-3.9,2.15V50.74A.75.75,0,0,0,282,50h-8.8a.75.75,0,0,0-.75.75V98.49a.75.75,0,0,0,.75.75h8.77a.75.75,0,0,0,.75-.75V78.1a8.93,8.93,0,0,0,2.38-.38,7.77,7.77,0,0,0,2.06-.84l12.86,22a.75.75,0,0,0,.65.37h9.43a.75.75,0,0,0,.64-1.15L294.46,72Q296.1,70.75,300.44,64.15Z"/>
            <path class="cls-1"
                  d="M355.63,54.06Q350.86,50,342,50H320.64a.75.75,0,0,0-.75.75V98.49a.75.75,0,0,0,.75.75h8.8a.75.75,0,0,0,.75-.75V81.91h12.24a21,21,0,0,0,9.6-2,14.62,14.62,0,0,0,6.21-5.79,16.64,16.64,0,0,0,2.17-8.5Q360.41,58.13,355.63,54.06Zm-7.92,17.8A9.38,9.38,0,0,1,341.14,74H330.2V58h10.66Q350,58,350,65.75A7.86,7.86,0,0,1,347.71,71.86Z"/>
            <path class="cls-1"
                  d="M409.37,73.43q-4.44-3.83-12.66-3.83H380V57.92h26a.75.75,0,0,0,.75-.75V50.74A.75.75,0,0,0,406,50H370.44a.75.75,0,0,0-.75.75V98.49a.75.75,0,0,0,.75.75h25.15a23.39,23.39,0,0,0,9.77-1.89,14.12,14.12,0,0,0,6.29-5.3,14.46,14.46,0,0,0,2.15-7.88Q413.81,77.26,409.37,73.43ZM393.91,91.21H380V77.54H393.7q4.83,0,7.25,1.77a5.83,5.83,0,0,1,2.43,5Q403.39,91.21,393.91,91.21Z"/>
            <path class="cls-1"
                  d="M442.69,73.76,429.34,50.37a.75.75,0,0,0-.66-.38h-9a.75.75,0,0,0-.65,1.14l18.55,31.1a.77.77,0,0,1,0,.71,32.94,32.94,0,0,1-2.75,5.14,6.9,6.9,0,0,1-2.2,2,5.88,5.88,0,0,1-2.81.63,12.52,12.52,0,0,1-4.83-1.13.76.76,0,0,0-1,.45l-2.4,7.21a.76.76,0,0,0,.39.92,16.46,16.46,0,0,0,3.32,1.16,20.27,20.27,0,0,0,4.93.61,15.24,15.24,0,0,0,6-1.07,12.4,12.4,0,0,0,4.51-3.39,34.46,34.46,0,0,0,4.42-7.36L463,51.07a.75.75,0,0,0-.68-1.08H453.6a.75.75,0,0,0-.69.45Z"/>
            <path class="cls-1"
                  d="M507.22,54.06Q502.45,50,493.6,50H472.23a.75.75,0,0,0-.75.75V98.49a.75.75,0,0,0,.75.75H481a.75.75,0,0,0,.75-.75V81.91H494a21,21,0,0,0,9.6-2,14.62,14.62,0,0,0,6.21-5.79,16.64,16.64,0,0,0,2.17-8.5Q512,58.13,507.22,54.06Zm-7.92,17.8A9.38,9.38,0,0,1,492.73,74H481.78V58h10.66q9.16,0,9.16,7.76A7.86,7.86,0,0,1,499.3,71.86Z"/>
            <path class="cls-1"
                  d="M543.48,91.84q-7,0-10.75-4.48t-3.72-13q0-8.36,3.62-12.69t10.61-4.34a14.31,14.31,0,0,1,8,2.19,10.62,10.62,0,0,1,4.3,5.22.76.76,0,0,0,.91.48L564,63.17a.76.76,0,0,0,.52-1,18.24,18.24,0,0,0-7.39-9.46q-5.45-3.48-14.12-3.48-11.89,0-18.15,6.5t-6.26,18.64q0,12.1,6.49,18.83t18.37,6.73a25,25,0,0,0,13.44-3.48,21.23,21.23,0,0,0,8.21-9.88.76.76,0,0,0-.43-1l-7.56-2.85a.76.76,0,0,0-1,.42Q552.47,91.84,543.48,91.84Z"/>
            <path class="cls-1"
                  d="M585.52,78.31h25.54a.75.75,0,0,0,.75-.75V71.09a.75.75,0,0,0-.75-.75H585.52V58h27.67a.75.75,0,0,0,.75-.75V50.74a.75.75,0,0,0-.75-.75H576a.75.75,0,0,0-.75.75V98.49a.75.75,0,0,0,.75.75h38.66a.75.75,0,0,0,.75-.75V92a.75.75,0,0,0-.75-.75h-29.1Z"/>
            <path class="cls-1"
                  d="M662.49,54.06Q657.72,50,648.88,50H627.5a.75.75,0,0,0-.75.75V98.49a.75.75,0,0,0,.75.75h8.8a.75.75,0,0,0,.75-.75V81.91H649.3a21,21,0,0,0,9.6-2,14.62,14.62,0,0,0,6.21-5.79,16.64,16.64,0,0,0,2.17-8.5Q667.27,58.13,662.49,54.06Zm-7.92,17.8A9.38,9.38,0,0,1,648,74H637.06V58h10.66q9.16,0,9.16,7.76A7.86,7.86,0,0,1,654.58,71.86Z"/>
            <path class="cls-1"
                  d="M707.45,73.34a11.91,11.91,0,0,0,7.08-3.9,10.92,10.92,0,0,0,2.32-7.08,10.44,10.44,0,0,0-4.63-9.25Q707.59,50,698.57,50h-21.8a.75.75,0,0,0-.75.75V98.49a.75.75,0,0,0,.75.75h23.89q8.95,0,14-3.67a12.1,12.1,0,0,0,5-10.38,10.81,10.81,0,0,0-3.13-8.09Q713.43,74,707.45,73.34Zm-21.12-15.7h11.75a11.46,11.46,0,0,1,6.28,1.4q2.11,1.4,2.12,4.72a5.4,5.4,0,0,1-2,4.56q-2,1.52-6.35,1.52H686.33ZM707,89.79q-2.29,1.8-7.25,1.8H686.33V77.47h13.08q9.93,0,9.93,6.92A6.45,6.45,0,0,1,707,89.79Z"/>
            <rect class="cls-1" x="731.51" y="49.99" width="10.31" height="49.26" rx="0.75" ry="0.75"/>
            <path class="cls-1"
                  d="M791.84,82.72a.76.76,0,0,0-1,.42q-3.71,8.69-12.69,8.69-7,0-10.75-4.48t-3.72-13q0-8.36,3.62-12.69t10.61-4.34a14.31,14.31,0,0,1,8,2.19,10.62,10.62,0,0,1,4.3,5.22.76.76,0,0,0,.91.48l7.63-2.08a.76.76,0,0,0,.52-1,18.24,18.24,0,0,0-7.39-9.46q-5.45-3.48-14.12-3.48-11.89,0-18.15,6.5t-6.26,18.64q0,12.1,6.49,18.83t18.37,6.73a25,25,0,0,0,13.44-3.48,21.23,21.23,0,0,0,8.21-9.88.76.76,0,0,0-.43-1Z"/>
            <path class="cls-1"
                  d="M180,165.15V123.25a14.71,14.71,0,0,0-4.06-10.18h0l-.29-.29h0l-6.14-6.14h0L156.4,93.52l-7,7,19.25,19.25a5,5,0,0,1,1.45,3.49v41.89a5,5,0,0,1-4.94,4.94l-41.93,0a5,5,0,0,1-3.5-1.45l-16.62-16.62h0L83,131.94l7-7h0l10.48,10.48h0l14,14a4.94,4.94,0,0,0,7-7l-14-14h0L97,118l7-7,24.46,24.46a4.94,4.94,0,1,0,7-7L111,104l3.43-3.43-7-7L83,118h0l-14,14,17.47,17.47h0l26.25,26.25A14.73,14.73,0,0,0,123.25,180l41.93,0A14.84,14.84,0,0,0,180,165.15Z"/>
            <path class="cls-1"
                  d="M13.17,62.09l-1.84-1.84a4.91,4.91,0,0,1-1.45-3.49V14.82a4.94,4.94,0,0,1,4.95-4.94l42,0a4.91,4.91,0,0,1,3.49,1.45L89.15,40.25h0L97,48.08l-7,7L79.52,44.59h0l-14-14a4.94,4.94,0,1,0-7,7l14,14h0L83,62.06l-7,7L51.57,44.59a4.94,4.94,0,1,0-7,7L69,76l-3.56,3.56,7,7L111,48.09l-3.48-3.48h0L84.83,21.95,67.26,4.38A14.73,14.73,0,0,0,56.79,0l-42,0A14.83,14.83,0,0,0,0,14.82V56.76A14.73,14.73,0,0,0,4.34,67.24L14.59,77.49h0l9,9,7-7L13.17,62.09Z"/>
            <path class="cls-1"
                  d="M86.44,156.47l-7-7L65.92,163h0l-5.64,5.64a4.91,4.91,0,0,1-3.49,1.45H14.84a4.94,4.94,0,0,1-4.94-4.94h0V123.23a4.91,4.91,0,0,1,1.45-3.49L37.6,93.5h0L48.08,83l4.09,4.09h0l2.9,2.9L44.58,100.49h0l-14,14a4.94,4.94,0,1,0,7,7l14-14h0L62.05,97l7,7L44.58,128.45a4.94,4.94,0,1,0,7,7L76,111l3.51,3.51,7-7L59.2,80.17,48.08,69,36.44,80.69,4.37,112.75A14.73,14.73,0,0,0,0,123.23v41.93H0A14.82,14.82,0,0,0,14.84,180H56.78a14.73,14.73,0,0,0,10.48-4.34L79.89,163h0Z"/>
            <path class="cls-1"
                  d="M117.32,13.79h0l2.44-2.44a4.91,4.91,0,0,1,3.49-1.45h41.91a5,5,0,0,1,4.94,4.94l0,41.93h0a4.91,4.91,0,0,1-1.45,3.49L146.28,82.65h0L131.93,97l-7-7,10.48-10.48h0l14-14a4.94,4.94,0,0,0-7-7l-14,14,0,0L118,83l-7-7,24.46-24.45a4.94,4.94,0,1,0-7-7L104,69l-3.48-3.48-7,7,7,7h0L124.94,104h0l7,7,33.8-33.8,9.93-9.93A14.73,14.73,0,0,0,180,56.77h0l0-41.93A14.84,14.84,0,0,0,165.16,0H123.25a14.73,14.73,0,0,0-10.48,4.34L110.33,6.8h0L93.44,23.69l7,7Z"/>
            <path class="cls-1"
                  d="M140.67,119.71l1.75,1.75a4.94,4.94,0,1,0,7-7l-1.74-1.74h0l-5.23-5.23-7,7,5.13,5.13Z"/>
            <path class="cls-1" d="M58.56,142.42a4.94,4.94,0,1,0,7,7l1.75-1.75h0l5.17-5.17-7-7-5.11,5.11-.07.06Z"/>
            <path class="cls-1" d="M121.45,37.6a4.94,4.94,0,1,0-7-7l-2.32,2.32-.06.07-4.66,4.66,7,7,4.74-4.74h0Z"/>
            <path class="cls-1" d="M37.6,58.57a4.94,4.94,0,1,0-7,7l2.91,2.91.09.07,4,4,7-7-4.08-4.08h0Z"/>
            <path class="cls-1"
                  d="M235.83,120.82q4.61,0,6.79,2.71t2.18,8.15q0,5.5-2.59,8.19t-7.54,2.69q-5.11,0-7.52-3.34t-2.42-10.28a35.53,35.53,0,0,1,.48-6.2,15.82,15.82,0,0,1,1.49-4.6,10.07,10.07,0,0,1,2.63-3.22,12.65,12.65,0,0,1,4-2.08A76.55,76.55,0,0,1,243.74,111v3.34q-8.7,1.12-11.26,2.14a6.36,6.36,0,0,0-3.6,3.24,17.14,17.14,0,0,0-1.12,6.64,7.89,7.89,0,0,1,3-4A8.71,8.71,0,0,1,235.83,120.82Zm5,10.9q0-4.19-1.37-6.18a5,5,0,0,0-4.46-2,5.72,5.72,0,0,0-4.85,2q-1.55,2-1.55,6.14t1.44,6.05a5.19,5.19,0,0,0,4.54,2q3.34,0,4.8-1.94T240.87,131.72Z"/>
            <path class="cls-1"
                  d="M249.61,151a12.23,12.23,0,0,1-2.57-.23v-2.8a11.22,11.22,0,0,0,1.74.12q3.49,0,5.52-5.13l.35-.89-8.91-22.36h4l4.73,12.41.25.7q.15.4.93,2.71t.85,2.57L258,134l4.92-14.3h3.94l-8.64,22.46a27.32,27.32,0,0,1-2.59,5.35,8.59,8.59,0,0,1-2.67,2.62A6.4,6.4,0,0,1,249.61,151Z"/>
            <path class="cls-1"
                  d="M288.28,130.8q0,11.75-8.26,11.75-5.19,0-7-3.9h-.1a31.35,31.35,0,0,1,.08,3.53V151h-3.74V124.26q0-3.47-.12-4.59h3.61q0,.08.06.59t.09,1.57q.05,1.06.05,1.45h.08a6.81,6.81,0,0,1,2.64-3,8.46,8.46,0,0,1,4.32-1,7.22,7.22,0,0,1,6.21,2.78Q288.28,124.85,288.28,130.8Zm-3.92.08q0-4.69-1.27-6.7a4.4,4.4,0,0,0-4-2,5,5,0,0,0-5.39,3.85,16.84,16.84,0,0,0-.65,5.16q0,4.42,1.41,6.52a5.13,5.13,0,0,0,4.59,2.1,4.43,4.43,0,0,0,4.06-2Q284.36,135.7,284.36,130.89Z"/>
            <path class="cls-1"
                  d="M311.93,130.89q0,5.9-2.59,8.78t-7.54,2.89q-4.92,0-7.43-3t-2.51-8.67q0-11.62,10.07-11.62,5.15,0,7.58,2.83T311.93,130.89Zm-3.92,0q0-4.65-1.38-6.76T302,122a5.32,5.32,0,0,0-4.74,2.15q-1.46,2.15-1.46,6.72t1.44,6.67a5,5,0,0,0,4.54,2.23q3.36,0,4.81-2.16T308,130.89Z"/>
            <path class="cls-1"
                  d="M325.42,119.68q4.15,0,6.23,1.45a4.78,4.78,0,0,1,2.08,4.17,4.57,4.57,0,0,1-1.18,3.22,6.09,6.09,0,0,1-3.45,1.72v.15a6.73,6.73,0,0,1,4,1.7,4.85,4.85,0,0,1,1.34,3.57,5.63,5.63,0,0,1-2.27,4.76,10.23,10.23,0,0,1-6.28,1.71h-9.24V119.68Zm-5,2.84v6.64h4.48a7.16,7.16,0,0,0,3.79-.75,3.53,3.53,0,0,0,.07-5.11,6.13,6.13,0,0,0-3.57-.79Zm0,16.86h4.9a6.87,6.87,0,0,0,4-.88,3.3,3.3,0,0,0,1.16-2.81,3.35,3.35,0,0,0-1.24-3,7.64,7.64,0,0,0-4.2-.86h-4.65Z"/>
            <path class="cls-1"
                  d="M344.41,142.55a6.71,6.71,0,0,1-5.09-1.79,6.81,6.81,0,0,1-1.7-4.9,6.51,6.51,0,0,1,2.29-5.36q2.29-1.87,7.4-2l5-.08v-1.22a5.47,5.47,0,0,0-1.16-3.92,4.93,4.93,0,0,0-3.65-1.18,6.18,6.18,0,0,0-3.65.85,3.78,3.78,0,0,0-1.37,2.72l-3.9-.35q1-6.06,9-6.06,4.23,0,6.37,1.94a7.2,7.2,0,0,1,2.14,5.61v9.67a5.61,5.61,0,0,0,.44,2.5,1.69,1.69,0,0,0,1.66.84,6,6,0,0,0,1.22-.15V142a12.55,12.55,0,0,1-2.89.33,3.8,3.8,0,0,1-3-1.09,5.61,5.61,0,0,1-1.07-3.41h-.12a9.07,9.07,0,0,1-3.33,3.64A9.29,9.29,0,0,1,344.41,142.55Zm.85-2.8a7.11,7.11,0,0,0,3.65-.93,6.8,6.8,0,0,0,2.52-2.56,6.72,6.72,0,0,0,.92-3.35v-1.85l-4.09.08a12.83,12.83,0,0,0-4,.54,4.24,4.24,0,0,0-2.09,1.54,4.65,4.65,0,0,0-.73,2.72,3.84,3.84,0,0,0,1,2.82A3.78,3.78,0,0,0,345.26,139.75Z"/>
            <path class="cls-1"
                  d="M370.14,119.68h3.74v9.84a3.53,3.53,0,0,0,1.12-.17,2.81,2.81,0,0,0,1-.7,11.54,11.54,0,0,0,1.22-1.48q.69-1,4.73-7.49h3.9l-4.48,6.75a21.07,21.07,0,0,1-2.66,3.43l7.33,12.29h-4.15l-5.77-10.32a5.34,5.34,0,0,1-1.07.29,6.75,6.75,0,0,1-1.21.12v9.9h-3.74Z"/>
            <path class="cls-1"
                  d="M408.21,130.89q0,5.9-2.59,8.78t-7.54,2.89q-4.92,0-7.43-3t-2.51-8.67q0-11.62,10.07-11.62,5.15,0,7.58,2.83T408.21,130.89Zm-3.92,0q0-4.65-1.38-6.76T398.26,122a5.32,5.32,0,0,0-4.74,2.15q-1.46,2.15-1.46,6.72t1.44,6.67a5,5,0,0,0,4.54,2.23q3.36,0,4.81-2.16T404.28,130.89Z"/>
            <path class="cls-1"
                  d="M426.33,142.14h-3.18l-6.73-19.74q.12,3.24.12,4.71v15h-3.61V119.68h5.81l4.57,13.72a25.7,25.7,0,0,1,1.41,5.94,28.33,28.33,0,0,1,1.41-5.94l4.57-13.72h5.58v22.46H432.7v-15l.06-2.37.1-2.39Z"/>
            <path class="cls-1" d="M459.29,119.68v22.46h-3.74V122.4H445.9v19.74h-3.74V119.68Z"/>
            <path class="cls-1"
                  d="M470.83,142.55a6.71,6.71,0,0,1-5.09-1.79,6.81,6.81,0,0,1-1.7-4.9,6.51,6.51,0,0,1,2.29-5.36q2.29-1.87,7.4-2l5-.08v-1.22a5.47,5.47,0,0,0-1.16-3.92,4.93,4.93,0,0,0-3.65-1.18,6.18,6.18,0,0,0-3.65.85,3.78,3.78,0,0,0-1.37,2.72l-3.9-.35q1-6.06,9-6.06,4.23,0,6.37,1.94a7.2,7.2,0,0,1,2.14,5.61v9.67A5.61,5.61,0,0,0,483,139a1.69,1.69,0,0,0,1.66.84,6,6,0,0,0,1.22-.15V142a12.55,12.55,0,0,1-2.89.33,3.8,3.8,0,0,1-3-1.09,5.61,5.61,0,0,1-1.07-3.41h-.12a9.07,9.07,0,0,1-3.33,3.64A9.29,9.29,0,0,1,470.83,142.55Zm.85-2.8a7.11,7.11,0,0,0,3.65-.93,6.8,6.8,0,0,0,2.52-2.56,6.72,6.72,0,0,0,.92-3.35v-1.85l-4.09.08a12.83,12.83,0,0,0-4,.54,4.24,4.24,0,0,0-2.09,1.54,4.65,4.65,0,0,0-.73,2.72,3.84,3.84,0,0,0,1,2.82A3.78,3.78,0,0,0,471.68,139.75Z"/>
            <path class="cls-1" d="M492.56,119.68v9.51h10.11v-9.51h3.74v22.46h-3.74V131.9H492.56v10.23h-3.74V119.68Z"/>
            <path class="cls-1" d="M512.2,114.9v-3.57h3.74v3.57Zm0,27.23V119.68h3.74v22.46Z"/>
            <path class="cls-1"
                  d="M529.91,132.63l-6.54,9.51h-4.21l7.14-9.78q-5.17-1.06-5.17-6.48a5.29,5.29,0,0,1,2.24-4.65q2.24-1.56,6.54-1.56h9v22.46h-3.74v-9.51Zm5.23-10.32h-4.86a6.51,6.51,0,0,0-3.94,1,3.41,3.41,0,0,0-1.25,2.89,3.66,3.66,0,0,0,1.11,2.92,5.6,5.6,0,0,0,3.68,1h5.25Z"/>
        </g>
    </g>
</svg>