<svg xmlns="http://www.w3.org/2000/svg" viewBox="0 0 72.74 72.74"><defs><style>.cls-1{fill:#fff;stroke:#b13536;stroke-linecap:round;stroke-linejoin:round;stroke-width:2px;}</style></defs><title>UBS_team</title><g id="Слой_2" data-name="Слой 2"><g id="Слой_1-2" data-name="Слой 1"><path class="cls-1" d="M48.44,33.35l-4.53,4.53a2.13,2.13,0,0,0,0,3h0a2.13,2.13,0,0,0,3,0l4.53-4.53,5.81-5.81a4.58,4.58,0,0,0,0-6.47l-8.61-8.61a4.58,4.58,0,0,0-6.47,0l-5.81,5.81-6,6a2.13,2.13,0,0,0,0,3h0a2.13,2.13,0,0,0,3,0l6-6"/><path class="cls-1" d="M48.44,33.35,39.39,42.4a2.13,2.13,0,0,1-3,0h0a2.13,2.13,0,0,1,0-3l9.05-9.05"/><path class="cls-1" d="M45.42,30.33,33.35,42.4a2.13,2.13,0,0,1-3,0h0a2.13,2.13,0,0,1,0-3L42.4,27.32"/><path class="cls-1" d="M42.4,27.32,31.84,37.88a2.13,2.13,0,0,1-3,0h0a2.13,2.13,0,0,1,0-3L39.39,24.3"/><rect class="cls-1" x="48.33" y="5.21" width="21.33" height="17.07" rx="2.02" ry="2.02" transform="translate(91 65.17) rotate(-135)"/><circle class="cls-1" cx="55.98" cy="7.71" r="1.07" transform="translate(10.95 41.84) rotate(-45)"/><line class="cls-1" x1="48.46" y1="9.33" x2="63.48" y2="24.34"/><path class="cls-1" d="M33.42,24.37l4.53,4.53a2.13,2.13,0,0,0,3,0h0a2.13,2.13,0,0,0,0-3l-4.53-4.53-5.81-5.81a4.58,4.58,0,0,0-6.47,0l-8.61,8.61a4.58,4.58,0,0,0,0,6.47l5.81,5.81,6,6a2.13,2.13,0,0,0,3,0h0a2.13,2.13,0,0,0,0-3l-6-6"/><path class="cls-1" d="M33.42,24.37l9.05,9.05a2.13,2.13,0,0,1,0,3h0a2.13,2.13,0,0,1-3,0l-9.05-9.05"/><path class="cls-1" d="M30.41,27.39,42.47,39.46a2.13,2.13,0,0,1,0,3h0a2.13,2.13,0,0,1-3,0L27.39,30.4"/><path class="cls-1" d="M27.39,30.4,37.95,41a2.13,2.13,0,0,1,0,3h0a2.13,2.13,0,0,1-3,0L24.37,33.42"/><rect class="cls-1" x="3.15" y="5.28" width="21.33" height="17.07" rx="2.02" ry="2.02" transform="translate(33.35 13.81) rotate(135)"/><circle class="cls-1" cx="7.78" cy="16.83" r="1.07" transform="translate(-9.62 10.43) rotate(-45)"/><line class="cls-1" x1="9.4" y1="24.34" x2="24.42" y2="9.33"/><path class="cls-1" d="M24.3,39.39l4.53-4.53a2.13,2.13,0,0,0,0-3h0a2.13,2.13,0,0,0-3,0l-4.53,4.53-5.81,5.81a4.58,4.58,0,0,0,0,6.47l8.61,8.61a4.58,4.58,0,0,0,6.47,0l5.81-5.81,6-6a2.13,2.13,0,0,0,0-3h0a2.13,2.13,0,0,0-3,0l-6,6"/><path class="cls-1" d="M24.3,39.39l9.05-9.05a2.13,2.13,0,0,1,3,0h0a2.13,2.13,0,0,1,0,3L27.32,42.4"/><path class="cls-1" d="M27.32,42.4,39.38,30.33a2.13,2.13,0,0,1,3,0h0a2.13,2.13,0,0,1,0,3L30.33,45.42"/><path class="cls-1" d="M30.33,45.42,40.89,34.86a2.13,2.13,0,0,1,3,0h0a2.13,2.13,0,0,1,0,3L33.35,48.44"/><rect class="cls-1" x="3.07" y="50.46" width="21.33" height="17.07" rx="2.02" ry="2.02" transform="translate(45.74 7.56) rotate(45)"/><circle class="cls-1" cx="16.76" cy="65.03" r="1.07" transform="translate(-41.08 30.9) rotate(-45)"/><line class="cls-1" x1="24.27" y1="63.41" x2="9.26" y2="48.39"/><path class="cls-1" d="M39.39,48.44l-4.53-4.53a2.13,2.13,0,0,0-3,0h0a2.13,2.13,0,0,0,0,3l4.53,4.53,5.81,5.81a4.58,4.58,0,0,0,6.47,0l8.61-8.61a4.58,4.58,0,0,0,0-6.47l-5.81-5.81-6-6a2.13,2.13,0,0,0-3,0h0a2.13,2.13,0,0,0,0,3l6,6"/><path class="cls-1" d="M39.39,48.44l-9.05-9.05a2.13,2.13,0,0,1,0-3h0a2.13,2.13,0,0,1,3,0l9.05,9.05"/><path class="cls-1" d="M42.4,45.42,30.33,33.35a2.13,2.13,0,0,1,0-3h0a2.13,2.13,0,0,1,3,0L45.42,42.4"/><path class="cls-1" d="M45.42,42.4,34.86,31.84a2.13,2.13,0,0,1,0-3h0a2.13,2.13,0,0,1,3,0L48.44,39.38"/><rect class="cls-1" x="48.33" y="50.46" width="21.33" height="17.07" rx="2.02" ry="2.02" transform="translate(-24.44 59) rotate(-45)"/><circle class="cls-1" cx="65.03" cy="55.98" r="1.07" transform="translate(-20.54 62.38) rotate(-45)"/><line class="cls-1" x1="63.41" y1="48.46" x2="48.39" y2="63.48"/></g></g></svg>