<svg xmlns="http://www.w3.org/2000/svg" viewBox="0 0 1040.5 420.5"><defs><style>.cls-1{fill:#e6e6e7;}.cls-2,.cls-3,.cls-4{fill:none;stroke-miterlimit:10;}.cls-2,.cls-3{stroke:#5f97c9;stroke-width:0.2px;}.cls-2{stroke-dasharray:0.5 0.5;}.cls-4{stroke:#7797c8;stroke-width:0.5px;stroke-dasharray:2 1;}</style></defs><title>ubs_grid</title><g id="Слой_2" data-name="Слой 2"><g id="Layer_1" data-name="Layer 1"><path class="cls-1" d="M363.86,204.69,350.51,181.3a.75.75,0,0,0-.66-.38h-9a.75.75,0,0,0-.65,1.14l18.55,31.1a.77.77,0,0,1,0,.71,32.94,32.94,0,0,1-2.75,5.14,6.9,6.9,0,0,1-2.2,2,5.88,5.88,0,0,1-2.81.63,12.52,12.52,0,0,1-4.83-1.13.76.76,0,0,0-1,.45l-2.4,7.21a.76.76,0,0,0,.39.92,16.46,16.46,0,0,0,3.32,1.16,20.27,20.27,0,0,0,4.93.61,15.24,15.24,0,0,0,6-1.07,12.4,12.4,0,0,0,4.51-3.39,34.46,34.46,0,0,0,4.42-7.36L384.21,182a.75.75,0,0,0-.68-1.08h-8.76a.75.75,0,0,0-.69.45Z"/><path class="cls-1" d="M420.68,195.08l8.5-13a.75.75,0,0,0-.63-1.17h-8.68a.75.75,0,0,0-.64.35l-7,11a48.49,48.49,0,0,1-5.4,7.46q-2.08,2.15-3.9,2.15V181.67a.75.75,0,0,0-.75-.75h-8.8a.75.75,0,0,0-.75.75v47.75a.75.75,0,0,0,.75.75h8.77a.75.75,0,0,0,.75-.75V209a8.93,8.93,0,0,0,2.38-.38,7.77,7.77,0,0,0,2.06-.84l12.86,22a.75.75,0,0,0,.65.37h9.43a.75.75,0,0,0,.64-1.15L414.7,202.91Q416.34,201.69,420.68,195.08Z"/><path class="cls-1" d="M475.87,185q-4.77-4.07-13.62-4.07H440.88a.75.75,0,0,0-.75.75v47.75a.75.75,0,0,0,.75.75h8.8a.75.75,0,0,0,.75-.75V212.84h12.24a21,21,0,0,0,9.6-2,14.62,14.62,0,0,0,6.21-5.79,16.64,16.64,0,0,0,2.17-8.5Q480.64,189.06,475.87,185ZM468,202.79a9.38,9.38,0,0,1-6.57,2.12H450.44v-16H461.1q9.16,0,9.16,7.76A7.86,7.86,0,0,1,468,202.79Z"/><path class="cls-1" d="M529.61,204.36q-4.44-3.83-12.66-3.83H500.24V188.85h26a.75.75,0,0,0,.75-.75v-6.43a.75.75,0,0,0-.75-.75H490.68a.75.75,0,0,0-.75.75v47.75a.75.75,0,0,0,.75.75h25.15a23.39,23.39,0,0,0,9.77-1.89,14.12,14.12,0,0,0,6.29-5.3,14.46,14.46,0,0,0,2.15-7.88Q534,208.19,529.61,204.36Zm-15.45,17.78H500.24V208.47h13.71q4.83,0,7.25,1.77a5.83,5.83,0,0,1,2.43,5Q523.63,222.14,514.15,222.14Z"/><path class="cls-1" d="M562.93,204.69,549.58,181.3a.75.75,0,0,0-.66-.38h-9a.75.75,0,0,0-.65,1.14l18.55,31.1a.77.77,0,0,1,0,.71,32.94,32.94,0,0,1-2.75,5.14,6.9,6.9,0,0,1-2.2,2,5.88,5.88,0,0,1-2.81.63,12.52,12.52,0,0,1-4.83-1.13.76.76,0,0,0-1,.45l-2.4,7.21a.76.76,0,0,0,.39.92,16.46,16.46,0,0,0,3.32,1.16,20.27,20.27,0,0,0,4.93.61,15.24,15.24,0,0,0,6-1.07,12.4,12.4,0,0,0,4.51-3.39,34.46,34.46,0,0,0,4.42-7.36L583.28,182a.75.75,0,0,0-.68-1.08h-8.76a.75.75,0,0,0-.69.45Z"/><path class="cls-1" d="M627.46,185q-4.77-4.07-13.62-4.07H592.46a.75.75,0,0,0-.75.75v47.75a.75.75,0,0,0,.75.75h8.8a.75.75,0,0,0,.75-.75V212.84h12.24a21,21,0,0,0,9.6-2,14.62,14.62,0,0,0,6.21-5.79,16.64,16.64,0,0,0,2.17-8.5Q632.23,189.06,627.46,185Zm-7.92,17.8A9.38,9.38,0,0,1,613,204.9H602v-16h10.66q9.16,0,9.16,7.76A7.86,7.86,0,0,1,619.54,202.79Z"/><path class="cls-1" d="M663.72,222.77q-7,0-10.75-4.48t-3.72-13q0-8.36,3.62-12.69t10.61-4.34a14.31,14.31,0,0,1,8,2.19,10.62,10.62,0,0,1,4.3,5.22.76.76,0,0,0,.91.48l7.63-2.08a.76.76,0,0,0,.52-1,18.24,18.24,0,0,0-7.39-9.46q-5.45-3.48-14.12-3.48-11.89,0-18.15,6.5t-6.26,18.64q0,12.1,6.49,18.83t18.37,6.73a25,25,0,0,0,13.44-3.48,21.23,21.23,0,0,0,8.21-9.88.76.76,0,0,0-.43-1l-7.56-2.85a.76.76,0,0,0-1,.42Q672.71,222.77,663.72,222.77Z"/><path class="cls-1" d="M705.76,209.24H731.3a.75.75,0,0,0,.75-.75V202a.75.75,0,0,0-.75-.75H705.76V188.89h27.67a.75.75,0,0,0,.75-.75v-6.46a.75.75,0,0,0-.75-.75H696.2a.75.75,0,0,0-.75.75v47.75a.75.75,0,0,0,.75.75h38.66a.75.75,0,0,0,.75-.75V223a.75.75,0,0,0-.75-.75h-29.1Z"/><path class="cls-1" d="M782.73,185q-4.77-4.07-13.62-4.07H747.74a.75.75,0,0,0-.75.75v47.75a.75.75,0,0,0,.75.75h8.8a.75.75,0,0,0,.75-.75V212.84h12.24a21,21,0,0,0,9.6-2,14.62,14.62,0,0,0,6.21-5.79,16.64,16.64,0,0,0,2.17-8.5Q787.51,189.06,782.73,185Zm-7.92,17.8a9.38,9.38,0,0,1-6.57,2.12H757.3v-16H768q9.16,0,9.16,7.76A7.86,7.86,0,0,1,774.81,202.79Z"/><path class="cls-1" d="M827.69,204.27a11.91,11.91,0,0,0,7.08-3.9,10.92,10.92,0,0,0,2.32-7.08,10.44,10.44,0,0,0-4.63-9.25q-4.63-3.13-13.65-3.13H797a.75.75,0,0,0-.75.75v47.75a.75.75,0,0,0,.75.75h23.89q8.95,0,14-3.67a12.1,12.1,0,0,0,5-10.38A10.81,10.81,0,0,0,836.8,208Q833.67,205,827.69,204.27Zm-21.12-15.7h11.75a11.46,11.46,0,0,1,6.28,1.4q2.11,1.4,2.12,4.72a5.4,5.4,0,0,1-2,4.56q-2,1.52-6.35,1.52H806.57Zm20.72,32.15q-2.29,1.8-7.25,1.8H806.57V208.4h13.08q9.93,0,9.93,6.92A6.45,6.45,0,0,1,827.29,220.72Z"/><rect class="cls-1" x="851.75" y="180.92" width="10.31" height="49.26" rx="0.75" ry="0.75"/><path class="cls-1" d="M912.08,213.66a.76.76,0,0,0-1,.42q-3.71,8.69-12.69,8.69-7,0-10.75-4.48t-3.72-13q0-8.36,3.62-12.69t10.61-4.34a14.31,14.31,0,0,1,8,2.19,10.62,10.62,0,0,1,4.3,5.22.76.76,0,0,0,.91.48L919,194.1a.76.76,0,0,0,.52-1,18.24,18.24,0,0,0-7.39-9.46q-5.45-3.48-14.12-3.48-11.89,0-18.15,6.5t-6.26,18.64q0,12.1,6.49,18.83t18.37,6.73a25,25,0,0,0,13.44-3.48,21.23,21.23,0,0,0,8.21-9.88.76.76,0,0,0-.43-1Z"/><path class="cls-1" d="M300,285.28V243.39A14.71,14.71,0,0,0,296,233.21h0l-.29-.29h0l-6.14-6.14h0l-13.11-13.11-7,7,19.25,19.25a5,5,0,0,1,1.45,3.49v41.89a5,5,0,0,1-4.94,4.94l-41.93,0a5,5,0,0,1-3.5-1.45l-16.62-16.62h0l-20.11-20.12,7-7h0l10.48,10.48h0l14,14a4.94,4.94,0,0,0,7-7l-14-14h0L217,238.1l7-7,24.46,24.46a4.94,4.94,0,1,0,7-7L231,224.12l3.43-3.43-7-7-24.4,24.4h0l-14,14,17.47,17.47h0l26.25,26.25a14.73,14.73,0,0,0,10.49,4.34l41.93,0A14.84,14.84,0,0,0,300,285.28Z"/><path class="cls-1" d="M133.2,182.22l-1.84-1.84a4.91,4.91,0,0,1-1.45-3.49V135a4.94,4.94,0,0,1,4.95-4.94l42,0a4.91,4.91,0,0,1,3.49,1.45l28.88,28.88h0l7.84,7.84-7,7-10.48-10.48h0l-14-14a4.94,4.94,0,1,0-7,7l14,14h0l10.48,10.48-7,7-24.46-24.46a4.94,4.94,0,1,0-7,7l24.46,24.46-3.56,3.56,7,7,38.5-38.5-3.48-3.48h0l-22.65-22.66L187.3,124.51a14.73,14.73,0,0,0-10.47-4.34l-42,0A14.83,14.83,0,0,0,120,135v41.93a14.73,14.73,0,0,0,4.34,10.48l10.25,10.25h0l9,9,7-7-17.45-17.46Z"/><path class="cls-1" d="M206.48,276.6l-7-7L186,283.14h0l-5.64,5.64a4.91,4.91,0,0,1-3.49,1.45H134.88a4.94,4.94,0,0,1-4.94-4.94h0V243.36a4.91,4.91,0,0,1,1.45-3.49l26.23-26.23h0l10.48-10.48,4.09,4.09h0l2.9,2.9-10.48,10.48h0l-14,14a4.94,4.94,0,1,0,7,7l14-14h0l10.48-10.48,7,7-24.46,24.46a4.94,4.94,0,1,0,7,7l24.46-24.46,3.51,3.51,7-7L179.24,200.3l-11.12-11.12-11.64,11.64-32.06,32.06a14.73,14.73,0,0,0-4.34,10.48v41.93h0a14.82,14.82,0,0,0,14.82,14.82h41.94a14.73,14.73,0,0,0,10.48-4.34l12.63-12.63h0Z"/><path class="cls-1" d="M237.36,133.92h0l2.44-2.44a4.91,4.91,0,0,1,3.49-1.45H285.2a5,5,0,0,1,4.94,4.94l0,41.93h0a4.91,4.91,0,0,1-1.45,3.49l-22.39,22.39h0L252,217.13l-7-7,10.48-10.48h0l14-14a4.94,4.94,0,0,0-7-7l-14,14,0,0L238,203.16l-7-7,24.46-24.45a4.94,4.94,0,1,0-7-7L224,189.18l-3.48-3.48-7,7,7,7h0L245,224.12h0l7,7,33.8-33.8,9.93-9.93A14.73,14.73,0,0,0,300,176.9h0L300,135a14.84,14.84,0,0,0-14.82-14.82H243.29a14.73,14.73,0,0,0-10.48,4.34l-2.44,2.44h0l-16.89,16.89,7,7Z"/><path class="cls-1" d="M260.7,239.84l1.75,1.75a4.94,4.94,0,1,0,7-7l-1.74-1.74h0l-5.23-5.23-7,7,5.13,5.13Z"/><path class="cls-1" d="M178.6,262.55a4.94,4.94,0,1,0,7,7l1.75-1.75h0l5.17-5.17-7-7-5.11,5.11-.07.06Z"/><path class="cls-1" d="M241.48,157.74a4.94,4.94,0,1,0-7-7l-2.32,2.32-.06.07-4.66,4.66,7,7,4.74-4.74h0Z"/><path class="cls-1" d="M157.63,178.7a4.94,4.94,0,1,0-7,7l2.91,2.91.09.07,4,4,7-7-4.08-4.08h0Z"/><circle class="cls-2" cx="168.33" cy="168.62" r="5.01"/><circle class="cls-2" cx="182.4" cy="154.55" r="5.01"/><circle class="cls-2" cx="154.45" cy="182.5" r="5.01"/><circle class="cls-2" cx="251.78" cy="252.07" r="5.01"/><circle class="cls-2" cx="265.86" cy="237.98" r="5.01"/><circle class="cls-2" cx="237.91" cy="265.93" r="5.01"/><circle class="cls-2" cx="182.6" cy="265.93" r="5.01"/><circle class="cls-2" cx="252.07" cy="168.51" r="5.01"/><circle class="cls-2" cx="266.02" cy="182.46" r="5.01"/><circle class="cls-2" cx="238.07" cy="154.51" r="5.01"/><circle class="cls-2" cx="168.42" cy="252.16" r="5.01"/><circle class="cls-2" cx="154.34" cy="238.09" r="5.01"/><circle class="cls-2" cx="210.24" cy="210.44" r="15.11"/><circle class="cls-2" cx="135.15" cy="135.44" r="5.01"/><circle class="cls-2" cx="285.14" cy="135.44" r="5.01"/><circle class="cls-2" cx="285.14" cy="285.26" r="5.01"/><circle class="cls-2" cx="135.15" cy="285.46" r="5.01"/><circle class="cls-2" cx="135.27" cy="285.14" r="15.11"/><circle class="cls-2" cx="285.14" cy="285.14" r="15.11"/><circle class="cls-2" cx="285.14" cy="135.44" r="15.11"/><circle class="cls-2" cx="135.15" cy="135.44" r="15.11"/><line class="cls-3" x1="980.12" y1="360.27" x2="980.12" y2="60.25"/><line class="cls-3" x1="970.12" y1="360.27" x2="970.12" y2="60.25"/><line class="cls-3" x1="960.12" y1="360.27" x2="960.12" y2="60.25"/><line class="cls-3" x1="950.12" y1="360.27" x2="950.12" y2="60.25"/><line class="cls-3" x1="940.12" y1="360.27" x2="940.12" y2="60.25"/><line class="cls-3" x1="930.12" y1="360.27" x2="930.12" y2="60.25"/><line class="cls-3" x1="920.12" y1="360.27" x2="920.12" y2="60.25"/><line class="cls-3" x1="910.12" y1="360.27" x2="910.12" y2="60.25"/><line class="cls-3" x1="900.12" y1="360.27" x2="900.12" y2="60.25"/><line class="cls-3" x1="890.12" y1="360.27" x2="890.12" y2="60.25"/><line class="cls-3" x1="880.12" y1="360.27" x2="880.12" y2="60.25"/><line class="cls-3" x1="870.12" y1="360.27" x2="870.12" y2="60.25"/><line class="cls-3" x1="860.12" y1="360.27" x2="860.12" y2="60.25"/><line class="cls-3" x1="850.12" y1="360.27" x2="850.12" y2="60.25"/><line class="cls-3" x1="840.12" y1="360.27" x2="840.12" y2="60.25"/><line class="cls-3" x1="830.12" y1="360.27" x2="830.12" y2="60.25"/><line class="cls-3" x1="820.12" y1="360.27" x2="820.12" y2="60.25"/><line class="cls-3" x1="810.12" y1="360.27" x2="810.12" y2="60.25"/><line class="cls-3" x1="800.12" y1="360.27" x2="800.12" y2="60.25"/><line class="cls-3" x1="790.12" y1="360.27" x2="790.12" y2="60.25"/><line class="cls-3" x1="780.12" y1="360.27" x2="780.12" y2="60.25"/><line class="cls-3" x1="770.12" y1="360.27" x2="770.12" y2="60.25"/><line class="cls-3" x1="760.12" y1="360.27" x2="760.12" y2="60.25"/><line class="cls-3" x1="750.12" y1="360.27" x2="750.12" y2="60.25"/><line class="cls-3" x1="740.12" y1="360.27" x2="740.12" y2="60.25"/><line class="cls-3" x1="730.12" y1="360.27" x2="730.12" y2="60.25"/><line class="cls-3" x1="720.12" y1="360.27" x2="720.12" y2="60.25"/><line class="cls-3" x1="710.12" y1="360.27" x2="710.12" y2="60.25"/><line class="cls-3" x1="700.12" y1="360.27" x2="700.12" y2="60.25"/><line class="cls-3" x1="690.12" y1="360.27" x2="690.12" y2="60.25"/><line class="cls-3" x1="680.12" y1="360.27" x2="680.12" y2="60.25"/><line class="cls-3" x1="670.12" y1="360.27" x2="670.12" y2="60.25"/><line class="cls-3" x1="660.12" y1="360.27" x2="660.12" y2="60.25"/><line class="cls-3" x1="650.12" y1="360.27" x2="650.12" y2="60.25"/><line class="cls-3" x1="640.12" y1="360.27" x2="640.12" y2="60.25"/><line class="cls-3" x1="630.12" y1="360.27" x2="630.12" y2="60.25"/><line class="cls-3" x1="620.12" y1="360.27" x2="620.12" y2="60.25"/><line class="cls-3" x1="610.12" y1="360.27" x2="610.12" y2="60.25"/><line class="cls-3" x1="600.12" y1="360.27" x2="600.12" y2="60.25"/><line class="cls-3" x1="590.12" y1="360.27" x2="590.12" y2="60.25"/><line class="cls-3" x1="580.12" y1="360.27" x2="580.12" y2="60.25"/><line class="cls-3" x1="570.12" y1="360.27" x2="570.12" y2="60.25"/><line class="cls-3" x1="560.12" y1="360.27" x2="560.12" y2="60.25"/><line class="cls-3" x1="550.12" y1="360.27" x2="550.12" y2="60.25"/><line class="cls-3" x1="540.12" y1="360.27" x2="540.12" y2="60.25"/><line class="cls-3" x1="530.12" y1="360.27" x2="530.12" y2="60.25"/><line class="cls-3" x1="520.12" y1="360.27" x2="520.12" y2="60.25"/><line class="cls-3" x1="510.12" y1="360.27" x2="510.12" y2="60.25"/><line class="cls-3" x1="500.12" y1="360.27" x2="500.12" y2="60.25"/><line class="cls-3" x1="490.12" y1="360.27" x2="490.12" y2="60.25"/><line class="cls-3" x1="480.12" y1="360.27" x2="480.12" y2="60.25"/><line class="cls-3" x1="470.12" y1="360.27" x2="470.12" y2="60.25"/><line class="cls-3" x1="460.12" y1="360.27" x2="460.12" y2="60.25"/><line class="cls-3" x1="450.12" y1="360.27" x2="450.12" y2="60.25"/><line class="cls-3" x1="440.12" y1="360.27" x2="440.12" y2="60.25"/><line class="cls-3" x1="430.12" y1="360.27" x2="430.12" y2="60.25"/><line class="cls-3" x1="420.12" y1="360.27" x2="420.12" y2="60.25"/><line class="cls-3" x1="410.12" y1="360.27" x2="410.12" y2="60.25"/><line class="cls-3" x1="400.12" y1="360.27" x2="400.12" y2="60.25"/><line class="cls-3" x1="390.12" y1="360.27" x2="390.12" y2="60.25"/><line class="cls-3" x1="380.12" y1="360.27" x2="380.12" y2="60.25"/><line class="cls-3" x1="370.12" y1="360.27" x2="370.12" y2="60.25"/><line class="cls-3" x1="360.12" y1="360.27" x2="360.12" y2="60.25"/><line class="cls-3" x1="350.12" y1="360.27" x2="350.12" y2="60.25"/><line class="cls-3" x1="340.12" y1="360.27" x2="340.12" y2="60.25"/><line class="cls-3" x1="330.12" y1="360.27" x2="330.12" y2="60.25"/><line class="cls-3" x1="320.12" y1="360.27" x2="320.12" y2="60.25"/><line class="cls-3" x1="310.12" y1="360.27" x2="310.12" y2="60.25"/><line class="cls-3" x1="300.12" y1="360.27" x2="300.12" y2="60.25"/><line class="cls-3" x1="290.12" y1="360.27" x2="290.12" y2="60.25"/><line class="cls-3" x1="280.12" y1="360.27" x2="280.12" y2="60.25"/><line class="cls-3" x1="270.12" y1="360.27" x2="270.12" y2="60.25"/><line class="cls-3" x1="260.12" y1="360.27" x2="260.12" y2="60.25"/><line class="cls-3" x1="250.12" y1="360.27" x2="250.12" y2="60.25"/><line class="cls-3" x1="240.12" y1="360.27" x2="240.12" y2="60.25"/><line class="cls-3" x1="230.12" y1="360.27" x2="230.12" y2="60.25"/><line class="cls-3" x1="220.12" y1="360.27" x2="220.12" y2="60.25"/><line class="cls-3" x1="210.12" y1="360.27" x2="210.12" y2="60.25"/><line class="cls-3" x1="200.12" y1="360.27" x2="200.12" y2="60.25"/><line class="cls-3" x1="190.12" y1="360.27" x2="190.12" y2="60.25"/><line class="cls-3" x1="180.12" y1="360.27" x2="180.12" y2="60.25"/><line class="cls-3" x1="170.12" y1="360.27" x2="170.12" y2="60.25"/><line class="cls-3" x1="160.12" y1="360.27" x2="160.12" y2="60.25"/><line class="cls-3" x1="150.12" y1="360.27" x2="150.12" y2="60.25"/><line class="cls-3" x1="140.12" y1="360.27" x2="140.12" y2="60.25"/><line class="cls-3" x1="130.12" y1="360.27" x2="130.12" y2="60.25"/><line class="cls-3" x1="120.12" y1="360.27" x2="120.12" y2="60.25"/><line class="cls-3" x1="110.12" y1="360.27" x2="110.12" y2="60.25"/><line class="cls-3" x1="100.12" y1="360.27" x2="100.12" y2="60.25"/><line class="cls-3" x1="90.12" y1="360.27" x2="90.12" y2="60.25"/><line class="cls-3" x1="80.12" y1="360.27" x2="80.12" y2="60.25"/><line class="cls-3" x1="70.12" y1="360.27" x2="70.12" y2="60.25"/><line class="cls-3" x1="60.12" y1="360.27" x2="60.12" y2="60.25"/><line class="cls-3" x1="60.12" y1="360.25" x2="980.19" y2="360.25"/><line class="cls-3" x1="60.12" y1="350.25" x2="980.19" y2="350.25"/><line class="cls-3" x1="60.12" y1="340.25" x2="980.19" y2="340.25"/><line class="cls-3" x1="60.12" y1="330.25" x2="980.19" y2="330.25"/><line class="cls-3" x1="60.12" y1="320.25" x2="980.19" y2="320.25"/><line class="cls-3" x1="60.12" y1="310.25" x2="980.19" y2="310.25"/><line class="cls-3" x1="60.12" y1="300.25" x2="980.19" y2="300.25"/><line class="cls-3" x1="60.12" y1="290.25" x2="980.19" y2="290.25"/><line class="cls-3" x1="60.12" y1="280.25" x2="980.19" y2="280.25"/><line class="cls-3" x1="60.12" y1="270.25" x2="980.19" y2="270.25"/><line class="cls-3" x1="60.12" y1="260.25" x2="980.19" y2="260.25"/><line class="cls-3" x1="60.12" y1="250.25" x2="980.19" y2="250.25"/><line class="cls-3" x1="60.12" y1="240.25" x2="980.19" y2="240.25"/><line class="cls-3" x1="60.12" y1="230.25" x2="980.19" y2="230.25"/><line class="cls-3" x1="60.12" y1="220.25" x2="980.19" y2="220.25"/><line class="cls-3" x1="60.12" y1="210.25" x2="980.19" y2="210.25"/><line class="cls-3" x1="60.12" y1="200.25" x2="980.19" y2="200.25"/><line class="cls-3" x1="60.12" y1="190.25" x2="980.19" y2="190.25"/><line class="cls-3" x1="60.12" y1="180.25" x2="980.19" y2="180.25"/><line class="cls-3" x1="60.12" y1="170.25" x2="980.19" y2="170.25"/><line class="cls-3" x1="60.12" y1="160.25" x2="980.19" y2="160.25"/><line class="cls-3" x1="60.12" y1="150.25" x2="980.19" y2="150.25"/><line class="cls-3" x1="60.12" y1="140.25" x2="980.19" y2="140.25"/><line class="cls-3" x1="60.12" y1="130.25" x2="980.19" y2="130.25"/><line class="cls-3" x1="60.12" y1="120.25" x2="980.19" y2="120.25"/><line class="cls-3" x1="60.12" y1="110.25" x2="980.19" y2="110.25"/><line class="cls-3" x1="60.12" y1="100.25" x2="980.19" y2="100.25"/><line class="cls-3" x1="60.12" y1="90.25" x2="980.19" y2="90.25"/><line class="cls-3" x1="60.12" y1="80.25" x2="980.19" y2="80.25"/><line class="cls-3" x1="60.12" y1="70.25" x2="980.19" y2="70.25"/><line class="cls-3" x1="60.12" y1="60.25" x2="980.19" y2="60.25"/><line class="cls-4" x1="300.03" y1="61.65" x2="300.03" y2="360.27"/><line class="cls-4" x1="239.92" y1="61.65" x2="239.92" y2="360.27"/><line class="cls-4" x1="179.92" y1="61.65" x2="179.92" y2="360.27"/><line class="cls-4" x1="120.04" y1="61.65" x2="120.04" y2="360.27"/><circle class="cls-4" cx="89.98" cy="330.2" r="30.07"/><circle class="cls-4" cx="950.12" cy="90.08" r="30.07"/><circle class="cls-4" cx="950.12" cy="330.2" r="30.07"/><line class="cls-3" x1="60.12" y1="120.15" x2="980.19" y2="120.15"/><line class="cls-3" x1="920.14" y1="61.65" x2="920.14" y2="360.27"/><line class="cls-3" x1="980.19" y1="300.12" x2="60.12" y2="300.12"/><circle class="cls-4" cx="89.98" cy="90.08" r="30.07"/><line class="cls-4" x1="86.45" y1="86.54" x2="93.52" y2="93.61"/><line class="cls-4" x1="93.52" y1="86.54" x2="86.45" y2="93.61"/><circle class="cls-4" cx="30.32" cy="30.32" r="30.07"/><line class="cls-4" x1="26.78" y1="26.78" x2="33.86" y2="33.86"/><line class="cls-4" x1="33.86" y1="26.78" x2="26.78" y2="33.86"/><circle class="cls-4" cx="30.32" cy="390.18" r="30.07"/><line class="cls-4" x1="26.78" y1="386.64" x2="33.86" y2="393.72"/><line class="cls-4" x1="33.86" y1="386.64" x2="26.78" y2="393.72"/><circle class="cls-4" cx="1010.18" cy="30.32" r="30.07"/><line class="cls-4" x1="1006.64" y1="26.78" x2="1013.72" y2="33.86"/><line class="cls-4" x1="1013.72" y1="26.78" x2="1006.64" y2="33.86"/><circle class="cls-4" cx="1010.18" cy="390.18" r="30.07"/><line class="cls-4" x1="1006.64" y1="386.64" x2="1013.72" y2="393.72"/><line class="cls-4" x1="1013.72" y1="386.64" x2="1006.64" y2="393.72"/><line class="cls-4" x1="86.45" y1="326.67" x2="93.52" y2="333.74"/><line class="cls-4" x1="93.52" y1="326.67" x2="86.45" y2="333.74"/><line class="cls-4" x1="946.58" y1="86.54" x2="953.65" y2="93.61"/><line class="cls-4" x1="953.65" y1="86.54" x2="946.58" y2="93.61"/><line class="cls-4" x1="946.58" y1="326.67" x2="953.65" y2="333.74"/><line class="cls-4" x1="953.65" y1="326.67" x2="946.58" y2="333.74"/><line class="cls-4" x1="0.25" y1="60.25" x2="1040.25" y2="60.25"/><line class="cls-4" x1="0.25" y1="360.25" x2="1040.25" y2="360.25"/><line class="cls-4" x1="60.25" y1="0.25" x2="60.25" y2="420.25"/><line class="cls-4" x1="980.25" y1="0.25" x2="980.25" y2="420.25"/><rect class="cls-4" x="0.25" y="0.25" width="1040" height="420"/></g></g></svg>