<svg xmlns="http://www.w3.org/2000/svg" viewBox="0 0 72.87 72.89"><defs><style>.cls-1{fill:none;stroke:#b13536;stroke-linecap:round;stroke-linejoin:round;stroke-width:2px;}</style></defs><title>UBS_ornament</title><g id="Слой_2" data-name="Слой 2"><g id="Слой_1-2" data-name="Слой 1"><polygon class="cls-1" points="48.24 21.25 38.12 31.37 38.12 11.12 48.24 1 48.24 21.25"/><polygon class="cls-1" points="24.62 21.25 34.75 31.37 34.75 11.12 24.62 1 24.62 21.25"/><polygon class="cls-1" points="48.24 51.62 38.12 41.49 38.12 61.74 48.24 71.86 48.24 51.62"/><polygon class="cls-1" points="24.62 51.62 34.75 41.49 34.75 61.74 24.62 71.86 24.62 51.62"/><polygon class="cls-1" points="51.62 48.24 41.49 38.12 61.74 38.12 71.86 48.24 51.62 48.24"/><polygon class="cls-1" points="51.62 24.62 41.49 34.74 61.74 34.74 71.86 24.62 51.62 24.62"/><polygon class="cls-1" points="21.25 48.24 31.37 38.12 11.12 38.12 1 48.24 21.25 48.24"/><polygon class="cls-1" points="21.25 24.62 31.37 34.74 11.12 34.74 1 24.62 21.25 24.62"/><rect class="cls-1" x="58.37" y="4.37" width="10.12" height="10.12"/><rect class="cls-1" x="61.74" y="1" width="10.12" height="10.12"/><rect class="cls-1" x="4.37" y="4.37" width="10.12" height="10.12" transform="translate(18.87 18.87) rotate(-180)"/><rect class="cls-1" x="1" y="1" width="10.12" height="10.12" transform="translate(12.12 12.12) rotate(-180)"/><rect class="cls-1" x="58.37" y="58.39" width="10.12" height="10.12"/><rect class="cls-1" x="61.74" y="61.77" width="10.12" height="10.12"/><rect class="cls-1" x="4.37" y="58.39" width="10.12" height="10.12" transform="translate(18.87 126.91) rotate(180)"/><rect class="cls-1" x="1" y="61.77" width="10.12" height="10.12" transform="translate(12.12 133.66) rotate(180)"/><line class="cls-1" x1="34.75" y1="34.74" x2="38.12" y2="38.12"/><line class="cls-1" x1="38.12" y1="34.74" x2="34.75" y2="38.12"/></g></g></svg>