<svg xmlns="http://www.w3.org/2000/svg" viewBox="0 0 426.91 256.56">
    <defs>
        <style>.cls-1{fill:#b81e24;}</style>
    </defs>
    <title>ubs_logo_8</title>
    <g id="Слой_2" data-name="Слой 2">
        <g id="Layer_2" data-name="Layer 2">
            <path class="cls-1"
                  d="M15.19,256.56q-7.37,0-11.28-3.6T0,242.68V220.92a.55.55,0,0,1,.55-.55H6.92a.55.55,0,0,1,.55.55V242.1q0,4.23,2,6.42a7.63,7.63,0,0,0,5.91,2.19,8,8,0,0,0,6.15-2.29q2.15-2.29,2.15-6.57V220.92a.55.55,0,0,1,.55-.55h6.38a.55.55,0,0,1,.55.55V242.3q0,6.79-4.19,10.52T15.19,256.56Z"/>
            <path class="cls-1"
                  d="M64.37,255.84,51.72,239.67,47.31,243V255.5a.55.55,0,0,1-.55.55H40.39a.55.55,0,0,1-.55-.55V220.92a.55.55,0,0,1,.55-.55h6.38a.55.55,0,0,1,.55.55v15.63l15.92-16a.55.55,0,0,1,.39-.16h7.15a.55.55,0,0,1,.38.93l-14.3,14.15,15.77,19.7a.55.55,0,0,1-.43.89H64.8A.55.55,0,0,1,64.37,255.84Z"/>
            <path class="cls-1"
                  d="M103.68,255.79l-8.12-13.28H86.81v13a.55.55,0,0,1-.55.55H79.88a.55.55,0,0,1-.55-.55V220.92a.55.55,0,0,1,.55-.55H97.16q6.38,0,9.85,2.75a9.47,9.47,0,0,1,3.47,7.89,10.19,10.19,0,0,1-2.13,6.47,10,10,0,0,1-5.75,3.58l9.1,14.15a.55.55,0,0,1-.46.84h-7.1A.55.55,0,0,1,103.68,255.79ZM103,231.31q0-5.14-6.58-5.14H86.81v10.53h9.77a7,7,0,0,0,4.76-1.42A5,5,0,0,0,103,231.31Z"/>
            <path class="cls-1"
                  d="M149.9,245.87a8.76,8.76,0,0,1-3.65,7.52q-3.65,2.66-10.13,2.66h-17.3a.55.55,0,0,1-.55-.55V220.92a.55.55,0,0,1,.55-.55h15.78q6.53,0,9.89,2.27a7.56,7.56,0,0,1,3.35,6.7,7.91,7.91,0,0,1-1.68,5.13,8.62,8.62,0,0,1-5.13,2.82,11,11,0,0,1,6.6,2.72A7.83,7.83,0,0,1,149.9,245.87Zm-9.57-15.52a3.79,3.79,0,0,0-1.53-3.42,8.3,8.3,0,0,0-4.54-1h-8.51v8.84h8.56a7.59,7.59,0,0,0,4.6-1.1A3.91,3.91,0,0,0,140.33,230.35Zm2.08,14.94q0-5-7.19-5h-9.47v10.23h9.75q3.6,0,5.25-1.3A4.67,4.67,0,0,0,142.41,245.29Z"/>
            <path class="cls-1"
                  d="M171.51,256.56q-7.37,0-11.28-3.6t-3.91-10.28V220.92a.55.55,0,0,1,.55-.55h6.38a.55.55,0,0,1,.55.55V242.1q0,4.23,2,6.42a7.63,7.63,0,0,0,5.91,2.19,8,8,0,0,0,6.15-2.29q2.15-2.29,2.15-6.57V220.92a.55.55,0,0,1,.55-.55h6.38a.55.55,0,0,1,.55.55V242.3q0,6.79-4.19,10.52T171.51,256.56Z"/>
            <path class="cls-1"
                  d="M220,255.79l-8.12-13.28h-8.76v13.55h-6.92a.55.55,0,0,1-.55-.55V220.92a.55.55,0,0,1,.55-.55h17.28q6.38,0,9.85,2.75a9.47,9.47,0,0,1,3.47,7.89,10.19,10.19,0,0,1-2.13,6.47,10,10,0,0,1-5.75,3.58l9.1,14.15a.55.55,0,0,1-.46.84h-7.1A.55.55,0,0,1,220,255.79Zm-.73-24.47q0-5.14-6.58-5.14h-9.57v10.53h9.77a7,7,0,0,0,4.76-1.42A5,5,0,0,0,219.24,231.31Z"/>
            <path class="cls-1"
                  d="M263.11,245.77a9.24,9.24,0,0,1-3.89,8q-3.89,2.77-11.41,2.77-6.86,0-10.76-2.43a11,11,0,0,1-4.87-6.79.55.55,0,0,1,.44-.67l6.15-1a.55.55,0,0,1,.61.39,6.25,6.25,0,0,0,2.73,3.65A11.46,11.46,0,0,0,248,251q7.82,0,7.82-4.76a3.58,3.58,0,0,0-.9-2.51,6.79,6.79,0,0,0-2.53-1.65,42.17,42.17,0,0,0-6.27-1.6,56.79,56.79,0,0,1-5.57-1.51,15.74,15.74,0,0,1-2.84-1.34,8.36,8.36,0,0,1-2.15-1.86,8.09,8.09,0,0,1-1.38-2.56,10.55,10.55,0,0,1-.49-3.37,8.51,8.51,0,0,1,3.63-7.41q3.63-2.57,10.57-2.57,6.63,0,10,2.08A9.65,9.65,0,0,1,262,228.2a.55.55,0,0,1-.46.66l-6.18.84a.55.55,0,0,1-.6-.4,5.45,5.45,0,0,0-2.14-3,8.67,8.67,0,0,0-4.9-1.16q-6.79,0-6.79,4.25a3.49,3.49,0,0,0,.72,2.28,5.58,5.58,0,0,0,2.14,1.51,36.65,36.65,0,0,0,5.75,1.56,45.83,45.83,0,0,1,7.35,2,11.43,11.43,0,0,1,3.51,2.15,8.2,8.2,0,0,1,2,2.94A10.54,10.54,0,0,1,263.11,245.77Z"/>
            <path class="cls-1"
                  d="M270.1,255.5V220.92a.55.55,0,0,1,.55-.55h27a.55.55,0,0,1,.55.55v4.68a.55.55,0,0,1-.55.55h-20v9h18.49a.55.55,0,0,1,.55.55v4.68a.55.55,0,0,1-.55.55H277.57v9.39h21.08a.55.55,0,0,1,.55.55v4.68a.55.55,0,0,1-.55.55h-28A.55.55,0,0,1,270.1,255.5Z"/>
            <path class="cls-1"
                  d="M331.08,255.79,323,242.51H314.2v13a.55.55,0,0,1-.55.55h-6.38a.55.55,0,0,1-.55-.55V220.92a.55.55,0,0,1,.55-.55h17.28q6.38,0,9.85,2.75a9.47,9.47,0,0,1,3.47,7.89,10.19,10.19,0,0,1-2.13,6.47,10,10,0,0,1-5.75,3.58l9.1,14.15a.55.55,0,0,1-.46.84h-7.1A.55.55,0,0,1,331.08,255.79Zm-.73-24.47q0-5.14-6.58-5.14H314.2v10.53H324a7,7,0,0,0,4.76-1.42A5,5,0,0,0,330.35,231.31Z"/>
            <path class="cls-1"
                  d="M362,256.05h-6.81a.55.55,0,0,1-.51-.36l-12.79-34.58a.55.55,0,0,1,.51-.74H349a.55.55,0,0,1,.52.38l7.22,22.53q.68,2.23,1.87,6.73l.53-2.18,1.29-4.56,7.2-22.53a.55.55,0,0,1,.52-.38h6.54a.55.55,0,0,1,.51.74l-12.71,34.58A.55.55,0,0,1,362,256.05Z"/>
            <path class="cls-1"
                  d="M381.91,255.5V220.92a.55.55,0,0,1,.55-.55h6.38a.55.55,0,0,1,.55.55V255.5a.55.55,0,0,1-.55.55h-6.38A.55.55,0,0,1,381.91,255.5Z"/>
            <path class="cls-1"
                  d="M426.91,245.77a9.24,9.24,0,0,1-3.89,8q-3.89,2.77-11.41,2.77-6.86,0-10.76-2.43a11,11,0,0,1-4.87-6.79.55.55,0,0,1,.44-.67l6.15-1a.55.55,0,0,1,.61.39,6.25,6.25,0,0,0,2.73,3.65,11.46,11.46,0,0,0,5.9,1.28q7.82,0,7.82-4.76a3.58,3.58,0,0,0-.9-2.51,6.79,6.79,0,0,0-2.53-1.65,42.17,42.17,0,0,0-6.27-1.6,56.79,56.79,0,0,1-5.57-1.51,15.74,15.74,0,0,1-2.84-1.34,8.36,8.36,0,0,1-2.15-1.86,8.09,8.09,0,0,1-1.38-2.56,10.55,10.55,0,0,1-.49-3.37,8.51,8.51,0,0,1,3.63-7.41q3.63-2.57,10.57-2.57,6.63,0,10,2.08a9.65,9.65,0,0,1,4.16,6.28.55.55,0,0,1-.46.66l-6.18.84a.55.55,0,0,1-.6-.4,5.45,5.45,0,0,0-2.14-3,8.67,8.67,0,0,0-4.9-1.16q-6.79,0-6.79,4.25a3.49,3.49,0,0,0,.72,2.28,5.58,5.58,0,0,0,2.14,1.51,36.65,36.65,0,0,0,5.75,1.56,45.83,45.83,0,0,1,7.35,2,11.43,11.43,0,0,1,3.51,2.15,8.2,8.2,0,0,1,2,2.94A10.54,10.54,0,0,1,426.91,245.77Z"/>
            <path class="cls-1"
                  d="M303.45,165.15V123.25a14.71,14.71,0,0,0-4.06-10.18h0l-.29-.29h0L293,106.63h0L279.85,93.52l-7,7,19.25,19.25a5,5,0,0,1,1.45,3.49v41.89a5,5,0,0,1-4.94,4.94l-41.93,0a5,5,0,0,1-3.5-1.45l-16.62-16.62h0l-20.11-20.12,7-7h0l10.48,10.48h0l14,14a4.94,4.94,0,0,0,7-7l-14-14h0L220.44,118l7-7,24.46,24.46a4.94,4.94,0,1,0,7-7L234.42,104l3.43-3.43-7-7L206.47,118h0l-14,14L210,149.41h0l26.25,26.25A14.73,14.73,0,0,0,246.7,180l41.93,0A14.84,14.84,0,0,0,303.45,165.15Z"/>
            <path class="cls-1"
                  d="M136.62,62.09l-1.84-1.84a4.91,4.91,0,0,1-1.45-3.49V14.82a4.94,4.94,0,0,1,4.95-4.94l42,0a4.91,4.91,0,0,1,3.49,1.45L212.6,40.25h0l7.84,7.84-7,7L203,44.59h0l-14-14a4.94,4.94,0,1,0-7,7l14,14h0l10.48,10.48-7,7L175,44.59a4.94,4.94,0,1,0-7,7L192.49,76l-3.56,3.56,7,7,38.5-38.5-3.48-3.48h0L208.28,21.95,190.71,4.38A14.73,14.73,0,0,0,180.24,0l-42,0a14.83,14.83,0,0,0-14.84,14.82V56.76a14.73,14.73,0,0,0,4.34,10.48L138,77.49h0l9,9,7-7L136.62,62.09Z"/>
            <path class="cls-1"
                  d="M209.89,156.47l-7-7L189.37,163h0l-5.64,5.64a4.91,4.91,0,0,1-3.49,1.45H138.29a4.94,4.94,0,0,1-4.94-4.94h0V123.23a4.91,4.91,0,0,1,1.45-3.49L161,93.5h0L171.53,83l4.09,4.09h0l2.9,2.9L168,100.49h0l-14,14a4.94,4.94,0,1,0,7,7l14-14h0L185.5,97l7,7L168,128.45a4.94,4.94,0,1,0,7,7L199.48,111l3.51,3.51,7-7L182.65,80.17,171.53,69,159.89,80.69l-32.06,32.06a14.73,14.73,0,0,0-4.34,10.48v41.93h0A14.82,14.82,0,0,0,138.29,180h41.94a14.73,14.73,0,0,0,10.48-4.34L203.35,163h0Z"/>
            <path class="cls-1"
                  d="M240.77,13.79h0l2.44-2.44a4.91,4.91,0,0,1,3.49-1.45h41.91a5,5,0,0,1,4.94,4.94l0,41.93h0a4.91,4.91,0,0,1-1.45,3.49L269.73,82.65h0L255.38,97l-7-7,10.48-10.48h0l14-14a4.94,4.94,0,0,0-7-7l-14,14,0,0L241.41,83l-7-7,24.46-24.45a4.94,4.94,0,1,0-7-7L227.43,69,224,65.57l-7,7,7,7h0L248.4,104h0l7,7,33.8-33.8,9.93-9.93a14.73,14.73,0,0,0,4.34-10.48h0l0-41.93A14.84,14.84,0,0,0,288.62,0H246.71a14.73,14.73,0,0,0-10.48,4.34L233.78,6.8h0L216.89,23.69l7,7Z"/>
            <path class="cls-1"
                  d="M264.12,119.71l1.75,1.75a4.94,4.94,0,1,0,7-7l-1.74-1.74h0l-5.23-5.23-7,7,5.13,5.13Z"/>
            <path class="cls-1" d="M182,142.42a4.94,4.94,0,1,0,7,7l1.75-1.75h0l5.17-5.17-7-7-5.11,5.11-.07.06Z"/>
            <path class="cls-1" d="M244.9,37.6a4.94,4.94,0,1,0-7-7l-2.32,2.32-.06.07-4.66,4.66,7,7,4.74-4.74h0Z"/>
            <path class="cls-1" d="M161,58.57a4.94,4.94,0,1,0-7,7L157,68.47l.09.07,4,4,7-7L164,61.48h0Z"/>
        </g>
    </g>
</svg>