<svg xmlns="http://www.w3.org/2000/svg" viewBox="0 0 800.1 180">
    <defs>
        <style>.cls-1{fill:#b81e24;}</style>
    </defs>
    <title>ubs_logo_1</title>
    <g id="Слой_2" data-name="Слой 2">
        <g id="Layer_1" data-name="Layer 1">
            <path class="cls-1"
                  d="M243.82,84.56,230.47,61.17a.75.75,0,0,0-.66-.38h-9a.75.75,0,0,0-.65,1.14L238.76,93a.77.77,0,0,1,0,.71A32.94,32.94,0,0,1,236,98.88a6.9,6.9,0,0,1-2.2,2,5.88,5.88,0,0,1-2.81.63,12.52,12.52,0,0,1-4.83-1.13.76.76,0,0,0-1,.45l-2.4,7.21a.76.76,0,0,0,.39.92,16.46,16.46,0,0,0,3.32,1.16,20.27,20.27,0,0,0,4.93.61,15.24,15.24,0,0,0,6-1.07,12.4,12.4,0,0,0,4.51-3.39,34.46,34.46,0,0,0,4.42-7.36l17.83-37.06a.75.75,0,0,0-.68-1.08h-8.76a.75.75,0,0,0-.69.45Z"/>
            <path class="cls-1"
                  d="M300.64,74.95l8.5-13a.75.75,0,0,0-.63-1.17h-8.68a.75.75,0,0,0-.64.35l-7,11a48.49,48.49,0,0,1-5.4,7.46q-2.08,2.15-3.9,2.15V61.54a.75.75,0,0,0-.75-.75h-8.8a.75.75,0,0,0-.75.75v47.75a.75.75,0,0,0,.75.75h8.77a.75.75,0,0,0,.75-.75V88.9a8.93,8.93,0,0,0,2.38-.38,7.77,7.77,0,0,0,2.06-.84l12.86,22a.75.75,0,0,0,.65.37h9.43a.75.75,0,0,0,.64-1.15L294.66,82.78Q296.3,81.55,300.64,74.95Z"/>
            <path class="cls-1"
                  d="M355.83,64.86q-4.77-4.07-13.62-4.07H320.84a.75.75,0,0,0-.75.75v47.75a.75.75,0,0,0,.75.75h8.8a.75.75,0,0,0,.75-.75V92.71h12.24a21,21,0,0,0,9.6-2,14.62,14.62,0,0,0,6.21-5.79,16.64,16.64,0,0,0,2.17-8.5Q360.61,68.93,355.83,64.86Zm-7.92,17.8a9.38,9.38,0,0,1-6.57,2.12H330.4v-16h10.66q9.16,0,9.16,7.76A7.86,7.86,0,0,1,347.91,82.66Z"/>
            <path class="cls-1"
                  d="M409.57,84.23q-4.44-3.83-12.66-3.83H380.2V68.72h26A.75.75,0,0,0,407,68V61.54a.75.75,0,0,0-.75-.75H370.64a.75.75,0,0,0-.75.75v47.75a.75.75,0,0,0,.75.75h25.15a23.39,23.39,0,0,0,9.77-1.89,14.12,14.12,0,0,0,6.29-5.3A14.46,14.46,0,0,0,414,95Q414,88.06,409.57,84.23ZM394.11,102H380.2V88.34H393.9q4.83,0,7.25,1.77a5.83,5.83,0,0,1,2.43,5Q403.59,102,394.11,102Z"/>
            <path class="cls-1"
                  d="M442.89,84.56,429.54,61.17a.75.75,0,0,0-.66-.38h-9a.75.75,0,0,0-.65,1.14L437.83,93a.77.77,0,0,1,0,.71,32.94,32.94,0,0,1-2.75,5.14,6.9,6.9,0,0,1-2.2,2,5.88,5.88,0,0,1-2.81.63,12.52,12.52,0,0,1-4.83-1.13.76.76,0,0,0-1,.45l-2.4,7.21a.76.76,0,0,0,.39.92,16.46,16.46,0,0,0,3.32,1.16,20.27,20.27,0,0,0,4.93.61,15.24,15.24,0,0,0,6-1.07,12.4,12.4,0,0,0,4.51-3.39,34.46,34.46,0,0,0,4.42-7.36l17.83-37.06a.75.75,0,0,0-.68-1.08H453.8a.75.75,0,0,0-.69.45Z"/>
            <path class="cls-1"
                  d="M507.42,64.86q-4.77-4.07-13.62-4.07H472.43a.75.75,0,0,0-.75.75v47.75a.75.75,0,0,0,.75.75h8.8a.75.75,0,0,0,.75-.75V92.71h12.24a21,21,0,0,0,9.6-2A14.62,14.62,0,0,0,510,84.88a16.64,16.64,0,0,0,2.17-8.5Q512.19,68.93,507.42,64.86Zm-7.92,17.8a9.38,9.38,0,0,1-6.57,2.12H482v-16h10.66q9.16,0,9.16,7.76A7.86,7.86,0,0,1,499.5,82.66Z"/>
            <path class="cls-1"
                  d="M543.68,102.64q-7,0-10.75-4.48t-3.72-13q0-8.36,3.62-12.69t10.61-4.34a14.31,14.31,0,0,1,8,2.19,10.62,10.62,0,0,1,4.3,5.22.76.76,0,0,0,.91.48L564.22,74a.76.76,0,0,0,.52-1,18.24,18.24,0,0,0-7.39-9.46q-5.45-3.48-14.12-3.48-11.89,0-18.15,6.5t-6.26,18.64q0,12.1,6.49,18.83t18.37,6.73a25,25,0,0,0,13.44-3.48,21.23,21.23,0,0,0,8.21-9.88.76.76,0,0,0-.43-1l-7.56-2.85a.76.76,0,0,0-1,.42Q552.67,102.64,543.68,102.64Z"/>
            <path class="cls-1"
                  d="M585.72,89.11h25.54a.75.75,0,0,0,.75-.75V81.89a.75.75,0,0,0-.75-.75H585.72V68.76h27.67a.75.75,0,0,0,.75-.75V61.54a.75.75,0,0,0-.75-.75H576.16a.75.75,0,0,0-.75.75v47.75a.75.75,0,0,0,.75.75h38.66a.75.75,0,0,0,.75-.75v-6.46a.75.75,0,0,0-.75-.75h-29.1Z"/>
            <path class="cls-1"
                  d="M662.69,64.86q-4.77-4.07-13.62-4.07H627.7a.75.75,0,0,0-.75.75v47.75a.75.75,0,0,0,.75.75h8.8a.75.75,0,0,0,.75-.75V92.71H649.5a21,21,0,0,0,9.6-2,14.62,14.62,0,0,0,6.21-5.79,16.64,16.64,0,0,0,2.17-8.5Q667.47,68.93,662.69,64.86Zm-7.92,17.8a9.38,9.38,0,0,1-6.57,2.12H637.26v-16h10.66q9.16,0,9.16,7.76A7.86,7.86,0,0,1,654.78,82.66Z"/>
            <path class="cls-1"
                  d="M707.65,84.14a11.91,11.91,0,0,0,7.08-3.9,10.92,10.92,0,0,0,2.32-7.08,10.44,10.44,0,0,0-4.63-9.25q-4.63-3.13-13.65-3.13H677a.75.75,0,0,0-.75.75v47.75a.75.75,0,0,0,.75.75h23.89q8.95,0,14-3.67a12.1,12.1,0,0,0,5-10.38,10.81,10.81,0,0,0-3.13-8.09Q713.63,84.84,707.65,84.14Zm-21.12-15.7h11.75a11.46,11.46,0,0,1,6.28,1.4q2.11,1.4,2.12,4.72a5.4,5.4,0,0,1-2,4.56q-2,1.52-6.35,1.52H686.53Zm20.72,32.15q-2.29,1.8-7.25,1.8H686.53V88.27h13.08q9.93,0,9.93,6.92A6.45,6.45,0,0,1,707.25,100.59Z"/>
            <rect class="cls-1" x="731.71" y="60.79" width="10.31" height="49.26" rx="0.75" ry="0.75"/>
            <path class="cls-1"
                  d="M792,93.52a.76.76,0,0,0-1,.42q-3.71,8.69-12.69,8.69-7,0-10.75-4.48t-3.72-13q0-8.36,3.62-12.69t10.61-4.34a14.31,14.31,0,0,1,8,2.19,10.62,10.62,0,0,1,4.3,5.22.76.76,0,0,0,.91.48L798.93,74a.76.76,0,0,0,.52-1,18.24,18.24,0,0,0-7.39-9.46q-5.45-3.48-14.12-3.48-11.89,0-18.15,6.5t-6.26,18.64q0,12.1,6.49,18.83t18.37,6.73a25,25,0,0,0,13.44-3.48A21.23,21.23,0,0,0,800,97.39a.76.76,0,0,0-.43-1Z"/>
            <path class="cls-1"
                  d="M180,165.15V123.25a14.71,14.71,0,0,0-4.06-10.18h0l-.29-.29h0l-6.14-6.14h0L156.4,93.52l-7,7,19.25,19.25a5,5,0,0,1,1.45,3.49v41.89a5,5,0,0,1-4.94,4.94l-41.93,0a5,5,0,0,1-3.5-1.45l-16.62-16.62h0L83,131.94l7-7h0l10.48,10.48h0l14,14a4.94,4.94,0,0,0,7-7l-14-14h0L97,118l7-7,24.46,24.46a4.94,4.94,0,1,0,7-7L111,104l3.43-3.43-7-7L83,118h0l-14,14,17.47,17.47h0l26.25,26.25A14.73,14.73,0,0,0,123.25,180l41.93,0A14.84,14.84,0,0,0,180,165.15Z"/>
            <path class="cls-1"
                  d="M13.17,62.09l-1.84-1.84a4.91,4.91,0,0,1-1.45-3.49V14.82a4.94,4.94,0,0,1,4.95-4.94l42,0a4.91,4.91,0,0,1,3.49,1.45L89.15,40.25h0L97,48.08l-7,7L79.52,44.59h0l-14-14a4.94,4.94,0,1,0-7,7l14,14h0L83,62.06l-7,7L51.57,44.59a4.94,4.94,0,1,0-7,7L69,76l-3.56,3.56,7,7L111,48.09l-3.48-3.48h0L84.83,21.95,67.26,4.38A14.73,14.73,0,0,0,56.79,0l-42,0A14.83,14.83,0,0,0,0,14.82V56.76A14.73,14.73,0,0,0,4.34,67.24L14.59,77.49h0l9,9,7-7L13.17,62.09Z"/>
            <path class="cls-1"
                  d="M86.44,156.47l-7-7L65.92,163h0l-5.64,5.64a4.91,4.91,0,0,1-3.49,1.45H14.84a4.94,4.94,0,0,1-4.94-4.94h0V123.23a4.91,4.91,0,0,1,1.45-3.49L37.6,93.5h0L48.08,83l4.09,4.09h0l2.9,2.9L44.58,100.49h0l-14,14a4.94,4.94,0,1,0,7,7l14-14h0L62.05,97l7,7L44.58,128.45a4.94,4.94,0,1,0,7,7L76,111l3.51,3.51,7-7L59.2,80.17,48.08,69,36.44,80.69,4.37,112.75A14.73,14.73,0,0,0,0,123.23v41.93H0A14.82,14.82,0,0,0,14.84,180H56.78a14.73,14.73,0,0,0,10.48-4.34L79.89,163h0Z"/>
            <path class="cls-1"
                  d="M117.32,13.79h0l2.44-2.44a4.91,4.91,0,0,1,3.49-1.45h41.91a5,5,0,0,1,4.94,4.94l0,41.93h0a4.91,4.91,0,0,1-1.45,3.49L146.28,82.65h0L131.93,97l-7-7,10.48-10.48h0l14-14a4.94,4.94,0,0,0-7-7l-14,14,0,0L118,83l-7-7,24.46-24.45a4.94,4.94,0,1,0-7-7L104,69l-3.48-3.48-7,7,7,7h0L124.94,104h0l7,7,33.8-33.8,9.93-9.93A14.73,14.73,0,0,0,180,56.77h0l0-41.93A14.84,14.84,0,0,0,165.16,0H123.25a14.73,14.73,0,0,0-10.48,4.34L110.33,6.8h0L93.44,23.69l7,7Z"/>
            <path class="cls-1"
                  d="M140.67,119.71l1.75,1.75a4.94,4.94,0,1,0,7-7l-1.74-1.74h0l-5.23-5.23-7,7,5.13,5.13Z"/>
            <path class="cls-1" d="M58.56,142.42a4.94,4.94,0,1,0,7,7l1.75-1.75h0l5.17-5.17-7-7-5.11,5.11-.07.06Z"/>
            <path class="cls-1" d="M121.45,37.6a4.94,4.94,0,1,0-7-7l-2.32,2.32-.06.07-4.66,4.66,7,7,4.74-4.74h0Z"/>
            <path class="cls-1" d="M37.6,58.57a4.94,4.94,0,1,0-7,7l2.91,2.91.09.07,4,4,7-7-4.08-4.08h0Z"/>
        </g>
    </g>
</svg>