<svg xmlns="http://www.w3.org/2000/svg" viewBox="0 0 556.84 220">
    <defs>
        <style>
            .cls-1{fill:#fff;}.cls-1,.cls-2,.cls-3,.cls-4,.cls-5,.cls-6,.cls-7{stroke:#262424;stroke-width:0.21px;}.cls-1,.cls-12,.cls-13,.cls-14,.cls-15,.cls-16,.cls-17,.cls-18,.cls-19,.cls-2,.cls-3,.cls-4,.cls-5,.cls-6,.cls-7{stroke-miterlimit:10;}.cls-2,.cls-8{fill:#939497;}.cls-10,.cls-3{fill:#d0d1d3;}.cls-4{fill:#e6e7e8;}.cls-5{fill:#434244;}.cls-12,.cls-13,.cls-14,.cls-15,.cls-16,.cls-17,.cls-18,.cls-19,.cls-6,.cls-9{fill:none;}.cls-7{fill:#bbbdbf;}.cls-11{fill:#a81b20;}.cls-12{stroke:#76c4f2;}.cls-12,.cls-13,.cls-14,.cls-15,.cls-16,.cls-17,.cls-18,.cls-19{stroke-width:0.5px;}.cls-13,.cls-14,.cls-15,.cls-16{stroke:#6566ab;}.cls-14,.cls-19{stroke-dasharray:1
            1;}.cls-15,.cls-18{stroke-dasharray:1 1;}.cls-16{stroke-dasharray:1
            1;}.cls-17,.cls-18,.cls-19{stroke:#304196;}
        </style>
    </defs>
    <title>ubs_car_2_grid</title>
    <g id="Слой_2" data-name="Слой 2">
        <g id="Layer_1" data-name="Layer 1">
            <path class="cls-1"
                  d="M476.65,9.08a2.69,2.69,0,0,0-2.89,1.07c-1,.06-1.19.63-1.32,1.44-9.61-.75-33.41-1.07-40.76-.69-1.07,0-1.82.44-1.82,1.76-2,.19-2.26.88-2.39,2-3.71,0-6,.13-6.41,5.53-1.76,24.87-3.89,49.8-4.46,74.86-.19,8.6-.38,17.52-.38,26.31v26.69a15.22,15.22,0,0,0,1.19,7.47c-2.07,1.7-3.58,3.58-3.33,5.84,4.21.38,4.14,8.29,4.14,27.07,0,1,2.89,2,3.58-.44-.38,3.64-.25,8-.25,11.68,0,.57,0,1.76.82,1.76h4.4c1,.06,2.2-.88,2-2.83-.94-20.66,4.08-39.75,18.28-48.55h19.53c21,0,27.76,7.85,33.16,21.1,2.83,6.85,3.77,15.83,3.33,26.06-.06,2,1.44,2.89,3.52,2.89,10.68-.19,21.23-.69,31-1.38a1.87,1.87,0,0,0,2.07,1.63H552c.57,0,2.45.13,2.26-1.07-1-5.72,1.07-8,1.07-11.68v-56.4c0-5.72-.25-11.43-.38-17.08-.94-6.22-2.26-10.24-3.89-11.93-2.76-19.78-4.9-40.26-12.87-56.4-2.26-4.58-8.23-19.28-10.8-24.05-2.26-4.14-8.86-5.21-17.21-6.41.06-1.7-1.57-1.88-3.14-2.07-.31-1-.25-1.44-2.76-1.57C495.75,10.4,479.17,9.46,476.65,9.08Z"/>
            <path class="cls-2"
                  d="M542.41,58.89c3.89,13.75,6.41,28.32,8.48,43.21h-3.64c-2.89,0-4.65-2-5.28-4.77-3.14-15.2-5.78-30.4-9.92-44.46a.88.88,0,0,1,0-.69c-1.7-4.52-5.84-5.65-13.57-5.84l-92-1.82a20.55,20.55,0,0,0-.25,3.39l89,1.38c7.41.13,12.12,2,13.06,6,3.64,14.57,6.41,29.2,8.54,43.65.31,2.26,1.07,3.33,3,3.27,2.2,6.53,4.21,8.35,14.44,8.1-.82-4.08-1.95-6.85-3.2-8.16-2.14-14.88-4.65-29.45-8.54-43.21Z"/>
            <path class="cls-2" d="M466,219a32.56,32.56,0,1,1,32.59-32.59A32.63,32.63,0,0,1,466,219Z"/>
            <path class="cls-2" d="M187.83,219a32.56,32.56,0,1,1,32.59-32.59A32.63,32.63,0,0,1,187.83,219Z"/>
            <path class="cls-2" d="M101.72,219a32.56,32.56,0,1,1,32.59-32.59A32.63,32.63,0,0,1,101.72,219Z"/>
            <path class="cls-3" d="M466,206.53a20.07,20.07,0,1,1,20.1-20.1A20.14,20.14,0,0,1,466,206.53Z"/>
            <path class="cls-3" d="M181.67,205.53a20.07,20.07,0,1,1,25.25-12.87A20.14,20.14,0,0,1,181.67,205.53Z"/>
            <path class="cls-3" d="M95.57,205.53a20.07,20.07,0,1,1,25.25-12.87A20.14,20.14,0,0,1,95.57,205.53Z"/>
            <path class="cls-4" d="M466,204.9a18.43,18.43,0,1,1,18.46-18.46A18.48,18.48,0,0,1,466,204.9Z"/>
            <path class="cls-4" d="M182.17,204a18.42,18.42,0,1,1,23.24-11.81A18.44,18.44,0,0,1,182.17,204Z"/>
            <path class="cls-4" d="M96.07,204a18.42,18.42,0,1,1,23.24-11.81A18.44,18.44,0,0,1,96.07,204Z"/>
            <path class="cls-3" d="M466,203a16.49,16.49,0,1,1,16.52-16.52A16.52,16.52,0,0,1,466,203Z"/>
            <path class="cls-3" d="M182.74,202.14a16.51,16.51,0,1,1,20.79-10.61A16.55,16.55,0,0,1,182.74,202.14Z"/>
            <path class="cls-3" d="M96.64,202.14a16.51,16.51,0,1,1,20.79-10.61A16.55,16.55,0,0,1,96.64,202.14Z"/>
            <path class="cls-4" d="M466,199.19a12.72,12.72,0,1,1,12.69-12.75A12.76,12.76,0,0,1,466,199.19Z"/>
            <path class="cls-4" d="M183.93,198.56a12.74,12.74,0,1,1,16-8.16A12.82,12.82,0,0,1,183.93,198.56Z"/>
            <path class="cls-4" d="M97.83,198.56a12.74,12.74,0,1,1,16-8.16A12.82,12.82,0,0,1,97.83,198.56Z"/>
            <path class="cls-3" d="M466,197.11a10.65,10.65,0,1,1,10.61-10.68A10.67,10.67,0,0,1,466,197.11Z"/>
            <path class="cls-3" d="M184.56,196.55A10.64,10.64,0,1,1,198,189.7,10.6,10.6,0,0,1,184.56,196.55Z"/>
            <path class="cls-3" d="M98.46,196.55a10.64,10.64,0,1,1,13.44-6.85A10.6,10.6,0,0,1,98.46,196.55Z"/>
            <path class="cls-4" d="M466,193.22a6.78,6.78,0,1,1,6.78-6.78A6.84,6.84,0,0,1,466,193.22Z"/>
            <path class="cls-4"
                  d="M185.75,192.91a6.86,6.86,0,0,1-4.33-8.54A6.76,6.76,0,0,1,190,180a6.66,6.66,0,0,1,4.33,8.48A6.79,6.79,0,0,1,185.75,192.91Z"/>
            <path class="cls-4"
                  d="M99.65,192.91a6.86,6.86,0,0,1-4.33-8.54,6.76,6.76,0,0,1,8.54-4.33,6.66,6.66,0,0,1,4.33,8.48A6.79,6.79,0,0,1,99.65,192.91Z"/>
            <circle class="cls-4" cx="466.04" cy="186.44" r="2.51"/>
            <path class="cls-4" d="M187.13,188.82a2.5,2.5,0,1,1,3.14-1.63A2.49,2.49,0,0,1,187.13,188.82Z"/>
            <path class="cls-4" d="M101,188.82a2.5,2.5,0,1,1,3.14-1.63A2.49,2.49,0,0,1,101,188.82Z"/>
            <path class="cls-5"
                  d="M462.59,170.3A14.82,14.82,0,0,1,466,170a17.33,17.33,0,0,1,3.58.38,4,4,0,0,1-3.52,2.07A3.88,3.88,0,0,1,462.59,170.3Z"/>
            <path class="cls-5"
                  d="M189.58,170a18.06,18.06,0,0,1,6.6,2.2,4.06,4.06,0,0,1-4,.88A3.87,3.87,0,0,1,189.58,170Z"/>
            <path class="cls-5" d="M103.48,170a18,18,0,0,1,6.59,2.2,4.06,4.06,0,0,1-4,.88A3.87,3.87,0,0,1,103.48,170Z"/>
            <path class="cls-5"
                  d="M472.76,171.3a15.46,15.46,0,0,1,2.89,1.76,16.33,16.33,0,0,1,2.7,2.39,4,4,0,0,1-4.08-.38A3.88,3.88,0,0,1,472.76,171.3Z"/>
            <path class="cls-5"
                  d="M198.94,174.13a13.05,13.05,0,0,1,2.26,2.57,18.64,18.64,0,0,1,1.76,3.08,3.94,3.94,0,0,1-4-5.65Z"/>
            <path class="cls-5"
                  d="M112.84,174.13a13.05,13.05,0,0,1,2.26,2.57,18.64,18.64,0,0,1,1.76,3.08,3.94,3.94,0,0,1-4-5.65Z"/>
            <path class="cls-5"
                  d="M480.36,178.08a15.84,15.84,0,0,1,1.38,3.14,21.77,21.77,0,0,1,.69,3.52,3.88,3.88,0,0,1-3-2.7A3.81,3.81,0,0,1,480.36,178.08Z"/>
            <path class="cls-5"
                  d="M204.09,182.92a14.82,14.82,0,0,1,.31,3.39,17.39,17.39,0,0,1-.38,3.58,4,4,0,0,1-2.07-3.52A3.88,3.88,0,0,1,204.09,182.92Z"/>
            <path class="cls-5"
                  d="M118,182.92a14.82,14.82,0,0,1,.31,3.39,17.33,17.33,0,0,1-.38,3.58,4,4,0,0,1-2.07-3.52A3.88,3.88,0,0,1,118,182.92Z"/>
            <path class="cls-5"
                  d="M482.56,188.07a15.89,15.89,0,0,1-.75,3.33,15.41,15.41,0,0,1-1.51,3.27,4.06,4.06,0,0,1-.88-4A4,4,0,0,1,482.56,188.07Z"/>
            <path class="cls-5"
                  d="M203.09,193.09a18.32,18.32,0,0,1-1.76,3,18.93,18.93,0,0,1-2.39,2.64,3.89,3.89,0,0,1,.38-4A3.8,3.8,0,0,1,203.09,193.09Z"/>
            <path class="cls-5"
                  d="M117,193.09a18.32,18.32,0,0,1-1.76,3,18.93,18.93,0,0,1-2.39,2.64,3.89,3.89,0,0,1,.38-4A3.8,3.8,0,0,1,117,193.09Z"/>
            <path class="cls-5"
                  d="M478.41,197.43a14.61,14.61,0,0,1-2.51,2.26,15.44,15.44,0,0,1-3.14,1.76,3.94,3.94,0,0,1,5.65-4Z"/>
            <path class="cls-5"
                  d="M196.3,200.69a15.84,15.84,0,0,1-3.14,1.38,16.71,16.71,0,0,1-3.52.75,4,4,0,0,1,6.66-2.14Z"/>
            <path class="cls-5"
                  d="M110.2,200.69a15.84,15.84,0,0,1-3.14,1.38,16.71,16.71,0,0,1-3.52.75,4,4,0,0,1,6.66-2.14Z"/>
            <path class="cls-5"
                  d="M469.62,202.58a14.82,14.82,0,0,1-3.39.31,17.33,17.33,0,0,1-3.58-.38,4,4,0,0,1,3.52-2.07A3.88,3.88,0,0,1,469.62,202.58Z"/>
            <path class="cls-5"
                  d="M186.32,202.89a12.73,12.73,0,0,1-3.33-.75,19.09,19.09,0,0,1-3.27-1.44,3.79,3.79,0,0,1,4-.88A3.89,3.89,0,0,1,186.32,202.89Z"/>
            <path class="cls-5"
                  d="M100.22,202.89a12.73,12.73,0,0,1-3.33-.75,19.09,19.09,0,0,1-3.27-1.44,3.79,3.79,0,0,1,4-.88A3.89,3.89,0,0,1,100.22,202.89Z"/>
            <path class="cls-5"
                  d="M459.45,201.57a15.46,15.46,0,0,1-2.89-1.76,16.33,16.33,0,0,1-2.7-2.39,4,4,0,0,1,4.08.38A3.88,3.88,0,0,1,459.45,201.57Z"/>
            <path class="cls-5"
                  d="M177,198.81a17.93,17.93,0,0,1-2.26-2.57,13.93,13.93,0,0,1-1.76-3.14,4,4,0,0,1,4,5.72Z"/>
            <path class="cls-5"
                  d="M90.86,198.81a17.88,17.88,0,0,1-2.26-2.57,13.9,13.9,0,0,1-1.76-3.14,4,4,0,0,1,4,5.72Z"/>
            <path class="cls-5"
                  d="M451.85,194.79a15.84,15.84,0,0,1-1.38-3.14,21.77,21.77,0,0,1-.69-3.52,3.88,3.88,0,0,1,3,2.7A3.81,3.81,0,0,1,451.85,194.79Z"/>
            <path class="cls-5"
                  d="M171.81,190a14.82,14.82,0,0,1-.31-3.39,17.33,17.33,0,0,1,.38-3.58,4,4,0,0,1,2.07,3.52A3.88,3.88,0,0,1,171.81,190Z"/>
            <path class="cls-5"
                  d="M85.71,190a14.82,14.82,0,0,1-.31-3.39,17.33,17.33,0,0,1,.38-3.58,4,4,0,0,1,2.07,3.52A3.88,3.88,0,0,1,85.71,190Z"/>
            <path class="cls-5"
                  d="M449.65,184.8a15.89,15.89,0,0,1,.75-3.33,15.41,15.41,0,0,1,1.51-3.27,4.06,4.06,0,0,1,.88,4A4,4,0,0,1,449.65,184.8Z"/>
            <path class="cls-5"
                  d="M172.82,179.84a14.1,14.1,0,0,1,1.76-3,19.34,19.34,0,0,1,2.39-2.7,4,4,0,0,1-.38,4.08A4.06,4.06,0,0,1,172.82,179.84Z"/>
            <path class="cls-5"
                  d="M86.71,179.84a14.1,14.1,0,0,1,1.76-3,19.34,19.34,0,0,1,2.39-2.7,4,4,0,0,1-.38,4.08A4.06,4.06,0,0,1,86.71,179.84Z"/>
            <path class="cls-5"
                  d="M453.79,175.45a14.61,14.61,0,0,1,2.51-2.26,15.44,15.44,0,0,1,3.14-1.76,3.94,3.94,0,0,1-5.65,4Z"/>
            <path class="cls-5"
                  d="M179.6,172.18a15.71,15.71,0,0,1,3.14-1.32,16.71,16.71,0,0,1,3.52-.75,4.06,4.06,0,0,1-2.7,3.08A4,4,0,0,1,179.6,172.18Z"/>
            <path class="cls-5"
                  d="M93.5,172.18a15.71,15.71,0,0,1,3.14-1.32,16.71,16.71,0,0,1,3.52-.75,4.06,4.06,0,0,1-2.7,3.08A4,4,0,0,1,93.5,172.18Z"/>
            <path class="cls-5"
                  d="M468.74,177.14a1.14,1.14,0,0,0-1.13,1.19,1.13,1.13,0,0,0,1.13,1.13,1.14,1.14,0,0,0,1.19-1.13A1.15,1.15,0,0,0,468.74,177.14Z"/>
            <path class="cls-5"
                  d="M193.35,178.46a1.09,1.09,0,0,0-1.45.75,1.15,1.15,0,0,0,.69,1.44,1.17,1.17,0,0,0,1.51-.75A1.13,1.13,0,0,0,193.35,178.46Z"/>
            <path class="cls-5"
                  d="M107.25,178.46a1.09,1.09,0,0,0-1.45.75,1.15,1.15,0,0,0,.69,1.44,1.17,1.17,0,0,0,1.51-.75A1.13,1.13,0,0,0,107.25,178.46Z"/>
            <path class="cls-5"
                  d="M473.7,180.47a1.16,1.16,0,0,0-1.63.31,1.12,1.12,0,0,0,.25,1.57,1.13,1.13,0,0,0,1.63-.25A1.09,1.09,0,0,0,473.7,180.47Z"/>
            <path class="cls-5"
                  d="M197,183.11a1.12,1.12,0,0,0-1.63-.19,1.18,1.18,0,0,0-.25,1.57,1.17,1.17,0,1,0,1.88-1.38Z"/>
            <path class="cls-5"
                  d="M110.89,183.11a1.12,1.12,0,0,0-1.63-.19,1.18,1.18,0,0,0-.25,1.57,1.17,1.17,0,1,0,1.88-1.38Z"/>
            <path class="cls-5"
                  d="M475.77,186.06a1.19,1.19,0,0,0-1.51-.69,1.1,1.1,0,0,0-.69,1.44,1.13,1.13,0,0,0,1.44.75A1.17,1.17,0,0,0,475.77,186.06Z"/>
            <path class="cls-5"
                  d="M197.25,189.07a1.14,1.14,0,0,0-1.19-1.13,1.13,1.13,0,0,0-1.13,1.13,1.14,1.14,0,0,0,1.13,1.19A1.15,1.15,0,0,0,197.25,189.07Z"/>
            <path class="cls-5"
                  d="M111.14,189.07a1.14,1.14,0,0,0-1.19-1.13,1.13,1.13,0,0,0-1.13,1.13,1.14,1.14,0,0,0,1.13,1.19A1.15,1.15,0,0,0,111.14,189.07Z"/>
            <path class="cls-5"
                  d="M474.14,191.84a1.12,1.12,0,0,0-.82-1.44,1.15,1.15,0,0,0-.69,2.2A1.22,1.22,0,0,0,474.14,191.84Z"/>
            <path class="cls-5"
                  d="M193.92,194a1.08,1.08,0,0,0-.31-1.57,1.07,1.07,0,0,0-1.57.25,1.1,1.1,0,0,0,.19,1.57A1.15,1.15,0,0,0,193.92,194Z"/>
            <path class="cls-5"
                  d="M107.81,194a1.08,1.08,0,0,0-.31-1.57,1.07,1.07,0,0,0-1.57.25,1.1,1.1,0,0,0,.19,1.57A1.15,1.15,0,0,0,107.81,194Z"/>
            <path class="cls-5"
                  d="M469.43,195.48a1.11,1.11,0,0,0,.19-1.63,1.16,1.16,0,0,0-1.57-.25,1.22,1.22,0,0,0-.31,1.63A1.16,1.16,0,0,0,469.43,195.48Z"/>
            <path class="cls-5"
                  d="M188.33,196.11a1.19,1.19,0,0,0,.69-1.51,1.14,1.14,0,0,0-1.44-.69,1.13,1.13,0,0,0-.75,1.44A1.17,1.17,0,0,0,188.33,196.11Z"/>
            <path class="cls-5"
                  d="M102.23,196.11a1.19,1.19,0,0,0,.69-1.51,1.14,1.14,0,0,0-1.44-.69,1.13,1.13,0,0,0-.75,1.44A1.17,1.17,0,0,0,102.23,196.11Z"/>
            <path class="cls-5"
                  d="M463.47,195.73a1.14,1.14,0,0,0,1.13-1.19,1.13,1.13,0,0,0-1.13-1.13,1.14,1.14,0,0,0-1.19,1.13A1.15,1.15,0,0,0,463.47,195.73Z"/>
            <path class="cls-5"
                  d="M182.55,194.48a1.13,1.13,0,0,0,1.44-.75,1.16,1.16,0,0,0-2.2-.75A1.17,1.17,0,0,0,182.55,194.48Z"/>
            <path class="cls-5"
                  d="M96.45,194.48a1.13,1.13,0,0,0,1.44-.75,1.16,1.16,0,0,0-2.2-.75A1.17,1.17,0,0,0,96.45,194.48Z"/>
            <path class="cls-5"
                  d="M458.5,192.4a1.16,1.16,0,0,0,1.63-.31,1.12,1.12,0,0,0-.25-1.57,1.13,1.13,0,0,0-1.63.25A1.09,1.09,0,0,0,458.5,192.4Z"/>
            <path class="cls-5"
                  d="M178.91,189.77a1.11,1.11,0,0,0,1.57.25,1.07,1.07,0,0,0,.25-1.57,1.13,1.13,0,1,0-1.82,1.32Z"/>
            <path class="cls-5"
                  d="M92.8,189.77a1.11,1.11,0,0,0,1.57.25,1.07,1.07,0,0,0,.25-1.57,1.13,1.13,0,1,0-1.82,1.32Z"/>
            <path class="cls-5"
                  d="M456.43,186.81a1.19,1.19,0,0,0,1.51.69,1.1,1.1,0,0,0,.69-1.44,1.13,1.13,0,0,0-1.44-.75A1.17,1.17,0,0,0,456.43,186.81Z"/>
            <path class="cls-5"
                  d="M178.66,183.8a1.14,1.14,0,0,0,1.19,1.13A1.13,1.13,0,0,0,181,183.8a1.14,1.14,0,0,0-1.13-1.19A1.15,1.15,0,0,0,178.66,183.8Z"/>
            <path class="cls-5"
                  d="M92.55,183.8a1.14,1.14,0,0,0,1.19,1.13,1.13,1.13,0,0,0,1.13-1.13,1.14,1.14,0,0,0-1.13-1.19A1.15,1.15,0,0,0,92.55,183.8Z"/>
            <path class="cls-5"
                  d="M458.06,181a1.12,1.12,0,0,0,.82,1.44,1.15,1.15,0,0,0,.69-2.2A1.22,1.22,0,0,0,458.06,181Z"/>
            <path class="cls-5"
                  d="M182,178.84a1.15,1.15,0,0,0,.31,1.63,1.12,1.12,0,0,0,1.57-.25,1.17,1.17,0,0,0-1.88-1.38Z"/>
            <path class="cls-5"
                  d="M95.88,178.84a1.15,1.15,0,0,0,.31,1.63,1.12,1.12,0,0,0,1.57-.25,1.17,1.17,0,0,0-1.88-1.38Z"/>
            <path class="cls-5"
                  d="M462.77,177.39a1.11,1.11,0,0,0-.19,1.63,1.16,1.16,0,0,0,1.57.25,1.22,1.22,0,0,0,.31-1.63A1.16,1.16,0,0,0,462.77,177.39Z"/>
            <path class="cls-5"
                  d="M187.57,176.83a1.15,1.15,0,0,0-.69,1.44,1.13,1.13,0,0,0,1.45.75,1.18,1.18,0,0,0,.75-1.44A1.09,1.09,0,0,0,187.57,176.83Z"/>
            <path class="cls-5"
                  d="M101.47,176.83a1.15,1.15,0,0,0-.69,1.44,1.13,1.13,0,0,0,1.44.75,1.18,1.18,0,0,0,.75-1.44A1.09,1.09,0,0,0,101.47,176.83Z"/>
            <path class="cls-6"
                  d="M537.57,198.75a24.51,24.51,0,0,0,1.26-8.42V127.78a226.18,226.18,0,0,0-1.44-23.43c-.38-2.2-2.39-2.57-3.58-2.57"/>
            <line class="cls-6" x1="538.83" y1="151.77" x2="498.01" y2="151.77"/>
            <line class="cls-6" x1="552.33" y1="149.76" x2="495.81" y2="149.76"/>
            <line class="cls-6" x1="503.34" y1="158.55" x2="538.89" y2="158.55"/>
            <line class="cls-6" x1="504.66" y1="161.25" x2="538.89" y2="161.25"/>
            <line class="cls-6" x1="502.47" y1="181.35" x2="538.89" y2="181.35"/>
            <polyline class="cls-6" points="538.83 183.11 535.44 185.43 513.33 185.43 510.88 181.35"/>
            <path class="cls-6" d="M505.54,162.82l4.14,4.52h23.68l2.83-3.08c0-2.2-1-3.14-3.08-3"/>
            <path class="cls-6" d="M538.89,163.14h-2.7v13.69c0,1.63-1.26,2.26-4,2.26H510.57"/>
            <line class="cls-6" x1="533.36" y1="167.35" x2="533.36" y2="179.03"/>
            <path class="cls-6" d="M509.94,167.35a117,117,0,0,1,3.39,14"/>
            <polyline class="cls-6" points="510.69 181.35 510.69 185.75 502.84 185.75"/>
            <polyline class="cls-6" points="504.54 185.75 504.54 188.01 511.13 188.01"/>
            <path class="cls-6" d="M535.31,185.43c-.13,4.4-.19,8.23-.44,11.49"/>
            <path class="cls-6" d="M538.14,196.61a48.47,48.47,0,0,1-7.66.5H503.16"/>
            <path class="cls-6" d="M504.54,188c.31,4.46.63,11.43,2.32,12"/>
            <line class="cls-6" x1="513.2" y1="185.43" x2="513.2" y2="197.11"/>
            <path class="cls-6" d="M510.69,185.75c.94,3.45,0,11.24,1.76,11.37"/>
            <path class="cls-6" d="M422.52,140.84l46.79.19c21.54,0,36.74,10.55,41.83,40.38"/>
            <line class="cls-6" x1="469.62" y1="141.03" x2="538.83" y2="141.97"/>
            <polyline class="cls-6" points="538.83 190.46 544.92 189.26 555.35 189.26"/>
            <path class="cls-7" d="M538.83,171.74V167h5.09a.59.59,0,0,1,.63.63v3.45a.59.59,0,0,1-.63.63Z"/>
            <path class="cls-2"
                  d="M555.35,164.46V180h-4.21A1.33,1.33,0,0,1,550,178.9V165.59a1.21,1.21,0,0,1,1.13-1.13Z"/>
            <path class="cls-6" d="M555.35,162.7h-4.21a1.33,1.33,0,0,1-1.13-1.13v-6a1.21,1.21,0,0,1,1.13-1.13h4.21"/>
            <path class="cls-4"
                  d="M555.28,165.08V179.4c-2.26-.06-4.08.06-4.46-.19l-.06-13.94.19-.13.25-.06C552.21,165.08,553.65,165.15,555.28,165.08Z"/>
            <path class="cls-2" d="M555.35,181.41v5.9H552a1.13,1.13,0,0,1-1.13-1.13v-3.64a1.13,1.13,0,0,1,1.13-1.13Z"/>
            <path class="cls-4"
                  d="M555.35,182v4.71a27.1,27.1,0,0,1-3.77-.13,10.38,10.38,0,0,1,0-4.4l.19-.06L552,182C552.83,182,554,182,555.35,182Z"/>
            <path class="cls-6" d="M538.83,153.47h16.39c-1.82-.25-3.39-2.39-3.27-6.53"/>
            <polyline class="cls-6" points="538.83 200.5 538.83 198.68 554.34 198.68"/>
            <line class="cls-6" x1="469.31" y1="150.07" x2="469.31" y2="48.15"/>
            <path class="cls-6" d="M422.27,150.14c0-31.53,1.63-72.16,3.89-102.62l3.64-34.67"/>
            <path class="cls-6" d="M427.48,14.61c-3.27,33.1-5.78,68-6.15,101L421,150.07h27.32"/>
            <path class="cls-6" d="M532.61,32.82c-19.72-1.13-84.59-3.2-104.69-3"/>
            <line class="cls-6" x1="482.12" y1="54.17" x2="469.43" y2="53.86"/>
            <path class="cls-6" d="M527.21,21.64c-11.12-5.84-59.47-9-97.16-9"/>
            <path class="cls-6" d="M426.85,42.18l91.63,1.63c12,.13,12.69,3.14,13.63,8.67"/>
            <path class="cls-6"
                  d="M539.46,102.22l-11.93-1-63.43-4.08-10.8-.82c-8.42-.63-13.13-3.64-13.13-10,0-7.6.06-19.47.25-28.2.19-7.54.5-12.75,2.64-13.25"/>
            <path class="cls-6"
                  d="M537.2,105.42l-74.86-5.09-12.18-.69C441.74,99.14,437.28,95,437,88.9c-.38-9.67-.44-29.39.38-40.63.31-5.09,4.84-5.9,6-6"/>
            <path class="cls-2"
                  d="M481.74,53.86c12.94.19,25.56.5,38.12,1.07,1.82.06,4.46.69,5.28,3.77,3.27,12.37,4.52,25.5,5.09,39,.13,4.14-.57,3.64-3.45,3.45l-45.41-2.83a5.91,5.91,0,0,1-5.59-6.09l-1.07-33.72C474.58,55.49,477.28,53.8,481.74,53.86Z"/>
            <path class="cls-3"
                  d="M491.48,55c9.36,0,19,.38,28.32.88,2.2.19,3.71.88,4.46,3.08,3,12.87,5,26.82,5,40.07l-.06.82-.06.31a9.21,9.21,0,0,1-2.32.06l-45.34-2.83c-3.08-.5-4.4-2-4.77-5.21l-1.07-33.66c.31-4.84,7.72-3.64,11-3.64l2.39.06Z"/>
            <path class="cls-2"
                  d="M539.52,49.53c5.65,16.45,8.92,34.23,11.43,52.63h-3.64c-3,0-4.71-2.07-5.28-4.84-3.2-15.2-5.84-30.4-10-44.46C531.67,51.6,533.55,50.28,539.52,49.53Z"/>
            <path class="cls-3"
                  d="M539.64,50.16c5.53,16,8.79,33.41,11.3,51.37h-3.58c-2.89-.31-4-1.51-4.71-4.33-2.51-11.62-4.33-23.55-7.47-35.11-.69-3.08-2-6.59-2.57-9.67C533.8,50.91,537.26,50.41,539.64,50.16Z"/>
            <line class="cls-6" x1="517.91" y1="43.81" x2="519.49" y2="49.65"/>
            <line class="cls-6" x1="422.46" y1="127.21" x2="555.28" y2="129.1"/>
            <line class="cls-6" x1="422.33" y1="128.97" x2="551.77" y2="130.86"/>
            <path class="cls-2" d="M551.83,130.79h3.45v19c-2.57,0-3.45-1.7-3.45-4.21Z"/>
            <path class="cls-2"
                  d="M521.24,52.23c-1.32,0-2.45.57-2.45,1.26s1.13,1.19,2.45,1.19,2.45-.57,2.45-1.19S522.56,52.23,521.24,52.23Z"/>
            <path class="cls-2"
                  d="M524.26,106.18c-1.32,0-2.45,1.51-2.45,3.39s1.13,3.27,2.45,3.27,2.45-1.51,2.45-3.27S525.58,106.18,524.26,106.18Z"/>
            <path class="cls-2"
                  d="M517,73.58h2.45a3.16,3.16,0,0,1,2.89,2.89c.69,7,1.07,14.07,1.26,21.23a3.05,3.05,0,0,1-2.89,2.89h-2.45a3.06,3.06,0,0,1-2.89-2.89,119.74,119.74,0,0,1-1.26-21.23A3,3,0,0,1,517,73.58Z"/>
            <path class="cls-2"
                  d="M517,61h2.45a3.27,3.27,0,0,1,2.89,2.89l.44,6.34a3.2,3.2,0,0,1-2.89,2.89h-2.45a3,3,0,0,1-2.89-2.89l-.44-6.34A3,3,0,0,1,517,61Z"/>
            <path class="cls-2"
                  d="M521.68,53.42h0a.94.94,0,0,1,.88.88c1.7,17.58,2.57,35.17,2.89,52.88a.94.94,0,0,1-.88.88h0a.9.9,0,0,1-.88-.88c-.13-17.71-1.13-35.36-2.89-52.88A.9.9,0,0,1,521.68,53.42Z"/>
            <rect class="cls-4" x="518.54" y="188.45" width="8.67" height="5.28" rx="1.32" ry="1.32"/>
            <rect class="cls-2" x="474.77" y="131.67" width="11.24" height="6.72" rx="1.07" ry="1.07"/>
            <rect class="cls-2" x="478.16" y="132.68" width="5.78" height="4.58" rx="0.57" ry="0.57"/>
            <path class="cls-2"
                  d="M476.59,134.69h7.6c.5,0,.88.13.88.25v1c0,.19-.38.25-.88.25h-7.6c-.5,0-.88-.06-.88-.25v-1C475.71,134.81,476.09,134.69,476.59,134.69Z"/>
            <path class="cls-6"
                  d="M461,106.74l-24.37-1.88a3.91,3.91,0,0,0-3.71,3.45v25.75c0,1.82,1.44,2.2,2.76,2.2h27a1.53,1.53,0,0,0,1.38-1.38V109.57a3.6,3.6,0,0,0-2-2.51"/>
            <path class="cls-6" d="M546.87,102.16c3,4.33,3.27,15.32,3.64,27.07a1.84,1.84,0,0,1,1.32,1.76"/>
            <line class="cls-6" x1="548.06" y1="102.16" x2="539.46" y2="102.16"/>
            <path class="cls-6" d="M438.6,150.07c-14.26,8.23-14.7,26.06-15.14,51.37"/>
            <path class="cls-6" d="M442.3,153.91H430.87c-5.78,6.47-8.73,20.1-9.23,34.73"/>
            <path class="cls-6" d="M423.46,197.11h3.14a1.64,1.64,0,0,0,1.57-1.57v-.82a1.55,1.55,0,0,0-1.57-1.57h-3"/>
            <path class="cls-7"
                  d="M426.16,193.78a1.27,1.27,0,0,0-1.26,1.32,1.26,1.26,0,0,0,1.26,1.26,1.27,1.27,0,0,0,1.32-1.26A1.29,1.29,0,0,0,426.16,193.78Z"/>
            <path class="cls-5"
                  d="M433.89,191.71a30.12,30.12,0,0,1-.44-5.34,32.53,32.53,0,0,1,65.06,0,31.92,31.92,0,0,1-2.14,11.49l6.78-3.83c.19-9-.88-16.77-3.45-22.92-5.4-13.19-12.06-21.1-33.16-21.1H447.07c-12.12,7.47-17.52,22.36-18.34,39.44Z"/>
            <path class="cls-5"
                  d="M237.13,186.19c-.38,1.95-.75,3.89-1.13,6v.94L387.85,178V178h30.21c-.13-11.3-.75-16.33-4-16.58a.39.39,0,0,1-.13-.25H208.36A32.39,32.39,0,0,1,219.29,178h11.87V166.09c8.54-4.65,16-4.52,13.44,0A78.6,78.6,0,0,0,239.45,178H344.83Z"/>
            <rect class="cls-2" x="288.18" y="182.61" width="67.76" height="19.34" rx="4.33" ry="4.33"/>
            <rect class="cls-4" x="390.11" y="161.13" width="27.01" height="38.44" rx="3.33" ry="3.33"/>
            <path class="cls-2" d="M231.1,204h-3.77c-.69-15.76-4.4-27.95-9.74-37.87-2.45-4.58,4.9-4.65,13.5,0Z"/>
            <path class="cls-2" d="M231.1,204h3.77c.69-15.76,4.4-27.95,9.73-37.87,2.45-4.58-4.9-4.65-13.5,0Z"/>
            <path class="cls-8" d="M415.67,162.07v.13a5.74,5.74,0,0,1,.94,1.44h.13A6.23,6.23,0,0,0,415.67,162.07Z"/>
            <path class="cls-8" d="M415.67,149.63v7.66a10.25,10.25,0,0,1,1.7-1.57,14.8,14.8,0,0,1-1.26-6.09Z"/>
            <path class="cls-8"
                  d="M415.67,157.3v-7.66h-368v34.54h4.9V164.33l.06,8,19.66.06a32.62,32.62,0,0,1,58.72-.25h27.57a32.6,32.6,0,0,1,48.17-12.25c.57.38,1.07.82,1.57,1.19H413.85a.39.39,0,0,0,.13.25h.13A5,5,0,0,1,415.67,157.3Z"/>
            <path class="cls-8" d="M415.67,162.2v-.13a3.49,3.49,0,0,0-1.07-.57A2.84,2.84,0,0,1,415.67,162.2Z"/>
            <path class="cls-6" d="M414.6,161.5a3.25,3.25,0,0,1,2,2.14h.13A3.14,3.14,0,0,0,414.6,161.5Z"/>
            <path class="cls-6"
                  d="M72.27,172.43a32.62,32.62,0,0,1,58.72-.25h27.57a32.6,32.6,0,0,1,48.17-12.25c.57.38,1.07.82,1.57,1.19H413.85a.39.39,0,0,0,.13.25h.13c-.25-2.26,1.26-4.08,3.27-5.65a14.8,14.8,0,0,1-1.26-6.09H47.65v34.54h4.9V164.33l.06,8Z"/>
            <line class="cls-6" x1="52.23" y1="172.18" x2="52.23" y2="149.38"/>
            <line class="cls-6" x1="121.44" y1="153.97" x2="168.23" y2="153.97"/>
            <line class="cls-6" x1="52.23" y1="153.97" x2="82.13" y2="153.97"/>
            <path class="cls-6"
                  d="M219.85,162.63c-7.91-7.29-17.46-13.25-32.66-13.19-12.5,0-22.67,4.71-27.63,12.94l-27.7-.13"/>
            <path class="cls-6"
                  d="M133.75,162.63c-7.91-7.29-17.46-13.25-32.66-13.19-12.5,0-22.67,4.71-27.63,12.94l-21.23-.13"/>
            <rect class="cls-7" x="47.96" y="172.49" width="3.64" height="10.3"/>
            <path class="cls-6" d="M550.51,129.1c-.25.94-1.07,1.32-1.07,2.32v14c0,2.51,1.63,4.33,3,4.52"/>
            <rect class="cls-1" x="1.49" y="0.86" width="410.73" height="148.78"/>
            <line class="cls-6" x1="1.43" y1="5.88" x2="412.09" y2="5.88"/>
            <line class="cls-6" x1="1.43" y1="3.56" x2="412.09" y2="3.56"/>
            <line class="cls-6" x1="1.87" y1="147.69" x2="412.09" y2="147.69"/>
            <line class="cls-6" x1="9.84" y1="141.41" x2="405.81" y2="141.41"/>
            <line class="cls-6" x1="9.91" y1="137.26" x2="405.81" y2="137.26"/>
            <line class="cls-6" x1="406.75" y1="5.88" x2="406.75" y2="147.69"/>
            <line class="cls-6" x1="10.66" y1="5.88" x2="10.66" y2="147.69"/>
            <rect class="cls-2" x="142.1" y="137.95" width="2.45" height="3.45" rx="0.44" ry="0.44"/>
            <rect class="cls-2" x="123.58" y="137.95" width="2.45" height="3.45" rx="0.44" ry="0.44"/>
            <rect class="cls-2" x="105.05" y="137.95" width="2.45" height="3.45" rx="0.44" ry="0.44"/>
            <rect class="cls-2" x="86.52" y="137.95" width="2.45" height="3.45" rx="0.44" ry="0.44"/>
            <rect class="cls-2" x="68" y="137.95" width="2.45" height="3.45" rx="0.44" ry="0.44"/>
            <rect class="cls-2" x="49.47" y="137.95" width="2.45" height="3.45" rx="0.44" ry="0.44"/>
            <rect class="cls-2" x="30.94" y="137.95" width="2.45" height="3.45" rx="0.44" ry="0.44"/>
            <rect class="cls-2" x="12.42" y="137.95" width="2.45" height="3.45" rx="0.44" ry="0.44"/>
            <rect class="cls-2" x="160.63" y="137.95" width="2.45" height="3.45" rx="0.44" ry="0.44"/>
            <rect class="cls-2" x="179.16" y="137.95" width="2.45" height="3.45" rx="0.44" ry="0.44"/>
            <rect class="cls-2" x="197.69" y="137.95" width="2.45" height="3.45" rx="0.44" ry="0.44"/>
            <rect class="cls-2" x="216.21" y="137.95" width="2.45" height="3.45" rx="0.44" ry="0.44"/>
            <rect class="cls-2" x="234.74" y="137.95" width="2.45" height="3.45" rx="0.44" ry="0.44"/>
            <rect class="cls-2" x="253.27" y="137.95" width="2.45" height="3.45" rx="0.44" ry="0.44"/>
            <rect class="cls-2" x="271.79" y="137.95" width="2.45" height="3.45" rx="0.44" ry="0.44"/>
            <rect class="cls-2" x="290.32" y="137.95" width="2.45" height="3.45" rx="0.44" ry="0.44"/>
            <rect class="cls-2" x="308.85" y="137.95" width="2.45" height="3.45" rx="0.44" ry="0.44"/>
            <rect class="cls-2" x="327.37" y="137.95" width="2.45" height="3.45" rx="0.44" ry="0.44"/>
            <rect class="cls-2" x="345.9" y="137.95" width="2.45" height="3.45" rx="0.44" ry="0.44"/>
            <rect class="cls-2" x="364.43" y="137.95" width="2.45" height="3.45" rx="0.44" ry="0.44"/>
            <rect class="cls-2" x="382.95" y="137.95" width="2.45" height="3.45" rx="0.44" ry="0.44"/>
            <rect class="cls-2" x="401.48" y="137.95" width="2.45" height="3.45" rx="0.44" ry="0.44"/>
            <path class="cls-2"
                  d="M142.86,141.41h.94c.13,0,.25.25.25.57v3.33c0,.31-.12.57-.25.57h-.94c-.19,0-.25-.25-.25-.57V142C142.61,141.66,142.67,141.41,142.86,141.41Z"/>
            <path class="cls-2"
                  d="M124.33,141.41h.94c.13,0,.25.25.25.57v3.33c0,.31-.13.57-.25.57h-.94c-.19,0-.25-.25-.25-.57V142C124.08,141.66,124.14,141.41,124.33,141.41Z"/>
            <path class="cls-2"
                  d="M105.8,141.41h.94c.13,0,.25.25.25.57v3.33c0,.31-.13.57-.25.57h-.94c-.19,0-.25-.25-.25-.57V142C105.55,141.66,105.62,141.41,105.8,141.41Z"/>
            <path class="cls-2"
                  d="M87.28,141.41h.94c.13,0,.25.25.25.57v3.33c0,.31-.13.57-.25.57h-.94c-.19,0-.25-.25-.25-.57V142C87,141.66,87.09,141.41,87.28,141.41Z"/>
            <path class="cls-2"
                  d="M68.75,141.41h.94c.13,0,.25.25.25.57v3.33c0,.31-.13.57-.25.57h-.94c-.19,0-.25-.25-.25-.57V142C68.5,141.66,68.56,141.41,68.75,141.41Z"/>
            <path class="cls-2"
                  d="M50.22,141.41h.94c.13,0,.25.25.25.57v3.33c0,.31-.13.57-.25.57h-.94c-.19,0-.25-.25-.25-.57V142C50,141.66,50,141.41,50.22,141.41Z"/>
            <path class="cls-2"
                  d="M31.7,141.41h.94c.13,0,.25.25.25.57v3.33c0,.31-.13.57-.25.57H31.7c-.19,0-.25-.25-.25-.57V142C31.45,141.66,31.51,141.41,31.7,141.41Z"/>
            <path class="cls-2"
                  d="M13.17,141.41h.94c.13,0,.25.25.25.57v3.33c0,.31-.13.57-.25.57h-.94c-.19,0-.25-.25-.25-.57V142C12.92,141.66,13,141.41,13.17,141.41Z"/>
            <path class="cls-2"
                  d="M161.39,141.41h.94c.13,0,.25.25.25.57v3.33c0,.31-.13.57-.25.57h-.94c-.19,0-.25-.25-.25-.57V142C161.13,141.66,161.2,141.41,161.39,141.41Z"/>
            <path class="cls-2"
                  d="M179.91,141.41h.94c.13,0,.25.25.25.57v3.33c0,.31-.13.57-.25.57h-.94c-.19,0-.25-.25-.25-.57V142C179.66,141.66,179.72,141.41,179.91,141.41Z"/>
            <path class="cls-2"
                  d="M198.44,141.41h.94c.13,0,.25.25.25.57v3.33c0,.31-.13.57-.25.57h-.94c-.19,0-.25-.25-.25-.57V142C198.19,141.66,198.25,141.41,198.44,141.41Z"/>
            <path class="cls-2"
                  d="M217,141.41h.94c.13,0,.25.25.25.57v3.33c0,.31-.13.57-.25.57H217c-.19,0-.25-.25-.25-.57V142C216.71,141.66,216.78,141.41,217,141.41Z"/>
            <path class="cls-2"
                  d="M235.49,141.41h.94c.13,0,.25.25.25.57v3.33c0,.31-.13.57-.25.57h-.94c-.19,0-.25-.25-.25-.57V142C235.24,141.66,235.3,141.41,235.49,141.41Z"/>
            <path class="cls-2"
                  d="M254,141.41H255c.13,0,.25.25.25.57v3.33c0,.31-.13.57-.25.57H254c-.19,0-.25-.25-.25-.57V142C253.77,141.66,253.83,141.41,254,141.41Z"/>
            <path class="cls-2"
                  d="M272.55,141.41h.94c.13,0,.25.25.25.57v3.33c0,.31-.13.57-.25.57h-.94c-.19,0-.25-.25-.25-.57V142C272.29,141.66,272.36,141.41,272.55,141.41Z"/>
            <path class="cls-2"
                  d="M291.07,141.41H292c.13,0,.25.25.25.57v3.33c0,.31-.13.57-.25.57h-.94c-.19,0-.25-.25-.25-.57V142C290.82,141.66,290.88,141.41,291.07,141.41Z"/>
            <path class="cls-2"
                  d="M309.6,141.41h.94c.13,0,.25.25.25.57v3.33c0,.31-.13.57-.25.57h-.94c-.19,0-.25-.25-.25-.57V142C309.35,141.66,309.41,141.41,309.6,141.41Z"/>
            <path class="cls-2"
                  d="M328.13,141.41h.94c.13,0,.25.25.25.57v3.33c0,.31-.13.57-.25.57h-.94c-.19,0-.25-.25-.25-.57V142C327.87,141.66,327.94,141.41,328.13,141.41Z"/>
            <path class="cls-2"
                  d="M346.65,141.41h.94c.13,0,.25.25.25.57v3.33c0,.31-.13.57-.25.57h-.94c-.19,0-.25-.25-.25-.57V142C346.4,141.66,346.46,141.41,346.65,141.41Z"/>
            <path class="cls-2"
                  d="M365.18,141.41h.94c.13,0,.25.25.25.57v3.33c0,.31-.13.57-.25.57h-.94c-.19,0-.25-.25-.25-.57V142C364.93,141.66,365,141.41,365.18,141.41Z"/>
            <path class="cls-2"
                  d="M383.71,141.41h.94c.13,0,.25.25.25.57v3.33c0,.31-.13.57-.25.57h-.94c-.19,0-.25-.25-.25-.57V142C383.45,141.66,383.52,141.41,383.71,141.41Z"/>
            <path class="cls-2"
                  d="M402.23,141.41h.94c.13,0,.25.25.25.57v3.33c0,.31-.13.57-.25.57h-.94c-.19,0-.25-.25-.25-.57V142C402,141.66,402,141.41,402.23,141.41Z"/>
            <path class="cls-6" d="M507.11,13.29C496,12.1,485,11,474,10.15"/>
            <path class="cls-6" d="M510.25,15.43c-12.31-1.51-24.74-2.89-37.87-3.77"/>
            <path class="cls-2"
                  d="M540.9,44.75,538.58,39l-12.94,2.83-.25,3.08a11.31,11.31,0,0,1,6.72,7.85H545.3C544.23,47.77,542.91,44.38,540.9,44.75Z"/>
            <line class="cls-6" x1="541.03" y1="44.57" x2="526.58" y2="45.38"/>
            <path class="cls-2" d="M145,204h-3.77c-.69-15.76-4.4-27.95-9.74-37.87-2.45-4.58,4.9-4.65,13.5,0Z"/>
            <path class="cls-2" d="M145,204h3.77c.69-15.76,4.4-27.95,9.73-37.87,2.45-4.58-4.9-4.65-13.5,0Z"/>
            <polygon class="cls-9" points="406.75 137.26 406.75 119.06 388.56 137.26 406.75 137.26"/>
            <path class="cls-9"
                  d="M406.75,85.19V64.7l-6.7-6.7L374.65,83.41h0l-33.88,33.88a12,12,0,1,1-16.94-16.94l33.88-33.88h0l25.41-25.41-7-7h0l-9.91-9.91L340.77,49.53h0l-63.6,63.59a11.91,11.91,0,0,0-3.51,8.47v15.67h81.85a11.93,11.93,0,0,1,2.2-3Z"/>
            <polygon class="cls-9" points="406.75 30.82 406.75 5.88 381.81 5.88 393.14 17.21 406.75 30.82"/>
            <polygon class="cls-10"
                     points="306.92 36.16 276.73 5.96 283.81 5.98 306.92 29.09 320.32 15.68 310.63 5.99 317.73 6.02 327.39 15.68 306.92 36.16"/>
            <path class="cls-10"
                  d="M252.2,137.26h-5V121.58a38.18,38.18,0,0,1,11.26-27.16L346.93,6h7L262,98a33.22,33.22,0,0,0-9.79,23.63Z"/>
            <polygon class="cls-10" points="406.67 34.28 378.39 5.99 385.49 6.02 406.68 27.21 406.67 34.28"/>
            <path class="cls-10"
                  d="M276.16,137.26h-5V121.59a14.39,14.39,0,0,1,4.24-10.24l90.78-90.77,20.47,20.48L325.6,102.12a9.48,9.48,0,1,0,13.4,13.4l61.06-61.05,6.7,6.7-.08,7-6.62-6.62-57.52,57.52a14.48,14.48,0,1,1-20.47-20.47l57.52-57.52-13.4-13.41-87.24,87.23a9.42,9.42,0,0,0-2.78,6.7Z"/>
            <path class="cls-10"
                  d="M358.47,137.19h-6a23.92,23.92,0,0,1,3.43-4.72l50.68-50.67.06,7L359.47,136C358.77,136.7,358.93,136.3,358.47,137.19Z"/>
            <polygon class="cls-10" points="392.17 137.19 385.1 137.19 406.68 115.6 406.68 122.67 392.17 137.19"/>
            <path class="cls-11"
                  d="M492.7,117.29l-1-1.77a.06.06,0,0,0,0,0H491a.06.06,0,0,0,0,.09l1.41,2.36a.06.06,0,0,1,0,.05,2.5,2.5,0,0,1-.21.39.52.52,0,0,1-.17.15.45.45,0,0,1-.21,0,1,1,0,0,1-.37-.09.06.06,0,0,0-.08,0l-.18.55a.06.06,0,0,0,0,.07,1.25,1.25,0,0,0,.25.09,1.54,1.54,0,0,0,.37,0,1.15,1.15,0,0,0,.45-.08.94.94,0,0,0,.34-.26,2.61,2.61,0,0,0,.34-.56l1.35-2.81a.06.06,0,0,0-.05-.08h-.66a.06.06,0,0,0-.05,0Z"/>
            <path class="cls-11"
                  d="M497,116.56l.64-1a.06.06,0,0,0,0-.09h-.66a.06.06,0,0,0,0,0l-.53.83a3.67,3.67,0,0,1-.41.57.44.44,0,0,1-.3.16v-1.53a.06.06,0,0,0-.06-.06h-.67a.06.06,0,0,0-.06.06v3.62a.06.06,0,0,0,.06.06h.66a.06.06,0,0,0,.06-.06v-1.55l.18,0,.16-.06,1,1.67a.06.06,0,0,0,0,0h.71a.06.06,0,0,0,0-.09l-1.23-2A3,3,0,0,0,497,116.56Z"/>
            <path class="cls-11"
                  d="M501.18,115.8a1.54,1.54,0,0,0-1-.31h-1.62a.06.06,0,0,0-.06.06v3.62a.06.06,0,0,0,.06.06h.67a.06.06,0,0,0,.06-.06v-1.26h.93a1.59,1.59,0,0,0,.73-.15,1.11,1.11,0,0,0,.47-.44,1.26,1.26,0,0,0,.16-.64A1.08,1.08,0,0,0,501.18,115.8Zm-.6,1.35a.71.71,0,0,1-.5.16h-.83V116.1h.81q.69,0,.69.59A.6.6,0,0,1,500.58,117.15Z"/>
            <path class="cls-11"
                  d="M505.25,117.27a1.43,1.43,0,0,0-1-.29H503v-.88h2a.06.06,0,0,0,.06-.06v-.49a.06.06,0,0,0-.06-.06h-2.7a.06.06,0,0,0-.06.06v3.62a.06.06,0,0,0,.06.06h1.91a1.77,1.77,0,0,0,.74-.14,1.07,1.07,0,0,0,.48-.4,1.1,1.1,0,0,0,.16-.6A1,1,0,0,0,505.25,117.27Zm-1.17,1.35H503v-1h1a.93.93,0,0,1,.55.13.44.44,0,0,1,.18.38Q504.8,118.61,504.08,118.61Z"/>
            <path class="cls-11"
                  d="M507.78,117.29l-1-1.77a.06.06,0,0,0,0,0H506a.06.06,0,0,0,0,.09l1.41,2.36a.06.06,0,0,1,0,.05,2.5,2.5,0,0,1-.21.39.52.52,0,0,1-.17.15.45.45,0,0,1-.21,0,1,1,0,0,1-.37-.09.06.06,0,0,0-.08,0l-.18.55a.06.06,0,0,0,0,.07,1.25,1.25,0,0,0,.25.09,1.54,1.54,0,0,0,.37,0,1.15,1.15,0,0,0,.45-.08.94.94,0,0,0,.34-.26,2.61,2.61,0,0,0,.34-.56l1.35-2.81a.06.06,0,0,0-.05-.08h-.66a.06.06,0,0,0-.05,0Z"/>
            <path class="cls-11"
                  d="M512.66,115.8a1.54,1.54,0,0,0-1-.31H510a.06.06,0,0,0-.06.06v3.62a.06.06,0,0,0,.06.06h.67a.06.06,0,0,0,.06-.06v-1.26h.93a1.59,1.59,0,0,0,.73-.15,1.11,1.11,0,0,0,.47-.44,1.26,1.26,0,0,0,.16-.64A1.08,1.08,0,0,0,512.66,115.8Zm-.6,1.35a.71.71,0,0,1-.5.16h-.83V116.1h.81q.69,0,.69.59A.6.6,0,0,1,512.06,117.15Z"/>
            <path class="cls-11"
                  d="M515.41,118.66a1,1,0,0,1-.81-.34,1.5,1.5,0,0,1-.28-1,1.47,1.47,0,0,1,.27-1,1,1,0,0,1,.8-.33,1.08,1.08,0,0,1,.6.17.8.8,0,0,1,.33.4.06.06,0,0,0,.07,0l.58-.16a.06.06,0,0,0,0-.07,1.38,1.38,0,0,0-.56-.72,2,2,0,0,0-1.07-.26,1.82,1.82,0,0,0-1.37.49,2.33,2.33,0,0,0,0,2.84,1.84,1.84,0,0,0,1.39.51,1.89,1.89,0,0,0,1-.26,1.61,1.61,0,0,0,.62-.75.06.06,0,0,0,0-.08l-.57-.22a.06.06,0,0,0-.07,0A1,1,0,0,1,515.41,118.66Z"/>
            <path class="cls-11"
                  d="M518.6,117.64h1.93a.06.06,0,0,0,.06-.06v-.49a.06.06,0,0,0-.06-.06H518.6v-.94h2.1a.06.06,0,0,0,.06-.06v-.49a.06.06,0,0,0-.06-.06h-2.82a.06.06,0,0,0-.06.06v3.62a.06.06,0,0,0,.06.06h2.93a.06.06,0,0,0,.06-.06v-.49a.06.06,0,0,0-.06-.06h-2.2Z"/>
            <path class="cls-11"
                  d="M524.43,115.8a1.54,1.54,0,0,0-1-.31h-1.62a.06.06,0,0,0-.06.06v3.62a.06.06,0,0,0,.06.06h.67a.06.06,0,0,0,.06-.06v-1.26h.93a1.59,1.59,0,0,0,.73-.15,1.11,1.11,0,0,0,.47-.44,1.26,1.26,0,0,0,.16-.64A1.08,1.08,0,0,0,524.43,115.8Zm-.6,1.35a.71.71,0,0,1-.5.16h-.83V116.1h.81q.69,0,.69.59A.6.6,0,0,1,523.83,117.15Z"/>
            <path class="cls-11"
                  d="M527.83,117.26a.9.9,0,0,0,.54-.3.83.83,0,0,0,.18-.54.79.79,0,0,0-.35-.7,1.85,1.85,0,0,0-1-.24h-1.65a.06.06,0,0,0-.06.06v3.62a.06.06,0,0,0,.06.06h1.81a1.77,1.77,0,0,0,1.06-.28.92.92,0,0,0,.38-.79.82.82,0,0,0-.24-.61A1.15,1.15,0,0,0,527.83,117.26Zm-1.6-1.19h.89a.87.87,0,0,1,.48.11.4.4,0,0,1,.16.36.41.41,0,0,1-.15.35.79.79,0,0,1-.48.12h-.9Zm1.57,2.44a.89.89,0,0,1-.55.14h-1v-1.07h1q.75,0,.75.52A.49.49,0,0,1,527.8,118.51Z"/>
            <rect class="cls-11" x="529.66" y="115.49" width="0.78" height="3.73" rx="0.06" ry="0.06"/>
            <path class="cls-11"
                  d="M534.23,118a.06.06,0,0,0-.07,0,1,1,0,0,1-1,.66,1,1,0,0,1-.81-.34,1.5,1.5,0,0,1-.28-1,1.47,1.47,0,0,1,.27-1,1,1,0,0,1,.8-.33,1.08,1.08,0,0,1,.6.17.8.8,0,0,1,.33.4.06.06,0,0,0,.07,0l.58-.16a.06.06,0,0,0,0-.07,1.38,1.38,0,0,0-.56-.72,2,2,0,0,0-1.07-.26,1.82,1.82,0,0,0-1.37.49,2.33,2.33,0,0,0,0,2.84,1.84,1.84,0,0,0,1.39.51,1.89,1.89,0,0,0,1-.26,1.61,1.61,0,0,0,.62-.75.06.06,0,0,0,0-.08Z"/>
            <path class="cls-11"
                  d="M487.87,124.21V121a1.11,1.11,0,0,0-.31-.77h0l0,0h0l-.46-.47h0l-1-1-.53.53,1.46,1.46a.38.38,0,0,1,.11.26v3.17a.37.37,0,0,1-.37.37h-3.18a.38.38,0,0,1-.26-.11l-1.26-1.26h0l-1.52-1.52.53-.53h0l.79.79h0l1.06,1.06a.37.37,0,0,0,.53-.53l-1.06-1.06h0l-.79-.79.53-.53L484,122a.37.37,0,1,0,.53-.53l-1.85-1.85.26-.26-.53-.53-1.85,1.85h0l-1.06,1.06,1.32,1.32h0l2,2a1.12,1.12,0,0,0,.79.33h3.18A1.12,1.12,0,0,0,487.87,124.21Z"/>
            <path class="cls-11"
                  d="M475.24,116.41l-.14-.14A.37.37,0,0,1,475,116v-3.18a.37.37,0,0,1,.37-.37h3.18a.37.37,0,0,1,.26.11l2.19,2.19h0l.59.59-.53.53-.79-.79h0L479.2,114a.37.37,0,1,0-.53.53l1.06,1.06h0l.79.79-.53.53-1.85-1.85a.37.37,0,1,0-.53.53l1.85,1.85-.27.27.53.53,2.92-2.92-.26-.26h0l-1.72-1.72L479.33,112a1.12,1.12,0,0,0-.79-.33h-3.18a1.12,1.12,0,0,0-1.12,1.12V116a1.12,1.12,0,0,0,.33.79l.78.78h0l.68.68.53-.53-1.32-1.32Z"/>
            <path class="cls-11"
                  d="M480.79,123.56l-.53-.53-1,1h0l-.43.43a.37.37,0,0,1-.26.11h-3.18a.37.37,0,0,1-.37-.37h0V121a.37.37,0,0,1,.11-.26l2-2h0l.79-.79.31.31h0l.22.22-.79.79h0l-1.06,1.06a.37.37,0,1,0,.53.53l1.06-1.06h0l.79-.79.53.53-1.85,1.85a.37.37,0,1,0,.53.53l1.85-1.85.27.27.53-.53-2.07-2.07-.84-.84-.88.88-2.43,2.43a1.12,1.12,0,0,0-.33.79v3.18h0a1.12,1.12,0,0,0,1.12,1.12h3.18a1.12,1.12,0,0,0,.79-.33l1-1h0Z"/>
            <path class="cls-11"
                  d="M483.13,112.75h0l.18-.18a.37.37,0,0,1,.26-.11h3.17a.37.37,0,0,1,.37.37V116h0a.37.37,0,0,1-.11.26l-1.7,1.7h0l-1.09,1.09-.53-.53.79-.79h0l1.06-1.06a.37.37,0,0,0-.53-.53L484,117.2h0l-.79.79-.53-.53,1.85-1.85a.37.37,0,1,0-.53-.53l-1.85,1.85-.26-.26-.53.53.53.53h0l1.85,1.85h0l.53.53,2.56-2.56.75-.75a1.12,1.12,0,0,0,.33-.79h0v-3.18a1.12,1.12,0,0,0-1.12-1.12h-3.17a1.12,1.12,0,0,0-.79.33l-.18.18h0l-1.28,1.28.53.53Z"/>
            <path class="cls-11" d="M484.9,120.77l.13.13a.37.37,0,1,0,.53-.53l-.13-.13h0l-.4-.4-.53.53.39.39Z"/>
            <path class="cls-11" d="M478.68,122.49a.37.37,0,1,0,.53.53l.13-.13h0l.39-.39-.53-.53-.39.39h0Z"/>
            <path class="cls-11" d="M483.44,114.55a.37.37,0,1,0-.53-.53l-.18.18h0l-.35.35.53.53.36-.36h0Z"/>
            <path class="cls-11" d="M477.09,116.14a.37.37,0,1,0-.53.53l.22.22h0l.3.3.53-.53-.31-.31h0Z"/>
            <path class="cls-11"
                  d="M492.1,120.86a.62.62,0,0,1,.51.21,1,1,0,0,1,.17.62.86.86,0,0,1-.2.62.76.76,0,0,1-.57.2.66.66,0,0,1-.57-.25,1.33,1.33,0,0,1-.18-.78,2.69,2.69,0,0,1,0-.47,1.2,1.2,0,0,1,.11-.35.76.76,0,0,1,.2-.24,1,1,0,0,1,.31-.16,5.8,5.8,0,0,1,.79-.14v.25a4.45,4.45,0,0,0-.85.16.48.48,0,0,0-.27.25,1.3,1.3,0,0,0-.08.5.6.6,0,0,1,.23-.31A.66.66,0,0,1,492.1,120.86Zm.38.83a.83.83,0,0,0-.1-.47.38.38,0,0,0-.34-.15.43.43,0,0,0-.37.15.76.76,0,0,0-.12.47.79.79,0,0,0,.11.46.39.39,0,0,0,.34.15.42.42,0,0,0,.36-.15A.78.78,0,0,0,492.49,121.68Z"/>
            <path class="cls-11"
                  d="M493.15,123.14l-.19,0v-.21h.13q.26,0,.42-.39l0-.07-.67-1.69h.3l.36.94,0,.05.07.21.06.19.11-.31.37-1.08h.3l-.65,1.7a2.07,2.07,0,0,1-.2.4.65.65,0,0,1-.2.2A.49.49,0,0,1,493.15,123.14Z"/>
            <path class="cls-11"
                  d="M496.08,121.61q0,.89-.63.89a.52.52,0,0,1-.53-.3h0a2.37,2.37,0,0,1,0,.27v.67h-.28v-2q0-.26,0-.35h.27v.16q0,.08,0,.11h0a.52.52,0,0,1,.2-.23.64.64,0,0,1,.33-.07.55.55,0,0,1,.47.21A1.12,1.12,0,0,1,496.08,121.61Zm-.3,0a1,1,0,0,0-.1-.51.33.33,0,0,0-.31-.15.38.38,0,0,0-.41.29,1.28,1.28,0,0,0,0,.39.9.9,0,0,0,.11.49.39.39,0,0,0,.35.16.34.34,0,0,0,.31-.15A1,1,0,0,0,495.78,121.62Z"/>
            <path class="cls-11"
                  d="M497.87,121.62a1,1,0,0,1-.2.67.73.73,0,0,1-.57.22.69.69,0,0,1-.56-.23,1,1,0,0,1-.19-.66q0-.88.76-.88a.72.72,0,0,1,.57.21A1,1,0,0,1,497.87,121.62Zm-.3,0a1,1,0,0,0-.1-.51.39.39,0,0,0-.35-.16.4.4,0,0,0-.36.16.92.92,0,0,0-.11.51.94.94,0,0,0,.11.51.38.38,0,0,0,.34.17.41.41,0,0,0,.36-.16A.94.94,0,0,0,497.57,121.62Z"/>
            <path class="cls-11"
                  d="M498.89,120.77a.83.83,0,0,1,.47.11.36.36,0,0,1,.16.32.35.35,0,0,1-.09.24.46.46,0,0,1-.26.13h0a.51.51,0,0,1,.3.13.37.37,0,0,1,.1.27.43.43,0,0,1-.17.36.77.77,0,0,1-.48.13h-.7v-1.7Zm-.38.22v.5h.34a.54.54,0,0,0,.29-.06.27.27,0,0,0,0-.39.46.46,0,0,0-.27-.06Zm0,1.28h.37a.52.52,0,0,0,.31-.07.25.25,0,0,0,.09-.21.25.25,0,0,0-.09-.22.58.58,0,0,0-.32-.07h-.35Z"/>
            <path class="cls-11"
                  d="M500.33,122.5a.51.51,0,0,1-.39-.14.52.52,0,0,1-.13-.37.49.49,0,0,1,.17-.41.92.92,0,0,1,.56-.15h.38v-.09a.41.41,0,0,0-.09-.3.37.37,0,0,0-.28-.09.47.47,0,0,0-.28.06.29.29,0,0,0-.1.21l-.3,0q.07-.46.68-.46a.7.7,0,0,1,.48.15.55.55,0,0,1,.16.43V122a.42.42,0,0,0,0,.19.13.13,0,0,0,.13.06h.09v.18l-.22,0a.29.29,0,0,1-.23-.08.43.43,0,0,1-.08-.26h0a.69.69,0,0,1-.25.28A.7.7,0,0,1,500.33,122.5Zm.06-.21a.54.54,0,0,0,.28-.07.51.51,0,0,0,.19-.19.51.51,0,0,0,.07-.25v-.14h-.31a1,1,0,0,0-.3,0,.32.32,0,0,0-.16.12.35.35,0,0,0-.06.21.29.29,0,0,0,.07.21A.29.29,0,0,0,500.4,122.29Z"/>
            <path class="cls-11"
                  d="M502.28,120.77h.28v.75h.08l.08-.05.09-.11.36-.57h.3l-.34.51a1.6,1.6,0,0,1-.2.26l.56.93h-.31l-.44-.78-.08,0h-.09v.75h-.28Z"/>
            <path class="cls-11"
                  d="M505.16,121.62a1,1,0,0,1-.2.67.73.73,0,0,1-.57.22.69.69,0,0,1-.56-.23,1,1,0,0,1-.19-.66q0-.88.76-.88a.72.72,0,0,1,.57.21A1,1,0,0,1,505.16,121.62Zm-.3,0a1,1,0,0,0-.1-.51.39.39,0,0,0-.35-.16.4.4,0,0,0-.36.16.92.92,0,0,0-.11.51.94.94,0,0,0,.11.51.38.38,0,0,0,.34.17.41.41,0,0,0,.36-.16A.94.94,0,0,0,504.87,121.62Z"/>
            <path class="cls-11"
                  d="M506.54,122.47h-.24l-.51-1.5q0,.25,0,.36v1.14h-.27v-1.7H506l.35,1a2,2,0,0,1,.11.45,2.15,2.15,0,0,1,.11-.45l.35-1h.42v1.7H507V121Z"/>
            <path class="cls-11" d="M509,120.77v1.7h-.28V121H508v1.5h-.28v-1.7Z"/>
            <path class="cls-11"
                  d="M509.91,122.5a.51.51,0,0,1-.39-.14.52.52,0,0,1-.13-.37.49.49,0,0,1,.17-.41.92.92,0,0,1,.56-.15h.38v-.09a.41.41,0,0,0-.09-.3.37.37,0,0,0-.28-.09.47.47,0,0,0-.28.06.29.29,0,0,0-.1.21l-.3,0q.07-.46.68-.46a.7.7,0,0,1,.48.15.55.55,0,0,1,.16.43V122a.42.42,0,0,0,0,.19.13.13,0,0,0,.13.06H511v.18l-.22,0a.29.29,0,0,1-.23-.08.43.43,0,0,1-.08-.26h0a.69.69,0,0,1-.25.28A.7.7,0,0,1,509.91,122.5Zm.06-.21a.54.54,0,0,0,.28-.07.51.51,0,0,0,.19-.19.51.51,0,0,0,.07-.25v-.14h-.31a1,1,0,0,0-.3,0,.32.32,0,0,0-.16.12.35.35,0,0,0-.06.21.29.29,0,0,0,.07.21A.29.29,0,0,0,510,122.29Z"/>
            <path class="cls-11" d="M511.55,120.77v.72h.77v-.72h.28v1.7h-.28v-.78h-.77v.78h-.28v-1.7Z"/>
            <path class="cls-11" d="M513,120.41v-.27h.28v.27Zm0,2.06v-1.7h.28v1.7Z"/>
            <path class="cls-11"
                  d="M514.38,121.75l-.5.72h-.32l.54-.74a.45.45,0,0,1-.39-.49.4.4,0,0,1,.17-.35.87.87,0,0,1,.5-.12h.68v1.7h-.28v-.72Zm.4-.78h-.37a.49.49,0,0,0-.3.07.26.26,0,0,0-.09.22.28.28,0,0,0,.08.22.42.42,0,0,0,.28.07h.4Z"/>
            <path class="cls-11"
                  d="M79.32,101.68l-2.55-4.47a.14.14,0,0,0-.13-.07H74.93a.14.14,0,0,0-.12.22l3.55,5.95a.15.15,0,0,1,0,.14,6.3,6.3,0,0,1-.53,1,1.32,1.32,0,0,1-.42.38,1.12,1.12,0,0,1-.54.12,2.39,2.39,0,0,1-.92-.22.15.15,0,0,0-.2.09l-.46,1.38a.15.15,0,0,0,.07.18,3.15,3.15,0,0,0,.64.22,3.88,3.88,0,0,0,.94.12,2.91,2.91,0,0,0,1.15-.2,2.37,2.37,0,0,0,.86-.65,6.59,6.59,0,0,0,.85-1.41l3.41-7.09a.14.14,0,0,0-.13-.21H81.4a.14.14,0,0,0-.13.09Z"/>
            <path class="cls-11"
                  d="M90.18,99.84l1.63-2.48a.14.14,0,0,0-.12-.22H90a.14.14,0,0,0-.12.07l-1.33,2.1a9.27,9.27,0,0,1-1,1.43,1.1,1.1,0,0,1-.75.41V97.28a.14.14,0,0,0-.14-.14H85a.14.14,0,0,0-.14.14v9.13a.14.14,0,0,0,.14.14h1.68a.14.14,0,0,0,.14-.14v-3.9a1.71,1.71,0,0,0,.45-.07,1.49,1.49,0,0,0,.39-.16l2.46,4.21a.14.14,0,0,0,.12.07H92a.14.14,0,0,0,.12-.22l-3.11-5A7.53,7.53,0,0,0,90.18,99.84Z"/>
            <path class="cls-11"
                  d="M100.74,97.92a3.9,3.9,0,0,0-2.6-.78H94a.14.14,0,0,0-.14.14v9.13a.14.14,0,0,0,.14.14h1.68a.14.14,0,0,0,.14-.14v-3.17h2.34a4,4,0,0,0,1.84-.39,2.8,2.8,0,0,0,1.19-1.11,3.18,3.18,0,0,0,.41-1.62A2.74,2.74,0,0,0,100.74,97.92Zm-1.51,3.4a1.79,1.79,0,0,1-1.26.4H95.87V98.67h2q1.75,0,1.75,1.48A1.5,1.5,0,0,1,99.22,101.32Z"/>
            <path class="cls-11"
                  d="M111,101.62a3.6,3.6,0,0,0-2.42-.73h-3.2V98.65h5a.14.14,0,0,0,.14-.14V97.28a.14.14,0,0,0-.14-.14h-6.8a.14.14,0,0,0-.14.14v9.13a.14.14,0,0,0,.14.14h4.81a4.47,4.47,0,0,0,1.87-.36,2.7,2.7,0,0,0,1.2-1,2.77,2.77,0,0,0,.41-1.51A2.57,2.57,0,0,0,111,101.62Zm-3,3.4H105.4V102.4H108a2.35,2.35,0,0,1,1.39.34,1.12,1.12,0,0,1,.46,1Q109.87,105,108.06,105Z"/>
            <path class="cls-11"
                  d="M117.38,101.68l-2.55-4.47a.14.14,0,0,0-.13-.07H113a.14.14,0,0,0-.12.22l3.55,5.95a.15.15,0,0,1,0,.14,6.3,6.3,0,0,1-.53,1,1.32,1.32,0,0,1-.42.38,1.12,1.12,0,0,1-.54.12,2.39,2.39,0,0,1-.92-.22.15.15,0,0,0-.2.09l-.46,1.38a.15.15,0,0,0,.07.18,3.15,3.15,0,0,0,.64.22,3.88,3.88,0,0,0,.94.12,2.91,2.91,0,0,0,1.15-.2,2.37,2.37,0,0,0,.86-.65,6.59,6.59,0,0,0,.85-1.41l3.41-7.09a.14.14,0,0,0-.13-.21h-1.68a.14.14,0,0,0-.13.09Z"/>
            <path class="cls-11"
                  d="M129.72,97.92a3.9,3.9,0,0,0-2.6-.78H123a.14.14,0,0,0-.14.14v9.13a.14.14,0,0,0,.14.14h1.68a.14.14,0,0,0,.14-.14v-3.17h2.34a4,4,0,0,0,1.84-.39,2.8,2.8,0,0,0,1.19-1.11,3.18,3.18,0,0,0,.41-1.62A2.74,2.74,0,0,0,129.72,97.92Zm-1.51,3.4a1.79,1.79,0,0,1-1.26.4h-2.09V98.67h2q1.75,0,1.75,1.48A1.5,1.5,0,0,1,128.21,101.32Z"/>
            <path class="cls-11"
                  d="M136.66,105.14a2.52,2.52,0,0,1-2.06-.86,3.79,3.79,0,0,1-.71-2.48,3.7,3.7,0,0,1,.69-2.43,2.49,2.49,0,0,1,2-.83,2.74,2.74,0,0,1,1.52.42,2,2,0,0,1,.82,1,.15.15,0,0,0,.17.09l1.46-.4a.14.14,0,0,0,.1-.19,3.49,3.49,0,0,0-1.41-1.81,5,5,0,0,0-2.7-.67,4.59,4.59,0,0,0-3.47,1.24,5.87,5.87,0,0,0,0,7.16,4.65,4.65,0,0,0,3.51,1.29,4.78,4.78,0,0,0,2.57-.67,4.06,4.06,0,0,0,1.57-1.89.14.14,0,0,0-.08-.19l-1.45-.55a.14.14,0,0,0-.18.08A2.47,2.47,0,0,1,136.66,105.14Z"/>
            <path class="cls-11"
                  d="M144.7,102.55h4.88a.14.14,0,0,0,.14-.14v-1.24a.14.14,0,0,0-.14-.14H144.7V98.66H150a.14.14,0,0,0,.14-.14V97.28a.14.14,0,0,0-.14-.14h-7.12a.14.14,0,0,0-.14.14v9.13a.14.14,0,0,0,.14.14h7.39a.14.14,0,0,0,.14-.14v-1.24a.14.14,0,0,0-.14-.14H144.7Z"/>
            <path class="cls-11"
                  d="M159.42,97.92a3.9,3.9,0,0,0-2.6-.78h-4.09a.14.14,0,0,0-.14.14v9.13a.14.14,0,0,0,.14.14h1.68a.14.14,0,0,0,.14-.14v-3.17h2.34a4,4,0,0,0,1.84-.39,2.8,2.8,0,0,0,1.19-1.11,3.18,3.18,0,0,0,.41-1.62A2.74,2.74,0,0,0,159.42,97.92Zm-1.51,3.4a1.79,1.79,0,0,1-1.26.4h-2.09V98.67h2q1.75,0,1.75,1.48A1.5,1.5,0,0,1,157.9,101.32Z"/>
            <path class="cls-11"
                  d="M168,101.6a2.28,2.28,0,0,0,1.35-.75,2.09,2.09,0,0,0,.44-1.35,2,2,0,0,0-.89-1.77,4.68,4.68,0,0,0-2.61-.6h-4.17a.14.14,0,0,0-.14.14v9.13a.14.14,0,0,0,.14.14h4.57a4.47,4.47,0,0,0,2.67-.7,2.31,2.31,0,0,0,1-2,2.07,2.07,0,0,0-.6-1.55A2.9,2.9,0,0,0,168,101.6Zm-4-3h2.25a2.19,2.19,0,0,1,1.2.27,1,1,0,0,1,.4.9,1,1,0,0,1-.38.87,2,2,0,0,1-1.21.29H164Zm4,6.15a2.25,2.25,0,0,1-1.39.34H164v-2.7h2.5q1.9,0,1.9,1.32A1.23,1.23,0,0,1,167.94,104.75Z"/>
            <rect class="cls-11" x="172.61" y="97.14" width="1.97" height="9.42" rx="0.14" ry="0.14"/>
            <path class="cls-11"
                  d="M184.15,103.4a.14.14,0,0,0-.18.08,2.47,2.47,0,0,1-2.43,1.66,2.52,2.52,0,0,1-2.06-.86,3.79,3.79,0,0,1-.71-2.48,3.7,3.7,0,0,1,.69-2.43,2.49,2.49,0,0,1,2-.83A2.74,2.74,0,0,1,183,99a2,2,0,0,1,.82,1,.15.15,0,0,0,.17.09l1.46-.4a.14.14,0,0,0,.1-.19,3.49,3.49,0,0,0-1.41-1.81,5,5,0,0,0-2.7-.67A4.59,4.59,0,0,0,178,98.24a5.87,5.87,0,0,0,0,7.16,4.65,4.65,0,0,0,3.51,1.29,4.78,4.78,0,0,0,2.57-.67,4.06,4.06,0,0,0,1.57-1.89.14.14,0,0,0-.08-.19Z"/>
            <path class="cls-11"
                  d="M67.15,119.16v-8a2.81,2.81,0,0,0-.78-1.95h0l-.06-.06h0L65.15,108h0l-2.51-2.51L61.3,106.8,65,110.48a1,1,0,0,1,.28.67v8a1,1,0,0,1-.94.95h-8a1,1,0,0,1-.67-.28l-3.18-3.18h0l-3.85-3.85,1.34-1.34h0l2,2h0l2.67,2.67A.94.94,0,0,0,56,114.81l-2.67-2.67h0l-2-2,1.34-1.34,4.68,4.68a.94.94,0,1,0,1.34-1.34L54,107.46l.66-.66-1.34-1.34-4.67,4.67h0l-2.67,2.67,3.34,3.34h0l5,5a2.82,2.82,0,0,0,2,.83h8A2.84,2.84,0,0,0,67.15,119.16Z"/>
            <path class="cls-11"
                  d="M35.25,99.45l-.35-.35a.94.94,0,0,1-.28-.67v-8a.95.95,0,0,1,.95-.94h8a.94.94,0,0,1,.67.28l5.52,5.52h0l1.5,1.5-1.34,1.34-2-2h0l-2.67-2.67a.94.94,0,1,0-1.34,1.34l2.67,2.67h0l2,2-1.34,1.34L42.59,96.1a.94.94,0,1,0-1.34,1.34l4.68,4.68-.68.68,1.34,1.34L54,96.77l-.67-.67h0L49,91.77l-3.36-3.36a2.82,2.82,0,0,0-2-.83h-8a2.83,2.83,0,0,0-2.84,2.83v8a2.82,2.82,0,0,0,.83,2l2,2h0l1.73,1.73,1.34-1.34-3.34-3.34Z"/>
            <path class="cls-11"
                  d="M49.26,117.5l-1.34-1.34-2.59,2.59h0l-1.08,1.08a.94.94,0,0,1-.67.28h-8a.94.94,0,0,1-.94-.94h0v-8a.94.94,0,0,1,.28-.67l5-5h0l2-2,.78.78h0l.55.55-2,2h0l-2.67,2.67a.94.94,0,1,0,1.34,1.34l2.67-2.67h0l2-2,1.34,1.34-4.68,4.68a.94.94,0,1,0,1.34,1.34l4.68-4.68.67.67,1.34-1.34-5.22-5.22-2.13-2.13L39.7,103l-6.13,6.13a2.82,2.82,0,0,0-.83,2v8h0A2.83,2.83,0,0,0,35.57,122h8a2.82,2.82,0,0,0,2-.83L48,118.75h0Z"/>
            <path class="cls-11"
                  d="M55.17,90.21h0l.47-.47a.94.94,0,0,1,.67-.28h8a1,1,0,0,1,.94.94v8h0a.94.94,0,0,1-.28.67l-4.28,4.28h0L58,106.13l-1.34-1.34,2-2h0l2.67-2.67A.94.94,0,0,0,60,98.78l-2.67,2.67h0l-2,2L54,102.12l4.68-4.68a.94.94,0,1,0-1.34-1.34l-4.68,4.68-.67-.67-1.34,1.34,1.33,1.33h0l4.68,4.68h0L58,108.8l6.46-6.46,1.9-1.9a2.82,2.82,0,0,0,.83-2h0v-8a2.84,2.84,0,0,0-2.83-2.83h-8a2.82,2.82,0,0,0-2,.83l-.47.47h0L50.6,92.11l1.34,1.34Z"/>
            <path class="cls-11" d="M59.63,110.47l.33.33a.94.94,0,1,0,1.34-1.34l-.33-.33h0l-1-1-1.34,1.34,1,1Z"/>
            <path class="cls-11" d="M43.93,114.81a.94.94,0,1,0,1.34,1.34l.33-.33h0l1-1-1.34-1.34-1,1h0Z"/>
            <path class="cls-11" d="M56,94.77a.94.94,0,1,0-1.34-1.34l-.44.44h0l-.89.89,1.34,1.34.91-.91h0Z"/>
            <path class="cls-11" d="M39.92,98.78a.94.94,0,1,0-1.34,1.34l.56.56h0l.77.77,1.34-1.34-.78-.78h0Z"/>
            <path class="cls-11"
                  d="M77.83,110.68a1.57,1.57,0,0,1,1.3.52,2.45,2.45,0,0,1,.42,1.56,2.18,2.18,0,0,1-.5,1.57,1.91,1.91,0,0,1-1.44.51,1.66,1.66,0,0,1-1.44-.64,3.37,3.37,0,0,1-.46-2A6.79,6.79,0,0,1,75.8,111a3,3,0,0,1,.29-.88,1.93,1.93,0,0,1,.5-.62,2.42,2.42,0,0,1,.77-.4,14.64,14.64,0,0,1,2-.36v.64a11.24,11.24,0,0,0-2.15.41,1.22,1.22,0,0,0-.69.62,3.28,3.28,0,0,0-.21,1.27,1.51,1.51,0,0,1,.57-.77A1.66,1.66,0,0,1,77.83,110.68Zm1,2.08a2.11,2.11,0,0,0-.26-1.18,1,1,0,0,0-.85-.38,1.09,1.09,0,0,0-.93.39,1.92,1.92,0,0,0-.3,1.17,2,2,0,0,0,.28,1.16,1,1,0,0,0,.87.39,1.07,1.07,0,0,0,.92-.37A2,2,0,0,0,78.79,112.76Z"/>
            <path class="cls-11"
                  d="M80.46,116.44a2.34,2.34,0,0,1-.49,0v-.54l.33,0q.67,0,1.06-1l.07-.17-1.7-4.27h.76l.91,2.37,0,.13.18.52q.15.44.16.49l.28-.78.94-2.73h.75l-1.65,4.29a5.22,5.22,0,0,1-.5,1,1.64,1.64,0,0,1-.51.5A1.22,1.22,0,0,1,80.46,116.44Z"/>
            <path class="cls-11"
                  d="M87.86,112.59q0,2.25-1.58,2.25a1.32,1.32,0,0,1-1.33-.75h0a6,6,0,0,1,0,.67v1.68h-.71v-5.1q0-.66,0-.88h.69s0,0,0,.11,0,.16,0,.3,0,.23,0,.28h0a1.3,1.3,0,0,1,.5-.58,1.62,1.62,0,0,1,.83-.18,1.38,1.38,0,0,1,1.19.53A2.83,2.83,0,0,1,87.86,112.59Zm-.75,0a2.52,2.52,0,0,0-.24-1.28.84.84,0,0,0-.77-.39,1,1,0,0,0-1,.74,3.22,3.22,0,0,0-.13,1,2.27,2.27,0,0,0,.27,1.25,1,1,0,0,0,.88.4.85.85,0,0,0,.78-.39A2.6,2.6,0,0,0,87.11,112.61Z"/>
            <path class="cls-11"
                  d="M92.38,112.61a2.45,2.45,0,0,1-.5,1.68,1.84,1.84,0,0,1-1.44.55,1.75,1.75,0,0,1-1.42-.57,2.52,2.52,0,0,1-.48-1.66q0-2.22,1.93-2.22a1.81,1.81,0,0,1,1.45.54A2.54,2.54,0,0,1,92.38,112.61Zm-.75,0a2.43,2.43,0,0,0-.26-1.29,1,1,0,0,0-.89-.4,1,1,0,0,0-.91.41,2.32,2.32,0,0,0-.28,1.28,2.38,2.38,0,0,0,.28,1.28,1,1,0,0,0,.87.43,1,1,0,0,0,.92-.41A2.37,2.37,0,0,0,91.63,112.61Z"/>
            <path class="cls-11"
                  d="M95,110.46a2.08,2.08,0,0,1,1.19.28.91.91,0,0,1,.4.8.87.87,0,0,1-.23.62,1.16,1.16,0,0,1-.66.33v0a1.29,1.29,0,0,1,.77.33.93.93,0,0,1,.26.68,1.08,1.08,0,0,1-.43.91,2,2,0,0,1-1.2.33H93.28v-4.29ZM94,111v1.27h.86a1.37,1.37,0,0,0,.72-.14.67.67,0,0,0,0-1,1.17,1.17,0,0,0-.68-.15Zm0,3.22h.94a1.31,1.31,0,0,0,.77-.17.63.63,0,0,0,.22-.54.64.64,0,0,0-.24-.57,1.46,1.46,0,0,0-.8-.16H94Z"/>
            <path class="cls-11"
                  d="M98.59,114.84a1.28,1.28,0,0,1-1-.34,1.3,1.3,0,0,1-.33-.94,1.24,1.24,0,0,1,.44-1,2.33,2.33,0,0,1,1.42-.38l1,0v-.23a1,1,0,0,0-.22-.75.94.94,0,0,0-.7-.23,1.18,1.18,0,0,0-.7.16.72.72,0,0,0-.26.52l-.75-.07q.18-1.16,1.72-1.16a1.76,1.76,0,0,1,1.22.37,1.38,1.38,0,0,1,.41,1.07v1.85a1.07,1.07,0,0,0,.08.48.32.32,0,0,0,.32.16l.23,0v.44a2.4,2.4,0,0,1-.55.06.73.73,0,0,1-.58-.21,1.07,1.07,0,0,1-.2-.65h0a1.73,1.73,0,0,1-.64.7A1.78,1.78,0,0,1,98.59,114.84Zm.16-.54a1.36,1.36,0,0,0,.7-.18,1.3,1.3,0,0,0,.48-.49,1.28,1.28,0,0,0,.18-.64v-.35l-.78,0a2.45,2.45,0,0,0-.76.1.81.81,0,0,0-.4.29.89.89,0,0,0-.14.52.73.73,0,0,0,.19.54A.72.72,0,0,0,98.75,114.3Z"/>
            <path class="cls-11"
                  d="M103.51,110.46h.71v1.88a.68.68,0,0,0,.21,0,.54.54,0,0,0,.2-.13,2.21,2.21,0,0,0,.23-.28q.13-.18.91-1.43h.75l-.86,1.29a4,4,0,0,1-.51.65l1.4,2.35h-.79l-1.1-2-.2.06-.23,0v1.89h-.71Z"/>
            <path class="cls-11"
                  d="M110.79,112.61a2.45,2.45,0,0,1-.5,1.68,1.84,1.84,0,0,1-1.44.55,1.75,1.75,0,0,1-1.42-.57,2.52,2.52,0,0,1-.48-1.66q0-2.22,1.93-2.22a1.81,1.81,0,0,1,1.45.54A2.54,2.54,0,0,1,110.79,112.61Zm-.75,0a2.43,2.43,0,0,0-.26-1.29,1,1,0,0,0-.89-.4,1,1,0,0,0-.91.41,2.32,2.32,0,0,0-.28,1.28,2.38,2.38,0,0,0,.28,1.28,1,1,0,0,0,.87.43,1,1,0,0,0,.92-.41A2.37,2.37,0,0,0,110,112.61Z"/>
            <path class="cls-11"
                  d="M114.26,114.76h-.61L112.36,111q0,.62,0,.9v2.87h-.69v-4.29h1.11l.87,2.62a4.91,4.91,0,0,1,.27,1.14,5.42,5.42,0,0,1,.27-1.14l.87-2.62h1.07v4.29h-.69v-3.33l0-.46Z"/>
            <path class="cls-11" d="M120.56,110.46v4.29h-.71V111H118v3.77h-.71v-4.29Z"/>
            <path class="cls-11"
                  d="M122.77,114.84a1.28,1.28,0,0,1-1-.34,1.3,1.3,0,0,1-.33-.94,1.24,1.24,0,0,1,.44-1,2.33,2.33,0,0,1,1.42-.38l1,0v-.23a1,1,0,0,0-.22-.75.94.94,0,0,0-.7-.23,1.18,1.18,0,0,0-.7.16.72.72,0,0,0-.26.52l-.75-.07q.18-1.16,1.72-1.16a1.76,1.76,0,0,1,1.22.37,1.38,1.38,0,0,1,.41,1.07v1.85a1.07,1.07,0,0,0,.08.48.32.32,0,0,0,.32.16l.23,0v.44a2.4,2.4,0,0,1-.55.06.73.73,0,0,1-.58-.21,1.07,1.07,0,0,1-.2-.65h0a1.73,1.73,0,0,1-.64.7A1.78,1.78,0,0,1,122.77,114.84Zm.16-.54a1.36,1.36,0,0,0,.7-.18,1.3,1.3,0,0,0,.48-.49,1.28,1.28,0,0,0,.18-.64v-.35l-.78,0a2.45,2.45,0,0,0-.76.1.81.81,0,0,0-.4.29.89.89,0,0,0-.14.52.73.73,0,0,0,.19.54A.72.72,0,0,0,122.93,114.3Z"/>
            <path class="cls-11" d="M126.92,110.46v1.82h1.93v-1.82h.71v4.29h-.71v-2h-1.93v2h-.71v-4.29Z"/>
            <path class="cls-11" d="M130.68,109.55v-.68h.71v.68Zm0,5.21v-4.29h.71v4.29Z"/>
            <path class="cls-11"
                  d="M134.06,112.94l-1.25,1.82H132l1.37-1.87a1.13,1.13,0,0,1-1-1.24,1,1,0,0,1,.43-.89,2.19,2.19,0,0,1,1.25-.3h1.71v4.29h-.71v-1.82Zm1-2h-.93a1.24,1.24,0,0,0-.75.18.65.65,0,0,0-.24.55.7.7,0,0,0,.21.56,1.07,1.07,0,0,0,.7.18h1Z"/>
            <rect class="cls-12" x="1.49" y="0.86" width="553.86" height="218.18"/>
            <line class="cls-12" x1="1.49" y1="206.91" x2="555.35" y2="206.91"/>
            <line class="cls-12" x1="1.49" y1="194.79" x2="555.35" y2="194.79"/>
            <line class="cls-12" x1="1.49" y1="182.67" x2="555.35" y2="182.67"/>
            <line class="cls-12" x1="1.49" y1="170.55" x2="555.35" y2="170.55"/>
            <line class="cls-12" x1="1.49" y1="158.43" x2="555.35" y2="158.43"/>
            <line class="cls-12" x1="1.49" y1="146.31" x2="555.35" y2="146.31"/>
            <line class="cls-12" x1="1.49" y1="134.19" x2="555.35" y2="134.19"/>
            <line class="cls-12" x1="1.49" y1="122.06" x2="555.35" y2="122.06"/>
            <line class="cls-12" x1="1.49" y1="109.94" x2="555.35" y2="109.94"/>
            <line class="cls-12" x1="1.49" y1="97.82" x2="555.35" y2="97.82"/>
            <line class="cls-12" x1="1.49" y1="85.7" x2="555.35" y2="85.7"/>
            <line class="cls-12" x1="1.49" y1="73.58" x2="555.35" y2="73.58"/>
            <line class="cls-12" x1="1.49" y1="61.46" x2="555.35" y2="61.46"/>
            <line class="cls-12" x1="1.49" y1="49.34" x2="555.35" y2="49.34"/>
            <line class="cls-12" x1="1.49" y1="37.22" x2="555.35" y2="37.22"/>
            <line class="cls-12" x1="1.49" y1="25.1" x2="555.35" y2="25.1"/>
            <line class="cls-12" x1="1.49" y1="12.98" x2="555.35" y2="12.98"/>
            <line class="cls-12" x1="524.58" y1="0.86" x2="524.58" y2="219.03"/>
            <line class="cls-12" x1="493.81" y1="0.86" x2="493.81" y2="219.03"/>
            <line class="cls-12" x1="463.04" y1="0.86" x2="463.04" y2="219.03"/>
            <line class="cls-12" x1="432.27" y1="0.86" x2="432.27" y2="219.03"/>
            <line class="cls-12" x1="401.5" y1="0.86" x2="401.5" y2="219.03"/>
            <line class="cls-12" x1="370.73" y1="0.86" x2="370.73" y2="219.03"/>
            <line class="cls-12" x1="339.96" y1="0.86" x2="339.96" y2="219.03"/>
            <line class="cls-12" x1="309.19" y1="0.86" x2="309.19" y2="219.03"/>
            <line class="cls-12" x1="278.42" y1="0.86" x2="278.42" y2="219.03"/>
            <line class="cls-12" x1="247.65" y1="0.86" x2="247.65" y2="219.03"/>
            <line class="cls-12" x1="216.88" y1="0.86" x2="216.88" y2="219.03"/>
            <line class="cls-12" x1="186.11" y1="0.86" x2="186.11" y2="219.03"/>
            <line class="cls-12" x1="155.34" y1="0.86" x2="155.34" y2="219.03"/>
            <line class="cls-12" x1="124.57" y1="0.86" x2="124.57" y2="219.03"/>
            <line class="cls-12" x1="93.8" y1="0.86" x2="93.8" y2="219.03"/>
            <line class="cls-12" x1="63.03" y1="0.86" x2="63.03" y2="219.03"/>
            <line class="cls-12" x1="32.26" y1="0.86" x2="32.26" y2="219.03"/>
            <polyline class="cls-13" points="554.95 1.17 555.35 0.86 554.88 1.04"/>
            <line class="cls-14" x1="553.95" y1="1.41" x2="2.42" y2="218.67"/>
            <polyline class="cls-13" points="1.96 218.85 1.49 219.03 1.88 218.72"/>
            <line class="cls-15" x1="2.67" y1="218.1" x2="277.63" y2="1.48"/>
            <polyline class="cls-13" points="278.02 1.17 278.42 0.86 278.42 1.36"/>
            <line class="cls-16" x1="278.42" y1="2.36" x2="278.42" y2="218.03"/>
            <polyline class="cls-13" points="278.42 218.53 278.42 219.03 278.81 218.72"/>
            <line class="cls-15" x1="279.6" y1="218.1" x2="554.56" y2="1.48"/>
            <line class="cls-17" x1="278.42" y1="219.03" x2="278.02" y2="218.72"/>
            <line class="cls-18" x1="277.24" y1="218.1" x2="2.28" y2="1.48"/>
            <polyline class="cls-17" points="1.88 1.17 1.49 0.86 1.96 1.04"/>
            <line class="cls-19" x1="2.88" y1="1.41" x2="554.42" y2="218.67"/>
            <polyline class="cls-17" points="554.88 218.85 555.35 219.03 554.95 218.72"/>
            <line class="cls-18" x1="554.17" y1="218.1" x2="279.2" y2="1.48"/>
            <line class="cls-17" x1="278.81" y1="1.17" x2="278.42" y2="0.86"/>
        </g>
    </g>
</svg>