<svg xmlns="http://www.w3.org/2000/svg" viewBox="0 0 556.84 220"><defs><style>.cls-1{fill:#fff;}.cls-1,.cls-2,.cls-3,.cls-4,.cls-5,.cls-6,.cls-7{stroke:#262424;stroke-miterlimit:10;stroke-width:0.21px;}.cls-2,.cls-8{fill:#939497;}.cls-11,.cls-3{fill:#d0d1d3;}.cls-4{fill:#e6e7e8;}.cls-5{fill:#434244;}.cls-10,.cls-6{fill:none;}.cls-7{fill:#bbbdbf;}.cls-9{fill:#a81b20;}</style></defs><title>ubs_car_2</title><g id="Слой_2" data-name="Слой 2"><g id="Layer_1" data-name="Layer 1"><path class="cls-1" d="M475.27,8.33a2.69,2.69,0,0,0-2.89,1.07c-1,.06-1.19.63-1.32,1.44-9.61-.75-33.41-1.07-40.76-.69-1.07,0-1.82.44-1.82,1.76-2,.19-2.26.88-2.39,2-3.71,0-6,.13-6.41,5.53-1.76,24.87-3.89,49.8-4.46,74.86-.19,8.6-.38,17.52-.38,26.31v26.69a15.22,15.22,0,0,0,1.19,7.47c-2.07,1.7-3.58,3.58-3.33,5.84,4.21.38,4.14,8.29,4.14,27.07,0,1,2.89,2,3.58-.44-.38,3.64-.25,8-.25,11.68,0,.57,0,1.76.82,1.76h4.4c1,.06,2.2-.88,2-2.83-.94-20.66,4.08-39.75,18.28-48.55h19.53c21,0,27.76,7.85,33.16,21.1,2.83,6.85,3.77,15.83,3.33,26.06-.06,2,1.44,2.89,3.52,2.89,10.68-.19,21.23-.69,31-1.38a1.87,1.87,0,0,0,2.07,1.63h12.31c.57,0,2.45.13,2.26-1.07-1-5.72,1.07-8,1.07-11.68v-56.4c0-5.72-.25-11.43-.38-17.08-.94-6.22-2.26-10.24-3.89-11.93-2.76-19.78-4.9-40.26-12.87-56.4C534.56,40.49,528.59,25.79,526,21c-2.26-4.14-8.86-5.21-17.21-6.41.06-1.7-1.57-1.88-3.14-2.07-.31-1-.25-1.44-2.76-1.57C494.36,9.65,477.78,8.71,475.27,8.33Z"/><path class="cls-2" d="M541,58.14c3.89,13.75,6.41,28.32,8.48,43.21h-3.64c-2.89,0-4.65-2-5.28-4.77-3.14-15.2-5.78-30.4-9.92-44.46a.88.88,0,0,1,0-.69c-1.7-4.52-5.84-5.65-13.57-5.84l-92-1.82a20.55,20.55,0,0,0-.25,3.39l89,1.38c7.41.13,12.12,2,13.06,6,3.64,14.57,6.41,29.2,8.54,43.65.31,2.26,1.07,3.33,3,3.27,2.2,6.53,4.21,8.35,14.44,8.1-.82-4.08-1.95-6.85-3.2-8.16C547.49,86.52,545,72,541.09,58.2Z"/><path class="cls-2" d="M464.59,218.28a32.56,32.56,0,1,1,32.59-32.59A32.63,32.63,0,0,1,464.59,218.28Z"/><path class="cls-2" d="M186.44,218.28A32.56,32.56,0,1,1,219,185.69,32.63,32.63,0,0,1,186.44,218.28Z"/><path class="cls-2" d="M100.34,218.28a32.56,32.56,0,1,1,32.59-32.59A32.63,32.63,0,0,1,100.34,218.28Z"/><path class="cls-3" d="M464.59,205.79a20.07,20.07,0,1,1,20.1-20.1A20.14,20.14,0,0,1,464.59,205.79Z"/><path class="cls-3" d="M180.29,204.78a20.07,20.07,0,1,1,25.25-12.87A20.14,20.14,0,0,1,180.29,204.78Z"/><path class="cls-3" d="M94.19,204.78a20.07,20.07,0,1,1,25.25-12.87A20.14,20.14,0,0,1,94.19,204.78Z"/><path class="cls-4" d="M464.59,204.15a18.43,18.43,0,1,1,18.46-18.46A18.48,18.48,0,0,1,464.59,204.15Z"/><path class="cls-4" d="M180.79,203.21A18.42,18.42,0,1,1,204,191.4,18.44,18.44,0,0,1,180.79,203.21Z"/><path class="cls-4" d="M94.69,203.21a18.42,18.42,0,1,1,23.24-11.81A18.44,18.44,0,0,1,94.69,203.21Z"/><path class="cls-3" d="M464.59,202.21a16.49,16.49,0,1,1,16.52-16.52A16.52,16.52,0,0,1,464.59,202.21Z"/><path class="cls-3" d="M181.36,201.39a16.51,16.51,0,1,1,20.79-10.61A16.55,16.55,0,0,1,181.36,201.39Z"/><path class="cls-3" d="M95.25,201.39A16.51,16.51,0,1,1,116,190.78,16.55,16.55,0,0,1,95.25,201.39Z"/><path class="cls-4" d="M464.66,198.44a12.72,12.72,0,1,1,12.69-12.75A12.76,12.76,0,0,1,464.66,198.44Z"/><path class="cls-4" d="M182.55,197.81a12.74,12.74,0,1,1,16-8.16A12.82,12.82,0,0,1,182.55,197.81Z"/><path class="cls-4" d="M96.45,197.81a12.74,12.74,0,1,1,16-8.16A12.82,12.82,0,0,1,96.45,197.81Z"/><path class="cls-3" d="M464.66,196.37a10.65,10.65,0,1,1,10.61-10.68A10.67,10.67,0,0,1,464.66,196.37Z"/><path class="cls-3" d="M183.18,195.8A10.64,10.64,0,1,1,196.62,189,10.6,10.6,0,0,1,183.18,195.8Z"/><path class="cls-3" d="M97.07,195.8A10.64,10.64,0,1,1,110.51,189,10.6,10.6,0,0,1,97.07,195.8Z"/><path class="cls-4" d="M464.66,192.47a6.78,6.78,0,1,1,6.78-6.78A6.84,6.84,0,0,1,464.66,192.47Z"/><path class="cls-4" d="M184.37,192.16a6.86,6.86,0,0,1-4.33-8.54,6.76,6.76,0,0,1,8.54-4.33,6.66,6.66,0,0,1,4.33,8.48A6.79,6.79,0,0,1,184.37,192.16Z"/><path class="cls-4" d="M98.27,192.16a6.86,6.86,0,0,1-4.33-8.54,6.76,6.76,0,0,1,8.54-4.33,6.66,6.66,0,0,1,4.33,8.48A6.79,6.79,0,0,1,98.27,192.16Z"/><circle class="cls-4" cx="464.66" cy="185.69" r="2.51"/><path class="cls-4" d="M185.75,188.08a2.5,2.5,0,1,1,3.14-1.63A2.49,2.49,0,0,1,185.75,188.08Z"/><path class="cls-4" d="M99.65,188.08a2.5,2.5,0,1,1,3.14-1.63A2.49,2.49,0,0,1,99.65,188.08Z"/><path class="cls-5" d="M461.2,169.55a14.82,14.82,0,0,1,3.39-.31,17.33,17.33,0,0,1,3.58.38,4,4,0,0,1-3.52,2.07A3.88,3.88,0,0,1,461.2,169.55Z"/><path class="cls-5" d="M188.2,169.3a18.06,18.06,0,0,1,6.6,2.2,4.06,4.06,0,0,1-4,.88A3.87,3.87,0,0,1,188.2,169.3Z"/><path class="cls-5" d="M102.1,169.3a12.73,12.73,0,0,1,3.33.75,12.64,12.64,0,0,1,3.27,1.44,4.06,4.06,0,0,1-4,.88A3.87,3.87,0,0,1,102.1,169.3Z"/><path class="cls-5" d="M471.38,170.55a15.46,15.46,0,0,1,2.89,1.76,16.33,16.33,0,0,1,2.7,2.39,4,4,0,0,1-4.08-.38A3.88,3.88,0,0,1,471.38,170.55Z"/><path class="cls-5" d="M197.56,173.38a13.05,13.05,0,0,1,2.26,2.57,18.64,18.64,0,0,1,1.76,3.08,3.94,3.94,0,0,1-4-5.65Z"/><path class="cls-5" d="M111.46,173.38a13.05,13.05,0,0,1,2.26,2.57,18.64,18.64,0,0,1,1.76,3.08,3.94,3.94,0,0,1-4-5.65Z"/><path class="cls-5" d="M479,177.34a15.84,15.84,0,0,1,1.38,3.14A21.77,21.77,0,0,1,481,184a3.88,3.88,0,0,1-3-2.7A3.81,3.81,0,0,1,479,177.34Z"/><path class="cls-5" d="M202.71,182.17a14.82,14.82,0,0,1,.31,3.39,17.39,17.39,0,0,1-.38,3.58,4,4,0,0,1-2.07-3.52A3.88,3.88,0,0,1,202.71,182.17Z"/><path class="cls-5" d="M116.61,182.17a14.82,14.82,0,0,1,.31,3.39,17.33,17.33,0,0,1-.38,3.58,4,4,0,0,1-2.07-3.52A3.88,3.88,0,0,1,116.61,182.17Z"/><path class="cls-5" d="M481.17,187.32a15.89,15.89,0,0,1-.75,3.33,15.41,15.41,0,0,1-1.51,3.27,4.06,4.06,0,0,1-.88-4A4,4,0,0,1,481.17,187.32Z"/><path class="cls-5" d="M201.7,192.35a18.32,18.32,0,0,1-1.76,3,18.93,18.93,0,0,1-2.39,2.64,3.89,3.89,0,0,1,.38-4A3.8,3.8,0,0,1,201.7,192.35Z"/><path class="cls-5" d="M115.6,192.35a18.32,18.32,0,0,1-1.76,3,18.93,18.93,0,0,1-2.39,2.64,3.89,3.89,0,0,1,.38-4A3.8,3.8,0,0,1,115.6,192.35Z"/><path class="cls-5" d="M477,196.68a14.61,14.61,0,0,1-2.51,2.26,15.44,15.44,0,0,1-3.14,1.76,3.94,3.94,0,0,1,5.65-4Z"/><path class="cls-5" d="M194.92,199.94a15.84,15.84,0,0,1-3.14,1.38,16.71,16.71,0,0,1-3.52.75,4,4,0,0,1,6.66-2.14Z"/><path class="cls-5" d="M108.82,199.94a15.84,15.84,0,0,1-3.14,1.38,16.71,16.71,0,0,1-3.52.75,4,4,0,0,1,6.66-2.14Z"/><path class="cls-5" d="M468.24,201.83a14.82,14.82,0,0,1-3.39.31,17.33,17.33,0,0,1-3.58-.38,4,4,0,0,1,3.52-2.07A3.88,3.88,0,0,1,468.24,201.83Z"/><path class="cls-5" d="M184.94,202.14a12.73,12.73,0,0,1-3.33-.75,19.09,19.09,0,0,1-3.27-1.44,3.79,3.79,0,0,1,4-.88A3.89,3.89,0,0,1,184.94,202.14Z"/><path class="cls-5" d="M98.83,202.14a12.73,12.73,0,0,1-3.33-.75,19.09,19.09,0,0,1-3.27-1.44,3.79,3.79,0,0,1,4-.88A3.89,3.89,0,0,1,98.83,202.14Z"/><path class="cls-5" d="M458.06,200.82a15.46,15.46,0,0,1-2.89-1.76,16.33,16.33,0,0,1-2.7-2.39,4,4,0,0,1,4.08.38A3.88,3.88,0,0,1,458.06,200.82Z"/><path class="cls-5" d="M175.58,198.06a17.93,17.93,0,0,1-2.26-2.57,13.93,13.93,0,0,1-1.76-3.14,4,4,0,0,1,4,5.72Z"/><path class="cls-5" d="M89.48,198.06a17.88,17.88,0,0,1-2.26-2.57,13.9,13.9,0,0,1-1.76-3.14,4,4,0,0,1,4,5.72Z"/><path class="cls-5" d="M450.46,194a15.84,15.84,0,0,1-1.38-3.14,21.77,21.77,0,0,1-.69-3.52,3.88,3.88,0,0,1,3,2.7A3.81,3.81,0,0,1,450.46,194Z"/><path class="cls-5" d="M170.43,189.21a14.82,14.82,0,0,1-.31-3.39,17.33,17.33,0,0,1,.38-3.58,4,4,0,0,1,2.07,3.52A3.88,3.88,0,0,1,170.43,189.21Z"/><path class="cls-5" d="M84.33,189.21a14.82,14.82,0,0,1-.31-3.39,17.33,17.33,0,0,1,.38-3.58,4,4,0,0,1,2.07,3.52A3.88,3.88,0,0,1,84.33,189.21Z"/><path class="cls-5" d="M448.27,184.06a15.89,15.89,0,0,1,.75-3.33,15.41,15.41,0,0,1,1.51-3.27,4.06,4.06,0,0,1,.88,4A4,4,0,0,1,448.27,184.06Z"/><path class="cls-5" d="M171.43,179.09a14.1,14.1,0,0,1,1.76-3,19.34,19.34,0,0,1,2.39-2.7,4,4,0,0,1-.38,4.08A4.06,4.06,0,0,1,171.43,179.09Z"/><path class="cls-5" d="M85.33,179.09a14.1,14.1,0,0,1,1.76-3,19.34,19.34,0,0,1,2.39-2.7,4,4,0,0,1-.38,4.08A4.06,4.06,0,0,1,85.33,179.09Z"/><path class="cls-5" d="M452.41,174.7a14.61,14.61,0,0,1,2.51-2.26,15.44,15.44,0,0,1,3.14-1.76,3.94,3.94,0,0,1-5.65,4Z"/><path class="cls-5" d="M178.22,171.43a15.71,15.71,0,0,1,3.14-1.32,16.71,16.71,0,0,1,3.52-.75,4.06,4.06,0,0,1-2.7,3.08A4,4,0,0,1,178.22,171.43Z"/><path class="cls-5" d="M92.11,171.43a15.71,15.71,0,0,1,3.14-1.32,16.71,16.71,0,0,1,3.52-.75,4.06,4.06,0,0,1-2.7,3.08A4,4,0,0,1,92.11,171.43Z"/><path class="cls-5" d="M467.36,176.39a1.14,1.14,0,0,0-1.13,1.19,1.13,1.13,0,0,0,1.13,1.13,1.14,1.14,0,0,0,1.19-1.13A1.15,1.15,0,0,0,467.36,176.39Z"/><path class="cls-5" d="M192,177.71a1.09,1.09,0,0,0-1.45.75,1.15,1.15,0,0,0,.69,1.44,1.17,1.17,0,0,0,1.51-.75A1.13,1.13,0,0,0,192,177.71Z"/><path class="cls-5" d="M105.87,177.71a1.09,1.09,0,0,0-1.45.75,1.15,1.15,0,0,0,.69,1.44,1.17,1.17,0,0,0,1.51-.75A1.13,1.13,0,0,0,105.87,177.71Z"/><path class="cls-5" d="M472.32,179.72a1.16,1.16,0,0,0-1.63.31,1.12,1.12,0,0,0,.25,1.57,1.13,1.13,0,0,0,1.63-.25A1.09,1.09,0,0,0,472.32,179.72Z"/><path class="cls-5" d="M195.61,182.36a1.12,1.12,0,0,0-1.63-.19,1.18,1.18,0,0,0-.25,1.57,1.17,1.17,0,1,0,1.88-1.38Z"/><path class="cls-5" d="M109.51,182.36a1.12,1.12,0,0,0-1.63-.19,1.18,1.18,0,0,0-.25,1.57,1.17,1.17,0,1,0,1.88-1.38Z"/><path class="cls-5" d="M474.39,185.31a1.19,1.19,0,0,0-1.51-.69,1.1,1.1,0,0,0-.69,1.44,1.13,1.13,0,0,0,1.44.75A1.17,1.17,0,0,0,474.39,185.31Z"/><path class="cls-5" d="M195.86,188.33a1.14,1.14,0,0,0-1.19-1.13,1.13,1.13,0,0,0-1.13,1.13,1.14,1.14,0,0,0,1.13,1.19A1.15,1.15,0,0,0,195.86,188.33Z"/><path class="cls-5" d="M109.76,188.33a1.14,1.14,0,0,0-1.19-1.13,1.13,1.13,0,0,0-1.13,1.13,1.14,1.14,0,0,0,1.13,1.19A1.15,1.15,0,0,0,109.76,188.33Z"/><path class="cls-5" d="M472.76,191.09a1.12,1.12,0,0,0-.82-1.44,1.15,1.15,0,0,0-.69,2.2A1.22,1.22,0,0,0,472.76,191.09Z"/><path class="cls-5" d="M192.53,193.29a1.08,1.08,0,0,0-.31-1.57,1.07,1.07,0,0,0-1.57.25,1.1,1.1,0,0,0,.19,1.57A1.15,1.15,0,0,0,192.53,193.29Z"/><path class="cls-5" d="M106.43,193.29a1.08,1.08,0,0,0-.31-1.57,1.07,1.07,0,0,0-1.57.25,1.1,1.1,0,0,0,.19,1.57A1.15,1.15,0,0,0,106.43,193.29Z"/><path class="cls-5" d="M468,194.73a1.11,1.11,0,0,0,.19-1.63,1.16,1.16,0,0,0-1.57-.25,1.22,1.22,0,0,0-.31,1.63A1.16,1.16,0,0,0,468,194.73Z"/><path class="cls-5" d="M186.95,195.36a1.19,1.19,0,0,0,.69-1.51,1.14,1.14,0,0,0-1.44-.69,1.13,1.13,0,0,0-.75,1.44A1.17,1.17,0,0,0,186.95,195.36Z"/><path class="cls-5" d="M100.84,195.36a1.19,1.19,0,0,0,.69-1.51,1.14,1.14,0,0,0-1.44-.69,1.13,1.13,0,0,0-.75,1.44A1.17,1.17,0,0,0,100.84,195.36Z"/><path class="cls-5" d="M462.08,195a1.14,1.14,0,0,0,1.13-1.19,1.13,1.13,0,0,0-1.13-1.13,1.14,1.14,0,0,0-1.19,1.13A1.15,1.15,0,0,0,462.08,195Z"/><path class="cls-5" d="M181.17,193.73a1.13,1.13,0,0,0,1.44-.75,1.16,1.16,0,0,0-2.2-.75A1.17,1.17,0,0,0,181.17,193.73Z"/><path class="cls-5" d="M95.07,193.73a1.13,1.13,0,0,0,1.44-.75,1.16,1.16,0,0,0-2.2-.75A1.17,1.17,0,0,0,95.07,193.73Z"/><path class="cls-5" d="M457.12,191.66a1.16,1.16,0,0,0,1.63-.31,1.12,1.12,0,0,0-.25-1.57,1.13,1.13,0,0,0-1.63.25A1.09,1.09,0,0,0,457.12,191.66Z"/><path class="cls-5" d="M177.52,189a1.11,1.11,0,0,0,1.57.25,1.07,1.07,0,0,0,.25-1.57,1.13,1.13,0,1,0-1.82,1.32Z"/><path class="cls-5" d="M91.42,189a1.11,1.11,0,0,0,1.57.25,1.07,1.07,0,0,0,.25-1.57A1.13,1.13,0,1,0,91.42,189Z"/><path class="cls-5" d="M455,186.07a1.19,1.19,0,0,0,1.51.69,1.1,1.1,0,0,0,.69-1.44,1.13,1.13,0,0,0-1.44-.75A1.17,1.17,0,0,0,455,186.07Z"/><path class="cls-5" d="M177.27,183.05a1.14,1.14,0,0,0,1.19,1.13,1.13,1.13,0,0,0,1.13-1.13,1.14,1.14,0,0,0-1.13-1.19A1.15,1.15,0,0,0,177.27,183.05Z"/><path class="cls-5" d="M91.17,183.05a1.14,1.14,0,0,0,1.19,1.13,1.13,1.13,0,0,0,1.13-1.13,1.14,1.14,0,0,0-1.13-1.19A1.15,1.15,0,0,0,91.17,183.05Z"/><path class="cls-5" d="M456.68,180.29a1.12,1.12,0,0,0,.82,1.44,1.15,1.15,0,0,0,.69-2.2A1.22,1.22,0,0,0,456.68,180.29Z"/><path class="cls-5" d="M180.6,178.09a1.15,1.15,0,0,0,.31,1.63,1.12,1.12,0,0,0,1.57-.25,1.17,1.17,0,0,0-1.88-1.38Z"/><path class="cls-5" d="M94.5,178.09a1.15,1.15,0,0,0,.31,1.63,1.12,1.12,0,0,0,1.57-.25,1.17,1.17,0,0,0-1.88-1.38Z"/><path class="cls-5" d="M461.39,176.65a1.11,1.11,0,0,0-.19,1.63,1.16,1.16,0,0,0,1.57.25,1.22,1.22,0,0,0,.31-1.63A1.16,1.16,0,0,0,461.39,176.65Z"/><path class="cls-5" d="M186.19,176.08a1.15,1.15,0,0,0-.69,1.44,1.13,1.13,0,0,0,1.45.75,1.18,1.18,0,0,0,.75-1.44A1.09,1.09,0,0,0,186.19,176.08Z"/><path class="cls-5" d="M100.09,176.08a1.15,1.15,0,0,0-.69,1.44,1.13,1.13,0,0,0,1.44.75,1.18,1.18,0,0,0,.75-1.44A1.09,1.09,0,0,0,100.09,176.08Z"/><path class="cls-6" d="M536.19,198a24.51,24.51,0,0,0,1.26-8.42V127A226.18,226.18,0,0,0,536,103.61c-.38-2.2-2.39-2.57-3.58-2.57"/><line class="cls-6" x1="537.45" y1="151.02" x2="496.62" y2="151.02"/><line class="cls-6" x1="550.95" y1="149.01" x2="494.43" y2="149.01"/><line class="cls-6" x1="501.96" y1="157.8" x2="537.51" y2="157.8"/><line class="cls-6" x1="503.28" y1="160.51" x2="537.51" y2="160.51"/><line class="cls-6" x1="501.08" y1="180.6" x2="537.51" y2="180.6"/><polyline class="cls-6" points="537.45 182.36 534.05 184.68 511.95 184.68 509.5 180.6"/><path class="cls-6" d="M504.16,162.08l4.14,4.52H532l2.83-3.08c0-2.2-1-3.14-3.08-3"/><path class="cls-6" d="M537.51,162.39h-2.7v13.69c0,1.63-1.26,2.26-4,2.26H509.18"/><line class="cls-6" x1="531.98" y1="166.6" x2="531.98" y2="178.28"/><path class="cls-6" d="M508.56,166.6a117,117,0,0,1,3.39,14"/><polyline class="cls-6" points="509.31 180.6 509.31 185 501.46 185"/><polyline class="cls-6" points="503.16 185 503.16 187.26 509.75 187.26"/><path class="cls-6" d="M533.93,184.68c-.13,4.4-.19,8.23-.44,11.49"/><path class="cls-6" d="M536.75,195.86a48.47,48.47,0,0,1-7.66.5H501.77"/><path class="cls-6" d="M503.16,187.26c.31,4.46.63,11.43,2.32,12"/><line class="cls-6" x1="511.82" y1="184.68" x2="511.82" y2="196.37"/><path class="cls-6" d="M509.31,185c.94,3.45,0,11.24,1.76,11.37"/><path class="cls-6" d="M421.14,140.09l46.79.19c21.54,0,36.74,10.55,41.83,40.38"/><line class="cls-6" x1="468.24" y1="140.28" x2="537.45" y2="141.22"/><polyline class="cls-6" points="537.45 189.71 543.54 188.51 553.96 188.51"/><path class="cls-7" d="M537.45,171v-4.71h5.09a.59.59,0,0,1,.63.63v3.45a.59.59,0,0,1-.63.63Z"/><path class="cls-2" d="M554,163.71v15.58h-4.21a1.33,1.33,0,0,1-1.13-1.13V164.84a1.21,1.21,0,0,1,1.13-1.13Z"/><path class="cls-6" d="M554,161.95h-4.21a1.33,1.33,0,0,1-1.13-1.13v-6a1.21,1.21,0,0,1,1.13-1.13H554"/><path class="cls-4" d="M553.9,164.34v14.32c-2.26-.06-4.08.06-4.46-.19l-.06-13.94.19-.13.25-.06C550.82,164.34,552.27,164.4,553.9,164.34Z"/><path class="cls-2" d="M554,180.66v5.9h-3.39a1.13,1.13,0,0,1-1.13-1.13V181.8a1.13,1.13,0,0,1,1.13-1.13Z"/><path class="cls-4" d="M554,181.23v4.71a27.1,27.1,0,0,1-3.77-.13,10.38,10.38,0,0,1,0-4.4l.19-.06.25-.06C551.45,181.29,552.64,181.29,554,181.23Z"/><path class="cls-6" d="M537.45,152.72h16.39c-1.82-.25-3.39-2.39-3.27-6.53"/><polyline class="cls-6" points="537.45 199.76 537.45 197.94 552.96 197.94"/><line class="cls-6" x1="467.92" y1="149.33" x2="467.92" y2="47.4"/><path class="cls-6" d="M420.88,149.39c0-31.53,1.63-72.16,3.89-102.62l3.64-34.67"/><path class="cls-6" d="M426.1,13.86c-3.27,33.1-5.78,68-6.15,101l-.31,34.42h27.32"/><path class="cls-6" d="M531.23,32.07c-19.72-1.13-84.59-3.2-104.69-3"/><line class="cls-6" x1="480.74" y1="53.43" x2="468.05" y2="53.11"/><path class="cls-6" d="M525.83,20.9c-11.12-5.84-59.47-9-97.16-9"/><path class="cls-6" d="M425.47,41.43l91.63,1.63c12,.13,12.69,3.14,13.63,8.67"/><path class="cls-6" d="M538.07,101.47l-11.93-1-63.43-4.08-10.8-.82c-8.42-.63-13.13-3.64-13.13-10,0-7.6.06-19.47.25-28.2.19-7.54.5-12.75,2.64-13.25"/><path class="cls-6" d="M535.81,104.67,461,99.59l-12.18-.69c-8.42-.5-12.87-4.65-13.13-10.74-.38-9.67-.44-29.39.38-40.63.31-5.09,4.84-5.9,6-6"/><path class="cls-2" d="M480.36,53.11c12.94.19,25.56.5,38.12,1.07,1.82.06,4.46.69,5.28,3.77,3.27,12.37,4.52,25.5,5.09,39,.13,4.14-.57,3.64-3.45,3.45L480,97.58a5.91,5.91,0,0,1-5.59-6.09l-1.07-33.72C473.2,54.75,475.9,53,480.36,53.11Z"/><path class="cls-3" d="M490.09,54.24c9.36,0,19,.38,28.32.88,2.2.19,3.71.88,4.46,3.08,3,12.87,5,26.82,5,40.07l-.06.82-.06.31a9.21,9.21,0,0,1-2.32.06l-45.34-2.83c-3.08-.5-4.4-2-4.77-5.21l-1.07-33.66c.31-4.84,7.72-3.64,11-3.64l2.39.06Z"/><path class="cls-2" d="M538.14,48.78c5.65,16.45,8.92,34.23,11.43,52.63h-3.64c-3,0-4.71-2.07-5.28-4.84-3.2-15.2-5.84-30.4-10-44.46C530.29,50.85,532.17,49.53,538.14,48.78Z"/><path class="cls-3" d="M538.26,49.41c5.53,16,8.79,33.41,11.3,51.37H546c-2.89-.31-4-1.51-4.71-4.33-2.51-11.62-4.33-23.55-7.47-35.11-.69-3.08-2-6.59-2.57-9.67C532.42,50.16,535.88,49.66,538.26,49.41Z"/><line class="cls-6" x1="516.53" y1="43.06" x2="518.1" y2="48.91"/><line class="cls-6" x1="421.07" y1="126.47" x2="553.9" y2="128.35"/><line class="cls-6" x1="420.95" y1="128.22" x2="550.38" y2="130.11"/><path class="cls-2" d="M550.45,130h3.45v19c-2.57,0-3.45-1.7-3.45-4.21Z"/><path class="cls-2" d="M519.86,51.48c-1.32,0-2.45.57-2.45,1.26s1.13,1.19,2.45,1.19,2.45-.57,2.45-1.19S521.18,51.48,519.86,51.48Z"/><path class="cls-2" d="M522.88,105.43c-1.32,0-2.45,1.51-2.45,3.39s1.13,3.27,2.45,3.27,2.45-1.51,2.45-3.27S524.19,105.43,522.88,105.43Z"/><path class="cls-2" d="M515.65,72.83h2.45A3.16,3.16,0,0,1,521,75.72c.69,7,1.07,14.07,1.26,21.23a3.05,3.05,0,0,1-2.89,2.89h-2.45A3.06,3.06,0,0,1,514,96.95a119.74,119.74,0,0,1-1.26-21.23A3,3,0,0,1,515.65,72.83Z"/><path class="cls-2" d="M515.65,60.27h2.45A3.27,3.27,0,0,1,521,63.16l.44,6.34a3.2,3.2,0,0,1-2.89,2.89h-2.45a3,3,0,0,1-2.89-2.89l-.44-6.34A3,3,0,0,1,515.65,60.27Z"/><path class="cls-2" d="M520.3,52.67h0a.94.94,0,0,1,.88.88c1.7,17.58,2.57,35.17,2.89,52.88a.94.94,0,0,1-.88.88h0a.9.9,0,0,1-.88-.88c-.13-17.71-1.13-35.36-2.89-52.88A.9.9,0,0,1,520.3,52.67Z"/><rect class="cls-4" x="517.16" y="187.7" width="8.67" height="5.28" rx="1.32" ry="1.32"/><rect class="cls-2" x="473.39" y="130.93" width="11.24" height="6.72" rx="1.07" ry="1.07"/><rect class="cls-2" x="476.78" y="131.93" width="5.78" height="4.58" rx="0.57" ry="0.57"/><path class="cls-2" d="M475.21,133.94h7.6c.5,0,.88.13.88.25v1c0,.19-.38.25-.88.25h-7.6c-.5,0-.88-.06-.88-.25v-1C474.33,134.07,474.71,133.94,475.21,133.94Z"/><path class="cls-6" d="M459.57,106l-24.37-1.88a3.91,3.91,0,0,0-3.71,3.45v25.75c0,1.82,1.44,2.2,2.76,2.2h27a1.53,1.53,0,0,0,1.38-1.38V108.82a3.6,3.6,0,0,0-2-2.51"/><path class="cls-6" d="M545.48,101.41c3,4.33,3.27,15.32,3.64,27.07a1.84,1.84,0,0,1,1.32,1.76"/><line class="cls-6" x1="546.68" y1="101.41" x2="538.07" y2="101.41"/><path class="cls-6" d="M437.21,149.33c-14.26,8.23-14.7,26.06-15.14,51.37"/><path class="cls-6" d="M440.92,153.16H429.49c-5.78,6.47-8.73,20.1-9.23,34.73"/><path class="cls-6" d="M422.08,196.37h3.14a1.64,1.64,0,0,0,1.57-1.57V194a1.55,1.55,0,0,0-1.57-1.57h-3"/><path class="cls-7" d="M424.78,193a1.27,1.27,0,0,0-1.26,1.32,1.26,1.26,0,0,0,1.26,1.26,1.27,1.27,0,0,0,1.32-1.26A1.29,1.29,0,0,0,424.78,193Z"/><path class="cls-5" d="M432.5,191a30.12,30.12,0,0,1-.44-5.34,32.53,32.53,0,0,1,65.06,0A31.92,31.92,0,0,1,495,197.12l6.78-3.83c.19-9-.88-16.77-3.45-22.92-5.4-13.19-12.06-21.1-33.16-21.1H445.69c-12.12,7.47-17.52,22.36-18.34,39.44Z"/><path class="cls-5" d="M235.74,185.44c-.38,1.95-.75,3.89-1.13,6v.94l151.86-15.07v-.06h30.21c-.13-11.3-.75-16.33-4-16.58a.39.39,0,0,1-.13-.25H207a32.39,32.39,0,0,1,10.93,16.83h11.87V165.34c8.54-4.65,16-4.52,13.44,0a78.6,78.6,0,0,0-5.15,11.87H343.45Z"/><rect class="cls-2" x="286.8" y="181.86" width="67.76" height="19.34" rx="4.33" ry="4.33"/><rect class="cls-4" x="388.73" y="160.38" width="27.01" height="38.44" rx="3.33" ry="3.33"/><path class="cls-2" d="M229.71,203.27h-3.77c-.69-15.76-4.4-27.95-9.74-37.87-2.45-4.58,4.9-4.65,13.5,0Z"/><path class="cls-2" d="M229.71,203.27h3.77c.69-15.76,4.4-27.95,9.73-37.87,2.45-4.58-4.9-4.65-13.5,0Z"/><path class="cls-8" d="M414.29,161.32v.13a5.74,5.74,0,0,1,.94,1.44h.13A6.23,6.23,0,0,0,414.29,161.32Z"/><path class="cls-8" d="M414.29,148.89v7.66A10.25,10.25,0,0,1,416,155a14.8,14.8,0,0,1-1.26-6.09Z"/><path class="cls-8" d="M414.29,156.55v-7.66h-368v34.54h4.9V163.58l.06,8,19.66.06a32.62,32.62,0,0,1,58.72-.25h27.57a32.6,32.6,0,0,1,48.17-12.25c.57.38,1.07.82,1.57,1.19H412.47a.39.39,0,0,0,.13.25h.13A5,5,0,0,1,414.29,156.55Z"/><path class="cls-8" d="M414.29,161.45v-.13a3.49,3.49,0,0,0-1.07-.57A2.84,2.84,0,0,1,414.29,161.45Z"/><path class="cls-6" d="M413.22,160.76a3.25,3.25,0,0,1,2,2.14h.13A3.14,3.14,0,0,0,413.22,160.76Z"/><path class="cls-6" d="M70.89,171.68a32.62,32.62,0,0,1,58.72-.25h27.57a32.6,32.6,0,0,1,48.17-12.25c.57.38,1.07.82,1.57,1.19H412.47a.39.39,0,0,0,.13.25h.13c-.25-2.26,1.26-4.08,3.27-5.65a14.8,14.8,0,0,1-1.26-6.09H46.27v34.54h4.9V163.58l.06,8Z"/><line class="cls-6" x1="50.85" y1="171.43" x2="50.85" y2="148.64"/><line class="cls-6" x1="120.06" y1="153.22" x2="166.85" y2="153.22"/><line class="cls-6" x1="50.85" y1="153.22" x2="80.75" y2="153.22"/><path class="cls-6" d="M218.47,161.89c-7.91-7.29-17.46-13.25-32.66-13.19-12.5,0-22.67,4.71-27.63,12.94l-27.7-.13"/><path class="cls-6" d="M132.37,161.89c-7.91-7.29-17.46-13.25-32.66-13.19-12.5,0-22.67,4.71-27.63,12.94l-21.23-.13"/><rect class="cls-7" x="46.58" y="171.75" width="3.64" height="10.3"/><path class="cls-6" d="M549.13,128.35c-.25.94-1.07,1.32-1.07,2.32v14c0,2.51,1.63,4.33,3,4.52"/><rect class="cls-1" x="0.11" y="0.11" width="410.73" height="148.78"/><line class="cls-6" x1="0.04" y1="5.13" x2="410.71" y2="5.13"/><line class="cls-6" x1="0.04" y1="2.81" x2="410.71" y2="2.81"/><line class="cls-6" x1="0.48" y1="146.94" x2="410.71" y2="146.94"/><line class="cls-6" x1="8.46" y1="140.66" x2="404.43" y2="140.66"/><line class="cls-6" x1="8.52" y1="136.51" x2="404.43" y2="136.51"/><line class="cls-6" x1="405.37" y1="5.13" x2="405.37" y2="146.94"/><line class="cls-6" x1="9.28" y1="5.13" x2="9.28" y2="146.94"/><rect class="cls-2" x="140.72" y="137.21" width="2.45" height="3.45" rx="0.44" ry="0.44"/><rect class="cls-2" x="122.2" y="137.21" width="2.45" height="3.45" rx="0.44" ry="0.44"/><rect class="cls-2" x="103.67" y="137.21" width="2.45" height="3.45" rx="0.44" ry="0.44"/><rect class="cls-2" x="85.14" y="137.21" width="2.45" height="3.45" rx="0.44" ry="0.44"/><rect class="cls-2" x="66.62" y="137.21" width="2.45" height="3.45" rx="0.44" ry="0.44"/><rect class="cls-2" x="48.09" y="137.21" width="2.45" height="3.45" rx="0.44" ry="0.44"/><rect class="cls-2" x="29.56" y="137.21" width="2.45" height="3.45" rx="0.44" ry="0.44"/><rect class="cls-2" x="11.04" y="137.21" width="2.45" height="3.45" rx="0.44" ry="0.44"/><rect class="cls-2" x="159.25" y="137.21" width="2.45" height="3.45" rx="0.44" ry="0.44"/><rect class="cls-2" x="177.78" y="137.21" width="2.45" height="3.45" rx="0.44" ry="0.44"/><rect class="cls-2" x="196.3" y="137.21" width="2.45" height="3.45" rx="0.44" ry="0.44"/><rect class="cls-2" x="214.83" y="137.21" width="2.45" height="3.45" rx="0.44" ry="0.44"/><rect class="cls-2" x="233.36" y="137.21" width="2.45" height="3.45" rx="0.44" ry="0.44"/><rect class="cls-2" x="251.88" y="137.21" width="2.45" height="3.45" rx="0.44" ry="0.44"/><rect class="cls-2" x="270.41" y="137.21" width="2.45" height="3.45" rx="0.44" ry="0.44"/><rect class="cls-2" x="288.94" y="137.21" width="2.45" height="3.45" rx="0.44" ry="0.44"/><rect class="cls-2" x="307.46" y="137.21" width="2.45" height="3.45" rx="0.44" ry="0.44"/><rect class="cls-2" x="325.99" y="137.21" width="2.45" height="3.45" rx="0.44" ry="0.44"/><rect class="cls-2" x="344.52" y="137.21" width="2.45" height="3.45" rx="0.44" ry="0.44"/><rect class="cls-2" x="363.04" y="137.21" width="2.45" height="3.45" rx="0.44" ry="0.44"/><rect class="cls-2" x="381.57" y="137.21" width="2.45" height="3.45" rx="0.44" ry="0.44"/><rect class="cls-2" x="400.1" y="137.21" width="2.45" height="3.45" rx="0.44" ry="0.44"/><path class="cls-2" d="M141.48,140.66h.94c.13,0,.25.25.25.57v3.33c0,.31-.12.57-.25.57h-.94c-.19,0-.25-.25-.25-.57v-3.33C141.22,140.91,141.29,140.66,141.48,140.66Z"/><path class="cls-2" d="M122.95,140.66h.94c.13,0,.25.25.25.57v3.33c0,.31-.13.57-.25.57h-.94c-.19,0-.25-.25-.25-.57v-3.33C122.7,140.91,122.76,140.66,122.95,140.66Z"/><path class="cls-2" d="M104.42,140.66h.94c.13,0,.25.25.25.57v3.33c0,.31-.13.57-.25.57h-.94c-.19,0-.25-.25-.25-.57v-3.33C104.17,140.91,104.23,140.66,104.42,140.66Z"/><path class="cls-2" d="M85.9,140.66h.94c.13,0,.25.25.25.57v3.33c0,.31-.13.57-.25.57H85.9c-.19,0-.25-.25-.25-.57v-3.33C85.64,140.91,85.71,140.66,85.9,140.66Z"/><path class="cls-2" d="M67.37,140.66h.94c.13,0,.25.25.25.57v3.33c0,.31-.13.57-.25.57h-.94c-.19,0-.25-.25-.25-.57v-3.33C67.12,140.91,67.18,140.66,67.37,140.66Z"/><path class="cls-2" d="M48.84,140.66h.94c.13,0,.25.25.25.57v3.33c0,.31-.13.57-.25.57h-.94c-.19,0-.25-.25-.25-.57v-3.33C48.59,140.91,48.65,140.66,48.84,140.66Z"/><path class="cls-2" d="M30.32,140.66h.94c.13,0,.25.25.25.57v3.33c0,.31-.13.57-.25.57h-.94c-.19,0-.25-.25-.25-.57v-3.33C30.07,140.91,30.13,140.66,30.32,140.66Z"/><path class="cls-2" d="M11.79,140.66h.94c.13,0,.25.25.25.57v3.33c0,.31-.13.57-.25.57h-.94c-.19,0-.25-.25-.25-.57v-3.33C11.54,140.91,11.6,140.66,11.79,140.66Z"/><path class="cls-2" d="M160,140.66h.94c.13,0,.25.25.25.57v3.33c0,.31-.13.57-.25.57H160c-.19,0-.25-.25-.25-.57v-3.33C159.75,140.91,159.81,140.66,160,140.66Z"/><path class="cls-2" d="M178.53,140.66h.94c.13,0,.25.25.25.57v3.33c0,.31-.13.57-.25.57h-.94c-.19,0-.25-.25-.25-.57v-3.33C178.28,140.91,178.34,140.66,178.53,140.66Z"/><path class="cls-2" d="M197.06,140.66H198c.13,0,.25.25.25.57v3.33c0,.31-.13.57-.25.57h-.94c-.19,0-.25-.25-.25-.57v-3.33C196.8,140.91,196.87,140.66,197.06,140.66Z"/><path class="cls-2" d="M215.58,140.66h.94c.13,0,.25.25.25.57v3.33c0,.31-.13.57-.25.57h-.94c-.19,0-.25-.25-.25-.57v-3.33C215.33,140.91,215.4,140.66,215.58,140.66Z"/><path class="cls-2" d="M234.11,140.66h.94c.13,0,.25.25.25.57v3.33c0,.31-.13.57-.25.57h-.94c-.19,0-.25-.25-.25-.57v-3.33C233.86,140.91,233.92,140.66,234.11,140.66Z"/><path class="cls-2" d="M252.64,140.66h.94c.13,0,.25.25.25.57v3.33c0,.31-.13.57-.25.57h-.94c-.19,0-.25-.25-.25-.57v-3.33C252.39,140.91,252.45,140.66,252.64,140.66Z"/><path class="cls-2" d="M271.16,140.66h.94c.13,0,.25.25.25.57v3.33c0,.31-.13.57-.25.57h-.94c-.19,0-.25-.25-.25-.57v-3.33C270.91,140.91,271,140.66,271.16,140.66Z"/><path class="cls-2" d="M289.69,140.66h.94c.13,0,.25.25.25.57v3.33c0,.31-.13.57-.25.57h-.94c-.19,0-.25-.25-.25-.57v-3.33C289.44,140.91,289.5,140.66,289.69,140.66Z"/><path class="cls-2" d="M308.22,140.66h.94c.13,0,.25.25.25.57v3.33c0,.31-.13.57-.25.57h-.94c-.19,0-.25-.25-.25-.57v-3.33C308,140.91,308,140.66,308.22,140.66Z"/><path class="cls-2" d="M326.74,140.66h.94c.13,0,.25.25.25.57v3.33c0,.31-.13.57-.25.57h-.94c-.19,0-.25-.25-.25-.57v-3.33C326.49,140.91,326.55,140.66,326.74,140.66Z"/><path class="cls-2" d="M345.27,140.66h.94c.13,0,.25.25.25.57v3.33c0,.31-.13.57-.25.57h-.94c-.19,0-.25-.25-.25-.57v-3.33C345,140.91,345.08,140.66,345.27,140.66Z"/><path class="cls-2" d="M363.8,140.66h.94c.13,0,.25.25.25.57v3.33c0,.31-.13.57-.25.57h-.94c-.19,0-.25-.25-.25-.57v-3.33C363.55,140.91,363.61,140.66,363.8,140.66Z"/><path class="cls-2" d="M382.32,140.66h.94c.13,0,.25.25.25.57v3.33c0,.31-.13.57-.25.57h-.94c-.19,0-.25-.25-.25-.57v-3.33C382.07,140.91,382.14,140.66,382.32,140.66Z"/><path class="cls-2" d="M400.85,140.66h.94c.13,0,.25.25.25.57v3.33c0,.31-.13.57-.25.57h-.94c-.19,0-.25-.25-.25-.57v-3.33C400.6,140.91,400.66,140.66,400.85,140.66Z"/><path class="cls-6" d="M505.73,12.54c-11.12-1.19-22.11-2.26-33.1-3.14"/><path class="cls-6" d="M508.87,14.68c-12.31-1.51-24.74-2.89-37.87-3.77"/><path class="cls-2" d="M539.52,44l-2.32-5.72-12.94,2.83L524,44.19A11.31,11.31,0,0,1,530.73,52h13.19C542.85,47,541.53,43.63,539.52,44Z"/><line class="cls-6" x1="539.64" y1="43.82" x2="525.2" y2="44.63"/><path class="cls-2" d="M143.61,203.27h-3.77c-.69-15.76-4.4-27.95-9.74-37.87-2.45-4.58,4.9-4.65,13.5,0Z"/><path class="cls-2" d="M143.61,203.27h3.77c.69-15.76,4.4-27.95,9.73-37.87,2.45-4.58-4.9-4.65-13.5,0Z"/><path class="cls-9" d="M491.31,116.54l-1-1.77a.06.06,0,0,0,0,0h-.68a.06.06,0,0,0,0,.09l1.41,2.36a.06.06,0,0,1,0,.05,2.5,2.5,0,0,1-.21.39.52.52,0,0,1-.17.15.45.45,0,0,1-.21,0,1,1,0,0,1-.37-.09.06.06,0,0,0-.08,0l-.18.55a.06.06,0,0,0,0,.07,1.25,1.25,0,0,0,.25.09,1.54,1.54,0,0,0,.37,0,1.15,1.15,0,0,0,.45-.08.94.94,0,0,0,.34-.26,2.61,2.61,0,0,0,.34-.56l1.35-2.81a.06.06,0,0,0-.05-.08h-.66a.06.06,0,0,0-.05,0Z"/><path class="cls-9" d="M495.62,115.81l.64-1a.06.06,0,0,0,0-.09h-.66a.06.06,0,0,0,0,0l-.53.83a3.67,3.67,0,0,1-.41.57.44.44,0,0,1-.3.16V114.8a.06.06,0,0,0-.06-.06h-.67a.06.06,0,0,0-.06.06v3.62a.06.06,0,0,0,.06.06h.66a.06.06,0,0,0,.06-.06v-1.55l.18,0,.16-.06,1,1.67a.06.06,0,0,0,0,0h.71a.06.06,0,0,0,0-.09l-1.23-2A3,3,0,0,0,495.62,115.81Z"/><path class="cls-9" d="M499.8,115.05a1.54,1.54,0,0,0-1-.31h-1.62a.06.06,0,0,0-.06.06v3.62a.06.06,0,0,0,.06.06h.67a.06.06,0,0,0,.06-.06v-1.26h.93a1.59,1.59,0,0,0,.73-.15,1.11,1.11,0,0,0,.47-.44,1.26,1.26,0,0,0,.16-.64A1.08,1.08,0,0,0,499.8,115.05Zm-.6,1.35a.71.71,0,0,1-.5.16h-.83v-1.21h.81q.69,0,.69.59A.6.6,0,0,1,499.2,116.4Z"/><path class="cls-9" d="M503.87,116.52a1.43,1.43,0,0,0-1-.29h-1.27v-.88h2a.06.06,0,0,0,.06-.06v-.49a.06.06,0,0,0-.06-.06h-2.7a.06.06,0,0,0-.06.06v3.62a.06.06,0,0,0,.06.06h1.91a1.77,1.77,0,0,0,.74-.14,1.07,1.07,0,0,0,.48-.4,1.1,1.1,0,0,0,.16-.6A1,1,0,0,0,503.87,116.52Zm-1.17,1.35h-1.05v-1h1a.93.93,0,0,1,.55.13.44.44,0,0,1,.18.38Q503.42,117.87,502.7,117.87Z"/><path class="cls-9" d="M506.39,116.54l-1-1.77a.06.06,0,0,0,0,0h-.68a.06.06,0,0,0,0,.09l1.41,2.36a.06.06,0,0,1,0,.05,2.5,2.5,0,0,1-.21.39.52.52,0,0,1-.17.15.45.45,0,0,1-.21,0,1,1,0,0,1-.37-.09.06.06,0,0,0-.08,0l-.18.55a.06.06,0,0,0,0,.07,1.25,1.25,0,0,0,.25.09,1.54,1.54,0,0,0,.37,0,1.15,1.15,0,0,0,.45-.08.94.94,0,0,0,.34-.26,2.61,2.61,0,0,0,.34-.56l1.35-2.81a.06.06,0,0,0-.05-.08h-.66a.06.06,0,0,0-.05,0Z"/><path class="cls-9" d="M511.28,115.05a1.54,1.54,0,0,0-1-.31h-1.62a.06.06,0,0,0-.06.06v3.62a.06.06,0,0,0,.06.06h.67a.06.06,0,0,0,.06-.06v-1.26h.93A1.59,1.59,0,0,0,511,117a1.11,1.11,0,0,0,.47-.44,1.26,1.26,0,0,0,.16-.64A1.08,1.08,0,0,0,511.28,115.05Zm-.6,1.35a.71.71,0,0,1-.5.16h-.83v-1.21h.81q.69,0,.69.59A.6.6,0,0,1,510.68,116.4Z"/><path class="cls-9" d="M514,117.91a1,1,0,0,1-.81-.34,1.5,1.5,0,0,1-.28-1,1.47,1.47,0,0,1,.27-1,1,1,0,0,1,.8-.33,1.08,1.08,0,0,1,.6.17.8.8,0,0,1,.33.4.06.06,0,0,0,.07,0l.58-.16a.06.06,0,0,0,0-.07,1.38,1.38,0,0,0-.56-.72,2,2,0,0,0-1.07-.26,1.82,1.82,0,0,0-1.37.49,2.33,2.33,0,0,0,0,2.84,1.84,1.84,0,0,0,1.39.51,1.89,1.89,0,0,0,1-.26,1.61,1.61,0,0,0,.62-.75.06.06,0,0,0,0-.08l-.57-.22a.06.06,0,0,0-.07,0A1,1,0,0,1,514,117.91Z"/><path class="cls-9" d="M517.21,116.89h1.93a.06.06,0,0,0,.06-.06v-.49a.06.06,0,0,0-.06-.06h-1.93v-.94h2.1a.06.06,0,0,0,.06-.06v-.49a.06.06,0,0,0-.06-.06h-2.82a.06.06,0,0,0-.06.06v3.62a.06.06,0,0,0,.06.06h2.93a.06.06,0,0,0,.06-.06v-.49a.06.06,0,0,0-.06-.06h-2.2Z"/><path class="cls-9" d="M523,115.05a1.54,1.54,0,0,0-1-.31h-1.62a.06.06,0,0,0-.06.06v3.62a.06.06,0,0,0,.06.06h.67a.06.06,0,0,0,.06-.06v-1.26H522a1.59,1.59,0,0,0,.73-.15,1.11,1.11,0,0,0,.47-.44,1.26,1.26,0,0,0,.16-.64A1.08,1.08,0,0,0,523,115.05Zm-.6,1.35a.71.71,0,0,1-.5.16h-.83v-1.21h.81q.69,0,.69.59A.6.6,0,0,1,522.44,116.4Z"/><path class="cls-9" d="M526.45,116.51a.9.9,0,0,0,.54-.3.83.83,0,0,0,.18-.54.79.79,0,0,0-.35-.7,1.85,1.85,0,0,0-1-.24h-1.65a.06.06,0,0,0-.06.06v3.62a.06.06,0,0,0,.06.06h1.81a1.77,1.77,0,0,0,1.06-.28.92.92,0,0,0,.38-.79.82.82,0,0,0-.24-.61A1.15,1.15,0,0,0,526.45,116.51Zm-1.6-1.19h.89a.87.87,0,0,1,.48.11.4.4,0,0,1,.16.36.41.41,0,0,1-.15.35.79.79,0,0,1-.48.12h-.9Zm1.57,2.44a.89.89,0,0,1-.55.14h-1v-1.07h1q.75,0,.75.52A.49.49,0,0,1,526.42,117.76Z"/><rect class="cls-9" x="528.27" y="114.74" width="0.78" height="3.73" rx="0.06" ry="0.06"/><path class="cls-9" d="M532.84,117.22a.06.06,0,0,0-.07,0,1,1,0,0,1-1,.66,1,1,0,0,1-.81-.34,1.5,1.5,0,0,1-.28-1,1.47,1.47,0,0,1,.27-1,1,1,0,0,1,.8-.33,1.08,1.08,0,0,1,.6.17.8.8,0,0,1,.33.4.06.06,0,0,0,.07,0l.58-.16a.06.06,0,0,0,0-.07,1.38,1.38,0,0,0-.56-.72,2,2,0,0,0-1.07-.26,1.82,1.82,0,0,0-1.37.49,2.33,2.33,0,0,0,0,2.84,1.84,1.84,0,0,0,1.39.51,1.89,1.89,0,0,0,1-.26,1.61,1.61,0,0,0,.62-.75.06.06,0,0,0,0-.08Z"/><path class="cls-9" d="M486.49,123.47v-3.17a1.11,1.11,0,0,0-.31-.77h0l0,0h0l-.46-.47h0l-1-1-.53.53,1.46,1.46a.38.38,0,0,1,.11.26v3.17a.37.37,0,0,1-.37.37h-3.18a.38.38,0,0,1-.26-.11l-1.26-1.26h0L479.15,121l.53-.53h0l.79.79h0l1.06,1.06a.37.37,0,0,0,.53-.53L481,120.69h0l-.79-.79.53-.53,1.85,1.85a.37.37,0,1,0,.53-.53l-1.85-1.85.26-.26L481,118l-1.85,1.85h0L478.09,121l1.32,1.32h0l2,2a1.12,1.12,0,0,0,.79.33h3.18A1.12,1.12,0,0,0,486.49,123.47Z"/><path class="cls-9" d="M473.85,115.66l-.14-.14a.37.37,0,0,1-.11-.26v-3.18a.37.37,0,0,1,.37-.37h3.18a.37.37,0,0,1,.26.11l2.19,2.19h0l.59.59-.53.53-.79-.79h0l-1.06-1.06a.37.37,0,1,0-.53.53l1.06,1.06h0l.79.79-.53.53-1.85-1.85a.37.37,0,1,0-.53.53l1.85,1.85-.27.27.53.53,2.92-2.92-.26-.26h0l-1.72-1.72L478,111.29a1.12,1.12,0,0,0-.79-.33H474a1.12,1.12,0,0,0-1.12,1.12v3.18a1.12,1.12,0,0,0,.33.79l.78.78h0l.68.68.53-.53-1.32-1.32Z"/><path class="cls-9" d="M479.41,122.81l-.53-.53-1,1h0l-.43.43a.37.37,0,0,1-.26.11H474a.37.37,0,0,1-.37-.37h0v-3.18a.37.37,0,0,1,.11-.26l2-2h0l.79-.79.31.31h0l.22.22-.79.79h0l-1.06,1.06a.37.37,0,1,0,.53.53l1.06-1.06h0l.79-.79.53.53-1.85,1.85a.37.37,0,1,0,.53.53l1.85-1.85.27.27.53-.53L477.34,117l-.84-.84-.88.88-2.43,2.43a1.12,1.12,0,0,0-.33.79v3.18h0a1.12,1.12,0,0,0,1.12,1.12h3.18a1.12,1.12,0,0,0,.79-.33l1-1h0Z"/><path class="cls-9" d="M481.74,112h0l.18-.18a.37.37,0,0,1,.26-.11h3.17a.37.37,0,0,1,.37.37v3.18h0a.37.37,0,0,1-.11.26l-1.7,1.7h0l-1.09,1.09-.53-.53.79-.79h0l1.06-1.06a.37.37,0,0,0-.53-.53l-1.06,1.06h0l-.79.79-.53-.53,1.85-1.85a.37.37,0,1,0-.53-.53l-1.85,1.85-.26-.26-.53.53.53.53h0l1.85,1.85h0l.53.53,2.56-2.56.75-.75a1.12,1.12,0,0,0,.33-.79h0v-3.18a1.12,1.12,0,0,0-1.12-1.12h-3.17a1.12,1.12,0,0,0-.79.33l-.18.18h0l-1.28,1.28.53.53Z"/><path class="cls-9" d="M483.51,120l.13.13a.37.37,0,1,0,.53-.53l-.13-.13h0l-.4-.4-.53.53.39.39Z"/><path class="cls-9" d="M477.29,121.74a.37.37,0,1,0,.53.53l.13-.13h0l.39-.39-.53-.53-.39.39h0Z"/><path class="cls-9" d="M482.06,113.8a.37.37,0,1,0-.53-.53l-.18.18h0l-.35.35.53.53.36-.36h0Z"/><path class="cls-9" d="M475.7,115.39a.37.37,0,1,0-.53.53l.22.22h0l.3.3.53-.53-.31-.31h0Z"/><path class="cls-9" d="M490.72,120.11a.62.62,0,0,1,.51.21,1,1,0,0,1,.17.62.86.86,0,0,1-.2.62.76.76,0,0,1-.57.2.66.66,0,0,1-.57-.25,1.33,1.33,0,0,1-.18-.78,2.69,2.69,0,0,1,0-.47,1.2,1.2,0,0,1,.11-.35.76.76,0,0,1,.2-.24,1,1,0,0,1,.31-.16,5.8,5.8,0,0,1,.79-.14v.25a4.45,4.45,0,0,0-.85.16.48.48,0,0,0-.27.25,1.3,1.3,0,0,0-.08.5.6.6,0,0,1,.23-.31A.66.66,0,0,1,490.72,120.11Zm.38.83a.83.83,0,0,0-.1-.47.38.38,0,0,0-.34-.15.43.43,0,0,0-.37.15.76.76,0,0,0-.12.47.79.79,0,0,0,.11.46.39.39,0,0,0,.34.15.42.42,0,0,0,.36-.15A.78.78,0,0,0,491.1,120.93Z"/><path class="cls-9" d="M491.77,122.39l-.19,0v-.21h.13q.26,0,.42-.39l0-.07-.67-1.69h.3l.36.94,0,.05.07.21.06.19.11-.31.37-1.08h.3l-.65,1.7a2.07,2.07,0,0,1-.2.4.65.65,0,0,1-.2.2A.49.49,0,0,1,491.77,122.39Z"/><path class="cls-9" d="M494.7,120.86q0,.89-.63.89a.52.52,0,0,1-.53-.3h0a2.37,2.37,0,0,1,0,.27v.67h-.28v-2q0-.26,0-.35h.27v.16q0,.08,0,.11h0a.52.52,0,0,1,.2-.23.64.64,0,0,1,.33-.07.55.55,0,0,1,.47.21A1.12,1.12,0,0,1,494.7,120.86Zm-.3,0a1,1,0,0,0-.1-.51.33.33,0,0,0-.31-.15.38.38,0,0,0-.41.29,1.28,1.28,0,0,0,0,.39.9.9,0,0,0,.11.49.39.39,0,0,0,.35.16.34.34,0,0,0,.31-.15A1,1,0,0,0,494.4,120.87Z"/><path class="cls-9" d="M496.49,120.87a1,1,0,0,1-.2.67.73.73,0,0,1-.57.22.69.69,0,0,1-.56-.23,1,1,0,0,1-.19-.66q0-.88.76-.88a.72.72,0,0,1,.57.21A1,1,0,0,1,496.49,120.87Zm-.3,0a1,1,0,0,0-.1-.51.39.39,0,0,0-.35-.16.4.4,0,0,0-.36.16.92.92,0,0,0-.11.51.94.94,0,0,0,.11.51.38.38,0,0,0,.34.17.41.41,0,0,0,.36-.16A.94.94,0,0,0,496.19,120.87Z"/><path class="cls-9" d="M497.51,120a.83.83,0,0,1,.47.11.36.36,0,0,1,.16.32.35.35,0,0,1-.09.24.46.46,0,0,1-.26.13h0a.51.51,0,0,1,.3.13.37.37,0,0,1,.1.27.43.43,0,0,1-.17.36.77.77,0,0,1-.48.13h-.7V120Zm-.38.22v.5h.34a.54.54,0,0,0,.29-.06.27.27,0,0,0,0-.39.46.46,0,0,0-.27-.06Zm0,1.28h.37a.52.52,0,0,0,.31-.07.25.25,0,0,0,.09-.21.25.25,0,0,0-.09-.22.58.58,0,0,0-.32-.07h-.35Z"/><path class="cls-9" d="M498.95,121.75a.51.51,0,0,1-.39-.14.52.52,0,0,1-.13-.37.49.49,0,0,1,.17-.41.92.92,0,0,1,.56-.15h.38v-.09a.41.41,0,0,0-.09-.3.37.37,0,0,0-.28-.09.47.47,0,0,0-.28.06.29.29,0,0,0-.1.21l-.3,0q.07-.46.68-.46a.7.7,0,0,1,.48.15.55.55,0,0,1,.16.43v.73a.42.42,0,0,0,0,.19.13.13,0,0,0,.13.06h.09v.18l-.22,0a.29.29,0,0,1-.23-.08.43.43,0,0,1-.08-.26h0a.69.69,0,0,1-.25.28A.7.7,0,0,1,498.95,121.75Zm.06-.21a.54.54,0,0,0,.28-.07.51.51,0,0,0,.19-.19.51.51,0,0,0,.07-.25v-.14h-.31a1,1,0,0,0-.3,0,.32.32,0,0,0-.16.12.35.35,0,0,0-.06.21.29.29,0,0,0,.07.21A.29.29,0,0,0,499,121.54Z"/><path class="cls-9" d="M500.9,120h.28v.75h.08l.08-.05.09-.11.36-.57h.3l-.34.51a1.6,1.6,0,0,1-.2.26l.56.93h-.31l-.44-.78-.08,0h-.09v.75h-.28Z"/><path class="cls-9" d="M503.78,120.87a1,1,0,0,1-.2.67.73.73,0,0,1-.57.22.69.69,0,0,1-.56-.23,1,1,0,0,1-.19-.66q0-.88.76-.88a.72.72,0,0,1,.57.21A1,1,0,0,1,503.78,120.87Zm-.3,0a1,1,0,0,0-.1-.51.39.39,0,0,0-.35-.16.4.4,0,0,0-.36.16.92.92,0,0,0-.11.51.94.94,0,0,0,.11.51.38.38,0,0,0,.34.17.41.41,0,0,0,.36-.16A.94.94,0,0,0,503.48,120.87Z"/><path class="cls-9" d="M505.15,121.72h-.24l-.51-1.5q0,.25,0,.36v1.14h-.27V120h.44l.35,1a2,2,0,0,1,.11.45,2.15,2.15,0,0,1,.11-.45l.35-1h.42v1.7h-.27v-1.5Z"/><path class="cls-9" d="M507.65,120v1.7h-.28v-1.5h-.73v1.5h-.28V120Z"/><path class="cls-9" d="M508.53,121.75a.51.51,0,0,1-.39-.14.52.52,0,0,1-.13-.37.49.49,0,0,1,.17-.41.92.92,0,0,1,.56-.15h.38v-.09a.41.41,0,0,0-.09-.3.37.37,0,0,0-.28-.09.47.47,0,0,0-.28.06.29.29,0,0,0-.1.21l-.3,0q.07-.46.68-.46a.7.7,0,0,1,.48.15.55.55,0,0,1,.16.43v.73a.42.42,0,0,0,0,.19.13.13,0,0,0,.13.06h.09v.18l-.22,0a.29.29,0,0,1-.23-.08.43.43,0,0,1-.08-.26h0a.69.69,0,0,1-.25.28A.7.7,0,0,1,508.53,121.75Zm.06-.21a.54.54,0,0,0,.28-.07.51.51,0,0,0,.19-.19.51.51,0,0,0,.07-.25v-.14h-.31a1,1,0,0,0-.3,0,.32.32,0,0,0-.16.12.35.35,0,0,0-.06.21.29.29,0,0,0,.07.21A.29.29,0,0,0,508.59,121.54Z"/><path class="cls-9" d="M510.17,120v.72h.77V120h.28v1.7h-.28v-.78h-.77v.78h-.28V120Z"/><path class="cls-9" d="M511.66,119.66v-.27h.28v.27Zm0,2.06V120h.28v1.7Z"/><path class="cls-9" d="M513,121l-.5.72h-.32l.54-.74a.45.45,0,0,1-.39-.49.4.4,0,0,1,.17-.35.87.87,0,0,1,.5-.12h.68v1.7h-.28V121Zm.4-.78H513a.49.49,0,0,0-.3.07.26.26,0,0,0-.09.22.28.28,0,0,0,.08.22.42.42,0,0,0,.28.07h.4Z"/><path class="cls-9" d="M77.94,100.93l-2.55-4.47a.14.14,0,0,0-.13-.07H73.54a.14.14,0,0,0-.12.22L77,102.55a.15.15,0,0,1,0,.14,6.3,6.3,0,0,1-.53,1,1.32,1.32,0,0,1-.42.38,1.12,1.12,0,0,1-.54.12,2.39,2.39,0,0,1-.92-.22.15.15,0,0,0-.2.09l-.46,1.38a.15.15,0,0,0,.07.18,3.15,3.15,0,0,0,.64.22,3.88,3.88,0,0,0,.94.12,2.91,2.91,0,0,0,1.15-.2,2.37,2.37,0,0,0,.86-.65,6.59,6.59,0,0,0,.85-1.41l3.41-7.09a.14.14,0,0,0-.13-.21H80a.14.14,0,0,0-.13.09Z"/><path class="cls-9" d="M88.8,99.1l1.63-2.48a.14.14,0,0,0-.12-.22H88.65a.14.14,0,0,0-.12.07l-1.33,2.1a9.27,9.27,0,0,1-1,1.43,1.1,1.1,0,0,1-.75.41V96.53a.14.14,0,0,0-.14-.14H83.58a.14.14,0,0,0-.14.14v9.13a.14.14,0,0,0,.14.14h1.68a.14.14,0,0,0,.14-.14v-3.9a1.71,1.71,0,0,0,.45-.07,1.49,1.49,0,0,0,.39-.16l2.46,4.21a.14.14,0,0,0,.12.07h1.8a.14.14,0,0,0,.12-.22l-3.11-5A7.53,7.53,0,0,0,88.8,99.1Z"/><path class="cls-9" d="M99.35,97.17a3.9,3.9,0,0,0-2.6-.78H92.66a.14.14,0,0,0-.14.14v9.13a.14.14,0,0,0,.14.14h1.68a.14.14,0,0,0,.14-.14v-3.17h2.34a4,4,0,0,0,1.84-.39A2.8,2.8,0,0,0,99.85,101a3.18,3.18,0,0,0,.41-1.62A2.74,2.74,0,0,0,99.35,97.17Zm-1.51,3.4a1.79,1.79,0,0,1-1.26.4H94.49V97.92h2q1.75,0,1.75,1.48A1.5,1.5,0,0,1,97.84,100.57Z"/><path class="cls-9" d="M109.63,100.87a3.6,3.6,0,0,0-2.42-.73H104V97.91h5a.14.14,0,0,0,.14-.14V96.53a.14.14,0,0,0-.14-.14h-6.8a.14.14,0,0,0-.14.14v9.13a.14.14,0,0,0,.14.14H107a4.47,4.47,0,0,0,1.87-.36,2.7,2.7,0,0,0,1.2-1,2.77,2.77,0,0,0,.41-1.51A2.57,2.57,0,0,0,109.63,100.87Zm-3,3.4H104v-2.61h2.62A2.35,2.35,0,0,1,108,102a1.12,1.12,0,0,1,.46,1Q108.49,104.27,106.67,104.27Z"/><path class="cls-9" d="M116,100.93l-2.55-4.47a.14.14,0,0,0-.13-.07h-1.71a.14.14,0,0,0-.12.22l3.55,5.95a.15.15,0,0,1,0,.14,6.3,6.3,0,0,1-.53,1,1.32,1.32,0,0,1-.42.38,1.12,1.12,0,0,1-.54.12,2.39,2.39,0,0,1-.92-.22.15.15,0,0,0-.2.09l-.46,1.38a.15.15,0,0,0,.07.18,3.15,3.15,0,0,0,.64.22,3.88,3.88,0,0,0,.94.12,2.91,2.91,0,0,0,1.15-.2,2.37,2.37,0,0,0,.86-.65,6.59,6.59,0,0,0,.85-1.41l3.41-7.09a.14.14,0,0,0-.13-.21h-1.68a.14.14,0,0,0-.13.09Z"/><path class="cls-9" d="M128.34,97.17a3.9,3.9,0,0,0-2.6-.78h-4.09a.14.14,0,0,0-.14.14v9.13a.14.14,0,0,0,.14.14h1.68a.14.14,0,0,0,.14-.14v-3.17h2.34a4,4,0,0,0,1.84-.39,2.8,2.8,0,0,0,1.19-1.11,3.18,3.18,0,0,0,.41-1.62A2.74,2.74,0,0,0,128.34,97.17Zm-1.51,3.4a1.79,1.79,0,0,1-1.26.4h-2.09V97.92h2q1.75,0,1.75,1.48A1.5,1.5,0,0,1,126.83,100.57Z"/><path class="cls-9" d="M135.27,104.39a2.52,2.52,0,0,1-2.06-.86,3.79,3.79,0,0,1-.71-2.48,3.7,3.7,0,0,1,.69-2.43,2.49,2.49,0,0,1,2-.83,2.74,2.74,0,0,1,1.52.42,2,2,0,0,1,.82,1,.15.15,0,0,0,.17.09l1.46-.4a.14.14,0,0,0,.1-.19,3.49,3.49,0,0,0-1.41-1.81,5,5,0,0,0-2.7-.67,4.59,4.59,0,0,0-3.47,1.24,5.87,5.87,0,0,0,0,7.16,4.65,4.65,0,0,0,3.51,1.29,4.78,4.78,0,0,0,2.57-.67,4.06,4.06,0,0,0,1.57-1.89.14.14,0,0,0-.08-.19l-1.45-.55a.14.14,0,0,0-.18.08A2.47,2.47,0,0,1,135.27,104.39Z"/><path class="cls-9" d="M143.31,101.8h4.88a.14.14,0,0,0,.14-.14v-1.24a.14.14,0,0,0-.14-.14h-4.88V97.91h5.29a.14.14,0,0,0,.14-.14V96.53a.14.14,0,0,0-.14-.14h-7.12a.14.14,0,0,0-.14.14v9.13a.14.14,0,0,0,.14.14h7.39a.14.14,0,0,0,.14-.14v-1.24a.14.14,0,0,0-.14-.14h-5.57Z"/><path class="cls-9" d="M158,97.17a3.9,3.9,0,0,0-2.6-.78h-4.09a.14.14,0,0,0-.14.14v9.13a.14.14,0,0,0,.14.14H153a.14.14,0,0,0,.14-.14v-3.17h2.34a4,4,0,0,0,1.84-.39,2.8,2.8,0,0,0,1.19-1.11,3.18,3.18,0,0,0,.41-1.62A2.74,2.74,0,0,0,158,97.17Zm-1.51,3.4a1.79,1.79,0,0,1-1.26.4h-2.09V97.92h2q1.75,0,1.75,1.48A1.5,1.5,0,0,1,156.52,100.57Z"/><path class="cls-9" d="M166.63,100.85a2.28,2.28,0,0,0,1.35-.75,2.09,2.09,0,0,0,.44-1.35,2,2,0,0,0-.89-1.77,4.68,4.68,0,0,0-2.61-.6h-4.17a.14.14,0,0,0-.14.14v9.13a.14.14,0,0,0,.14.14h4.57a4.47,4.47,0,0,0,2.67-.7,2.31,2.31,0,0,0,1-2,2.07,2.07,0,0,0-.6-1.55A2.9,2.9,0,0,0,166.63,100.85Zm-4-3h2.25a2.19,2.19,0,0,1,1.2.27,1,1,0,0,1,.4.9,1,1,0,0,1-.38.87,2,2,0,0,1-1.21.29h-2.26Zm4,6.15a2.25,2.25,0,0,1-1.39.34h-2.57v-2.7h2.5q1.9,0,1.9,1.32A1.23,1.23,0,0,1,166.55,104Z"/><rect class="cls-9" x="171.23" y="96.39" width="1.97" height="9.42" rx="0.14" ry="0.14"/><path class="cls-9" d="M182.77,102.65a.14.14,0,0,0-.18.08,2.47,2.47,0,0,1-2.43,1.66,2.52,2.52,0,0,1-2.06-.86,3.79,3.79,0,0,1-.71-2.48,3.7,3.7,0,0,1,.69-2.43,2.49,2.49,0,0,1,2-.83,2.74,2.74,0,0,1,1.52.42,2,2,0,0,1,.82,1,.15.15,0,0,0,.17.09l1.46-.4a.14.14,0,0,0,.1-.19,3.49,3.49,0,0,0-1.41-1.81,5,5,0,0,0-2.7-.67,4.59,4.59,0,0,0-3.47,1.24,5.87,5.87,0,0,0,0,7.16,4.65,4.65,0,0,0,3.51,1.29,4.78,4.78,0,0,0,2.57-.67,4.06,4.06,0,0,0,1.57-1.89.14.14,0,0,0-.08-.19Z"/><path class="cls-9" d="M65.77,118.41v-8a2.81,2.81,0,0,0-.78-1.95h0l-.06-.06h0l-1.17-1.17h0l-2.51-2.51L59.92,106l3.68,3.68a1,1,0,0,1,.28.67v8a1,1,0,0,1-.94.95h-8a1,1,0,0,1-.67-.28l-3.18-3.18h0l-3.85-3.85,1.34-1.34h0l2,2h0l2.67,2.67a.94.94,0,0,0,1.34-1.34l-2.67-2.67h0l-2-2,1.34-1.34,4.68,4.68a.94.94,0,1,0,1.34-1.34l-4.68-4.68.66-.66-1.34-1.34-4.67,4.67h0l-2.67,2.67,3.34,3.34h0l5,5a2.82,2.82,0,0,0,2,.83h8A2.84,2.84,0,0,0,65.77,118.41Z"/><path class="cls-9" d="M33.87,98.7l-.35-.35a.94.94,0,0,1-.28-.67v-8a.95.95,0,0,1,.95-.94h8a.94.94,0,0,1,.67.28l5.52,5.52h0L49.9,96l-1.34,1.34-2-2h0l-2.67-2.67A.94.94,0,1,0,42.55,94l2.67,2.67h0l2,2L45.89,100l-4.68-4.68a.94.94,0,1,0-1.34,1.34l4.68,4.68-.68.68,1.34,1.34L52.57,96l-.67-.67h0L47.57,91l-3.36-3.36a2.82,2.82,0,0,0-2-.83h-8a2.83,2.83,0,0,0-2.84,2.83v8a2.82,2.82,0,0,0,.83,2l2,2h0l1.73,1.73L37.2,102,33.87,98.7Z"/><path class="cls-9" d="M47.88,116.75l-1.34-1.34L44,118h0l-1.08,1.08a.94.94,0,0,1-.67.28h-8a.94.94,0,0,1-.94-.94h0v-8a.94.94,0,0,1,.28-.67l5-5h0l2-2,.78.78h0l.55.55-2,2h0l-2.67,2.67a.94.94,0,1,0,1.34,1.34l2.67-2.67h0l2-2,1.34,1.34-4.68,4.68a.94.94,0,1,0,1.34,1.34l4.68-4.68.67.67,1.34-1.34-5.22-5.22L40.54,100l-2.23,2.23-6.13,6.13a2.82,2.82,0,0,0-.83,2v8h0a2.83,2.83,0,0,0,2.83,2.83h8a2.82,2.82,0,0,0,2-.83L46.63,118h0Z"/><path class="cls-9" d="M53.78,89.47h0l.47-.47a.94.94,0,0,1,.67-.28h8a1,1,0,0,1,.94.94v8h0a.94.94,0,0,1-.28.67l-4.28,4.28h0l-2.74,2.74L55.24,104l2-2h0l2.67-2.67A.94.94,0,0,0,58.58,98l-2.67,2.67h0l-2,2-1.34-1.34,4.68-4.68a.94.94,0,1,0-1.34-1.34L51.23,100l-.67-.67-1.34,1.34L50.56,102h0l4.68,4.68h0l1.34,1.34L63,101.59l1.9-1.9a2.82,2.82,0,0,0,.83-2h0v-8a2.84,2.84,0,0,0-2.83-2.83h-8a2.82,2.82,0,0,0-2,.83l-.47.47h0l-3.23,3.23,1.34,1.34Z"/><path class="cls-9" d="M58.25,109.72l.33.33a.94.94,0,1,0,1.34-1.34l-.33-.33h0l-1-1-1.34,1.34,1,1Z"/><path class="cls-9" d="M42.55,114.06a.94.94,0,1,0,1.34,1.34l.33-.33h0l1-1-1.34-1.34-1,1h0Z"/><path class="cls-9" d="M54.57,94a.94.94,0,1,0-1.34-1.34l-.44.44h0l-.89.89,1.34,1.34.91-.91h0Z"/><path class="cls-9" d="M38.54,98a.94.94,0,1,0-1.34,1.34l.56.56h0l.77.77,1.34-1.34-.78-.78h0Z"/><path class="cls-9" d="M76.44,109.93a1.57,1.57,0,0,1,1.3.52,2.45,2.45,0,0,1,.42,1.56,2.18,2.18,0,0,1-.5,1.57,1.91,1.91,0,0,1-1.44.51,1.66,1.66,0,0,1-1.44-.64,3.37,3.37,0,0,1-.46-2,6.79,6.79,0,0,1,.09-1.18,3,3,0,0,1,.29-.88,1.93,1.93,0,0,1,.5-.62,2.42,2.42,0,0,1,.77-.4,14.64,14.64,0,0,1,2-.36v.64a11.24,11.24,0,0,0-2.15.41,1.22,1.22,0,0,0-.69.62A3.28,3.28,0,0,0,74.9,111a1.51,1.51,0,0,1,.57-.77A1.66,1.66,0,0,1,76.44,109.93Zm1,2.08a2.11,2.11,0,0,0-.26-1.18,1,1,0,0,0-.85-.38,1.09,1.09,0,0,0-.93.39,1.92,1.92,0,0,0-.3,1.17,2,2,0,0,0,.28,1.16,1,1,0,0,0,.87.39,1.07,1.07,0,0,0,.92-.37A2,2,0,0,0,77.41,112Z"/><path class="cls-9" d="M79.08,115.7a2.34,2.34,0,0,1-.49,0v-.54l.33,0q.67,0,1.06-1L80,114l-1.7-4.27h.76l.91,2.37,0,.13.18.52q.15.44.16.49l.28-.78.94-2.73h.75L80.72,114a5.22,5.22,0,0,1-.5,1,1.64,1.64,0,0,1-.51.5A1.22,1.22,0,0,1,79.08,115.7Z"/><path class="cls-9" d="M86.48,111.84q0,2.25-1.58,2.25a1.32,1.32,0,0,1-1.33-.75h0a6,6,0,0,1,0,.67v1.68h-.71v-5.1q0-.66,0-.88h.69s0,0,0,.11,0,.16,0,.3,0,.23,0,.28h0a1.3,1.3,0,0,1,.5-.58,1.62,1.62,0,0,1,.83-.18,1.38,1.38,0,0,1,1.19.53A2.83,2.83,0,0,1,86.48,111.84Zm-.75,0a2.52,2.52,0,0,0-.24-1.28.84.84,0,0,0-.77-.39,1,1,0,0,0-1,.74,3.22,3.22,0,0,0-.13,1,2.27,2.27,0,0,0,.27,1.25,1,1,0,0,0,.88.4.85.85,0,0,0,.78-.39A2.6,2.6,0,0,0,85.73,111.86Z"/><path class="cls-9" d="M91,111.86a2.45,2.45,0,0,1-.5,1.68,1.84,1.84,0,0,1-1.44.55,1.75,1.75,0,0,1-1.42-.57,2.52,2.52,0,0,1-.48-1.66q0-2.22,1.93-2.22a1.81,1.81,0,0,1,1.45.54A2.54,2.54,0,0,1,91,111.86Zm-.75,0a2.43,2.43,0,0,0-.26-1.29,1,1,0,0,0-.89-.4,1,1,0,0,0-.91.41,2.32,2.32,0,0,0-.28,1.28,2.38,2.38,0,0,0,.28,1.28,1,1,0,0,0,.87.43,1,1,0,0,0,.92-.41A2.37,2.37,0,0,0,90.25,111.86Z"/><path class="cls-9" d="M93.58,109.71a2.08,2.08,0,0,1,1.19.28.91.91,0,0,1,.4.8.87.87,0,0,1-.23.62,1.16,1.16,0,0,1-.66.33v0a1.29,1.29,0,0,1,.77.33.93.93,0,0,1,.26.68,1.08,1.08,0,0,1-.43.91,2,2,0,0,1-1.2.33H91.9v-4.29Zm-1,.54v1.27h.86a1.37,1.37,0,0,0,.72-.14.67.67,0,0,0,0-1,1.17,1.17,0,0,0-.68-.15Zm0,3.22h.94a1.31,1.31,0,0,0,.77-.17.63.63,0,0,0,.22-.54.64.64,0,0,0-.24-.57,1.46,1.46,0,0,0-.8-.16h-.89Z"/><path class="cls-9" d="M97.21,114.09a1.28,1.28,0,0,1-1-.34,1.3,1.3,0,0,1-.33-.94,1.24,1.24,0,0,1,.44-1,2.33,2.33,0,0,1,1.42-.38l1,0v-.23a1,1,0,0,0-.22-.75.94.94,0,0,0-.7-.23,1.18,1.18,0,0,0-.7.16.72.72,0,0,0-.26.52l-.75-.07q.18-1.16,1.72-1.16A1.76,1.76,0,0,1,99,110a1.38,1.38,0,0,1,.41,1.07v1.85a1.07,1.07,0,0,0,.08.48.32.32,0,0,0,.32.16l.23,0V114a2.4,2.4,0,0,1-.55.06.73.73,0,0,1-.58-.21,1.07,1.07,0,0,1-.2-.65h0a1.73,1.73,0,0,1-.64.7A1.78,1.78,0,0,1,97.21,114.09Zm.16-.54a1.36,1.36,0,0,0,.7-.18,1.3,1.3,0,0,0,.48-.49,1.28,1.28,0,0,0,.18-.64v-.35l-.78,0a2.45,2.45,0,0,0-.76.1.81.81,0,0,0-.4.29.89.89,0,0,0-.14.52.73.73,0,0,0,.19.54A.72.72,0,0,0,97.37,113.55Z"/><path class="cls-9" d="M102.13,109.71h.71v1.88a.68.68,0,0,0,.21,0,.54.54,0,0,0,.2-.13,2.21,2.21,0,0,0,.23-.28q.13-.18.91-1.43h.75l-.86,1.29a4,4,0,0,1-.51.65l1.4,2.35h-.79l-1.1-2-.2.06-.23,0V114h-.71Z"/><path class="cls-9" d="M109.41,111.86a2.45,2.45,0,0,1-.5,1.68,1.84,1.84,0,0,1-1.44.55,1.75,1.75,0,0,1-1.42-.57,2.52,2.52,0,0,1-.48-1.66q0-2.22,1.93-2.22a1.81,1.81,0,0,1,1.45.54A2.54,2.54,0,0,1,109.41,111.86Zm-.75,0a2.43,2.43,0,0,0-.26-1.29,1,1,0,0,0-.89-.4,1,1,0,0,0-.91.41,2.32,2.32,0,0,0-.28,1.28,2.38,2.38,0,0,0,.28,1.28,1,1,0,0,0,.87.43,1,1,0,0,0,.92-.41A2.37,2.37,0,0,0,108.66,111.86Z"/><path class="cls-9" d="M112.87,114h-.61L111,110.23q0,.62,0,.9V114h-.69v-4.29h1.11l.87,2.62a4.91,4.91,0,0,1,.27,1.14,5.42,5.42,0,0,1,.27-1.14l.87-2.62h1.07V114h-.69v-3.33l0-.46Z"/><path class="cls-9" d="M119.18,109.71V114h-.71v-3.77h-1.85V114h-.71v-4.29Z"/><path class="cls-9" d="M121.38,114.09a1.28,1.28,0,0,1-1-.34,1.3,1.3,0,0,1-.33-.94,1.24,1.24,0,0,1,.44-1,2.33,2.33,0,0,1,1.42-.38l1,0v-.23a1,1,0,0,0-.22-.75.94.94,0,0,0-.7-.23,1.18,1.18,0,0,0-.7.16.72.72,0,0,0-.26.52l-.75-.07q.18-1.16,1.72-1.16a1.76,1.76,0,0,1,1.22.37,1.38,1.38,0,0,1,.41,1.07v1.85a1.07,1.07,0,0,0,.08.48.32.32,0,0,0,.32.16l.23,0V114a2.4,2.4,0,0,1-.55.06.73.73,0,0,1-.58-.21,1.07,1.07,0,0,1-.2-.65h0a1.73,1.73,0,0,1-.64.7A1.78,1.78,0,0,1,121.38,114.09Zm.16-.54a1.36,1.36,0,0,0,.7-.18,1.3,1.3,0,0,0,.48-.49,1.28,1.28,0,0,0,.18-.64v-.35l-.78,0a2.45,2.45,0,0,0-.76.1.81.81,0,0,0-.4.29.89.89,0,0,0-.14.52.73.73,0,0,0,.19.54A.72.72,0,0,0,121.55,113.55Z"/><path class="cls-9" d="M125.54,109.71v1.82h1.93v-1.82h.71V114h-.71v-2h-1.93v2h-.71v-4.29Z"/><path class="cls-9" d="M129.29,108.8v-.68H130v.68Zm0,5.21v-4.29H130V114Z"/><path class="cls-9" d="M132.68,112.19,131.43,114h-.81l1.37-1.87a1.13,1.13,0,0,1-1-1.24,1,1,0,0,1,.43-.89,2.19,2.19,0,0,1,1.25-.3h1.71V114h-.71v-1.82Zm1-2h-.93a1.24,1.24,0,0,0-.75.18.65.65,0,0,0-.24.55.7.7,0,0,0,.21.56,1.07,1.07,0,0,0,.7.18h1Z"/><polygon class="cls-10" points="405.37 136.51 405.37 118.32 387.17 136.51 405.37 136.51"/><path class="cls-10" d="M405.37,84.44V64l-6.7-6.7L373.26,82.67h0l-33.88,33.88A12,12,0,1,1,322.45,99.6l33.88-33.88h0l25.41-25.41-7-7h0l-9.91-9.91L339.39,48.78h0l-63.6,63.59a11.91,11.91,0,0,0-3.51,8.47v15.67h81.85a11.93,11.93,0,0,1,2.2-3Z"/><polygon class="cls-10" points="405.37 30.07 405.37 5.13 380.43 5.13 391.76 16.46 405.37 30.07"/><polygon class="cls-11" points="305.54 35.41 275.34 5.22 282.43 5.23 305.54 28.34 318.94 14.94 309.25 5.25 316.35 5.27 326.01 14.94 305.54 35.41"/><path class="cls-11" d="M250.82,136.51h-5V120.84a38.18,38.18,0,0,1,11.26-27.16L345.55,5.21h7l-92,92a33.22,33.22,0,0,0-9.79,23.63Z"/><polygon class="cls-11" points="405.29 33.53 377 5.24 384.1 5.27 405.3 26.46 405.29 33.53"/><path class="cls-11" d="M274.77,136.51h-5V120.85A14.39,14.39,0,0,1,274,110.61L364.8,19.84l20.47,20.48-61.06,61.05a9.48,9.48,0,1,0,13.4,13.4l61.06-61.05,6.7,6.7-.08,7-6.62-6.62-57.52,57.52a14.48,14.48,0,1,1-20.47-20.47L378.2,40.32,364.8,26.91l-87.24,87.23a9.42,9.42,0,0,0-2.78,6.7Z"/><path class="cls-11" d="M357.09,136.44h-6a23.92,23.92,0,0,1,3.43-4.72L405.23,81l.06,7-47.21,47.21C357.39,136,357.54,135.55,357.09,136.44Z"/><polygon class="cls-11" points="390.78 136.44 383.71 136.44 405.3 114.86 405.3 121.93 390.78 136.44"/></g></g></svg>