<svg xmlns="http://www.w3.org/2000/svg" viewBox="0 -45 548.75 215"><defs><style>.cls-1{fill:#fff;}.cls-1,.cls-2,.cls-3,.cls-4,.cls-5,.cls-6,.cls-7{stroke:#262424;stroke-miterlimit:10;stroke-width:0.21px;}.cls-2{fill:#434244;}.cls-3{fill:#939497;}.cls-4{fill:#d0d1d3;}.cls-5{fill:#e6e7e8;}.cls-6{fill:#bbbdbf;}.cls-7{fill:none;}.cls-8{fill:#a81b20;}</style></defs><title>ubs_car_1</title><g id="Слой_2" data-name="Слой 2"><g id="Layer_1" data-name="Layer 1"><path class="cls-1" d="M528.53,84.83c-9.41-13-57.64-24.17-106-32.07L406.62,51c-24.87-16-49.39-28.59-72.87-37.54C314.81,6.15,270.53.11,239.51.11c-20.69,0-45.56.81-66.82,3.6a222.49,222.49,0,0,0-32.19,7.09c-21.38,6.28-49.85,17-76.93,28.82C49.85,40.9,36.83,41.48,23.7,41.71c-5.58.12-7.55.81-7.55,3.84s.46,5.58-.23,7.9c-2.9,8.83-5,16.27-5.93,26-.35,3.37-3.25,5.58-5.69,7.32C2.55,88,1.85,90.64,1.5,93.89A1.79,1.79,0,0,0,.11,95.75c0,1.39.58,1.86,1.74,2.44.7,4.53,2.32,8.48,3.37,12.67.58,2.67-2.44,4.3.35,8.48a27.73,27.73,0,0,0,18.25,12.09l57.41,9.65c2.79.35,2.91-.35,2.79-1.63-.7-15.69,3.14-27.54,10.92-36.14,8.95-9.65,19.76-14.18,32.19-14.18,11.27,0,25,6.16,32.77,16.5,6.62,9.06,10.34,21.5,10.92,36.61,0,1.16.23,1.74,1.63,1.51a31.17,31.17,0,0,1,4.53-.23l212.09,1.86c2.09,0,3.14-.46,3.14-1.63.23-17.2,3.49-31.26,11.74-40.21,8.83-9.65,19.76-14.29,32-14.29,12.78,0,22.78,5.23,30.8,13.71,7.15,7.5,11.21,18.07,11.45,31.55-.06,2.56-.29,5.87-.29,6.57s.81,1,1.86,1c24.4-.35,45.09-2.61,57.7-6.22,1.63-.35,5.75-1.86,5.93-3.25v.06c0-.17.06-.35.06-.46l.81-13.95c0-1.16.93-2,1-3.6V113c0-8.13-.93-10.58-4.42-15.57.58-.46.7-1.39-.35-2.67L534,86.22C532.83,84.71,531.08,84.25,528.53,84.83Z"/><path class="cls-2" d="M469,105.69c5.64,7.21,8.83,16.85,9.06,28.76,0,2.56-.23,5.93-.23,6.62s.46.87,1.16,1l-8.54,1.86a36.18,36.18,0,0,0,2.09-12.09,36.67,36.67,0,0,0-73.33,0,36.28,36.28,0,0,0,2.79,14l-9.82-2.56c.23-17,3.54-30.85,11.74-39.69,8.83-9.65,19.76-14.29,32-14.29,12.78,0,22.78,5.23,30.8,13.71A33.26,33.26,0,0,1,469,105.69Z"/><path class="cls-2" d="M126.08,95.17a36.78,36.78,0,0,0-36.61,36.72A36,36,0,0,0,91,142.53L84,139.27c-.64-15.69,3.2-27.48,11-36a42.1,42.1,0,0,1,32.19-14.06c11.27,0,25,6,32.77,16.5,6.62,8.95,10.34,21.5,10.92,36.61a3.07,3.07,0,0,0,.06.76L160,145.9a36.58,36.58,0,0,0-33.88-50.73Z"/><path class="cls-2" d="M503.54,117.71l2.73,6c1.63,3.49,4,5.81,12.9,5.93l11.8.17.93-11.62Z"/><path class="cls-3" d="M435.91,95.23a36.64,36.64,0,1,0,36.67,36.67A36.69,36.69,0,0,0,435.91,95.23Z"/><path class="cls-3" d="M126.14,95.23a36.64,36.64,0,1,0,36.67,36.67A36.69,36.69,0,0,0,126.14,95.23Z"/><path class="cls-3" d="M478.09,133.69a3.57,3.57,0,0,0,.06.76c-.12,2.56-.35,5.93-.35,6.62s.81,1,1.86,1c24.4-.35,45.09-2.67,57.76-6.28,1.57-.35,5.58-1.86,5.87-3.25Z"/><path class="cls-3" d="M543.34,132.59v0Z"/><path class="cls-3" d="M478.09,133.69a3.57,3.57,0,0,0,.06.76c-.12,2.56-.35,5.93-.35,6.62s.81,1,1.86,1c24.4-.35,45.09-2.67,57.76-6.28,1.57-.35,5.58-1.86,5.87-3.25Z"/><path class="cls-3" d="M543.34,132.59v0Z"/><path class="cls-3" d="M4.87,115.1c-.46,1.57-1.16,1.45.7,4.24a27.73,27.73,0,0,0,18.25,12.09l57.41,9.65c2.79.35,2.91-.35,2.79-1.63a60,60,0,0,1,1.22-16.27Z"/><path class="cls-3" d="M406.74,51h-.17c-24.87-16-49.39-28.59-72.87-37.54-.12-.06-.17-.06-.23-.12L318.3,14.92c22.89,8.37,45,20.63,68.39,34.4,2.85,1.69,10.23,2.21,19.87,1.92Z"/><path class="cls-3" d="M140,10.92C118.7,17.19,90.41,27.82,63.5,39.62a4.7,4.7,0,0,0-.93.06,29.93,29.93,0,0,0,10.63,2.61c4.07,0,5.93-.76,14.53-4.53,20.8-9.06,42-18.3,65.54-24.64Z"/><path class="cls-3" d="M168.21,50.08c.93,0,1.86.06,2.85.12L169,16.84c-.93.23-1.86.41-2.79.64Z"/><path class="cls-3" d="M169.08,127.65a99.7,99.7,0,0,1,1.69,14.53c0,1.16.23,1.74,1.63,1.51a31.17,31.17,0,0,1,4.53-.23L389,145.32c2.09,0,3.14-.46,3.14-1.63a106.7,106.7,0,0,1,.58-10.87Z"/><path class="cls-3" d="M246.94.17A413.89,413.89,0,0,1,297.9,5c-1.34,2.5-3.6,1.8-4.53,1.69-14.53-1.86-29.17-4-44.16-4.13A2.59,2.59,0,0,1,246.94.34Z"/><path class="cls-3" d="M233.58,9.17c-35.62-.06-66.65,4.18-90.3,13.65-6.22,2.5-12,6.86-8.83,13.89L140.84,51c78.39,2.56,159.39,6.8,241.32,11.74C380.53,55,373.38,48.45,362.69,42,347.82,33,333.06,24.74,317,19.17,297.9,12.6,269,9.23,233.58,9.17Z"/><path class="cls-3" d="M245.26,53.45l21.09,1-10.4-43.17c-4.76-.23-9.47-.41-14.24-.46Z"/><path class="cls-3" d="M360.19,59.55l19.52,1.22c-3.43-8.54-12.43-14-20.4-18.77Z"/><path class="cls-4" d="M335.9,14.29a395.63,395.63,0,0,1,69.38,35.85,74.45,74.45,0,0,1-15.69-.93,22.88,22.88,0,0,1-4.53-2.15c-12.61-7.5-25.51-14.7-38.58-21.21-7.5-3.66-15.4-7.32-23.18-10.28Z"/><path class="cls-4" d="M64.2,39.21c25.57-11.16,52.35-21.27,73.16-27.6l10.58,1.8c-4.71,1.39-9.82,3-14.41,4.59-16.79,5.58-32.83,13.19-49.16,20-2.85,1.16-6,2.73-9.18,3A24,24,0,0,1,64.2,39.21Z"/><path class="cls-4" d="M168.85,17,171,50.25c24.75.93,49.51,2.15,74.2,3.31L241.66,11c-9.24-.12-18.42.06-27.54.35C199.12,12.19,183.72,13.7,168.85,17Z"/><path class="cls-4" d="M168.09,50.14l-2-32.54c-1.1.23-2.21.52-3.31.76-8,2.21-16.85,4.36-23.94,8.77-3.25,2.79-4.24,4.82-2.79,8.95L142,49.27Z"/><path class="cls-4" d="M266.35,54.55,255.89,11.38A298.05,298.05,0,0,1,302.73,17c18.36,3.89,36,12.78,52.06,22.31,1.39.87,2.91,1.74,4.42,2.67l.87,17.61q-38.52-2.18-77.17-4.3C277.39,55.08,271.87,54.84,266.35,54.55Z"/><path class="cls-4" d="M248.11.22a421.09,421.09,0,0,1,48.52,4.59,2.22,2.22,0,0,1-1.8.93c-7.73-1-15.51-2-23.24-2.91C265.19,2.32,258.45,1.5,252,1.5c-1.57-.06-3.25.46-3.89-1.1Z"/><path class="cls-4" d="M435.91,105.28a26.58,26.58,0,1,0,26.61,26.61A26.6,26.6,0,0,0,435.91,105.28Z"/><path class="cls-4" d="M435.91,107.78A24.09,24.09,0,1,0,460,131.89,24.12,24.12,0,0,0,435.91,107.78Z"/><path class="cls-4" d="M435.91,109.17a22.69,22.69,0,1,0,22.72,22.72A22.7,22.7,0,0,0,435.91,109.17Z"/><path class="cls-5" d="M523.59,80.24a19.57,19.57,0,0,1,4.88,4.53c2.56-.58,4.3-.12,5.46,1.39l6.51,8.48c1,1.28.93,2.21.35,2.67a26.11,26.11,0,0,1,2.79,4.71,12.19,12.19,0,0,1-7.84-4.42,115.35,115.35,0,0,0-16.44-15.86Z"/><path class="cls-1" d="M349,54.61c.12-6,1.16-11.74,7-12.43,3-.35,5.69,1.45,8.43,3.2A9.67,9.67,0,0,1,369.32,52c3.78,1.74,3.49,4.3,2.85,5.46s-3.08,2.38-6.86,1.8c-2,.52-4.71.23-7.9.23C352,59.43,349,58.16,349,54.61Z"/><path class="cls-6" d="M37.47,59.84c1.1-2.67-.52-4.71-3.54-4.71a79.85,79.85,0,0,0-12.67.76,3.71,3.71,0,0,0-2.67,2.21,101,101,0,0,0-3.78,12.49q-.61,2.88,1.57,2.61c-.12,1.69-.23,2.61.58,2.67a6.16,6.16,0,0,0,4.59-2.09l10.28.06Z"/><path class="cls-2" d="M430.91,108.53a15.42,15.42,0,0,1,4.94-.76,14.87,14.87,0,0,1,5.06.81c-.41,4.18-3,15.63-5,15.63h-.06C434,124.22,431.43,112.25,430.91,108.53Z"/><path class="cls-2" d="M456.47,120.1a14.63,14.63,0,0,1,2.21,4.47,13.58,13.58,0,0,1,.81,5.06c-4.13.87-15.8,1.92-16.44.06v-.06C442.47,127.88,453.1,121.72,456.47,120.1Z"/><path class="cls-2" d="M453.34,148a14.46,14.46,0,0,1-3.54,3.49,13.71,13.71,0,0,1-4.59,2.32c-2.09-3.66-6.68-14.47-5.11-15.63h.06C441.6,137.06,450.78,145.26,453.34,148Z"/><path class="cls-2" d="M425.85,153.62a13.5,13.5,0,0,1-4.42-2.32,13.28,13.28,0,0,1-3.6-3.6c2.85-3.14,11.68-10.87,13.25-9.7l.06.06C432.65,139.1,427.65,150.31,425.85,153.62Z"/><path class="cls-2" d="M412,129.22a13.75,13.75,0,0,1,.81-4.94,13.43,13.43,0,0,1,2.32-4.53c3.89,1.74,13.95,7.79,13.31,9.59v.12C427.94,131.2,415.74,129.92,412,129.22Z"/><path class="cls-2" d="M440.55,155.25a15.42,15.42,0,0,1-4.94.76,14.87,14.87,0,0,1-5.06-.81c.41-4.18,3-13.31,5-13.31h.06C437.47,141.89,440,151.53,440.55,155.25Z"/><path class="cls-2" d="M415,143.69a14.63,14.63,0,0,1-2.21-4.47,13.58,13.58,0,0,1-.81-5.06c4.13-.87,13.6-1.22,14.18.64l.06.06C426.78,136.66,418.36,142.06,415,143.69Z"/><path class="cls-2" d="M418.12,115.8a14.46,14.46,0,0,1,3.54-3.49,13.71,13.71,0,0,1,4.59-2.32c2.09,3.66,5.35,12.55,3.72,13.71v.06C428.41,124.86,420.68,118.53,418.12,115.8Z"/><path class="cls-2" d="M445.61,110.16a13.5,13.5,0,0,1,4.42,2.32,13.28,13.28,0,0,1,3.6,3.6c-2.85,3.14-10.28,9-11.85,7.79l-.06.06C440.15,122.77,443.81,113.47,445.61,110.16Z"/><path class="cls-2" d="M459.44,134.57a13.75,13.75,0,0,1-.81,4.94A13.43,13.43,0,0,1,456.3,144c-3.89-1.74-11.74-7-11.1-8.89h-.06C445.78,133.29,455.72,133.87,459.44,134.57Z"/><path class="cls-2" d="M435.91,136.83a1.77,1.77,0,1,0,1.8,1.8A1.8,1.8,0,0,0,435.91,136.83Z"/><path class="cls-2" d="M431.2,133.35a1.76,1.76,0,0,0-3.37,1,1.78,1.78,0,0,0,2.21,1.22A1.85,1.85,0,0,0,431.2,133.35Z"/><path class="cls-2" d="M433.06,127.77a1.72,1.72,0,0,0,.35-2.5,1.77,1.77,0,0,0-2.85,2.09A1.83,1.83,0,0,0,433.06,127.77Z"/><path class="cls-2" d="M438.93,127.83a1.73,1.73,0,0,0,2.5-.46,1.81,1.81,0,0,0-.35-2.38,1.78,1.78,0,0,0-2.56.35A1.84,1.84,0,0,0,438.93,127.83Z"/><path class="cls-2" d="M440.67,133.4a1.77,1.77,0,0,0,1.22,2.27,1.82,1.82,0,0,0,2.15-1.1,1.73,1.73,0,0,0-1.1-2.32A1.94,1.94,0,0,0,440.67,133.4Z"/><path class="cls-2" d="M525.68,81.81a21.5,21.5,0,0,1,2.79,2.91c2.56-.58,4.3-.12,5.46,1.39l6.51,8.48c1,1.28.93,2.21.35,2.67a35.74,35.74,0,0,1,2.79,4.76c-.17-.06-.35-.06-.52-.12a11,11,0,0,1-5.23-4.76A178.73,178.73,0,0,0,524.52,83.9C523.18,82.85,524.05,82.62,525.68,81.81Z"/><path class="cls-5" d="M436,128.41a3.43,3.43,0,1,0,3.43,3.43A3.4,3.4,0,0,0,436,128.41Z"/><path class="cls-5" d="M436,129.57a2.27,2.27,0,1,0,2.27,2.27A2.23,2.23,0,0,0,436,129.57Z"/><path class="cls-5" d="M531,95.34c-3.54-4.13-7.73-7.44-11.68-11.56a6.36,6.36,0,0,0-4.47-2c-8.13-.35-16.15-1-23.36-1-1.86,0-3,2.67-2.32,4.24l3.25,8,16.91,1.8c2.5,3.37,9.7,5.75,12.78,5.75,2.32,0,3.37-2,4.13-3.66L530.79,98C532.25,98.37,532.13,96.62,531,95.34Z"/><path class="cls-5" d="M520.68,119.05c-2-.12-3.72,1.92-4,4.65s1.16,5.11,3.14,5.29,3.66-1.92,4-4.65S522.66,119.23,520.68,119.05Z"/><path class="cls-7" d="M510.69,96.1c2-.58,2.73-1.57,2.56-3.37-.76-6.57-4.42-11-9.88-11.39-3.6-.17-4.59,1.8-3.84,4.18a17.71,17.71,0,0,0,6.39,8.72"/><path class="cls-7" d="M510.69,96.1c2-.58,2.73-1.57,2.56-3.37-.76-6.57-4.42-11-9.88-11.39-3.6-.17-4.59,1.8-3.84,4.18a17.71,17.71,0,0,0,6.39,8.72"/><path class="cls-5" d="M369.37,59a11.17,11.17,0,0,1-4,.12c1.39-.46,1.86-2,2.21-3.84,0-.17.17-.23.41-.29L352.7,53.27c-.64-.06-1.69.41-1.69,1v3.89a14.79,14.79,0,0,0,6.33,1.28c3.25,0,5.93.23,7.9-.23a10.39,10.39,0,0,0,4.13-.17Z"/><path class="cls-5" d="M25.91,57.4c-1.63-.58-4.59,2.5-6.57,7s-2.21,8.48-.58,9.06,4.59-2.5,6.57-6.86S27.53,58,25.91,57.4Z"/><path class="cls-5" d="M20.39,68.15l-.29,1.22L20,70.47v.06c2.61-2.09,4.3-7.09,4.71-10.28A19.77,19.77,0,0,0,20.39,68.15Z"/><path class="cls-5" d="M134.33,106.56a26.57,26.57,0,1,0,17.08,33.53A26.61,26.61,0,0,0,134.33,106.56Z"/><path class="cls-4" d="M133.58,108.94A24.07,24.07,0,1,0,149,139.33,24.09,24.09,0,0,0,133.58,108.94Z"/><path class="cls-5" d="M133.17,110.28a22.7,22.7,0,1,0,14.58,28.59A22.7,22.7,0,0,0,133.17,110.28Z"/><path class="cls-6" d="M127.24,128.58a3.42,3.42,0,1,0,2.21,4.3A3.37,3.37,0,0,0,127.24,128.58Z"/><path class="cls-5" d="M126.9,129.68a2.26,2.26,0,1,0,1.45,2.85A2.21,2.21,0,0,0,126.9,129.68Z"/><path class="cls-2" d="M128.58,108.13a14.67,14.67,0,0,1,4.94.81,14,14,0,0,1,4.53,2.32c-1.63,3.84-7.67,13.95-9.53,13.31h-.06C126.66,124,127.94,111.79,128.58,108.13Z"/><path class="cls-2" d="M149.32,127A13.94,13.94,0,0,1,150,132a13.53,13.53,0,0,1-.76,5.06c-4.18-.46-15.63-3.08-15.69-5l.06-.06C133.64,130.09,145.61,127.53,149.32,127Z"/><path class="cls-2" d="M137.7,152.58a13.7,13.7,0,0,1-4.42,2.21,13.88,13.88,0,0,1-5.11.81c-.81-4.13-1.86-15.86,0-16.44h.06C129.92,138.57,136.13,149.15,137.7,152.58Z"/><path class="cls-2" d="M109.87,149.44a12.92,12.92,0,0,1-3.49-3.6,12,12,0,0,1-2.32-4.53c3.66-2.09,14.47-6.74,15.57-5.11l.06.06C120.79,137.7,112.6,146.83,109.87,149.44Z"/><path class="cls-2" d="M104.23,122a14.38,14.38,0,0,1,2.32-4.47,14,14,0,0,1,3.6-3.54c3.14,2.85,10.87,11.68,9.7,13.19l-.06.12C118.76,128.75,107.55,123.76,104.23,122Z"/><path class="cls-2" d="M123.35,155.54a16,16,0,0,1-4.94-.81,14.87,14.87,0,0,1-4.59-2.32c1.69-3.89,7-11.74,8.89-11.16l.06.06C124.51,141.89,124,151.82,123.35,155.54Z"/><path class="cls-2" d="M102.61,136.6a15.17,15.17,0,0,1-.76-4.94,14,14,0,0,1,.81-5.06c4.18.46,13.31,3.08,13.31,5v.12C116,133.58,106.27,136.13,102.61,136.6Z"/><path class="cls-2" d="M114.17,111.09a16.22,16.22,0,0,1,4.47-2.27,13.54,13.54,0,0,1,5.06-.76c.87,4.13,1.22,13.6-.7,14.18v.06C121.14,122.89,115.8,114.46,114.17,111.09Z"/><path class="cls-2" d="M142.06,114.23a16.66,16.66,0,0,1,5.81,8.08c-3.66,2.09-12.55,5.4-13.71,3.78h-.06C133,124.51,139.33,116.79,142.06,114.23Z"/><path class="cls-2" d="M147.7,141.71a14.1,14.1,0,0,1-2.32,4.42,13.28,13.28,0,0,1-3.6,3.6c-3.14-2.85-9-10.34-7.79-11.91h-.06C135.09,136.25,144.39,139.85,147.7,141.71Z"/><path class="cls-2" d="M124.57,136.54a1.91,1.91,0,0,0-2.21,1.22,1.78,1.78,0,0,0,3.37,1.1A1.8,1.8,0,0,0,124.57,136.54Z"/><path class="cls-2" d="M121.2,131.78a1.77,1.77,0,1,0-1.8,1.8A1.8,1.8,0,0,0,121.2,131.78Z"/><path class="cls-2" d="M124.69,127.07a1.76,1.76,0,0,0-1-3.37,1.75,1.75,0,0,0-1.22,2.21A1.91,1.91,0,0,0,124.69,127.07Z"/><path class="cls-2" d="M130.27,128.93a1.72,1.72,0,0,0,2.5.35,1.87,1.87,0,0,0,.41-2.38,1.81,1.81,0,0,0-2.56-.46A1.88,1.88,0,0,0,130.27,128.93Z"/><path class="cls-2" d="M130.21,134.8a1.73,1.73,0,0,0,.46,2.5,1.87,1.87,0,0,0,2.38-.35,1.74,1.74,0,0,0-.35-2.56A1.84,1.84,0,0,0,130.21,134.8Z"/><line class="cls-7" x1="537.01" y1="136.02" x2="477.86" y2="137.3"/><path class="cls-7" d="M413.36,75C285.47,67.16,157.75,62,36.83,61.29"/><path class="cls-7" d="M481.46,133.58c.35-31-23.3-47.71-45-47.82-19.29-.12-45,12.09-47,47.18"/><line class="cls-7" x1="541.66" y1="118.41" x2="503.72" y2="117.66"/><path class="cls-5" d="M528.64,84.65c2.44-.52,4.13-.06,5.29,1.45l6.51,8.48c1,1.28.93,2.21.35,2.67a.2.2,0,0,1,.06.12c-4.3-4.94-7.61-8.89-12.26-12.73Z"/><line class="cls-7" x1="84.59" y1="128.29" x2="6.27" y2="118.59"/><path class="cls-7" d="M172.63,127.53c-3.89-22-18-40.5-45-41.78-21.79-1-40.73,14.47-45.67,37"/><polyline class="cls-7" points="1.44 93.89 88.72 100.22 85.41 104.18 1.85 98.19"/><path class="cls-7" d="M103.59,96.1c-4.13-3.84-12-5.81-22.49-6.62l-48-3.72c-3.49-.29-7.32-.29-6.22-2.32"/><path class="cls-7" d="M31.83,73.79a110.75,110.75,0,0,1-5.81,11c-2,3.31-8.54,5.23-12.67,5.17L2.49,89.77"/><path class="cls-7" d="M36.08,55.48c-1.63-1.92-12.26-6.22-20-10.23,3.6,2.09,6,4.94,4.42,10.87C18.53,63,16.67,70,14.58,76.87,13.36,81,12.25,84,8.07,83.55"/><path class="cls-7" d="M15.85,45.6c13.89-.87,46.14-.76,61.71-3.66"/><path class="cls-7" d="M317.83,14.92C296.91,8.47,268.68,5,233.81,4.7c-32.13-.23-59.27,2.67-80.77,8.43"/><path class="cls-7" d="M501.27,81c-17.08-7.84-67.11-13.19-119.18-18.36,6.16,17,4.24,46.25.23,70.19-.76,4.71-1.57,5.29-6.28,5.17l-179.72-4.13c-7.5-.17-8.77-.87-11.68-5.58-15.28-25-29.69-50.78-43.52-77.69"/><path class="cls-7" d="M260.25,135.38c1.28-27.95.12-55.26-4.24-81.52L248.92,11"/><path class="cls-7" d="M173,108.82l202.85,9.7c2.27.06,2.73,2.5,0,2.38l-201.28-9.7"/><path class="cls-7" d="M158,82.44c-3.25-6.16-16.44-10.75-30.74-11.8-20.69.29-40.62,8-52.06,28.59"/><path class="cls-7" d="M281.92,70.3c3.49.29,8,1,7.9,2.32-.17,2.38-3.72,4.18-14.06,3.66-7.67-.41-13-2.15-13-4s3.6-2.32,8.43-2.44c-1.1.7.17,2.15,1.28,2.15,2.5,0,5.06.17,7.5.29,1.86.06,2.91-.7,2.44-1.45"/><path class="cls-7" d="M172.8,66.12c3.49.29,8,1,7.9,2.32-.17,2.38-3.72,4.18-14.06,3.66-7.67-.41-13-2.15-13-4s3.6-2.32,8.43-2.44c-1.1.7.17,2.15,1.28,2.15,2.5,0,5.06.17,7.5.29,1.86.06,2.91-.7,2.44-1.45"/><line class="cls-7" x1="282.33" y1="70.3" x2="270.94" y2="69.89"/><line class="cls-7" x1="173.21" y1="66.12" x2="161.82" y2="65.71"/><path class="cls-7" d="M282.91,76.28c-.12,2.67-2.32,3.54-6.57,3.43-4.59-.17-6.51-1.63-6.68-4.13"/><path class="cls-7" d="M173.79,72.1c-.12,2.67-2.32,3.54-6.57,3.43-4.59-.17-6.51-1.63-6.68-4.13"/><path class="cls-7" d="M289.71,73.26c-4.36.35-21.44-.12-26.73-1"/><path class="cls-7" d="M180.59,69.08c-4.36.35-21.44-.12-26.73-1"/><line class="cls-7" x1="269.78" y1="75.59" x2="269.55" y2="70.01"/><line class="cls-7" x1="160.66" y1="71.4" x2="160.42" y2="65.83"/><line class="cls-7" x1="200.05" y1="133.93" x2="200.05" y2="144.1"/><line class="cls-7" x1="392.33" y1="136.6" x2="169.78" y2="131.25"/><path class="cls-7" d="M128.12,61.93a8.11,8.11,0,0,1-16.21,0A8.2,8.2,0,0,1,120,53.8a8.1,8.1,0,0,1,7.84,6.28A5.09,5.09,0,0,1,128,61"/><path class="cls-7" d="M513.13,93.6h5.35c1.16,0,1.28-1,.87-2a32.09,32.09,0,0,0-6.62-9.7c4.88,4.3,7.67,8.19,11.16,13.07.58.81.93,1.69-.52,1.69h-2.91c-1.92,0-1.74,1.8-3.78,2.38"/><line class="cls-7" x1="526.49" y1="96.8" x2="523.7" y2="96.68"/><path class="cls-7" d="M473.73,113.12l65.89.81c1.34,0,2.27.35,2.21,1.16l-.58,13.54c-.06.76-.23,1.39-1.51,1.39l-20.57-.35c-8.89-.17-11.27-2.44-12.84-5.93l-14-30.8"/><path class="cls-7" d="M515.51,81.75l4.07-.06c-23.18-11.68-75-18.77-93.67-21-12.14-1.45-32.77-4.94-39.16-11.1,3.43,3.14,13.13,7,16.33,15"/><path class="cls-7" d="M491.57,113.18c-7.84-24.52-31.32-37.42-56.13-39.8-30.91-3-45.67,14.12-49.62,31.78"/><line class="cls-7" x1="488.72" y1="83.2" x2="458.28" y2="79.07"/><path class="cls-7" d="M524.17,103.13h-.46a1.48,1.48,0,0,0-1.34,1.34l.58,2.85a1.67,1.67,0,0,0,1.34,1.34h1.92c.58,0,1.51-.58,1.34-1.34l-.58-2.85c-.17-.76-.58-1.34-1.34-1.34h-.7"/><path class="cls-7" d="M518.53,105.69a1.09,1.09,0,0,0-.23.52.77.77,0,0,0,.76.76.76.76,0,1,0,0-1.51.52.52,0,0,0-.29.06"/><line class="cls-7" x1="534.51" y1="118.3" x2="533.52" y2="130.15"/><path class="cls-7" d="M541.25,128.81c.06,1.34.41,2,2.27,2.09"/><path class="cls-7" d="M531.37,95.92c2,1.86,2.32,4.47.7,4.47a9.87,9.87,0,0,1-5.17-1.16c-2.5,2.15-2.79,2.61-5.58,2.5a19.77,19.77,0,0,1-13.13-5.81c-2.67-.58-14.64-.76-15-2.27"/><path class="cls-7" d="M541.77,115.51c.46-6.62-.76-12.84-6.1-18"/><path class="cls-3" d="M369.43,52.05c3.6,1.74,3.25,4.24,2.73,5.4s-3.14,2.27-6.8,1.74c1.45-.46,1.86-2,2.21-3.84.23-.58,2.56-.23,2.73-.93.29-.46-.06-1.22-1-2.38Z"/><line class="cls-7" x1="370.13" y1="53.33" x2="349.33" y2="50.95"/><path class="cls-8" d="M300.41,93.2l-1.51-2.65a.09.09,0,0,0-.07,0h-1a.09.09,0,0,0-.07.13l2.1,3.52a.09.09,0,0,1,0,.08,3.73,3.73,0,0,1-.31.58.78.78,0,0,1-.25.23.66.66,0,0,1-.32.07,1.42,1.42,0,0,1-.55-.13.09.09,0,0,0-.12.05l-.27.82a.09.09,0,0,0,0,.1,1.86,1.86,0,0,0,.38.13,2.29,2.29,0,0,0,.56.07,1.73,1.73,0,0,0,.68-.12,1.4,1.4,0,0,0,.51-.38,3.9,3.9,0,0,0,.5-.83l2-4.19a.09.09,0,0,0-.08-.12h-1a.09.09,0,0,0-.08.05Z"/><path class="cls-8" d="M306.84,92.11l1-1.47a.09.09,0,0,0-.07-.13h-1a.09.09,0,0,0-.07,0l-.79,1.24a5.49,5.49,0,0,1-.61.84.65.65,0,0,1-.44.24V90.6a.09.09,0,0,0-.09-.09h-1a.09.09,0,0,0-.09.09V96a.09.09,0,0,0,.09.09h1a.09.09,0,0,0,.09-.09V93.69a1,1,0,0,0,.27,0,.88.88,0,0,0,.23-.1L306.79,96a.09.09,0,0,0,.07,0h1.07A.09.09,0,0,0,308,96l-1.84-3A4.45,4.45,0,0,0,306.84,92.11Z"/><path class="cls-8" d="M313.09,91a2.31,2.31,0,0,0-1.54-.46h-2.42a.09.09,0,0,0-.09.09V96a.09.09,0,0,0,.09.09h1a.09.09,0,0,0,.09-.09V94.12h1.39a2.38,2.38,0,0,0,1.09-.23,1.65,1.65,0,0,0,.7-.65,1.88,1.88,0,0,0,.25-1A1.62,1.62,0,0,0,313.09,91Zm-.9,2a1.06,1.06,0,0,1-.74.24h-1.24V91.42h1.21q1,0,1,.88A.89.89,0,0,1,312.19,93Z"/><path class="cls-8" d="M319.17,93.16a2.13,2.13,0,0,0-1.43-.43h-1.89V91.41h2.95a.09.09,0,0,0,.09-.09V90.6a.09.09,0,0,0-.09-.09h-4a.09.09,0,0,0-.09.09V96a.09.09,0,0,0,.09.09h2.85a2.65,2.65,0,0,0,1.11-.21,1.6,1.6,0,0,0,.71-.6,1.64,1.64,0,0,0,.24-.89A1.52,1.52,0,0,0,319.17,93.16Zm-1.75,2h-1.57V93.63h1.55a1.39,1.39,0,0,1,.82.2.66.66,0,0,1,.28.57Q318.49,95.18,317.42,95.18Z"/><path class="cls-8" d="M322.94,93.2l-1.51-2.65a.09.09,0,0,0-.07,0h-1a.09.09,0,0,0-.07.13l2.1,3.52a.09.09,0,0,1,0,.08,3.73,3.73,0,0,1-.31.58.78.78,0,0,1-.25.23.66.66,0,0,1-.32.07,1.42,1.42,0,0,1-.55-.13.09.09,0,0,0-.12.05l-.27.82a.09.09,0,0,0,0,.1,1.86,1.86,0,0,0,.38.13,2.29,2.29,0,0,0,.56.07,1.73,1.73,0,0,0,.68-.12,1.4,1.4,0,0,0,.51-.38,3.9,3.9,0,0,0,.5-.83l2-4.19a.09.09,0,0,0-.08-.12h-1a.09.09,0,0,0-.08.05Z"/><path class="cls-8" d="M330.25,91a2.31,2.31,0,0,0-1.54-.46h-2.42a.09.09,0,0,0-.09.09V96a.09.09,0,0,0,.09.09h1a.09.09,0,0,0,.09-.09V94.12h1.39a2.38,2.38,0,0,0,1.09-.23,1.65,1.65,0,0,0,.7-.65,1.88,1.88,0,0,0,.25-1A1.62,1.62,0,0,0,330.25,91Zm-.9,2a1.06,1.06,0,0,1-.74.24h-1.24V91.42h1.21q1,0,1,.88A.89.89,0,0,1,329.35,93Z"/><path class="cls-8" d="M334.35,95.25a1.49,1.49,0,0,1-1.22-.51,2.24,2.24,0,0,1-.42-1.47,2.19,2.19,0,0,1,.41-1.44,1.48,1.48,0,0,1,1.2-.49,1.62,1.62,0,0,1,.9.25,1.2,1.2,0,0,1,.49.59.09.09,0,0,0,.1.05l.86-.24a.09.09,0,0,0,.06-.11,2.06,2.06,0,0,0-.84-1.07,2.93,2.93,0,0,0-1.6-.39,2.72,2.72,0,0,0-2.05.74,3.48,3.48,0,0,0,0,4.24,2.75,2.75,0,0,0,2.08.76,2.83,2.83,0,0,0,1.52-.39,2.4,2.4,0,0,0,.93-1.12.09.09,0,0,0,0-.11l-.86-.32a.09.09,0,0,0-.11,0A1.46,1.46,0,0,1,334.35,95.25Z"/><path class="cls-8" d="M339.11,93.72H342a.09.09,0,0,0,.09-.09V92.9a.09.09,0,0,0-.09-.09h-2.89v-1.4h3.13a.09.09,0,0,0,.09-.09V90.6a.09.09,0,0,0-.09-.09H338a.09.09,0,0,0-.09.09V96a.09.09,0,0,0,.09.09h4.38a.09.09,0,0,0,.09-.09v-.73a.09.09,0,0,0-.09-.09h-3.29Z"/><path class="cls-8" d="M347.82,91a2.31,2.31,0,0,0-1.54-.46h-2.42a.09.09,0,0,0-.09.09V96a.09.09,0,0,0,.09.09h1a.09.09,0,0,0,.09-.09V94.12h1.39a2.38,2.38,0,0,0,1.09-.23,1.65,1.65,0,0,0,.7-.65,1.88,1.88,0,0,0,.25-1A1.62,1.62,0,0,0,347.82,91Zm-.9,2a1.06,1.06,0,0,1-.74.24h-1.24V91.42h1.21q1,0,1,.88A.89.89,0,0,1,346.92,93Z"/><path class="cls-8" d="M352.91,93.15a1.35,1.35,0,0,0,.8-.44,1.24,1.24,0,0,0,.26-.8,1.18,1.18,0,0,0-.52-1,2.77,2.77,0,0,0-1.55-.35h-2.47a.09.09,0,0,0-.09.09V96a.09.09,0,0,0,.09.09h2.7a2.64,2.64,0,0,0,1.58-.42,1.37,1.37,0,0,0,.57-1.18,1.22,1.22,0,0,0-.35-.92A1.72,1.72,0,0,0,352.91,93.15Zm-2.39-1.78h1.33a1.3,1.3,0,0,1,.71.16.59.59,0,0,1,.24.53.61.61,0,0,1-.22.52,1.19,1.19,0,0,1-.72.17h-1.34ZM352.86,95a1.33,1.33,0,0,1-.82.2h-1.52v-1.6H352q1.12,0,1.12.78A.73.73,0,0,1,352.86,95Z"/><rect class="cls-8" x="355.63" y="90.51" width="1.17" height="5.58" rx="0.09" ry="0.09"/><path class="cls-8" d="M362.46,94.22a.09.09,0,0,0-.11,0,1.46,1.46,0,0,1-1.44,1,1.49,1.49,0,0,1-1.22-.51,2.24,2.24,0,0,1-.42-1.47,2.19,2.19,0,0,1,.41-1.44,1.48,1.48,0,0,1,1.2-.49,1.62,1.62,0,0,1,.9.25,1.2,1.2,0,0,1,.49.59.09.09,0,0,0,.1.05l.86-.24a.09.09,0,0,0,.06-.11,2.06,2.06,0,0,0-.84-1.07,2.93,2.93,0,0,0-1.6-.39,2.72,2.72,0,0,0-2.05.74,3.48,3.48,0,0,0,0,4.24,2.75,2.75,0,0,0,2.08.76,2.83,2.83,0,0,0,1.52-.39,2.4,2.4,0,0,0,.93-1.12.09.09,0,0,0,0-.11Z"/><path class="cls-8" d="M293.21,103.54V98.8a1.66,1.66,0,0,0-.46-1.15h0l0,0h0l-.69-.69h0l-1.48-1.48-.79.79,2.18,2.18a.56.56,0,0,1,.16.4v4.74a.56.56,0,0,1-.56.56h-4.75a.56.56,0,0,1-.4-.16l-1.88-1.88h0l-2.28-2.28L283,99h0l1.19,1.19h0l1.58,1.58a.56.56,0,0,0,.79-.79L285,99.39h0l-1.19-1.19.79-.79,2.77,2.77a.56.56,0,1,0,.79-.79l-2.77-2.77.39-.39-.79-.79-2.76,2.76h0l-1.58,1.58,2,2h0l3,3a1.67,1.67,0,0,0,1.19.49h4.75A1.68,1.68,0,0,0,293.21,103.54Z"/><path class="cls-8" d="M274.33,91.88l-.21-.21a.56.56,0,0,1-.16-.4V86.53a.56.56,0,0,1,.56-.56h4.75a.56.56,0,0,1,.39.16l3.27,3.27h0l.89.89-.79.79-1.19-1.19h0l-1.58-1.58a.56.56,0,1,0-.79.79L281,90.69h0l1.19,1.19-.79.79-2.77-2.77a.56.56,0,1,0-.79.79l2.77,2.77-.4.4.79.79,4.36-4.36L285,89.9h0l-2.56-2.56-2-2a1.67,1.67,0,0,0-1.19-.49h-4.75a1.68,1.68,0,0,0-1.68,1.68v4.75a1.67,1.67,0,0,0,.49,1.19l1.16,1.16h0l1,1,.79-.79-2-2Z"/><path class="cls-8" d="M282.62,102.56l-.79-.79-1.53,1.53h0l-.64.64a.56.56,0,0,1-.4.16h-4.75a.56.56,0,0,1-.56-.56h0V98.8a.56.56,0,0,1,.16-.4l3-3h0l1.19-1.19.46.46h0l.33.33-1.19,1.19h0l-1.58,1.58a.56.56,0,1,0,.79.79L278.67,97h0l1.19-1.19.79.79-2.77,2.77a.56.56,0,1,0,.79.79l2.77-2.77.4.4.79-.79-3.09-3.09-1.26-1.26L277,94l-3.63,3.63a1.67,1.67,0,0,0-.49,1.19v4.75h0a1.68,1.68,0,0,0,1.68,1.68h4.75a1.67,1.67,0,0,0,1.19-.49l1.43-1.43h0Z"/><path class="cls-8" d="M286.11,86.41h0l.28-.28a.56.56,0,0,1,.4-.16h4.74a.56.56,0,0,1,.56.56v4.75h0a.56.56,0,0,1-.16.4l-2.53,2.53h0l-1.62,1.62L287,95l1.19-1.19h0l1.58-1.58a.56.56,0,0,0-.79-.79l-1.58,1.58h0l-1.18,1.18-.79-.79,2.77-2.77a.56.56,0,1,0-.79-.79l-2.77,2.77-.39-.39-.79.79.79.79h0L287,96.62h0l.79.79,3.83-3.83,1.12-1.12a1.67,1.67,0,0,0,.49-1.19h0V86.53a1.68,1.68,0,0,0-1.68-1.68h-4.74a1.67,1.67,0,0,0-1.19.49l-.28.28h0l-1.91,1.91.79.79Z"/><path class="cls-8" d="M288.76,98.4l.2.2a.56.56,0,1,0,.79-.79l-.2-.2h0L289,97l-.79.79.58.58Z"/><path class="cls-8" d="M279.46,101a.56.56,0,1,0,.79.79l.2-.2h0L281,101l-.79-.79-.58.58h0Z"/><path class="cls-8" d="M286.58,89.11a.56.56,0,1,0-.79-.79l-.26.26h0l-.53.53.79.79.54-.54h0Z"/><path class="cls-8" d="M277.09,91.48a.56.56,0,1,0-.79.79l.33.33h0l.45.45.79-.79-.46-.46h0Z"/><path class="cls-8" d="M299.53,98.53a.93.93,0,0,1,.77.31,1.45,1.45,0,0,1,.25.92,1.29,1.29,0,0,1-.29.93,1.13,1.13,0,0,1-.85.3,1,1,0,0,1-.85-.38,2,2,0,0,1-.27-1.16,4,4,0,0,1,.05-.7,1.79,1.79,0,0,1,.17-.52,1.14,1.14,0,0,1,.3-.36,1.43,1.43,0,0,1,.46-.23,8.66,8.66,0,0,1,1.17-.21v.38a6.65,6.65,0,0,0-1.27.24.72.72,0,0,0-.41.37,1.94,1.94,0,0,0-.13.75.89.89,0,0,1,.34-.46A1,1,0,0,1,299.53,98.53Zm.57,1.23a1.25,1.25,0,0,0-.16-.7.57.57,0,0,0-.51-.22.65.65,0,0,0-.55.23,1.14,1.14,0,0,0-.18.7,1.18,1.18,0,0,0,.16.68.59.59,0,0,0,.51.23.63.63,0,0,0,.54-.22A1.17,1.17,0,0,0,300.1,99.76Z"/><path class="cls-8" d="M301.09,101.94a1.38,1.38,0,0,1-.29,0v-.32h.2q.39,0,.62-.58l0-.1-1-2.53h.45l.54,1.4,0,.08.11.31.1.29L302,100l.56-1.62H303l-1,2.54a3.09,3.09,0,0,1-.29.6,1,1,0,0,1-.3.3A.72.72,0,0,1,301.09,101.94Z"/><path class="cls-8" d="M305.47,99.66q0,1.33-.94,1.33a.78.78,0,0,1-.79-.44h0a3.55,3.55,0,0,1,0,.4v1h-.42v-3q0-.39,0-.52h.41v.07s0,.1,0,.18,0,.13,0,.16h0a.77.77,0,0,1,.3-.34,1,1,0,0,1,.49-.11.82.82,0,0,1,.7.31A1.68,1.68,0,0,1,305.47,99.66Zm-.44,0a1.49,1.49,0,0,0-.14-.76.5.5,0,0,0-.46-.23.56.56,0,0,0-.61.44,1.91,1.91,0,0,0-.07.58,1.34,1.34,0,0,0,.16.74.58.58,0,0,0,.52.24.5.5,0,0,0,.46-.23A1.54,1.54,0,0,0,305,99.67Z"/><path class="cls-8" d="M308.14,99.67a1.45,1.45,0,0,1-.29,1,1.09,1.09,0,0,1-.85.33,1,1,0,0,1-.84-.34,1.49,1.49,0,0,1-.28-1q0-1.32,1.14-1.32a1.07,1.07,0,0,1,.86.32A1.51,1.51,0,0,1,308.14,99.67Zm-.44,0a1.44,1.44,0,0,0-.16-.76.58.58,0,0,0-.53-.24.6.6,0,0,0-.54.24,1.37,1.37,0,0,0-.17.76,1.41,1.41,0,0,0,.16.76.57.57,0,0,0,.51.25.61.61,0,0,0,.54-.24A1.4,1.4,0,0,0,307.7,99.67Z"/><path class="cls-8" d="M309.67,98.4a1.23,1.23,0,0,1,.7.16.54.54,0,0,1,.23.47.52.52,0,0,1-.13.36.69.69,0,0,1-.39.2v0a.76.76,0,0,1,.45.19.55.55,0,0,1,.15.4.64.64,0,0,1-.26.54,1.16,1.16,0,0,1-.71.19h-1V98.4Zm-.57.32v.75h.51a.81.81,0,0,0,.43-.08.4.4,0,0,0,0-.58.69.69,0,0,0-.4-.09Zm0,1.91h.55a.78.78,0,0,0,.46-.1.37.37,0,0,0,.13-.32.38.38,0,0,0-.14-.33.86.86,0,0,0-.48-.1h-.53Z"/><path class="cls-8" d="M311.82,101a.76.76,0,0,1-.58-.2.77.77,0,0,1-.19-.55.74.74,0,0,1,.26-.61,1.38,1.38,0,0,1,.84-.23h.57v-.14a.62.62,0,0,0-.13-.44.56.56,0,0,0-.41-.13.7.7,0,0,0-.41.1.43.43,0,0,0-.16.31l-.44,0q.11-.69,1-.69a1,1,0,0,1,.72.22.81.81,0,0,1,.24.64v1.09a.63.63,0,0,0,0,.28.19.19,0,0,0,.19.1l.14,0v.26a1.42,1.42,0,0,1-.33,0,.43.43,0,0,1-.34-.12.64.64,0,0,1-.12-.39h0a1,1,0,0,1-.38.41A1.05,1.05,0,0,1,311.82,101Zm.1-.32a.8.8,0,0,0,.41-.11.77.77,0,0,0,.29-.29.76.76,0,0,0,.1-.38v-.21h-.46a1.45,1.45,0,0,0-.45.06.48.48,0,0,0-.24.17.53.53,0,0,0-.08.31.43.43,0,0,0,.11.32A.43.43,0,0,0,311.91,100.67Z"/><path class="cls-8" d="M314.73,98.4h.42v1.11l.13,0a.32.32,0,0,0,.12-.08l.14-.17.54-.85h.44l-.51.76a2.39,2.39,0,0,1-.3.39l.83,1.39h-.47l-.65-1.17-.12,0h-.14v1.12h-.42Z"/><path class="cls-8" d="M319,99.67a1.45,1.45,0,0,1-.29,1,1.09,1.09,0,0,1-.85.33,1,1,0,0,1-.84-.34,1.49,1.49,0,0,1-.28-1q0-1.32,1.14-1.32a1.07,1.07,0,0,1,.86.32A1.51,1.51,0,0,1,319,99.67Zm-.44,0a1.44,1.44,0,0,0-.16-.76.58.58,0,0,0-.53-.24.6.6,0,0,0-.54.24,1.37,1.37,0,0,0-.17.76,1.41,1.41,0,0,0,.16.76.57.57,0,0,0,.51.25.61.61,0,0,0,.54-.24A1.4,1.4,0,0,0,318.59,99.67Z"/><path class="cls-8" d="M321.09,100.94h-.36L320,98.71q0,.37,0,.53v1.7h-.41V98.4h.66l.52,1.55a2.91,2.91,0,0,1,.16.67,3.21,3.21,0,0,1,.16-.67l.52-1.55h.63v2.54h-.41V98.7Z"/><path class="cls-8" d="M324.82,98.4v2.54h-.42V98.71h-1.09v2.23h-.42V98.4Z"/><path class="cls-8" d="M326.13,101a.76.76,0,0,1-.58-.2.77.77,0,0,1-.19-.55.74.74,0,0,1,.26-.61,1.38,1.38,0,0,1,.84-.23H327v-.14a.62.62,0,0,0-.13-.44.56.56,0,0,0-.41-.13.7.7,0,0,0-.41.1.43.43,0,0,0-.16.31l-.44,0q.11-.69,1-.69a1,1,0,0,1,.72.22.81.81,0,0,1,.24.64v1.09a.63.63,0,0,0,0,.28.19.19,0,0,0,.19.1l.14,0v.26a1.42,1.42,0,0,1-.33,0,.43.43,0,0,1-.34-.12.64.64,0,0,1-.12-.39h0a1,1,0,0,1-.38.41A1.05,1.05,0,0,1,326.13,101Zm.1-.32a.8.8,0,0,0,.41-.11.77.77,0,0,0,.29-.29.76.76,0,0,0,.1-.38v-.21h-.46a1.45,1.45,0,0,0-.45.06.48.48,0,0,0-.24.17.53.53,0,0,0-.08.31.43.43,0,0,0,.11.32A.43.43,0,0,0,326.22,100.67Z"/><path class="cls-8" d="M328.59,98.4v1.08h1.14V98.4h.42v2.54h-.42V99.78h-1.14v1.16h-.42V98.4Z"/><path class="cls-8" d="M330.81,97.86v-.4h.42v.4Zm0,3.08V98.4h.42v2.54Z"/><path class="cls-8" d="M332.81,99.86l-.74,1.08h-.48l.81-1.11a.67.67,0,0,1-.59-.73.6.6,0,0,1,.25-.53,1.29,1.29,0,0,1,.74-.18h1v2.54h-.42V99.86Zm.59-1.17h-.55a.74.74,0,0,0-.45.11.39.39,0,0,0-.14.33.41.41,0,0,0,.13.33.63.63,0,0,0,.42.11h.59Z"/></g></g></svg>